<svg width="1920" height="700" viewBox="0 0 1920 700" fill="none" xmlns="http://www.w3.org/2000/svg">
<g clip-path="url(#clip0_40_8667)">
<mask id="mask0_40_8667" style="mask-type:luminance" maskUnits="userSpaceOnUse" x="0" y="0" width="1920" height="700">
<path d="M1920 0H0V700H1920V0Z" fill="white"/>
</mask>
<g mask="url(#mask0_40_8667)">
<path d="M277.1 439.5C277.1 443.5 279.1 451.5 283.1 459.6C287.1 467.6 287.1 461.6 291.1 457.6C295.1 453.6 303.1 461.6 303.1 461.6C307.1 463.6 339.2 471.6 345.3 473.6C351.3 475.6 353.3 467.6 353.3 459.5C353.3 451.4 359.3 357.1 359.3 357.1L375.4 363.1C375.4 363.1 423.6 417.3 425.6 421.3C427.6 425.3 427.6 425.3 427.6 427.3C427.6 429.3 431.6 433.3 431.6 433.3C431.6 433.3 435.6 435.3 437.6 437.3C439.6 439.3 441.6 441.3 447.6 441.3C453.6 441.3 451.6 447.3 451.6 447.3C445.6 461.4 477.7 453.3 477.7 453.3V441.3C477.7 441.3 509.8 425.2 523.9 419.2C538 413.2 540 417.2 540 417.2C540 417.2 546 421.2 554.1 425.2C562.1 429.2 566.1 425.2 570.2 421.2C574.2 417.2 586.3 421.2 588.3 423.2C590.3 425.2 658.6 461.3 664.6 463.3C670.6 465.3 670.6 469.3 670.6 469.3C670.6 469.3 672.6 475.3 672.6 477.3C672.6 479.3 674.6 483.3 672.6 483.3C670.6 483.3 670.6 489.3 670.6 489.3C670.6 489.3 674.6 507.4 674.6 511.4C674.6 515.4 674.6 515.4 670.6 517.4C666.6 519.4 660.6 523.4 658.6 531.5C656.6 539.5 652.6 543.5 650.6 545.6C648.6 547.7 648.6 549.6 648.6 549.6C648.6 549.6 658.6 557.6 660.6 559.6C662.6 561.6 664.6 561.6 662.6 567.6C660.6 573.6 666.6 577.6 668.6 579.6C670.6 581.6 672.6 585.6 670.6 591.6C668.6 597.6 670.6 599.6 676.6 599.6C682.6 599.6 690.7 593.6 692.7 583.5C694.7 573.5 706.8 585.5 708.8 589.5C710.8 593.5 718.8 591.5 718.8 591.5C718.8 591.5 734.9 589.5 742.9 589.5C750.9 589.5 750.9 585.5 752.9 581.5C754.9 577.5 756.9 579.5 762.9 581.5C768.9 583.5 774.9 579.5 774.9 579.5C774.9 579.5 782.9 575.5 786.9 571.5C790.9 567.5 786.9 565.5 784.9 559.5C782.9 553.5 799 551.5 799 551.5C799 551.5 799 555.5 799 559.5C799 563.5 799 567.5 801 567.5C803 567.5 805 575.5 809 583.6C813 591.6 811 581.6 811 575.6C811 569.6 815 569.6 819 567.6C823 565.6 821 561.6 821 555.6C821 549.6 827 547.6 831 547.6C835 547.6 837 541.6 837 533.5C837 525.5 841 519.4 841 517.4C841 516 845 510.6 847.2 507.6C844 503.8 839.6 502 837 499.4C833 495.4 831 481.3 833 473.3C835 465.3 831 455.2 823 445.2C815 435.2 819 433.2 813 419.1C807 405 790.9 372.9 790.9 372.9L809 368.9C809 368.9 811 374.9 815 378.9C819 382.9 829.1 405 831.1 411C833.1 417 837.1 421 847.2 431.1C857.2 441.1 853.2 463.2 853.2 463.2C853.2 469.2 857.2 475.2 863.2 479.3C869.2 483.4 873.2 489.3 873.2 495.4C873.2 501.4 889.3 521.5 891.3 525.5C893.3 529.5 897.3 535.5 895.3 539.6C893.3 543.6 899.3 561.7 899.3 569.7C899.3 573.7 899.7 577.9 900.3 581.5C901.9 583.7 903.3 586.1 903.3 587.7C903.3 591.7 887.2 629.9 887.2 629.9L901.3 637.9L961.5 639.9L889.2 702.1L881.2 708.1L944.2 722.4C949 716.4 953.2 709.8 956.8 702.7C968 681.2 978.1 658.3 987.3 635.3C991.7 624.3 995.3 611.6 991.1 598.4C989.9 598 988.5 597.2 987.9 597.6C979.5 604.2 969.8 605.4 960.2 607.4C948.8 609.8 937.1 611.8 926.1 616.4C917.9 619.8 912.7 617.8 907.8 609.8C906.2 607.2 904.4 604.6 902.8 602.2C903.6 597.4 904.4 593 905 588.6C913.4 587.8 922.1 588 929.3 580.6C931.5 578.2 935.3 578.4 938.5 577.2C943.1 575.4 947.7 573.6 952.4 571.8C966.7 566 979.3 555.3 994.2 551.3C998.8 549.9 1003.4 547.3 1004.8 540.3C1005.8 535.7 1008.8 534.1 1011.8 532.5C1015.8 530.5 1019.8 528.5 1024 527.5C1030.6 525.7 1038.3 527.3 1041.1 516.1C1041.3 514.9 1044.1 514.9 1045.5 513.9C1048.3 512.1 1052.1 510.7 1053.3 507.7C1055.9 500.5 1061.7 499.9 1066.1 496.7C1066.9 490.7 1067.9 484.9 1068.7 479.2C1071.5 478.4 1074.5 478.6 1075.5 477C1080.5 468.6 1085.1 459.5 1090 450.7C1083 439.3 1076.4 429.2 1064.3 427.4C1056.7 426.2 1052.7 418.2 1051.5 408.5C1050.9 404.5 1051.1 400.5 1050.7 394.2C1046.5 398.6 1043.3 401.8 1040.1 405.2C1025.4 422.1 1025.4 422.1 1006 423.7C1005.4 423.7 1005 423.9 1004.4 423.9C999.4 424.1 996.6 420.9 997 413.9C997.4 407.3 998.2 400.9 993.8 395C990.4 398.6 987.6 401.2 982.2 406.8C984.6 390.3 978 383.1 971.4 376.1C964.6 368.7 961.4 358.8 959 348.8C970.6 333.5 978.5 333.9 986.3 349.8C989.3 356.2 992.3 362.6 994.3 367.1C1000.9 372.1 1006.3 375.3 1011 379.9C1022.8 391.3 1035.3 392.3 1048.7 385.7C1051.1 384.5 1053.5 383.7 1055.9 382.7C1058.1 389.1 1060.1 394.7 1062.5 401.6C1078.8 404.6 1095.2 407.8 1111.7 410.8C1114.3 411.2 1116.9 409.6 1119.7 409.4C1134.8 408.4 1149.6 407.6 1163.5 406.6C1168.5 411 1171.1 417.2 1174.3 422.5C1182.5 421.7 1192.8 420.5 1195 419.5C1199 417.5 1199 415.5 1201 411.5C1203 407.5 1221.1 399.5 1227.1 397.4C1233.1 395.3 1233.1 395.4 1231.1 389.4C1229.1 383.4 1217 379.4 1211 377.4C1205 375.4 1205 363.3 1205 363.3V333.2L1227.1 335.2C1241.2 341.2 1247.2 331.2 1261.2 329.2C1275.3 327.2 1281.3 283 1281.3 279C1281.3 275 1287.3 267 1291.3 264.9C1295.3 262.9 1321.4 248.8 1331.4 240.8C1341.4 232.8 1333.4 226.7 1333.4 226.7C1333.4 226.7 1315.3 208.6 1311.3 200.6C1307.3 192.6 1301.3 194.6 1301.3 194.6C1301.3 194.6 1285.2 186.6 1279.2 182.6C1273.2 178.6 1279.2 164.5 1279.2 164.5C1279.2 164.5 1297.3 110.3 1301.3 100.3C1305.3 90.3 1307.3 80.2 1323.4 78.2C1339.5 76.2 1329.4 46.1 1329.4 36C1329.4 25.9 1319.4 -6.2 1319.4 -6.2L1300.5 -25H1232.9L1154.4 -16.2C1154.4 -16.2 1144.4 -0.1 1132.3 5.9C1120.3 11.9 1126.3 20 1130.3 22C1134.3 24 1138.3 32 1138.3 32C1156.4 62.1 1112.2 50.1 1112.2 50.1L1029.9 32L1013.8 22C1013.8 22 981.7 18 967.6 16C953.5 14 949.5 22 937.5 32.1C925.5 42.1 919.4 62.2 919.4 76.3C919.4 90.4 943.5 106.4 951.5 110.4C954.3 111.8 956.5 113.2 957.9 114.4C961.1 111.8 964.5 109.2 967.5 108.4C973.5 106.4 983.6 94.3 993.6 96.4C1003.6 98.4 1007.7 100.4 1009.7 98.4C1009.7 98.4 1015.7 110.4 1009.7 114.5C1003.7 118.5 993.6 118.5 991.6 122.5C989.6 126.5 985.6 132.5 981.6 132.5C981.6 132.5 987.6 138.5 989.6 144.5C991.6 150.5 1003.7 156.5 1003.7 158.6C1003.7 160.6 1005.7 156.6 1005.7 162.6C1005.7 168.6 1007.7 174.6 1007.7 174.6C1007.7 174.6 1009.7 172.6 1011.7 170.6C1013.7 168.6 1019.7 166.6 1021.7 170.6C1023.7 174.6 1033.7 186.7 1023.7 184.7C1013.7 182.7 1011.7 184.7 1009.6 188.7C1007.6 192.7 1009.6 194.7 1011.6 198.7C1013.6 202.7 1019.6 208.7 1019.6 220.8C1019.6 232.9 1021.6 234.9 1021.6 234.9L1027.6 246.9L1017.6 238.9C1017.6 238.9 999.5 250.9 987.5 240.9C975.5 230.9 975.5 234.9 973.4 232.9C971.4 230.9 963.4 226.9 967.4 214.8C971.4 202.8 975.4 192.7 975.4 192.7C975.4 192.7 979.4 190.7 973.4 184.7C967.4 178.7 951.3 160.6 951.3 154.6C951.3 153.8 951.3 153.2 951.3 152.6C948.3 155.4 943.9 159.4 939.3 162.6C931.3 168.6 909.2 160.6 897.1 158.6C892.5 157.8 886.3 157.6 880.6 157.8C882 159 883 161 883 164.6C883 174.6 881 178.7 873 180.7C865 182.7 836.9 182.7 830.8 178.7C824.8 174.7 804.7 164.6 798.7 166.7C792.7 168.7 782.6 168.7 774.6 172.7C766.6 176.7 768.6 182.7 748.5 178.7C739.5 176.9 734.6 176.3 731.8 175.5L708.3 194C708.3 194.2 708.3 194.6 708.3 194.8C706.3 206.8 706.3 208.9 706.3 208.9L712.3 212.9L708.3 218.9C708.3 218.9 722.4 233 720.3 241C720.3 241 728.3 247 728.3 253L732.3 245C732.3 245 758.4 261.1 760.4 243C760.4 243 770.4 241 776.5 249C782.5 257 788.5 255 794.6 251C800.6 247 810.7 245 816.7 247C816.7 247 820.7 269.1 814.7 279.1C808.7 289.1 804.7 311.2 804.7 311.2C804.7 311.2 802.7 323.2 790.6 323.2C778.6 323.2 774.5 321.2 772.5 319.2C770.5 317.2 764.5 313.2 758.4 317.2C752.4 321.2 748.4 329.2 738.3 325.2C728.3 321.2 716.2 317.2 708.2 317.2C700.2 317.2 700.2 317.2 700.2 317.2C700.2 317.2 698.2 311.2 692.2 311.2C686.2 311.2 676.1 307.2 672.1 303.2C668.1 299.2 660.1 293.2 650 299.2C640 305.2 638 307.2 638 317.3C638 327.4 638 341.4 619.9 331.4C601.8 321.4 599.8 321.4 593.8 321.4C587.8 321.4 585.8 313.4 585.8 311.4C585.8 309.4 581.8 303.4 573.8 301.4C565.8 299.4 551.7 301.4 545.7 295.4C539.7 289.4 533.7 285.4 531.6 285.4C529.6 285.4 525.6 283.4 531.6 277.4C537.6 271.4 539.6 267.4 533.6 255.3C533.6 255.3 533.6 249.3 535.6 245.3C537.6 241.3 537.6 241.3 531.6 241.3C531.6 241.3 525.6 233.3 519.6 235.3C513.6 237.3 505.5 241.3 505.5 241.3C505.5 241.3 487.4 237.3 479.4 241.3C471.4 245.3 459.3 241.3 453.3 241.3C447.3 241.3 417.2 247.3 399.1 261.4C399.1 261.4 393.1 269.4 379 265.4H364.9C364.9 265.4 360.9 265.4 357.5 263.4H347.7C343.3 277.5 336.3 287.7 323.6 292.3C314.6 295.5 311.8 307.6 307.1 316.6C303.3 323.6 305.7 331.1 306.9 337.9C298.9 354 290.6 362.6 277.2 367.8C271.6 370 268.6 374 265.2 380C258.8 392 248.3 400.9 246.5 416.9C246.3 418.5 244.5 420.1 243.3 421.3C242.9 421.7 242.7 422.1 242.3 422.3C247.3 423.9 260.4 428.5 268.4 431.7C279.2 435.5 277.1 435.5 277.1 439.5ZM728.8 188.6L722.8 186.6C722.8 186.6 734.8 180.6 738.9 186.6C738.8 186.6 736.8 192.6 728.8 188.6Z" fill="white"/>
</g>
<mask id="mask1_40_8667" style="mask-type:luminance" maskUnits="userSpaceOnUse" x="0" y="0" width="1920" height="700">
<path d="M1920 0H0V700H1920V0Z" fill="white"/>
</mask>
<g mask="url(#mask1_40_8667)">
<path d="M1920 0H0V100H1920V0Z" fill="url(#paint0_linear_40_8667)"/>
</g>
<mask id="mask2_40_8667" style="mask-type:luminance" maskUnits="userSpaceOnUse" x="0" y="0" width="1920" height="700">
<path d="M1920 0H0V700H1920V0Z" fill="white"/>
</mask>
<g mask="url(#mask2_40_8667)">
<path d="M1843.9 293C1845.56 293 1846.9 292.105 1846.9 291C1846.9 289.895 1845.56 289 1843.9 289C1842.24 289 1840.9 289.895 1840.9 291C1840.9 292.105 1842.24 293 1843.9 293Z" fill="#CAD2DB"/>
<path d="M1923.2 258.9C1923.2 258.9 1915.2 260.9 1913.2 262.9C1911.2 264.9 1881.1 289 1881.1 289C1881.1 289 1877.1 291 1877.1 295C1877.1 299 1885.1 313.1 1885.1 317.1C1885.1 321.1 1887.1 329.1 1895.1 321.1C1903.1 313.1 1903.1 293 1903.1 291C1903.1 289 1905.1 285 1907.1 289C1909.1 293 1913.1 301 1913.1 301C1913.1 301 1915.1 295 1925.1 289L1935.1 270.9L1923.2 258.9Z" fill="#CAD2DB"/>
<path d="M1786.7 407.4C1786.7 407.4 1774.7 413.4 1774.7 419.4C1774.7 425.4 1768.7 435.5 1770.7 441.5C1772.7 447.5 1778.7 457.6 1778.7 453.5C1778.7 449.5 1784.7 435.4 1786.7 429.4C1788.7 423.4 1790.7 411.4 1786.7 407.4Z" fill="#CAD2DB"/>
<path d="M1780.6 503.8L1792.6 507.8C1792.6 507.8 1794.6 513.8 1794.6 515.8C1794.6 517.8 1798.6 525.8 1796.6 529.9C1794.6 533.9 1790.6 541.9 1788.6 544C1786.6 546.1 1784.6 550 1786.6 556C1788.6 562 1790.6 564 1790.6 566C1790.6 566 1794.6 564 1798.6 566C1802.6 568 1804.6 570 1808.6 572C1812.6 574 1816.6 580 1816.6 580C1816.6 580 1816.6 592 1814.6 590C1812.6 588 1804.6 586 1804.6 584C1804.6 582 1802.6 578 1798.6 578C1794.6 578 1790.6 574 1790.6 574C1790.6 574 1786.6 572 1786.6 574C1786.6 576 1784.6 578 1784.6 580C1784.6 582 1788.6 586 1786.6 588C1784.6 590 1784.6 596 1782.6 594C1780.6 592 1774.6 584 1774.6 582C1774.6 580 1776.6 580 1776.6 578C1776.6 576 1776.6 568 1774.6 563.9C1772.6 559.8 1766.6 549.8 1766.6 545.8C1766.6 541.8 1768.6 537.8 1770.6 535.8C1772.6 533.8 1772.6 531.8 1772.6 527.8C1772.6 523.8 1772.6 503.8 1780.6 503.8Z" fill="#CAD2DB"/>
<path d="M1810.7 590.1C1810.7 590.1 1806.7 590.1 1806.7 592.1C1806.7 594.1 1806.7 596.1 1808.7 596.1C1810.7 596.1 1812.7 596.1 1812.7 594.1C1812.7 592.1 1812.7 590.1 1812.7 590.1H1810.7Z" fill="#CAD2DB"/>
<path d="M1816 590.9C1816 590.9 1822.8 600.1 1820.8 604.1C1818.8 608.1 1816.8 608.1 1818.8 612.1C1820.8 616.1 1822.8 624.1 1822.8 624.1V628.1C1822.8 628.1 1824.8 628.1 1826.8 626.1C1828.8 624.1 1828.8 616.1 1828.8 614.1C1828.8 612.1 1830.8 612.1 1830.8 610.1C1830.8 608.2 1836.8 586.1 1816 590.9Z" fill="#CAD2DB"/>
<path d="M1792.7 604.1C1792.7 604.1 1796.7 602.1 1800.7 604.1C1804.7 606.1 1804.7 610.1 1806.7 612.1C1808.7 614.1 1810.7 614.1 1814.7 614.1C1814.7 614.1 1814.7 620.1 1816.7 622.1C1818.7 624.1 1820.7 626.1 1820.7 626.1C1820.7 626.1 1822.7 628.1 1820.7 630.1C1818.7 632.1 1814.7 632.1 1810.7 634.1C1806.7 636.1 1806.7 640.1 1804.7 640.1C1804.7 640.1 1796.7 636.1 1796.7 632.1C1796.7 628.1 1800.7 626.1 1798.7 622.1C1796.7 618.1 1788.7 618.1 1790.7 614.1C1792.7 610.2 1792.7 604.1 1792.7 604.1Z" fill="#CAD2DB"/>
<path d="M1769.6 600.1C1770.15 600.1 1770.6 599.652 1770.6 599.1C1770.6 598.547 1770.15 598.1 1769.6 598.1C1769.05 598.1 1768.6 598.547 1768.6 599.1C1768.6 599.652 1769.05 600.1 1769.6 600.1Z" fill="#CAD2DB"/>
<path d="M1762.6 612.2L1758.6 622.2C1758.6 622.2 1768.6 622.2 1762.6 612.2Z" fill="#CAD2DB"/>
<path d="M1752.5 632.2L1748.5 638.2C1748.5 638.3 1754.5 638.3 1752.5 632.2Z" fill="#CAD2DB"/>
<path d="M1746.5 640.3C1746.5 640.3 1742.5 638.3 1740.5 646.3C1738.5 654.3 1748.5 646.3 1746.5 640.3Z" fill="#CAD2DB"/>
<path d="M1832.8 632.2C1832.8 632.2 1819.8 652.7 1810.7 648.3C1806.7 646.3 1806.7 646.3 1804.7 648.3C1802.7 650.3 1790.6 660.3 1790.6 666.4C1790.6 672.5 1790.6 676.4 1792.6 670.4C1794.6 664.4 1794.6 660.4 1798.6 662.4C1802.6 664.4 1806.6 664.4 1808.6 662.4C1810.6 660.4 1814.6 660.4 1814.6 664.4C1814.6 668.4 1810.6 688.5 1832.7 686.5V672.4C1832.7 672.4 1836.7 672.4 1838.7 674.4C1838.7 674.4 1844.7 666.4 1842.7 660.3C1840.7 654.2 1840.7 648.3 1840.7 644.2C1840.7 640.1 1836.8 632.2 1832.8 632.2Z" fill="#CAD2DB"/>
<path d="M1734.5 670.4C1734.5 670.4 1754.6 692.5 1760.6 694.5C1760.6 694.5 1752.6 700.5 1752.6 706.5L1724.5 712.5L1702.4 708.5L1708.4 702.5C1708.4 702.5 1720.4 692.5 1734.5 670.4Z" fill="#CAD2DB"/>
<path d="M1491.6 690.5C1491.6 690.5 1515.7 692.5 1519.7 704.6L1507.7 708.6H1495.7C1495.6 708.5 1485.6 694.5 1491.6 690.5Z" fill="#CAD2DB"/>
<path d="M1461.5 582.1V594.1H1463.5C1463.5 594.1 1463.5 582.1 1461.5 582.1Z" fill="#CAD2DB"/>
<path d="M1316.9 638.3C1316.9 638.3 1310.9 662.4 1314.9 672.4C1318.9 682.4 1320.9 690.5 1331 682.4C1341 674.4 1339 668.3 1335 658.3C1331 648.3 1319 618.2 1316.9 638.3Z" fill="#CAD2DB"/>
<path d="M1025.9 590.1C1025.9 590.1 1015.9 590.1 1017.9 592.1C1019.9 594.1 1027.9 596.1 1025.9 590.1Z" fill="white"/>
<path d="M409.6 -14.1001C409.6 -14.1001 411.6 5.9999 415.6 7.9999C419.6 9.9999 433.7 5.9999 431.7 15.9999C429.7 25.9999 429.7 34.0999 427.7 36.0999C425.7 38.0999 419.7 46.0999 405.6 44.0999C391.5 42.0999 373.5 42.0999 369.5 50.0999H353.4L367.5 31.9999C367.5 31.9999 349.4 29.9999 357.5 23.9999C365.6 17.9999 363.5 13.9999 363.5 9.8999C363.5 5.7999 367.5 5.8999 373.5 3.8999C379.5 1.8999 381.5 -12.2001 381.5 -12.2001L409.6 -14.1001Z" fill="#CAD2DB"/>
<path d="M345.4 -8.10019C345.4 -8.10019 345.4 -2.10019 345.4 7.99981C345.4 18.0998 341.4 24.0998 331.3 26.0998C321.2 28.0998 303.2 30.0998 301.2 30.0998C299.2 30.0998 297.2 24.0998 297.2 24.0998C297.2 24.0998 307.2 16.0998 305.2 9.99981C303.2 3.89981 293.2 7.99981 299.2 -4.10019C305.2 -16.1002 337.3 -28.2002 337.3 -28.2002L345.4 -8.10019Z" fill="#CAD2DB"/>
<path d="M795 262.9C795 262.9 780.9 260.9 780.9 264.9C780.9 268.9 776.9 274.9 784.9 274.9C792.9 274.9 799.1 266.9 795 262.9Z" fill="white"/>
<path d="M704.7 264.9C704.7 264.9 688.6 262.9 684.6 260.9C680.6 258.9 678.6 266.9 678.6 266.9C678.6 266.9 684.6 264.9 690.6 266.9C696.7 268.9 700.7 268.9 704.7 264.9Z" fill="#CAD2DB"/>
<path d="M522 206.7C522 204.7 524 184.6 520 178.6C516 172.6 520 168.6 520 164.5C520 160.4 518 154.5 514 158.5C510 162.5 510 168.5 512 172.6C514 176.6 516 178.6 514 180.6C512 182.6 506 186.6 506 186.6L508 212.7L522 206.7Z" fill="#CAD2DB"/>
<path d="M445.8 198.7C445.8 198.7 439.8 200.7 441.8 202.7C443.8 204.7 447.8 208.7 449.8 204.7C451.8 200.7 449.8 198.7 445.8 198.7Z" fill="#CAD2DB"/>
</g>
<mask id="mask3_40_8667" style="mask-type:luminance" maskUnits="userSpaceOnUse" x="0" y="0" width="1920" height="700">
<path d="M1920 0H0V700H1920V0Z" fill="white"/>
</mask>
<g mask="url(#mask3_40_8667)">
<path d="M1941.8 -15.5001C1943.6 -16.9001 1944.8 -18.1001 1946.2 -19.3001V-25.1001H1299.8L1319 -6.1001C1319 -6.1001 1329 25.9999 1329 36.0999C1329 46.1999 1339 76.1999 1323 78.2999C1306.9 80.2999 1304.9 90.2999 1300.9 100.4C1296.9 110.5 1278.8 164.6 1278.8 164.6C1278.8 164.6 1272.8 178.7 1278.8 182.7C1284.8 186.7 1300.9 194.7 1300.9 194.7C1300.9 194.7 1306.9 192.7 1310.9 200.7C1314.9 208.7 1333 226.8 1333 226.8C1333 226.8 1341 232.8 1331 240.9C1321 248.9 1294.9 263 1290.9 265C1286.9 267 1280.9 275 1280.9 279.1C1280.9 283.1 1274.9 327.3 1260.8 329.3C1246.7 331.3 1240.7 341.3 1226.7 335.3L1204.6 333.3V363.4C1204.6 363.4 1204.6 375.4 1210.6 377.5C1216.6 379.5 1228.7 383.5 1230.7 389.5C1232.7 395.5 1232.7 395.5 1226.7 397.5C1220.7 399.5 1202.6 407.5 1200.6 411.6C1198.6 415.6 1198.6 417.6 1194.6 419.6C1192.4 420.8 1182.2 421.8 1173.9 422.6C1175.7 425.6 1177.7 428.2 1180.5 430C1187.5 434.4 1193.5 441.2 1199.8 446.9C1198.2 448.1 1196 449.7 1193 451.9C1197 456.9 1200.2 461.5 1203.6 465.8C1213.2 477.8 1216.6 473.6 1225.1 468.2C1227.7 466.6 1229.3 462.4 1231.3 459.4C1234.1 466.6 1237.3 473.7 1234.3 482.5C1233.5 484.7 1234.1 487.9 1234.5 490.5C1236.9 505.4 1237.9 520.6 1241.9 534.7C1247.5 554.6 1254.7 573.6 1261.2 593.1C1265.8 606.7 1272 619.4 1275.3 634.3C1276.5 640.3 1280.9 645.7 1284.3 651C1286.7 654.4 1290.9 654.6 1292.9 651C1296.7 644.6 1302.5 640 1305.3 633.5C1307.9 627.1 1312.1 623.5 1315.7 618.6C1315.5 608.2 1314.1 598.1 1319.1 588.7C1320.9 585.3 1320.1 579.5 1319.9 574.6C1319.7 569.2 1318.9 563.8 1318.5 558.3C1317.7 550.7 1319.1 545.7 1325.9 542.8C1331.7 540.4 1338.5 536.8 1341.8 530.8C1345 524.8 1349.2 521.4 1353.2 517.2C1358.2 512 1363.4 507 1367.7 500.9C1372.5 494.1 1377.5 488.7 1384.6 485.6C1390.6 483 1394.4 477.4 1394.8 468.9C1394.8 467.1 1395.8 465.3 1396.2 464.1C1402 458.5 1408 461.3 1413.9 460.9C1419.7 460.5 1425.5 458.9 1431.4 456.9C1436.8 454.9 1441.8 451.9 1447.9 448.7C1449.7 464 1454.3 476.6 1463.8 484C1468.6 487.6 1468.2 492.4 1469.8 496.8C1471.8 502 1477.8 503.8 1478.2 510.7C1478.6 516.1 1478.6 521.5 1478.2 527C1478 531 1476.8 534.8 1475.8 539.4C1481.8 543.6 1486.8 546 1492.7 541.2C1498.1 537 1503.5 533 1509.4 528.4C1517 546.7 1517 566.3 1523.5 583.8C1526.1 591.2 1523.7 601.1 1524.7 610.1C1525.7 619.1 1522.9 628.8 1522.1 638C1521.5 643.2 1521.5 648.6 1521.3 653.9C1524.3 654.7 1527.3 654.3 1528.3 655.9C1535.1 666.7 1542.6 676.8 1544.6 691.8C1546.2 703.6 1549.4 714.7 1554.6 723.9H1581.1C1580.1 719.9 1579.9 715.9 1580.5 711.3C1581.9 702.3 1579.5 695 1574.3 689.2C1567.9 682.2 1562.5 673.5 1553.8 669.9C1549.2 667.9 1547.4 663.7 1546 658.1C1544 650.5 1542.4 641 1537.8 636.6C1532.6 631.6 1532.2 626.6 1533.8 620.9C1537.2 607.3 1541.8 594.2 1543.6 579.7C1543.8 578.7 1545.2 577.3 1545.8 577.3C1547.2 577.5 1549.4 578.1 1549.8 579.3C1551.2 582.7 1550.6 587.9 1555 588.3C1565.2 589.3 1571.7 596.5 1575.1 608.4C1576.7 614.4 1581.1 616 1584.3 618.8C1587.3 621.2 1591.1 622.2 1594.7 623.8C1595.1 631 1595.3 637.7 1595.9 646.1C1602.9 640.5 1610.6 637.5 1614 630.8C1618.4 622.4 1624.6 620.2 1630.5 615.7C1633.3 613.7 1635.9 611.3 1638.9 609.3C1642.5 606.9 1644.7 603.3 1645.5 598.3C1649.7 574.6 1646.3 552.5 1632.1 536.1C1624.1 526.9 1616.8 517.4 1610.4 506.4C1605 497.2 1604.8 491.5 1611 483.1C1615.6 476.7 1621.6 472.3 1627.3 466.8C1634.7 459.6 1641.6 458.4 1649.4 464.4C1650.4 469.6 1651.4 474.6 1652.2 479.5C1647.8 483.5 1643.8 486.9 1640.2 491.1C1636.4 495.5 1638 503.3 1642.8 506.4C1646.4 508.6 1649.8 508.4 1653.4 506C1659.8 502 1661.2 493.6 1664.4 486.9C1664.2 485.9 1664.2 485.1 1664 484.5C1663.4 483.5 1662.6 482.5 1662 481.5C1658.2 473.9 1659.2 465.6 1665 463.4C1673 460.2 1681.7 458.6 1689.7 455.4C1699.7 451.2 1709 443.6 1720 443.2C1722 443.2 1724.4 441.8 1726 440.4C1737.6 429.4 1749.1 418.3 1760.5 406.9C1761.5 405.9 1762.3 403.7 1762.5 401.9C1764.1 388 1771.9 379.2 1778.6 369.8C1783.4 362.8 1788.4 350.9 1790.6 338.7C1789.6 338.5 1788.6 338.3 1787.4 338.1C1780.8 336.3 1780.8 336.3 1785 329.1C1788 323.9 1789 316.3 1785.8 312.6C1778.4 304.2 1774.4 292.9 1770.1 282.1C1769.1 279.9 1767.3 278.1 1765.7 276.5C1763.5 274.3 1761.1 272.1 1757.5 268.7C1764.3 261.7 1770.5 256.1 1775.8 249.6C1781.4 243 1790.3 245.4 1796.5 236.6C1788.3 233.6 1781.2 231 1773.4 228.2C1771 230.4 1767.8 233 1764.8 235.6C1759.8 239.8 1758 239.2 1756.4 231C1755.6 227 1754.4 225 1751.6 224.2C1749 223.4 1746.2 223.4 1743.8 222.2C1740 220.2 1740 216.2 1742.4 211.2C1750 213.2 1756 210 1761.5 201.8C1765.9 195.4 1772.7 191.6 1778.8 187.3C1782.8 184.5 1787 184.9 1789.8 192.1C1786.8 198.3 1778 202.7 1784.2 214.8C1796.8 207 1809.9 193.3 1825.6 208.4C1823.8 214.2 1822 219.6 1820.6 224.5C1823.4 231.1 1827.2 229.9 1831 230.1C1837 230.3 1837.8 232.3 1837.8 240.3C1837.8 243.5 1837.6 246.9 1838.4 249.9C1839.8 254.9 1839.4 259.1 1837.6 263.8C1836.2 267.4 1835 271 1833.4 275.4C1836.4 277.4 1839 280.4 1841 279.8C1849.8 276.8 1858.5 273.4 1866.9 269C1871.9 266.6 1873.5 261 1873.3 253.9C1873.1 244.9 1872.3 236.4 1867.1 229.2C1861.7 221.8 1856.9 213.7 1851.8 206.1C1852.4 199.7 1856.6 199.5 1859.6 197.1C1866.6 191.9 1876.5 189.7 1876.5 175.2C1876.5 172.8 1879.5 169.6 1881.7 167.8C1887.5 163 1893.7 158.8 1898.8 155.2C1905.6 156.6 1911.6 159.4 1917.1 158.4C1925.1 157 1933 152.8 1938.6 145.2C1940.8 142.2 1943.2 139.2 1945.8 136.2V-12.1001C1944.6 -12.5001 1943 -13.3001 1941.8 -15.5001Z" fill="url(#paint1_linear_40_8667)"/>
</g>
<mask id="mask4_40_8667" style="mask-type:luminance" maskUnits="userSpaceOnUse" x="0" y="0" width="1920" height="700">
<path d="M1920 0H0V700H1920V0Z" fill="white"/>
</mask>
<g mask="url(#mask4_40_8667)">
<path d="M353.4 254.9C353.4 244.9 367.5 244.9 373.5 244.9C379.5 244.9 389.6 242.9 393.6 238.9C397.6 234.9 403.6 230.9 405.6 226.9C407.6 222.9 413.6 212.8 413.6 212.8C413.6 212.8 407.6 204.8 411.6 200.8C415.6 196.8 421.6 184.7 425.7 182.7C429.7 180.7 445.8 172.7 445.8 172.7C445.8 172.7 449.8 170.7 449.8 162.7C449.8 154.7 451.8 144.6 461.8 146.6C471.8 148.6 477.9 154.6 483.9 152.6C489.9 150.6 500 136.5 508 136.5C516 136.5 524.1 134.5 528.1 142.5C532.1 150.5 540.1 168.6 550.2 172.6C560.2 176.6 582.3 188.7 586.3 194.7C590.3 200.7 600.4 208.8 592.3 216.8C584.3 224.8 568.2 226.8 566.2 224.8C564.2 222.8 560.2 222.8 558.2 224.8C556.2 226.8 552.2 228.8 552.2 228.8L582.3 244.9C582.3 244.9 586.3 234.9 586.3 232.9C586.3 230.9 586.3 228.9 590.3 226.9C594.3 224.9 606.4 212.8 606.4 208.8C606.4 204.8 598.4 196.8 602.4 194.7C606.4 192.7 612.4 192.7 618.5 196.7L620.5 198.7C620.5 198.7 622.5 190.7 618.5 188.7C614.5 186.7 608.5 182.7 608.5 182.7C608.5 182.7 594.4 178.7 594.4 174.7C594.4 170.7 592.4 168.7 588.4 168.7C584.4 168.7 574.3 166.7 570.3 156.7C566.3 146.7 558.3 140.6 556.2 138.6C554.2 136.6 550.2 128.6 554.2 122.5C558.2 116.5 562.2 116.5 562.2 116.5C562.2 116.5 570.2 126.5 572.2 128.5C574.2 130.5 578.2 132.5 580.2 134.5C582.2 136.5 598.3 152.6 604.3 154.6C610.3 156.6 626.4 160.6 630.4 168.7C634.4 176.7 632.4 184.8 632.4 188.8C632.4 192.8 642.4 206.9 644.4 210.9C646.4 214.9 656.4 229 656.4 235C656.4 235 656.4 239 658.4 241C660.4 243 670.4 247 670.4 247C670.4 247 674.4 237 678.4 232.9C682.4 228.9 688.4 222.9 688.4 222.9C688.4 222.9 676.4 210.9 674.3 204.8C672.3 198.8 666.3 190.7 672.3 192.8C678.3 194.8 680.3 196.8 684.3 192.8C688.3 188.8 688.3 184.8 694.3 184.8C700.1 184.8 709.8 183 708.4 194L731.9 175.5C728.5 174.5 728.5 173.1 728.5 168.7C728.5 160.7 726.5 158.7 730.5 152.6C734.5 146.6 738.5 140.6 738.5 138.5C738.5 136.5 738.5 130.5 742.5 128.5C746.5 126.5 748.5 118.5 752.5 114.4C756.5 110.4 764.5 102.4 764.5 102.4C764.5 102.4 782.6 112.4 784.6 112.4C786.6 112.4 780.6 116.4 782.6 118.4C784.6 120.4 788.6 124.4 790.6 128.4C792.6 132.4 794.6 134.4 794.6 134.4C794.6 134.4 810.7 128.4 812.7 126.4C814.7 124.4 826.8 120.4 834.8 126.4C842.8 132.4 854.9 138.4 858.9 142.5C862.9 146.5 875 156.6 875 156.6C875 156.6 878.2 155.8 880.6 157.8C886.4 157.8 892.4 157.8 897.1 158.6C909.1 160.6 931.2 168.6 939.3 162.6C943.7 159.2 948.1 155.4 951.3 152.6C950.9 148.2 948.9 145.6 945.3 138.5C941.3 130.5 945.3 126.5 949.3 122.4C951.3 120.4 954.5 117.2 957.7 114.4C956.1 113.2 954.1 111.8 951.3 110.4C943.3 106.4 919.2 90.2998 919.2 76.2998C919.2 62.2998 925.2 42.1998 937.3 32.0998C949.3 22.0998 953.4 13.9998 967.4 15.9998C981.4 17.9998 1013.6 21.9998 1013.6 21.9998L1029.7 31.9998L1112 50.0998C1112 50.0998 1156.2 62.0998 1138.1 31.9998C1138.1 31.9998 1134.1 23.9998 1130.1 21.9998C1126.1 19.9998 1120.1 11.9998 1132.1 5.89981C1144.1 -0.100195 1154.2 -16.2002 1154.2 -16.2002L1232.1 -25.2002H542.1C542.1 -23.0002 541.9 -20.8002 541.7 -18.4002C539.5 -20.8002 537.5 -23.0002 535.3 -25.2002H509.4C509.6 -24.2002 509.8 -23.2002 510.2 -22.2002C511.6 -15.4002 513.2 -8.60019 514.6 -2.10019C512.8 -0.700195 511.8 0.699806 511 0.699806C501 -1.70019 491.7 3.4998 482.3 5.2998C476.9 6.2998 471.5 10.0998 468 17.2998C462.8 28.2998 454.8 34.7998 444.9 38.1998C441.9 39.1998 438.7 40.3998 434.7 41.9998C435.7 56.4998 424.5 52.7998 419.4 59.0998C411.8 68.2998 404.5 58.6998 396.9 59.4998C397.3 64.4998 397.5 68.2998 397.7 72.6998C393.9 73.0998 390.3 74.8998 387.7 73.6998C379.5 69.0998 372 72.8998 363 75.8998C365.2 79.6998 366.6 82.8998 368.6 85.4998C369.6 86.6998 371.6 86.4998 373.2 86.6998C384.8 88.4998 392.5 97.6998 399.1 108.6C400.7 111.2 402.1 114.6 402.1 117.8C402.3 128 402.7 138.3 397.3 147.7C395.3 148.1 393.3 148.9 391.1 148.9C373.4 148.1 355.4 148.5 337.9 145.7C327.7 143.9 320.4 147.5 313.6 153.1C315.2 164.5 318 174.8 317.4 184.6C316.8 194.4 312.8 203.9 310 214.3C312 217.7 315 220.9 316.2 225.1C317.4 229.1 317 234.1 317.2 239.2C322.6 239.2 327.4 239.8 332.3 239C337.9 238 341.7 239.8 344.5 246C346.1 249.6 348.3 252.6 349.9 255.6C349.3 258.2 348.5 260.6 347.9 263H357.7C355.4 261.5 353.4 259.1 353.4 254.9ZM809.1 114.4C811.1 108.4 813.1 104.4 819.1 102.4C825.1 100.4 839.2 100.4 843.2 96.3998C843.2 96.3998 845.2 112.5 841.2 114.5C837.2 116.5 837.2 120.5 829.2 118.5C821.1 116.4 807.1 120.4 809.1 114.4Z" fill="#CAD2DB"/>
</g>
<mask id="mask5_40_8667" style="mask-type:luminance" maskUnits="userSpaceOnUse" x="0" y="0" width="1920" height="700">
<path d="M1920 0H0V700H1920V0Z" fill="white"/>
</mask>
<g mask="url(#mask5_40_8667)">
<path d="M881.4 708.5L889.4 702.5L961.7 640.3L901.5 638.3L887.4 630.3C887.4 630.3 903.5 592.2 903.5 588.1C903.5 586.5 902.1 584.1 900.5 581.9C901.1 585.5 901.5 588.1 901.5 588.1C901.5 588.1 891.5 580.1 885.4 572C879.4 564 865.3 553.9 859.3 543.9C853.3 533.9 853.3 525.8 851.3 515.8C850.7 512.4 849.3 510 847.5 508C845.1 511 841.3 516.4 841.3 517.8C841.3 519.8 837.3 525.8 837.3 533.9C837.3 541.9 835.3 548 831.3 548C827.3 548 821.3 550 821.3 556C821.3 562 823.3 566 819.3 568C815.3 570 811.3 570 811.3 576C811.3 582 813.3 592.1 809.3 584C805.3 576 803.3 567.9 801.3 567.9C799.3 567.9 799.3 563.9 799.3 559.9C799.3 555.9 799.3 551.9 799.3 551.9C799.3 551.9 783.2 553.9 785.2 559.9C787.2 565.9 791.2 567.9 787.2 571.9C783.2 575.9 775.2 579.9 775.2 579.9C775.2 579.9 769.2 583.9 763.2 581.9C757.2 579.9 755.2 577.9 753.2 581.9C751.2 585.9 751.2 589.9 743.2 589.9C735.2 589.9 719.1 591.9 719.1 591.9C719.1 591.9 711.1 593.9 709.1 589.9C707.1 585.9 695 573.8 693 583.9C691 593.9 683 600 676.9 600C670.9 600 668.9 598 670.9 592C672.9 586 670.9 582 668.9 580C666.9 578 660.9 574 662.9 568C664.9 562 662.9 562 660.9 560C658.9 558 648.9 550 648.9 550C648.9 550 648.9 548 650.9 546C652.9 544 656.9 540 658.9 531.9C660.9 523.9 666.9 519.9 670.9 517.8C674.9 515.8 674.9 515.8 674.9 511.8C674.9 507.8 670.9 489.7 670.9 489.7C670.9 489.7 670.9 483.7 672.9 483.7C674.9 483.7 672.9 479.7 672.9 477.7C672.9 475.7 670.9 469.7 670.9 469.7C670.9 469.7 670.9 465.7 664.9 463.7C658.9 461.7 590.6 425.6 588.6 423.6C586.6 421.6 574.5 417.6 570.5 421.6C566.5 425.6 562.5 429.6 554.4 425.6C546.4 421.6 540.3 417.6 540.3 417.6C540.3 417.6 538.3 413.6 524.2 419.6C510.1 425.6 478 441.7 478 441.7V453.7C478 453.7 445.9 461.7 451.9 447.7C451.9 447.7 453.9 441.7 447.9 441.7C441.9 441.7 439.9 439.7 437.9 437.7C435.9 435.7 431.9 433.7 431.9 433.7C431.9 433.7 427.9 429.7 427.9 427.7C427.9 425.7 427.9 425.7 425.9 421.7C423.9 417.7 375.7 363.5 375.7 363.5L359.6 357.5C359.6 357.5 353.6 451.8 353.6 459.9C353.6 468 351.6 476 345.6 474C339.6 472 307.5 464 303.4 462C303.4 462 295.4 454 291.4 458C287.4 462 287.4 468 283.4 460C279.4 452 277.4 443.9 277.4 439.9C277.4 435.9 279.4 435.9 269.4 431.9C261.4 428.7 248.3 424.3 243.3 422.5C234.9 432.7 232.3 447.6 225.8 459.4C224.8 461.4 225.2 464.6 225 467.4C228 471.6 230.8 475.6 233.6 479.8C231.6 486.6 231.4 492.8 234 499.5C235.8 504.1 236.2 510.3 235.6 515.4C234.8 522.8 231.6 529.7 231 537.1C230.4 545.7 225.6 551.4 222 558.4C231 567.8 226.8 580.5 228.6 591.5C238.2 602.7 247.5 614.2 257.3 624.6C262.9 630.6 267.1 636.6 268.1 646.5C268.5 651.5 271.5 656.3 272.5 658.5C284.7 669.1 296 677.6 305.8 688C313.8 696.4 322.1 703.5 332.3 706.7C334.1 705.9 335.5 705.3 337.1 704.5C354 694.7 371 692.1 389.1 698.5C392.3 699.7 396.5 698.9 399.9 697.5C409.5 693.7 419.6 690.1 428.6 684.5C435.8 679.9 442.9 679.1 450.5 678.3C463.5 676.7 474 679.5 478.4 698C480.2 705.4 485 708.4 491.2 707.4C498.6 706.2 506.1 704.8 513.5 703.4C516.1 706.4 518.1 709.8 520.9 711.8C524.9 714.8 526.9 718.6 527.5 723.4H944.2C944.4 723.2 944.6 723 944.8 722.6L881.4 708.5Z" fill="url(#paint2_linear_40_8667)"/>
</g>
<mask id="mask6_40_8667" style="mask-type:luminance" maskUnits="userSpaceOnUse" x="0" y="0" width="1920" height="700">
<path d="M1920 0H0V700H1920V0Z" fill="white"/>
</mask>
<g mask="url(#mask6_40_8667)">
<path d="M722.8 186.6L728.8 188.6C736.8 192.6 738.8 186.6 738.8 186.6C734.8 180.6 722.8 186.6 722.8 186.6Z" fill="#E0E6EE"/>
</g>
<path d="M997 263.4L994.1 266.3V270H992.6V256H994.1V264.5L1002.3 256H1004L997.9 262.3L1004.4 270H1002.6L997 263.4Z" fill="black"/>
<path d="M1015.6 259.4V270H1014.2V268C1013.5 269.3 1012.1 270 1010.4 270C1007.7 270 1006 268.5 1006 265.5V259.4H1007.4V265.4C1007.4 267.6 1008.6 268.8 1010.6 268.8C1012.8 268.8 1014.2 267.4 1014.2 265V259.5L1015.6 259.4Z" fill="black"/>
<path d="M1035.1 259.4L1031.1 269.9H1029.8L1026.5 261.3L1023.2 269.9H1021.9L1017.9 259.4H1019.3L1022.6 268.3L1026 259.4H1027.2L1030.6 268.3L1033.9 259.4H1035.1Z" fill="black"/>
<path d="M1044.8 263.4V269.9H1043.4V268.3C1042.8 269.4 1041.5 270 1039.8 270C1037.4 270 1036 268.8 1036 266.9C1036 265.3 1037 263.9 1040.1 263.9H1043.4V263.3C1043.4 261.5 1042.4 260.5 1040.4 260.5C1039 260.5 1037.8 261 1036.9 261.7L1036.3 260.6C1037.4 259.7 1038.9 259.2 1040.6 259.2C1043.3 259.4 1044.8 260.7 1044.8 263.4ZM1043.4 266.8V265.1H1040.1C1038.1 265.1 1037.4 265.9 1037.4 267C1037.4 268.2 1038.4 269 1040.1 269C1041.7 269 1042.8 268.2 1043.4 266.8Z" fill="black"/>
<path d="M1048.3 256.1C1048.3 255.6 1048.8 255.1 1049.3 255.1C1049.8 255.1 1050.3 255.5 1050.3 256.1C1050.3 256.7 1049.9 257.1 1049.3 257.1C1048.8 257.1 1048.3 256.7 1048.3 256.1ZM1048.7 259.4H1050.1V270H1048.7V259.4Z" fill="black"/>
<path d="M1059.6 269.3C1059 269.8 1058.2 270 1057.4 270C1055.4 270 1054.3 268.9 1054.3 266.9V260.5H1052.4V259.3H1054.3V257H1055.7V259.3H1058.9V260.5H1055.7V266.8C1055.7 268 1056.3 268.7 1057.5 268.7C1058.1 268.7 1058.7 268.5 1059.1 268.2L1059.6 269.3Z" fill="black"/>
<path d="M1075 382.5H1080.7C1085.2 382.5 1088.2 385.4 1088.2 389.5C1088.2 393.6 1085.2 396.5 1080.7 396.5H1075V382.5ZM1080.6 395.2C1084.3 395.2 1086.7 392.8 1086.7 389.5C1086.7 386.1 1084.3 383.8 1080.6 383.8H1076.5V395.2H1080.6Z" fill="black"/>
<path d="M1100.7 386V396.5H1099.3V394.6C1098.6 395.9 1097.2 396.6 1095.5 396.6C1092.8 396.6 1091.1 395.1 1091.1 392.1V386H1092.5V392C1092.5 394.2 1093.7 395.4 1095.7 395.4C1097.9 395.4 1099.3 394 1099.3 391.6V386H1100.7Z" fill="black"/>
<path d="M1115.3 391.3C1115.3 394.5 1113.1 396.7 1110.1 396.7C1108.4 396.7 1106.9 395.9 1106 394.5V396.6H1104.6V381.8H1106V388.1C1106.9 386.7 1108.3 386 1110 386C1113.1 385.9 1115.3 388.1 1115.3 391.3ZM1113.9 391.3C1113.9 388.8 1112.2 387.2 1110 387.2C1107.8 387.2 1106.1 388.8 1106.1 391.3C1106.1 393.8 1107.8 395.4 1110 395.4C1112.2 395.4 1113.9 393.7 1113.9 391.3Z" fill="black"/>
<path d="M1126.1 390V396.5H1124.7V394.9C1124.1 396 1122.8 396.6 1121.1 396.6C1118.7 396.6 1117.3 395.4 1117.3 393.5C1117.3 391.9 1118.3 390.5 1121.4 390.5H1124.7V389.9C1124.7 388.1 1123.7 387.1 1121.7 387.1C1120.3 387.1 1119.1 387.6 1118.2 388.3L1117.6 387.2C1118.7 386.3 1120.2 385.8 1121.9 385.8C1124.5 385.9 1126.1 387.3 1126.1 390ZM1124.7 393.4V391.7H1121.4C1119.4 391.7 1118.7 392.5 1118.7 393.6C1118.7 394.8 1119.7 395.6 1121.4 395.6C1122.9 395.5 1124.1 394.7 1124.7 393.4Z" fill="black"/>
<path d="M1129.6 382.7C1129.6 382.2 1130.1 381.7 1130.6 381.7C1131.1 381.7 1131.6 382.1 1131.6 382.7C1131.6 383.3 1131.2 383.7 1130.6 383.7C1130.1 383.7 1129.6 383.2 1129.6 382.7ZM1129.9 386H1131.3V396.5H1129.9V386Z" fill="black"/>
<path d="M1076.4 453.2H1068.6L1066.9 456.9H1065.4L1071.8 442.9H1073.3L1079.7 456.9H1078.1L1076.4 453.2ZM1075.9 452L1072.5 444.5L1069.1 452H1075.9Z" fill="black"/>
<path d="M1092.3 451.7C1092.3 454.9 1090.1 457.1 1087.1 457.1C1085.4 457.1 1083.9 456.3 1083 454.9V457H1081.6V442.2H1083V448.5C1083.9 447.1 1085.3 446.4 1087 446.4C1090.1 446.3 1092.3 448.5 1092.3 451.7ZM1090.9 451.7C1090.9 449.2 1089.2 447.6 1087 447.6C1084.8 447.6 1083.1 449.2 1083.1 451.7C1083.1 454.2 1084.8 455.8 1087 455.8C1089.2 455.8 1090.9 454.1 1090.9 451.7Z" fill="black"/>
<path d="M1104.7 446.4V456.9H1103.3V455C1102.6 456.3 1101.2 457 1099.5 457C1096.8 457 1095.1 455.5 1095.1 452.5V446.4H1096.5V452.4C1096.5 454.6 1097.7 455.8 1099.7 455.8C1101.9 455.8 1103.3 454.4 1103.3 452V446.5L1104.7 446.4Z" fill="black"/>
<path d="M1114.2 442.9H1119.9C1124.4 442.9 1127.4 445.8 1127.4 449.9C1127.4 454 1124.4 456.9 1119.9 456.9H1114.2V442.9ZM1119.8 455.7C1123.5 455.7 1125.9 453.3 1125.9 450C1125.9 446.6 1123.5 444.3 1119.8 444.3H1115.7V455.7H1119.8Z" fill="black"/>
<path d="M1140.1 450.8V456.9H1138.7V450.9C1138.7 448.7 1137.5 447.5 1135.5 447.5C1133.2 447.5 1131.8 448.9 1131.8 451.3V456.8H1130.4V442H1131.8V448.2C1132.6 447 1134 446.3 1135.7 446.3C1138.4 446.3 1140.1 447.8 1140.1 450.8Z" fill="black"/>
<path d="M1151.9 450.4V456.9H1150.5V455.3C1149.9 456.4 1148.6 457 1146.9 457C1144.5 457 1143.1 455.8 1143.1 453.9C1143.1 452.3 1144.1 450.9 1147.2 450.9H1150.5V450.3C1150.5 448.5 1149.5 447.5 1147.5 447.5C1146.1 447.5 1144.9 448 1144 448.7L1143.4 447.6C1144.5 446.7 1146 446.2 1147.7 446.2C1150.4 446.3 1151.9 447.7 1151.9 450.4ZM1150.5 453.8V452.1H1147.2C1145.2 452.1 1144.5 452.9 1144.5 454C1144.5 455.2 1145.5 456 1147.2 456C1148.8 455.9 1149.9 455.2 1150.5 453.8Z" fill="black"/>
<path d="M1166.4 451.7C1166.4 454.9 1164.2 457.1 1161.2 457.1C1159.5 457.1 1158 456.3 1157.1 454.9V457H1155.7V442.2H1157.1V448.5C1158 447.1 1159.4 446.4 1161.1 446.4C1164.2 446.3 1166.4 448.5 1166.4 451.7ZM1165 451.7C1165 449.2 1163.3 447.6 1161.1 447.6C1158.9 447.6 1157.2 449.2 1157.2 451.7C1157.2 454.2 1158.9 455.8 1161.1 455.8C1163.3 455.8 1165 454.1 1165 451.7Z" fill="black"/>
<path d="M1169 443.1C1169 442.6 1169.5 442.1 1170 442.1C1170.5 442.1 1171 442.5 1171 443.1C1171 443.7 1170.6 444.1 1170 444.1C1169.5 444.1 1169 443.7 1169 443.1ZM1169.3 446.4H1170.7V456.9H1169.3V446.4Z" fill="black"/>
<path d="M852.1 468.5L852.7 467.4C853.7 468.4 855.5 469.1 857.3 469.1C859.9 469.1 861.1 468 861.1 466.6C861.1 462.8 852.5 465.1 852.5 459.9C852.5 457.8 854.1 456.1 857.7 456.1C859.3 456.1 860.9 456.6 862 457.3L861.5 458.5C860.3 457.7 858.9 457.3 857.7 457.3C855.1 457.3 854 458.4 854 459.8C854 463.6 862.6 461.3 862.6 466.4C862.6 468.5 861 470.2 857.4 470.2C855.2 470.3 853.1 469.6 852.1 468.5Z" fill="black"/>
<path d="M873.4 463.7V470.2H872V468.6C871.4 469.7 870.1 470.3 868.4 470.3C866 470.3 864.6 469.1 864.6 467.2C864.6 465.6 865.6 464.2 868.7 464.2H872V463.6C872 461.8 871 460.8 869 460.8C867.6 460.8 866.4 461.3 865.5 462L864.9 460.9C866 460 867.5 459.5 869.2 459.5C871.8 459.6 873.4 460.9 873.4 463.7ZM871.9 467V465.3H868.6C866.6 465.3 865.9 466.1 865.9 467.2C865.9 468.4 866.9 469.2 868.6 469.2C870.2 469.2 871.4 468.4 871.9 467Z" fill="black"/>
<path d="M886.7 459.7V470.2H885.3V468.3C884.6 469.6 883.2 470.3 881.5 470.3C878.8 470.3 877.1 468.8 877.1 465.8V459.7H878.5V465.7C878.5 467.9 879.7 469.1 881.7 469.1C883.9 469.1 885.3 467.7 885.3 465.3V459.8H886.7V459.7Z" fill="black"/>
<path d="M900.3 455.3V470.1H898.9V468C898 469.4 896.6 470.2 894.8 470.2C891.8 470.2 889.6 468 889.6 464.8C889.6 461.6 891.8 459.5 894.8 459.5C896.5 459.5 897.9 460.2 898.8 461.6V455.3H900.3ZM898.9 464.9C898.9 462.4 897.2 460.8 895 460.8C892.8 460.8 891.1 462.4 891.1 464.9C891.1 467.4 892.8 469 895 469C897.2 469 898.9 467.4 898.9 464.9Z" fill="black"/>
<path d="M903.9 456.3C903.9 455.8 904.4 455.3 904.9 455.3C905.4 455.3 905.9 455.7 905.9 456.3C905.9 456.9 905.5 457.3 904.9 457.3C904.4 457.4 903.9 456.9 903.9 456.3ZM904.2 459.7H905.6V470.2H904.2V459.7Z" fill="black"/>
<path d="M937.1 442.5L930.9 463.5H915.3" stroke="#028F37" stroke-miterlimit="10"/>
<path d="M1532.4 83.5C1535.71 83.5 1538.4 80.8137 1538.4 77.5C1538.4 74.1863 1535.71 71.5 1532.4 71.5C1529.09 71.5 1526.4 74.1863 1526.4 77.5C1526.4 80.8137 1529.09 83.5 1532.4 83.5Z" fill="#5D6FCC"/>
<path d="M1532.4 113.4C1535.71 113.4 1538.4 110.714 1538.4 107.4C1538.4 104.086 1535.71 101.4 1532.4 101.4C1529.09 101.4 1526.4 104.086 1526.4 107.4C1526.4 110.714 1529.09 113.4 1532.4 113.4Z" fill="#028F37"/>
<path d="M1559.5 109.8C1559.5 111.9 1557.9 113.2 1554.8 113.2H1549V100.6H1554.4C1557.2 100.6 1558.8 101.8 1558.8 103.8C1558.8 105.2 1558 106.2 1556.9 106.7C1558.5 107.1 1559.5 108.1 1559.5 109.8ZM1550.3 101.7V106.3H1554.3C1556.3 106.3 1557.5 105.5 1557.5 104C1557.5 102.5 1556.3 101.7 1554.3 101.7H1550.3ZM1558.1 109.7C1558.1 108.1 1556.9 107.3 1554.7 107.3H1550.3V112H1554.7C1556.9 112.1 1558.1 111.4 1558.1 109.7Z" fill="black"/>
<path d="M1567 103.7V104.9C1566.9 104.9 1566.8 104.9 1566.7 104.9C1564.7 104.9 1563.5 106.2 1563.5 108.4V113.2H1562.2V103.7H1563.4V105.6C1564.1 104.3 1565.3 103.7 1567 103.7Z" fill="black"/>
<path d="M1576.4 107.3V113.2H1575.2V111.7C1574.6 112.7 1573.5 113.3 1571.9 113.3C1569.8 113.3 1568.4 112.2 1568.4 110.5C1568.4 109 1569.3 107.8 1572.1 107.8H1575.1V107.2C1575.1 105.6 1574.2 104.7 1572.4 104.7C1571.2 104.7 1570 105.1 1569.2 105.8L1568.6 104.8C1569.6 104 1571 103.5 1572.5 103.5C1575.1 103.7 1576.4 104.9 1576.4 107.3ZM1575.2 110.4V108.9H1572.2C1570.4 108.9 1569.8 109.6 1569.8 110.6C1569.8 111.7 1570.7 112.4 1572.2 112.4C1573.6 112.3 1574.7 111.6 1575.2 110.4Z" fill="black"/>
<path d="M1588.6 107.7V113.2H1587.3V107.8C1587.3 105.8 1586.3 104.8 1584.5 104.8C1582.5 104.8 1581.2 106.1 1581.2 108.2V113.2H1579.9V103.7H1581.1V105.4C1581.8 104.2 1583.1 103.6 1584.7 103.6C1587 103.7 1588.6 105 1588.6 107.7Z" fill="black"/>
<path d="M1591.2 108.5C1591.2 105.7 1593.3 103.7 1596.1 103.7C1597.7 103.7 1599.1 104.3 1599.8 105.6L1598.8 106.2C1598.2 105.2 1597.1 104.8 1596 104.8C1593.9 104.8 1592.4 106.3 1592.4 108.5C1592.4 110.7 1593.9 112.2 1596 112.2C1597.1 112.2 1598.1 111.8 1598.8 110.8L1599.8 111.4C1599 112.6 1597.7 113.3 1596.1 113.3C1593.2 113.3 1591.2 111.3 1591.2 108.5Z" fill="black"/>
<path d="M1610.8 107.7V113.2H1609.5V107.8C1609.5 105.8 1608.5 104.8 1606.7 104.8C1604.7 104.8 1603.4 106.1 1603.4 108.2V113.2H1602.1V99.7998H1603.4V105.3C1604.1 104.2 1605.3 103.6 1606.9 103.6C1609.3 103.7 1610.8 105 1610.8 107.7Z" fill="black"/>
<path d="M1618.2 106.9C1618.2 103.2 1621 100.5 1624.8 100.5C1628.6 100.5 1631.4 103.2 1631.4 106.9C1631.4 110.6 1628.6 113.3 1624.8 113.3C1621 113.3 1618.2 110.6 1618.2 106.9ZM1630.1 106.9C1630.1 103.9 1627.8 101.7 1624.8 101.7C1621.8 101.7 1619.5 103.9 1619.5 106.9C1619.5 109.9 1621.8 112.1 1624.8 112.1C1627.8 112.1 1630.1 109.9 1630.1 106.9Z" fill="black"/>
<path d="M1635.6 102.6V103.7H1638.5V104.8H1635.6V113.2H1634.3V104.8H1632.6V103.7H1634.3V102.5C1634.3 100.8 1635.3 99.7002 1637.2 99.7002C1637.9 99.7002 1638.6 99.9002 1639.1 100.3L1638.7 101.3C1638.3 101 1637.8 100.8 1637.3 100.8C1636.2 100.8 1635.6 101.4 1635.6 102.6Z" fill="black"/>
<path d="M1643.3 99.7002C1644 99.7002 1644.7 99.9002 1645.2 100.3L1644.8 101.3C1644.4 101 1643.9 100.8 1643.4 100.8C1642.3 100.8 1641.7 101.4 1641.7 102.6V103.7H1644.6V104.8H1641.7V113.2H1640.4V104.8H1638.7V103.7H1640.4V102.5C1640.4 100.9 1641.5 99.7002 1643.3 99.7002ZM1649.4 100.7C1649.4 101.2 1649 101.6 1648.5 101.6C1648 101.6 1647.6 101.2 1647.6 100.7C1647.6 100.2 1648 99.8002 1648.5 99.8002C1648.9 99.8002 1649.4 100.2 1649.4 100.7ZM1647.8 103.7H1649.1V113.2H1647.8V103.7Z" fill="black"/>
<path d="M1651.7 108.5C1651.7 105.7 1653.8 103.7 1656.6 103.7C1658.2 103.7 1659.6 104.3 1660.3 105.6L1659.3 106.2C1658.7 105.2 1657.6 104.8 1656.5 104.8C1654.4 104.8 1652.9 106.3 1652.9 108.5C1652.9 110.7 1654.4 112.2 1656.5 112.2C1657.6 112.2 1658.6 111.8 1659.3 110.8L1660.3 111.4C1659.5 112.6 1658.2 113.3 1656.6 113.3C1653.7 113.3 1651.7 111.3 1651.7 108.5Z" fill="black"/>
<path d="M1670.8 108.9H1662.9C1663 110.9 1664.6 112.2 1666.6 112.2C1667.8 112.2 1668.8 111.8 1669.5 111L1670.2 111.8C1669.4 112.8 1668 113.3 1666.5 113.3C1663.5 113.3 1661.5 111.3 1661.5 108.5C1661.5 105.7 1663.5 103.7 1666.1 103.7C1668.8 103.7 1670.7 105.7 1670.7 108.5C1670.8 108.6 1670.8 108.7 1670.8 108.9ZM1662.9 107.9H1669.6C1669.4 106 1668.1 104.7 1666.2 104.7C1664.4 104.8 1663.1 106.1 1662.9 107.9Z" fill="black"/>
<path d="M1672.1 112.1L1672.7 111.1C1673.5 111.7 1674.7 112.2 1676.1 112.2C1677.9 112.2 1678.6 111.6 1678.6 110.7C1678.6 108.2 1672.5 110.2 1672.5 106.4C1672.5 104.9 1673.8 103.7 1676.2 103.7C1677.4 103.7 1678.8 104 1679.5 104.6L1678.9 105.6C1678.1 105 1677.1 104.8 1676.1 104.8C1674.4 104.8 1673.6 105.5 1673.6 106.4C1673.6 109 1679.7 107 1679.7 110.7C1679.7 112.3 1678.3 113.4 1675.8 113.4C1674.4 113.3 1672.9 112.8 1672.1 112.1Z" fill="black"/>
<path d="M1557.9 74.8C1557.9 77.5 1556 79.1 1552.7 79.1H1549.3V83.1H1548V70.5H1552.7C1555.9 70.5 1557.9 72.1 1557.9 74.8ZM1556.5 74.8C1556.5 72.8 1555.2 71.6 1552.6 71.6H1549.3V77.9H1552.6C1555.2 77.9 1556.5 76.8 1556.5 74.8Z" fill="black"/>
<path d="M1565 73.5V74.7C1564.9 74.7 1564.8 74.7 1564.7 74.7C1562.7 74.7 1561.5 76 1561.5 78.2V83H1560.2V73.5H1561.4V75.4C1562 74.2 1563.3 73.5 1565 73.5Z" fill="black"/>
<path d="M1566.3 78.3C1566.3 75.5 1568.4 73.5 1571.1 73.5C1573.9 73.5 1575.9 75.5 1575.9 78.3C1575.9 81.1 1573.9 83.1 1571.1 83.1C1568.3 83.2 1566.3 81.1 1566.3 78.3ZM1574.6 78.3C1574.6 76.1 1573.1 74.6 1571.1 74.6C1569.1 74.6 1567.6 76.1 1567.6 78.3C1567.6 80.5 1569.1 82 1571.1 82C1573.1 82 1574.6 80.5 1574.6 78.3Z" fill="black"/>
<path d="M1587.1 69.7002V83.1002H1585.9V81.2002C1585.1 82.5002 1583.8 83.2002 1582.2 83.2002C1579.5 83.2002 1577.5 81.2002 1577.5 78.4002C1577.5 75.6002 1579.5 73.6002 1582.2 73.6002C1583.7 73.6002 1585 74.2002 1585.8 75.5002V69.8002L1587.1 69.7002ZM1585.9 78.3002C1585.9 76.1002 1584.4 74.6002 1582.4 74.6002C1580.4 74.6002 1578.9 76.1002 1578.9 78.3002C1578.9 80.5002 1580.4 82.0002 1582.4 82.0002C1584.4 82.0002 1585.9 80.5002 1585.9 78.3002Z" fill="black"/>
<path d="M1599.2 73.6001V83.1001H1598V81.4001C1597.3 82.6001 1596.1 83.2001 1594.6 83.2001C1592.2 83.2001 1590.6 81.8001 1590.6 79.1001V73.6001H1591.9V79.0001C1591.9 81.0001 1592.9 82.0001 1594.7 82.0001C1596.7 82.0001 1597.9 80.7001 1597.9 78.6001V73.6001H1599.2Z" fill="black"/>
<path d="M1601.9 78.3C1601.9 75.5 1604 73.5 1606.8 73.5C1608.4 73.5 1609.8 74.1 1610.5 75.4L1609.5 76C1608.9 75 1607.8 74.6 1606.7 74.6C1604.6 74.6 1603.1 76.1 1603.1 78.3C1603.1 80.5 1604.6 82 1606.7 82C1607.8 82 1608.8 81.6 1609.5 80.6L1610.5 81.2C1609.7 82.4 1608.4 83.1 1606.8 83.1C1603.9 83.2 1601.9 81.2 1601.9 78.3Z" fill="black"/>
<path d="M1618 82.5C1617.5 83 1616.7 83.2 1616 83.2C1614.2 83.2 1613.2 82.2 1613.2 80.4V74.7H1611.5V73.6H1613.2V71.5H1614.5V73.6H1617.4V74.7H1614.5V80.4C1614.5 81.5 1615.1 82.1 1616.1 82.1C1616.6 82.1 1617.1 81.9 1617.5 81.6L1618 82.5Z" fill="black"/>
<path d="M1620.1 70.6002C1620.1 70.1002 1620.5 69.7002 1621 69.7002C1621.5 69.7002 1621.9 70.1002 1621.9 70.6002C1621.9 71.1002 1621.5 71.5002 1621 71.5002C1620.5 71.5002 1620.1 71.1002 1620.1 70.6002ZM1620.4 73.6002H1621.7V83.1002H1620.4V73.6002Z" fill="black"/>
<path d="M1624.3 78.3C1624.3 75.5 1626.4 73.5 1629.1 73.5C1631.9 73.5 1633.9 75.5 1633.9 78.3C1633.9 81.1 1631.9 83.1 1629.1 83.1C1626.3 83.2 1624.3 81.1 1624.3 78.3ZM1632.6 78.3C1632.6 76.1 1631.1 74.6 1629.1 74.6C1627.1 74.6 1625.6 76.1 1625.6 78.3C1625.6 80.5 1627.1 82 1629.1 82C1631.1 82 1632.6 80.5 1632.6 78.3Z" fill="black"/>
<path d="M1645.2 77.6V83.1H1643.9V77.7C1643.9 75.7 1642.9 74.7 1641.1 74.7C1639.1 74.7 1637.8 76 1637.8 78.1V83.1H1636.5V73.6H1637.7V75.3C1638.4 74.1 1639.7 73.5 1641.3 73.5C1643.6 73.5 1645.2 74.9 1645.2 77.6Z" fill="black"/>
<path d="M1652.5 81.5003L1653 80.5003C1653.9 81.4003 1655.5 82.0003 1657.2 82.0003C1659.6 82.0003 1660.6 81.0003 1660.6 79.8003C1660.6 76.3003 1652.8 78.5003 1652.8 73.8003C1652.8 71.9003 1654.2 70.3003 1657.4 70.3003C1658.8 70.3003 1660.3 70.7003 1661.3 71.4003L1660.8 72.5003C1659.7 71.8003 1658.5 71.5003 1657.3 71.5003C1655 71.5003 1654 72.5003 1654 73.8003C1654 77.3003 1661.8 75.2003 1661.8 79.8003C1661.8 81.7003 1660.3 83.2003 1657.1 83.2003C1655.3 83.2003 1653.4 82.5003 1652.5 81.5003Z" fill="black"/>
<path d="M1673 73.6001V83.1001H1671.8V81.4001C1671.1 82.6001 1669.9 83.2001 1668.4 83.2001C1666 83.2001 1664.4 81.8001 1664.4 79.1001V73.6001H1665.7V79.0001C1665.7 81.0001 1666.7 82.0001 1668.5 82.0001C1670.5 82.0001 1671.7 80.7001 1671.7 78.6001V73.6001H1673Z" fill="black"/>
<path d="M1686.2 78.3002C1686.2 81.2002 1684.2 83.1002 1681.5 83.1002C1679.9 83.1002 1678.6 82.4002 1677.8 81.1002V83.0002H1676.6V69.7002H1677.9V75.4002C1678.7 74.2002 1680 73.5002 1681.5 73.5002C1684.2 73.5002 1686.2 75.5002 1686.2 78.3002ZM1684.9 78.3002C1684.9 76.1002 1683.4 74.6002 1681.4 74.6002C1679.4 74.6002 1677.9 76.1002 1677.9 78.3002C1677.9 80.5002 1679.4 82.0002 1681.4 82.0002C1683.4 82.0002 1684.9 80.5002 1684.9 78.3002Z" fill="black"/>
<path d="M1687.5 82.0001L1688.1 81.0001C1688.9 81.6001 1690.1 82.1001 1691.5 82.1001C1693.3 82.1001 1694 81.5001 1694 80.6001C1694 78.1001 1687.9 80.1001 1687.9 76.3001C1687.9 74.8001 1689.2 73.6001 1691.6 73.6001C1692.8 73.6001 1694.2 73.9001 1694.9 74.5001L1694.3 75.5001C1693.5 74.9001 1692.5 74.7001 1691.5 74.7001C1689.8 74.7001 1689 75.4001 1689 76.3001C1689 78.9001 1695.1 76.9001 1695.1 80.6001C1695.1 82.2001 1693.7 83.3001 1691.2 83.3001C1689.8 83.2001 1688.2 82.7001 1687.5 82.0001Z" fill="black"/>
<path d="M1697.3 70.6002C1697.3 70.1002 1697.7 69.7002 1698.2 69.7002C1698.7 69.7002 1699.1 70.1002 1699.1 70.6002C1699.1 71.1002 1698.7 71.5002 1698.2 71.5002C1697.7 71.5002 1697.3 71.1002 1697.3 70.6002ZM1697.6 73.6002H1698.9V83.1002H1697.6V73.6002Z" fill="black"/>
<path d="M1711.1 69.7002V83.1002H1709.9V81.2002C1709.1 82.5002 1707.8 83.2002 1706.2 83.2002C1703.5 83.2002 1701.5 81.2002 1701.5 78.4002C1701.5 75.6002 1703.5 73.6002 1706.2 73.6002C1707.7 73.6002 1709 74.2002 1709.8 75.5002V69.8002L1711.1 69.7002ZM1709.8 78.3002C1709.8 76.1002 1708.3 74.6002 1706.3 74.6002C1704.3 74.6002 1702.8 76.1002 1702.8 78.3002C1702.8 80.5002 1704.3 82.0002 1706.3 82.0002C1708.3 82.0002 1709.8 80.5002 1709.8 78.3002Z" fill="black"/>
<path d="M1714.3 70.6002C1714.3 70.1002 1714.7 69.7002 1715.2 69.7002C1715.7 69.7002 1716.1 70.1002 1716.1 70.6002C1716.1 71.1002 1715.7 71.5002 1715.2 71.5002C1714.8 71.5002 1714.3 71.1002 1714.3 70.6002ZM1714.6 73.6002H1715.9V83.1002H1714.6V73.6002Z" fill="black"/>
<path d="M1726.6 77.2004V83.1004H1725.4V81.6004C1724.8 82.6004 1723.7 83.2004 1722.1 83.2004C1720 83.2004 1718.6 82.1004 1718.6 80.4004C1718.6 78.9004 1719.5 77.7004 1722.3 77.7004H1725.3V77.1004C1725.3 75.5004 1724.4 74.6004 1722.6 74.6004C1721.4 74.6004 1720.2 75.0004 1719.4 75.7004L1718.8 74.7004C1719.8 73.9004 1721.2 73.4004 1722.7 73.4004C1725.2 73.5004 1726.6 74.8004 1726.6 77.2004ZM1725.3 80.2004V78.7004H1722.3C1720.5 78.7004 1719.9 79.4004 1719.9 80.4004C1719.9 81.5004 1720.8 82.2004 1722.3 82.2004C1723.8 82.2004 1724.8 81.5004 1725.3 80.2004Z" fill="black"/>
<path d="M1734.9 73.5V74.7C1734.8 74.7 1734.7 74.7 1734.6 74.7C1732.6 74.7 1731.4 76 1731.4 78.2V83H1730.1V73.5H1731.3V75.4C1731.9 74.2 1733.1 73.5 1734.9 73.5Z" fill="black"/>
<path d="M1736.9 70.6002C1736.9 70.1002 1737.3 69.7002 1737.8 69.7002C1738.3 69.7002 1738.7 70.1002 1738.7 70.6002C1738.7 71.1002 1738.3 71.5002 1737.8 71.5002C1737.3 71.5002 1736.9 71.1002 1736.9 70.6002ZM1737.2 73.6002H1738.5V83.1002H1737.2V73.6002Z" fill="black"/>
<path d="M1750.3 78.7H1742.4C1742.5 80.7 1744.1 82 1746.1 82C1747.3 82 1748.3 81.6 1749 80.8L1749.7 81.6C1748.9 82.6 1747.5 83.1 1746 83.1C1743 83.1 1741 81.1 1741 78.3C1741 75.5 1743 73.5 1745.6 73.5C1748.3 73.5 1750.2 75.5 1750.2 78.3C1750.3 78.4 1750.3 78.6 1750.3 78.7ZM1742.3 77.8H1749C1748.8 75.9 1747.5 74.6 1745.6 74.6C1743.8 74.6 1742.5 75.9 1742.3 77.8Z" fill="black"/>
<path d="M1751.6 82.0001L1752.2 81.0001C1753 81.6001 1754.2 82.1001 1755.6 82.1001C1757.4 82.1001 1758.1 81.5001 1758.1 80.6001C1758.1 78.1001 1752 80.1001 1752 76.3001C1752 74.8001 1753.3 73.6001 1755.7 73.6001C1756.9 73.6001 1758.3 73.9001 1759 74.5001L1758.4 75.5001C1757.6 74.9001 1756.6 74.7001 1755.6 74.7001C1753.9 74.7001 1753.1 75.4001 1753.1 76.3001C1753.1 78.9001 1759.2 76.9001 1759.2 80.6001C1759.2 82.2001 1757.8 83.3001 1755.3 83.3001C1753.9 83.2001 1752.3 82.7001 1751.6 82.0001Z" fill="black"/>
<mask id="mask7_40_8667" style="mask-type:luminance" maskUnits="userSpaceOnUse" x="0" y="0" width="1920" height="700">
<path d="M1920 0H0V700H1920V0Z" fill="white"/>
</mask>
<g mask="url(#mask7_40_8667)">
<path d="M950.6 352.2C953.914 352.2 956.6 349.514 956.6 346.2C956.6 342.886 953.914 340.2 950.6 340.2C947.286 340.2 944.6 342.886 944.6 346.2C944.6 349.514 947.286 352.2 950.6 352.2Z" fill="#028F37"/>
<path d="M1033.3 423.9C1036.61 423.9 1039.3 421.214 1039.3 417.9C1039.3 414.586 1036.61 411.9 1033.3 411.9C1029.99 411.9 1027.3 414.586 1027.3 417.9C1027.3 421.214 1029.99 423.9 1033.3 423.9Z" fill="#028F37"/>
<path d="M1045.4 411.8C1048.71 411.8 1051.4 409.114 1051.4 405.8C1051.4 402.486 1048.71 399.8 1045.4 399.8C1042.09 399.8 1039.4 402.486 1039.4 405.8C1039.4 409.114 1042.09 411.8 1045.4 411.8Z" fill="#028F37"/>
<path d="M1046 405.4L1053 385.3H1065" stroke="#028F37" stroke-miterlimit="10"/>
<path d="M1055 448.6H1040.9L1034.9 420.5" stroke="#028F37" stroke-miterlimit="10"/>
<path d="M928.5 410.4C931.814 410.4 934.5 407.714 934.5 404.4C934.5 401.086 931.814 398.4 928.5 398.4C925.186 398.4 922.5 401.086 922.5 404.4C922.5 407.714 925.186 410.4 928.5 410.4Z" fill="#5D6FCC"/>
<path d="M945.1 415.5L937.1 442.5" stroke="#028F37" stroke-miterlimit="10"/>
<path d="M958.6 372.1C961.914 372.1 964.6 369.414 964.6 366.1C964.6 362.786 961.914 360.1 958.6 360.1C955.286 360.1 952.6 362.786 952.6 366.1C952.6 369.414 955.286 372.1 958.6 372.1Z" fill="#5D6FCC"/>
<path d="M960.2 363.3L968.7 293.1H983.7" stroke="#5D6FCC" stroke-miterlimit="10"/>
<path d="M950.6 346.2L960.7 262H982.7" stroke="#028F37" stroke-miterlimit="10"/>
<path d="M928 400.4L919.6 331.6H905.5" stroke="#5D6FCC" stroke-miterlimit="10"/>
<path d="M945.3 420.4C948.614 420.4 951.3 417.714 951.3 414.4C951.3 411.086 948.614 408.4 945.3 408.4C941.986 408.4 939.3 411.086 939.3 414.4C939.3 417.714 941.986 420.4 945.3 420.4Z" fill="#028F37"/>
</g>
<path d="M871 180.4V161.9L862 177.2H858.6L849.6 162.3V180.4H843V149.5H849L860.6 168.8L872 149.5H877.8V180.4H871Z" fill="#AAAAAA"/>
<path d="M882.6 149.5C882.6 147.3 884.4 145.7 886.8 145.7C889.4 145.7 891 147.3 891 149.5C891 151.7 889.2 153.5 886.8 153.5C884.2 153.3 882.6 151.7 882.6 149.5ZM883.4 156.5H890.2V180.4H883.4V156.5Z" fill="#AAAAAA"/>
<path d="M919.7 147.7V180.4H913.1V177.6C911.3 179.6 908.9 180.6 905.7 180.6C899.1 180.6 893.9 175.8 893.9 168.4C893.9 161 899.1 156.2 905.7 156.2C908.7 156.2 911.1 157.2 912.7 159V147.6L919.7 147.7ZM913.1 168.5C913.1 164.5 910.5 161.9 907.1 161.9C903.7 161.9 901.1 164.3 901.1 168.5C901.1 172.7 903.7 175.1 907.1 175.1C910.3 175 913.1 172.6 913.1 168.5Z" fill="#AAAAAA"/>
<path d="M949.2 147.7V180.4H942.6V177.6C940.8 179.6 938.4 180.6 935.2 180.6C928.6 180.6 923.4 175.8 923.4 168.4C923.4 161 928.6 156.2 935.2 156.2C938.2 156.2 940.6 157.2 942.2 159V147.6L949.2 147.7ZM942.4 168.5C942.4 164.5 939.8 161.9 936.4 161.9C933 161.9 930.4 164.3 930.4 168.5C930.4 172.7 933 175.1 936.4 175.1C939.8 175 942.4 172.6 942.4 168.5Z" fill="#AAAAAA"/>
<path d="M954.5 147.7H961.3V180.4H954.5V147.7Z" fill="#AAAAAA"/>
<path d="M989.8 170.4H971.7C972.3 173.4 974.9 175.2 978.5 175.2C980.9 175.2 982.9 174.4 984.5 173L988.1 177C985.9 179.4 982.5 180.8 978.3 180.8C970.1 180.8 964.7 175.6 964.7 168.6C964.7 161.6 970.1 156.4 977.3 156.4C984.3 156.4 989.7 161 989.7 168.6C990 169.2 989.8 169.8 989.8 170.4ZM971.7 166.3H983.3C982.9 163.3 980.5 161.3 977.5 161.3C974.5 161.5 972.3 163.3 971.7 166.3Z" fill="#AAAAAA"/>
<path d="M1029.3 174.6V180.4H1005.4V149.5H1028.7V155.3H1012.4V161.9H1026.9V167.5H1012.4V174.7L1029.3 174.6Z" fill="#AAAAAA"/>
<path d="M1054.4 166.7V180.3H1048V177.3C1046.8 179.5 1044.2 180.5 1040.8 180.5C1035.2 180.5 1032 177.5 1032 173.3C1032 169.1 1035 166.3 1042.2 166.3H1047.6C1047.6 163.3 1045.8 161.7 1042.2 161.7C1039.8 161.7 1037.2 162.5 1035.4 163.9L1033 159.1C1035.6 157.3 1039.4 156.3 1043.2 156.3C1050.2 156.3 1054.4 159.5 1054.4 166.7ZM1047.4 172.8V170.4H1042.8C1039.6 170.4 1038.6 171.6 1038.6 173.2C1038.6 175 1040 176 1042.4 176C1044.8 176 1046.8 175 1047.4 172.8Z" fill="#AAAAAA"/>
<path d="M1057.2 178.2L1059.4 173.2C1061.6 174.6 1064.8 175.4 1067.6 175.4C1070.8 175.4 1072 174.6 1072 173.2C1072 169.4 1057.5 173.2 1057.5 163.8C1057.5 159.4 1061.5 156.2 1068.5 156.2C1071.7 156.2 1075.3 157 1077.5 158.2L1075.3 163C1072.9 161.6 1070.7 161.2 1068.5 161.2C1065.5 161.2 1064.1 162.2 1064.1 163.4C1064.1 167.4 1078.6 163.6 1078.6 172.8C1078.6 177.2 1074.6 180.4 1067.4 180.4C1063.5 180.8 1059.4 179.6 1057.2 178.2Z" fill="#AAAAAA"/>
<path d="M1097.2 179.2C1095.8 180.2 1093.8 180.8 1091.6 180.8C1086 180.8 1082.8 178 1082.8 172.4V162.4H1079.2V157.2H1082.8V151.4H1089.6V157.2H1095.6V162.4H1089.6V172C1089.6 174 1090.6 175.2 1092.6 175.2C1093.6 175.2 1094.6 175 1095.4 174.4L1097.2 179.2Z" fill="#AAAAAA"/>
<path d="M996.8 412.4C1000.11 412.4 1002.8 409.714 1002.8 406.4C1002.8 403.086 1000.11 400.4 996.8 400.4C993.486 400.4 990.8 403.086 990.8 406.4C990.8 409.714 993.486 412.4 996.8 412.4Z" fill="#028F37"/>
<path d="M996.8 405.4L1009.8 351.2H1019.9" stroke="#028F37" stroke-miterlimit="10"/>
<path d="M1044.8 359.3C1043.9 360.3 1042.8 360.9 1041.4 360.9C1039.8 360.9 1038.4 360.2 1036.6 358.2C1032.5 358.1 1029.5 355.1 1029.5 351.1C1029.5 347 1032.6 344 1036.9 344C1041.1 344 1044.2 347 1044.2 351.1C1044.2 354.7 1041.8 357.4 1038.4 358.1C1039.5 359.2 1040.4 359.7 1041.4 359.7C1042.5 359.7 1043.3 359.3 1044.1 358.4L1044.8 359.3ZM1036.8 356.9C1040.2 356.9 1042.7 354.4 1042.7 351.1C1042.7 347.8 1040.2 345.3 1036.8 345.3C1033.4 345.3 1030.9 347.8 1030.9 351.1C1030.9 354.4 1033.4 356.9 1036.8 356.9Z" fill="black"/>
<path d="M1055.1 351.6V358.1H1053.7V356.5C1053.1 357.6 1051.8 358.2 1050.1 358.2C1047.7 358.2 1046.3 357 1046.3 355.1C1046.3 353.5 1047.3 352.1 1050.4 352.1H1053.7V351.5C1053.7 349.7 1052.7 348.7 1050.7 348.7C1049.3 348.7 1048.1 349.2 1047.2 349.9L1046.6 348.8C1047.7 347.9 1049.2 347.4 1050.9 347.4C1053.5 347.5 1055.1 348.8 1055.1 351.6ZM1053.7 354.9V353.2H1050.4C1048.4 353.2 1047.7 354 1047.7 355.1C1047.7 356.3 1048.7 357.1 1050.4 357.1C1051.9 357.1 1053.1 356.3 1053.7 354.9Z" fill="black"/>
<path d="M1064.5 357.4C1063.9 357.9 1063.1 358.1 1062.3 358.1C1060.3 358.1 1059.2 357 1059.2 355V348.6H1057.3V347.4H1059.2V345.1H1060.6V347.4H1063.8V348.6H1060.6V354.9C1060.6 356.1 1061.2 356.8 1062.4 356.8C1063 356.8 1063.6 356.6 1064 356.3L1064.5 357.4Z" fill="black"/>
<path d="M1075 351.6V358.1H1073.6V356.5C1073 357.6 1071.7 358.2 1070 358.2C1067.6 358.2 1066.2 357 1066.2 355.1C1066.2 353.5 1067.2 352.1 1070.3 352.1H1073.6V351.5C1073.6 349.7 1072.6 348.7 1070.6 348.7C1069.2 348.7 1068 349.2 1067.1 349.9L1066.5 348.8C1067.6 347.9 1069.1 347.4 1070.8 347.4C1073.5 347.5 1075 348.8 1075 351.6ZM1073.6 354.9V353.2H1070.3C1068.3 353.2 1067.6 354 1067.6 355.1C1067.6 356.3 1068.6 357.1 1070.3 357.1C1071.8 357.1 1073 356.3 1073.6 354.9Z" fill="black"/>
<path d="M1084.2 347.5V348.9C1084.1 348.9 1084 348.9 1083.9 348.9C1081.7 348.9 1080.4 350.3 1080.4 352.8V358.2H1079V347.7H1080.4V349.8C1080.9 348.2 1082.2 347.5 1084.2 347.5Z" fill="black"/>
<path d="M772.1 336.9C771.1 336.6 770.4 336.1 769.9 335.6L770.5 334.5C771 335 771.7 335.4 772.5 335.7C773.3 336 774.2 336.2 775.1 336.2C776.4 336.2 777.3 336 777.9 335.5C778.5 335 778.8 334.4 778.8 333.7C778.8 333.1 778.6 332.7 778.3 332.4C778 332.1 777.5 331.8 777 331.6C776.5 331.4 775.8 331.2 774.9 331C773.8 330.7 773 330.5 772.4 330.2C771.8 330 771.2 329.6 770.8 329.1C770.4 328.6 770.1 327.9 770.1 327C770.1 326.3 770.3 325.7 770.7 325.1C771.1 324.5 771.6 324.1 772.4 323.7C773.2 323.3 774.1 323.2 775.3 323.2C776.1 323.2 776.9 323.3 777.6 323.5C778.3 323.7 779 324 779.6 324.4L779.1 325.6C778.5 325.2 777.9 324.9 777.2 324.7C776.5 324.5 775.9 324.4 775.2 324.4C774 324.4 773 324.6 772.4 325.1C771.8 325.6 771.5 326.2 771.5 326.9C771.5 327.5 771.7 327.9 772 328.3C772.3 328.7 772.8 328.9 773.3 329.1C773.8 329.3 774.5 329.5 775.4 329.7C776.4 330 777.3 330.2 777.9 330.5C778.5 330.7 779.1 331.1 779.5 331.6C779.9 332.1 780.2 332.8 780.2 333.6C780.2 334.3 780 335 779.6 335.5C779.2 336.1 778.6 336.5 777.8 336.9C777 337.2 776 337.4 774.9 337.4C774 337.4 773 337.3 772.1 336.9Z" fill="black"/>
<path d="M790 327.7C790.7 328.4 791.1 329.4 791.1 330.8V337.3H789.7V335.7C789.4 336.2 788.9 336.7 788.3 337C787.7 337.3 786.9 337.5 786.1 337.5C784.9 337.5 784 337.2 783.3 336.7C782.6 336.1 782.3 335.4 782.3 334.5C782.3 333.6 782.6 332.9 783.3 332.3C783.9 331.8 785 331.5 786.4 331.5H789.7V330.9C789.7 330 789.4 329.3 788.9 328.8C788.4 328.3 787.7 328.1 786.7 328.1C786 328.1 785.4 328.2 784.8 328.4C784.2 328.6 783.7 328.9 783.2 329.3L782.6 328.2C783.1 327.7 783.8 327.4 784.5 327.1C785.2 326.9 786 326.7 786.9 326.7C788.2 326.7 789.3 327 790 327.7ZM788.4 335.7C789 335.3 789.4 334.8 789.7 334.1V332.4H786.4C784.6 332.4 783.7 333 783.7 334.3C783.7 334.9 783.9 335.4 784.4 335.8C784.9 336.2 785.5 336.3 786.4 336.3C787.2 336.3 787.8 336.1 788.4 335.7Z" fill="black"/>
<path d="M804.5 326.8V337.3H803.1V335.4C802.7 336 802.2 336.5 801.6 336.9C801 337.3 800.2 337.4 799.4 337.4C798 337.4 796.9 337 796.1 336.3C795.3 335.5 794.9 334.4 794.9 332.9V326.8H796.3V332.8C796.3 333.9 796.6 334.7 797.1 335.3C797.6 335.9 798.4 336.2 799.4 336.2C800.5 336.2 801.4 335.9 802 335.2C802.6 334.5 803 333.6 803 332.4V326.9H804.5V326.8Z" fill="black"/>
<path d="M818 322.5V337.3H816.6V335.2C816.2 335.9 815.6 336.4 814.9 336.8C814.2 337.2 813.4 337.4 812.5 337.4C811.5 337.4 810.6 337.2 809.8 336.7C809 336.2 808.4 335.6 807.9 334.8C807.4 334 807.2 333.1 807.2 332C807.2 330.9 807.4 330 807.9 329.2C808.4 328.4 809 327.8 809.8 327.3C810.6 326.9 811.5 326.6 812.5 326.6C813.4 326.6 814.1 326.8 814.8 327.1C815.5 327.5 816.1 328 816.5 328.7V322.4H818V322.5ZM814.7 335.6C815.3 335.3 815.8 334.8 816.1 334.1C816.4 333.5 816.6 332.8 816.6 332C816.6 331.2 816.4 330.5 816.1 329.9C815.8 329.3 815.3 328.8 814.7 328.5C814.1 328.2 813.4 328 812.7 328C812 328 811.3 328.2 810.7 328.5C810.1 328.8 809.6 329.3 809.3 329.9C809 330.5 808.8 331.2 808.8 332C808.8 332.8 809 333.5 809.3 334.1C809.6 334.7 810.1 335.2 810.7 335.6C811.3 335.9 812 336.1 812.7 336.1C813.5 336.1 814.1 336 814.7 335.6Z" fill="black"/>
<path d="M822 324.2C821.8 324 821.7 323.8 821.7 323.5C821.7 323.2 821.8 323 822 322.8C822.2 322.6 822.4 322.5 822.7 322.5C823 322.5 823.2 322.6 823.4 322.8C823.6 323 823.7 323.2 823.7 323.5C823.7 323.8 823.6 324 823.4 324.2C823.2 324.4 823 324.5 822.7 324.5C822.4 324.5 822.2 324.4 822 324.2ZM822 326.8H823.4V337.3H822V326.8Z" fill="black"/>
<path d="M835.6 324.6H830.7V323.3H842V324.6H837.1V337.3H835.6V324.6Z" fill="black"/>
<path d="M850.4 327.7C851.1 328.4 851.5 329.4 851.5 330.8V337.3H850.1V335.7C849.8 336.2 849.3 336.7 848.7 337C848.1 337.3 847.3 337.5 846.5 337.5C845.3 337.5 844.4 337.2 843.7 336.7C843 336.1 842.7 335.4 842.7 334.5C842.7 333.6 843 332.9 843.7 332.3C844.3 331.8 845.4 331.5 846.8 331.5H850.1V330.9C850.1 330 849.8 329.3 849.3 328.8C848.8 328.3 848.1 328.1 847.1 328.1C846.4 328.1 845.8 328.2 845.2 328.4C844.6 328.6 844.1 328.9 843.6 329.3L843 328.2C843.5 327.7 844.2 327.4 844.9 327.1C845.6 326.9 846.4 326.7 847.3 326.7C848.6 326.7 849.6 327 850.4 327.7ZM848.8 335.7C849.4 335.3 849.8 334.8 850.1 334.1V332.4H846.8C845 332.4 844.1 333 844.1 334.3C844.1 334.9 844.3 335.4 844.8 335.8C845.3 336.2 845.9 336.3 846.8 336.3C847.5 336.3 848.2 336.1 848.8 335.7Z" fill="black"/>
<path d="M855.3 324.2C855.1 324 855 323.8 855 323.5C855 323.2 855.1 323 855.3 322.8C855.5 322.6 855.7 322.5 856 322.5C856.3 322.5 856.5 322.6 856.7 322.8C856.9 323 857 323.2 857 323.5C857 323.8 856.9 324 856.7 324.2C856.5 324.4 856.3 324.5 856 324.5C855.7 324.5 855.5 324.4 855.3 324.2ZM855.3 326.8H856.7V337.3H855.3V326.8Z" fill="black"/>
<path d="M869.2 327.9C870 328.7 870.4 329.8 870.4 331.3V337.4H869V331.4C869 330.3 868.7 329.5 868.2 328.9C867.7 328.3 866.9 328 865.9 328C864.8 328 863.9 328.3 863.2 329C862.5 329.7 862.2 330.6 862.2 331.8V337.3H860.8V322.5H862.2V328.7C862.6 328.1 863.1 327.6 863.8 327.3C864.5 327 865.3 326.8 866.1 326.8C867.4 326.7 868.4 327.1 869.2 327.9Z" fill="black"/>
<path d="M881.1 327.7C881.8 328.4 882.2 329.4 882.2 330.8V337.3H880.8V335.7C880.5 336.2 880 336.7 879.4 337C878.8 337.3 878 337.5 877.2 337.5C876 337.5 875.1 337.2 874.4 336.7C873.7 336.1 873.4 335.4 873.4 334.5C873.4 333.6 873.7 332.9 874.4 332.3C875 331.8 876.1 331.5 877.5 331.5H880.8V330.9C880.8 330 880.5 329.3 880 328.8C879.5 328.3 878.8 328.1 877.8 328.1C877.1 328.1 876.5 328.2 875.9 328.4C875.3 328.6 874.8 328.9 874.3 329.3L873.7 328.2C874.2 327.7 874.9 327.4 875.6 327.1C876.3 326.9 877.1 326.7 878 326.7C879.3 326.7 880.3 327 881.1 327.7ZM879.5 335.7C880.1 335.3 880.5 334.8 880.8 334.1V332.4H877.5C875.7 332.4 874.8 333 874.8 334.3C874.8 334.9 875 335.4 875.5 335.8C876 336.2 876.6 336.3 877.5 336.3C878.2 336.3 878.9 336.1 879.5 335.7Z" fill="black"/>
<path d="M894.5 327.9C895.3 328.7 895.7 329.8 895.7 331.3V337.4H894.3V331.4C894.3 330.3 894 329.5 893.5 328.9C893 328.3 892.2 328 891.2 328C890.1 328 889.2 328.3 888.5 329C887.8 329.7 887.5 330.6 887.5 331.8V337.3H886V326.8H887.4V328.7C887.8 328.1 888.3 327.6 889 327.2C889.7 326.8 890.5 326.7 891.4 326.7C892.7 326.7 893.8 327.1 894.5 327.9Z" fill="black"/>
<path d="M994 286.5H989.1V285.2H1000.4V286.5H995.5V299.2H994V286.5Z" fill="black"/>
<path d="M1008.7 289.6C1009.4 290.3 1009.8 291.3 1009.8 292.7V299.2H1008.4V297.6C1008.1 298.1 1007.6 298.6 1007 298.9C1006.4 299.2 1005.6 299.4 1004.8 299.4C1003.6 299.4 1002.7 299.1 1002 298.6C1001.3 298 1001 297.3 1001 296.4C1001 295.5 1001.3 294.8 1002 294.2C1002.6 293.7 1003.7 293.4 1005.1 293.4H1008.4V292.8C1008.4 291.9 1008.1 291.2 1007.6 290.7C1007.1 290.2 1006.4 290 1005.4 290C1004.7 290 1004.1 290.1 1003.5 290.3C1002.9 290.5 1002.4 290.8 1001.9 291.2L1001.3 290.1C1001.8 289.6 1002.5 289.3 1003.2 289C1003.9 288.8 1004.7 288.6 1005.6 288.6C1006.9 288.6 1008 288.9 1008.7 289.6ZM1007.1 297.6C1007.7 297.2 1008.1 296.7 1008.4 296V294.3H1005.1C1003.3 294.3 1002.4 294.9 1002.4 296.2C1002.4 296.8 1002.6 297.3 1003.1 297.7C1003.6 298.1 1004.2 298.2 1005.1 298.2C1005.9 298.2 1006.5 298 1007.1 297.6Z" fill="black"/>
<path d="M1013.7 286.1C1013.5 285.9 1013.4 285.7 1013.4 285.4C1013.4 285.1 1013.5 284.9 1013.7 284.7C1013.9 284.5 1014.1 284.4 1014.4 284.4C1014.7 284.4 1014.9 284.5 1015.1 284.7C1015.3 284.9 1015.4 285.1 1015.4 285.4C1015.4 285.7 1015.3 285.9 1015.1 286.1C1014.9 286.3 1014.7 286.4 1014.4 286.4C1014.1 286.4 1013.9 286.3 1013.7 286.1ZM1013.7 288.7H1015.1V299.2H1013.7V288.7Z" fill="black"/>
<path d="M1027.6 289.8C1028.4 290.6 1028.8 291.7 1028.8 293.2V299.3H1027.4V293.3C1027.4 292.2 1027.1 291.4 1026.6 290.8C1026.1 290.2 1025.3 289.9 1024.3 289.9C1023.2 289.9 1022.3 290.2 1021.6 290.9C1020.9 291.6 1020.6 292.5 1020.6 293.7V299.2H1019.2V284.4H1020.6V290.6C1021 290 1021.5 289.5 1022.2 289.2C1022.9 288.9 1023.7 288.7 1024.5 288.7C1025.7 288.6 1026.8 289 1027.6 289.8Z" fill="black"/>
<path d="M1039.4 289.6C1040.1 290.3 1040.5 291.3 1040.5 292.7V299.2H1039.1V297.6C1038.8 298.1 1038.3 298.6 1037.7 298.9C1037.1 299.2 1036.3 299.4 1035.5 299.4C1034.3 299.4 1033.4 299.1 1032.7 298.6C1032 298 1031.7 297.3 1031.7 296.4C1031.7 295.5 1032 294.8 1032.7 294.2C1033.3 293.7 1034.4 293.4 1035.8 293.4H1039.1V292.8C1039.1 291.9 1038.8 291.2 1038.3 290.7C1037.8 290.2 1037.1 290 1036.1 290C1035.4 290 1034.8 290.1 1034.2 290.3C1033.6 290.5 1033.1 290.8 1032.6 291.2L1032 290.1C1032.5 289.6 1033.2 289.3 1033.9 289C1034.6 288.8 1035.4 288.6 1036.3 288.6C1037.7 288.6 1038.7 288.9 1039.4 289.6ZM1037.8 297.6C1038.4 297.2 1038.8 296.7 1039.1 296V294.3H1035.8C1034 294.3 1033.1 294.9 1033.1 296.2C1033.1 296.8 1033.3 297.3 1033.8 297.7C1034.3 298.1 1034.9 298.2 1035.8 298.2C1036.6 298.2 1037.3 298 1037.8 297.6Z" fill="black"/>
<path d="M1052.9 289.8C1053.7 290.6 1054.1 291.7 1054.1 293.2V299.3H1052.7V293.3C1052.7 292.2 1052.4 291.4 1051.9 290.8C1051.4 290.2 1050.6 289.9 1049.6 289.9C1048.5 289.9 1047.6 290.2 1046.9 290.9C1046.2 291.6 1045.9 292.5 1045.9 293.7V299.2H1044.5V288.7H1045.9V290.6C1046.3 290 1046.8 289.5 1047.5 289.1C1048.2 288.7 1049 288.6 1049.9 288.6C1051.1 288.6 1052.1 289 1052.9 289.8Z" fill="black"/>
<path d="M1067.8 292.6L1064.9 295.5V299.2H1063.4V285.2H1064.9V293.7L1073.1 285.2H1074.8L1068.7 291.5L1075.2 299.2H1073.4L1067.8 292.6Z" fill="black"/>
<path d="M1086.5 288.7V299.2H1085.1V297.3C1084.7 297.9 1084.2 298.4 1083.6 298.8C1083 299.2 1082.2 299.3 1081.4 299.3C1080 299.3 1078.9 298.9 1078.1 298.2C1077.3 297.4 1076.9 296.3 1076.9 294.8V288.7H1078.3V294.7C1078.3 295.8 1078.6 296.6 1079.1 297.2C1079.6 297.8 1080.4 298.1 1081.4 298.1C1082.5 298.1 1083.4 297.8 1084 297.1C1084.6 296.4 1085 295.5 1085 294.3V288.8H1086.5V288.7Z" fill="black"/>
<path d="M1105.9 288.7L1101.9 299.2H1100.6L1097.3 290.6L1094 299.2H1092.7L1088.7 288.7H1090.1L1093.4 297.6L1096.8 288.7H1098L1101.4 297.6L1104.7 288.7H1105.9Z" fill="black"/>
<path d="M1114.6 289.6C1115.3 290.3 1115.7 291.3 1115.7 292.7V299.2H1114.3V297.6C1114 298.1 1113.5 298.6 1112.9 298.9C1112.3 299.2 1111.5 299.4 1110.7 299.4C1109.5 299.4 1108.6 299.1 1107.9 298.6C1107.2 298 1106.9 297.3 1106.9 296.4C1106.9 295.5 1107.2 294.8 1107.9 294.2C1108.5 293.7 1109.6 293.4 1111 293.4H1114.3V292.8C1114.3 291.9 1114 291.2 1113.5 290.7C1113 290.2 1112.3 290 1111.3 290C1110.6 290 1110 290.1 1109.4 290.3C1108.8 290.5 1108.3 290.8 1107.8 291.2L1107.2 290.1C1107.7 289.6 1108.4 289.3 1109.1 289C1109.8 288.8 1110.6 288.6 1111.5 288.6C1112.8 288.6 1113.8 288.9 1114.6 289.6ZM1113 297.6C1113.6 297.2 1114 296.7 1114.3 296V294.3H1111C1109.2 294.3 1108.3 294.9 1108.3 296.2C1108.3 296.8 1108.5 297.3 1109 297.7C1109.5 298.1 1110.1 298.2 1111 298.2C1111.7 298.2 1112.4 298 1113 297.6Z" fill="black"/>
<path d="M1119.5 286.1C1119.3 285.9 1119.2 285.7 1119.2 285.4C1119.2 285.1 1119.3 284.9 1119.5 284.7C1119.7 284.5 1119.9 284.4 1120.2 284.4C1120.5 284.4 1120.7 284.5 1120.9 284.7C1121.1 284.9 1121.2 285.1 1121.2 285.4C1121.2 285.7 1121.1 285.9 1120.9 286.1C1120.7 286.3 1120.5 286.4 1120.2 286.4C1120 286.4 1119.7 286.3 1119.5 286.1ZM1119.5 288.7H1120.9V299.2H1119.5V288.7Z" fill="black"/>
<path d="M1130.5 298.6C1130.2 298.8 1129.9 299 1129.5 299.1C1129.1 299.2 1128.7 299.3 1128.3 299.3C1127.3 299.3 1126.6 299 1126 298.5C1125.4 298 1125.2 297.2 1125.2 296.2V289.8H1123.3V288.6H1125.2V286.3H1126.6V288.6H1129.8V289.8H1126.6V296.1C1126.6 296.7 1126.8 297.2 1127.1 297.5C1127.4 297.8 1127.9 298 1128.4 298C1128.7 298 1129 298 1129.2 297.9C1129.5 297.8 1129.7 297.7 1129.9 297.5L1130.5 298.6Z" fill="black"/>
<path d="M974.9 389.4C978.214 389.4 980.9 386.714 980.9 383.4C980.9 380.086 978.214 377.4 974.9 377.4C971.586 377.4 968.9 380.086 968.9 383.4C968.9 386.714 971.586 389.4 974.9 389.4Z" fill="#028F37"/>
<path d="M974.9 382.4L987.9 322.2H998" stroke="#028F37" stroke-miterlimit="10"/>
<path d="M1017.6 323.1C1018.1 323.7 1018.4 324.5 1018.4 325.4C1018.4 326.6 1018 327.5 1017.1 328.2C1016.2 328.8 1014.9 329.2 1013.2 329.2H1006.8V315.2H1012.8C1014.4 315.2 1015.6 315.5 1016.4 316.1C1017.3 316.7 1017.7 317.6 1017.7 318.8C1017.7 319.6 1017.5 320.2 1017.1 320.8C1016.7 321.4 1016.2 321.7 1015.5 322C1016.4 322.1 1017.1 322.5 1017.6 323.1ZM1008.2 316.4V321.5H1012.7C1013.8 321.5 1014.7 321.3 1015.3 320.9C1015.9 320.5 1016.2 319.8 1016.2 319C1016.2 318.2 1015.9 317.5 1015.3 317.1C1014.7 316.7 1013.8 316.4 1012.7 316.4H1008.2ZM1015.9 327.3C1016.5 326.9 1016.9 326.2 1016.9 325.3C1016.9 323.6 1015.6 322.7 1013.1 322.7H1008.2V328H1013.1C1014.4 327.9 1015.3 327.7 1015.9 327.3Z" fill="black"/>
<path d="M1028.3 319.6C1029 320.3 1029.4 321.3 1029.4 322.7V329.2H1028V327.6C1027.7 328.1 1027.2 328.6 1026.6 328.9C1026 329.2 1025.2 329.4 1024.4 329.4C1023.2 329.4 1022.3 329.1 1021.6 328.6C1020.9 328 1020.6 327.3 1020.6 326.4C1020.6 325.5 1020.9 324.8 1021.6 324.2C1022.2 323.7 1023.3 323.4 1024.7 323.4H1028V322.8C1028 321.9 1027.7 321.2 1027.2 320.7C1026.7 320.2 1026 320 1025 320C1024.3 320 1023.7 320.1 1023.1 320.3C1022.5 320.5 1022 320.8 1021.5 321.2L1020.9 320.1C1021.4 319.6 1022.1 319.3 1022.8 319C1023.5 318.8 1024.3 318.6 1025.2 318.6C1026.5 318.6 1027.6 318.9 1028.3 319.6ZM1026.7 327.6C1027.3 327.2 1027.7 326.7 1028 326V324.3H1024.7C1022.9 324.3 1022 324.9 1022 326.2C1022 326.8 1022.2 327.3 1022.7 327.7C1023.2 328.1 1023.8 328.2 1024.7 328.2C1025.4 328.1 1026.1 327.9 1026.7 327.6Z" fill="black"/>
<path d="M1041.8 319.7C1042.6 320.5 1043 321.6 1043 323.1V329.2H1041.6V323.2C1041.6 322.1 1041.3 321.3 1040.8 320.7C1040.3 320.1 1039.5 319.8 1038.5 319.8C1037.4 319.8 1036.5 320.1 1035.8 320.8C1035.1 321.5 1034.8 322.4 1034.8 323.6V329.1H1033.4V314.3H1034.8V320.5C1035.2 319.9 1035.7 319.4 1036.4 319.1C1037.1 318.8 1037.9 318.6 1038.7 318.6C1039.9 318.6 1041 318.9 1041.8 319.7Z" fill="black"/>
<path d="M1049.7 319.1C1050.4 318.7 1051.2 318.6 1052.2 318.6V320H1051.9C1050.8 320 1049.9 320.3 1049.3 321C1048.7 321.7 1048.4 322.6 1048.4 323.9V329.3H1047V318.8H1048.4V320.9C1048.5 320 1049 319.4 1049.7 319.1Z" fill="black"/>
<path d="M1061.5 319.6C1062.2 320.3 1062.6 321.3 1062.6 322.7V329.2H1061.2V327.6C1060.9 328.1 1060.4 328.6 1059.8 328.9C1059.2 329.2 1058.4 329.4 1057.6 329.4C1056.4 329.4 1055.5 329.1 1054.8 328.6C1054.1 328 1053.8 327.3 1053.8 326.4C1053.8 325.5 1054.1 324.8 1054.8 324.2C1055.4 323.7 1056.5 323.4 1057.9 323.4H1061.2V322.8C1061.2 321.9 1060.9 321.2 1060.4 320.7C1059.9 320.2 1059.2 320 1058.2 320C1057.5 320 1056.9 320.1 1056.3 320.3C1055.7 320.5 1055.2 320.8 1054.7 321.2L1054.1 320.1C1054.6 319.6 1055.3 319.3 1056 319C1056.7 318.8 1057.5 318.6 1058.4 318.6C1059.7 318.6 1060.7 318.9 1061.5 319.6ZM1059.9 327.6C1060.5 327.2 1060.9 326.7 1061.2 326V324.3H1057.9C1056.1 324.3 1055.2 324.9 1055.2 326.2C1055.2 326.8 1055.4 327.3 1055.9 327.7C1056.4 328.1 1057 328.2 1057.9 328.2C1058.6 328.1 1059.3 327.9 1059.9 327.6Z" fill="black"/>
<path d="M1066.4 316C1066.2 315.8 1066.1 315.6 1066.1 315.3C1066.1 315 1066.2 314.8 1066.4 314.6C1066.6 314.4 1066.8 314.3 1067.1 314.3C1067.4 314.3 1067.6 314.4 1067.8 314.6C1068 314.8 1068.1 315 1068.1 315.3C1068.1 315.6 1068 315.8 1067.8 316C1067.6 316.2 1067.4 316.3 1067.1 316.3C1066.9 316.3 1066.6 316.2 1066.4 316ZM1066.4 318.6H1067.8V329.1H1066.4V318.6Z" fill="black"/>
<path d="M1080.3 319.7C1081.1 320.5 1081.5 321.6 1081.5 323.1V329.2H1080.1V323.2C1080.1 322.1 1079.8 321.3 1079.3 320.7C1078.8 320.1 1078 319.8 1077 319.8C1075.9 319.8 1075 320.1 1074.3 320.8C1073.6 321.5 1073.3 322.4 1073.3 323.6V329.1H1071.9V318.6H1073.3V320.5C1073.7 319.9 1074.2 319.4 1074.9 319C1075.6 318.6 1076.4 318.5 1077.3 318.5C1078.5 318.6 1079.5 318.9 1080.3 319.7Z" fill="black"/>
</g>
<defs>
<linearGradient id="paint0_linear_40_8667" x1="960" y1="100" x2="960" y2="0" gradientUnits="userSpaceOnUse">
<stop stop-color="#E1E7EF" stop-opacity="0"/>
<stop offset="1" stop-color="#E1E7EF" stop-opacity="0.3"/>
</linearGradient>
<linearGradient id="paint1_linear_40_8667" x1="1173.9" y1="349.4" x2="1946.2" y2="349.4" gradientUnits="userSpaceOnUse">
<stop offset="1.34813e-07" stop-color="#CAD2DB"/>
<stop offset="0.5275" stop-color="#CBD3DC"/>
<stop offset="1" stop-color="#E1E7EF"/>
</linearGradient>
<linearGradient id="paint2_linear_40_8667" x1="591.85" y1="357.5" x2="591.85" y2="723.4" gradientUnits="userSpaceOnUse">
<stop offset="0.3995" stop-color="#CAD2DB"/>
<stop offset="1" stop-color="#E1E7EF"/>
</linearGradient>
<clipPath id="clip0_40_8667">
<rect width="1920" height="700" fill="white"/>
</clipPath>
</defs>
</svg>
