<?xml version="1.0" encoding="UTF-8"?>
<svg id="Layer_1" data-name="Layer 1" xmlns="http://www.w3.org/2000/svg" version="1.1" xmlns:xlink="http://www.w3.org/1999/xlink" viewBox="0 0 1920 650">
  <defs>
    <style>
      .cls-1 {
        fill: #f67a03;
      }

      .cls-1, .cls-2, .cls-3, .cls-4, .cls-5, .cls-6, .cls-7, .cls-8, .cls-9, .cls-10 {
        stroke-width: 0px;
      }

      .cls-2, .cls-11 {
        fill: #000;
      }

      .cls-11 {
        font-family: SpoqaHanSansNeo-Regular, 'Spoqa Han Sans Neo';
        font-size: 18px;
      }

      .cls-11, .cls-12 {
        isolation: isolate;
      }

      .cls-3 {
        fill: #028f37;
      }

      .cls-4 {
        fill: none;
      }

      .cls-5, .cls-6 {
        fill: #303030;
      }

      .cls-13 {
        clip-path: url(#clippath);
      }

      .cls-6, .cls-8, .cls-14 {
        display: none;
      }

      .cls-7, .cls-8 {
        fill: #5d6fcc;
      }

      .cls-9 {
        fill: #e1e7ef;
      }

      .cls-10 {
        fill: #fff;
      }
    </style>
    <clipPath id="clippath">
      <rect class="cls-4" width="1920" height="650"/>
    </clipPath>
  </defs>
  <rect class="cls-9" width="1920" height="650"/>
  <g class="cls-13">
    <g>
      <g>
        <path class="cls-10" d="M653.5,34.8c1.6.8,4,0,5.6,0,2.4,0,4.8-.8,8-.8-2.4.8-4.8.8-7.2.8s-2.4.8-3.2.8q-1.7,0-3.2-.8h0q0,.8,0,0c1.5,1.6.7.8,0,0Z"/>
        <path class="cls-10" d="M669.4,475.6c-.8,0-.8-.8-1.6-.8.8,0,1.6.8,1.6.8Z"/>
        <path class="cls-10" d="M192.7,336.1c-3.2,4-5.6,8-8,12s-4.8,7.2-6.4,11.2c-1.6,4,.8,8,1.6,12,1.6,4.8,0,8.8-1.6,13.5-2.4,8,0,15.9,6.4,21.5,6.4,6.4,11.2,14.4,17.5,19.9,3.2,2.4,6.4,4.8,10.4,6.4,4,2.4,8.8,0,13.6-.8,9.6-.8,18.3-.8,27.1-4.8,3.2-.8,6.4-2.4,10.4-1.6,1.6,0,3.2,1.6,4.8,2.4,1.6,1.6,2.4,3.2,4,4.8,3.2,2.4,8.8.8,12,1.6,3.2.8,4,4.8,3.2,8,0,3.2-.8,6.4-1.6,8.8-.8,2.4-1.6,4-.8,6.4.8,2.4,2.4,4,3.2,5.6,2.4,3.2,5.6,5.6,7.2,8.8,2.4,4,3.2,8,4.8,12,.8,4,2.4,8.8,2.4,12.8s-1.6,8.8-4,12.8c-4,8.8-4,16.7.8,24.7s4,8,5.6,12c1.6,4.8,1.6,10.4,2.4,15.1,1.6,8.8,7.2,15.1,10.4,23.1,1.6,4,.8,7.2,1.6,11.2.8,4,4.8,5.6,8.8,5.6,4-.8,8-1.6,12-1.6,4.8-.8,9.6-.8,13.5-3.2,7.2-3.2,12-10.4,17.5-16.7,2.4-3.2,4.8-5.6,6.4-8.8,1.6-4-.8-8.8,3.2-11.2,2.4-2.4,5.6-3.2,7.2-6.4s.8-7.2,0-10.4c-.8-4-1.6-7.2,1.6-10.4,4-3.2,6.4-6.4,11.2-8.8s7.2-3.2,8-7.2,1.6-8.8.8-12.8c0-8.8-5.6-16.7-5.6-25.5s.8-8,2.4-11.2c2.4-4,6.4-7.2,9.6-10.4,6.4-6.4,13.5-12,20.7-18.3,6.4-6.4,11.2-14.4,14.4-22.3.8-2.4,4-8.8,2.4-10.4-1.6-.8-4,0-5.6,0-2.4.8-5.6,1.6-8,1.6-4.8.8-11.2,4-15.1,1.6-2.4-.8-2.4-4-2.4-5.6s0-1.6-.8-2.4c-1.6-1.6-3.2-2.4-4.8-4-7.2-6.4-13.5-12-16.7-21.5-1.6-4-2.4-8-4.8-12s-4.8-8.8-6.4-12.8c-1.6-3.2-4-7.2-5.6-10.4-.8-2.4.8-6.4,4-4.8,2.4.8,3.2,4,4.8,6.4,2.4,4,5.6,7.2,8,11.2s4,7.2,5.6,11.2,4.8,7.2,7.2,10.4c4.8,7.2,7.2,15.9,8.8,23.9,0,.8,0,3.2.8,3.2s1.6,0,3.2-.8c3.2-.8,7.2-1.6,10.4-2.4,9.6-3.2,17.5-8,26.3-12,4-1.6,8-3.2,11.2-5.6,4-2.4,7.2-6.4,9.6-9.6s5.6-5.6,6.4-8.8c.8-4-3.2-6.4-6.4-8s-4.8-4-5.6-7.2c-1.6-4.8-4.8,0-6.4,1.6-2.4,2.4-5.6,4.8-9.6,4s-4.8-4.8-8-7.2c-3.2-3.2-5.6-4.8-7.2-8.8-1.6-3.2-4.8-8-.8-10.4,3.2-1.6,6.4,0,8,2.4,1.6,3.2,3.2,6.4,7.2,8,8,4.8,16.7,4.8,25.5,8.8,4,1.6,8,3.2,12.8,3.2s9.6-.8,14.4-.8c8,.8,14.3,5.6,17.5,12.8,1.6,2.4,3.2,6.4,6.4,6.4s8-4,8,2.4c0,9.6,3.2,17.5,6.4,26.3,1.6,4.8,4,8.8,5.6,12.8,1.6,3.2,2.4,8.8,4.8,11.2,3.2,2.4,6.4-2.4,8-4,2.4-4,4-8,4.8-12.8.8-4,0-8,1.6-12s6.4-7.2,9.6-9.6c3.2-2.4,7.2-5.6,10.4-8.8s5.6-6.4,9.6-8c3.2-1.6,6.4-3.2,9.6-4,4-.8,4.8,4,6.4,6.4,2.4,3.2,5.6,5.6,6.4,8.8.8,2.4,0,9.6,2.4,11.2s5.6-1.6,7.2-2.4c3.2-.8,3.2,6.4,4,8.8,1.6,4.8,2.4,8.8,2.4,12.8s0,9.6,1.6,13.5c1.6,3.2,4.8,5.6,5.6,9.6,1.6,4.8,2.4,8.8,4.8,12,1.6,2.4,5.6,6.4,8.8,5.6,2.4,0,0-5.6,0-6.4-.8-4-1.6-8-4-11.2s-5.6-4-8.8-6.4c-4-4.8-7.2-12-4-18.3,1.6-2.4,3.2-5.6,7.2-4s4.8,5.6,8,8c1.6,1.6,3.2,1.6,4.8,3.2,4-.8,4,0,4,1.6,1.6,4,5.6,0,7.2-1.6,2.4-2.4,5.6-3.2,8-4.8,3.2-2.4,4-7.2,3.2-11.2s-2.4-7.2-4.8-10.4c-2.4-3.2-5.6-5.6-7.2-8.8-1.6-3.2-.8-7.2,1.6-10.4,2.4-2.4,7.2-4.8,10.4-3.2,4,2.4,1.6,4.8-.8,7.2-3.2,3.2,1.6,6.4,4.8,4.8,4.8-2.4,0-5.6,1.6-8.8s7.2-4.8,9.6-5.6c4-1.6,8-2.4,12-3.2,4.8-1.6,8-4.8,11.2-8s5.6-7.2,8-10.4c1.6-3.2,5.6-7.2,5.6-11.2s-.8-4-.8-5.6c0-2.4-.8-4.8-1.6-6.4-1.6-4-4.8-7.2-5.6-11.2-2.4-6.4,11.2-7.2,9.6-11.2-.8-2.4-4.8-3.2-6.4-2.4-4,.8-5.6,1.6-8.8-1.6s-1.6-2.4-1.6-3.2c0-1.6,2.4-1.6,3.2-2.4,4-1.6,6.4-5.6,10.4-7.2s.8,4.8.8,6.4c0,2.4,3.2,1.6,4.8.8,1.6-.8,3.2-1.6,5.6-2.4,4.8-1.6,4.8,2.4,4.8,6.4s4,2.4,5.6,4c1.6,2.4.8,5.6.8,8s0,5.6,3.2,5.6,7.2-1.6,8.8-4c2.4-3.2,1.6-7.2,0-10.4-1.6-2.4-4.8-4.8-5.6-8s4.8-5.6,6.4-7.2c2.4-3.2,4-7.2,6.4-9.6,3.2-3.2,6.4-.8,10.4-1.6,4-.8,6.4-4.8,8.8-7.2,5.6-6.4,12-12.8,15.1-20.7,1.6-4,3.2-8,4-12.8.8-4,3.2-8.8,1.6-12.8-.8-3.2-4-6.4-7.2-4.8-4,1.6-6.4.8-10.4-.8-1.6-.8-6.4-3.2-4-5.6.8-1.6,3.2-2.4,4-3.2,2.4-1.6,4-3.2,6.4-4.8,3.2-3.2,7.2-6.4,10.4-8.8,3.2-3.2,6.4-6.4,11.2-8s8.8.8,13.5.8,9.6-1.6,13.5-2.4c4.8,0,7.2,2.4,11.2,3.2,1.6.8,3.2.8,4.8,0,2.4-.8,2.4-3.2,3.2-4.8,1.6-3.2,5.6-6.4,8-8.8,3.2-3.2,6.4-4.8,11.2-3.2,3.2,1.6,4.8,5.6,8,4s6.4-3.2,8-6.4c.8-1.6,1.6-3.2,4-3.2s3.2,0,2.4.8c-.8,4-3.2,7.2-5.6,9.6-2.4,2.4-5.6,4.8-8,7.2-3.2,3.2-6.4,6.4-9.6,9.6-3.2,2.4-7.2,4-9.6,7.2-2.4,4-4,8-4,12.8s.8,8,1.6,12c0,2.4,0,5.6,1.6,7.2,2.4,2.4,4-.8,5.6-2.4,1.6-3.2,3.2-5.6,5.6-8,5.6-6.4,13.5-11.2,13.5-20.7s-.8-8,.8-12,5.6-5.6,9.6-7.2c4-.8,8.8-2.4,13.5-2.4s4,.8,6.4.8c2.4.8,4.8-1.6,7.2-2.4,4-2.4,8-4.8,12-6.4,4-2.4,8.8-4.8,12.8-4.8s4.8.8,6.4-.8c1.6-2.4-1.6-7.2-3.2-8.8-1.6-1.6-3.2-2.4-4.8-4s-.8-2.4,1.6-2.4c3.2.8,6.4,1.6,9.6,0s2.4-2.4,3.2-3.2c.8-1.6.8-3.2,1.6-4,1.6-2.4,8.8,3.2,10.4,4,3.2,1.6,7.2,3.2,9.6,5.6,3.2,1.6,5.6,3.2,7.2-.8,1.6-3.2,2.4-5.6,6.4-6.4,5.6-.8.8-5.6-1.6-6.4-3.2-1.6-6.4-3.2-9.6-1.6-.8,0-1.6,1.6-3.2.8-1.6-.8-2.4-3.2-3.2-4-2.4-2.4-5.6-4-8-4.8-4.8-2.4-8.8-4.8-13.5-7.2-5.6-2.4-12-4.8-18.3-5.6-3.2,0-6.4,0-10.4-.8-1.6,0-6.4-2.4-7.2,0-.8,1.6.8,4,.8,5.6,0,2.4-2.4,3.2-4.8,2.4-1.6-.8-4.8-2.4-5.6-4s1.6-3.2,1.6-4.8c-3.2,2.4-8,4-12,4s-9.6-2.4-13.5-.8c-3.2.8-6.4,4-9.6,0-2.4-3.2-2.4-6.4-5.6-8.8-5.6-4-13.5-1.6-19.1-.8-4,.8-7.2,0-10.4-1.6s-8.8-2.4-11.2-5.6c-2.4-2.4-3.2-4.8-7.2-3.2-2.4.8-5.6,5.6-8,4s-3.2-4-5.6-5.6c-4-2.4-8-3.2-12-2.4-2.4.8-7.2,1.6-5.6,4.8.8,3.2-.8,4.8-4,4.8-8,1.6-15.9-1.6-23.9-.8-3.2,0-4,1.6-6.4,4s-4.8,1.6-7.2-.8c-2.4-1.6-5.6-4-4.8-7.2,0-2.4,1.6-4.8.8-7.2-1.6-4-7.2-4.8-10.4-5.6-2.4-.8-4.8-1.6-7.2-1.6s-3.2,2.4-4.8,4.8c-3.2,4-12.8,2.4-16.7.8-3.2-1.6-6.4-3.2-9.6-4-4-.8-7.2,0-10.4,0-5.6.8-12-4-17.5-2.4-3.2.8-4.8,4-7.2,4.8-3.2,1.6-7.2,1.6-10.4.8,1.6-3.2,4.8-4,8-5.6,4.8-1.6,8.8-4.8,12.8-7.2,3.2-1.6,7.2-2.4,9.6-5.6s.8-7.2-2.4-8.8c-4-2.4-8-3.2-12-3.2s-8.8,2.4-13.5-.8c-1.6-.8-3.2-2.4-4-4-.8-.8-.8-2.4-2.4-3.2-2.4-1.6-5.6-.8-8,0-4,.8-5.6,4-7.2,6.4-2.4,3.2-6.4,4-10.4,5.6s-8.8-1.6-12.8,0c-4.8,0-6.4.8-8,1.6-2.4.8-4.8,1.6-7.2,2.4-5.6,1.6-18.3,2.4-17.5,10.4,0,4-1.6,5.6-5.6,5.6-4,.8-8.8.8-12.8.8s-4.8,0-5.6,2.4,0,4.8,2.4,6.4c1.6.8,5.6,2.4,4,4.8s-4.8,0-6.4-.8c-3.2-1.6-6.4-1.6-9.6-2.4s0,1.6-2.4,3.2c-1.6.8-6.4.8-2.4,3.2,1.6.8,4.8,1.6,4.8,4-3.2,0-7.2.8-9.6-1.6-2.4-2.4-2.4-6.4-2.4-9.6-2.4,2.4-8,5.6-7.2,10.4.8,2.4,2.4,4,1.6,6.4s-1.6,5.6.8,7.2,6.4,0,9.6.8c2.4.8,4,2.4,4.8,4,1.6,2.4,0,5.6,2.4,8-1.6,0-4-.8-4.8-2.4-.8-2.4-.8-4.8-2.4-6.4-1.6-1.6-4.8-1.6-6.4,0-1.6,1.6-.8,4-1.6,6.4-2.4,9.6-16.7,13.6-23.9,7.2,4,0,8,0,12-2.4,3.2-2.4,6.4-7.2,4.8-11.2-.8-4.8-2.4-8.8-2.4-13.6s.8-8,.8-12-2.4-5.6-6.4-5.6-7.2,2.4-9.6,5.6c-1.6,3.2-4.8,6.4-5.6,9.6-.8,4.8,1.6,8.8,4,12,1.6,1.6,3.2,5.6,0,6.4-2.4,0-4.8-1.6-6.4-3.2-4-2.4-8-4-12-5.6-3.2-.8-8.8-3.2-12.8-1.6-2.4,1.6,0,5.6-1.6,7.2-2.4,3.2-6.4-.8-8.8-.8-4,0-8,2.4-12,3.2-3.2.8-7.2,4-8-.8-.8-3.2-8,.8-9.6.8-4,.8-8,2.4-12,4.8-2.4,1.6-4.8,5.6-8,5.6s-5.6-1.6-6.4-4c-1.6-3.2,4.8-3.2,4-6.4-.8-2.4-4.8-3.2-7.2-1.6-1.6,1.6-1.6,5.6-.8,8,.8,2.4,2.4,7.2-1.6,7.2s-7.2-1.6-10.4,1.6c-2.4,2.4-3.2,4.8-4,8-1.6,3.2-4.8.8-7.2.8-1.6-.8-3.2-1.6-4.8-1.6s-1.6,1.6-.8,2.4c.8.8,2.4,1.6,2.4,2.4,0,1.6-1.6,2.4-3.2,1.6-3.2,0-7.2-2.4-8.8-5.6-1.6-3.2-.8-7.2-3.2-9.6-2.4-2.4-6.4-3.2-7.2-8,7.2,4,17.5,8,25.5,6.4,4-.8,13.5-4.8,8.8-9.6-3.2-2.4-7.2-4.8-10.4-6.4-4-2.4-8-4-12.8-4.8-4-.8-8-1.6-12-3.2-2.4-.8-7.2-.8-5.6-4,4.8-7.2-19.9-6.4-23.1-6.4s-7.2.8-10.4,2.4c-1.6.8-2.4,2.4-4,3.2-1.6,1.6-4,1.6-6.4,1.6-4,0-8,2.4-10.4,5.6-.8,1.6-1.6,3.2-4,2.4-1.6-.8-3.2-.8-4.8.8-2.4,1.6-4,4-6.4,5.6,2.4.8,4.8-1.6,7.2-.8-5.6,8-9.6,15.9-15.9,22.3-5.6,6.4-14.4,10.4-20.7,15.9-5.6,4.8-6.4,13.6-3.2,19.9,1.6,3.2,3.2,6.4,6.4,7.2,4,1.6,7.2-1.6,9.6-4,3.2-2.4,6.4-3.2,8,1.6,1.6,3.2,3.2,7.2,4,10.4.8,2.4,2.4,4.8,4,6.4,3.2,2.4,7.2-.8,10.4-1.6,3.2-1.6,3.2-4,3.2-7.2s2.4-7.2,4.8-10.4c2.4-2.4,4-6.4.8-8.8-2.4-2.4-4-4-3.2-8,1.6-7.2,7.2-9.6,12-13.6,3.2-2.4,4-4.8,4.8-8.8.8-2.4,2.4-3.2,4.8-4s9.6-.8,8.8,4c-1.6,6.4-9.6,8.8-12.8,13.6-3.2,4.8-2.4,13.6,1.6,17.5,4.8,4.8,12.8,1.6,18.3,0,2.4-.8,5.6-2.4,8-.8,4.8,2.4-1.6,4.8-4,4.8-4,.8-8.8,0-12.8.8s-7.2,3.2-10.4,6.4c2.4,1.6,5.6-1.6,7.2,0s1.6,3.2.8,4.8c-1.6,2.4-3.2,1.6-4.8,0-3.2-2.4-6.4.8-7.2,4-.8,3.2.8,8-1.6,11.2s-6.4,1.6-9.6,1.6c-4.8,0-8.8,2.4-13.5,3.2-1.6.8-3.2-.8-4.8-.8-2.4-.8-4,0-6.4.8-3.2.8-5.6-.8-5.6-4.8s1.6-8-.8-12c-1.6-4-7.2,0-8.8,2.4-1.6,3.2-.8,6.4,0,9.6,1.6,3.2,1.6,6.4-2.4,8-4,.8-7.2.8-10.4,3.2s-5.6,6.4-8.8,8.8c-2.4,2.4-5.6,4-8.8,7.2-2.4,5.6-4.8,7.2-8,6.4-4-.8-2.4,4.8-6.4,4.8s-8-2.4-8,1.6,4,4,6.4,4.8c4,1.6,6.4,4.8,7.2,8.8.8,3.2,0,7.2-2.4,9.6s-8,.8-10.4.8c-4,0-8,0-12-.8-4,0-7.2.8-7.2,5.6s0,7.2-.8,11.2c-1.6,4-1.6,8.8.8,12.8,2.4,3.2,4.8,3.2,8,4.8,4,1.6,4,4,2.4,7.2s-3.2,5.6-5.6,7.2c-3.2,2.4-6.4,4-8,8-.8,3.2-.8,7.2-2.4,10.4-2.4,4-5.6,5.6-8.8,8-2.4,1.6-4,3.2-5.6,5.6,0-.3.7-1.9,1.5-1.9,0-.8,0,0,0,0-3.2,3.2,1.6-3.2,0,0ZM445.4,246.1c4-1.6,8-4,12-3.2,1.6,0,7.2,2.4,5.6,4.8-1.6,4-8.8,3.2-10.4,8-.8,4,4,8,6.4,10.4s7.2,4.8,10.4,8c-2.4.8-8,.8-7.2,4,.8,4,4,6.4,4,10.4-.8,4.8-5.6,6.4-9.6,5.6-2.4-.8-4.8-2.4-6.4-4-1.6-.8-4-2.4-4-4.8,0-4,3.2-7.2.8-12-2.4-4-6.4-5.6-8-9.6-1.6-3.2-3.2-8.8,0-12,2.4-2.4,5.6-3.2,8.8-4.8-.8,0-1.6.8-2.4.8v-1.6c5.6-2.4-4,1.5,0,0ZM360.9,261.2c1.6-4.8,4.8-8.8,7.2-12.8,1.6-1.6,2.4-3.2,4-4.8s4,0,5.6.8c4,1.6.8,6.4,4.8,8,3.2,1.6,7.2-.8,10.4-2.4-.8-1.6-5.6-2.4-3.2-4.8,1.6-1.6,3.2-2.4,5.6-2.4,3.2-.8,6.4-2.4,8.8-3.2-1.6,3.2-5.6,8-4,12s7.2,6.4,10.4,8.8,8,5.6,3.2,8.8c-4,2.4-10.4,2.4-14.4.8-4.8-1.6-8.8-4-13.5-4s-8.8,3.2-13.5,4c-4,.8-8.8,0-11.2-4-1.6-2.4,0-5.6.8-8-.8.8-.8,1.6-1.6,3.2h.6c2.4-4.8-1.6,4,0,0ZM229.4,293.9c5.6-1.6,11.2-.8,14.4-6.4,3.2-4,2.4-9.6,5.6-13.5,3.2-3.2,8-4.8,10.4-8.8.8-1.6,1.6-4,2.4-4.8,1.6-1.6,4.8.8,7.2.8s5.6-.8,8-2.4c2.4-.8,4-3.2,6.4-3.2,4,0,5.6,4.8,8,7.2,3.2,4,8,7.2,12.8,9.6,4,2.4,8,6.4,7.2,12,5.6,0,2.4-10.4,9.6-8-2.4-6.4-10.4-8-15.1-12.8-2.4-3.2-4-7.2-7.2-9.6-.8-.8,0-3.2.8-4,1.6-1.6,4-.8,4.8.8,3.2,3.2,6.4,6.4,9.6,8.8s7.2,4,10.4,7.2c1.6,1.6,1.6,2.4.8,4,0,2.4.8,4,1.6,5.6,2.4,3.2,4.8,6.4,6.4,9.6.8,1.6,1.6,5.6,4.8,4.8,2.4-.8,6.4-4,6.4-6.4s-4-4-4-7.2,4-4.8,5.6-5.6c2.4-.8,5.6-.8,6.4,1.6,1.6,3.2,2.4,7.2,3.2,10.4,1.6,3.2,4,6.4,7.2,7.2,4,.8,8-1.6,11.2,0,1.6.8,3.2,1.6,5.6,1.6s4-.8,5.6-.8c4.8-1.6,5.6,1.6,5.6,5.6-.8,4-2.4,8-3.2,12-.8,2.4-1.6,6.4-4.8,7.2-4.8.8-9.6-.8-14.4,0-5.6,0-10.4,0-15.9-.8-4.8-.8-8.8-2.4-13.5-4-4-1.6-8.8-2.4-11.2,2.4-1.6,2.4-1.6,8-5.6,6.4s-8-2.4-12-4.8c-1.6-.8-2.4-2.4-4-4-1.6-.8-4-1.6-5.6-1.6-3.2-.8-8.8-.8-8.8-4.8-.8-3.2,1.6-6.4.8-10.4-.8-2.4-4-4-6.4-4.8-8-1.6-16.7,0-25.5.8-4,0-7.2.8-11.2,1.6-4,1.6-7.2,4.8-12,5.6-3.2.8-8,.8-10.4-.8-2.8-.1.4-2.5,2-3.3,0,0,0,.8,0,0,0,.8,0,0,0,0,4-.8-1.6.8,0,0Z"/>
        <path class="cls-10" d="M844.8,533c-2.4-.8-2.4-4-3.2-6.4-.8-3.2-.8-7.2-2.4-9.6-1.6-2.4-4-3.2-5.6-5.6s-2.4-5.6-4-8.8c-.8-1.6-2.4-4-4.8-2.4-1.6,1.6-1.6,4-1.6,6.4-.8,4-.8,7.2-1.6,11.2-.8,2.4-.8,5.6-2.4,8-2.4,1.6-5.6-.8-8-1.6-3.2-1.6-7.2-3.2-9.6-5.6-2.4-1.6-3.2-4-1.6-6.4,1.6-1.6,3.2-4.8,1.6-7.2-3.2-3.2-8,0-11.2-2.4-4-3.2-8.8,4-12-.8-.8.8-.8,2.4-.8,3.2,0,2.4-1.6,3.2-3.2,5.6-.8,1.6-.8,3.2-1.6,4.8-1.6,1.6-4,0-5.6-.8-4-1.6-7.2-2.4-10.4,0-4,2.4-6.4,7.2-9.6,10.4l-4.8,4.8c-.8,1.6-1.6,3.2-3.2,4.8-2.4,2.4-6.4,3.2-9.6,4-4,.8-8,2.4-12,4s-8,4-8.8,8c-1.6,8.8,0,18.3,4,26.3,1.6,4,4,8,4.8,12.8,0,2.4,0,4-.8,6.4-.8,1.6-.8,3.2-.8,4.8.8,3.2,7.2,4,9.6,4,4-.8,8-4,12-4.8s8.8.8,12-1.6c4-2.4,7.2-4.8,12-5.6,8-1.6,17.5-5.6,25.5-1.6,3.2,1.6,5.6,4,7.2,7.2,1.6,2.4,3.2,6.4,7.2,4.8.8,0,4.8-5.6,5.6-4,.8,2.4-3.2,5.6,0,6.4,6.4.8,7.2,8,10.4,12,5.6,7.2,15.1,4,23.1,5.6,4.8.8,6.4-2.4,10.4-3.2,4-1.6,6.4-1.6,8-5.6.8-4,2.4-7.2,4-10.4,2.4-4,4.8-8,7.2-12.8,3.2-6.4,4-14.3,2.4-21.5s-8-12.8-12.8-19.1c-4.7-8.1-8.7-14.5-15-17.7,1.6.8,2.4,1.6,4,2.4-.8-.8-2.4-1.6-4-2.4-2.4-.8,10.3,5.6,0,0Z"/>
        <path class="cls-10" d="M846.4,477.2c-7.2-5.6-15.1-9.6-23.9-12.8-4-1.6-8.8-4-12.8-4s-6.4,3.2-9.6,4.8c-4.8,1.6-5.6-7.2-8.8-9.6-2.4-1.6-8-.8-9.6,2.4-.8,1.6,1.6,2.4,1.6,3.2,1.6,1.6,1.6,3.2,2.4,4.8,1.6,4,5.6,4,8.8,4.8,4,.8,8.8,2.4,12.8,4.8,2.4,1.6,6.4,4.8,4,8-.8.8-1.6,2.4-1.6,3.2,0,1.6,3.2,1.6,4,1.6,4,0,7.2,2.4,11.2,3.2s7.2-3.2,10.4-4.8c4-1.6,7.2,1.6,8.8,4.8,3.2,3.2,6.4,5.6,11.2,5.6s3.2-1.6.8-4-5.6-4.8-8-8.8c-.1-2.4.7-5.6-1.7-7.2-1.6-1.6-3.2-2.4-4-4,.8,1.6,2.4,3.2,4,4-6.4-5.6.8,0,0,0Z"/>
        <path class="cls-10" d="M726,427.8c-2.4-1.6-4.8-3.2-7.2-.8-1.6,1.6-2.4,4-4,5.6-2.4,1.6-4.8,2.4-7.2,4-2.4,2.4-4.8,4-8,6.4-2.4,1.6-5.6,2.4-8,3.2-3.2.8-2.4,4.8-1.6,7.2,1.6,4.8,6.4,12.8,12,14.4,2.4.8,5.6.8,8,.8,2.4.8,5.6,2.4,8,0,2.4-1.6,3.2-4,4-6.4.8-3.2,2.4-5.6,4-8.8,1.6-2.4,3.2-4,1.6-7.2-1.6-3.2-3.2-5.6-1.6-8.8.8-2.4,4.8-4,3.2-6.4-.8-1.6-2.4-2.4-3.2-3.2s0,0,0,0c.8,0,0,0,0,0-1.6-1.6,3.2,2.4,0,0Z"/>
        <path class="cls-10" d="M447,502.7c-1.6-.8-2.4,2.4-3.2,3.2-2.4,2.4-4,5.6-6.4,8-4.8,3.2-12.8,2.4-12.8,9.6s.8,7.2,0,10.4c0,1.6-.8,4-.8,5.6-.8,1.6-1.6,3.2-1.6,4-.8,3.2.8,6.4,1.6,9.6.8,2.4,3.2,4.8,5.6,4.8,5.6.8,8.8-3.2,10.4-8,1.6-5.6,2.4-11.2,4-15.9.8-3.2,2.4-7.2,3.2-10.4,1.6-3.2,2.4-7.2,3.2-11.2.8-1.7.8-8.9-3.2-9.7,0,0,1.6,0,0,0-1.6-.8,1.6,0,0,0Z"/>
        <path class="cls-10" d="M231,199.8c2.4.8,3.2,3.2,2.4,5.6-.8.8-1.6,1.6-2.4,1.6-1.6,0-2.4,1.6-2.4,2.4-1.6,3.2-.8,4.8,0,8,.8,2.4,0,4.8-2.4,6.4,6.4-.8,12.8-1.6,19.1-2.4,2.4,0,4.8-.8,7.2-3.2s3.2-4.8,2.4-7.2c-.8-1.6-3.2-2.4-4-3.2-2.4-2.4-3.2-4.8-4.8-8-2.4-4-8.8-6.4-7.2-12,0-1.6.8-4,.8-5.6-2.4-.8-4.8,0-6.4-1.6s.8-4-1.6-4.8c-1.6,0-4,.8-4.8,1.6-4.8,2.4-7.2,8-5.6,12.8,1.7,4.8,5.7,8,9.7,9.6-.8,0-1.6-.8-2.4-.8.8,0,1.6,0,2.4.8,2.4.8-5.6-2.4,0,0Z"/>
        <path class="cls-10" d="M295.6,32.4c2.4,0,6.4,1.6,8.8,0,.8-.8,4-3.2,4.8-.8s-1.6,2.4-3.2,3.2c-2.4,1.6-.8,5.6,0,7.2,1.6,1.6,5.6,4.8,7.2,4.8,2.4,0,4.8-4.8,6.4-6.4,1.6-2.4,4-5.6,5.6-8.8,1.6-2.4,4-2.4,5.6-.8,3.2,3.2,3.2,8.8,8.8,8.8s7.2-1.6,5.6-4-5.6-4.8-8-6.4c-6.4-4-12-8-18.3-12-1.6-.8-5.6-3.2-6.4-.8-.8,1.6,0,3.2,0,4.8-2.4-4-5.6-4-9.6-4s-8.8-2.4-9.6,1.6c-.8,3.2,1.6,4.8,0,8-1.6,2.4.8,3.2,3.2,3.2h-1.6q-.1,2.4.7,2.4c2.4.8-3.2,0,0,0Z"/>
        <path class="cls-10" d="M463.8,89.8c2.4.8,3.2,4,5.6,4.8,3.2,1.6,7.2.8,10.4.8-1.6-2.4-4-4.8-5.6-8-1.6-4,0-7.2,2.4-9.6,4-6.4,10.4-12,17.5-15.9,7.2-4,15.9-6.4,24.7-8.8,3.2-.8,7.2-1.6,8.8-4,2.4-3.2-3.2-3.2-4.8-3.2-3.2.8-5.6,2.4-8.8,3.2-4,1.6-8,1.6-12,1.6-8,.8-15.9,3.2-21.5,8s-8.8,12-13.5,17.5c-2.4,3.2-5.6,5.6-7.2,8.8-.8,4,2.3,4,4,4.8q-.8,0-1.6-.8c.8.8,1.6.8,1.6.8,3.1.8-4-1.6,0,0Z"/>
        <path class="cls-10" d="M675,460.5c-5.6,0-7.2-5.6-9.6-9.6-4-5.6-10.4-9.6-15.9-13.5-1.6-.8-14.3-12-14.3-5.6s4,5.6,5.6,8c2.4,2.4,4.8,4.8,6.4,8,4,5.6,6.4,11.2,10.4,15.9,2.4,2.4,4,5.6,6.4,7.2s4,4,6.4,4.8c5.6,1.6,6.4-5.6,8-8.8.8-4,0-6.4-4.8-7.2h2.4c-.2.8-1,.8-1,.8-5.6,0,4,.8,0,0Z"/>
        <path class="cls-10" d="M806.5,291.5c-1.6,0-1.6,1.6-2.4,2.4-.8,1.6-2.4,2.4-4,3.2-4,1.6-8.8.8-13.5,3.2-2.4,1.6-4.8,4-7.2,5.6-.8.8-2.4,1.6-2.4,3.2-.8,1.6,0,2.4.8,4s0,7.2,3.2,5.6,3.2-4,3.2-6.4-1.6-2.4-1.6-4,1.6-.8,2.4-.8c.8.8.8,2.4,2.4,3.2s3.2,0,4.8-1.6c2.4-1.6,4-4.8,7.2-3.2,3.2,2.4,6.4-2.4,9.6-3.2,2.4-.8,5.6-.8,8-1.6,4-1.6,4-5.6,4.8-8.8.8-4,2.4-7.2,4-10.4.8-1.6,0-3.2-.8-4.8s-.8-4-3.2-4.8c-4-1.6-4.8,4-5.6,6.4-.8,3.2-1.6,6.4-4,9.6-.9,2.4-3.3,3.2-5.7,3.2h3.2-3.2c-1.6,0,8,0,0,0Z"/>
        <path class="cls-10" d="M956.4,634.2c-4.8-3.2-8,.8-10.4,4-3.2,4.8-7.2,7.2-12,10.4-3.2,2.4-8.8,6.4-5.6,10.4,1.6,1.6,2.4,3.2,4.8,3.2s4.8,0,6.4-1.6c2.4-2.4,4-5.6,6.4-8,1.6-2.4,4-4,6.4-6.4,2.4-3.2,8.7-9.6,4-12h0q.8,0,0,0c-2.4-1.5,3.1,1.6,0,0Z"/>
        <path class="cls-10" d="M323.5,18.9c6.4,4,15.9,7.2,23.9,4.8,1.6,0,14.4-6.4,8.8-8.8-7.2-3.2-15.9,0-23.9-1.6-2.4-.8-8.8-1.6-10.4.8-1.6,2.4,2.4,4.8,4,5.6l-2.4-.8c6.3,3.2-.8-.8,0,0Z"/>
        <path class="cls-10" d="M734,477.2c2.4-2.4,0-7.2,3.2-9.6.8,1.6,2.4,4,4,4.8,2.4.8,4-1.6,3.2-3.2-.8-5.6-.8-9.6,3.2-12.8-4-1.6-6.4,1.6-9.6.8-2.4-.8-2.4-4,0-5.6,5.6-3.2,13.5,1.6,17.5-5.6-4.8,2.4-9.6.8-13.5.8s-6.4,2.4-8,6.4c-1.6,3.2-4,8-3.2,12,.8,4.8,4,7.2,3.2,12,.8-.8,2.4-3.2,1.6-4,0-1.6-1.6,3.2-1.6,4,2.4-3.2,1.6-7.2,0,0Z"/>
        <path class="cls-10" d="M211.1,217.4c3.2,0,5.6-1.6,7.2-3.2,3.2-3.2,3.2-6.4,4-9.6s2.4-6.4-1.6-7.2c-2.4-.8-4.8.8-7.2,1.6s-4,2.4-5.6,4c-1.6,2.4,0,4,0,7.2s-4,6.4-.8,8c1.6.8,4,0,5.6,0h0c-.8-.8-1.6-.8-1.6-.8q-.8,0,0,0c4.8-.8-4,.7,0,0Z"/>
        <path class="cls-10" d="M971.5,618.3c-4,0-6.4-3.2-8.8-5.6s-2.4-2.4-3.2-4.8c-.8-1.6-1.6-3.2-3.2-4-1.6-.8-2.4.8-1.6,2.4s2.4,3.2,4,4.8c2.4,4.8,1.6,8,0,12-.8,1.6.8,3.2,1.6,4,1.6,1.6,1.6,3.2,2.4,5.6,0,1.6,1.6,2.4,3.2,1.6,1.6-.8,3.2-3.2,4-4.8s1.6-4,3.2-5.6c.8-1.6,3.2-2.4,3.2-4,.8-3.2-3.2-2.4-4.8-1.6-.8,0,.8-.8,0,0-4,0,.8-.8,0,0Z"/>
        <path class="cls-10" d="M744.3,380c-.8-4.8-6.4-6.4-8-.8-.8,4-3.2,10.4,0,14.4,3.2,3.2,8,2.4,10.4,5.6,3.2,3.2,4.8,8,7.2,12,.8-1.6,2.4-3.2,3.2-4.8.8-2.4-1.6-4-3.2-5.6-2.4-3.2-4.8-5.6-8.8-7.2-3.2-.8-5.6-3.2-4-6.4,1.6-3.2,3.2-4.8,3.2-7.2h0c-.8-2.4,0,2.4,0,0Z"/>
        <path class="cls-10" d="M808.9,61.9c4.8,3.2,13.5,1.6,17.5-1.6,2.4-1.6,3.2-1.6,4.8,0s5.6.8,4.8-2.4c0-2.4-4.8-3.2-7.2-3.2-4.8-.8-8.8.8-13.5,0-1.6,0-3.2-1.6-4.8-1.6-1.6.8-3.2,2.4-3.2,3.2-1.6,3.2,0,4.8,2.4,6.4l-.8-.8h0c3.2,2.4-1.6-.8,0,0Z"/>
        <path class="cls-10" d="M714.8,489.2c-3.2-2.4-5.6-5.6-8.8-7.2-4-.8-8.8-.8-12.8-1.6-4-.8-8-3.2-12.8-3.2s-4.8,2.4-3.2,4.8c2.4,3.2,8,3.2,11.2,4,4,.8,7.2,1.6,11.2,2.4,5.7.8,10.4.8,15.2.8,0,0-2.4-1.6-2.4-.8,0,0,2.4.8,2.4.8-2.4-2.4-4,0,0,0Z"/>
        <path class="cls-10" d="M825.6,253.2c0,4-1.6,7.2-4.8,9.6-2.4,2.4-4,4.8-1.6,8,1.6-.8,2.4-4,4.8-4,2.4-.8,4.8.8,7.2,0,5.6-.8,8.8-5.6,12-9.6-5.6,1.6-9.6,0-13.5-3.2-.8-.8-2.4-2.4-4-2.4s-.8,2.4-.8,3.2c.7-.8.7-1.6.7-1.6h0c0,3.2,0-2.4,0,0Z"/>
        <path class="cls-10" d="M754.7,415.8c-2.4.8-5.6.8-8,1.6-2.4.8-4,4-4.8,6.4,3.2-2.4,7.2-2.4,8.8,1.6,1.6,3.2,4,5.6,6.4,1.6,2.4-3.2,4.8-7.2,3.2-11.2-.8-.8-1.6-3.2-3.2-3.2-.8.8-1.6,3.2-2.4,3.2,0,.8,0,0,0,0h0c-2.4,1.6,1.6-.8,0,0Z"/>
        <path class="cls-10" d="M634.3,18.9c-1.6,0-4,2.4-2.4,4.8.8,1.6,3.2,1.6,4.8,2.4,3.2.8,7.2,3.2,10.4,1.6,2.4-.8,4.8-6.4,1.6-8-2.4-1.6-5.6-1.6-8-1.6s-4,0-6.4.8h0c.8,0,0,0,0,0Z"/>
        <path class="cls-10" d="M842.4,632.7c-1.6,1.6-4.8-2.4-5.6.8,0,1.6,0,4.8.8,6.4.8,4.8,5.6,7.2,9.6,4,2.4-1.6,5.6-9.6.8-11.2-1.6-.9-3.2,0-5.6,0s1.6,1.5,0,0h0c-.8.7,3.2.7,0,0Z"/>
        <path class="cls-10" d="M653.5,34.8c2.4.8,4.8,0,7.2,0s5.6-.8,8.8-1.6c1.6-.8,4.8-1.6,2.4-4-1.6-1.6-4.8-1.6-7.2-1.6s-3.2-3.2-4.8-2.4c-1.6.8-2.4,1.6-3.2,2.4-.9,1.6-6.4,6.4-3.2,7.2,1.5,1.6-4-1.6,0,0Z"/>
        <path class="cls-10" d="M832.8,230.9c3.2,0,0-8-.8-8.8-.8-2.4-1.6-5.6-1.6-8.8s0-4.8-2.4-4.8-2.4,7.2-1.6,8.8c.8,6.4.8,12.8,0,19.1,2.4-2.3,3.2-5.5,6.4-5.5h0c3.2,0-3.2-.8,0,0Z"/>
        <path class="cls-10" d="M624.8,20.5c4.8-2.4,9.6-4,14.3-6.4,4-2.4-1.6-6.4-4.8-6.4-4.8,0-7.2,4-8.8,8-.7.8-2.3,3.2-.7,4.8,0,.8,1.6-.8,2.4-.8-.8,0-1.6,0-2.4.8,4-2.4,0,0,0,0Z"/>
      </g>
      <g>
        <path class="cls-10" d="M1437.6,126.7h-1.6,1.6Z"/>
        <path class="cls-10" d="M1110.8,141c3.2,0,6.4,0,9.6-.8,1.6-.8,4.8-2.4,5.6-.8,3.2,5.6-3.2,8-7.2,8.8s-12.8,5.6-12.8,11.2,5.6,10.4,10.4,11.2c1.6.8,4.8-.8,6.4,1.6.8,1.6,0,4.8,1.6,4.8h7.2c1.6,0,3.2.8,4.8,0h3.2c2.4.8,1.6,4.8.8,6.4-1.6,2.4-4,4.8-6.4,6.4-2.4,1.6-4.8,3.2-8,4-2.4.8-4.8,1.6-5.6,4.8,4.8-.8,10.4-2.4,14.3-4.8,4.8-2.4,8.8-6.4,13.6-8.8,1.6-1.6,4-2.4,6.4-4s1.6-4,2.4-6.4c1.6-4.8,6.4-6.4,8.8-9.6.8,2.4-.8,4.8-.8,7.2.8,4.8,5.6,0,7.2-.8,4-1.6,6.4-1.6,8-6.4.8-3.2,5.6,0,6.4.8,7.2,4.8,16.7,2.4,24.7,4.8s12.8,10.4,21.5,9.6c-4,1.6-4,4-1.6,7.2s6.4,4,8.8,7.2c1.6,1.6.8,3.2,1.6,4.8.8,1.6,3.2,0,4,0,4.8-.8,6.4,2.4,8,5.6.8,4,4.8,4,7.2,6.4,3.2,3.2,3.2,6.4,3.2,11.2-.8,4,4.8,5.6,7.2,7.2,4,2.4,6.4,6.4,7.2,10.4,3.2,9.6-.8,19.1,0,28.7s4.8,18.3,10.4,26.3c1.6,2.4,3.2,5.6,5.6,7.2,1.6.8,2.4,1.6,4,1.6,1.6.8,4,1.6,5.6,3.2,2.4,2.4,4.8,5.6,6.4,8.8,2.4,4,4.8,7.2,7.2,11.2,1.6,2.4,2.4,4.8,3.2,8,.8,3.2,4,4,6.4,6.4s2.4,5.6,4.8,8,4.8,4,7.2,6.4c2.4-3.2-1.6-5.6-3.2-8-2.4-4-4.8-8-7.2-12.8-2.4-3.2-4.8-6.4-7.2-9.6-.8-.8-4-6.4-.8-7.2,3.2,0,4.8,2.4,5.6,5.6,1.6,4,4,6.4,7.2,9.6,7.2,6.4,13.6,14.4,19.9,21.5,2.4,2.4,4,5.6,4,9.6s.8,6.4,4,8.8c7.2,4.8,15.9,8,24.7,11.2,4.8,1.6,8,1.6,12.8,1.6s7.2,1.6,10.4,4.8c2.4,2.4,5.6,4.8,8.8,5.6,4,1.6,8,1.6,11.2,4,4,1.6,5.6,4.8,8,8.8s5.6,6.4,9.6,8.8c1.6.8,4,2.4,6.4,3.2,1.6.8,3.2,2.4,4.8,2.4,2.4,0,3.2-8.8,7.2-5.6,1.6.8,1.6,2.4,2.4,4s1.6,3.2,2.4,4.8c2.4,4,2.4,8.8.8,12.8-.8,2.4-4.8,4.8-4.8,8s7.2,4.8,9.6,6.4c3.2,1.6,4.8,4,2.4,7.2s-6.4,4-8.8,6.4c-2.4,1.6-4,7.2-7.2,4.8-2.4-1.6-4.8-4-5.6,0-1.6,7.2,5.6,11.2,8.8,17.5,4,8,7.2,15.9,12,23.1,3.2,4.8,8,8.8,13.6,11.2,4.8,2.4,8.8,4.8,10.4,10.4,3.2,9.6-.8,19.1-2.4,28.7-.8,6.4-1.6,13.5-1.6,20.7-.8,7.2-2.4,14.3-4.8,20.7-1.6,6.4-4,12.8-4,19.9s0,7.2-.8,10.4-1.6,6.4-2.4,10.4c3.2,0,3.2-4.8,6.4-4.8-2.4,4,0,9.6-2.4,12.8-1.6,2.4-8.8,4-8,8.8,0,3.2,6.4,4,3.2,7.2-1.6,1.6-2.4,2.4-2.4,4.8s.8,4.8,1.6,7.2c1.6,4.8,4,9.6,4.8,15.1,0,2.4,0,4.8.8,6.4.8,1.6,3.2,2.4,4.8,3.2,4,2.4,8,5.6,12.8,5.6s10.4-.8,14.3-4c-3.2-1.6-7.2-4-9.6-7.2s-4-8-4-12,4-8,6.4-11.2c1.6-2.4,5.6-4.8,6.4-7.2,1.6-4.8-12-7.2-4-12,3.2-1.6,4.8-5.6,7.2-8.8.8-1.6,2.4-3.2,4-4.8s2.4-2.4,0-3.2c-1.6-.8-2.4-.8-2.4-2.4s0-3.2.8-3.2c1.6-.8,4,.8,5.6,0,1.6,0,3.2-1.6,3.2-3.2.8-3.2,1.6-5.6,4.8-6.4,3.2-.8,6.4-.8,9.6-1.6,2.4-.8,5.6-2.4,7.2-4.8.8-1.6.8-3.2.8-4.8,0-2.4-1.6-4.8-1.6-7.2s1.6-1.6,2.4-.8c2.4.8,4.8.8,6.4.8,4-.8,6.4-3.2,8.8-5.6s3.2-6.4,5.6-8.8c2.4-3.2,6.4-5.6,8.8-9.6,2.4-3.2,4-7.2,4.8-11.2,0-4.8,1.6-8,5.6-10.4,3.2-2.4,6.4-4.8,10.4-5.6,4-1.6,8.8-1.6,12-3.2,4-1.6,5.6-5.6,7.2-8.8,2.4-4,4-8,4.8-12s.8-8,1.6-12c.8-4,2.4-8,4.8-11.2s5.6-5.6,8-8.8c3.2-3.2,4.8-8,4-12.8,0-4-1.6-6.4-5.6-8-1.6-.8-4-.8-5.6-2.4-2.4-.8-4-3.2-5.6-4-7.2-4.8-15.9-2.4-23.1-6.4-3.2-1.6-5.6-4.8-9.6-5.6s-8,.8-12-2.4c-2.4-2.4-2.4-6.4-3.2-9.6-1.6-4-3.2-8.8-7.2-12-6.4-5.6-15.1-5.6-22.3-8.8-2.4-.8-4-1.6-6.4-3.2-1.6-.8-3.2-2.4-4.8-3.2-1.6-.8-3.2-.8-4-1.6-.8-1.6-1.6-3.2-2.4-4.8-2.4-4-7.2-2.4-11.2-1.6-4.8.8-9.6.8-14.3-.8-3.2-.8-6.4-5.6-9.6-4.8-1.6,0-6.4,4.8-7.2,3.2-.8-.8.8-4-.8-4.8-.8-.8-3.2.8-4,.8-2.4.8-4.8,1.6-6.4,2.4-3.2,1.6-5.6,3.2-7.2,6.4-1.6,3.2-4,5.6-7.2,3.2s-4.8-4.8-8.8-3.2-6.4,2.4-10.4,0c-8-5.6-3.2-12.8-4-19.9,0-3.2-2.4-6.4-5.6-7.2-3.2-.8-6.4.8-9.6.8-10.4,0-2.4-12.8-.8-17.5.8-3.2,1.6-7.2-3.2-7.2s-8,.8-9.6,4.8c-1.6,3.2-2.4,6.4-5.6,8s-8,.8-11.2,0c-8-2.4-12.8-10.4-12.8-18.3v-13.5c0-4.7.8-8,4.8-10.4,4.8-4,11.2-8,17.5-5.6,2.4.8,5.6,2.4,8.8,1.6,2.4-.8,3.2-4,6.4-4.8,3.2-.8,7.2,0,10.4.8,1.6,0,3.2.8,4,1.6h4.8c2.4.8,4,4,4,7.2.8,4,2.4,7.2,4,10.4,1.6,2.4,4,4.8,5.6,1.6,1.6-2.4.8-6.4,0-9.6-2.4-7.2-6.4-14.4-.8-19.9,4.8-4.8,11.2-7.2,15.9-12,2.4-2.4,4-5.6,3.2-8.8-.8-2.4-4-4.8-1.6-7.2,2.4,2.4,4,.8,5.6-1.6,1.6-3.2,3.2-6.4,6.4-8,4-3.2,10.4-4,12-9.6s3.2-8,8.8-10.4c4-1.6,9.6-3.2,12.8-6.4,0,2.4-4,8,0,8.8,1.6,0,4-1.6,5.6-2.4,2.4-1.6,5.6-1.6,8-3.2,3.2-.8,9.6-4,9.6-8s-6.4,1.6-7.2,2.4c-4,1.6-9.6-.8-11.2-5.6-.8-3.2,1.6-8.8-.8-11.2-3.2-4-11.2,1.6-15.1.8,6.4-5.6,13.6-8,22.3-7.2,4.8,0,9.6.8,14.3-1.6,3.2-.8,6.4-6.4,9.6-4.8,5.6,2.4-10.4,15.1-6.4,19.1,2.4,1.6,7.2.8,10.4.8s6.4,2.4,9.6,3.2c1.6,0,5.6,1.6,5.6-.8s-.8-3.2-1.6-4.8c-.8-2.4-1.6-4-3.2-5.6-2.4-1.6-7.2-1.6-8-4.8-1.6-3.2.8-8,.8-11.2-.8-8.8-6.4-14.4-14.3-16.7-2.4-.8-6.4-2.4-8-4.8-2.4-3.2-1.6-8-4-12s-4.8-7.2-7.2-11.2c-.8-.8-1.6-3.2-3.2-2.4-1.6,0-3.2,3.2-4,4.8-1.6,3.2-4,5.6-7.2,6.4-3.2,0-5.6-1.6-7.2-4s-1.6-5.6-2.4-8c-.8-3.2-4.8-4-7.2-5.6-4-1.6-7.2-4-11.2-5.6s-10.4-2.4-14.3-.8c-3.2,1.6-1.6,4.8-.8,8,.8,1.6.8,4,.8,5.6,0,2.4-1.6,4-1.6,6.4-.8,4,1.6,7.2,4,10.4s3.2,7.2.8,9.6c-2.4,2.4-5.6,4-7.2,6.4-2.4,4-1.6,7.2-.8,11.2.8,3.2,0,6.4-3.2,8s-5.6-2.4-7.2-4.8c-1.6-1.6-2.4-4-3.2-6.4s0-4,0-6.4c-.8-5.6-8-4-12-4.8-4.8-1.6-8.8-4.8-12.8-7.2s-8.8-2.4-13.6-4.8-4-1.6-4.8-3.2c-1.6-1.6-1.6-4-3.2-4.8-4.8-2.4-5.6-5.6-4-10.4,1.6-4,4-8.8,8-12,1.6-1.6,4-2.4,5.6-4,2.4-1.6,0-4-1.6-4.8,4-.8,8-1.6,12-3.2,1.6-.8,4-1.6,4.8-3.2,1.6-1.6,2.4-3.2,3.2-5.6.8-.8,4-2.4,3.2-2.4v-3.2c0-.8,6.4,0,8,0,3.2,0,7.2-.8,8.8-4,1.6-3.2-.8-7.2,0-10.4,0-1.6,2.4-2.4,1.6-4.8-.8-1.6-2.4-2.4-3.2-3.2-3.2-3.2,5.6-4,7.2-4s4,.8,4.8,0c1.6-.8,2.4-3.2,4.8-2.4,1.6.8,2.4,2.4,4,4,1.6.8,3.2,1.6,3.2,4s-.8,3.2.8,3.2c2.4,0,4,0,5.6.8,3.2,1.6,7.2,4.8,8.8,7.2,1.6,3.2-.8,5.6-3.2,7.2-.8.8-1.6,1.6-2.4,3.2-.8,1.6,0,3.2-.8,4.8-3.2,3.2-15.1-2.4-15.1,5.6s8.8,2.4,11.2,2.4c2.4-.8,6.4-1.6,8.8,0,1.6.8,2.4,2.4,3.2,4s2.4,2.4,4,4c3.2,2.4,7.2,3.2,10.4,4.8,2.4.8,6.4,4.8,9.6,3.2,3.2-2.4-4.8-7.2-4.8-9.6,3.2,1.6,7.2,4,10.4,2.4,3.2-1.6,1.6-4.8,0-7.2-1.6-3.2-4.8-4.8-8-6.4-2.4-1.6-4.8-5.6-1.6-7.2,3.2-1.6,6.4,1.6,8,3.2,3.2,3.2,6.4,4.8,9.6,1.6,1.6-1.6,4-3.2,4.8-4.8,2.4-2.4,2.4-4,0-5.6-4-1.6-7.2-4-10.4-6.4-4-2.4-7.2-3.2-11.2-4-.8,0-2.4-.8-2.4-2.4.8-1.6,2.4-1.6,2.4-3.2s-1.6-3.2-1.6-4c-1.6-1.6-3.2-3.2-4.8-4.8-3.2-2.4-6.4-5.6-10.4-7.2-3.2-1.6-7.2-1.6-11.2-3.2-3.2-2.4-6.4-5.6-10.4-6.4-4.8-1.6-8,.8-12,2.4-2.4.8-5.6,0-6.4-3.2-.8-2.4-.8-4.8-2.4-6.4-2.4-2.4-6.4-1.6-9.6-.8-4,.8-6.4.8-9.6-1.6-4.8-3.2-12.8,4-15.1,8-2.4,5.6.8,10.4,6.4,12-.8,1.6-4.8.8-4,3.2.8,3.2,4.8,3.2,7.2,3.2s5.6,0,7.2,2.4c2.4,2.4.8,8-.8,10.4-.8,1.6-2.4,2.4-3.2,4-1.6,1.6-.8,2.4-.8,4-.8,1.6-3.2.8-4,0-1.6-1.6-1.6-4-1.6-5.6,0-2.4,0-5.6-3.2-5.6s-6.4.8-6.4,1.6c0-1.6-.8-3.2-2.4-4.8-2.4-1.6-2.4-2.4-3.2-4.8-.8-5.6-7.2-8-8.8-12.8-1.6-4.8,6.4-6.4,8.8-8,1.6-1.6,5.6-6.4,3.2-8-.8-.8-3.2-.8-4.8-.8-2.4,0-4-.8-6.4-.8-4.8,0-8.8,2.4-8.8,7.2s3.2,8.8,0,12.8c-4,4-4,9.6-2.4,15.1-2.4.8-4-.8-5.6-.8s-3.2,1.6-4,3.2c-2.4,3.2,4,7.2-.8,9.6-4,2.4-10.4,1.6-14.3.8-4.8-.8-9.6-2.4-12.8-6.4,4,0,9.6.8,13.6-.8,1.6-.8,0-3.2,0-4,0-1.6,2.4-2.4,3.2-3.2,1.6-1.6-2.4-3.2-3.2-4-2.4-1.6-4.8-2.4-7.2-4-2.4-2.4-4-5.6-4.8-8.8,0-3.2,1.6-7.2.8-9.6-1.6-4-9.6-.8-11.2,1.6-.8,1.6-1.6,3.2-1.6,5.6s.8,3.2.8,4.8c-.8,4-4.8-4.8-4.8-5.6-2.4-3.2-4.8-.8-7.2,0-1.6.8-2.4,0-4-.8-2.4-1.6-4-1.6-6.4-1.6-4-.8-7.2-3.2-10.4-5.6-3.2-3.2-6.4-4-11.2-4-8,0-14.3-4-22.3-1.6-2.4.8-3.2,1.6-2.4,4,.8,2.4,0,4.8-1.6,7.2-2.4,4.8-3.2,8,1.6,10.4,1.6.8,4,4,6.4,4s5.6-1.6,7.2-2.4c4-2.4,5.6-8,11.2-9.6-1.6,4.8-1.6,12,3.2,14.3,6.4,3.2,14.3,0,20.7,4-1.6,0-22.3,0-18.3,4.8,2.4,3.2,7.2,2.4,10.4,3.2,3.2,1.6,6.4,4.8,10.4,4.8s10.4-1.6,14.3-3.2c1.6-.8,4.8-3.2,6.4-2.4,1.6.8.8,2.4,0,2.4-2.4.8-7.2.8-6.4,4.8,0,2.4,4.8,6.4,1.6,8.8-2.4-3.2-5.6-5.6-8.8-5.6-4-.8-8,.8-12,1.6-1.6,0-4.8.8-6.4-.8-2.4-1.6.8-4.8,0-7.2-1.6-3.2-8.8-1.6-12-2.4-4.8-.8-9.6-3.2-14.3-4-2.4-.8-4-.8-6.4-.8s-4,.8-6.4.8c-1.6-.8-3.2-1.6-5.6-.8-1.6,0-3.2,1.6-4,0-1.6-1.6-3.2-6.4-6.4-4.8-1.6.8-1.6,2.4-3.2,3.2-1.6.8-3.2-.8-4.8-.8-8.8-1.6-15.9,4.8-23.9,6.4-4.8.8-8.8.8-12.8-1.6-4.8-1.6-8.8-4-13.6-4-4.8-.8-9.6,0-13.6-.8-4.8-.8-10.4-2.4-15.2-3.2-3.2-.8-7.2,0-10.4,0s-3.2-1.6-4.8-1.6c-1.6-.8-4-1.6-6.4-2.4-8-1.6-15.2,0-23.1,3.2-3.2.8-7.2,1.6-9.6,3.2s-4,4.8-6.4,7.2-5.6,2.4-8.8,4c-3.2,2.4,1.6,4,3.2,4.8,1.6,1.6,3.2,3.2,5.6,4.8.8.8,1.6,1.6,3.2,1.6,1.6.8,3.2,0,4,.8,1.6.8,1.6,3.2,0,4-1.6,2.4-6.4,0-8-.8-2.4-1.6-15.2,1.6-14.3,5.6,0,1.6,3.2,4.8,4.8,5.6,1.6,1.6,4,2.4,6.4,2.4h-2.4c-1.9-8.1-1.2-8.1-.3-8.1,3.1-.8-5.6,0,0,0ZM1415.2,239.8c5.6-2.4,10.4-8.8,16.7-6.4,2.4.8,12.8,7.2,7.2,10.4-.8.8-2.4.8-3.2.8-1.6,0-3.2.8-4,.8-3.2-.8-5.6-4-8.8-2.4-2.4.8-5.6,2.4-8,.8-3.2-1.6.8-3.2,2.4-4-.7-.8-1.5-.8-2.3,0,4-1.6-.8,0,0,0Z"/>
        <path class="cls-10" d="M1536.4,6.3c-5.6-1.6-10.4,1.6-15.1,4-1.6.8-8.8,4-5.6,7.2,2.4,1.6,7.2-.8,7.2,3.2s-4.8,4.8-8,4.8c-5.6.8-10.4,3.2-15.9,4.8-2.4.8-5.6.8-7.2,3.2-2.4,4,7.2,5.6,9.6,5.6,3.2.8,5.6,1.6,8.8.8,2.4,0,5.6-1.6,6.4,1.6-5.6.8-12,0-17.5,2.4.8,1.6,3.2,1.6,4,2.4,1.6.8,2.4,3.2,4,4,3.2,3.2,8.8,2.4,12.8,1.6,10.4-1.6,20.7-1.6,29.5,4.8,7.2,5.6,13.6,14.3,14.3,23.1,0,4-1.6,8,4,8.8,4,.8,7.2,2.4,10.4,5.6-3.2,0-7.2-.8-9.6,2.4-2.4,2.4-3.2,7.2.8,8,2.4.8,6.4,2.4,7.2-.8,0-.8,0-3.2,1.6-3.2s3.2,1.6,3.2,3.2c.8,4-.8,5.6-4.8,7.2s-5.6,4.8-6.4,8.8.8,7.2,3.2,11.2c2.4,4,3.2,8,5.6,12s4.8,8,7.2,12c2.4,3.2,4,6.4,8,8,3.2,1.6,6.4,2.4,9.6,3.2,3.2,1.6,7.2,4,10.4,0,2.4-2.4,3.2-6.4,3.2-9.6,0-4.8,4-7.2,5.6-11.2,3.2-6.4,4-13.6,12-15.1,5.6-1.6,11.2,0,15.9-4.8,2.4-2.4,3.2-4.8,5.6-7.2s5.6-4,8.8-4.8c5.6-1.6,12-1.6,18.3-4s12-6.4,17.5-9.6c-3.2-.8-6.4-1.6-9.6-1.6s-5.6,0-4.8-3.2c0-1.6,2.4-5.6,4-4s2.4,3.2,4.8,4.8c4,1.6,8.8-1.6,6.4-6.4-1.6-3.2-6.4-4-7.2-8,1.6,0,5.6.8,6.4-1.6,1.6-3.2-2.4-4-4.8-4s-2.4.8-4,.8c-2.4,0-1.6-2.4,0-3.2,3.2-2.4,8,1.6,11.2.8.8,0,4-.8,4-2.4s-1.6-2.4-2.4-3.2c-1.6-2.4,2.4-2.4,4-2.4s4.8-.8,2.4-2.4c-1.6-.8-4.8-1.6-4.8-3.2s3.2-2.4,4.8-2.4c3.2-.8,2.4-4.8,0-7.2-1.6-1.6-4.8-.8-6.4-2.4-3.2-1.6.8-4,3.2-4.8,2.4,0,5.6.8,8,0,4.8-.8-2.4-4.8-3.2-5.6-.8-.8-.8-2.4-1.6-3.2,0-.8-3.2-1.6-4-.8-4,1.6-3.2-2.4-1.6-4.8,4-7.2,11.2-10.4,15.9-15.9,3.2-4,6.4-6.4,11.2-8,2.4-.8,8-1.6,9.6-4,.8-2.4-3.2-3.2-4.8-4-4.8-.8-8.8-.8-12.8,0C1720.1-1.6,1716.1,0,1711.3.8c-2.4,0-4.8,0-6.4,1.6-1.6.8-3.2,2.4-4.8,2.4.8-2.4,4-5.6,2.4-8-1.6-3.2-5.6-.8-7.2,0-.8.8-2.4,1.6-3.2,1.6-1.6.8-3.2-1.6-4-2.4-3.2-1.6-8,0-11.2-1.6,7.2,0,13.6-.8,19.9-2.4,2.4-.8,12-2.4,6.4-4.8-1.6-.8-4-1.6-6.4-1.6-3.2-.8-7.2-2.4-10.4-3.2-6.4-2.4-13.6-3.2-20.7-3.2s-13.6,0-20.7.8c-3.2,0-5.6.8-8,2.4-3.2,1.6-6.4.8-9.6,0-9.6-.8-27.1-1.6-27.9,11.2-4,0-7.2-4-11.2-4-4-.8-4,.8-3.2,4,1.6,4-5.6.8-6.4,0-4-1.6-5.6,3.2-5.6,6.4-.8-5.6-3.2-8.8-8.8-8-5.6.8-11.2,3.2-16.7,4.8-1.6,0-4.8,0-5.6.8-.8.8-.8,2.4-1.6,4-.8,3.2-3.2,3.2-5.6,2.4-.8,2.3.8,2.3,1.6,2.3h0c-5.6-.8,1.6.8,0,0Z"/>
        <path class="cls-10" d="M1449.5,49.3c2.4-.8,4.8.8,7.2,1.6,3.2.8,7.2-.8,10.4-2.4,2.4-.8,2.4-3.2,0-4-3.2-.8-7.2-1.6-11.2-2.4,3.2-.8,7.2,0,9.6-1.6,1.6-.8,3.2-2.4,4.8-3.2,1.6-.8,4-.8,5.6-1.6,3.2-.8,6.4-4,7.2-7.2,0-3.2-3.2-3.2-4.8-4.8,4.8-1.6,9.6-3.2,14.3-4.8s8.8-4,13.6-6.4c4-2.4,8.8-4,13.6-5.6.8,0,4.8-1.6,4-3.2s-3.2,0-4-2.4c5.6,0,12-1.6,16.7-4.8,4.7-3.2-3.2-4.8-5.6-5.6-13.6-4-28.7-5.6-43-4-7.2.8-14.3.8-21.5,1.6-3.2,0-7.2.8-9.6,2.4s-5.6,4-8.8,3.2c-3.2-.8-4.8-1.6-8-.8-2.4.8-5.6,2.4-8,3.2-3.2,1.6-6.4.8-9.6.8-3.2.8-6.4,1.6-8.8,4,3.2,0,6.4,1.6,8,4.8,1.6,3.2,4.8,3.2,8,3.2,8,0,7.2,5.6,5.6,11.2-1.6-2.4-2.4-4.8-4.8-6.4-3.2-1.6-6.4-2.4-8.8-4-3.2-1.6-5.6-3.2-8.8-4.8-2.4-1.6-5.6-3.2-8-.8-1.6,1.6-3.2,3.2-4.8,5.6-2.4,2.4-1.6,5.6-1.6,8s.8,4.8,4,5.6c2.4,0,5.6-1.6,8,.8-3.2.8-4,3.2-1.6,5.6,3.2,3.2,7.2,4.8,12,4,4.8,0,8.8-3.2,13.6-.8,3.2,1.6,7.2,4,8.8,8-2.4,0-3.2-1.6-5.6-3.2-1.6-.8-4.8-1.6-6.4-.8-.8.8,0,3.2-.8,4.8s-3.2,1.6-4.8,2.4c-.8.8-3.2,3.2-1.6,4,.8.8,2.4,0,3.2,0h4.8c4.8,1.6,11.1,2.4,17.5.8,3.2,0-6.4,1.6,0,0Z"/>
        <path class="cls-10" d="M1422.4,49.3s0,.8,0,0h0Z"/>
        <path class="cls-10" d="M1422.4,49.3s0,.8,0,0h0Z"/>
        <path class="cls-10" d="M1403.3,50.9c2.4,0,4.8.8,6.4,3.2s1.6,4.8,2.4,7.2c3.2,5.6,11.2,4,16.7,4,4,.8,8,.8,12,.8s8-.8,12-1.6c2.4,0,6.4,1.6,8.8-.8,2.4-2.4,2.4-6.4-.8-7.2-8-2.4-16.7,0-24.7,0s-16.7,0-12.8-7.2c-4.8-1.6-9.6-1.6-15.1-2.4-3.2-.8-6.4-2.4-9.6-1.6-2.4,0-5.6.8-2.4,3.2,2.4,2.4,6.4,2.4,9.6,2.4-1.7,0-2.5,0-2.5,0q-.8,0,0,0c4,0-3.2,0,0,0Z"/>
        <path class="cls-10" d="M1734.1,132.2c-4.8-4.8-14.3-4.8-20.7-3.2-2.4.8-6.4,4.8-8,2.4-2.4-2.4-3.2-4.8-7.2-4-1.6,0-5.6,3.2-3.2,5.6.8.8,4.8,1.6,4,2.4-.8,2.4-1.6,3.2.8,4.8,1.6.8,3.2,2.4,2.4,4.8,4,.8,10.4,4,15.1,2.4,4-1.6,8-2.4,11.2-4,2.4-.8,6.4-3.2,7.2-5.6.8-3.2-1.6-4-3.2-5.6.8-.8,2.4,0,1.6,0,.8,0,.8.8,0,0q.8,0,0,0c-4-4,3.2,2.4,0,0Z"/>
        <path class="cls-10" d="M1311.6,54.9c-.8,1.6-2.4,2.4-1.6,4.8.8,1.6,2.4,2.4,4,2.4,2.4.8,4-.8,6.4-.8,2.4-.8,5.6,0,8,0-.8,1.6-7.2,2.4-5.6,4.8,3.2,3.2,8.8,0,12-1.6,5.6-2.4,11.2-2.4,17.5-3.2,2.4-.8,4-2.4,4-4.8s-3.2-2.4-5.6-2.4c-4,0-4.8-4.8-7.2-6.4-1.6-.8-4,0-4.8,1.6-.8.8,0,2.4,0,3.2s.8,3.2.8,4c-.8,1.6-5.6-.8-6.4-1.6-2.4-1.6-4.8-3.2-8-4-2.4-.8-6.4-2.4-8.8-1.6-2.3,1.6-3.9,4-4.7,5.6l.8-.8q-.8,0-.8.8c-.8.8,1.6-3.2,0,0Z"/>
        <path class="cls-10" d="M1384.9,69.3c-2.4.8-4.8,1.6-7.2,1.6s-4,0-4,2.4,4,2.4,3.2,4c-1.6,3.2-4.8-.8-7.2,0-4,1.6,4,6.4,5.6,7.2,4,3.2,8.8,6.4,13.6,3.2,2.4-1.6,7.2-7.2,4-10.4-.8-.8-5.6,0-4-2.4s2.4-3.2.8-5.6c-1.6-1.6-3.2-1.6-4.8-.8v.8q.9,0,0,0c-1.6.8,2.4-.8,0,0Z"/>
        <path class="cls-10" d="M1375.4,49.3c-2.4,3.2-5.6,4-8,.8-1.6-1.6-4.8-4-5.6,0-.8,3.2,3.2,4.8,5.6,5.6,3.2,1.6,6.4,0,8.8,1.6s2.4,5.6,5.6,4.8c3.2,0,6.4-1.6,7.2-4.8v-5.6c-.8-2.4-1.6-3.2-4-4-4,0-7.2-1.6-9.6,1.6,0-.8.8-.8,1.6-1.6q-.8.8-1.6,1.6c-1.6,1.6,4-4.8,0,0Z"/>
        <path class="cls-10" d="M1436.8,130.6c-.8,3.2-.8,7.2-2.4,10.4-.8.8-1.6,1.6-1.6,3.2s3.2,2.4,4,3.2c3.2,1.6,6.4,0,9.6-1.6,4-1.6,6.4,1.6,10.4,0,4.8-1.6-8-9.6-9.6-10.4-2.4-.8-4-2.4-6.4-3.2-.8-.8-2.4-.8-3.2-1.6-.8,0-.8.8-.8,1.6-.8-.8-.8-1.6,0-1.6-.8,3.2,0,0,0,0Z"/>
        <path class="cls-10" d="M1287.7,54.1c3.2,0,6.4.8,9.6,0,1.6-.8,3.2-1.6,4-2.4,1.6-1.6,1.6-2.4,4-2.4,3.2.8,6.4.8,8-3.2.8-2.4.8-4.8-1.6-4.8-4-.8-8.8,1.6-12,3.2-4,2.4-8,4-12,6.4-.8.8-1.6,1.6-1.6,3.2.8,1.6,2.4.8,3.2.8,0-.8-.8-.8-1.6-.8,6.4,0,0,0,0,0Z"/>
        <path class="cls-10" d="M1458.3,355.4c-5.6-1.6-11.2,0-15.9,4,3.2.8,4.8-2.4,8-1.6,3.2,0,6.4,2.4,8.8,3.2,3.2.8,6.4,2.4,9.6,4.8,2.4,2.4,5.6,4,8.8,4s6.4-.8,5.6-3.2-6.4-4-8.8-4.8c-5.6-2.4-11.2-4.8-17.5-6.4,1.6.8,2.4.8,4,1.6-1-.8-1.8-.8-2.6-1.6-5.6-1.6,7.9,3.2,0,0Z"/>
        <path class="cls-10" d="M1359.4,28.6c4.8.8,1.6,3.2,0,4.8,5.6,0,11.2,0,16.7,3.2,1.6.8,4.8,1.6,5.6-1.6.8-3.2-3.2-4.8-4.8-5.6-4.8-3.2-9.6-5.6-15.1-5.6s-5.6.8-4,3.2c.8,1.6,3.2,1.6,4.8,1.6-1.6,0-3.2,0-3.2,0,5.6,0-.8-.8,0,0Z"/>
        <path class="cls-10" d="M1486.2,376.1c5.6,2.4,11.2.8,16.7,0,1.6,0,4,0,4.8-.8,1.6-1.6-.8-3.2-2.4-4-2.4-.8-5.6-1.6-8-1.6s-3.2-.8-4.8-.8c-2.4,0-2.4,1.6-1.6,4,.1,1.6-3.9,1.6-4.7,3.2,5.6,2.4,1.6-1.6,0,0,5.6,2.4,1.6-1.6,0,0Z"/>
        <path class="cls-10" d="M1334.7,34.2c-1.6,2.4-8,1.6-8.8,4.8-.8,4.8,8,4,9.6,1.6,2.4-2.4,6.4-8,2.4-10.4s-10.4,0-13.6,2.4c4,2.4,7.2.8,10.4,1.6-1.6,2.4-3.2-.8,0,0-1.6,2.4-3.2-.8,0,0Z"/>
      </g>
    </g>
  </g>
  <g>
    <path class="cls-2" d="M377,563.1v12.6h-1.3v-10.1l-5,8.5h-.6l-5-8.4v10h-1.1v-12.6h1.1l5.5,9.3,5.4-9.3h1Z"/>
    <path class="cls-2" d="M380.2,570.3h4.7v1.1h-4.7v-1.1Z"/>
    <path class="cls-2" d="M389.9,564.3h-4.4v-1.2h10.2v1.2h-4.4v11.5h-1.3v-11.5h-.1Z"/>
    <path class="cls-2" d="M406.7,574.6v1.2h-8.9v-12.6h8.6v1.2h-7.3v4.5h6.5v1.1h-6.5v4.7h7.6,0Z"/>
    <path class="cls-2" d="M408.6,569.4c0-3.7,2.8-6.4,6.6-6.4s3.5.6,4.6,1.8l-.8.8c-1-1-2.3-1.5-3.7-1.5-3,0-5.3,2.2-5.3,5.2s2.3,5.2,5.3,5.2,2.7-.5,3.7-1.5l.8.8c-1.1,1.2-2.8,1.9-4.6,1.9-3.8,0-6.6-2.6-6.6-6.3Z"/>
  </g>
  <g class="cls-14">
    <path class="cls-2" d="M692.3,405.9c-.5.5-1.3.7-2,.7-1.8,0-2.8-1-2.8-2.8v-5.7h-1.7v-1.1h1.7v-2h1.3v2.1h2.9v1.1h-2.9v5.7c0,1.1.6,1.7,1.6,1.7s1-.2,1.4-.5l.5.8Z"/>
    <path class="cls-2" d="M701.7,400.6v5.9h-1.2v-1.5c-.6,1-1.7,1.6-3.3,1.6s-3.5-1.1-3.5-2.8.9-2.7,3.7-2.7h3v-.6c0-1.6-.9-2.5-2.7-2.5s-2.4.4-3.2,1.1l-.6-1c1-.8,2.4-1.3,3.9-1.3,2.5.2,3.9,1.4,3.9,3.8ZM700.5,403.7v-1.5h-3c-1.8,0-2.4.7-2.4,1.7s.9,1.8,2.4,1.8c1.4-.1,2.4-.8,3-2Z"/>
    <path class="cls-2" d="M704.9,394c0-.5.4-.9.9-.9s.9.4.9.9-.4.9-.9.9c-.5.1-.9-.4-.9-.9ZM705.2,397h1.3v9.5h-1.3v-9.5Z"/>
    <path class="cls-2" d="M718.8,401v5.5h-1.3v-5.4c0-2-1-3-2.8-3s-3.3,1.3-3.3,3.4v5h-1.4v-13.4h1.3v5.5c.7-1.1,1.9-1.7,3.5-1.7,2.4.1,4,1.4,4,4.1Z"/>
    <path class="cls-2" d="M729.4,400.6v5.9h-1.2v-1.5c-.6,1-1.7,1.6-3.3,1.6s-3.5-1.1-3.5-2.8.9-2.7,3.7-2.7h3v-.6c0-1.6-.9-2.5-2.7-2.5s-2.4.4-3.2,1.1l-.6-1c1-.8,2.4-1.3,3.9-1.3,2.5.2,3.9,1.4,3.9,3.8ZM728.1,403.7v-1.5h-3c-1.8,0-2.4.7-2.4,1.7s.9,1.8,2.4,1.8c1.4-.1,2.5-.8,3-2Z"/>
    <path class="cls-2" d="M741.6,401v5.5h-1.3v-5.4c0-2-1-3-2.8-3s-3.3,1.3-3.3,3.4v5h-1.3v-9.5h1.2v1.7c.7-1.2,2-1.8,3.6-1.8,2.3,0,3.9,1.4,3.9,4.1Z"/>
    <path class="cls-2" d="M760.5,393.9l-5.6,12.6h-1.3l-5.6-12.6h1.4l4.8,10.9,4.9-10.9h1.4Z"/>
    <path class="cls-2" d="M762.3,393.9h1.3v12.6h-1.3v-12.6Z"/>
    <path class="cls-2" d="M778.3,393.9v12.6h-1.1l-8.1-10.2v10.2h-1.3v-12.6h1.1l8.1,10.2v-10.2h1.3Z"/>
    <path class="cls-2" d="M790.3,403.1h-7l-1.5,3.4h-1.4l5.8-12.6h1.3l5.8,12.6h-1.4l-1.6-3.4ZM789.8,402.1l-3-6.8-3,6.8h6Z"/>
  </g>
  <g>
    <path class="cls-2" d="M699.6,481.8c-2.4,0-4.2-1.7-4.2-4s1.8-4,4.2-4,4.2,1.6,4.2,4-1.8,4-4.2,4ZM699.6,480.6c1.6,0,2.8-1.1,2.8-2.7s-1.2-2.7-2.8-2.7-2.8,1.1-2.8,2.7,1.2,2.7,2.8,2.7ZM697.9,488.5v-5.2h1.5v4h9.4v1.2h-10.9ZM706.8,472.8h1.5v11.8h-1.5v-11.8Z"/>
    <path class="cls-2" d="M711.5,486.9v-1.2h6.6v-4.1h-4.7v-7.6h10.9v1.2h-9.5v5.1h9.6v1.2h-4.9v4.1h6.6v1.2h-14.6Z"/>
    <path class="cls-2" d="M735.6,483l.2,1.2c-2.1.4-3.9.5-5.9.5h-1v-10.3h1.5v9.1c1.7,0,3.3-.1,5.2-.5ZM738.4,488.1h-1.4v-8.7h-3.6v-1.2h3.6v-5h1.4v14.9ZM740.4,488.9v-16.2h1.4v16.2h-1.4Z"/>
    <path class="cls-2" d="M754.7,484.1l-.9,1.2c-1.9-.9-3.4-2.8-4.2-5.1-.7,2.5-2.3,4.4-4.2,5.4l-.9-1.2c2.4-1.2,4.3-4.2,4.3-7.3v-2.9h1.5v2.9c.1,2.9,2.1,5.9,4.4,7ZM756.4,488.9v-16.2h1.5v16.2h-1.5Z"/>
    <path class="cls-2" d="M769.6,479.6c0,3.4-1.7,5.6-4.1,5.6s-4.1-2.2-4.1-5.6,1.7-5.6,4.1-5.6,4.1,2.2,4.1,5.6ZM768.2,479.6c0-2.6-1.1-4.3-2.6-4.3s-2.7,1.7-2.7,4.3,1.1,4.3,2.7,4.3c1.5.1,2.6-1.6,2.6-4.3ZM773.7,488.9h-1.5v-16.1h1.5v6.4h2.7v1.2h-2.7v8.5Z"/>
  </g>
  <g>
    <path class="cls-2" d="M675,439.3c-.7,1.9-2.1,3.5-4.1,4.2l-.8-1.2c2.4-.9,4.1-3.2,4.1-5.6v-1.6h1.5v1.6c0,2.3,1.7,4.4,4.1,5.2l-.7,1.2c-1.9-.7-3.3-2.1-4.1-3.8ZM683.4,447.4c0,1.9-2.1,3-5.4,3s-5.4-1.1-5.4-3,2-3,5.4-3,5.4,1.1,5.4,3ZM681.9,447.4c0-1.2-1.5-1.9-3.9-1.9s-4,.7-4,1.9,1.5,1.9,4,1.9,3.9-.7,3.9-1.9ZM681.8,434.4h1.5v9.6h-1.5v-9.6Z"/>
    <path class="cls-2" d="M687.5,447.5l-.8-1.2c4.2-2.1,6.3-5.1,6.7-9h-5.9v-1.2h7.4c0,4.6-2.1,8.8-7.4,11.4ZM699,450.5h-1.5v-16.2h1.5v6.6h2.6v1.2h-2.6v8.4Z"/>
    <path class="cls-2" d="M703.2,448.5v-1.2h6.5v-3.7h-5.2v-1.2h2.5v-5.3h-2.5v-1.2h12v1.2h-2.5v5.3h2.5v1.2h-5.2v3.7h6.6v1.2h-14.7ZM712.5,437.1h-4v5.3h4v-5.3Z"/>
    <path class="cls-2" d="M719.7,448.5v-1.2h14.7v1.2h-14.7ZM721.5,435.6h11.1v4.9h-9.6v2.6h9.9v1.2h-11.4v-5h9.6v-2.5h-9.6v-1.2Z"/>
  </g>
  <g>
    <path class="cls-2" d="M661.7,414.4h7.4v6.5h-7.4v-6.5ZM663.1,419.7h4.5v-4.1h-4.5v4.1ZM674.1,429.4h-10.8v-4.1h8.8v-1.7h-8.8v-1.2h10.3v4h-8.8v1.8h9.4v1.2h-.1ZM673.5,418.1v3.5h-1.5v-8.2h1.5v3.5h2.4v1.2h-2.4Z"/>
    <path class="cls-2" d="M685.2,424v1.2c-2.2.4-4,.5-6,.5h-1.1v-6h4.3v-3.2h-4.4v-1.2h5.8v5.6h-4.3v3.6c1.9-.1,3.6-.2,5.7-.5ZM688,428.8h-1.4v-8.3h-2v-1.2h2v-5.4h1.4v14.9ZM689.9,429.6v-16.2h1.4v16.2h-1.4Z"/>
    <path class="cls-2" d="M702.9,420.3c0,3.4-1.7,5.6-4.1,5.6s-4.1-2.2-4.1-5.6,1.7-5.6,4.1-5.6c2.4,0,4.1,2.2,4.1,5.6ZM696.1,420.3c0,2.6,1.1,4.3,2.7,4.3s2.7-1.7,2.7-4.3-1.1-4.3-2.7-4.3-2.7,1.7-2.7,4.3ZM705.9,429.6v-16.2h1.5v16.2h-1.5Z"/>
    <path class="cls-2" d="M720.7,424.8l-.9,1.2c-1.9-.9-3.4-2.8-4.2-5.1-.7,2.5-2.3,4.4-4.2,5.4l-.9-1.2c2.4-1.2,4.3-4.2,4.3-7.3v-2.9h1.5v2.9c.1,2.9,2.1,5.9,4.4,7ZM722.4,429.6v-16.2h1.5v16.2h-1.5Z"/>
    <path class="cls-2" d="M735.6,420.3c0,3.4-1.7,5.6-4.1,5.6s-4.1-2.2-4.1-5.6,1.7-5.6,4.1-5.6c2.4,0,4.1,2.2,4.1,5.6ZM734.2,420.3c0-2.6-1.1-4.3-2.6-4.3s-2.7,1.7-2.7,4.3,1.1,4.3,2.7,4.3c1.5,0,2.6-1.6,2.6-4.3ZM739.7,429.6h-1.5v-16.1h1.5v6.4h2.7v1.2h-2.7v8.5Z"/>
  </g>
  <g>
    <path class="cls-2" d="M209.4,213c-2.4,0-4.2-1.6-4.2-3.9s1.8-3.8,4.2-3.8,2.5.5,3.3,1.4h4.1v-2.3h1.5v9.6h-1.5v-2.3h-4.1c-.8.8-1.9,1.3-3.3,1.3ZM209.4,211.7c1.6,0,2.7-1.1,2.7-2.6s-1.2-2.6-2.7-2.6-2.8,1.1-2.8,2.6c.1,1.5,1.2,2.6,2.8,2.6ZM218.4,217.4c0,2-2.1,3.1-5.4,3.1s-5.4-1.1-5.4-3.1,2.1-3.1,5.4-3.1,5.4,1.1,5.4,3.1ZM216.9,217.4c0-1.2-1.5-1.9-3.9-1.9s-3.9.7-3.9,1.9,1.4,1.9,3.9,1.9,3.9-.7,3.9-1.9ZM213.6,209.1c0,.5-.1.9-.2,1.3h3.5v-2.5h-3.5c0,.4.2.8.2,1.2Z"/>
    <path class="cls-2" d="M234.4,215v5.4h-1.4v-4.2h-9.8v-1.2h5v-3h-6.6v-1.2h10.9c.4-1.9.4-3.3.4-4.6h-9.4v-1.2h10.9v1.2c0,1.2,0,2.6-.4,4.6h2.3v1.2h-6.6v3h4.7Z"/>
  </g>
  <g>
    <path class="cls-2" d="M310.8,183.9h-1v-7.8h6.1v1.2h-4.7v5.4c2,0,3.5-.1,5.4-.5l.2,1.2c-2.1.5-3.8.5-6,.5ZM312.1,190.5v-5.2h1.5v4h9.5v1.2h-11ZM319.5,175.1v11.2h-1.4v-5.8h-3.2v-1.2h3.2v-4.2h1.4ZM321.2,174.7h1.4v12h-1.4v-12Z"/>
    <path class="cls-2" d="M333.6,186.8h-7.4v-10.4h7.4v10.4ZM332.1,177.5h-4.5v8h4.5v-8ZM338,190.9h-1.5v-16.1h1.5v6.4h2.7v1.2h-2.7v8.5Z"/>
    <path class="cls-2" d="M342.1,188.6v-1.2h14.6v1.2h-14.6ZM353.5,179.6v-2h-9.6v-1.2h11.1v2c0,2.4,0,4.6-.7,7.9h-1.4c.3-1.7.5-3,.6-4.2l-9.7.5-.2-1.2,10-.4c0-.6,0-1,0-1.4Z"/>
  </g>
  <text class="cls-11" transform="translate(413.7 185.8)"><tspan x="0" y="0">러시아</tspan></text>
  <g>
    <path class="cls-2" d="M323.3,163.6v-1.2h14.7v1.2h-14.7ZM330.6,154.2c-1,2.4-3.6,4.1-6,4.7l-.7-1.2c2.8-.6,5.9-3,5.9-5.7v-1.2h1.5v1.2c0,2.7,3.1,5.2,5.9,5.7l-.7,1.2c-2.4-.6-4.9-2.3-5.9-4.7Z"/>
    <path class="cls-2" d="M344.6,158.9v5.5h-1.4v-5.4c-1.2.1-2.4.1-3.3.1l-.2-1.2c2.2,0,5.8,0,8.4-.4v1.1c-1.1,0-2.3.2-3.5.3ZM340.4,153.6c0-1.8,1.5-3,3.5-3s3.5,1.2,3.5,3-1.5,3-3.5,3-3.5-1.3-3.5-3ZM341.8,153.6c0,1.1.9,1.9,2.2,1.9s2.2-.8,2.2-1.9-.9-1.9-2.2-1.9-2.2.8-2.2,1.9ZM350.5,164.9h-1.4v-3.6h-3v-1.2h3v-10.1h1.4v14.9ZM352.1,165.7v-16.1h1.4v16.1h-1.4Z"/>
    <path class="cls-2" d="M358.3,158.8h-1v-7.8h6.1v1.2h-4.7v5.4c2,0,3.5-.1,5.4-.5l.2,1.2c-2.1.4-3.8.5-6,.5ZM359.6,165.4v-5.2h1.5v4h9.5v1.2h-11ZM367,149.9v11.2h-1.4v-5.8h-3.2v-1.2h3.2v-4.2h1.4ZM368.7,149.6h1.4v12h-1.4v-12Z"/>
  </g>
  <g class="cls-14">
    <path class="cls-2" d="M280.8,217.7c-.5.5-1.3.7-2,.7-1.8,0-2.8-1-2.8-2.8v-5.7h-1.7v-1.1h1.7v-2.1h1.3v2.1h2.9v1.1h-2.9v5.7c0,1.1.6,1.7,1.6,1.7s1-.2,1.4-.5l.5.9Z"/>
    <path class="cls-2" d="M290.2,212.4v5.9h-1.2v-1.5c-.6,1-1.7,1.6-3.3,1.6s-3.5-1.1-3.5-2.8.9-2.7,3.7-2.7h3v-.6c0-1.6-.9-2.5-2.7-2.5s-2.4.4-3.2,1.1l-.6-1c1-.8,2.4-1.3,3.9-1.3,2.5.1,3.9,1.3,3.9,3.8ZM289,215.4v-1.5h-3c-1.8,0-2.4.7-2.4,1.7s.9,1.8,2.4,1.8c1.4,0,2.4-.7,3-2Z"/>
    <path class="cls-2" d="M293.4,205.8c0-.5.4-.9.9-.9s.9.4.9.9-.4.9-.9.9-.9-.4-.9-.9ZM293.7,208.8h1.3v9.5h-1.3v-9.5Z"/>
    <path class="cls-2" d="M307.3,212.8v5.5h-1.3v-5.4c0-2-1-3-2.8-3s-3.3,1.3-3.3,3.4v5h-1.3v-13.4h1.3v5.5c.7-1.1,1.9-1.7,3.5-1.7,2.3,0,3.9,1.3,3.9,4.1Z"/>
    <path class="cls-2" d="M317.9,212.4v5.9h-1.2v-1.5c-.6,1-1.7,1.6-3.3,1.6s-3.5-1.1-3.5-2.8.9-2.7,3.7-2.7h3v-.6c0-1.6-.9-2.5-2.7-2.5s-2.4.4-3.2,1.1l-.6-1c1-.8,2.4-1.3,3.9-1.3,2.5.1,3.9,1.3,3.9,3.8ZM316.6,215.4v-1.5h-3c-1.8,0-2.4.7-2.4,1.7s.9,1.8,2.4,1.8c1.4,0,2.5-.7,3-2Z"/>
    <path class="cls-2" d="M330.1,212.8v5.5h-1.3v-5.4c0-2-1-3-2.8-3s-3.3,1.3-3.3,3.4v5h-1.3v-9.5h1.2v1.7c.7-1.2,2-1.8,3.6-1.8,2.3,0,3.9,1.3,3.9,4.1Z"/>
    <path class="cls-2" d="M349.1,205.7v12.6h-1.1l-8.1-10.2v10.2h-1.3v-12.6h1.1l8.1,10.2v-10.2h1.3Z"/>
    <path class="cls-2" d="M361.1,213.9h-7.9c.1,2,1.7,3.3,3.7,3.3s2.2-.4,2.9-1.2l.7.8c-.8,1-2.2,1.5-3.7,1.5-3,0-5-2-5-4.8s2-4.8,4.6-4.8,4.6,2,4.6,4.8c0,.1,0,.3,0,.4ZM353.2,213h6.7c-.2-1.9-1.5-3.2-3.4-3.2s-3.1,1.3-3.3,3.2Z"/>
    <path class="cls-2" d="M368.7,217.7c-.5.5-1.3.7-2,.7-1.8,0-2.8-1-2.8-2.8v-5.7h-1.7v-1.1h1.7v-2.1h1.3v2.1h2.9v1.1h-2.9v5.7c0,1.1.6,1.7,1.6,1.7s1-.2,1.4-.5l.5.9Z"/>
    <path class="cls-2" d="M379.8,212.8v5.5h-1.3v-5.4c0-2-1-3-2.8-3s-3.3,1.3-3.3,3.4v5h-1.3v-13.4h1.3v5.5c.7-1.1,1.9-1.7,3.5-1.7,2.3,0,3.9,1.3,3.9,4.1Z"/>
    <path class="cls-2" d="M391.5,213.9h-7.9c.1,2,1.7,3.3,3.7,3.3s2.2-.4,2.9-1.2l.7.8c-.8,1-2.2,1.5-3.7,1.5-3,0-5-2-5-4.8s2-4.8,4.6-4.8,4.6,2,4.6,4.8c0,.1,0,.3,0,.4ZM383.6,213h6.7c-.2-1.9-1.5-3.2-3.4-3.2s-3.1,1.3-3.3,3.2Z"/>
    <path class="cls-2" d="M398.9,208.7v1.2h-.3c-2,0-3.2,1.3-3.2,3.5v4.8h-1.3v-9.5h1.2v1.9c.7-1.2,1.9-1.9,3.6-1.9Z"/>
    <path class="cls-2" d="M401.2,204.9h1.3v13.4h-1.3v-13.4Z"/>
    <path class="cls-2" d="M413.2,212.4v5.9h-1.2v-1.5c-.6,1-1.7,1.6-3.3,1.6s-3.5-1.1-3.5-2.8.9-2.7,3.7-2.7h3v-.6c0-1.6-.9-2.5-2.7-2.5s-2.4.4-3.2,1.1l-.6-1c1-.8,2.4-1.3,3.9-1.3,2.5.1,3.9,1.3,3.9,3.8ZM411.9,215.4v-1.5h-3c-1.8,0-2.4.7-2.4,1.7s.9,1.8,2.4,1.8c1.5,0,2.5-.7,3-2Z"/>
    <path class="cls-2" d="M425.4,212.8v5.5h-1.3v-5.4c0-2-1-3-2.8-3s-3.3,1.3-3.3,3.4v5h-1.3v-9.5h1.2v1.7c.7-1.2,2-1.8,3.6-1.8,2.3,0,3.9,1.3,3.9,4.1Z"/>
    <path class="cls-2" d="M437.6,204.9v13.4h-1.2v-1.9c-.8,1.3-2.1,2-3.7,2-2.7,0-4.7-2-4.7-4.8s2-4.8,4.7-4.8,2.8.6,3.6,1.9v-5.7h1.3ZM436.3,213.5c0-2.2-1.5-3.7-3.5-3.7s-3.5,1.5-3.5,3.7,1.5,3.7,3.5,3.7,3.5-1.5,3.5-3.7Z"/>
    <path class="cls-2" d="M439.8,217.2l.6-1c.8.6,2,1.1,3.4,1.1s2.5-.6,2.5-1.5c0-2.5-6.1-.5-6.1-4.3s1.3-2.7,3.7-2.7,2.6.3,3.3.9l-.6,1c-.8-.6-1.8-.8-2.8-.8-1.7,0-2.5.7-2.5,1.6,0,2.6,6.1.6,6.1,4.3s-1.4,2.7-3.9,2.7c-1.4-.2-2.9-.7-3.7-1.3Z"/>
  </g>
  <g id="_Layer_" data-name="&amp;lt;Layer&amp;gt;">
    <g>
      <path class="cls-2" d="M276.1,207.2h-4.4v-1.2h10.2v1.2h-4.4v11.4h-1.3v-11.4h-.1Z"/>
      <path class="cls-2" d="M289.3,210c.7.6,1,1.5,1,2.7v5.9h-1.2v-1.5c-.3.5-.7.9-1.3,1.2-.6.3-1.2.4-2,.4s-1.9-.3-2.5-.8-.9-1.2-.9-2,.3-1.5.9-1.9,1.5-.7,2.8-.7h3v-.6c0-.8-.2-1.4-.7-1.9-.5-.4-1.1-.6-2-.6s-1.2.1-1.7.3c-.6.2-1,.5-1.4.8l-.6-1c.5-.4,1.1-.7,1.7-.9.7-.2,1.4-.3,2.1-.3,1.2,0,2.2.3,2.8.9ZM287.9,217.2c.5-.3.9-.8,1.2-1.4v-1.5h-3c-1.6,0-2.4.6-2.4,1.7s.2,1,.6,1.3,1,.5,1.8.5c.7-.1,1.3-.3,1.8-.6Z"/>
      <path class="cls-2" d="M293.8,206.8c-.2-.2-.3-.4-.3-.6s.1-.4.3-.6c.2-.2.4-.3.7-.3s.5.1.7.3.3.4.3.6c0,.3-.1.5-.3.7-.2.2-.4.3-.7.3s-.5-.2-.7-.4ZM293.8,209.1h1.3v9.5h-1.3v-9.5Z"/>
      <path class="cls-2" d="M306.3,210.1c.7.7,1.1,1.7,1.1,3v5.5h-1.3v-5.4c0-1-.2-1.7-.7-2.3-.5-.5-1.2-.8-2.1-.8s-1.8.3-2.4.9-.9,1.4-.9,2.5v5h-1.3v-13.4h1.3v5.5c.3-.6.8-1,1.4-1.3s1.3-.5,2.1-.5c1.2.3,2.1.6,2.8,1.3Z"/>
      <path class="cls-2" d="M317,210c.7.6,1,1.5,1,2.7v5.9h-1.2v-1.5c-.3.5-.7.9-1.3,1.2-.6.3-1.2.4-2,.4s-1.9-.3-2.5-.8-.9-1.2-.9-2,.3-1.5.9-1.9,1.5-.7,2.8-.7h3v-.6c0-.8-.2-1.4-.7-1.9-.5-.4-1.1-.6-2-.6s-1.2.1-1.7.3c-.6.2-1,.5-1.4.8l-.6-1c.5-.4,1.1-.7,1.7-.9.7-.2,1.4-.3,2.1-.3,1.2,0,2.1.3,2.8.9ZM315.6,217.2c.5-.3.9-.8,1.2-1.4v-1.5h-3c-1.6,0-2.4.6-2.4,1.7s.2,1,.6,1.3,1,.5,1.8.5c.6-.1,1.2-.3,1.8-.6Z"/>
      <path class="cls-2" d="M329.1,210.1c.7.7,1.1,1.7,1.1,3v5.5h-1.3v-5.4c0-1-.2-1.7-.7-2.3-.5-.5-1.2-.8-2.1-.8s-1.8.3-2.4.9-.9,1.4-.9,2.5v5h-1.3v-9.5h1.2v1.7c.3-.6.8-1,1.4-1.3s1.3-.5,2.2-.5c1.2.2,2.1.5,2.8,1.2Z"/>
      <path class="cls-2" d="M349.2,206v12.6h-1.1l-8.1-10.2v10.2h-1.3v-12.6h1.1l8.1,10.2v-10.2h1.3Z"/>
      <path class="cls-2" d="M361.2,214.3h-7.9c.1,1,.4,1.8,1.1,2.4.7.6,1.5.9,2.6.9s1.1-.1,1.6-.3.9-.5,1.3-.9l.7.8c-.4.5-.9.9-1.6,1.2-.6.3-1.3.4-2.1.4s-1.8-.2-2.6-.6-1.3-1-1.8-1.7-.6-1.6-.6-2.5.2-1.8.6-2.5,1-1.3,1.7-1.7,1.5-.6,2.4-.6,1.7.2,2.4.6c.7.4,1.2,1,1.6,1.7s.6,1.6.6,2.5v.3ZM354.4,211c-.6.6-1,1.3-1.1,2.3h6.7c-.1-.9-.4-1.7-1.1-2.3s-1.4-.9-2.3-.9c-.8,0-1.6.3-2.2.9Z"/>
      <path class="cls-2" d="M368.9,218c-.2.2-.5.4-.9.5s-.7.2-1.1.2c-.9,0-1.6-.2-2.1-.7s-.7-1.2-.7-2v-5.7h-1.7v-1.1h1.7v-2.1h1.3v2.1h2.9v1.1h-2.9v5.7c0,.6.1,1,.4,1.3s.7.4,1.2.4.5,0,.8-.1.5-.2.6-.4l.5.8Z"/>
      <path class="cls-2" d="M378.8,210.1c.7.7,1.1,1.7,1.1,3v5.5h-1.3v-5.4c0-1-.2-1.7-.7-2.3-.5-.5-1.2-.8-2.1-.8s-1.8.3-2.4.9-.9,1.4-.9,2.5v5h-1.3v-13.4h1.3v5.5c.3-.6.8-1,1.4-1.3s1.3-.5,2.1-.5c1.2.3,2.1.6,2.8,1.3Z"/>
      <path class="cls-2" d="M391.6,214.3h-7.9c.1,1,.4,1.8,1.1,2.4.7.6,1.5.9,2.6.9s1.1-.1,1.6-.3.9-.5,1.3-.9l.7.8c-.4.5-.9.9-1.6,1.2-.6.3-1.3.4-2.1.4s-1.8-.2-2.6-.6-1.3-1-1.8-1.7-.6-1.6-.6-2.5.2-1.8.6-2.5,1-1.3,1.7-1.7,1.5-.6,2.4-.6,1.7.2,2.4.6c.7.4,1.2,1,1.6,1.7s.6,1.6.6,2.5v.3ZM384.8,211c-.6.6-1,1.3-1.1,2.3h6.7c-.1-.9-.4-1.7-1.1-2.3s-1.4-.9-2.3-.9c-.8,0-1.6.3-2.2.9Z"/>
      <path class="cls-2" d="M396.8,209.5c.6-.3,1.3-.5,2.2-.5v1.2h-.3c-1,0-1.8.3-2.3.9-.6.6-.8,1.5-.8,2.6v4.8h-1.3v-9.5h1.2v1.9c.3-.5.7-1,1.3-1.4Z"/>
      <path class="cls-2" d="M401.3,205.2h1.3v13.4h-1.3v-13.4Z"/>
      <path class="cls-2" d="M412.3,210c.7.6,1,1.5,1,2.7v5.9h-1.2v-1.5c-.3.5-.7.9-1.3,1.2-.6.3-1.2.4-2,.4s-1.9-.3-2.5-.8-.9-1.2-.9-2,.3-1.5.9-1.9,1.5-.7,2.8-.7h3v-.6c0-.8-.2-1.4-.7-1.9-.5-.4-1.1-.6-2-.6s-1.2.1-1.7.3c-.6.2-1,.5-1.4.8l-.6-1c.5-.4,1.1-.7,1.7-.9.7-.2,1.4-.3,2.1-.3,1.2,0,2.2.3,2.8.9ZM410.9,217.2c.5-.3.9-.8,1.2-1.4v-1.5h-3c-1.6,0-2.4.6-2.4,1.7s.2,1,.6,1.3,1,.5,1.8.5c.7-.1,1.3-.3,1.8-.6Z"/>
      <path class="cls-2" d="M424.5,210.1c.7.7,1.1,1.7,1.1,3v5.5h-1.3v-5.4c0-1-.2-1.7-.7-2.3-.5-.5-1.2-.8-2.1-.8s-1.8.3-2.4.9-.9,1.4-.9,2.5v5h-1.3v-9.5h1.2v1.7c.3-.6.8-1,1.4-1.3s1.3-.5,2.2-.5c1.1.2,2.1.5,2.8,1.2Z"/>
      <path class="cls-2" d="M437.7,205.2v13.4h-1.2v-1.9c-.4.6-.9,1.1-1.5,1.5s-1.3.5-2.1.5-1.7-.2-2.4-.6c-.7-.4-1.3-1-1.7-1.7-.4-.7-.6-1.6-.6-2.5s.2-1.8.6-2.5,1-1.3,1.7-1.7,1.5-.6,2.4-.6,1.5.2,2.1.5,1.1.8,1.5,1.4v-5.7h1.2ZM434.7,217.1c.5-.3,1-.7,1.3-1.3s.5-1.2.5-1.9-.2-1.4-.5-1.9c-.3-.6-.7-1-1.3-1.3-.5-.3-1.1-.5-1.8-.5s-1.3.2-1.8.5-1,.7-1.3,1.3-.5,1.2-.5,1.9.2,1.4.5,1.9c.3.6.7,1,1.3,1.3s1.1.5,1.8.5,1.3-.2,1.8-.5Z"/>
      <path class="cls-2" d="M441.6,218.4c-.7-.2-1.3-.5-1.6-.8l.6-1c.4.3.9.6,1.5.8s1.2.3,1.9.3,1.5-.1,1.9-.4.6-.7.6-1.1-.1-.6-.3-.8c-.2-.2-.5-.3-.9-.4-.3-.1-.8-.2-1.4-.3-.8-.1-1.4-.3-1.9-.4-.5-.1-.9-.4-1.2-.8-.3-.4-.5-.9-.5-1.5s.3-1.4,1-1.9,1.6-.8,2.8-.8,1.2.1,1.8.2c.6.2,1.1.4,1.5.6l-.6,1c-.8-.5-1.7-.8-2.8-.8s-1.4.1-1.8.4c-.4.3-.6.7-.6,1.1s.1.6.4.9c.2.2.5.4.9.5.3.1.8.2,1.4.3.8.1,1.4.3,1.8.4s.8.4,1.2.7.5.8.5,1.4-.3,1.5-1,2-1.6.7-2.9.7c-.9,0-1.6,0-2.3-.3Z"/>
    </g>
  </g>
  <circle class="cls-3" cx="432.5" cy="388" r="2.8"/>
  <circle class="cls-3" cx="654.3" cy="428.3" r="2.8"/>
  <circle class="cls-3" cx="663.2" cy="444.8" r="2.8"/>
  <circle class="cls-3" cx="1308.6" cy="307.2" r="2.8"/>
  <circle class="cls-3" cx="688.3" cy="481.3" r="2.8"/>
  <circle class="cls-7" cx="863.5" cy="592.3" r="2.8"/>
  <circle class="cls-7" cx="962.8" cy="617.4" r="2.8"/>
  <circle class="cls-3" cx="1478.2" cy="273.1" r="2.8"/>
  <circle class="cls-3" cx="315.1" cy="157.6" r="2.8"/>
  <circle class="cls-8" cx="424" cy="346.6" r="2.8"/>
  <circle class="cls-7" cx="266" cy="213.2" r="2.8"/>
  <circle class="cls-7" cx="355.1" cy="569.6" r="2.8"/>
  <circle class="cls-3" cx="411.4" cy="285" r="2.8"/>
  <circle class="cls-3" cx="243.5" cy="213.2" r="2.8"/>
  <circle class="cls-7" cx="419.2" cy="304.8" r="2.8"/>
  <circle class="cls-7" cx="677.3" cy="402.3" r="2.8"/>
  <circle class="cls-7" cx="1470.7" cy="291.5" r="2.8"/>
  <circle class="cls-1" cx="765.4" cy="289.1" r="2.8"/>
  <circle class="cls-3" cx="483.2" cy="362.4" r="2.8"/>
  <circle class="cls-3" cx="462.4" cy="376.6" r="2.8"/>
  <circle class="cls-3" cx="449.7" cy="345.8" r="2.8"/>
  <circle class="cls-3" cx="407.2" cy="179" r="2.8"/>
  <circle class="cls-3" cx="301.6" cy="183" r="2.8"/>
  <circle class="cls-7" cx="1543.5" cy="108.3" r="6"/>
  <circle class="cls-1" cx="1543.5" cy="78.4" r="6"/>
  <circle class="cls-3" cx="1543.5" cy="138.2" r="6"/>
  <g>
    <path class="cls-5" d="M1572.1,81.6v5.4h-1.5v-4.2h-9.8v-1.2h5v-3h-6.6v-1.2h10.9c.4-1.9.4-3.3.4-4.6h-9.4v-1.2h10.9v1.2c0,1.2,0,2.6-.4,4.6h2.3v1.2h-6.6v3s4.8,0,4.8,0Z"/>
    <path class="cls-5" d="M1583.2,81.1v1.3c-2.1.4-3.9.5-5.7.5h-1v-10h1.5v8.7c1.6,0,3.3,0,5.2-.5ZM1588.1,87.1v-8.3h-2.3v7.5h-1.4v-15h1.4v6.2h2.3v-6.6h1.4v16.1h-1.4Z"/>
    <path class="cls-5" d="M1605.9,82.1l-.9,1.2c-1.7-.9-3.2-2.8-3.9-5-.7,2.4-2.2,4.3-4,5.3l-.9-1.2c2.3-1.2,4.2-4.3,4.2-7.2v-2.9h1.5v2.9c0,2.9,1.7,5.8,4,6.9ZM1608.8,87.1h-1.5v-16.2h1.5v6.5h2.7v1.2h-2.7v8.5Z"/>
    <path class="cls-5" d="M1624.7,79.6v-3.6h-3.3c-.3,1.9-1.9,3.2-4.1,3.2s-4.2-1.5-4.2-3.7,1.8-3.7,4.2-3.7,3.8,1.2,4.1,3.1h3.3v-3.8h1.5v8.7h-1.5v-.2ZM1620.1,75.4c0-1.5-1.2-2.5-2.8-2.5s-2.8,1-2.8,2.5,1.2,2.5,2.8,2.5,2.8-1,2.8-2.5ZM1626.2,86.9h-10.3v-6.5h1.5v2h7.4v-2h1.5v6.5h0ZM1617.4,85.7h7.4v-2.1h-7.4v2.1Z"/>
    <path class="cls-5" d="M1634.2,76.4c-.7,1.9-2.1,3.3-4.1,4l-.8-1.2c2.4-.9,4.1-2.9,4.1-5.3v-.6h-3.6v-1.2h8.7v1.2h-3.6v.7c0,2.1,1.5,4,3.9,4.8l-.7,1.2c-1.8-.7-3.2-2-3.9-3.6ZM1642.2,84.1c0,1.9-2.1,3-5.3,3s-5.3-1.1-5.3-3,2-3,5.3-3,5.3,1.1,5.3,3ZM1640.7,84.1c0-1.2-1.4-1.8-3.8-1.8s-3.9.6-3.9,1.8,1.4,1.8,3.9,1.8,3.8-.7,3.8-1.8ZM1642,76.3v4.4h-1.5v-9.7h1.5v4h2.4v1.2h-2.4Z"/>
    <path class="cls-5" d="M1650.8,79.2c0-3.5,1-6.4,2.6-9.1l1,.5c-1.6,2.6-2.3,5.5-2.3,8.7s.7,6,2.3,8.7l-1,.5c-1.6-2.9-2.6-5.8-2.6-9.3Z"/>
    <path class="cls-5" d="M1669,79.1c0-3.2-.7-6-2.3-8.7l1-.5c1.7,2.7,2.7,5.6,2.7,9.1s-1,6.5-2.7,9.1l-1-.5c1.6-2.5,2.3-5.4,2.3-8.5Z"/>
    <path class="cls-5" d="M1567.2,104.9h-8v-1.2h3.3v-2.3h1.5v2.3h3.3v1.2h-.1ZM1566.7,109.6c0,2.2-1.5,3.7-3.5,3.7s-3.5-1.5-3.5-3.7,1.5-3.7,3.5-3.7c2,0,3.5,1.6,3.5,3.7ZM1565.4,109.6c0-1.4-.9-2.4-2.1-2.4s-2.1,1-2.1,2.4.9,2.5,2.1,2.5,2.1-1,2.1-2.5ZM1571.5,117.1v-8.1h-2.1v7.3h-1.4v-15h1.4v6.4h2.1v-6.8h1.4v16.2s-1.4,0-1.4,0Z"/>
    <path class="cls-5" d="M1586.4,111.8v1.1c-3.6.7-7.4.7-10.4.7l-.2-1.2c1.3,0,2.8,0,4.4,0v-2.8c-2.1-.3-3.6-1.7-3.6-3.8s1.8-3.8,4.3-3.8,4.3,1.5,4.3,3.8-1.5,3.5-3.6,3.8v2.7c1.7,0,3.3-.2,4.8-.4ZM1581,108.3c1.7,0,2.9-1,2.9-2.6s-1.2-2.5-2.9-2.5-2.9,1-2.9,2.5,1.2,2.6,2.9,2.6ZM1587.5,117.1v-16.2h1.5v16.2s-1.5,0-1.5,0Z"/>
    <path class="cls-5" d="M1608.2,109.8v-3.7h-3.7v3h-7.3v-7.4h1.5v2.5h4.4v-2.5h1.5v3.1h3.7v-4h1.5v8.8h-1.6v.2ZM1598.6,107.9h4.4v-2.6h-4.4v2.6ZM1609.7,116.8h-10.3v-6.3h1.5v1.9h7.4v-1.9h1.5v6.3h0ZM1600.8,115.7h7.4v-2h-7.4v2Z"/>
    <path class="cls-5" d="M1617.5,110c-2.4,0-4.2-1.7-4.2-4s1.8-4,4.2-4,4.2,1.6,4.2,4-1.8,4-4.2,4ZM1617.5,108.7c1.6,0,2.8-1.1,2.8-2.7s-1.2-2.7-2.8-2.7-2.8,1.1-2.8,2.7,1.2,2.7,2.8,2.7ZM1615.8,116.7v-5.2h1.5v4h9.4v1.2h-10.9ZM1624.7,100.9h1.5v11.8h-1.5v-11.8Z"/>
    <path class="cls-5" d="M1634.2,109.2c0-3.5,1-6.4,2.6-9.1l1,.5c-1.6,2.6-2.3,5.5-2.3,8.7s.7,6,2.3,8.7l-1,.5c-1.6-2.9-2.6-5.8-2.6-9.3Z"/>
    <path class="cls-6" d="M1642.6,115.7h-1.8l5.4-10.8.6-1h-6.9v-1.4h8.7v1.1l-6,12.1Z"/>
    <g class="cls-12">
      <path class="cls-2" d="M1648.7,112.2c0,2.4-1.9,3.9-4.5,3.9s-4.6-1.5-4.6-3.9,1-2.9,2.6-3.3c-1.4-.5-2.1-1.6-2.1-3.1s1.6-3.5,4.1-3.5,4.1,1.6,4.1,3.5-.7,2.6-2.2,3.1c1.7.4,2.6,1.5,2.6,3.3ZM1647,112.1c0-1.9-1.3-2.6-2.8-2.6s-2.8.8-2.8,2.6,1,2.5,2.8,2.5c1.8,0,2.8-1,2.8-2.5ZM1641.7,105.8c0,1.2.6,2.4,2.4,2.4s2.4-1.2,2.4-2.4-.8-2.3-2.4-2.3-2.4,1-2.4,2.3Z"/>
    </g>
    <path class="cls-5" d="M1652.5,109.1c0-3.2-.7-6-2.3-8.7l1-.5c1.7,2.7,2.7,5.6,2.7,9.1s-1,6.5-2.7,9.1l-1-.5c1.5-2.5,2.3-5.4,2.3-8.5Z"/>
    <path class="cls-5" d="M1567.2,134.9h-8v-1.2h3.3v-2.3h1.5v2.3h3.3v1.2h-.1ZM1566.7,139.6c0,2.2-1.5,3.7-3.5,3.7s-3.5-1.5-3.5-3.7,1.5-3.7,3.5-3.7c2,0,3.5,1.6,3.5,3.7ZM1565.4,139.6c0-1.4-.9-2.4-2.1-2.4s-2.1,1-2.1,2.4.9,2.5,2.1,2.5,2.1-1,2.1-2.5ZM1571.5,147.1v-8.1h-2.1v7.3h-1.4v-15h1.4v6.4h2.1v-6.8h1.4v16.2h-1.4Z"/>
    <path class="cls-5" d="M1586.4,141.8v1.1c-3.6.7-7.4.7-10.4.7l-.2-1.2c1.3,0,2.8,0,4.4-.1v-2.8c-2.1-.3-3.6-1.7-3.6-3.8s1.8-3.8,4.3-3.8,4.3,1.5,4.3,3.8-1.5,3.5-3.6,3.8v2.7c1.7,0,3.3-.2,4.8-.4ZM1581,138.3c1.7,0,2.9-1,2.9-2.6s-1.2-2.5-2.9-2.5-2.9,1-2.9,2.5,1.2,2.6,2.9,2.6ZM1587.5,147.1v-16.2h1.5v16.2h-1.5Z"/>
    <path class="cls-5" d="M1606.5,142.4l-.8,1.2c-1.9-.9-3.5-2.7-4.2-4.9-.7,2.3-2.4,4.4-4.2,5.3l-.9-1.2c2.3-1.1,4.3-4.1,4.3-6.9v-2.1h-3.7v-1.2h9v1.2h-3.8v2.1c-.1,2.7,1.9,5.5,4.3,6.5ZM1608.1,147.1v-16.1h1.5v16.1h-1.5Z"/>
    <path class="cls-5" d="M1622.5,142.1l-.9,1.2c-1.7-.9-3.2-2.8-3.9-5-.7,2.4-2.2,4.3-4,5.3l-.9-1.2c2.3-1.2,4.2-4.3,4.2-7.2v-2.9h1.5v2.9c-.2,2.9,1.7,5.8,4,6.9ZM1625.4,147.1h-1.5v-16.1h1.5v6.5h2.7v1.2h-2.7v8.4Z"/>
    <path class="cls-5" d="M1634.2,139.2c0-3.5,1-6.4,2.6-9.1l1,.5c-1.6,2.6-2.3,5.5-2.3,8.7s.7,6,2.3,8.7l-1,.5c-1.6-2.9-2.6-5.8-2.6-9.3Z"/>
    <path class="cls-6" d="M1641,145.7v-1.3h2.9v-10l-2.4,2.1-.9-1.1,3.5-3.1h1.3v11.9h2.6v1.3h-7v.2Z"/>
    <path class="cls-6" d="M1653.1,138.3c.6-.4,1.4-.7,2.3-.7,2.2,0,4,1.4,4,4s-1.9,4.4-4.6,4.4-4.4-1.8-4.4-4.5.5-2.5,1.6-4l3.7-5h2.1l-4,5c-.4.4-.6.7-.7.8ZM1657.7,141.7c0-1.7-1.2-2.8-2.8-2.8s-2.9,1.3-2.9,2.8,1,2.9,2.8,2.9c1.7,0,2.9-1.2,2.9-2.9Z"/>
    <path class="cls-5" d="M1663.2,139.1c0-3.2-.7-6-2.3-8.7l1-.5c1.7,2.7,2.7,5.6,2.7,9.1s-1,6.5-2.7,9.1l-1-.5c1.6-2.5,2.3-5.4,2.3-8.5Z"/>
    <g class="cls-12">
      <path class="cls-2" d="M1641.1,145.7v-1.3h2.9v-10l-2.4,2.1-.9-1.1,3.5-3.1h1.3v11.9h2.6v1.3h-7v.2Z"/>
      <path class="cls-2" d="M1654.9,137.2c2.8,0,4.3,1.7,4.3,4s-2.1,4.6-4.8,4.6-2.9-.6-3.7-1.4l.9-1.2c.8.7,1.8,1.2,2.9,1.2,1.8,0,3.1-1.1,3.1-3.1s-1.1-2.7-3-2.7-1.4.2-2.2.4l-1.1-.3,1.1-6.2h6.3v1.5h-5.2l-.6,3.5c.7-.2,1.3-.3,2-.3Z"/>
    </g>
    <path class="cls-5" d="M1663.3,74.6h0c0,0-7.1,0-7.1,0v-1.6h8.9v1.6l-6.1,12.5h-1.9l6.1-12.5Z"/>
  </g>
  <g class="cls-14">
    <path class="cls-2" d="M296.5,349.8l.5-1c.9.9,2.5,1.5,4.2,1.5s3.4-1,3.4-2.2c0-3.5-7.8-1.3-7.8-6s1.4-3.5,4.6-3.5,2.9.4,3.9,1.1l-.5,1.1c-1.1-.7-2.3-1-3.5-1-2.3,0-3.3,1-3.3,2.3,0,3.5,7.8,1.4,7.8,6s-1.5,3.4-4.7,3.4c-1.8,0-3.6-.7-4.6-1.7Z"/>
    <path class="cls-2" d="M316.7,348h-7l-1.5,3.4h-1.4l5.8-12.6h1.3l5.8,12.6h-1.4l-1.6-3.4ZM316.2,346.9l-3-6.8-3,6.8h6Z"/>
    <path class="cls-2" d="M321.3,346v-7.2h1.3v7.2c0,3,1.4,4.4,3.9,4.4s3.9-1.4,3.9-4.4v-7.2h1.3v7.2c0,3.6-1.9,5.5-5.2,5.5-3.2-.1-5.2-1.9-5.2-5.5Z"/>
    <path class="cls-2" d="M335.7,338.7h5.1c4,0,6.8,2.6,6.8,6.3s-2.7,6.3-6.8,6.3h-5.1v-12.6ZM340.8,350.2c3.3,0,5.5-2.1,5.5-5.1s-2.2-5.1-5.5-5.1h-3.8v10.3h3.8Z"/>
    <path class="cls-2" d="M350.6,338.7h1.3v12.6h-1.3v-12.6Z"/>
    <path class="cls-2" d="M365.4,350.8c-.5.5-1.3.7-2,.7-1.8,0-2.8-1-2.8-2.8v-5.7h-1.6v-1.1h1.7v-2.1h1.3v2.1h2.9v1.1h-2.9v5.7c0,1.1.6,1.7,1.6,1.7s1-.2,1.4-.5l.4.9Z"/>
    <path class="cls-2" d="M374.9,345.5v5.9h-1.2v-1.5c-.6,1-1.7,1.6-3.3,1.6s-3.5-1.1-3.5-2.8.9-2.7,3.7-2.7h3v-.6c0-1.6-.9-2.5-2.7-2.5s-2.4.4-3.2,1.1l-.6-1c1-.8,2.4-1.3,3.9-1.3,2.5,0,3.9,1.3,3.9,3.8ZM373.6,348.5v-1.5h-3c-1.8,0-2.4.7-2.4,1.7s.9,1.8,2.4,1.8c1.5-.1,2.5-.8,3-2Z"/>
    <path class="cls-2" d="M378.1,338.9c0-.5.4-.9.9-.9s.9.4.9.9-.4.9-.9.9-.9-.4-.9-.9ZM378.4,341.9h1.3v9.5h-1.3v-9.5Z"/>
    <path class="cls-2" d="M391.9,345.8v5.5h-1.3v-5.3c0-2-1-3-2.8-3s-3.3,1.3-3.3,3.4v5h-1.3v-13.4h1.3v5.5c.7-1.1,1.9-1.7,3.5-1.7,2.3,0,3.9,1.3,3.9,4Z"/>
    <path class="cls-2" d="M402.5,345.5v5.9h-1.2v-1.5c-.6,1-1.7,1.6-3.3,1.6s-3.5-1.1-3.5-2.8.9-2.7,3.7-2.7h3v-.6c0-1.6-.9-2.5-2.7-2.5s-2.4.4-3.2,1.1l-.6-1c1-.8,2.4-1.3,3.9-1.3,2.6,0,3.9,1.3,3.9,3.8ZM401.3,348.5v-1.5h-3c-1.8,0-2.4.7-2.4,1.7s.9,1.8,2.4,1.8c1.4-.1,2.5-.8,3-2Z"/>
    <path class="cls-2" d="M414.7,345.8v5.5h-1.3v-5.3c0-2-1-3-2.8-3s-3.3,1.3-3.3,3.4v5h-1.3v-9.5h1.2v1.7c.7-1.2,2-1.8,3.6-1.8,2.4,0,3.9,1.3,3.9,4Z"/>
  </g>
  <g>
    <path class="cls-2" d="M350,392.1l-.9,1.2c-1.7-.9-3.2-2.8-3.9-5-.7,2.4-2.2,4.3-4,5.3l-.9-1.2c2.3-1.2,4.2-4.3,4.2-7.2v-2.9h1.5v2.9c-.1,2.8,1.7,5.8,4,6.9ZM352.9,397.1h-1.5v-16.1h1.5v6.5h2.7v1.2h-2.7v8.4Z"/>
    <path class="cls-2" d="M365,397.1h-1.5v-5.7h-6.5v-1.2h14.6v1.2h-6.6v5.7ZM358.6,385.1c0-2.1,2.3-3.5,5.6-3.5s5.7,1.4,5.7,3.5-2.3,3.5-5.7,3.5-5.6-1.3-5.6-3.5ZM360.1,385.1c0,1.4,1.7,2.4,4.1,2.4s4.1-.9,4.1-2.4-1.7-2.3-4.1-2.3c-2.4,0-4.1.9-4.1,2.3Z"/>
    <path class="cls-2" d="M383.6,391.3l.2,1.2c-2.5.4-4.6.6-7.9.6h-1.3v-10.6h7.6v1.2h-6.2v8.1c3.2,0,5.2-.1,7.6-.5ZM385.3,397.1v-16.2h1.5v16.2h-1.5Z"/>
    <path class="cls-2" d="M404.2,392.4l-.8,1.2c-1.9-.9-3.5-2.7-4.2-4.9-.7,2.3-2.4,4.4-4.2,5.3l-.9-1.2c2.3-1.1,4.3-4.1,4.3-6.9v-2.1h-3.7v-1.2h9v1.2h-3.8v2.1c0,2.7,2,5.5,4.3,6.5ZM405.9,397.1v-16.1h1.5v16.1h-1.5Z"/>
    <path class="cls-2" d="M420.2,392.1l-.9,1.2c-1.7-.9-3.2-2.8-3.9-5-.7,2.4-2.2,4.3-4,5.3l-.9-1.2c2.3-1.2,4.2-4.3,4.2-7.2v-2.9h1.5v2.9c-.1,2.8,1.8,5.8,4,6.9ZM423.1,397.1h-1.5v-16.1h1.5v6.5h2.7v1.2h-2.7v8.4Z"/>
  </g>
  <g>
    <path class="cls-2" d="M428.2,290.6h-1.5v-6.2h-6.6v-1.2h10.7c.3-1.2.4-2.1.5-3.1l-9.6.5-.2-1.2,9.9-.4v-2.2h-9.4v-1.2h10.9v1.5c0,1.7,0,3.6-.6,6.2h2.4v1.2h-6.6v6.1h.1Z"/>
    <path class="cls-2" d="M441.4,283.7v5.5h-1.4v-5.4c-1.2.1-2.4.1-3.3.1l-.2-1.2c2.2,0,5.8,0,8.4-.4v1.1c-1.1.2-2.3.3-3.5.3ZM437.2,278.4c0-1.8,1.5-3,3.5-3s3.5,1.2,3.5,3-1.5,3-3.5,3-3.5-1.2-3.5-3ZM438.6,278.4c0,1.1.9,1.9,2.2,1.9s2.2-.8,2.2-1.9-.9-1.9-2.2-1.9-2.2.8-2.2,1.9ZM447.3,289.7h-1.4v-3.6h-3v-1.1h3v-10.2h1.4v14.9ZM448.9,290.6v-16.1h1.4v16.1h-1.4Z"/>
    <path class="cls-2" d="M462.1,281.3c0,3.4-1.7,5.6-4.1,5.6s-4.1-2.2-4.1-5.6,1.7-5.6,4.1-5.6c2.3,0,4.1,2.2,4.1,5.6ZM455.2,281.3c0,2.6,1.1,4.3,2.7,4.3s2.7-1.7,2.7-4.3-1.1-4.3-2.7-4.3-2.7,1.7-2.7,4.3ZM465,290.6v-16.2h1.5v16.2h-1.5Z"/>
    <path class="cls-2" d="M469.8,288.5v-1.2h14.7v1.2h-14.7ZM471.7,275.8h10.9v1.2h-9.4v2.4h9.1v1.2h-9.1v2.6h9.6v1.2h-11.1v-8.6Z"/>
  </g>
  <g>
    <path class="cls-2" d="M461.5,350.9l-.8-1.1c3-1.5,4.8-3.3,5.8-5.5l-5.4.5-.3-1.3,6.1-.4c.3-.9.4-1.8.5-2.8h-5.8v-1.2h7.3c0,4.7-1.6,8.9-7.4,11.8ZM473,353.6h-1.5v-16.2h1.5v6.6h2.6v1.2h-2.6v8.4Z"/>
    <path class="cls-2" d="M486.6,348v1.2c-2.4.4-4.5.5-7.5.5h-1.3v-10.8h7.5v1.2h-6v3.3h5.7v1.2h-5.7v3.9c2.9,0,4.9-.2,7.3-.5ZM489.6,353.5h-1.5v-16.1h1.5v6.5h2.7v1.2h-2.7v8.4Z"/>
    <path class="cls-2" d="M493.7,351.5v-1.2h14.7v1.2h-14.7ZM495.5,338.7h11.1v4.9h-9.6v2.6h9.9v1.2h-11.4v-5h9.6v-2.5h-9.6v-1.2Z"/>
  </g>
  <circle class="cls-3" cx="442.7" cy="323.8" r="2.8"/>
  <g class="cls-14">
    <path class="cls-2" d="M454.5,328.9l-.8-1.1c3-1.5,4.8-3.3,5.8-5.5l-5.4.5-.3-1.3,6.1-.4c.3-.9.4-1.8.5-2.8h-5.8v-1.2h7.3c0,4.7-1.6,8.9-7.4,11.8ZM466,331.6h-1.5v-16.2h1.5v6.6h2.6v1.2h-2.6v8.4Z"/>
    <path class="cls-2" d="M479.6,326v1.2c-2.4.4-4.5.5-7.5.5h-1.3v-10.8h7.5v1.2h-6v3.3h5.7v1.2h-5.7v3.9c2.9,0,4.9-.2,7.3-.5ZM482.6,331.5h-1.5v-16.1h1.5v6.5h2.7v1.2h-2.7v8.4Z"/>
    <path class="cls-2" d="M486.7,329.5v-1.2h14.7v1.2h-14.7ZM488.5,316.7h11.1v4.9h-9.6v2.6h9.9v1.2h-11.4v-5h9.6v-2.5h-9.6v-1.2Z"/>
  </g>
  <g>
    <path class="cls-2" d="M500.2,371h-1.5v-5.6h-6.5v-1.2h14.6v1.2h-6.6v5.6ZM494.2,355.8h10.6v1.2h-9.1v3.9h9.3v1.2h-10.8v-6.3Z"/>
    <path class="cls-2" d="M516.9,367.1h-7.5v-10.9h1.5v4.3h4.6v-4.3h1.4v10.9ZM510.9,365.9h4.6v-4.2h-4.6v4.2ZM521.2,371h-1.5v-16.1h1.5v6.3h2.7v1.2h-2.7v8.6Z"/>
    <path class="cls-2" d="M534.2,361.8c0,3.4-1.7,5.6-4.1,5.6s-4.1-2.2-4.1-5.6,1.7-5.6,4.1-5.6c2.3,0,4.1,2.1,4.1,5.6ZM527.4,361.8c0,2.6,1.1,4.3,2.7,4.3s2.7-1.7,2.7-4.3-1.1-4.3-2.7-4.3c-1.6-.1-2.7,1.6-2.7,4.3ZM537.1,371.1v-16.2h1.5v16.2h-1.5Z"/>
  </g>
  <g>
    <path class="cls-2" d="M478.1,382.8c0,3.4-1.7,5.6-4.1,5.6s-4.1-2.2-4.1-5.6,1.7-5.6,4.1-5.6c2.5,0,4.1,2.2,4.1,5.6ZM476.7,382.8c0-2.6-1.1-4.3-2.6-4.3s-2.7,1.7-2.7,4.3,1.1,4.3,2.7,4.3c1.5,0,2.6-1.7,2.6-4.3ZM482.2,392.1h-1.5v-16.1h1.5v6.4h2.7v1.2h-2.7v8.5Z"/>
    <path class="cls-2" d="M494.4,392.1h-1.5v-5.4h-6.6v-1.2h14.7v1.2h-6.6v5.4ZM488.2,376.6h1.5v2.2h8v-2.2h1.5v7h-10.9v-7h-.1ZM489.6,382.3h8v-2.3h-8v2.3Z"/>
    <path class="cls-2" d="M512.3,386.3l.2,1.2c-2.4.5-4.6.6-7.6.6h-1.3v-10.6h7.5v1.2h-6v8.1c2.8,0,4.9-.1,7.2-.5ZM515.3,392.1h-1.5v-16.2h1.5v6.4h2.7v1.2h-2.7v8.6Z"/>
    <path class="cls-2" d="M526.5,381.6v-4.3h1.5v10.9h-7.6v-10.9h1.5v4.3h4.6ZM526.5,382.7h-4.7v4.2h4.7v-4.2ZM531.2,392.1v-16.2h1.5v16.2h-1.5Z"/>
  </g>
  <g class="cls-14">
    <path class="cls-2" d="M823.8,598.1v-1.2h6.6v-2.3c-2.9-.2-4.6-1.3-4.6-3.1s2.1-3.1,5.3-3.1,5.3,1.1,5.3,3.1-1.7,2.9-4.5,3.1v2.3h6.6v1.2h-14.7ZM824.5,586.2h5.9v-2.1h1.5v2.1h5.8v1.2h-13.1v-1.2h-.1ZM831.1,593.5c2.3,0,3.8-.7,3.8-1.9s-1.4-1.9-3.8-1.9-3.8.7-3.8,1.9,1.4,1.9,3.8,1.9Z"/>
    <path class="cls-2" d="M848.4,600h-1.5v-5.7h-6.5v-1.3h14.6v1.2h-6.6v5.8ZM846.8,586.1h-5.1v-1.3h11.8v1.2h-5.1c0,2.2,2.8,4.1,5.6,4.5l-.6,1.2c-2.5-.4-4.9-1.8-5.9-3.7-1,1.9-3.3,3.3-5.9,3.7l-.6-1.2c3.1-.4,5.8-2.3,5.8-4.4Z"/>
  </g>
  <g>
    <path class="cls-2" d="M773.1,281.9h4v-2h1.5v2h4v1.2h-9.5v-1.2ZM777.9,289.9c-2.3,0-3.9-1.2-3.9-3s1.6-3,3.9-3,3.9,1.2,3.9,3c-.1,1.8-1.6,3-3.9,3ZM777.9,288.8c1.5,0,2.5-.7,2.5-1.9s-1-1.8-2.5-1.8-2.4.7-2.4,1.8.8,1.9,2.4,1.9ZM786.3,295.7h-10.8v-4.7h1.5v3.4h9.3v1.3ZM785.6,286.4v5.5h-1.5v-12.1h1.5v5.3h2.4v1.2h-2.4Z"/>
    <path class="cls-2" d="M802.5,290.6v5.4h-1.5v-4.2h-9.8v-1.2h5v-3h-6.6v-1.2h10.9c.4-1.9.4-3.3.4-4.6h-9.4v-1.2h10.9v1.2c0,1.2,0,2.6-.4,4.6h2.3v1.2h-6.6v3h4.8Z"/>
  </g>
  <g class="cls-14">
    <path class="cls-2" d="M983.6,624.3h-1.5v-6h-4.1v6h-1.5v-6h-3.8v-1.2h14.6v1.2h-3.8v6h0ZM974.6,609h1.5v4.6h9.5v1.2h-11v-5.8Z"/>
    <path class="cls-2" d="M994.4,612.7c-.7,1.8-2.2,3.2-4.2,3.9l-.7-1.2c2.4-.8,4.1-2.8,4.1-5v-.2h-3.6v-1.2h8.9v1.2h-3.7v.2c0,2.1,1.7,3.9,4.1,4.6l-.7,1.2c-1.9-.6-3.4-1.9-4.2-3.5ZM992.2,624.1v-4h9v-1.6h-9v-1.2h10.5v3.9h-9v1.8h9.5v1.2h-11ZM1001.1,608.2h1.5v8.4h-1.5v-8.4Z"/>
    <path class="cls-2" d="M1007.7,617.8h-1.1v-4.8h4.6v-2.3h-4.6v-1.2h6.1v4.6h-4.6v2.4c2.1,0,3.7,0,5.6-.5v1.2c-1.9.5-3.7.6-6,.6ZM1009,623.9v-4.8h1.5v3.6h9.5v1.2h-11ZM1014.6,608.4h1.4v4.5h2.2v-4.8h1.4v12h-1.4v-6h-2.2v5.5h-1.4v-11.2Z"/>
    <path class="cls-2" d="M1022.5,622.1v-1.2h14.7v1.2h-14.7ZM1024.3,609.6h10.9v1.2h-9.5v5h9.6v1.2h-11.1v-7.4h0Z"/>
  </g>
  <g>
    <path class="cls-2" d="M1499.5,279.5h-1.5v-6h-4.1v6h-1.5v-6h-3.8v-1.2h14.6v1.2h-3.8v6h.1ZM1490.6,264.1h1.5v4.6h9.5v1.2h-11v-5.8Z"/>
    <path class="cls-2" d="M1515.1,274.8l-.9,1.2c-1.8-.9-3.4-2.8-4.1-5.1-.7,2.4-2.3,4.4-4.1,5.4l-.9-1.2c2.3-1.2,4.2-4.2,4.2-7.1v-1.9h-3.7v-1.1h8.8v1.2h-3.7v1.9c0,2.6,2,5.6,4.4,6.7ZM1517.1,279.5v-9.1h-3.5v-1.2h3.5v-5.9h1.5v16.2h-1.5Z"/>
    <path class="cls-2" d="M1531.9,274.8l-.8,1.2c-1.9-.9-3.5-2.7-4.2-4.9-.7,2.3-2.4,4.4-4.2,5.3l-.9-1.2c2.3-1.1,4.3-4.1,4.3-6.9v-2.1h-3.7v-1.2h9v1.2h-3.8v2.1c0,2.7,1.9,5.5,4.3,6.5ZM1533.6,279.5v-16.1h1.5v16.1h-1.5Z"/>
  </g>
  <g class="cls-14">
    <path class="cls-2" d="M1487.8,295.7c-.5.5-1.3.7-2,.7-1.8,0-2.8-1-2.8-2.8v-5.7h-1.7v-1.1h1.7v-2.1h1.3v2.1h2.9v1.1h-2.9v5.7c0,1.1.6,1.7,1.6,1.7s1-.2,1.4-.5l.5.9Z"/>
    <path class="cls-2" d="M1497.2,290.4v5.9h-1.2v-1.5c-.6,1-1.7,1.6-3.3,1.6s-3.5-1.1-3.5-2.8.9-2.7,3.7-2.7h3v-.6c0-1.6-.9-2.5-2.7-2.5s-2.4.4-3.2,1.1l-.6-1c1-.8,2.4-1.3,3.9-1.3,2.5.1,3.9,1.3,3.9,3.8ZM1495.9,293.4v-1.5h-3c-1.8,0-2.4.7-2.4,1.7s.9,1.8,2.4,1.8c1.5-.1,2.5-.8,3-2Z"/>
    <path class="cls-2" d="M1500.4,283.8c0-.5.4-.9.9-.9s.9.4.9.9-.4.9-.9.9c-.5,0-.9-.4-.9-.9ZM1500.7,286.8h1.3v9.5h-1.3v-9.5Z"/>
    <path class="cls-2" d="M1514.2,290.8v5.5h-1.3v-5.4c0-2-1-3-2.8-3s-3.3,1.3-3.3,3.4v5h-1.3v-13.4h1.3v5.5c.7-1.1,1.9-1.7,3.5-1.7,2.4,0,3.9,1.3,3.9,4.1Z"/>
    <path class="cls-2" d="M1524.9,290.4v5.9h-1.2v-1.5c-.6,1-1.7,1.6-3.3,1.6s-3.5-1.1-3.5-2.8.9-2.7,3.7-2.7h3v-.6c0-1.6-.9-2.5-2.7-2.5s-2.4.4-3.2,1.1l-.6-1c1-.8,2.4-1.3,3.9-1.3,2.5.1,3.9,1.3,3.9,3.8ZM1523.6,293.4v-1.5h-3c-1.8,0-2.4.7-2.4,1.7s.9,1.8,2.4,1.8c1.4-.1,2.5-.8,3-2Z"/>
    <path class="cls-2" d="M1537.1,290.8v5.5h-1.3v-5.4c0-2-1-3-2.8-3s-3.3,1.3-3.3,3.4v5h-1.3v-9.5h1.2v1.7c.7-1.2,2-1.8,3.6-1.8,2.3,0,3.9,1.3,3.9,4.1Z"/>
    <path class="cls-2" d="M1545.4,290.9v-7.2h1.3v7.2c0,3,1.4,4.4,3.9,4.4s3.9-1.4,3.9-4.4v-7.2h1.3v7.2c0,3.6-1.9,5.5-5.2,5.5s-5.2-1.9-5.2-5.5Z"/>
    <path class="cls-2" d="M1558.6,294.7l.5-1c.9.9,2.5,1.5,4.2,1.5s3.4-1,3.4-2.2c0-3.5-7.8-1.3-7.8-6s1.4-3.5,4.6-3.5,2.9.4,3.9,1.1l-.5,1.1c-1.1-.7-2.3-1-3.5-1-2.3,0-3.3,1-3.3,2.3,0,3.5,7.8,1.4,7.8,6s-1.5,3.4-4.7,3.4-3.7-.7-4.6-1.7Z"/>
    <path class="cls-2" d="M1578.7,292.9h-7l-1.5,3.4h-1.4l5.8-12.6h1.3l5.8,12.6h-1.4l-1.6-3.4ZM1578.3,291.8l-3-6.8-3,6.8h6Z"/>
  </g>
  <g>
    <path class="cls-2" d="M1317.6,299.3h1.3v11.5h7.1v1.2h-8.4v-12.7Z"/>
    <path class="cls-2" d="M1336.1,308.5h-7l-1.5,3.4h-1.4l5.8-12.6h1.3l5.8,12.6h-1.4l-1.6-3.4ZM1335.6,307.4l-3-6.8-3,6.8h6Z"/>
  </g>
  <g class="cls-14">
    <path class="cls-2" d="M435.2,306.5c-.5.5-1.3.7-2,.7-1.8,0-2.8-1-2.8-2.8v-5.7h-1.7v-1.1h1.7v-2.1h1.3v2.1h2.9v1.1h-2.9v5.7c0,1.1.6,1.7,1.6,1.7s1-.2,1.4-.5l.5.9Z"/>
    <path class="cls-2" d="M444.7,301.2v5.9h-1.2v-1.5c-.6,1-1.7,1.6-3.3,1.6s-3.5-1.1-3.5-2.8.9-2.7,3.7-2.7h3v-.6c0-1.6-.9-2.5-2.7-2.5s-2.4.4-3.2,1.1l-.6-1c1-.8,2.4-1.3,3.9-1.3,2.5,0,3.9,1.4,3.9,3.8ZM443.4,304.2v-1.5h-3c-1.8,0-2.4.7-2.4,1.7s.9,1.8,2.4,1.8,2.5-.7,3-2Z"/>
    <path class="cls-2" d="M447.8,294.6c0-.5.4-.9.9-.9s.9.4.9.9-.4.9-.9.9-.9-.4-.9-.9ZM448.1,297.6h1.3v9.5h-1.3v-9.5Z"/>
    <path class="cls-2" d="M461.7,301.6v5.5h-1.3v-5.4c0-2-1-3-2.8-3s-3.3,1.3-3.3,3.4v5h-1.3v-13.4h1.3v5.5c.7-1.1,1.9-1.7,3.5-1.7,2.3,0,3.9,1.4,3.9,4.1Z"/>
    <path class="cls-2" d="M472.3,301.2v5.9h-1.2v-1.5c-.6,1-1.7,1.6-3.3,1.6s-3.5-1.1-3.5-2.8.9-2.7,3.7-2.7h3v-.6c0-1.6-.9-2.5-2.7-2.5s-2.4.4-3.2,1.1l-.6-1c1-.8,2.4-1.3,3.9-1.3,2.5,0,3.9,1.4,3.9,3.8ZM471,304.2v-1.5h-3c-1.8,0-2.4.7-2.4,1.7s.9,1.8,2.4,1.8,2.5-.7,3-2Z"/>
    <path class="cls-2" d="M484.5,301.6v5.5h-1.3v-5.4c0-2-1-3-2.8-3s-3.3,1.3-3.3,3.4v5h-1.3v-9.5h1.2v1.7c.7-1.2,2-1.8,3.6-1.8,2.3,0,3.9,1.4,3.9,4.1Z"/>
    <path class="cls-2" d="M496.9,301.2l-2.6,2.6v3.3h-1.3v-12.6h1.3v7.6l7.4-7.6h1.5l-5.5,5.7,5.8,6.9h-1.5l-5.1-5.9Z"/>
    <path class="cls-2" d="M513.7,297.6v9.5h-1.2v-1.7c-.7,1.2-1.9,1.8-3.4,1.8-2.4,0-4-1.4-4-4.1v-5.5h1.3v5.4c0,2,1,3,2.8,3s3.2-1.3,3.2-3.4v-5h1.3Z"/>
    <path class="cls-2" d="M531.1,297.6l-3.6,9.5h-1.2l-3-7.8-3,7.8h-1.2l-3.6-9.5h1.2l3,8,3-8h1.1l3,8,3-8h1.3Z"/>
    <path class="cls-2" d="M539.9,301.2v5.9h-1.2v-1.5c-.6,1-1.7,1.6-3.3,1.6s-3.5-1.1-3.5-2.8.9-2.7,3.7-2.7h3v-.6c0-1.6-.9-2.5-2.7-2.5s-2.4.4-3.2,1.1l-.6-1c1-.8,2.4-1.3,3.9-1.3,2.5,0,3.9,1.4,3.9,3.8ZM538.6,304.2v-1.5h-3c-1.8,0-2.4.7-2.4,1.7s.9,1.8,2.4,1.8,2.5-.7,3-2Z"/>
    <path class="cls-2" d="M543.1,294.6c0-.5.4-.9.9-.9s.9.4.9.9-.4.9-.9.9-.9-.4-.9-.9ZM543.4,297.6h1.3v9.5h-1.3v-9.5Z"/>
    <path class="cls-2" d="M553.2,306.5c-.5.5-1.3.7-2,.7-1.8,0-2.8-1-2.8-2.8v-5.7h-1.7v-1.1h1.7v-2.1h1.3v2.1h2.9v1.1h-2.9v5.7c0,1.1.6,1.7,1.6,1.7s1-.2,1.4-.5l.5.9Z"/>
  </g>
  <g>
    <path class="cls-2" d="M1483.1,285.2h-4.4v-1.2h10.2v1.2h-4.4v11.4h-1.3v-11.4h0Z"/>
    <path class="cls-2" d="M1496.3,288c.7.6,1,1.5,1,2.7v5.9h-1.2v-1.5c-.3.5-.7.9-1.3,1.2-.6.3-1.2.4-2,.4s-1.9-.3-2.5-.8-.9-1.2-.9-2,.3-1.5.9-1.9,1.5-.7,2.8-.7h3v-.6c0-.8-.2-1.4-.7-1.9-.5-.4-1.1-.6-2-.6s-1.2.1-1.7.3c-.6.2-1,.5-1.4.8l-.6-1c.5-.4,1.1-.7,1.7-.9.7-.2,1.4-.3,2.1-.3,1.2,0,2.2.3,2.8.9ZM1494.9,295.2c.5-.3.9-.8,1.2-1.4v-1.5h-3c-1.6,0-2.4.6-2.4,1.7s.2,1,.6,1.3,1,.5,1.8.5c.7-.1,1.3-.3,1.8-.6Z"/>
    <path class="cls-2" d="M1500.8,284.8c-.2-.2-.3-.4-.3-.6s0-.4.3-.6c.2-.2.4-.3.7-.3s.5.1.7.3c.2.2.3.4.3.6,0,.3,0,.5-.3.7-.2.2-.4.3-.7.3s-.5-.2-.7-.4ZM1500.8,287.1h1.3v9.5h-1.3v-9.5Z"/>
    <path class="cls-2" d="M1513.3,288.1c.7.7,1.1,1.7,1.1,3v5.5h-1.3v-5.4c0-1-.2-1.7-.7-2.3-.5-.5-1.2-.8-2.1-.8s-1.8.3-2.4.9-.9,1.4-.9,2.5v5h-1.3v-13.4h1.3v5.5c.3-.6.8-1,1.4-1.3s1.3-.5,2.1-.5c1.2.3,2.1.6,2.8,1.3Z"/>
    <path class="cls-2" d="M1524,288c.7.6,1,1.5,1,2.7v5.9h-1.2v-1.5c-.3.5-.7.9-1.3,1.2-.6.3-1.2.4-2,.4s-1.9-.3-2.5-.8-.9-1.2-.9-2,.3-1.5.9-1.9,1.5-.7,2.8-.7h3v-.6c0-.8-.2-1.4-.7-1.9-.5-.4-1.1-.6-2-.6s-1.2.1-1.7.3c-.6.2-1,.5-1.4.8l-.6-1c.5-.4,1.1-.7,1.7-.9.7-.2,1.4-.3,2.1-.3,1.2,0,2.1.3,2.8.9ZM1522.6,295.2c.5-.3.9-.8,1.2-1.4v-1.5h-3c-1.6,0-2.4.6-2.4,1.7s.2,1,.6,1.3,1,.5,1.8.5c.6-.1,1.2-.3,1.8-.6Z"/>
    <path class="cls-2" d="M1536.1,288.1c.7.7,1.1,1.7,1.1,3v5.5h-1.3v-5.4c0-1-.2-1.7-.7-2.3-.5-.5-1.2-.8-2.1-.8s-1.8.3-2.4.9-.9,1.4-.9,2.5v5h-1.3v-9.5h1.2v1.7c.3-.6.8-1,1.4-1.3s1.3-.5,2.2-.5c1.2.2,2.1.5,2.8,1.2Z"/>
    <path class="cls-2" d="M1546.9,295.3c-.9-.9-1.4-2.3-1.4-4.1v-7.2h1.3v7.2c0,1.5.3,2.6,1,3.3.7.7,1.6,1.1,2.9,1.1s2.2-.4,2.9-1.1c.7-.7,1-1.8,1-3.3v-7.2h1.3v7.2c0,1.8-.5,3.1-1.4,4.1-.9.9-2.2,1.4-3.8,1.4s-2.9-.5-3.8-1.4Z"/>
    <path class="cls-2" d="M1560.7,296.3c-.9-.3-1.5-.7-2-1.2l.5-1c.5.5,1.1.8,1.8,1.1.8.3,1.5.4,2.3.4s2-.2,2.5-.6c.6-.4.8-1,.8-1.6s-.2-.9-.5-1.2c-.3-.3-.7-.5-1.1-.7s-1.1-.3-1.9-.5c-.9-.2-1.7-.5-2.3-.7-.6-.2-1-.6-1.4-1s-.6-1.1-.6-1.9.2-1.2.5-1.7.9-.9,1.5-1.3c.7-.3,1.6-.5,2.6-.5s1.4.1,2.1.3c.7.2,1.3.5,1.8.8l-.5,1.1c-.5-.3-1.1-.6-1.7-.8-.6-.2-1.2-.3-1.8-.3-1.1,0-1.9.2-2.5.6s-.8,1-.8,1.6.2.9.5,1.2c.3.3.7.5,1.2.7s1.1.3,1.9.5c.9.2,1.7.5,2.2.7.6.2,1.1.6,1.4,1,.4.5.6,1.1.6,1.8s-.2,1.2-.5,1.7-.9.9-1.6,1.2-1.6.5-2.6.5c-.7.2-1.6.1-2.4-.2Z"/>
    <path class="cls-2" d="M1578.9,293.2h-7l-1.5,3.4h-1.4l5.8-12.6h1.3l5.8,12.6h-1.4l-1.6-3.4ZM1578.4,292.2l-3-6.8-3,6.8h6Z"/>
  </g>
  <g>
    <path class="cls-2" d="M462.1,326.9h-7.5v-10.9h1.5v4.3h4.6v-4.3h1.4v10.9ZM456.1,325.7h4.6v-4.2h-4.6v4.2ZM466.4,330.8h-1.5v-16.1h1.5v6.3h2.7v1.2h-2.7v8.6Z"/>
    <path class="cls-2" d="M478.1,325.2v1.2c-2.2.4-4,.5-6,.5h-1.1v-6h4.3v-3.2h-4.3v-1.2h5.8v5.6h-4.3v3.6c1.8-.1,3.5-.1,5.6-.5ZM480.9,330h-1.4v-8.3h-2v-1.2h2v-5.4h1.4v14.9ZM482.8,330.8v-16.2h1.4v16.2h-1.4Z"/>
    <path class="cls-2" d="M491.6,323.8c-2.4,0-4.2-1.7-4.2-4s1.8-4,4.2-4,4.2,1.6,4.2,4c0,2.3-1.8,4-4.2,4ZM491.6,322.5c1.6,0,2.8-1.1,2.8-2.7s-1.2-2.7-2.8-2.7-2.8,1.1-2.8,2.7c0,1.6,1.3,2.7,2.8,2.7ZM489.9,330.5v-5.2h1.5v4h9.4v1.2h-10.9ZM498.9,314.7h1.5v11.8h-1.5v-11.8Z"/>
  </g>
  <g>
    <path class="cls-2" d="M430.3,297.7h-4.4v-1.2h10.2v1.2h-4.4v11.4h-1.3v-11.4h-.1Z"/>
    <path class="cls-2" d="M443.5,300.5c.7.6,1,1.5,1,2.7v5.9h-1.2v-1.5c-.3.5-.7.9-1.3,1.2-.6.3-1.2.4-2,.4s-1.9-.3-2.5-.8-.9-1.2-.9-2,.3-1.5.9-1.9,1.5-.7,2.8-.7h3v-.6c0-.8-.2-1.4-.7-1.9-.5-.4-1.1-.6-2-.6s-1.2.1-1.7.3c-.6.2-1,.5-1.4.8l-.6-1c.5-.4,1.1-.7,1.7-.9.7-.2,1.4-.3,2.1-.3,1.2,0,2.2.3,2.8.9ZM442.1,307.7c.5-.3.9-.8,1.2-1.4v-1.5h-3c-1.6,0-2.4.6-2.4,1.7s.2,1,.6,1.3,1,.5,1.8.5c.7-.1,1.3-.3,1.8-.6Z"/>
    <path class="cls-2" d="M448,297.3c-.2-.2-.3-.4-.3-.6s.1-.4.3-.6c.2-.2.4-.3.7-.3s.5.1.7.3c.2.2.3.4.3.6,0,.3-.1.5-.3.7-.2.2-.4.3-.7.3-.3,0-.5-.2-.7-.4ZM448,299.6h1.3v9.5h-1.3v-9.5Z"/>
    <path class="cls-2" d="M460.5,300.6c.7.7,1.1,1.7,1.1,3v5.5h-1.3v-5.4c0-1-.2-1.7-.7-2.3-.5-.5-1.2-.8-2.1-.8s-1.8.3-2.4.9-.9,1.4-.9,2.5v5h-1.3v-13.4h1.3v5.5c.3-.6.8-1,1.4-1.3s1.3-.5,2.1-.5c1.2.3,2.1.6,2.8,1.3Z"/>
    <path class="cls-2" d="M471.2,300.5c.7.6,1,1.5,1,2.7v5.9h-1.2v-1.5c-.3.5-.7.9-1.3,1.2-.6.3-1.2.4-2,.4s-1.9-.3-2.5-.8-.9-1.2-.9-2,.3-1.5.9-1.9,1.5-.7,2.8-.7h3v-.6c0-.8-.2-1.4-.7-1.9-.5-.4-1.1-.6-2-.6s-1.2.1-1.7.3c-.6.2-1,.5-1.4.8l-.6-1c.5-.4,1.1-.7,1.7-.9.7-.2,1.4-.3,2.1-.3,1.2,0,2.1.3,2.8.9ZM469.8,307.7c.5-.3.9-.8,1.2-1.4v-1.5h-3c-1.6,0-2.4.6-2.4,1.7s.2,1,.6,1.3,1,.5,1.8.5c.6-.1,1.2-.3,1.8-.6Z"/>
    <path class="cls-2" d="M483.3,300.6c.7.7,1.1,1.7,1.1,3v5.5h-1.3v-5.4c0-1-.2-1.7-.7-2.3-.5-.5-1.2-.8-2.1-.8s-1.8.3-2.4.9-.9,1.4-.9,2.5v5h-1.3v-9.5h1.2v1.7c.3-.6.8-1,1.4-1.3s1.3-.5,2.2-.5c1.2.2,2.1.5,2.8,1.2Z"/>
    <path class="cls-2" d="M496.7,303.2l-2.6,2.6v3.3h-1.3v-12.6h1.3v7.6l7.4-7.6h1.5l-5.5,5.7,5.8,6.9h-1.6l-5-5.9Z"/>
    <path class="cls-2" d="M513.5,299.6v9.5h-1.2v-1.7c-.3.6-.8,1-1.4,1.3s-1.3.5-2,.5c-1.2,0-2.2-.3-2.9-1-.7-.7-1.1-1.7-1.1-3v-5.5h1.3v5.4c0,1,.2,1.8.7,2.3s1.2.8,2.1.8,1.8-.3,2.4-.9.9-1.4.9-2.5v-5h1.2v-.2Z"/>
    <path class="cls-2" d="M531,299.6l-3.6,9.5h-1.2l-3-7.8-3,7.8h-1.2l-3.6-9.5h1.2l3,8,3-8h1.1l3,8,3-8h1.3Z"/>
    <path class="cls-2" d="M538.8,300.5c.7.6,1,1.5,1,2.7v5.9h-1.2v-1.5c-.3.5-.7.9-1.3,1.2-.6.3-1.2.4-2,.4s-1.9-.3-2.5-.8-.9-1.2-.9-2,.3-1.5.9-1.9,1.5-.7,2.8-.7h3v-.6c0-.8-.2-1.4-.7-1.9-.5-.4-1.1-.6-2-.6s-1.2.1-1.7.3c-.6.2-1,.5-1.4.8l-.6-1c.5-.4,1.1-.7,1.7-.9.7-.2,1.4-.3,2.1-.3,1.2,0,2.2.3,2.8.9ZM537.4,307.7c.5-.3.9-.8,1.2-1.4v-1.5h-3c-1.6,0-2.4.6-2.4,1.7s.2,1,.6,1.3,1,.5,1.8.5c.6-.1,1.3-.3,1.8-.6Z"/>
    <path class="cls-2" d="M543.3,297.3c-.2-.2-.3-.4-.3-.6s0-.4.3-.6.4-.3.7-.3.5.1.7.3c.2.2.3.4.3.6,0,.3,0,.5-.3.7s-.4.3-.7.3c-.3,0-.6-.2-.7-.4ZM543.3,299.6h1.3v9.5h-1.3v-9.5Z"/>
    <path class="cls-2" d="M553.1,308.5c-.2.2-.5.4-.9.5s-.7.2-1.1.2c-.9,0-1.6-.2-2.1-.7s-.7-1.2-.7-2v-5.7h-1.7v-1.1h1.7v-2.1h1.3v2.1h2.9v1.1h-2.9v5.7c0,.6,0,1,.4,1.3.3.3.7.4,1.2.4s.5,0,.8-.1c.2-.1.5-.2.6-.4l.5.8Z"/>
  </g>
  <circle class="cls-7" cx="419.2" cy="349.7" r="2.8"/>
  <g>
    <path class="cls-2" d="M298.5,353.3c-.9-.3-1.5-.7-2-1.2l.5-1c.5.5,1.1.8,1.8,1.1.8.3,1.5.4,2.3.4s2-.2,2.5-.6c.6-.4.8-1,.8-1.6s-.2-.9-.5-1.2c-.3-.3-.7-.5-1.1-.7s-1.1-.3-1.9-.5c-.9-.2-1.7-.5-2.3-.7-.6-.2-1-.6-1.4-1-.4-.5-.6-1.1-.6-1.9s.2-1.2.5-1.7.9-.9,1.5-1.3c.7-.3,1.6-.5,2.6-.5s1.4.1,2.1.3c.7.2,1.3.5,1.8.8l-.5,1.1c-.5-.3-1.1-.6-1.7-.8-.6-.2-1.2-.3-1.8-.3-1.1,0-1.9.2-2.5.6s-.8,1-.8,1.6.2.9.5,1.2c.3.3.7.5,1.2.7s1.1.3,1.9.5c.9.2,1.7.5,2.2.7.6.2,1.1.6,1.4,1s.6,1.1.6,1.8-.2,1.2-.5,1.7-.9.9-1.6,1.2c-.7.3-1.6.5-2.6.5-.6.2-1.5.1-2.4-.2Z"/>
    <path class="cls-2" d="M314.7,345c.7.6,1,1.5,1,2.7v5.9h-1.2v-1.5c-.3.5-.7.9-1.3,1.2-.6.3-1.2.4-2,.4s-1.9-.3-2.5-.8-.9-1.2-.9-2,.3-1.5.9-1.9c.6-.5,1.5-.7,2.8-.7h3v-.6c0-.8-.2-1.4-.7-1.9s-1.1-.6-2-.6-1.2.1-1.7.3c-.6.2-1,.5-1.4.8l-.6-1c.5-.4,1.1-.7,1.7-.9.7-.2,1.4-.3,2.1-.3,1.2,0,2.1.3,2.8.9ZM313.2,352.2c.5-.3.9-.8,1.2-1.4v-1.5h-3c-1.6,0-2.4.6-2.4,1.7s.2,1,.6,1.3,1,.5,1.8.5c.7-.1,1.3-.3,1.8-.6Z"/>
    <path class="cls-2" d="M327.7,344.1v9.5h-1.2v-1.7c-.3.6-.8,1-1.4,1.3s-1.3.5-2,.5c-1.2,0-2.2-.3-2.9-1-.7-.7-1.1-1.7-1.1-3v-5.5h1.3v5.4c0,1,.2,1.8.7,2.3s1.2.8,2.1.8,1.8-.3,2.4-.9.9-1.4.9-2.5v-5h1.2v-.2Z"/>
    <path class="cls-2" d="M339.9,340.2v13.4h-1.2v-1.9c-.4.6-.9,1.1-1.5,1.5-.6.3-1.3.5-2.1.5s-1.7-.2-2.4-.6c-.7-.4-1.3-1-1.7-1.7-.4-.7-.6-1.6-.6-2.5s.2-1.8.6-2.5,1-1.3,1.7-1.7c.7-.4,1.5-.6,2.4-.6s1.5.2,2.1.5,1.1.8,1.5,1.4v-5.7h1.2ZM336.9,352.1c.5-.3,1-.7,1.3-1.3.3-.6.5-1.2.5-1.9s-.2-1.4-.5-1.9c-.3-.6-.7-1-1.3-1.3-.5-.3-1.1-.5-1.8-.5s-1.3.2-1.8.5-1,.7-1.3,1.3c-.3.6-.5,1.2-.5,1.9s.2,1.4.5,1.9c.3.6.7,1,1.3,1.3.5.3,1.1.5,1.8.5s1.3-.2,1.8-.5Z"/>
    <path class="cls-2" d="M343.4,341.8c-.2-.2-.3-.4-.3-.6s.1-.5.3-.6c.2-.2.4-.3.7-.3s.5.1.7.3c.2.2.3.4.3.6,0,.3-.1.5-.3.7-.2.2-.4.3-.7.3-.3,0-.5-.2-.7-.4ZM343.5,344.1h1.3v9.5h-1.3v-9.5Z"/>
    <path class="cls-2" d="M355.7,342.2h-4.4v-1.2h10.2v1.2h-4.4v11.4h-1.3v-11.4h-.1Z"/>
    <path class="cls-2" d="M369,345c.7.6,1,1.5,1,2.7v5.9h-1.2v-1.5c-.3.5-.7.9-1.3,1.2-.6.3-1.2.4-2,.4s-1.9-.3-2.5-.8-.9-1.2-.9-2,.3-1.5.9-1.9c.6-.5,1.5-.7,2.8-.7h3v-.6c0-.8-.2-1.4-.7-1.9s-1.1-.6-2-.6-1.2.1-1.7.3c-.6.2-1,.5-1.4.8l-.6-1c.5-.4,1.1-.7,1.7-.9.7-.2,1.4-.3,2.1-.3,1.2,0,2.1.3,2.8.9ZM367.5,352.2c.5-.3.9-.8,1.2-1.4v-1.5h-3c-1.6,0-2.4.6-2.4,1.7s.2,1,.6,1.3,1,.5,1.8.5c.7-.1,1.3-.3,1.8-.6Z"/>
    <path class="cls-2" d="M373.4,341.8c-.2-.2-.3-.4-.3-.6s.1-.5.3-.6c.2-.2.4-.3.7-.3s.5.1.7.3c.2.2.3.4.3.6,0,.3-.1.5-.3.7-.2.2-.4.3-.7.3-.3,0-.5-.2-.7-.4ZM373.4,344.1h1.3v9.5h-1.3v-9.5Z"/>
    <path class="cls-2" d="M385.9,345.1c.7.7,1.1,1.7,1.1,3v5.5h-1.3v-5.4c0-1-.2-1.7-.7-2.3-.5-.5-1.2-.8-2.1-.8s-1.8.3-2.4.9-.9,1.4-.9,2.5v5h-1.3v-13.4h1.3v5.5c.3-.6.8-1,1.4-1.3s1.3-.5,2.1-.5c1.2.3,2.1.6,2.8,1.3Z"/>
    <path class="cls-2" d="M396.6,345c.7.6,1,1.5,1,2.7v5.9h-1.2v-1.5c-.3.5-.7.9-1.3,1.2-.6.3-1.2.4-2,.4s-1.9-.3-2.5-.8-.9-1.2-.9-2,.3-1.5.9-1.9c.6-.5,1.5-.7,2.8-.7h3v-.6c0-.8-.2-1.4-.7-1.9s-1.1-.6-2-.6-1.2.1-1.7.3c-.6.2-1,.5-1.4.8l-.6-1c.5-.4,1.1-.7,1.7-.9.7-.2,1.4-.3,2.1-.3,1.2,0,2.2.3,2.8.9ZM395.2,352.2c.5-.3.9-.8,1.2-1.4v-1.5h-3c-1.6,0-2.4.6-2.4,1.7s.2,1,.6,1.3,1,.5,1.8.5c.7-.1,1.3-.3,1.8-.6Z"/>
    <path class="cls-2" d="M408.8,345.1c.7.7,1.1,1.7,1.1,3v5.5h-1.3v-5.4c0-1-.2-1.7-.7-2.3-.5-.5-1.2-.8-2.1-.8s-1.8.3-2.4.9-.9,1.4-.9,2.5v5h-1.3v-9.5h1.2v1.7c.3-.6.8-1,1.4-1.3s1.3-.5,2.2-.5c1.1.2,2.1.5,2.8,1.2Z"/>
  </g>
  <g class="cls-12">
    <path class="cls-2" d="M715,585.1h-4.4v-1.2h10.2v1.2h-4.4v11.4h-1.4v-11.4Z"/>
    <path class="cls-2" d="M728.3,587.9c.7.6,1,1.5,1,2.7v5.9h-1.2v-1.5c-.3.5-.7.9-1.3,1.2s-1.2.4-2,.4-1.9-.3-2.5-.8-.9-1.2-.9-2,.3-1.5.9-1.9c.6-.5,1.5-.7,2.8-.7h3v-.6c0-.8-.2-1.4-.7-1.9s-1.1-.6-2-.6-1.2,0-1.7.3c-.6.2-1,.5-1.4.8l-.6-1c.5-.4,1.1-.7,1.7-.9.7-.2,1.4-.3,2.1-.3,1.2,0,2.1.3,2.8.9ZM726.9,595.1c.5-.3.9-.8,1.2-1.4v-1.5h-3c-1.6,0-2.4.6-2.4,1.7s.2,1,.6,1.3c.4.3,1,.5,1.8.5.6,0,1.2-.3,1.8-.6Z"/>
    <path class="cls-2" d="M732.7,584.7c-.2-.2-.3-.4-.3-.6s0-.5.3-.6c.2-.2.4-.3.7-.3s.5,0,.7.3.3.4.3.6c0,.3,0,.5-.3.7s-.4.3-.7.3-.5-.2-.7-.4ZM732.8,587h1.3v9.5h-1.3v-9.5Z"/>
    <path class="cls-2" d="M745.3,588c.7.7,1.1,1.7,1.1,3v5.5h-1.4v-5.4c0-1-.2-1.7-.7-2.3-.5-.5-1.2-.8-2.1-.8s-1.8.3-2.4.9-.9,1.4-.9,2.5v5h-1.3v-13.4h1.3v5.5c.3-.6.8-1,1.4-1.3s1.3-.5,2.1-.5c1.2.3,2.2.6,2.9,1.3Z"/>
    <path class="cls-2" d="M755.9,587.9c.7.6,1,1.5,1,2.7v5.9h-1.2v-1.5c-.3.5-.7.9-1.3,1.2s-1.2.4-2,.4-1.9-.3-2.5-.8-.9-1.2-.9-2,.3-1.5.9-1.9c.6-.5,1.5-.7,2.8-.7h3v-.6c0-.8-.2-1.4-.7-1.9s-1.1-.6-2-.6-1.2,0-1.7.3c-.6.2-1,.5-1.4.8l-.6-1c.5-.4,1.1-.7,1.7-.9.7-.2,1.4-.3,2.1-.3,1.2,0,2.2.3,2.8.9ZM754.5,595.1c.5-.3.9-.8,1.2-1.4v-1.5h-3c-1.6,0-2.4.6-2.4,1.7s.2,1,.6,1.3c.4.3,1,.5,1.8.5.7,0,1.3-.3,1.8-.6Z"/>
    <path class="cls-2" d="M768.1,588c.7.7,1.1,1.7,1.1,3v5.5h-1.3v-5.4c0-1-.2-1.7-.7-2.3-.5-.5-1.2-.8-2.1-.8s-1.8.3-2.4.9-.9,1.4-.9,2.5v5h-1.3v-9.4h1.2v1.7c.3-.6.8-1,1.4-1.3.6-.3,1.3-.5,2.2-.5,1.1,0,2.1.4,2.8,1.1Z"/>
    <path class="cls-2" d="M785.5,593.1h-7l-1.5,3.4h-1.4l5.8-12.6h1.3l5.8,12.6h-1.5l-1.5-3.4ZM785,592.1l-3-6.8-3,6.8h6Z"/>
    <path class="cls-2" d="M798.6,587v9.5h-1.2v-1.7c-.3.6-.8,1-1.4,1.3-.6.3-1.3.5-2,.5-1.2,0-2.2-.3-2.9-1s-1.1-1.7-1.1-3v-5.6h1.3v5.4c0,1,.2,1.8.7,2.3s1.2.8,2.1.8,1.8-.3,2.4-.9.9-1.4.9-2.5v-5h1.2Z"/>
    <path class="cls-2" d="M802.5,596.3c-.7-.2-1.3-.5-1.6-.8l.6-1c.4.3.9.6,1.5.8s1.2.3,1.9.3,1.5,0,1.9-.4c.4-.3.6-.7.6-1.1s0-.6-.3-.8-.5-.3-.9-.5c-.3,0-.8-.2-1.4-.3-.8,0-1.4-.3-1.9-.4-.5,0-.9-.4-1.2-.8-.3-.4-.5-.9-.5-1.5s.3-1.4,1-1.9,1.6-.8,2.8-.8,1.2,0,1.8.2c.6.2,1.1.4,1.5.6l-.6,1c-.8-.5-1.7-.8-2.8-.8s-1.4,0-1.8.4-.6.7-.6,1.1,0,.6.4.9.5.4.9.5c.3,0,.8.2,1.4.3.8,0,1.4.3,1.8.4.5,0,.8.4,1.2.7s.5.8.5,1.4-.3,1.5-1,2-1.6.7-2.9.7c-.9,0-1.6,0-2.3-.2Z"/>
    <path class="cls-2" d="M815.9,595.9c-.2.2-.5.4-.9.5s-.7.2-1.1.2c-.9,0-1.6-.2-2.1-.7s-.7-1.2-.7-2v-5.7h-1.7v-1.2h1.7v-2h1.3v2.1h2.9v1.1h-2.9v5.7c0,.6,0,1,.4,1.3.3.3.7.4,1.2.4s.5,0,.8,0,.5-.2.6-.4l.5.8Z"/>
    <path class="cls-2" d="M820.8,587.4c.6-.3,1.3-.5,2.2-.5v1.2h-.3c-1,0-1.8.3-2.3.9-.6.6-.8,1.5-.8,2.6v4.8h-1.3v-9.4h1.2v1.9c.3-.6.7-1.1,1.3-1.5Z"/>
    <path class="cls-2" d="M831.5,587.9c.7.6,1,1.5,1,2.7v5.9h-1.2v-1.5c-.3.5-.7.9-1.3,1.2s-1.2.4-2,.4-1.9-.3-2.5-.8-.9-1.2-.9-2,.3-1.5.9-1.9c.6-.5,1.5-.7,2.8-.7h3v-.6c0-.8-.2-1.4-.7-1.9s-1.1-.6-2-.6-1.2,0-1.7.3c-.6.2-1,.5-1.4.8l-.6-1c.5-.4,1.1-.7,1.7-.9.7-.2,1.4-.3,2.1-.3,1.2,0,2.1.3,2.8.9ZM830,595.1c.5-.3.9-.8,1.2-1.4v-1.5h-3c-1.6,0-2.4.6-2.4,1.7s.2,1,.6,1.3c.4.3,1,.5,1.8.5.7,0,1.3-.3,1.8-.6Z"/>
    <path class="cls-2" d="M835.9,583.1h1.3v13.4h-1.3v-13.4Z"/>
    <path class="cls-2" d="M840.8,584.7c-.2-.2-.3-.4-.3-.6s0-.5.3-.6c.2-.2.4-.3.7-.3s.5,0,.7.3.3.4.3.6c0,.3,0,.5-.3.7s-.4.3-.7.3-.6-.2-.7-.4ZM840.8,587h1.3v9.5h-1.3v-9.5Z"/>
    <path class="cls-2" d="M851.8,587.9c.7.6,1,1.5,1,2.7v5.9h-1.2v-1.5c-.3.5-.7.9-1.3,1.2s-1.2.4-2,.4-1.9-.3-2.5-.8-.9-1.2-.9-2,.3-1.5.9-1.9c.6-.5,1.5-.7,2.8-.7h3v-.6c0-.8-.2-1.4-.7-1.9s-1.1-.6-2-.6-1.2,0-1.7.3c-.6.2-1,.5-1.4.8l-.6-1c.5-.4,1.1-.7,1.7-.9.7-.2,1.4-.3,2.1-.3,1.2,0,2.1.3,2.8.9ZM850.3,595.1c.5-.3.9-.8,1.2-1.4v-1.5h-3c-1.6,0-2.4.6-2.4,1.7s.2,1,.6,1.3c.4.3,1,.5,1.8.5.7,0,1.3-.3,1.8-.6Z"/>
  </g>
  <g>
    <path class="cls-2" d="M979.1,611.5h-4.4v-1.2h10.2v1.2h-4.4v11.4h-1.3v-11.4h0Z"/>
    <path class="cls-2" d="M992.3,614.3c.7.6,1,1.5,1,2.7v5.9h-1.2v-1.5c-.3.5-.7.9-1.3,1.2s-1.2.4-2,.4-1.9-.3-2.5-.8-.9-1.2-.9-2,.3-1.5.9-1.9c.6-.5,1.5-.7,2.8-.7h3v-.6c0-.8-.2-1.4-.7-1.9s-1.1-.6-2-.6-1.2,0-1.7.3c-.6.2-1,.5-1.4.8l-.6-1c.5-.4,1.1-.7,1.7-.9.7-.2,1.4-.3,2.1-.3,1.2,0,2.2.3,2.8.9ZM990.9,621.5c.5-.3.9-.8,1.2-1.4v-1.5h-3c-1.6,0-2.4.6-2.4,1.7s.2,1,.6,1.3c.4.3,1,.5,1.8.5.7,0,1.3-.3,1.8-.6Z"/>
    <path class="cls-2" d="M996.8,611.1c-.2-.2-.3-.4-.3-.6s0-.5.3-.6c.2-.2.4-.3.7-.3s.5,0,.7.3.3.4.3.6c0,.3,0,.5-.3.7s-.4.3-.7.3-.5-.2-.7-.4ZM996.8,613.4h1.3v9.5h-1.3v-9.5Z"/>
    <path class="cls-2" d="M1009.3,614.4c.7.7,1.1,1.7,1.1,3v5.5h-1.3v-5.4c0-1-.2-1.7-.7-2.3-.5-.5-1.2-.8-2.1-.8s-1.8.3-2.4.9-.9,1.4-.9,2.5v5h-1.3v-13.4h1.3v5.5c.3-.6.8-1,1.4-1.3s1.3-.5,2.1-.5c1.2.3,2.1.6,2.8,1.3Z"/>
    <path class="cls-2" d="M1020,614.3c.7.6,1,1.5,1,2.7v5.9h-1.2v-1.5c-.3.5-.7.9-1.3,1.2s-1.2.4-2,.4-1.9-.3-2.5-.8-.9-1.2-.9-2,.3-1.5.9-1.9c.6-.5,1.5-.7,2.8-.7h3v-.6c0-.8-.2-1.4-.7-1.9s-1.1-.6-2-.6-1.2,0-1.7.3c-.6.2-1,.5-1.4.8l-.6-1c.5-.4,1.1-.7,1.7-.9.7-.2,1.4-.3,2.1-.3,1.2,0,2.1.3,2.8.9ZM1018.6,621.5c.5-.3.9-.8,1.2-1.4v-1.5h-3c-1.6,0-2.4.6-2.4,1.7s.2,1,.6,1.3c.4.3,1,.5,1.8.5.6,0,1.2-.3,1.8-.6Z"/>
    <path class="cls-2" d="M1032.1,614.4c.7.7,1.1,1.7,1.1,3v5.5h-1.3v-5.4c0-1-.2-1.7-.7-2.3-.5-.5-1.2-.8-2.1-.8s-1.8.3-2.4.9c-.6.6-.9,1.4-.9,2.5v5h-1.3v-9.5h1.2v1.7c.3-.6.8-1,1.4-1.3s1.3-.5,2.2-.5c1.2.2,2.1.5,2.8,1.2Z"/>
    <path class="cls-2" d="M1052.2,610.3v12.6h-1.1l-8.1-10.2v10.2h-1.3v-12.6h1.1l8.1,10.2v-10.2h1.3Z"/>
    <path class="cls-2" d="M1064.2,618.6h-7.9c0,1,.4,1.8,1.1,2.4.7.6,1.5.9,2.6.9s1.1,0,1.6-.3.9-.5,1.3-.9l.7.8c-.4.5-.9.9-1.6,1.2s-1.3.4-2.1.4-1.8-.2-2.6-.6-1.3-1-1.8-1.7c-.4-.7-.6-1.6-.6-2.5s.2-1.8.6-2.5,1-1.3,1.7-1.7,1.5-.6,2.4-.6,1.7.2,2.4.6c.7.4,1.2,1,1.6,1.7s.6,1.6.6,2.5v.3ZM1057.4,615.3c-.6.6-1,1.3-1.1,2.3h6.7c0-.9-.4-1.7-1.1-2.3-.6-.6-1.4-.9-2.3-.9-.8.1-1.6.3-2.2.9Z"/>
    <path class="cls-2" d="M1080.6,613.4l-3.6,9.5h-1.2l-3-7.8-3,7.8h-1.2l-3.6-9.5h1.2l3,8,3-8h1.1l3,8,3-8h1.3Z"/>
    <path class="cls-2" d="M1096.6,621.7v1.2h-10.3v-.9l8.4-10.5h-8.2v-1.2h10v.9l-8.3,10.5h8.4Z"/>
    <path class="cls-2" d="M1106.9,618.6h-7.9c0,1,.4,1.8,1.1,2.4.7.6,1.5.9,2.6.9s1.1,0,1.6-.3.9-.5,1.3-.9l.7.8c-.4.5-.9.9-1.6,1.2s-1.3.4-2.1.4-1.8-.2-2.6-.6-1.3-1-1.8-1.7c-.4-.7-.6-1.6-.6-2.5s.2-1.8.6-2.5,1-1.3,1.7-1.7,1.5-.6,2.4-.6,1.7.2,2.4.6c.7.4,1.2,1,1.6,1.7s.6,1.6.6,2.5v.3ZM1100,615.3c-.6.6-1,1.3-1.1,2.3h6.7c0-.9-.4-1.7-1.1-2.3-.6-.6-1.4-.9-2.3-.9-.8.1-1.5.3-2.2.9Z"/>
    <path class="cls-2" d="M1115.4,614.3c.7.6,1,1.5,1,2.7v5.9h-1.2v-1.5c-.3.5-.7.9-1.3,1.2-.6.3-1.2.4-2,.4s-1.9-.3-2.5-.8-.9-1.2-.9-2,.3-1.5.9-1.9c.6-.5,1.5-.7,2.8-.7h3v-.6c0-.8-.2-1.4-.7-1.9s-1.1-.6-2-.6-1.2,0-1.7.3c-.6.2-1,.5-1.4.8l-.6-1c.5-.4,1.1-.7,1.7-.9.7-.2,1.4-.3,2.1-.3,1.2,0,2.2.3,2.8.9ZM1114,621.5c.5-.3.9-.8,1.2-1.4v-1.5h-3c-1.6,0-2.4.6-2.4,1.7s.2,1,.6,1.3,1,.5,1.8.5c.7,0,1.3-.3,1.8-.6Z"/>
    <path class="cls-2" d="M1119.9,609.5h1.3v13.4h-1.3v-13.4Z"/>
    <path class="cls-2" d="M1130.9,614.3c.7.6,1,1.5,1,2.7v5.9h-1.2v-1.5c-.3.5-.7.9-1.3,1.2-.6.3-1.2.4-2,.4s-1.9-.3-2.5-.8-.9-1.2-.9-2,.3-1.5.9-1.9c.6-.5,1.5-.7,2.8-.7h3v-.6c0-.8-.2-1.4-.7-1.9s-1.1-.6-2-.6-1.2,0-1.7.3c-.6.2-1,.5-1.4.8l-.6-1c.5-.4,1.1-.7,1.7-.9.7-.2,1.4-.3,2.1-.3,1.2,0,2.1.3,2.8.9ZM1129.5,621.5c.5-.3.9-.8,1.2-1.4v-1.5h-3c-1.6,0-2.4.6-2.4,1.7s.2,1,.6,1.3,1,.5,1.8.5c.6,0,1.2-.3,1.8-.6Z"/>
    <path class="cls-2" d="M1143,614.4c.7.7,1.1,1.7,1.1,3v5.5h-1.3v-5.4c0-1-.2-1.7-.7-2.3-.5-.5-1.2-.8-2.1-.8s-1.8.3-2.4.9c-.6.6-.9,1.4-.9,2.5v5h-1.3v-9.5h1.2v1.7c.3-.6.8-1,1.4-1.3s1.3-.5,2.2-.5c1.2.2,2.1.5,2.8,1.2Z"/>
    <path class="cls-2" d="M1156.2,609.5v13.4h-1.2v-1.9c-.4.6-.9,1.1-1.5,1.5s-1.3.5-2.1.5-1.7-.2-2.4-.6c-.7-.4-1.3-1-1.7-1.7-.4-.7-.6-1.6-.6-2.5s.2-1.8.6-2.5,1-1.3,1.7-1.7,1.5-.6,2.4-.6,1.5.2,2.1.5,1.1.8,1.5,1.4v-5.7h1.2ZM1153.2,621.4c.5-.3,1-.7,1.3-1.3s.5-1.2.5-1.9-.2-1.4-.5-1.9c-.3-.6-.7-1-1.3-1.3-.5-.3-1.1-.5-1.8-.5s-1.3.2-1.8.5-1,.7-1.3,1.3-.5,1.2-.5,1.9.2,1.4.5,1.9c.3.6.7,1,1.3,1.3s1.1.5,1.8.5,1.3-.2,1.8-.5Z"/>
  </g>
  <g>
    <path class="cls-2" d="M687.8,395.2h-4.4v-1.2h10.2v1.2h-4.4v11.4h-1.3v-11.4h0Z"/>
    <path class="cls-2" d="M701,398c.7.6,1,1.5,1,2.7v5.9h-1.2v-1.5c-.3.5-.7.9-1.3,1.2-.6.3-1.2.4-2,.4s-1.9-.3-2.5-.8-.9-1.2-.9-2,.3-1.5.9-1.9c.6-.5,1.5-.7,2.8-.7h3v-.6c0-.8-.2-1.4-.7-1.9s-1.1-.6-2-.6-1.2.1-1.7.3c-.6.2-1,.5-1.4.8l-.6-1c.5-.4,1.1-.7,1.7-.9.7-.2,1.4-.3,2.1-.3,1.2,0,2.2.3,2.8.9ZM699.6,405.2c.5-.3.9-.8,1.2-1.4v-1.5h-3c-1.6,0-2.4.6-2.4,1.7s.2,1,.6,1.3c.4.3,1,.5,1.8.5.7-.1,1.3-.3,1.8-.6Z"/>
    <path class="cls-2" d="M705.5,394.8c-.2-.2-.3-.4-.3-.6s0-.5.3-.6c.2-.2.4-.3.7-.3s.5.1.7.3c.2.2.3.4.3.6,0,.3,0,.5-.3.7s-.4.3-.7.3-.5-.2-.7-.4ZM705.5,397.1h1.3v9.5h-1.3v-9.5Z"/>
    <path class="cls-2" d="M718,398.1c.7.7,1.1,1.7,1.1,3v5.5h-1.3v-5.4c0-1-.2-1.7-.7-2.3-.5-.5-1.2-.8-2.1-.8s-1.8.3-2.4.9c-.6.6-.9,1.4-.9,2.5v5h-1.3v-13.4h1.3v5.5c.3-.6.8-1,1.4-1.3s1.3-.5,2.1-.5c1.2.3,2.1.6,2.8,1.3Z"/>
    <path class="cls-2" d="M728.7,398c.7.6,1,1.5,1,2.7v5.9h-1.2v-1.5c-.3.5-.7.9-1.3,1.2-.6.3-1.2.4-2,.4s-1.9-.3-2.5-.8-.9-1.2-.9-2,.3-1.5.9-1.9c.6-.5,1.5-.7,2.8-.7h3v-.6c0-.8-.2-1.4-.7-1.9s-1.1-.6-2-.6-1.2.1-1.7.3c-.6.2-1,.5-1.4.8l-.6-1c.5-.4,1.1-.7,1.7-.9.7-.2,1.4-.3,2.1-.3,1.2,0,2.1.3,2.8.9ZM727.3,405.2c.5-.3.9-.8,1.2-1.4v-1.5h-3c-1.6,0-2.4.6-2.4,1.7s.2,1,.6,1.3c.4.3,1,.5,1.8.5.6-.1,1.2-.3,1.8-.6Z"/>
    <path class="cls-2" d="M740.8,398.1c.7.7,1.1,1.7,1.1,3v5.5h-1.3v-5.4c0-1-.2-1.7-.7-2.3-.5-.5-1.2-.8-2.1-.8s-1.8.3-2.4.9c-.6.6-.9,1.4-.9,2.5v5h-1.3v-9.5h1.2v1.7c.3-.6.8-1,1.4-1.3.6-.3,1.3-.5,2.2-.5,1.2.2,2.1.5,2.8,1.2Z"/>
    <path class="cls-2" d="M760.8,394l-5.6,12.6h-1.3l-5.6-12.6h1.4l4.8,10.9,4.9-10.9h1.4Z"/>
    <path class="cls-2" d="M762.6,394h1.3v12.6h-1.3v-12.6Z"/>
    <path class="cls-2" d="M778.6,394v12.6h-1.1l-8.1-10.2v10.2h-1.3v-12.6h1.1l8.1,10.2v-10.2h1.3Z"/>
    <path class="cls-2" d="M790.6,403.2h-7l-1.5,3.4h-1.4l5.8-12.6h1.3l5.8,12.6h-1.4l-1.6-3.4ZM790.1,402.2l-3-6.8-3,6.8h6Z"/>
  </g>
</svg>