<svg width="1920" height="700" viewBox="0 0 1920 700" fill="none" xmlns="http://www.w3.org/2000/svg">
<g clip-path="url(#clip0_40_9298)">
<mask id="mask0_40_9298" style="mask-type:luminance" maskUnits="userSpaceOnUse" x="0" y="0" width="1920" height="700">
<path d="M1920 0H0V700H1920V0Z" fill="white"/>
</mask>
<g mask="url(#mask0_40_9298)">
<path d="M277.1 439.5C277.1 443.5 279.1 451.5 283.1 459.6C287.1 467.6 287.1 461.6 291.1 457.6C295.1 453.6 303.1 461.6 303.1 461.6C307.1 463.6 339.2 471.6 345.3 473.6C351.3 475.6 353.3 467.6 353.3 459.5C353.3 451.4 359.3 357.1 359.3 357.1L375.4 363.1C375.4 363.1 423.6 417.3 425.6 421.3C427.6 425.3 427.6 425.3 427.6 427.3C427.6 429.3 431.6 433.3 431.6 433.3C431.6 433.3 435.6 435.3 437.6 437.3C439.6 439.3 441.6 441.3 447.6 441.3C453.6 441.3 451.6 447.3 451.6 447.3C445.6 461.4 477.7 453.3 477.7 453.3V441.3C477.7 441.3 509.8 425.2 523.9 419.2C538 413.2 540 417.2 540 417.2C540 417.2 546 421.2 554.1 425.2C562.1 429.2 566.1 425.2 570.2 421.2C574.2 417.2 586.3 421.2 588.3 423.2C590.3 425.2 658.6 461.3 664.6 463.3C670.6 465.3 670.6 469.3 670.6 469.3C670.6 469.3 672.6 475.3 672.6 477.3C672.6 479.3 674.6 483.3 672.6 483.3C670.6 483.3 670.6 489.3 670.6 489.3C670.6 489.3 674.6 507.4 674.6 511.4C674.6 515.4 674.6 515.4 670.6 517.4C666.6 519.4 660.6 523.4 658.6 531.5C656.6 539.5 652.6 543.5 650.6 545.6C648.6 547.7 648.6 549.6 648.6 549.6C648.6 549.6 658.6 557.6 660.6 559.6C662.6 561.6 664.6 561.6 662.6 567.6C660.6 573.6 666.6 577.6 668.6 579.6C670.6 581.6 672.6 585.6 670.6 591.6C668.6 597.6 670.6 599.6 676.6 599.6C682.6 599.6 690.7 593.6 692.7 583.5C694.7 573.5 706.8 585.5 708.8 589.5C710.8 593.5 718.8 591.5 718.8 591.5C718.8 591.5 734.9 589.5 742.9 589.5C750.9 589.5 750.9 585.5 752.9 581.5C754.9 577.5 756.9 579.5 762.9 581.5C768.9 583.5 774.9 579.5 774.9 579.5C774.9 579.5 782.9 575.5 786.9 571.5C790.9 567.5 786.9 565.5 784.9 559.5C782.9 553.5 799 551.5 799 551.5C799 551.5 799 555.5 799 559.5C799 563.5 799 567.5 801 567.5C803 567.5 805 575.5 809 583.6C813 591.6 811 581.6 811 575.6C811 569.6 815 569.6 819 567.6C823 565.6 821 561.6 821 555.6C821 549.6 827 547.6 831 547.6C835 547.6 837 541.6 837 533.5C837 525.5 841 519.4 841 517.4C841 516 845 510.6 847.2 507.6C844 503.8 839.6 502 837 499.4C833 495.4 831 481.3 833 473.3C835 465.3 831 455.2 823 445.2C815 435.2 819 433.2 813 419.1C807 405 790.9 372.9 790.9 372.9L809 368.9C809 368.9 811 374.9 815 378.9C819 382.9 829.1 405 831.1 411C833.1 417 837.1 421 847.2 431.1C857.2 441.1 853.2 463.2 853.2 463.2C853.2 469.2 857.2 475.2 863.2 479.3C869.2 483.4 873.2 489.3 873.2 495.4C873.2 501.4 889.3 521.5 891.3 525.5C893.3 529.5 897.3 535.5 895.3 539.6C893.3 543.6 899.3 561.7 899.3 569.7C899.3 573.7 899.7 577.9 900.3 581.5C901.9 583.7 903.3 586.1 903.3 587.7C903.3 591.7 887.2 629.9 887.2 629.9L901.3 637.9L961.5 639.9L889.2 702.1L881.2 708.1L944.2 722.4C949 716.4 953.2 709.8 956.8 702.7C968 681.2 978.1 658.3 987.3 635.3C991.7 624.3 995.3 611.6 991.1 598.4C989.9 598 988.5 597.2 987.9 597.6C979.5 604.2 969.8 605.4 960.2 607.4C948.8 609.8 937.1 611.8 926.1 616.4C917.9 619.8 912.7 617.8 907.8 609.8C906.2 607.2 904.4 604.6 902.8 602.2C903.6 597.4 904.4 593 905 588.6C913.4 587.8 922.1 588 929.3 580.6C931.5 578.2 935.3 578.4 938.5 577.2C943.1 575.4 947.7 573.6 952.4 571.8C966.7 566 979.3 555.3 994.2 551.3C998.8 549.9 1003.4 547.3 1004.8 540.3C1005.8 535.7 1008.8 534.1 1011.8 532.5C1015.8 530.5 1019.8 528.5 1024 527.5C1030.6 525.7 1038.3 527.3 1041.1 516.1C1041.3 514.9 1044.1 514.9 1045.5 513.9C1048.3 512.1 1052.1 510.7 1053.3 507.7C1055.9 500.5 1061.7 499.9 1066.1 496.7C1066.9 490.7 1067.9 484.9 1068.7 479.2C1071.5 478.4 1074.5 478.6 1075.5 477C1080.5 468.6 1085.1 459.5 1090 450.7C1083 439.3 1076.4 429.2 1064.3 427.4C1056.7 426.2 1052.7 418.2 1051.5 408.5C1050.9 404.5 1051.1 400.5 1050.7 394.2C1046.5 398.6 1043.3 401.8 1040.1 405.2C1025.4 422.1 1025.4 422.1 1006 423.7C1005.4 423.7 1005 423.9 1004.4 423.9C999.4 424.1 996.6 420.9 997 413.9C997.4 407.3 998.2 400.9 993.8 395C990.4 398.6 987.6 401.2 982.2 406.8C984.6 390.3 978 383.1 971.4 376.1C964.6 368.7 961.4 358.8 959 348.8C970.6 333.5 978.5 333.9 986.3 349.8C989.3 356.2 992.3 362.6 994.3 367.1C1000.9 372.1 1006.3 375.3 1011 379.9C1022.8 391.3 1035.3 392.3 1048.7 385.7C1051.1 384.5 1053.5 383.7 1055.9 382.7C1058.1 389.1 1060.1 394.7 1062.5 401.6C1078.8 404.6 1095.2 407.8 1111.7 410.8C1114.3 411.2 1116.9 409.6 1119.7 409.4C1134.8 408.4 1149.6 407.6 1163.5 406.6C1168.5 411 1171.1 417.2 1174.3 422.5C1182.5 421.7 1192.8 420.5 1195 419.5C1199 417.5 1199 415.5 1201 411.5C1203 407.5 1221.1 399.5 1227.1 397.4C1233.1 395.3 1233.1 395.4 1231.1 389.4C1229.1 383.4 1217 379.4 1211 377.4C1205 375.4 1205 363.3 1205 363.3V333.2L1227.1 335.2C1241.2 341.2 1247.2 331.2 1261.2 329.2C1275.3 327.2 1281.3 283 1281.3 279C1281.3 275 1287.3 267 1291.3 264.9C1295.3 262.9 1321.4 248.8 1331.4 240.8C1341.4 232.8 1333.4 226.7 1333.4 226.7C1333.4 226.7 1315.3 208.6 1311.3 200.6C1307.3 192.6 1301.3 194.6 1301.3 194.6C1301.3 194.6 1285.2 186.6 1279.2 182.6C1273.2 178.6 1279.2 164.5 1279.2 164.5C1279.2 164.5 1297.3 110.3 1301.3 100.3C1305.3 90.3 1307.3 80.2 1323.4 78.2C1339.5 76.2 1329.4 46.1 1329.4 36C1329.4 25.9 1319.4 -6.2 1319.4 -6.2L1300.5 -25H1232.9L1154.4 -16.2C1154.4 -16.2 1144.4 -0.1 1132.3 5.9C1120.3 11.9 1126.3 20 1130.3 22C1134.3 24 1138.3 32 1138.3 32C1156.4 62.1 1112.2 50.1 1112.2 50.1L1029.9 32L1013.8 22C1013.8 22 981.7 18 967.6 16C953.5 14 949.5 22 937.5 32.1C925.5 42.1 919.4 62.2 919.4 76.3C919.4 90.4 943.5 106.4 951.5 110.4C954.3 111.8 956.5 113.2 957.9 114.4C961.1 111.8 964.5 109.2 967.5 108.4C973.5 106.4 983.6 94.3 993.6 96.4C1003.6 98.4 1007.7 100.4 1009.7 98.4C1009.7 98.4 1015.7 110.4 1009.7 114.5C1003.7 118.5 993.6 118.5 991.6 122.5C989.6 126.5 985.6 132.5 981.6 132.5C981.6 132.5 987.6 138.5 989.6 144.5C991.6 150.5 1003.7 156.5 1003.7 158.6C1003.7 160.6 1005.7 156.6 1005.7 162.6C1005.7 168.6 1007.7 174.6 1007.7 174.6C1007.7 174.6 1009.7 172.6 1011.7 170.6C1013.7 168.6 1019.7 166.6 1021.7 170.6C1023.7 174.6 1033.7 186.7 1023.7 184.7C1013.7 182.7 1011.7 184.7 1009.6 188.7C1007.6 192.7 1009.6 194.7 1011.6 198.7C1013.6 202.7 1019.6 208.7 1019.6 220.8C1019.6 232.9 1021.6 234.9 1021.6 234.9L1027.6 246.9L1017.6 238.9C1017.6 238.9 999.5 250.9 987.5 240.9C975.5 230.9 975.5 234.9 973.4 232.9C971.4 230.9 963.4 226.9 967.4 214.8C971.4 202.8 975.4 192.7 975.4 192.7C975.4 192.7 979.4 190.7 973.4 184.7C967.4 178.7 951.3 160.6 951.3 154.6C951.3 153.8 951.3 153.2 951.3 152.6C948.3 155.4 943.9 159.4 939.3 162.6C931.3 168.6 909.2 160.6 897.1 158.6C892.5 157.8 886.3 157.6 880.6 157.8C882 159 883 161 883 164.6C883 174.6 881 178.7 873 180.7C865 182.7 836.9 182.7 830.8 178.7C824.8 174.7 804.7 164.6 798.7 166.7C792.7 168.7 782.6 168.7 774.6 172.7C766.6 176.7 768.6 182.7 748.5 178.7C739.5 176.9 734.6 176.3 731.8 175.5L708.3 194C708.3 194.2 708.3 194.6 708.3 194.8C706.3 206.8 706.3 208.9 706.3 208.9L712.3 212.9L708.3 218.9C708.3 218.9 722.4 233 720.3 241C720.3 241 728.3 247 728.3 253L732.3 245C732.3 245 758.4 261.1 760.4 243C760.4 243 770.4 241 776.5 249C782.5 257 788.5 255 794.6 251C800.6 247 810.7 245 816.7 247C816.7 247 820.7 269.1 814.7 279.1C808.7 289.1 804.7 311.2 804.7 311.2C804.7 311.2 802.7 323.2 790.6 323.2C778.6 323.2 774.5 321.2 772.5 319.2C770.5 317.2 764.5 313.2 758.4 317.2C752.4 321.2 748.4 329.2 738.3 325.2C728.3 321.2 716.2 317.2 708.2 317.2C700.2 317.2 700.2 317.2 700.2 317.2C700.2 317.2 698.2 311.2 692.2 311.2C686.2 311.2 676.1 307.2 672.1 303.2C668.1 299.2 660.1 293.2 650 299.2C640 305.2 638 307.2 638 317.3C638 327.4 638 341.4 619.9 331.4C601.8 321.4 599.8 321.4 593.8 321.4C587.8 321.4 585.8 313.4 585.8 311.4C585.8 309.4 581.8 303.4 573.8 301.4C565.8 299.4 551.7 301.4 545.7 295.4C539.7 289.4 533.7 285.4 531.6 285.4C529.6 285.4 525.6 283.4 531.6 277.4C537.6 271.4 539.6 267.4 533.6 255.3C533.6 255.3 533.6 249.3 535.6 245.3C537.6 241.3 537.6 241.3 531.6 241.3C531.6 241.3 525.6 233.3 519.6 235.3C513.6 237.3 505.5 241.3 505.5 241.3C505.5 241.3 487.4 237.3 479.4 241.3C471.4 245.3 459.3 241.3 453.3 241.3C447.3 241.3 417.2 247.3 399.1 261.4C399.1 261.4 393.1 269.4 379 265.4H364.9C364.9 265.4 360.9 265.4 357.5 263.4H347.7C343.3 277.5 336.3 287.7 323.6 292.3C314.6 295.5 311.8 307.6 307.1 316.6C303.3 323.6 305.7 331.1 306.9 337.9C298.9 354 290.6 362.6 277.2 367.8C271.6 370 268.6 374 265.2 380C258.8 392 248.3 400.9 246.5 416.9C246.3 418.5 244.5 420.1 243.3 421.3C242.9 421.7 242.7 422.1 242.3 422.3C247.3 423.9 260.4 428.5 268.4 431.7C279.2 435.5 277.1 435.5 277.1 439.5ZM728.8 188.6L722.8 186.6C722.8 186.6 734.8 180.6 738.9 186.6C738.8 186.6 736.8 192.6 728.8 188.6Z" fill="white"/>
</g>
<mask id="mask1_40_9298" style="mask-type:luminance" maskUnits="userSpaceOnUse" x="0" y="0" width="1920" height="700">
<path d="M1920 0H0V700H1920V0Z" fill="white"/>
</mask>
<g mask="url(#mask1_40_9298)">
<path d="M1920 0H0V100H1920V0Z" fill="url(#paint0_linear_40_9298)"/>
</g>
<mask id="mask2_40_9298" style="mask-type:luminance" maskUnits="userSpaceOnUse" x="0" y="0" width="1920" height="700">
<path d="M1920 0H0V700H1920V0Z" fill="white"/>
</mask>
<g mask="url(#mask2_40_9298)">
<path d="M1843.9 293C1845.56 293 1846.9 292.105 1846.9 291C1846.9 289.895 1845.56 289 1843.9 289C1842.24 289 1840.9 289.895 1840.9 291C1840.9 292.105 1842.24 293 1843.9 293Z" fill="#CAD2DB"/>
<path d="M1923.2 258.9C1923.2 258.9 1915.2 260.9 1913.2 262.9C1911.2 264.9 1881.1 289 1881.1 289C1881.1 289 1877.1 291 1877.1 295C1877.1 299 1885.1 313.1 1885.1 317.1C1885.1 321.1 1887.1 329.1 1895.1 321.1C1903.1 313.1 1903.1 293 1903.1 291C1903.1 289 1905.1 285 1907.1 289C1909.1 293 1913.1 301 1913.1 301C1913.1 301 1915.1 295 1925.1 289L1935.1 270.9L1923.2 258.9Z" fill="#CAD2DB"/>
<path d="M1786.7 407.4C1786.7 407.4 1774.7 413.4 1774.7 419.4C1774.7 425.4 1768.7 435.5 1770.7 441.5C1772.7 447.5 1778.7 457.6 1778.7 453.5C1778.7 449.5 1784.7 435.4 1786.7 429.4C1788.7 423.4 1790.7 411.4 1786.7 407.4Z" fill="#CAD2DB"/>
<path d="M1780.6 503.8L1792.6 507.8C1792.6 507.8 1794.6 513.8 1794.6 515.8C1794.6 517.8 1798.6 525.8 1796.6 529.9C1794.6 533.9 1790.6 541.9 1788.6 544C1786.6 546.1 1784.6 550 1786.6 556C1788.6 562 1790.6 564 1790.6 566C1790.6 566 1794.6 564 1798.6 566C1802.6 568 1804.6 570 1808.6 572C1812.6 574 1816.6 580 1816.6 580C1816.6 580 1816.6 592 1814.6 590C1812.6 588 1804.6 586 1804.6 584C1804.6 582 1802.6 578 1798.6 578C1794.6 578 1790.6 574 1790.6 574C1790.6 574 1786.6 572 1786.6 574C1786.6 576 1784.6 578 1784.6 580C1784.6 582 1788.6 586 1786.6 588C1784.6 590 1784.6 596 1782.6 594C1780.6 592 1774.6 584 1774.6 582C1774.6 580 1776.6 580 1776.6 578C1776.6 576 1776.6 568 1774.6 563.9C1772.6 559.8 1766.6 549.8 1766.6 545.8C1766.6 541.8 1768.6 537.8 1770.6 535.8C1772.6 533.8 1772.6 531.8 1772.6 527.8C1772.6 523.8 1772.6 503.8 1780.6 503.8Z" fill="#CAD2DB"/>
<path d="M1810.7 590.1C1810.7 590.1 1806.7 590.1 1806.7 592.1C1806.7 594.1 1806.7 596.1 1808.7 596.1C1810.7 596.1 1812.7 596.1 1812.7 594.1C1812.7 592.1 1812.7 590.1 1812.7 590.1H1810.7Z" fill="#CAD2DB"/>
<path d="M1816 590.9C1816 590.9 1822.8 600.1 1820.8 604.1C1818.8 608.1 1816.8 608.1 1818.8 612.1C1820.8 616.1 1822.8 624.1 1822.8 624.1V628.1C1822.8 628.1 1824.8 628.1 1826.8 626.1C1828.8 624.1 1828.8 616.1 1828.8 614.1C1828.8 612.1 1830.8 612.1 1830.8 610.1C1830.8 608.2 1836.8 586.1 1816 590.9Z" fill="#CAD2DB"/>
<path d="M1792.7 604.1C1792.7 604.1 1796.7 602.1 1800.7 604.1C1804.7 606.1 1804.7 610.1 1806.7 612.1C1808.7 614.1 1810.7 614.1 1814.7 614.1C1814.7 614.1 1814.7 620.1 1816.7 622.1C1818.7 624.1 1820.7 626.1 1820.7 626.1C1820.7 626.1 1822.7 628.1 1820.7 630.1C1818.7 632.1 1814.7 632.1 1810.7 634.1C1806.7 636.1 1806.7 640.1 1804.7 640.1C1804.7 640.1 1796.7 636.1 1796.7 632.1C1796.7 628.1 1800.7 626.1 1798.7 622.1C1796.7 618.1 1788.7 618.1 1790.7 614.1C1792.7 610.2 1792.7 604.1 1792.7 604.1Z" fill="#CAD2DB"/>
<path d="M1769.6 600.1C1770.15 600.1 1770.6 599.652 1770.6 599.1C1770.6 598.547 1770.15 598.1 1769.6 598.1C1769.05 598.1 1768.6 598.547 1768.6 599.1C1768.6 599.652 1769.05 600.1 1769.6 600.1Z" fill="#CAD2DB"/>
<path d="M1762.6 612.2L1758.6 622.2C1758.6 622.2 1768.6 622.2 1762.6 612.2Z" fill="#CAD2DB"/>
<path d="M1752.5 632.2L1748.5 638.2C1748.5 638.3 1754.5 638.3 1752.5 632.2Z" fill="#CAD2DB"/>
<path d="M1746.5 640.3C1746.5 640.3 1742.5 638.3 1740.5 646.3C1738.5 654.3 1748.5 646.3 1746.5 640.3Z" fill="#CAD2DB"/>
<path d="M1832.8 632.2C1832.8 632.2 1819.8 652.7 1810.7 648.3C1806.7 646.3 1806.7 646.3 1804.7 648.3C1802.7 650.3 1790.6 660.3 1790.6 666.4C1790.6 672.5 1790.6 676.4 1792.6 670.4C1794.6 664.4 1794.6 660.4 1798.6 662.4C1802.6 664.4 1806.6 664.4 1808.6 662.4C1810.6 660.4 1814.6 660.4 1814.6 664.4C1814.6 668.4 1810.6 688.5 1832.7 686.5V672.4C1832.7 672.4 1836.7 672.4 1838.7 674.4C1838.7 674.4 1844.7 666.4 1842.7 660.3C1840.7 654.2 1840.7 648.3 1840.7 644.2C1840.7 640.1 1836.8 632.2 1832.8 632.2Z" fill="#CAD2DB"/>
<path d="M1734.5 670.4C1734.5 670.4 1754.6 692.5 1760.6 694.5C1760.6 694.5 1752.6 700.5 1752.6 706.5L1724.5 712.5L1702.4 708.5L1708.4 702.5C1708.4 702.5 1720.4 692.5 1734.5 670.4Z" fill="#CAD2DB"/>
<path d="M1491.6 690.5C1491.6 690.5 1515.7 692.5 1519.7 704.6L1507.7 708.6H1495.7C1495.6 708.5 1485.6 694.5 1491.6 690.5Z" fill="#CAD2DB"/>
<path d="M1461.5 582.1V594.1H1463.5C1463.5 594.1 1463.5 582.1 1461.5 582.1Z" fill="#CAD2DB"/>
<path d="M1316.9 638.3C1316.9 638.3 1310.9 662.4 1314.9 672.4C1318.9 682.4 1320.9 690.5 1331 682.4C1341 674.4 1339 668.3 1335 658.3C1331 648.3 1319 618.2 1316.9 638.3Z" fill="#CAD2DB"/>
<path d="M1025.9 590.1C1025.9 590.1 1015.9 590.1 1017.9 592.1C1019.9 594.1 1027.9 596.1 1025.9 590.1Z" fill="white"/>
<path d="M409.6 -14.1001C409.6 -14.1001 411.6 5.9999 415.6 7.9999C419.6 9.9999 433.7 5.9999 431.7 15.9999C429.7 25.9999 429.7 34.0999 427.7 36.0999C425.7 38.0999 419.7 46.0999 405.6 44.0999C391.5 42.0999 373.5 42.0999 369.5 50.0999H353.4L367.5 31.9999C367.5 31.9999 349.4 29.9999 357.5 23.9999C365.6 17.9999 363.5 13.9999 363.5 9.8999C363.5 5.7999 367.5 5.8999 373.5 3.8999C379.5 1.8999 381.5 -12.2001 381.5 -12.2001L409.6 -14.1001Z" fill="#CAD2DB"/>
<path d="M345.4 -8.10019C345.4 -8.10019 345.4 -2.10019 345.4 7.99981C345.4 18.0998 341.4 24.0998 331.3 26.0998C321.2 28.0998 303.2 30.0998 301.2 30.0998C299.2 30.0998 297.2 24.0998 297.2 24.0998C297.2 24.0998 307.2 16.0998 305.2 9.99981C303.2 3.89981 293.2 7.99981 299.2 -4.10019C305.2 -16.1002 337.3 -28.2002 337.3 -28.2002L345.4 -8.10019Z" fill="#CAD2DB"/>
<path d="M795 262.9C795 262.9 780.9 260.9 780.9 264.9C780.9 268.9 776.9 274.9 784.9 274.9C792.9 274.9 799.1 266.9 795 262.9Z" fill="white"/>
<path d="M704.7 264.9C704.7 264.9 688.6 262.9 684.6 260.9C680.6 258.9 678.6 266.9 678.6 266.9C678.6 266.9 684.6 264.9 690.6 266.9C696.7 268.9 700.7 268.9 704.7 264.9Z" fill="#CAD2DB"/>
<path d="M522 206.7C522 204.7 524 184.6 520 178.6C516 172.6 520 168.6 520 164.5C520 160.4 518 154.5 514 158.5C510 162.5 510 168.5 512 172.6C514 176.6 516 178.6 514 180.6C512 182.6 506 186.6 506 186.6L508 212.7L522 206.7Z" fill="#CAD2DB"/>
<path d="M445.8 198.7C445.8 198.7 439.8 200.7 441.8 202.7C443.8 204.7 447.8 208.7 449.8 204.7C451.8 200.7 449.8 198.7 445.8 198.7Z" fill="#CAD2DB"/>
</g>
<mask id="mask3_40_9298" style="mask-type:luminance" maskUnits="userSpaceOnUse" x="0" y="0" width="1920" height="700">
<path d="M1920 0H0V700H1920V0Z" fill="white"/>
</mask>
<g mask="url(#mask3_40_9298)">
<path d="M1941.8 -15.5001C1943.6 -16.9001 1944.8 -18.1001 1946.2 -19.3001V-25.1001H1299.8L1319 -6.1001C1319 -6.1001 1329 25.9999 1329 36.0999C1329 46.1999 1339 76.1999 1323 78.2999C1306.9 80.2999 1304.9 90.2999 1300.9 100.4C1296.9 110.5 1278.8 164.6 1278.8 164.6C1278.8 164.6 1272.8 178.7 1278.8 182.7C1284.8 186.7 1300.9 194.7 1300.9 194.7C1300.9 194.7 1306.9 192.7 1310.9 200.7C1314.9 208.7 1333 226.8 1333 226.8C1333 226.8 1341 232.8 1331 240.9C1321 248.9 1294.9 263 1290.9 265C1286.9 267 1280.9 275 1280.9 279.1C1280.9 283.1 1274.9 327.3 1260.8 329.3C1246.7 331.3 1240.7 341.3 1226.7 335.3L1204.6 333.3V363.4C1204.6 363.4 1204.6 375.4 1210.6 377.5C1216.6 379.5 1228.7 383.5 1230.7 389.5C1232.7 395.5 1232.7 395.5 1226.7 397.5C1220.7 399.5 1202.6 407.5 1200.6 411.6C1198.6 415.6 1198.6 417.6 1194.6 419.6C1192.4 420.8 1182.2 421.8 1173.9 422.6C1175.7 425.6 1177.7 428.2 1180.5 430C1187.5 434.4 1193.5 441.2 1199.8 446.9C1198.2 448.1 1196 449.7 1193 451.9C1197 456.9 1200.2 461.5 1203.6 465.8C1213.2 477.8 1216.6 473.6 1225.1 468.2C1227.7 466.6 1229.3 462.4 1231.3 459.4C1234.1 466.6 1237.3 473.7 1234.3 482.5C1233.5 484.7 1234.1 487.9 1234.5 490.5C1236.9 505.4 1237.9 520.6 1241.9 534.7C1247.5 554.6 1254.7 573.6 1261.2 593.1C1265.8 606.7 1272 619.4 1275.3 634.3C1276.5 640.3 1280.9 645.7 1284.3 651C1286.7 654.4 1290.9 654.6 1292.9 651C1296.7 644.6 1302.5 640 1305.3 633.5C1307.9 627.1 1312.1 623.5 1315.7 618.6C1315.5 608.2 1314.1 598.1 1319.1 588.7C1320.9 585.3 1320.1 579.5 1319.9 574.6C1319.7 569.2 1318.9 563.8 1318.5 558.3C1317.7 550.7 1319.1 545.7 1325.9 542.8C1331.7 540.4 1338.5 536.8 1341.8 530.8C1345 524.8 1349.2 521.4 1353.2 517.2C1358.2 512 1363.4 507 1367.7 500.9C1372.5 494.1 1377.5 488.7 1384.6 485.6C1390.6 483 1394.4 477.4 1394.8 468.9C1394.8 467.1 1395.8 465.3 1396.2 464.1C1402 458.5 1408 461.3 1413.9 460.9C1419.7 460.5 1425.5 458.9 1431.4 456.9C1436.8 454.9 1441.8 451.9 1447.9 448.7C1449.7 464 1454.3 476.6 1463.8 484C1468.6 487.6 1468.2 492.4 1469.8 496.8C1471.8 502 1477.8 503.8 1478.2 510.7C1478.6 516.1 1478.6 521.5 1478.2 527C1478 531 1476.8 534.8 1475.8 539.4C1481.8 543.6 1486.8 546 1492.7 541.2C1498.1 537 1503.5 533 1509.4 528.4C1517 546.7 1517 566.3 1523.5 583.8C1526.1 591.2 1523.7 601.1 1524.7 610.1C1525.7 619.1 1522.9 628.8 1522.1 638C1521.5 643.2 1521.5 648.6 1521.3 653.9C1524.3 654.7 1527.3 654.3 1528.3 655.9C1535.1 666.7 1542.6 676.8 1544.6 691.8C1546.2 703.6 1549.4 714.7 1554.6 723.9H1581.1C1580.1 719.9 1579.9 715.9 1580.5 711.3C1581.9 702.3 1579.5 695 1574.3 689.2C1567.9 682.2 1562.5 673.5 1553.8 669.9C1549.2 667.9 1547.4 663.7 1546 658.1C1544 650.5 1542.4 641 1537.8 636.6C1532.6 631.6 1532.2 626.6 1533.8 620.9C1537.2 607.3 1541.8 594.2 1543.6 579.7C1543.8 578.7 1545.2 577.3 1545.8 577.3C1547.2 577.5 1549.4 578.1 1549.8 579.3C1551.2 582.7 1550.6 587.9 1555 588.3C1565.2 589.3 1571.7 596.5 1575.1 608.4C1576.7 614.4 1581.1 616 1584.3 618.8C1587.3 621.2 1591.1 622.2 1594.7 623.8C1595.1 631 1595.3 637.7 1595.9 646.1C1602.9 640.5 1610.6 637.5 1614 630.8C1618.4 622.4 1624.6 620.2 1630.5 615.7C1633.3 613.7 1635.9 611.3 1638.9 609.3C1642.5 606.9 1644.7 603.3 1645.5 598.3C1649.7 574.6 1646.3 552.5 1632.1 536.1C1624.1 526.9 1616.8 517.4 1610.4 506.4C1605 497.2 1604.8 491.5 1611 483.1C1615.6 476.7 1621.6 472.3 1627.3 466.8C1634.7 459.6 1641.6 458.4 1649.4 464.4C1650.4 469.6 1651.4 474.6 1652.2 479.5C1647.8 483.5 1643.8 486.9 1640.2 491.1C1636.4 495.5 1638 503.3 1642.8 506.4C1646.4 508.6 1649.8 508.4 1653.4 506C1659.8 502 1661.2 493.6 1664.4 486.9C1664.2 485.9 1664.2 485.1 1664 484.5C1663.4 483.5 1662.6 482.5 1662 481.5C1658.2 473.9 1659.2 465.6 1665 463.4C1673 460.2 1681.7 458.6 1689.7 455.4C1699.7 451.2 1709 443.6 1720 443.2C1722 443.2 1724.4 441.8 1726 440.4C1737.6 429.4 1749.1 418.3 1760.5 406.9C1761.5 405.9 1762.3 403.7 1762.5 401.9C1764.1 388 1771.9 379.2 1778.6 369.8C1783.4 362.8 1788.4 350.9 1790.6 338.7C1789.6 338.5 1788.6 338.3 1787.4 338.1C1780.8 336.3 1780.8 336.3 1785 329.1C1788 323.9 1789 316.3 1785.8 312.6C1778.4 304.2 1774.4 292.9 1770.1 282.1C1769.1 279.9 1767.3 278.1 1765.7 276.5C1763.5 274.3 1761.1 272.1 1757.5 268.7C1764.3 261.7 1770.5 256.1 1775.8 249.6C1781.4 243 1790.3 245.4 1796.5 236.6C1788.3 233.6 1781.2 231 1773.4 228.2C1771 230.4 1767.8 233 1764.8 235.6C1759.8 239.8 1758 239.2 1756.4 231C1755.6 227 1754.4 225 1751.6 224.2C1749 223.4 1746.2 223.4 1743.8 222.2C1740 220.2 1740 216.2 1742.4 211.2C1750 213.2 1756 210 1761.5 201.8C1765.9 195.4 1772.7 191.6 1778.8 187.3C1782.8 184.5 1787 184.9 1789.8 192.1C1786.8 198.3 1778 202.7 1784.2 214.8C1796.8 207 1809.9 193.3 1825.6 208.4C1823.8 214.2 1822 219.6 1820.6 224.5C1823.4 231.1 1827.2 229.9 1831 230.1C1837 230.3 1837.8 232.3 1837.8 240.3C1837.8 243.5 1837.6 246.9 1838.4 249.9C1839.8 254.9 1839.4 259.1 1837.6 263.8C1836.2 267.4 1835 271 1833.4 275.4C1836.4 277.4 1839 280.4 1841 279.8C1849.8 276.8 1858.5 273.4 1866.9 269C1871.9 266.6 1873.5 261 1873.3 253.9C1873.1 244.9 1872.3 236.4 1867.1 229.2C1861.7 221.8 1856.9 213.7 1851.8 206.1C1852.4 199.7 1856.6 199.5 1859.6 197.1C1866.6 191.9 1876.5 189.7 1876.5 175.2C1876.5 172.8 1879.5 169.6 1881.7 167.8C1887.5 163 1893.7 158.8 1898.8 155.2C1905.6 156.6 1911.6 159.4 1917.1 158.4C1925.1 157 1933 152.8 1938.6 145.2C1940.8 142.2 1943.2 139.2 1945.8 136.2V-12.1001C1944.6 -12.5001 1943 -13.3001 1941.8 -15.5001Z" fill="url(#paint1_linear_40_9298)"/>
</g>
<mask id="mask4_40_9298" style="mask-type:luminance" maskUnits="userSpaceOnUse" x="0" y="0" width="1920" height="700">
<path d="M1920 0H0V700H1920V0Z" fill="white"/>
</mask>
<g mask="url(#mask4_40_9298)">
<path d="M353.4 254.9C353.4 244.9 367.5 244.9 373.5 244.9C379.5 244.9 389.6 242.9 393.6 238.9C397.6 234.9 403.6 230.9 405.6 226.9C407.6 222.9 413.6 212.8 413.6 212.8C413.6 212.8 407.6 204.8 411.6 200.8C415.6 196.8 421.6 184.7 425.7 182.7C429.7 180.7 445.8 172.7 445.8 172.7C445.8 172.7 449.8 170.7 449.8 162.7C449.8 154.7 451.8 144.6 461.8 146.6C471.8 148.6 477.9 154.6 483.9 152.6C489.9 150.6 500 136.5 508 136.5C516 136.5 524.1 134.5 528.1 142.5C532.1 150.5 540.1 168.6 550.2 172.6C560.2 176.6 582.3 188.7 586.3 194.7C590.3 200.7 600.4 208.8 592.3 216.8C584.3 224.8 568.2 226.8 566.2 224.8C564.2 222.8 560.2 222.8 558.2 224.8C556.2 226.8 552.2 228.8 552.2 228.8L582.3 244.9C582.3 244.9 586.3 234.9 586.3 232.9C586.3 230.9 586.3 228.9 590.3 226.9C594.3 224.9 606.4 212.8 606.4 208.8C606.4 204.8 598.4 196.8 602.4 194.7C606.4 192.7 612.4 192.7 618.5 196.7L620.5 198.7C620.5 198.7 622.5 190.7 618.5 188.7C614.5 186.7 608.5 182.7 608.5 182.7C608.5 182.7 594.4 178.7 594.4 174.7C594.4 170.7 592.4 168.7 588.4 168.7C584.4 168.7 574.3 166.7 570.3 156.7C566.3 146.7 558.3 140.6 556.2 138.6C554.2 136.6 550.2 128.6 554.2 122.5C558.2 116.5 562.2 116.5 562.2 116.5C562.2 116.5 570.2 126.5 572.2 128.5C574.2 130.5 578.2 132.5 580.2 134.5C582.2 136.5 598.3 152.6 604.3 154.6C610.3 156.6 626.4 160.6 630.4 168.7C634.4 176.7 632.4 184.8 632.4 188.8C632.4 192.8 642.4 206.9 644.4 210.9C646.4 214.9 656.4 229 656.4 235C656.4 235 656.4 239 658.4 241C660.4 243 670.4 247 670.4 247C670.4 247 674.4 237 678.4 232.9C682.4 228.9 688.4 222.9 688.4 222.9C688.4 222.9 676.4 210.9 674.3 204.8C672.3 198.8 666.3 190.7 672.3 192.8C678.3 194.8 680.3 196.8 684.3 192.8C688.3 188.8 688.3 184.8 694.3 184.8C700.1 184.8 709.8 183 708.4 194L731.9 175.5C728.5 174.5 728.5 173.1 728.5 168.7C728.5 160.7 726.5 158.7 730.5 152.6C734.5 146.6 738.5 140.6 738.5 138.5C738.5 136.5 738.5 130.5 742.5 128.5C746.5 126.5 748.5 118.5 752.5 114.4C756.5 110.4 764.5 102.4 764.5 102.4C764.5 102.4 782.6 112.4 784.6 112.4C786.6 112.4 780.6 116.4 782.6 118.4C784.6 120.4 788.6 124.4 790.6 128.4C792.6 132.4 794.6 134.4 794.6 134.4C794.6 134.4 810.7 128.4 812.7 126.4C814.7 124.4 826.8 120.4 834.8 126.4C842.8 132.4 854.9 138.4 858.9 142.5C862.9 146.5 875 156.6 875 156.6C875 156.6 878.2 155.8 880.6 157.8C886.4 157.8 892.4 157.8 897.1 158.6C909.1 160.6 931.2 168.6 939.3 162.6C943.7 159.2 948.1 155.4 951.3 152.6C950.9 148.2 948.9 145.6 945.3 138.5C941.3 130.5 945.3 126.5 949.3 122.4C951.3 120.4 954.5 117.2 957.7 114.4C956.1 113.2 954.1 111.8 951.3 110.4C943.3 106.4 919.2 90.2998 919.2 76.2998C919.2 62.2998 925.2 42.1998 937.3 32.0998C949.3 22.0998 953.4 13.9998 967.4 15.9998C981.4 17.9998 1013.6 21.9998 1013.6 21.9998L1029.7 31.9998L1112 50.0998C1112 50.0998 1156.2 62.0998 1138.1 31.9998C1138.1 31.9998 1134.1 23.9998 1130.1 21.9998C1126.1 19.9998 1120.1 11.9998 1132.1 5.89981C1144.1 -0.100195 1154.2 -16.2002 1154.2 -16.2002L1232.1 -25.2002H542.1C542.1 -23.0002 541.9 -20.8002 541.7 -18.4002C539.5 -20.8002 537.5 -23.0002 535.3 -25.2002H509.4C509.6 -24.2002 509.8 -23.2002 510.2 -22.2002C511.6 -15.4002 513.2 -8.60019 514.6 -2.10019C512.8 -0.700195 511.8 0.699806 511 0.699806C501 -1.70019 491.7 3.4998 482.3 5.2998C476.9 6.2998 471.5 10.0998 468 17.2998C462.8 28.2998 454.8 34.7998 444.9 38.1998C441.9 39.1998 438.7 40.3998 434.7 41.9998C435.7 56.4998 424.5 52.7998 419.4 59.0998C411.8 68.2998 404.5 58.6998 396.9 59.4998C397.3 64.4998 397.5 68.2998 397.7 72.6998C393.9 73.0998 390.3 74.8998 387.7 73.6998C379.5 69.0998 372 72.8998 363 75.8998C365.2 79.6998 366.6 82.8998 368.6 85.4998C369.6 86.6998 371.6 86.4998 373.2 86.6998C384.8 88.4998 392.5 97.6998 399.1 108.6C400.7 111.2 402.1 114.6 402.1 117.8C402.3 128 402.7 138.3 397.3 147.7C395.3 148.1 393.3 148.9 391.1 148.9C373.4 148.1 355.4 148.5 337.9 145.7C327.7 143.9 320.4 147.5 313.6 153.1C315.2 164.5 318 174.8 317.4 184.6C316.8 194.4 312.8 203.9 310 214.3C312 217.7 315 220.9 316.2 225.1C317.4 229.1 317 234.1 317.2 239.2C322.6 239.2 327.4 239.8 332.3 239C337.9 238 341.7 239.8 344.5 246C346.1 249.6 348.3 252.6 349.9 255.6C349.3 258.2 348.5 260.6 347.9 263H357.7C355.4 261.5 353.4 259.1 353.4 254.9ZM809.1 114.4C811.1 108.4 813.1 104.4 819.1 102.4C825.1 100.4 839.2 100.4 843.2 96.3998C843.2 96.3998 845.2 112.5 841.2 114.5C837.2 116.5 837.2 120.5 829.2 118.5C821.1 116.4 807.1 120.4 809.1 114.4Z" fill="#CAD2DB"/>
</g>
<mask id="mask5_40_9298" style="mask-type:luminance" maskUnits="userSpaceOnUse" x="0" y="0" width="1920" height="700">
<path d="M1920 0H0V700H1920V0Z" fill="white"/>
</mask>
<g mask="url(#mask5_40_9298)">
<path d="M881.4 708.5L889.4 702.5L961.7 640.3L901.5 638.3L887.4 630.3C887.4 630.3 903.5 592.2 903.5 588.1C903.5 586.5 902.1 584.1 900.5 581.9C901.1 585.5 901.5 588.1 901.5 588.1C901.5 588.1 891.5 580.1 885.4 572C879.4 564 865.3 553.9 859.3 543.9C853.3 533.9 853.3 525.8 851.3 515.8C850.7 512.4 849.3 510 847.5 508C845.1 511 841.3 516.4 841.3 517.8C841.3 519.8 837.3 525.8 837.3 533.9C837.3 541.9 835.3 548 831.3 548C827.3 548 821.3 550 821.3 556C821.3 562 823.3 566 819.3 568C815.3 570 811.3 570 811.3 576C811.3 582 813.3 592.1 809.3 584C805.3 576 803.3 567.9 801.3 567.9C799.3 567.9 799.3 563.9 799.3 559.9C799.3 555.9 799.3 551.9 799.3 551.9C799.3 551.9 783.2 553.9 785.2 559.9C787.2 565.9 791.2 567.9 787.2 571.9C783.2 575.9 775.2 579.9 775.2 579.9C775.2 579.9 769.2 583.9 763.2 581.9C757.2 579.9 755.2 577.9 753.2 581.9C751.2 585.9 751.2 589.9 743.2 589.9C735.2 589.9 719.1 591.9 719.1 591.9C719.1 591.9 711.1 593.9 709.1 589.9C707.1 585.9 695 573.8 693 583.9C691 593.9 683 600 676.9 600C670.9 600 668.9 598 670.9 592C672.9 586 670.9 582 668.9 580C666.9 578 660.9 574 662.9 568C664.9 562 662.9 562 660.9 560C658.9 558 648.9 550 648.9 550C648.9 550 648.9 548 650.9 546C652.9 544 656.9 540 658.9 531.9C660.9 523.9 666.9 519.9 670.9 517.8C674.9 515.8 674.9 515.8 674.9 511.8C674.9 507.8 670.9 489.7 670.9 489.7C670.9 489.7 670.9 483.7 672.9 483.7C674.9 483.7 672.9 479.7 672.9 477.7C672.9 475.7 670.9 469.7 670.9 469.7C670.9 469.7 670.9 465.7 664.9 463.7C658.9 461.7 590.6 425.6 588.6 423.6C586.6 421.6 574.5 417.6 570.5 421.6C566.5 425.6 562.5 429.6 554.4 425.6C546.4 421.6 540.3 417.6 540.3 417.6C540.3 417.6 538.3 413.6 524.2 419.6C510.1 425.6 478 441.7 478 441.7V453.7C478 453.7 445.9 461.7 451.9 447.7C451.9 447.7 453.9 441.7 447.9 441.7C441.9 441.7 439.9 439.7 437.9 437.7C435.9 435.7 431.9 433.7 431.9 433.7C431.9 433.7 427.9 429.7 427.9 427.7C427.9 425.7 427.9 425.7 425.9 421.7C423.9 417.7 375.7 363.5 375.7 363.5L359.6 357.5C359.6 357.5 353.6 451.8 353.6 459.9C353.6 468 351.6 476 345.6 474C339.6 472 307.5 464 303.4 462C303.4 462 295.4 454 291.4 458C287.4 462 287.4 468 283.4 460C279.4 452 277.4 443.9 277.4 439.9C277.4 435.9 279.4 435.9 269.4 431.9C261.4 428.7 248.3 424.3 243.3 422.5C234.9 432.7 232.3 447.6 225.8 459.4C224.8 461.4 225.2 464.6 225 467.4C228 471.6 230.8 475.6 233.6 479.8C231.6 486.6 231.4 492.8 234 499.5C235.8 504.1 236.2 510.3 235.6 515.4C234.8 522.8 231.6 529.7 231 537.1C230.4 545.7 225.6 551.4 222 558.4C231 567.8 226.8 580.5 228.6 591.5C238.2 602.7 247.5 614.2 257.3 624.6C262.9 630.6 267.1 636.6 268.1 646.5C268.5 651.5 271.5 656.3 272.5 658.5C284.7 669.1 296 677.6 305.8 688C313.8 696.4 322.1 703.5 332.3 706.7C334.1 705.9 335.5 705.3 337.1 704.5C354 694.7 371 692.1 389.1 698.5C392.3 699.7 396.5 698.9 399.9 697.5C409.5 693.7 419.6 690.1 428.6 684.5C435.8 679.9 442.9 679.1 450.5 678.3C463.5 676.7 474 679.5 478.4 698C480.2 705.4 485 708.4 491.2 707.4C498.6 706.2 506.1 704.8 513.5 703.4C516.1 706.4 518.1 709.8 520.9 711.8C524.9 714.8 526.9 718.6 527.5 723.4H944.2C944.4 723.2 944.6 723 944.8 722.6L881.4 708.5Z" fill="url(#paint2_linear_40_9298)"/>
</g>
<mask id="mask6_40_9298" style="mask-type:luminance" maskUnits="userSpaceOnUse" x="0" y="0" width="1920" height="700">
<path d="M1920 0H0V700H1920V0Z" fill="white"/>
</mask>
<g mask="url(#mask6_40_9298)">
<path d="M722.8 186.6L728.8 188.6C736.8 192.6 738.8 186.6 738.8 186.6C734.8 180.6 722.8 186.6 722.8 186.6Z" fill="#E0E6EE"/>
</g>
<mask id="mask7_40_9298" style="mask-type:luminance" maskUnits="userSpaceOnUse" x="0" y="0" width="1920" height="700">
<path d="M1920 0H0V700H1920V0Z" fill="white"/>
</mask>
<g mask="url(#mask7_40_9298)">
<path d="M1033.3 423.9C1036.61 423.9 1039.3 421.214 1039.3 417.9C1039.3 414.586 1036.61 411.9 1033.3 411.9C1029.99 411.9 1027.3 414.586 1027.3 417.9C1027.3 421.214 1029.99 423.9 1033.3 423.9Z" fill="#028F37"/>
<path d="M1045.4 411.8C1048.71 411.8 1051.4 409.114 1051.4 405.8C1051.4 402.487 1048.71 399.8 1045.4 399.8C1042.09 399.8 1039.4 402.487 1039.4 405.8C1039.4 409.114 1042.09 411.8 1045.4 411.8Z" fill="#028F37"/>
<path d="M1046 405.4L1053 385.3H1065" stroke="#028F37" stroke-miterlimit="10"/>
<path d="M1055 448.6H1040.9L1034.9 420.5" stroke="#028F37" stroke-miterlimit="10"/>
<path d="M928.5 410.4C931.814 410.4 934.5 407.714 934.5 404.4C934.5 401.086 931.814 398.4 928.5 398.4C925.186 398.4 922.5 401.086 922.5 404.4C922.5 407.714 925.186 410.4 928.5 410.4Z" fill="#5D6FCC"/>
<path d="M945.1 415.5L937.1 442.5" stroke="#028F37" stroke-miterlimit="10"/>
<path d="M958.6 372.1C961.914 372.1 964.6 369.414 964.6 366.1C964.6 362.786 961.914 360.1 958.6 360.1C955.286 360.1 952.6 362.786 952.6 366.1C952.6 369.414 955.286 372.1 958.6 372.1Z" fill="#5D6FCC"/>
<path d="M928 400.4L919.6 331.6H905.5" stroke="#5D6FCC" stroke-miterlimit="10"/>
<path d="M945.3 420.4C948.614 420.4 951.3 417.714 951.3 414.4C951.3 411.086 948.614 408.4 945.3 408.4C941.986 408.4 939.3 411.086 939.3 414.4C939.3 417.714 941.986 420.4 945.3 420.4Z" fill="#028F37"/>
<path d="M881 180.4V161.9L872 177.2H868.6L859.6 162.3V180.4H853V149.5H859L870.6 168.8L882 149.5H887.8V180.4H881Z" fill="#AAAAAA"/>
<path d="M892.6 149.5C892.6 147.3 894.4 145.7 896.8 145.7C899.4 145.7 901 147.3 901 149.5C901 151.7 899.2 153.5 896.8 153.5C894.2 153.3 892.6 151.7 892.6 149.5ZM893.4 156.5H900.2V180.4H893.4V156.5Z" fill="#AAAAAA"/>
<path d="M929.7 147.7V180.4H923.1V177.6C921.3 179.6 918.9 180.6 915.7 180.6C909.1 180.6 903.9 175.8 903.9 168.4C903.9 161 909.1 156.2 915.7 156.2C918.7 156.2 921.1 157.2 922.7 159V147.6L929.7 147.7ZM923.1 168.5C923.1 164.5 920.5 161.9 917.1 161.9C913.7 161.9 911.1 164.3 911.1 168.5C911.1 172.7 913.7 175.1 917.1 175.1C920.3 175 923.1 172.6 923.1 168.5Z" fill="#AAAAAA"/>
<path d="M959.2 147.7V180.4H952.6V177.6C950.8 179.6 948.4 180.6 945.2 180.6C938.6 180.6 933.4 175.8 933.4 168.4C933.4 161 938.6 156.2 945.2 156.2C948.2 156.2 950.6 157.2 952.2 159V147.6L959.2 147.7ZM952.4 168.5C952.4 164.5 949.8 161.9 946.4 161.9C943 161.9 940.4 164.3 940.4 168.5C940.4 172.7 943 175.1 946.4 175.1C949.8 175 952.4 172.6 952.4 168.5Z" fill="#AAAAAA"/>
<path d="M964.5 147.7H971.3V180.4H964.5V147.7Z" fill="#AAAAAA"/>
<path d="M999.8 170.4H981.7C982.3 173.4 984.9 175.2 988.5 175.2C990.9 175.2 992.9 174.4 994.5 173L998.1 177C995.9 179.4 992.5 180.8 988.3 180.8C980.1 180.8 974.7 175.6 974.7 168.6C974.7 161.6 980.1 156.4 987.3 156.4C994.3 156.4 999.7 161 999.7 168.6C1000 169.2 999.8 169.8 999.8 170.4ZM981.7 166.3H993.3C992.9 163.3 990.5 161.3 987.5 161.3C984.5 161.5 982.3 163.3 981.7 166.3Z" fill="#AAAAAA"/>
<path d="M1039.3 174.6V180.4H1015.4V149.5H1038.7V155.3H1022.4V161.9H1036.9V167.5H1022.4V174.7L1039.3 174.6Z" fill="#AAAAAA"/>
<path d="M1064.4 166.7V180.3H1058V177.3C1056.8 179.5 1054.2 180.5 1050.8 180.5C1045.2 180.5 1042 177.5 1042 173.3C1042 169.1 1045 166.3 1052.2 166.3H1057.6C1057.6 163.3 1055.8 161.7 1052.2 161.7C1049.8 161.7 1047.2 162.5 1045.4 163.9L1043 159.1C1045.6 157.3 1049.4 156.3 1053.2 156.3C1060.2 156.3 1064.4 159.5 1064.4 166.7ZM1057.4 172.8V170.4H1052.8C1049.6 170.4 1048.6 171.6 1048.6 173.2C1048.6 175 1050 176 1052.4 176C1054.8 176 1056.8 175 1057.4 172.8Z" fill="#AAAAAA"/>
<path d="M1067.2 178.2L1069.4 173.2C1071.6 174.6 1074.8 175.4 1077.6 175.4C1080.8 175.4 1082 174.6 1082 173.2C1082 169.4 1067.5 173.2 1067.5 163.8C1067.5 159.4 1071.5 156.2 1078.5 156.2C1081.7 156.2 1085.3 157 1087.5 158.2L1085.3 163C1082.9 161.6 1080.7 161.2 1078.5 161.2C1075.5 161.2 1074.1 162.2 1074.1 163.4C1074.1 167.4 1088.6 163.6 1088.6 172.8C1088.6 177.2 1084.6 180.4 1077.4 180.4C1073.5 180.8 1069.4 179.6 1067.2 178.2Z" fill="#AAAAAA"/>
<path d="M1107.2 179.2C1105.8 180.2 1103.8 180.8 1101.6 180.8C1096 180.8 1092.8 178 1092.8 172.4V162.4H1089.2V157.2H1092.8V151.4H1099.6V157.2H1105.6V162.4H1099.6V172C1099.6 174 1100.6 175.2 1102.6 175.2C1103.6 175.2 1104.6 175 1105.4 174.4L1107.2 179.2Z" fill="#AAAAAA"/>
</g>
<path d="M937.1 442.5L930.9 463.5H915.3" stroke="#028F37" stroke-miterlimit="10"/>
<path d="M824.2 464.7L823.2 466C821.3 465 819.7 462.9 818.9 460.4C818.1 463.1 816.5 465.2 814.4 466.3L813.4 465C816 463.7 818 460.2 818 457V453.8H819.6V457C819.6 460.1 821.7 463.4 824.2 464.7ZM827.4 470.1H825.8V452.2H827.4V459.5H830.4V460.9H827.4V470.1Z" fill="black"/>
<path d="M840.9 470.2H839.3V463.9H832V462.5H848.2V463.9H840.9V470.2ZM833.8 456.8C833.8 454.4 836.3 452.9 840.1 452.9C843.9 452.9 846.4 454.4 846.4 456.8C846.4 459.2 843.9 460.7 840.1 460.7C836.3 460.7 833.8 459.2 833.8 456.8ZM835.5 456.8C835.5 458.4 837.4 459.4 840.1 459.4C842.8 459.4 844.7 458.4 844.7 456.8C844.7 455.2 842.8 454.2 840.1 454.2C837.4 454.2 835.5 455.2 835.5 456.8Z" fill="black"/>
<path d="M861.6 463.7L861.8 465.1C859 465.6 856.7 465.7 853.1 465.7H851.7V453.9H860.2V455.3H853.3V464.3C856.7 464.3 858.9 464.2 861.6 463.7ZM863.5 470.2V452.2H865.1V470.2H863.5Z" fill="black"/>
<path d="M884.5 464.9L883.6 466.2C881.5 465.2 879.8 463.2 878.9 460.7C878.1 463.3 876.3 465.6 874.3 466.6L873.3 465.3C875.9 464.1 878.1 460.7 878.1 457.6V455.3H873.9V454H883.9V455.4H879.7V457.7C879.7 460.7 881.9 463.8 884.5 464.9ZM886.3 470.1V452.2H887.9V470.1H886.3Z" fill="black"/>
<path d="M902.3 464.7L901.3 466C899.4 465 897.8 462.9 897 460.4C896.2 463.1 894.6 465.2 892.5 466.3L891.5 465C894.1 463.7 896.1 460.2 896.1 457V453.8H897.7V457C897.7 460.1 899.8 463.4 902.3 464.7ZM905.5 470.1H903.9V452.2H905.5V459.5H908.5V460.9H905.5V470.1Z" fill="black"/>
<path d="M1083.9 392.2H1082.3V386H1075V384.7H1091.3V386H1083.9V392.2ZM1077.2 375.4H1089V376.7H1078.9V381H1089.2V382.3H1077.2V375.4Z" fill="black"/>
<path d="M1102.5 388H1094.2V375.9H1095.8V380.6H1100.9V375.9H1102.5V388ZM1095.8 386.6H1100.9V381.9H1095.8V386.6ZM1107.2 392.3H1105.6V374.4H1107.2V381.4H1110.2V382.8H1107.2V392.3Z" fill="black"/>
<path d="M1121.6 382C1121.6 385.8 1119.7 388.3 1117 388.3C1114.3 388.3 1112.4 385.9 1112.4 382C1112.4 378.2 1114.3 375.7 1117 375.7C1119.7 375.7 1121.6 378.2 1121.6 382ZM1114 382C1114 384.9 1115.2 386.8 1117 386.8C1118.7 386.8 1120 384.9 1120 382C1120 379.1 1118.8 377.2 1117 377.2C1115.3 377.2 1114 379.1 1114 382ZM1124.9 392.3V374.3H1126.5V392.3H1124.9Z" fill="black"/>
<path d="M1145.9 387.1L1145 388.4C1142.9 387.4 1141.2 385.4 1140.3 382.9C1139.5 385.5 1137.7 387.8 1135.7 388.8L1134.7 387.5C1137.3 386.3 1139.5 382.9 1139.5 379.8V377.5H1135.3V376.1H1145.3V377.5H1141.1V379.8C1141.1 382.9 1143.3 386 1145.9 387.1ZM1147.7 392.3V374.4H1149.3V392.3H1147.7Z" fill="black"/>
<path d="M1163.7 386.8L1162.7 388.1C1160.8 387.1 1159.2 385 1158.4 382.5C1157.6 385.2 1156 387.3 1153.9 388.4L1152.9 387.1C1155.5 385.8 1157.5 382.3 1157.5 379.1V375.9H1159.1V379.1C1159.1 382.3 1161.2 385.5 1163.7 386.8ZM1166.9 392.3H1165.3V374.4H1166.9V381.7H1169.9V383.1H1166.9V392.3Z" fill="black"/>
<path d="M1074.6 446.7C1074.6 450.5 1072.7 453 1070.1 453C1067.4 453 1065.6 450.6 1065.6 446.7C1065.6 442.9 1067.5 440.4 1070.1 440.4C1072.8 440.4 1074.6 442.8 1074.6 446.7ZM1073.1 446.7C1073.1 443.8 1071.9 441.9 1070.2 441.9C1068.5 441.9 1067.2 443.8 1067.2 446.7C1067.2 449.6 1068.4 451.5 1070.2 451.5C1071.8 451.5 1073.1 449.6 1073.1 446.7ZM1079.2 457H1077.6V439H1079.2V446.1H1082.2V447.5H1079.2V457Z" fill="black"/>
<path d="M1092.7 457H1091.1V451H1083.8V449.7H1100.1V451H1092.7V457ZM1085.8 439.7H1087.4V442.2H1096.3V439.7H1097.9V447.5H1085.7L1085.8 439.7ZM1087.4 446.2H1096.3V443.6H1087.4V446.2Z" fill="black"/>
<path d="M1112.6 450.5L1112.8 451.9C1110.1 452.4 1107.7 452.5 1104.3 452.5H1102.9V440.7H1111.2V442.1H1104.5V451.1C1107.8 451.1 1110.1 451 1112.6 450.5ZM1116 457H1114.4V439H1116V446.1H1119V447.5H1116V457Z" fill="black"/>
<path d="M1128.4 445.3V440.6H1130V452.7H1121.6V440.6H1123.2V445.3H1128.4ZM1128.4 446.6H1123.2V451.3H1128.4V446.6ZM1133.6 457V439H1135.2V457H1133.6Z" fill="black"/>
<path d="M1154.6 451.8L1153.7 453.1C1151.6 452.1 1149.9 450.1 1149 447.6C1148.2 450.2 1146.4 452.5 1144.4 453.5L1143.4 452.2C1146 451 1148.2 447.6 1148.2 444.5V442.2H1144V440.8H1154V442.2H1149.8V444.5C1149.8 447.5 1152 450.6 1154.6 451.8ZM1156.5 457V439H1158.1V457H1156.5Z" fill="black"/>
<path d="M1172.4 451.5L1171.4 452.8C1169.5 451.8 1167.9 449.7 1167.1 447.2C1166.3 449.9 1164.7 452 1162.6 453.1L1161.6 451.8C1164.2 450.5 1166.2 447 1166.2 443.8V440.6H1167.8V443.8C1167.9 446.9 1169.9 450.2 1172.4 451.5ZM1175.6 457H1174V439H1175.6V446.3H1178.6V447.7H1175.6V457Z" fill="black"/>
<path d="M1591.9 85.5C1595.21 85.5 1597.9 82.8137 1597.9 79.5C1597.9 76.1863 1595.21 73.5 1591.9 73.5C1588.59 73.5 1585.9 76.1863 1585.9 79.5C1585.9 82.8137 1588.59 85.5 1591.9 85.5Z" fill="#5D6FCC"/>
<path d="M1591.9 115.4C1595.21 115.4 1597.9 112.714 1597.9 109.4C1597.9 106.086 1595.21 103.4 1591.9 103.4C1588.59 103.4 1585.9 106.086 1585.9 109.4C1585.9 112.714 1588.59 115.4 1591.9 115.4Z" fill="#028F37"/>
<path d="M1614.7 76.4003C1614.1 77.9003 1613 79.3003 1611.4 80.0003L1610.6 78.8003C1612.7 77.9003 1614 75.8003 1614 74.0003V71.8003H1615.4V74.0003C1615.4 75.8003 1616.6 77.6003 1618.7 78.4003L1617.9 79.5003C1616.4 78.9003 1615.3 77.7003 1614.7 76.4003ZM1624.3 84.0003C1624.3 85.8003 1622.2 86.9003 1618.9 86.9003C1615.6 86.9003 1613.5 85.8003 1613.5 84.0003C1613.5 82.2003 1615.6 81.1003 1618.9 81.1003C1622.2 81.1003 1624.3 82.2003 1624.3 84.0003ZM1622.9 84.0003C1622.9 82.8003 1621.4 82.3003 1619 82.3003C1616.6 82.3003 1615.1 82.9003 1615.1 84.0003C1615.1 85.1003 1616.6 85.8003 1619 85.8003C1621.4 85.8003 1622.9 85.2003 1622.9 84.0003ZM1619.4 71.1003H1620.8V75.1003H1622.9V70.8003H1624.3V80.8003H1622.9V76.4003H1620.8V80.3003H1619.4V71.1003Z" fill="black"/>
<path d="M1631.9 76.4003C1631.2 78.3003 1629.8 79.8003 1627.9 80.5003L1627.1 79.3003C1629.6 78.4003 1631.1 76.3003 1631.1 73.8003V71.8003H1632.6V73.8003C1632.6 76.0003 1634.2 78.0003 1636.6 78.9003L1635.9 80.1003C1634.1 79.4003 1632.6 78.1003 1631.9 76.4003ZM1640.4 86.6003H1629.7V81.6003H1631.2V85.4003H1640.4V86.6003ZM1639.7 77.0003V82.7003H1638.2V70.8003H1639.7V75.8003H1642.1V77.0003H1639.7Z" fill="black"/>
<path d="M1659.6 79.6002V76.0002H1655.9V79.0002H1648.6V71.6002H1650.1V74.1002H1654.5V71.6002H1656V74.7002H1659.7V70.7002H1661.2V79.5002L1659.6 79.6002ZM1650.1 77.8002H1654.5V75.2002H1650.1V77.8002ZM1661.1 86.7002H1650.8V80.4002H1652.3V82.3002H1659.7V80.4002H1661.2L1661.1 86.7002ZM1652.2 85.5002H1659.6V83.5002H1652.2V85.5002Z" fill="black"/>
<path d="M1668.9 79.9003C1666.5 79.9003 1664.7 78.2003 1664.7 75.9003C1664.7 73.6003 1666.5 71.9003 1668.9 71.9003C1671.3 71.9003 1673.1 73.5003 1673.1 75.9003C1673.1 78.2003 1671.3 79.9003 1668.9 79.9003ZM1668.9 78.6003C1670.5 78.6003 1671.7 77.5003 1671.7 75.9003C1671.7 74.3003 1670.5 73.2003 1668.9 73.2003C1667.3 73.2003 1666.1 74.3003 1666.1 75.9003C1666.2 77.5003 1667.3 78.6003 1668.9 78.6003ZM1667.2 86.6003V81.4003H1668.7V85.4003H1678.1V86.6003H1667.2ZM1676.1 70.8003H1677.6V82.6003H1676.1V70.8003Z" fill="black"/>
<path d="M1618.6 104.7H1610.6V103.5H1613.9V101.2H1615.4V103.5H1618.7V104.7H1618.6ZM1618.1 109.5C1618.1 111.7 1616.6 113.2 1614.6 113.2C1612.6 113.2 1611.1 111.7 1611.1 109.5C1611.1 107.3 1612.6 105.8 1614.6 105.8C1616.6 105.8 1618.1 107.3 1618.1 109.5ZM1616.8 109.5C1616.8 108.1 1615.9 107.1 1614.7 107.1C1613.4 107.1 1612.6 108.1 1612.6 109.5C1612.6 110.9 1613.5 112 1614.7 112C1615.9 112 1616.8 110.9 1616.8 109.5ZM1622.9 116.9V108.8H1620.8V116.1H1619.4V101.1H1620.8V107.5H1622.9V100.7H1624.3V116.9H1622.9Z" fill="black"/>
<path d="M1637.8 111.7L1637.9 112.8C1634.2 113.5 1630.4 113.5 1627.4 113.5L1627.2 112.3C1628.5 112.3 1630 112.3 1631.6 112.2V109.4C1629.5 109.1 1628 107.7 1628 105.6C1628 103.3 1629.8 101.8 1632.3 101.8C1634.8 101.8 1636.6 103.3 1636.6 105.6C1636.6 107.6 1635.1 109.1 1633 109.4V112.1C1634.7 112 1636.3 111.9 1637.8 111.7ZM1632.4 108.2C1634.1 108.2 1635.3 107.2 1635.3 105.6C1635.3 104.1 1634.1 103.1 1632.4 103.1C1630.7 103.1 1629.5 104.1 1629.5 105.6C1629.6 107.1 1630.8 108.2 1632.4 108.2ZM1638.9 117V100.8H1640.4V117H1638.9Z" fill="black"/>
<path d="M1657.9 112.3L1657.1 113.5C1655.2 112.6 1653.6 110.8 1652.9 108.6C1652.2 110.9 1650.5 113 1648.7 113.9L1647.8 112.7C1650.1 111.6 1652.1 108.6 1652.1 105.8V103.7H1648.4V102.5H1657.4V103.7H1653.6V105.8C1653.5 108.5 1655.5 111.2 1657.9 112.3ZM1659.5 116.9V100.8H1661V116.9H1659.5Z" fill="black"/>
<path d="M1673.9 112L1673 113.2C1671.3 112.3 1669.8 110.4 1669.1 108.2C1668.4 110.6 1666.9 112.5 1665.1 113.5L1664.2 112.3C1666.5 111.1 1668.4 108 1668.4 105.1V102.2H1669.9V105.1C1669.8 107.9 1671.6 110.8 1673.9 112ZM1676.8 116.9H1675.3V100.8H1676.8V107.3H1679.5V108.5H1676.8V116.9Z" fill="black"/>
<path d="M996.8 412.4C1000.11 412.4 1002.8 409.714 1002.8 406.4C1002.8 403.086 1000.11 400.4 996.8 400.4C993.486 400.4 990.8 403.086 990.8 406.4C990.8 409.714 993.486 412.4 996.8 412.4Z" fill="#028F37"/>
<path d="M996.8 405.4L1009.8 351.2H1019.9" stroke="#028F37" stroke-miterlimit="10"/>
<path d="M960.2 363.3L972.7 300.1H986.7" stroke="#5D6FCC" stroke-miterlimit="10"/>
<path d="M1030.4 355L1029.5 353.7C1032.8 352 1034.8 350 1035.9 347.6L1029.9 348.2L1029.6 346.8L1036.4 346.3C1036.7 345.3 1036.9 344.3 1036.9 343.2H1030.4V341.9H1038.5C1038.6 347 1036.8 351.8 1030.4 355ZM1043.2 357.9H1041.6V340H1043.2V347.3H1046.1V348.7H1043.2V357.9Z" fill="black"/>
<path d="M1058.3 351.7L1058.5 353C1055.7 353.5 1053.4 353.6 1050 353.6H1048.6V341.6H1057V342.9H1050.3V346.6H1056.6V347.9H1050.3V352.2C1053.4 352.3 1055.6 352.1 1058.3 351.7ZM1061.6 357.9H1060V340H1061.6V347.2H1064.6V348.6H1061.6V357.9Z" fill="black"/>
<path d="M1066.1 355.7V354.3H1082.4V355.7H1066.1ZM1068.1 341.4H1080.4V346.8H1069.8V349.7H1080.8V351H1068.1V345.4H1078.7V342.6H1068L1068.1 341.4Z" fill="black"/>
<path d="M1100.3 352.7L1099.4 354C1097.3 353 1095.6 351 1094.7 348.5C1093.9 351.1 1092.1 353.4 1090.1 354.4L1089.1 353.1C1091.7 351.9 1093.9 348.5 1093.9 345.4V343.1H1089.7V341.7H1099.7V343.1H1095.5V345.4C1095.5 348.5 1097.6 351.6 1100.3 352.7ZM1102.1 357.9V340H1103.7V357.9H1102.1Z" fill="black"/>
<path d="M1118 352.4L1117 353.7C1115.1 352.7 1113.5 350.6 1112.7 348.1C1111.9 350.8 1110.3 352.9 1108.2 354L1107.2 352.7C1109.8 351.4 1111.8 347.9 1111.8 344.7V341.5H1113.4V344.7C1113.5 347.9 1115.5 351.2 1118 352.4ZM1121.3 357.9H1119.7V340H1121.3V347.3H1124.3V348.7H1121.3V357.9Z" fill="black"/>
<path d="M978.8 392.4C982.114 392.4 984.8 389.714 984.8 386.4C984.8 383.086 982.114 380.4 978.8 380.4C975.486 380.4 972.8 383.086 972.8 386.4C972.8 389.714 975.486 392.4 978.8 392.4Z" fill="#028F37"/>
<path d="M978.8 385.4L991.8 325.2H1001.9" stroke="#028F37" stroke-miterlimit="10"/>
<path d="M1021.7 328.6H1013.4V316.5H1015V321.2H1020.1V316.5H1021.7V328.6ZM1015 327.2H1020.1V322.5H1015V327.2ZM1026.5 332.9H1024.9V315H1026.5V322H1029.5V323.4H1026.5V332.9Z" fill="black"/>
<path d="M1039.5 326.6L1039.6 327.9C1037.1 328.3 1035.1 328.4 1032.8 328.4H1031.6V321.8H1036.4V318.2H1031.5V316.9H1037.9V323.1H1033.1V327.1C1035.3 327.1 1037.2 327 1039.5 326.6ZM1042.6 331.9H1041.1V322.7H1038.9V321.3H1041.1V315.3H1042.6V331.9ZM1044.7 332.9V315H1046.3V332.9H1044.7Z" fill="black"/>
<path d="M1054.5 325C1051.8 325 1049.8 323.2 1049.8 320.6C1049.8 318 1051.8 316.2 1054.5 316.2C1057.2 316.2 1059.2 318 1059.2 320.6C1059.2 323.2 1057.2 325 1054.5 325ZM1054.5 323.6C1056.3 323.6 1057.6 322.4 1057.6 320.6C1057.6 318.9 1056.3 317.6 1054.5 317.6C1052.7 317.6 1051.4 318.8 1051.4 320.6C1051.5 322.4 1052.8 323.6 1054.5 323.6ZM1052.6 332.5V326.7H1054.2V331.1H1064.6V332.4H1052.6V332.5ZM1062.5 315H1064.1V328.1H1062.5V315Z" fill="black"/>
<path d="M1083.5 327.7L1082.6 329C1080.5 328 1078.8 326 1077.9 323.5C1077.1 326.1 1075.3 328.4 1073.3 329.4L1072.3 328.1C1074.9 326.9 1077.1 323.5 1077.1 320.4V318.1H1072.9V316.7H1082.9V318.1H1078.7V320.4C1078.7 323.5 1080.9 326.6 1083.5 327.7ZM1085.4 332.9V315H1087V332.9H1085.4Z" fill="black"/>
<path d="M1101.3 327.4L1100.3 328.7C1098.4 327.7 1096.8 325.6 1096 323.1C1095.2 325.8 1093.6 327.9 1091.5 329L1090.5 327.7C1093.1 326.4 1095.1 322.9 1095.1 319.7V316.5H1096.7V319.7C1096.8 322.9 1098.8 326.1 1101.3 327.4ZM1104.5 332.9H1102.9V315H1104.5V322.3H1107.5V323.7H1104.5V332.9Z" fill="black"/>
<path d="M950.6 352.2C953.914 352.2 956.6 349.514 956.6 346.2C956.6 342.886 953.914 340.2 950.6 340.2C947.286 340.2 944.6 342.886 944.6 346.2C944.6 349.514 947.286 352.2 950.6 352.2Z" fill="#028F37"/>
<path d="M950.6 346.2L958.7 262H976.7" stroke="#028F37" stroke-miterlimit="10"/>
<path d="M995.3 269.8H993.7V262.9H986.4V261.6H998.3C998.6 260.3 998.8 259.2 998.8 258.2L988.1 258.7L987.9 257.3L998.9 256.9C998.9 256.5 998.9 256.1 998.9 255.8V254.4H988.4V253H1000.5V254.6C1000.5 256.5 1000.5 258.6 999.9 261.5H1002.6V262.8H995.3V269.8Z" fill="black"/>
<path d="M1010 262.2V268.3H1008.4V262.3C1007 262.4 1005.7 262.4 1004.7 262.4L1004.5 261C1007 261 1011 261 1013.8 260.5L1013.9 261.7C1012.7 262 1011.3 262.1 1010 262.2ZM1005.4 256.3C1005.4 254.3 1007 253 1009.3 253C1011.5 253 1013.2 254.3 1013.2 256.3C1013.2 258.2 1011.5 259.6 1009.3 259.6C1007 259.6 1005.4 258.2 1005.4 256.3ZM1006.8 256.3C1006.8 257.5 1007.8 258.4 1009.2 258.4C1010.6 258.4 1011.6 257.6 1011.6 256.3C1011.6 255.1 1010.6 254.2 1009.2 254.2C1007.8 254.2 1006.8 255.1 1006.8 256.3ZM1016.5 268.9H1015V264.9H1011.6V263.6H1015V252.3H1016.5V268.9ZM1018.4 269.8V251.9H1020V269.8H1018.4Z" fill="black"/>
<path d="M1032.9 259.5C1032.9 263.3 1031 265.8 1028.3 265.8C1025.6 265.8 1023.7 263.4 1023.7 259.5C1023.7 255.7 1025.6 253.2 1028.3 253.2C1031 253.2 1032.9 255.7 1032.9 259.5ZM1025.4 259.5C1025.4 262.4 1026.6 264.3 1028.4 264.3C1030.1 264.3 1031.4 262.4 1031.4 259.5C1031.4 256.6 1030.2 254.7 1028.4 254.7C1026.6 254.7 1025.4 256.6 1025.4 259.5ZM1036.2 269.8V251.8H1037.8V269.8H1036.2Z" fill="black"/>
<path d="M1041.5 267.5V266.2H1057.8V267.5H1041.5ZM1043.6 253.4H1055.7V254.7H1045.2V257.4H1055.3V258.7H1045.2V261.5H1055.9V262.8H1043.6V253.4Z" fill="black"/>
<path d="M1075.6 264.6L1074.7 265.9C1072.6 264.9 1070.9 262.9 1070 260.4C1069.2 263 1067.4 265.3 1065.4 266.3L1064.4 265C1067 263.8 1069.2 260.4 1069.2 257.3V255H1065V253.6H1075V255H1070.8V257.3C1070.8 260.4 1073 263.5 1075.6 264.6ZM1077.5 269.8V251.9H1079.1V269.8H1077.5Z" fill="black"/>
<path d="M1093.4 264.3L1092.4 265.6C1090.5 264.6 1088.9 262.5 1088.1 260C1087.3 262.7 1085.7 264.8 1083.6 265.9L1082.6 264.6C1085.2 263.3 1087.2 259.8 1087.2 256.6V253.4H1088.8V256.6C1088.8 259.8 1090.9 263 1093.4 264.3ZM1096.6 269.8H1095V251.9H1096.6V259.2H1099.6V260.6H1096.6V269.8Z" fill="black"/>
<path d="M994.9 291.5H990.1V289.8H1001.7V291.5H996.9V303.8H994.9V291.5Z" fill="black"/>
<path d="M1010.2 294.2C1011 294.9 1011.4 296 1011.4 297.4V303.8H1009.6V302.4C1009.3 302.9 1008.8 303.3 1008.2 303.5C1007.6 303.8 1006.9 303.9 1006.1 303.9C1004.9 303.9 1004 303.6 1003.3 303C1002.6 302.4 1002.2 301.7 1002.2 300.7C1002.2 299.8 1002.5 299 1003.2 298.4C1003.9 297.8 1005 297.5 1006.4 297.5H1009.4V297.1C1009.4 296.3 1009.2 295.6 1008.7 295.2C1008.2 294.8 1007.5 294.5 1006.6 294.5C1006 294.5 1005.4 294.6 1004.8 294.8C1004.2 295 1003.7 295.3 1003.3 295.6L1002.5 294.2C1003 293.8 1003.7 293.4 1004.5 293.2C1005.3 293 1006.1 292.8 1006.9 292.8C1008.3 293.1 1009.4 293.5 1010.2 294.2ZM1008.3 301.9C1008.8 301.6 1009.2 301.1 1009.5 300.5V299H1006.5C1004.9 299 1004.1 299.5 1004.1 300.6C1004.1 301.1 1004.3 301.6 1004.7 301.9C1005.1 302.2 1005.7 302.4 1006.4 302.4C1007.2 302.4 1007.8 302.3 1008.3 301.9Z" fill="black"/>
<path d="M1015 290.8C1014.8 290.6 1014.6 290.3 1014.6 289.9C1014.6 289.5 1014.7 289.3 1015 289C1015.2 288.8 1015.6 288.6 1015.9 288.6C1016.3 288.6 1016.6 288.7 1016.8 289C1017 289.2 1017.2 289.5 1017.2 289.9C1017.2 290.3 1017.1 290.6 1016.8 290.8C1016.5 291 1016.2 291.2 1015.9 291.2C1015.5 291.2 1015.2 291 1015 290.8ZM1015 293.2H1016.9V303.8H1015V293.2Z" fill="black"/>
<path d="M1029.4 294.3C1030.2 295.1 1030.6 296.2 1030.6 297.7V303.8H1028.7V297.9C1028.7 296.9 1028.5 296.1 1028 295.6C1027.5 295.1 1026.8 294.8 1025.9 294.8C1024.9 294.8 1024 295.1 1023.4 295.7C1022.8 296.3 1022.5 297.2 1022.5 298.3V303.8H1020.6V289H1022.5V294.7C1022.9 294.2 1023.4 293.8 1024.1 293.5C1024.7 293.2 1025.5 293.1 1026.3 293.1C1027.5 293.1 1028.6 293.5 1029.4 294.3Z" fill="black"/>
<path d="M1041.4 294.2C1042.2 294.9 1042.6 296 1042.6 297.4V303.8H1040.8V302.4C1040.5 302.9 1040 303.3 1039.4 303.5C1038.8 303.8 1038.1 303.9 1037.3 303.9C1036.1 303.9 1035.2 303.6 1034.5 303C1033.8 302.4 1033.4 301.7 1033.4 300.7C1033.4 299.8 1033.7 299 1034.4 298.4C1035.1 297.8 1036.2 297.5 1037.6 297.5H1040.6V297.1C1040.6 296.3 1040.4 295.6 1039.9 295.2C1039.4 294.8 1038.7 294.5 1037.8 294.5C1037.2 294.5 1036.6 294.6 1036 294.8C1035.4 295 1034.9 295.3 1034.5 295.6L1033.7 294.2C1034.2 293.8 1034.9 293.4 1035.7 293.2C1036.5 293 1037.3 292.8 1038.1 292.8C1039.5 293.1 1040.6 293.5 1041.4 294.2ZM1039.5 301.9C1040 301.6 1040.4 301.1 1040.7 300.5V299H1037.7C1036.1 299 1035.3 299.5 1035.3 300.6C1035.3 301.1 1035.5 301.6 1035.9 301.9C1036.3 302.2 1036.9 302.4 1037.6 302.4C1038.3 302.4 1038.9 302.3 1039.5 301.9Z" fill="black"/>
<path d="M1055 294.3C1055.8 295.1 1056.2 296.2 1056.2 297.7V303.8H1054.3V297.9C1054.3 296.9 1054.1 296.1 1053.6 295.6C1053.1 295.1 1052.4 294.8 1051.5 294.8C1050.5 294.8 1049.6 295.1 1049 295.7C1048.4 296.3 1048.1 297.2 1048.1 298.3V303.8H1046.2V293.2H1048V294.8C1048.4 294.3 1048.9 293.8 1049.6 293.5C1050.3 293.2 1051 293.1 1051.9 293.1C1053.1 293.1 1054.2 293.5 1055 294.3Z" fill="black"/>
<path d="M1070 297.6L1067.4 300.2V303.8H1065.4V289.8H1067.4V297.6L1075 289.8H1077.3L1071.3 296.1L1077.7 303.8H1075.4L1070 297.6Z" fill="black"/>
<path d="M1089 293.2V303.8H1087.2V302.2C1086.8 302.7 1086.3 303.2 1085.7 303.5C1085.1 303.8 1084.4 304 1083.6 304C1082.2 304 1081.1 303.6 1080.3 302.8C1079.5 302 1079.1 300.9 1079.1 299.3V293.2H1081V299.1C1081 300.1 1081.2 300.9 1081.7 301.4C1082.2 301.9 1082.9 302.2 1083.8 302.2C1084.8 302.2 1085.6 301.9 1086.2 301.3C1086.8 300.7 1087.1 299.8 1087.1 298.7V293.2H1089Z" fill="black"/>
<path d="M1108.7 293.2L1104.7 303.8H1102.9L1099.8 295.8L1096.7 303.8H1094.9L1091 293.2H1092.8L1095.9 301.6L1099.1 293.2H1100.7L1103.8 301.7L1107 293.2H1108.7Z" fill="black"/>
<path d="M1117.5 294.2C1118.3 294.9 1118.7 296 1118.7 297.4V303.8H1116.9V302.4C1116.6 302.9 1116.1 303.3 1115.5 303.5C1114.9 303.8 1114.2 303.9 1113.4 303.9C1112.2 303.9 1111.3 303.6 1110.6 303C1109.9 302.4 1109.5 301.7 1109.5 300.7C1109.5 299.8 1109.8 299 1110.5 298.4C1111.2 297.8 1112.3 297.5 1113.7 297.5H1116.7V297.1C1116.7 296.3 1116.5 295.6 1116 295.2C1115.5 294.8 1114.8 294.5 1113.9 294.5C1113.3 294.5 1112.7 294.6 1112.1 294.8C1111.5 295 1111 295.3 1110.6 295.6L1109.8 294.2C1110.3 293.8 1111 293.4 1111.8 293.2C1112.6 293 1113.4 292.8 1114.2 292.8C1115.6 293.1 1116.8 293.5 1117.5 294.2ZM1115.6 301.9C1116.1 301.6 1116.5 301.1 1116.8 300.5V299H1113.8C1112.2 299 1111.4 299.5 1111.4 300.6C1111.4 301.1 1111.6 301.6 1112 301.9C1112.4 302.2 1113 302.4 1113.7 302.4C1114.5 302.4 1115.1 302.3 1115.6 301.9Z" fill="black"/>
<path d="M1122.3 290.8C1122.1 290.6 1121.9 290.3 1121.9 289.9C1121.9 289.5 1122 289.3 1122.3 289C1122.5 288.8 1122.9 288.6 1123.2 288.6C1123.6 288.6 1123.9 288.7 1124.1 289C1124.3 289.2 1124.5 289.5 1124.5 289.9C1124.5 290.3 1124.4 290.6 1124.1 290.8C1123.8 291 1123.5 291.2 1123.2 291.2C1122.9 291.2 1122.6 291 1122.3 290.8ZM1122.3 293.2H1124.2V303.8H1122.3V293.2Z" fill="black"/>
<path d="M1133.8 303.2C1133.5 303.4 1133.2 303.6 1132.8 303.8C1132.4 303.9 1132 304 1131.5 304C1130.4 304 1129.6 303.7 1129 303.1C1128.4 302.5 1128.1 301.7 1128.1 300.6V294.8H1126.3V293.2H1128.1V290.9H1130V293.2H1133V294.8H1130V300.5C1130 301.1 1130.1 301.5 1130.4 301.8C1130.7 302.1 1131.1 302.3 1131.6 302.3C1132.2 302.3 1132.7 302.1 1133.1 301.8L1133.8 303.2Z" fill="black"/>
<path d="M771.2 336.9C770.2 336.6 769.4 336.1 768.9 335.6L769.6 334C770.1 334.5 770.8 334.9 771.7 335.2C772.5 335.5 773.4 335.7 774.3 335.7C775.5 335.7 776.3 335.5 776.9 335.1C777.5 334.7 777.8 334.2 777.8 333.5C777.8 333 777.6 332.6 777.3 332.3C777 332 776.6 331.8 776.1 331.6C775.6 331.4 775 331.3 774.1 331.1C773 330.8 772.2 330.6 771.6 330.3C771 330 770.4 329.7 769.9 329.1C769.4 328.5 769.2 327.9 769.2 327C769.2 326.3 769.4 325.6 769.8 325C770.2 324.4 770.8 323.9 771.6 323.6C772.4 323.2 773.4 323.1 774.6 323.1C775.4 323.1 776.2 323.2 777 323.4C777.8 323.6 778.5 323.9 779.1 324.3L778.4 325.9C777.8 325.5 777.2 325.2 776.5 325C775.8 324.8 775.2 324.7 774.5 324.7C773.4 324.7 772.5 324.9 772 325.3C771.5 325.7 771.2 326.2 771.2 326.9C771.2 327.4 771.4 327.8 771.7 328.1C772 328.4 772.4 328.6 772.9 328.8C773.4 329 774 329.1 774.8 329.3C775.9 329.6 776.7 329.8 777.3 330.1C777.9 330.4 778.5 330.7 779 331.3C779.5 331.9 779.7 332.5 779.7 333.4C779.7 334.1 779.5 334.8 779.1 335.4C778.7 336 778.1 336.5 777.3 336.8C776.5 337.2 775.5 337.3 774.3 337.3C773.2 337.4 772.2 337.2 771.2 336.9Z" fill="black"/>
<path d="M789.5 327.6C790.3 328.3 790.7 329.4 790.7 330.8V337.2H788.9V335.8C788.6 336.3 788.1 336.7 787.5 336.9C786.9 337.2 786.2 337.3 785.4 337.3C784.2 337.3 783.3 337 782.6 336.4C781.9 335.8 781.5 335.1 781.5 334.1C781.5 333.2 781.8 332.4 782.5 331.8C783.2 331.2 784.3 330.9 785.7 330.9H788.7V330.5C788.7 329.7 788.5 329 788 328.6C787.5 328.2 786.8 327.9 785.9 327.9C785.3 327.9 784.7 328 784.1 328.2C783.5 328.4 783 328.7 782.6 329L781.8 327.6C782.3 327.2 783 326.8 783.8 326.6C784.6 326.4 785.4 326.2 786.2 326.2C787.6 326.5 788.7 326.9 789.5 327.6ZM787.6 335.4C788.1 335.1 788.5 334.6 788.8 334V332.5H785.8C784.2 332.5 783.4 333 783.4 334.1C783.4 334.6 783.6 335.1 784 335.4C784.4 335.7 785 335.9 785.7 335.9C786.4 335.8 787.1 335.7 787.6 335.4Z" fill="black"/>
<path d="M804.1 326.6V337.2H802.3V335.6C801.9 336.1 801.4 336.6 800.8 336.9C800.2 337.2 799.5 337.4 798.7 337.4C797.3 337.4 796.2 337 795.4 336.2C794.6 335.4 794.2 334.3 794.2 332.7V326.6H796.1V332.5C796.1 333.5 796.3 334.3 796.8 334.8C797.3 335.3 798 335.6 798.9 335.6C799.9 335.6 800.7 335.3 801.3 334.7C801.9 334.1 802.2 333.2 802.2 332.1V326.6H804.1Z" fill="black"/>
<path d="M817.8 322.4V337.2H816V335.5C815.6 336.1 815 336.5 814.4 336.8C813.7 337.1 813 337.3 812.2 337.3C811.2 337.3 810.3 337.1 809.4 336.6C808.6 336.1 807.9 335.5 807.5 334.7C807 333.9 806.8 332.9 806.8 331.9C806.8 330.9 807 329.9 807.5 329.1C808 328.3 808.6 327.7 809.4 327.2C810.2 326.7 811.1 326.5 812.2 326.5C813 326.5 813.7 326.6 814.3 326.9C814.9 327.2 815.5 327.6 815.9 328.2V322.4H817.8ZM814.1 335.2C814.6 334.9 815.1 334.4 815.4 333.9C815.7 333.3 815.9 332.7 815.9 332C815.9 331.3 815.7 330.6 815.4 330C815.1 329.4 814.7 329 814.1 328.7C813.6 328.4 812.9 328.2 812.3 328.2C811.6 328.2 811 328.4 810.5 328.7C810 329 809.5 329.4 809.2 330C808.9 330.6 808.7 331.2 808.7 332C808.7 332.8 808.9 333.4 809.2 333.9C809.5 334.5 809.9 334.9 810.5 335.2C811 335.5 811.6 335.7 812.3 335.7C813 335.6 813.6 335.5 814.1 335.2Z" fill="black"/>
<path d="M821.5 324.2C821.3 324 821.1 323.7 821.1 323.3C821.1 322.9 821.2 322.7 821.5 322.4C821.7 322.2 822.1 322 822.4 322C822.8 322 823.1 322.1 823.3 322.4C823.5 322.6 823.7 322.9 823.7 323.3C823.7 323.7 823.6 324 823.3 324.2C823 324.4 822.7 324.6 822.4 324.6C822 324.6 821.7 324.4 821.5 324.2ZM821.4 326.6H823.3V337.2H821.4V326.6Z" fill="black"/>
<path d="M835.4 324.9H830.6V323.2H842.2V324.9H837.4V337.2H835.4V324.9Z" fill="black"/>
<path d="M850.8 327.6C851.6 328.3 852 329.4 852 330.8V337.2H850.2V335.8C849.9 336.3 849.4 336.7 848.8 336.9C848.2 337.2 847.5 337.3 846.7 337.3C845.5 337.3 844.6 337 843.9 336.4C843.2 335.8 842.8 335.1 842.8 334.1C842.8 333.2 843.1 332.4 843.8 331.8C844.5 331.2 845.6 330.9 847 330.9H850V330.5C850 329.7 849.8 329 849.3 328.6C848.8 328.2 848.1 327.9 847.2 327.9C846.6 327.9 846 328 845.4 328.2C844.8 328.4 844.3 328.7 843.9 329L843.1 327.6C843.6 327.2 844.3 326.8 845.1 326.6C845.9 326.4 846.7 326.2 847.5 326.2C848.9 326.5 850 326.9 850.8 327.6ZM848.9 335.4C849.4 335.1 849.8 334.6 850.1 334V332.5H847.1C845.5 332.5 844.7 333 844.7 334.1C844.7 334.6 844.9 335.1 845.3 335.4C845.7 335.7 846.3 335.9 847 335.9C847.7 335.8 848.4 335.7 848.9 335.4Z" fill="black"/>
<path d="M855.6 324.2C855.4 324 855.2 323.7 855.2 323.3C855.2 322.9 855.3 322.7 855.6 322.4C855.8 322.2 856.2 322 856.5 322C856.9 322 857.2 322.1 857.4 322.4C857.6 322.6 857.8 322.9 857.8 323.3C857.8 323.7 857.7 324 857.4 324.2C857.1 324.4 856.8 324.6 856.5 324.6C856.1 324.6 855.8 324.4 855.6 324.2ZM855.5 326.6H857.4V337.2H855.5V326.6Z" fill="black"/>
<path d="M870 327.7C870.8 328.5 871.2 329.6 871.2 331.1V337.2H869.3V331.3C869.3 330.3 869.1 329.5 868.6 329C868.1 328.5 867.4 328.2 866.5 328.2C865.5 328.2 864.6 328.5 864 329.1C863.4 329.7 863.1 330.6 863.1 331.7V337.2H861.2V322.4H863.1V328.1C863.5 327.6 864 327.2 864.7 326.9C865.3 326.6 866.1 326.5 866.9 326.5C868.1 326.5 869.2 326.9 870 327.7Z" fill="black"/>
<path d="M882 327.6C882.8 328.3 883.2 329.4 883.2 330.8V337.2H881.4V335.8C881.1 336.3 880.6 336.7 880 336.9C879.4 337.2 878.7 337.3 877.9 337.3C876.7 337.3 875.8 337 875.1 336.4C874.4 335.8 874 335.1 874 334.1C874 333.2 874.3 332.4 875 331.8C875.7 331.2 876.8 330.9 878.2 330.9H881.2V330.5C881.2 329.7 881 329 880.5 328.6C880 328.2 879.3 327.9 878.4 327.9C877.8 327.9 877.2 328 876.6 328.2C876 328.4 875.5 328.7 875.1 329L874.3 327.6C874.8 327.2 875.5 326.8 876.3 326.6C877.1 326.4 877.9 326.2 878.7 326.2C880.1 326.5 881.2 326.9 882 327.6ZM880 335.4C880.5 335.1 880.9 334.6 881.2 334V332.5H878.2C876.6 332.5 875.8 333 875.8 334.1C875.8 334.6 876 335.1 876.4 335.4C876.8 335.7 877.4 335.9 878.1 335.9C878.9 335.8 879.5 335.7 880 335.4Z" fill="black"/>
<path d="M895.6 327.7C896.4 328.5 896.8 329.6 896.8 331.1V337.2H894.9V331.3C894.9 330.3 894.7 329.5 894.2 329C893.7 328.5 893 328.2 892.1 328.2C891.1 328.2 890.2 328.5 889.6 329.1C889 329.7 888.7 330.6 888.7 331.7V337.2H886.8V326.6H888.6V328.2C889 327.7 889.5 327.2 890.2 326.9C890.9 326.6 891.6 326.5 892.5 326.5C893.7 326.5 894.8 326.9 895.6 327.7Z" fill="black"/>
</g>
<defs>
<linearGradient id="paint0_linear_40_9298" x1="960" y1="100" x2="960" y2="0" gradientUnits="userSpaceOnUse">
<stop stop-color="#E1E7EF" stop-opacity="0"/>
<stop offset="1" stop-color="#E1E7EF" stop-opacity="0.3"/>
</linearGradient>
<linearGradient id="paint1_linear_40_9298" x1="1173.9" y1="349.4" x2="1946.2" y2="349.4" gradientUnits="userSpaceOnUse">
<stop offset="1.34813e-07" stop-color="#CAD2DB"/>
<stop offset="0.5275" stop-color="#CBD3DC"/>
<stop offset="1" stop-color="#E1E7EF"/>
</linearGradient>
<linearGradient id="paint2_linear_40_9298" x1="591.85" y1="357.5" x2="591.85" y2="723.4" gradientUnits="userSpaceOnUse">
<stop offset="0.3995" stop-color="#CAD2DB"/>
<stop offset="1" stop-color="#E1E7EF"/>
</linearGradient>
<clipPath id="clip0_40_9298">
<rect width="1920" height="700" fill="white"/>
</clipPath>
</defs>
</svg>
