<?xml version="1.0" encoding="utf-8"?>
<!-- Generator: Adobe Illustrator 26.1.0, SVG Export Plug-In . SVG Version: 6.00 Build 0)  -->
<svg version="1.1" id="레이어_1" xmlns="http://www.w3.org/2000/svg" xmlns:xlink="http://www.w3.org/1999/xlink" x="0px"
	 y="0px" viewBox="0 0 1920 700" style="enable-background:new 0 0 1920 700;" xml:space="preserve">
<style type="text/css">
	.st0{clip-path:url(#SVGID_00000111870552163795985110000014605622745117861293_);}
	.st1{fill:#FFFFFF;}
	
		.st2{clip-path:url(#SVGID_00000021811478450809524950000011655170407802135681_);fill:url(#SVGID_00000034084537264967868520000013649908368905982342_);}
	.st3{clip-path:url(#SVGID_00000154392156823482230920000004124817970356103357_);}
	.st4{fill:#CAD2DB;}
	.st5{clip-path:url(#SVGID_00000169544964270231856550000017607287440944200601_);fill:none;}
	.st6{clip-path:url(#SVGID_00000055704972264954740570000017657629532024587654_);fill:none;}
	.st7{clip-path:url(#SVGID_00000006675958219804979360000000070006275662399123_);fill:none;}
	.st8{clip-path:url(#SVGID_00000106114010168149548120000002155307386127333822_);fill:none;}
	.st9{clip-path:url(#SVGID_00000134238369441105403680000001746032958379925416_);fill:none;}
	.st10{clip-path:url(#SVGID_00000130619725903937076700000011422013219777939128_);fill:none;}
	.st11{clip-path:url(#SVGID_00000068651488721843034400000012772386918210964652_);fill:none;}
	.st12{clip-path:url(#SVGID_00000105418319581496338640000002368410239818530229_);fill:none;}
	.st13{clip-path:url(#SVGID_00000039837652038404798280000008526813849918342573_);fill:none;}
	.st14{clip-path:url(#SVGID_00000168087839276003730320000002965759812983572671_);fill:none;}
	
		.st15{clip-path:url(#SVGID_00000129201089571006058780000004856588620945011342_);fill:url(#SVGID_00000136386409913018751700000012994812522162323373_);}
	.st16{clip-path:url(#SVGID_00000075123314021351757670000016776795403932239292_);fill:#CAD2DB;}
	
		.st17{clip-path:url(#SVGID_00000162313182760051398480000003625738355846539948_);fill:url(#SVGID_00000068655207712665753500000017024880153898573458_);}
	.st18{clip-path:url(#SVGID_00000074407093971692730710000007234205105048518316_);fill:#E0E6EE;}
	.st19{clip-path:url(#SVGID_00000028303124415559005140000007023758721904584106_);}
	.st20{fill:#028F37;}
	.st21{fill:#AAAAAA;}
	.st22{fill:none;stroke:#028F37;stroke-miterlimit:10;}
	.st23{fill:#5D6FCC;}
	.st24{fill:none;stroke:#5D6FCC;stroke-miterlimit:10;}
	.st25{clip-path:url(#SVGID_00000010308578242294179480000006042690505263055037_);fill:#5D6FCC;}
</style>
<g>
	<g>
		<g>
			<g>
				<g>
					<g>
						<defs>
							<rect id="SVGID_1_" y="0" width="1920" height="700"/>
						</defs>
						<clipPath id="SVGID_00000133502327804119225000000013067144923125405323_">
							<use xlink:href="#SVGID_1_"  style="overflow:visible;"/>
						</clipPath>
						<g style="clip-path:url(#SVGID_00000133502327804119225000000013067144923125405323_);">
							<g>
								<path class="st1" d="M277.1,439.5c0,4,2,12,6,20.1c4,8,4,2,8-2s12,4,12,4c4,2,36.1,10,42.2,12c6,2,8-6,8-14.1
									s6-102.4,6-102.4l16.1,6c0,0,48.2,54.2,50.2,58.2s2,4,2,6s4,6,4,6s4,2,6,4s4,4,10,4s4,6,4,6c-6,14.1,26.1,6,26.1,6v-12
									c0,0,32.1-16.1,46.2-22.1s16.1-2,16.1-2s6,4,14.1,8c8,4,12,0,16.1-4c4-4,16.1,0,18.1,2s70.3,38.1,76.3,40.1s6,6,6,6s2,6,2,8
									s2,6,0,6s-2,6-2,6s4,18.1,4,22.1s0,4-4,6s-10,6-12,14.1c-2,8-6,12-8,14.1s-2,4-2,4s10,8,12,10s4,2,2,8s4,10,6,12s4,6,2,12
									s0,8,6,8s14.1-6,16.1-16.1c2-10,14.1,2,16.1,6s10,2,10,2s16.1-2,24.1-2s8-4,10-8s4-2,10,0s12-2,12-2s8-4,12-8s0-6-2-12
									s14.1-8,14.1-8s0,4,0,8s0,8,2,8s4,8,8,16.1c4,8,2-2,2-8s4-6,8-8s2-6,2-12s6-8,10-8s6-6,6-14.1c0-8,4-14.1,4-16.1
									c0-1.4,4-6.8,6.2-9.8c-3.2-3.8-7.6-5.6-10.2-8.2c-4-4-6-18.1-4-26.1s-2-18.1-10-28.1s-4-12-10-26.1s-22.1-46.2-22.1-46.2
									l18.1-4c0,0,2,6,6,10s14.1,26.1,16.1,32.1s6,10,16.1,20.1c10,10,6,32.1,6,32.1c0,6,4,12,10,16.1s10,10,10,16.1
									c0,6,16.1,26.1,18.1,30.1s6,10,4,14.1c-2,4,4,22.1,4,30.1c0,4,0.4,8.2,1,11.8c1.6,2.2,3,4.6,3,6.2c0,4-16.1,42.2-16.1,42.2
									l14.1,8l60.2,2l-72.3,62.2l-8,6l63,14.3c4.8-6,9-12.6,12.6-19.7c11.2-21.5,21.3-44.4,30.5-67.4c4.4-11,8-23.7,3.8-36.9
									c-1.2-0.4-2.6-1.2-3.2-0.8c-8.4,6.6-18.1,7.8-27.7,9.8c-11.4,2.4-23.1,4.4-34.1,9c-8.2,3.4-13.4,1.4-18.3-6.6
									c-1.6-2.6-3.4-5.2-5-7.6c0.8-4.8,1.6-9.2,2.2-13.6c8.4-0.8,17.1-0.6,24.3-8c2.2-2.4,6-2.2,9.2-3.4c4.6-1.8,9.2-3.6,13.9-5.4
									c14.3-5.8,26.9-16.5,41.8-20.5c4.6-1.4,9.2-4,10.6-11c1-4.6,4-6.2,7-7.8c4-2,8-4,12.2-5c6.6-1.8,14.3-0.2,17.1-11.4
									c0.2-1.2,3-1.2,4.4-2.2c2.8-1.8,6.6-3.2,7.8-6.2c2.6-7.2,8.4-7.8,12.8-11c0.8-6,1.8-11.8,2.6-17.5c2.8-0.8,5.8-0.6,6.8-2.2
									c5-8.4,9.6-17.5,14.5-26.3c-7-11.4-13.6-21.5-25.7-23.3c-7.6-1.2-11.6-9.2-12.8-18.9c-0.6-4-0.4-8-0.8-14.3
									c-4.2,4.4-7.4,7.6-10.6,11c-14.7,16.9-14.7,16.9-34.1,18.5c-0.6,0-1,0.2-1.6,0.2c-5,0.2-7.8-3-7.4-10
									c0.4-6.6,1.2-13-3.2-18.9c-3.4,3.6-6.2,6.2-11.6,11.8c2.4-16.5-4.2-23.7-10.8-30.7c-6.8-7.4-10-17.3-12.4-27.3
									c11.6-15.3,19.5-14.9,27.3,1c3,6.4,6,12.8,8,17.3c6.6,5,12,8.2,16.7,12.8c11.8,11.4,24.3,12.4,37.7,5.8c2.4-1.2,4.8-2,7.2-3
									c2.2,6.4,4.2,12,6.6,18.9c16.3,3,32.7,6.2,49.2,9.2c2.6,0.4,5.2-1.2,8-1.4c15.1-1,29.9-1.8,43.8-2.8
									c5,4.4,7.6,10.6,10.8,15.9c8.2-0.8,18.5-2,20.7-3c4-2,4-4,6-8s20.1-12,26.1-14.1s6-2,4-8s-14.1-10-20.1-12s-6-14.1-6-14.1
									v-30.1l22.1,2c14.1,6,20.1-4,34.1-6c14.1-2,20.1-46.2,20.1-50.2s6-12,10-14.1c4-2,30.1-16.1,40.1-24.1s2-14.1,2-14.1
									s-18.1-18.1-22.1-26.1s-10-6-10-6s-16.1-8-22.1-12s0-18.1,0-18.1s18.1-54.2,22.1-64.2s6-20.1,22.1-22.1s6-32.1,6-42.2
									s-10-42.2-10-42.2L1300.5-25h-67.6l-78.5,8.8c0,0-10,16.1-22.1,22.1c-12,6-6,14.1-2,16.1s8,10,8,10
									c18.1,30.1-26.1,18.1-26.1,18.1L1029.9,32l-16.1-10c0,0-32.1-4-46.2-6s-18.1,6-30.1,16.1c-12,10-18.1,30.1-18.1,44.2
									s24.1,30.1,32.1,34.1c2.8,1.4,5,2.8,6.4,4c3.2-2.6,6.6-5.2,9.6-6c6-2,16.1-14.1,26.1-12c10,2,14.1,4,16.1,2c0,0,6,12,0,16.1
									c-6,4-16.1,4-18.1,8s-6,10-10,10c0,0,6,6,8,12s14.1,12,14.1,14.1c0,2,2-2,2,4s2,12,2,12s2-2,4-4s8-4,10,0s12,16.1,2,14.1
									c-10-2-12,0-14.1,4c-2,4,0,6,2,10s8,10,8,22.1s2,14.1,2,14.1l6,12l-10-8c0,0-18.1,12-30.1,2s-12-6-14.1-8c-2-2-10-6-6-18.1
									c4-12,8-22.1,8-22.1s4-2-2-8s-22.1-24.1-22.1-30.1c0-0.8,0-1.4,0-2c-3,2.8-7.4,6.8-12,10c-8,6-30.1-2-42.2-4
									c-4.6-0.8-10.8-1-16.5-0.8c1.4,1.2,2.4,3.2,2.4,6.8c0,10-2,14.1-10,16.1s-36.1,2-42.2-2c-6-4-26.1-14.1-32.1-12
									c-6,2-16.1,2-24.1,6s-6,10-26.1,6c-9-1.8-13.9-2.4-16.7-3.2L708.3,194c0,0.2,0,0.6,0,0.8c-2,12-2,14.1-2,14.1l6,4l-4,6
									c0,0,14.1,14.1,12,22.1c0,0,8,6,8,12l4-8c0,0,26.1,16.1,28.1-2c0,0,10-2,16.1,6c6,8,12,6,18.1,2c6-4,16.1-6,22.1-4
									c0,0,4,22.1-2,32.1s-10,32.1-10,32.1s-2,12-14.1,12c-12,0-16.1-2-18.1-4s-8-6-14.1-2c-6,4-10,12-20.1,8c-10-4-22.1-8-30.1-8
									s-8,0-8,0s-2-6-8-6s-16.1-4-20.1-8s-12-10-22.1-4c-10,6-12,8-12,18.1s0,24.1-18.1,14.1s-20.1-10-26.1-10s-8-8-8-10
									s-4-8-12-10s-22.1,0-28.1-6s-12-10-14.1-10c-2,0-6-2,0-8s8-10,2-22.1c0,0,0-6,2-10s2-4-4-4c0,0-6-8-12-6s-14.1,6-14.1,6
									s-18.1-4-26.1,0s-20.1,0-26.1,0s-36.1,6-54.2,20.1c0,0-6,8-20.1,4h-14.1c0,0-4,0-7.4-2h-9.8c-4.4,14.1-11.4,24.3-24.1,28.9
									c-9,3.2-11.8,15.3-16.5,24.3c-3.8,7-1.4,14.5-0.2,21.3c-8,16.1-16.3,24.7-29.7,29.9c-5.6,2.2-8.6,6.2-12,12.2
									c-6.4,12-16.9,20.9-18.7,36.9c-0.2,1.6-2,3.2-3.2,4.4c-0.4,0.4-0.6,0.8-1,1c5,1.6,18.1,6.2,26.1,9.4
									C279.2,435.5,277.1,435.5,277.1,439.5z M728.8,188.6l-6-2c0,0,12-6,16.1,0C738.8,186.6,736.8,192.6,728.8,188.6z"/>
							</g>
						</g>
					</g>
				</g>
			</g>
		</g>
	</g>
</g>
<g>
	<g>
		<g>
			<g>
				<g>
					<g>
						<defs>
							<rect id="SVGID_00000125581919448781052870000002607717338228332725_" y="0" width="1920" height="700"/>
						</defs>
						<clipPath id="SVGID_00000044856490443272712760000006948136938477742762_">
							<use xlink:href="#SVGID_00000125581919448781052870000002607717338228332725_"  style="overflow:visible;"/>
						</clipPath>
						
							<linearGradient id="SVGID_00000019644560014948767220000016874120718685088911_" gradientUnits="userSpaceOnUse" x1="960" y1="760.8897" x2="960" y2="660.8897" gradientTransform="matrix(1 0 0 1 0 -660.8897)">
							<stop  offset="0" style="stop-color:#E1E7EF;stop-opacity:0"/>
							<stop  offset="1" style="stop-color:#E1E7EF;stop-opacity:0.3"/>
						</linearGradient>
						
							<rect y="0" style="clip-path:url(#SVGID_00000044856490443272712760000006948136938477742762_);fill:url(#SVGID_00000019644560014948767220000016874120718685088911_);" width="1920" height="100"/>
					</g>
				</g>
			</g>
		</g>
	</g>
</g>
<g>
	<g>
		<g>
			<g>
				<g>
					<g>
						<defs>
							<rect id="SVGID_00000002386301501750058210000006928675204916344973_" y="0" width="1920" height="700"/>
						</defs>
						<clipPath id="SVGID_00000062152770718465668300000004064624770960794272_">
							<use xlink:href="#SVGID_00000002386301501750058210000006928675204916344973_"  style="overflow:visible;"/>
						</clipPath>
						
							<g id="Layer_2_00000014607279671892548640000005885046538862342310_" style="clip-path:url(#SVGID_00000062152770718465668300000004064624770960794272_);">
							<ellipse class="st4" cx="1843.9" cy="291" rx="3" ry="2"/>
							<path class="st4" d="M1923.2,258.9c0,0-8,2-10,4s-32.1,26.1-32.1,26.1s-4,2-4,6s8,18.1,8,22.1s2,12,10,4s8-28.1,8-30.1
								s2-6,4-2s6,12,6,12s2-6,12-12l10-18.1L1923.2,258.9z"/>
							<path class="st4" d="M1786.7,407.4c0,0-12,6-12,12s-6,16.1-4,22.1s8,16.1,8,12c0-4,6-18.1,8-24.1S1790.7,411.4,1786.7,407.4z
								"/>
							<path class="st4" d="M1780.6,503.8l12,4c0,0,2,6,2,8s4,10,2,14.1c-2,4-6,12-8,14.1s-4,6-2,12s4,8,4,10c0,0,4-2,8,0s6,4,10,6
								s8,8,8,8s0,12-2,10s-10-4-10-6s-2-6-6-6s-8-4-8-4s-4-2-4,0s-2,4-2,6s4,6,2,8s-2,8-4,6s-8-10-8-12s2-2,2-4s0-10-2-14.1
								s-8-14.1-8-18.1s2-8,4-10s2-4,2-8S1772.6,503.8,1780.6,503.8z"/>
							<path class="st4" d="M1810.7,590.1c0,0-4,0-4,2s0,4,2,4s4,0,4-2s0-4,0-4H1810.7z"/>
							<path class="st4" d="M1816,590.9c0,0,6.8,9.2,4.8,13.2s-4,4-2,8s4,12,4,12v4c0,0,2,0,4-2s2-10,2-12s2-2,2-4
								C1830.8,608.2,1836.8,586.1,1816,590.9z"/>
							<path class="st4" d="M1792.7,604.1c0,0,4-2,8,0s4,6,6,8s4,2,8,2c0,0,0,6,2,8s4,4,4,4s2,2,0,4s-6,2-10,4s-4,6-6,6c0,0-8-4-8-8
								s4-6,2-10s-10-4-8-8C1792.7,610.2,1792.7,604.1,1792.7,604.1z"/>
							<circle class="st4" cx="1769.6" cy="599.1" r="1"/>
							<path class="st4" d="M1762.6,612.2l-4,10C1758.6,622.2,1768.6,622.2,1762.6,612.2z"/>
							<path class="st4" d="M1752.5,632.2l-4,6C1748.5,638.3,1754.5,638.3,1752.5,632.2z"/>
							<path class="st4" d="M1746.5,640.3c0,0-4-2-6,6S1748.5,646.3,1746.5,640.3z"/>
							<path class="st4" d="M1832.8,632.2c0,0-13,20.5-22.1,16.1c-4-2-4-2-6,0s-14.1,12-14.1,18.1s0,10,2,4s2-10,6-8s8,2,10,0
								s6-2,6,2s-4,24.1,18.1,22.1v-14.1c0,0,4,0,6,2c0,0,6-8,4-14.1s-2-12-2-16.1S1836.8,632.2,1832.8,632.2z"/>
							<path class="st4" d="M1734.5,670.4c0,0,20.1,22.1,26.1,24.1c0,0-8,6-8,12l-28.1,6l-22.1-4l6-6
								C1708.4,702.5,1720.4,692.5,1734.5,670.4z"/>
							<path class="st4" d="M1491.6,690.5c0,0,24.1,2,28.1,14.1l-12,4h-12C1495.6,708.5,1485.6,694.5,1491.6,690.5z"/>
							<path class="st4" d="M1461.5,582.1v12h2C1463.5,594.1,1463.5,582.1,1461.5,582.1z"/>
							<path class="st4" d="M1316.9,638.3c0,0-6,24.1-2,34.1s6,18.1,16.1,10c10-8,8-14.1,4-24.1S1319,618.2,1316.9,638.3z"/>
							<path class="st1" d="M1025.9,590.1c0,0-10,0-8,2S1027.9,596.1,1025.9,590.1z"/>
							<path class="st4" d="M409.6-14.1c0,0,2,20.1,6,22.1s18.1-2,16.1,8s-2,18.1-4,20.1s-8,10-22.1,8s-32.1-2-36.1,6h-16.1
								L367.5,32c0,0-18.1-2-10-8s6-10,6-14.1s4-4,10-6s8-16.1,8-16.1L409.6-14.1z"/>
							<path class="st4" d="M345.4-8.1c0,0,0,6,0,16.1s-4,16.1-14.1,18.1s-28.1,4-30.1,4s-4-6-4-6s10-8,8-14.1s-12-2-6-14.1
								c6-12,38.1-24.1,38.1-24.1L345.4-8.1z"/>
							<path class="st1" d="M795,262.9c0,0-14.1-2-14.1,2s-4,10,4,10S799.1,266.9,795,262.9z"/>
							<path class="st4" d="M704.7,264.9c0,0-16.1-2-20.1-4s-6,6-6,6s6-2,12,0C696.7,268.9,700.7,268.9,704.7,264.9z"/>
							<path class="st4" d="M522,206.7c0-2,2-22.1-2-28.1s0-10,0-14.1s-2-10-6-6s-4,10-2,14.1c2,4,4,6,2,8s-8,6-8,6l2,26.1
								L522,206.7z"/>
							<path class="st4" d="M445.8,198.7c0,0-6,2-4,4s6,6,8,2S449.8,198.7,445.8,198.7z"/>
						</g>
					</g>
				</g>
			</g>
		</g>
	</g>
</g>
<g>
	<g>
		<g>
			<g>
				<g>
					<g>
						<defs>
							<rect id="SVGID_00000146500112212531379690000016337688127393664150_" y="0" width="1920" height="700"/>
						</defs>
						<clipPath id="SVGID_00000031175812394968544990000004977827478531977870_">
							<use xlink:href="#SVGID_00000146500112212531379690000016337688127393664150_"  style="overflow:visible;"/>
						</clipPath>
						<path style="clip-path:url(#SVGID_00000031175812394968544990000004977827478531977870_);fill:none;" d="M1946.2-12.1v-7
							c-1.4,1-2.6,2.4-4.4,3.8C1943-13.3,1944.6-12.5,1946.2-12.1z"/>
					</g>
				</g>
			</g>
		</g>
	</g>
</g>
<g>
	<g>
		<g>
			<g>
				<g>
					<g>
						<defs>
							<rect id="SVGID_00000102539745961900310990000008777103663128207533_" y="0" width="1920" height="700"/>
						</defs>
						<clipPath id="SVGID_00000145059636682612717620000006779278799813819321_">
							<use xlink:href="#SVGID_00000102539745961900310990000008777103663128207533_"  style="overflow:visible;"/>
						</clipPath>
						<path style="clip-path:url(#SVGID_00000145059636682612717620000006779278799813819321_);fill:none;" d="M1528.5,655.7
							c-1-1.6-4-1.2-7-2c0.2-5.2,0.4-10.6,0.8-15.9c0.8-9.4,3.6-19.1,2.6-27.9c-1-9,1.4-18.9-1.2-26.3c-6.2-17.5-6.2-37.1-14.1-55.4
							c-6,4.6-11.4,8.6-16.7,12.8c-5.8,4.8-11,2.4-16.9-1.8c1-4.6,2.2-8.4,2.4-12.4c0.4-5.4,0.4-10.8,0-16.3
							c-0.4-6.8-6.4-8.6-8.4-13.9c-1.8-4.4-1.4-9.2-6-12.8c-9.4-7.2-14.1-20.1-15.9-35.3c-6,3-11.2,6.2-16.5,8.2
							c-5.6,2-11.4,3.6-17.5,4c-5.8,0.4-11.8-2.4-17.7,3.2c-0.4,1.2-1.4,3-1.4,4.8c-0.6,8.6-4.4,14.1-10.2,16.7
							c-7,3-12,8.4-16.9,15.3c-4.2,6-9.4,11-14.5,16.3c-4,4.2-8.2,7.6-11.4,13.6c-3.2,5.8-10,9.6-15.9,12c-6.8,2.8-8.2,7.8-7.4,15.5
							c0.6,5.4,1.2,10.8,1.4,16.3c0.2,4.8,1,10.4-0.8,14.1c-4.8,9.4-3.6,19.7-3.4,29.9c-3.6,4.8-7.8,8.4-10.4,14.9
							s-8.6,11-12.4,17.5c-2,3.6-6.4,3.4-8.6,0c-3.4-5.2-7.6-10.4-9-16.7c-3-14.9-9.4-27.5-14.1-41.2c-6.4-19.5-13.4-38.7-19.3-58.4
							c-4-14.1-5-29.3-7.4-44.2c-0.4-2.6-1-5.8-0.2-8c2.8-8.8-0.2-15.9-3-23.1c-2,3-3.6,7-6.2,8.8c-8.4,5.4-11.8,9.6-21.5-2.4
							c-3.4-4.2-6.6-8.6-10.6-13.9c3-2.2,5-3.8,6.8-5c-6.4-5.6-12.4-12.4-19.3-16.9c-2.8-1.8-4.8-4.4-6.6-7.4
							c-3.2-5.2-5.6-11.4-10.8-15.9c-13.6,0.8-28.7,1.8-43.8,2.8c-2.6,0.2-5.4,1.8-8,1.4c-16.5-2.8-32.9-6-49.2-9.2
							c-2.4-6.8-4.2-12.4-6.6-18.9c-2.4,1-5,2-7.2,3c-13.4,6.6-26.1,5.6-37.7-5.8c-4.6-4.4-10-7.6-16.7-12.8c-2-4.2-4.8-10.8-8-17.3
							c-7.8-15.9-15.7-16.3-27.3-1c2.4,10,5.6,19.9,12.4,27.3c6.6,7,13.4,14.3,10.8,30.7c5.6-5.6,8.2-8.2,11.6-11.8
							c4.4,5.8,3.6,12.2,3.2,18.9c-0.4,7,2.4,10.2,7.4,10c0.6,0,1-0.2,1.6-0.2c19.5-1.6,19.5-1.6,34.1-18.5c3-3.6,6.4-6.8,10.6-11
							c0.4,6,0.2,10.2,0.8,14.3c1.2,9.6,5.2,17.7,12.8,18.9c12,1.8,18.7,11.8,25.7,23.3c-4.8,8.8-9.4,17.9-14.5,26.3
							c-1,1.6-4,1.4-6.8,2.2c-0.8,5.6-1.8,11.4-2.6,17.5c-4.4,3.2-10,3.8-12.8,11c-1.2,3-5,4.4-7.8,6.2c-1.4,1-4,1-4.4,2.2
							c-2.6,11.2-10.4,9.6-17.1,11.4c-4.2,1.2-8.2,3-12.2,5c-3,1.4-6,3-7,7.8c-1.4,7-6,9.8-10.6,11c-14.9,4-27.5,14.7-41.8,20.5
							c-4.6,1.8-9.2,3.8-13.9,5.4c-3,1.2-6.8,1.2-9.2,3.4c-7.2,7.4-15.9,7.2-24.3,8c-0.8,4.4-1.4,8.8-2.2,13.6c1.6,2.4,3.2,5,5,7.6
							c4.8,8,10.2,9.8,18.3,6.6c11-4.6,22.7-6.8,34.1-9c9.6-2,19.1-3.2,27.7-9.8c0.6-0.6,2,0.4,3.2,0.8c4.2,13,0.6,25.9-3.8,36.9
							c-9,23.1-19.1,46-30.5,67.4c-3.6,7-8,13.6-12.6,19.7c-0.2,0.2-0.4,0.4-0.6,0.8h611c-5.2-9.2-8.2-20.3-10-32.1
							C1542.8,676.6,1535.3,666.6,1528.5,655.7z"/>
					</g>
				</g>
			</g>
		</g>
	</g>
</g>
<g>
	<g>
		<g>
			<g>
				<g>
					<g>
						<defs>
							<rect id="SVGID_00000003101234847643156300000017349971935114278790_" y="0" width="1920" height="700"/>
						</defs>
						<clipPath id="SVGID_00000069372561387113336840000018424722007724492674_">
							<use xlink:href="#SVGID_00000003101234847643156300000017349971935114278790_"  style="overflow:visible;"/>
						</clipPath>
						<path style="clip-path:url(#SVGID_00000069372561387113336840000018424722007724492674_);fill:none;" d="M740.8,168.5
							l-8.6,6.8c2.8,0.8,7.6,1.4,16.7,3.2c20.1,4,18.1-2,26.1-6s18.1-4,24.1-6s26.1,8,32.1,12s34.1,4,42.2,2c8-2,10-6,10-16.1
							c0-3.8-1-5.8-2.4-6.8c-9.2,0.2-17.7,0.8-17.7,0.8L740.8,168.5z"/>
					</g>
				</g>
			</g>
		</g>
	</g>
</g>
<g>
	<g>
		<g>
			<g>
				<g>
					<g>
						<defs>
							<rect id="SVGID_00000036959093438408725020000016995172801441414551_" y="0" width="1920" height="700"/>
						</defs>
						<clipPath id="SVGID_00000111912788315851611160000010600183805145783449_">
							<use xlink:href="#SVGID_00000036959093438408725020000016995172801441414551_"  style="overflow:visible;"/>
						</clipPath>
						<path style="clip-path:url(#SVGID_00000111912788315851611160000010600183805145783449_);fill:none;" d="M895.4,539.9
							c2-4-2-10-4-14.1s-18.1-24.1-18.1-30.1s-4-12-10-16.1s-10-10-10-16.1c0,0,4-22.1-6-32.1s-14.1-14.1-16.1-20.1
							s-12-28.1-16.1-32.1c-4-4-6-10-6-10l-18.1,4c0,0,16.1,32.1,22.1,46.2s2,16.1,10,26.1s12,20.1,10,28.1s0,22.1,4,26.1
							c2.6,2.6,7,4.4,10.2,8.2c1.6,2,3,4.4,3.8,7.8c2,10,2,18.1,8,28.1s20.1,20.1,26.1,28.1s16.1,16.1,16.1,16.1s-0.6-2.6-1-6.2
							c-0.4-3.4-1-7.8-1-11.8C899.4,562,893.4,543.9,895.4,539.9z"/>
					</g>
				</g>
			</g>
		</g>
	</g>
</g>
<g>
	<g>
		<g>
			<g>
				<g>
					<g>
						<defs>
							<rect id="SVGID_00000041259150315726268730000016795209450881493433_" y="0" width="1920" height="700"/>
						</defs>
						<clipPath id="SVGID_00000076596542134245076550000000521084223844048015_">
							<use xlink:href="#SVGID_00000041259150315726268730000016795209450881493433_"  style="overflow:visible;"/>
						</clipPath>
						<path style="clip-path:url(#SVGID_00000076596542134245076550000000521084223844048015_);fill:none;" d="M542.1-25.2h-6.6
							c2,2.2,4.2,4.6,6.4,6.8C541.9-20.7,541.9-23,542.1-25.2z"/>
					</g>
				</g>
			</g>
		</g>
	</g>
</g>
<g>
	<g>
		<g>
			<g>
				<g>
					<g>
						<defs>
							<rect id="SVGID_00000036234496602751177790000010008018019162297268_" y="0" width="1920" height="700"/>
						</defs>
						<clipPath id="SVGID_00000100351636774794860780000017928040230026995359_">
							<use xlink:href="#SVGID_00000036234496602751177790000010008018019162297268_"  style="overflow:visible;"/>
						</clipPath>
						<path style="clip-path:url(#SVGID_00000100351636774794860780000017928040230026995359_);fill:none;" d="M945.6,138.4
							c3.6,7,5.4,9.4,6,14.1c0,0.6,0,1.4,0,2c0,6,16.1,24.1,22.1,30.1s2,8,2,8s-4,10-8,22.1c-4,12,4,16.1,6,18.1s2-2,14.1,8
							s30.1-2,30.1-2l10,8l-6-12c0,0-2-2-2-14.1s-6-18.1-8-22.1s-4-6-2-10s4-6,14.1-4c10,2,0-10-2-14.1s-8-2-10,0s-4,4-4,4
							s-2-6-2-12s-2-2-2-4s-12-8-14.1-14.1s-8-12-8-12c4,0,8-6,10-10s12-4,18.1-8c6-4,0-16.1,0-16.1c-2,2-6,0-16.1-2
							c-10-2-20.1,10-26.1,12c-3,1-6.4,3.4-9.6,6c-3.4,2.8-6.4,5.8-8.4,8C945.6,126.4,941.6,130.4,945.6,138.4z"/>
					</g>
				</g>
			</g>
		</g>
	</g>
</g>
<g>
	<g>
		<g>
			<g>
				<g>
					<g>
						<defs>
							<rect id="SVGID_00000150825186660402910640000016117475328684891033_" y="0" width="1920" height="700"/>
						</defs>
						<clipPath id="SVGID_00000101797705007545599120000012929143596701747620_">
							<use xlink:href="#SVGID_00000150825186660402910640000016117475328684891033_"  style="overflow:visible;"/>
						</clipPath>
						<path style="clip-path:url(#SVGID_00000101797705007545599120000012929143596701747620_);fill:none;" d="M694.7,220.7
							l18.1,26.1l-8,46.2l-148.5-42.2l-26.1-24.1l-42.2-6l-128.5,42.2H358c3.4,2,7.4,2,7.4,2h14.1c14.1,4,20.1-4,20.1-4
							c18.1-14.1,48.2-20.1,54.2-20.1s18.1,4,26.1,0s26.1,0,26.1,0s8-4,14.1-6c6-2,12,6,12,6c6,0,6,0,4,4s-2,10-2,10
							c6,12,4,16.1-2,22.1s-2,8,0,8s8,4,14.1,10c6,6,20.1,4,28.1,6s12,8,12,10s2,10,8,10s8,0,26.1,10s18.1-4,18.1-14.1s2-12,12-18.1
							c10-6,18.1,0,22.1,4s14.1,8,20.1,8s8,6,8,6s0,0,8,0s20.1,4,30.1,8s14.1-4,20.1-8s12,0,14.1,2s6,4,18.1,4c12,0,14.1-12,14.1-12
							s4-22.1,10-32.1s2-32.1,2-32.1c-6-2-16.1,0-22.1,4s-12,6-18.1-2c-6-8-16.1-6-16.1-6c-2,18.1-28.1,2-28.1,2l-4,8c0-6-8-12-8-12
							c2-8-12-22.1-12-22.1l4-6l-6-4c0,0,0-2,2-14.1c0-0.2,0-0.6,0-0.8l-6,4.8L694.7,220.7z"/>
					</g>
				</g>
			</g>
		</g>
	</g>
</g>
<g>
	<g>
		<g>
			<g>
				<g>
					<g>
						<defs>
							<rect id="SVGID_00000038389487906044084950000009103906262885684903_" y="0" width="1920" height="700"/>
						</defs>
						<clipPath id="SVGID_00000080912222192131973040000004159559441613894019_">
							<use xlink:href="#SVGID_00000038389487906044084950000009103906262885684903_"  style="overflow:visible;"/>
						</clipPath>
						<path style="clip-path:url(#SVGID_00000080912222192131973040000004159559441613894019_);fill:none;" d="M875.3,156.5
							c0,0-12-10-16.1-14.1c-4-4-16.1-10-24.1-16.1c-8-6-20.1-2-22.1,0c-2,2-18.1,8-18.1,8s-2-2-4-6s-6-8-8-10s4-6,2-6
							s-20.1-10-20.1-10s-8,8-12,12s-6,12-10,14.1c-4,2-4,8-4,10s-4,8-8,14.1c-4,6-2,8-2,16.1c0,4.4,0,5.8,3.4,6.8l8.6-6.8l122.4-10
							c0,0,8.4-0.8,17.7-0.8C878.5,155.7,875.3,156.5,875.3,156.5z"/>
					</g>
				</g>
			</g>
		</g>
	</g>
</g>
<g>
	<g>
		<g>
			<g>
				<g>
					<g>
						<defs>
							<rect id="SVGID_00000144322239783292695420000014911904038212955785_" y="0" width="1920" height="700"/>
						</defs>
						<clipPath id="SVGID_00000170251570917652476140000015627405371969344134_">
							<use xlink:href="#SVGID_00000144322239783292695420000014911904038212955785_"  style="overflow:visible;"/>
						</clipPath>
						<path style="clip-path:url(#SVGID_00000170251570917652476140000015627405371969344134_);fill:none;" d="M694.7,184.6
							c-6,0-6,4-10,8s-6,2-12,0s0,6,2,12s14.1,18.1,14.1,18.1s-6,6-10,10s-8,14.1-8,14.1s-10-4-12-6s-2-6-2-6c0-6-10-20.1-12-24.1
							s-12-18.1-12-22.1s2-12-2-20.1c-4-8-20.1-12-26.1-14.1s-22.1-18.1-24.1-20.1s-6-4-8-6s-10-12-10-12s-4,0-8,6s0,14.1,2,16.1
							s10,8,14.1,18.1c4,10,14.1,12,18.1,12s6,2,6,6s14.1,8,14.1,8s6,4,10,6s2,10,2,10l-2-2c-6-4-12-4-16.1-2c-4,2,4,10,4,14.1
							c0,4-12,16.1-16.1,18.1c-4,2-4,4-4,6s-4,12-4,12l-30.1-16.1c0,0,4-2,6-4s6-2,8,0s18.1,0,26.1-8s-2-16.1-6-22.1
							s-26.1-18.1-36.1-22.1s-18.1-22.1-22.1-30.1s-12-6-20.1-6s-18.1,14.1-24.1,16.1s-12-4-22.1-6c-10-2-12,8-12,16.1
							c0,8-4,10-4,10s-16.1,8-20.1,10s-10,14.1-14.1,18.1c-4,4,2,12,2,12s-6,10-8,14.1c-2,4-8,8-12,12s-14.1,6-20.1,6
							s-20.1,0-20.1,10c0,4.2,2,6.6,4.6,8h1.4l128.5-42.2l42.2,6l26.1,24.1L704.7,293l8-46.2l-18.1-26.1l8-22.1l6-4.8
							C710.1,182.8,700.5,184.6,694.7,184.6z"/>
					</g>
				</g>
			</g>
		</g>
	</g>
</g>
<g>
	<g>
		<g>
			<g>
				<g>
					<g>
						<defs>
							<rect id="SVGID_00000088852617113886397030000011534528855775716519_" y="0" width="1920" height="700"/>
						</defs>
						<clipPath id="SVGID_00000039821817013749289100000005037434546945580220_">
							<use xlink:href="#SVGID_00000088852617113886397030000011534528855775716519_"  style="overflow:visible;"/>
						</clipPath>
						<path style="clip-path:url(#SVGID_00000039821817013749289100000005037434546945580220_);fill:none;" d="M829.2,118.4
							c8,2,8-2,12-4s2-18.1,2-18.1c-4,4-18.1,4-24.1,6s-8,6-10,12C807.1,120.4,821.1,116.4,829.2,118.4z"/>
					</g>
				</g>
			</g>
		</g>
	</g>
</g>
<g>
	<g>
		<g>
			<g>
				<g>
					<g>
						<defs>
							<rect id="SVGID_00000133497779550559037250000004528037451122603404_" y="0" width="1920" height="700"/>
						</defs>
						<clipPath id="SVGID_00000005231220405100001740000016861780573087570872_">
							<use xlink:href="#SVGID_00000133497779550559037250000004528037451122603404_"  style="overflow:visible;"/>
						</clipPath>
						
							<linearGradient id="SVGID_00000145746868932897890450000014837454902438996140_" gradientUnits="userSpaceOnUse" x1="1173.9001" y1="1010.2899" x2="1946.2001" y2="1010.2899" gradientTransform="matrix(1 0 0 1 0 -660.8897)">
							<stop  offset="1.348126e-07" style="stop-color:#CAD2DB"/>
							<stop  offset="0.5275" style="stop-color:#CBD3DC"/>
							<stop  offset="1" style="stop-color:#E1E7EF"/>
						</linearGradient>
						
							<path style="clip-path:url(#SVGID_00000005231220405100001740000016861780573087570872_);fill:url(#SVGID_00000145746868932897890450000014837454902438996140_);" d="
							M1941.8-15.5c1.8-1.4,3-2.6,4.4-3.8v-5.8h-646.4l19.2,19c0,0,10,32.1,10,42.2s10,40.1-6,42.2c-16.1,2-18.1,12-22.1,22.1
							s-22.1,64.2-22.1,64.2s-6,14.1,0,18.1s22.1,12,22.1,12s6-2,10,6s22.1,26.1,22.1,26.1s8,6-2,14.1c-10,8-36.1,22.1-40.1,24.1
							s-10,10-10,14.1c0,4-6,48.2-20.1,50.2s-20.1,12-34.1,6l-22.1-2v30.1c0,0,0,12,6,14.1c6,2,18.1,6,20.1,12s2,6-4,8
							s-24.1,10-26.1,14.1c-2,4-2,6-6,8c-2.2,1.2-12.4,2.2-20.7,3c1.8,3,3.8,5.6,6.6,7.4c7,4.4,13,11.2,19.3,16.9
							c-1.6,1.2-3.8,2.8-6.8,5c4,5,7.2,9.6,10.6,13.9c9.6,12,13,7.8,21.5,2.4c2.6-1.6,4.2-5.8,6.2-8.8c2.8,7.2,6,14.3,3,23.1
							c-0.8,2.2-0.2,5.4,0.2,8c2.4,14.9,3.4,30.1,7.4,44.2c5.6,19.9,12.8,38.9,19.3,58.4c4.6,13.6,10.8,26.3,14.1,41.2
							c1.2,6,5.6,11.4,9,16.7c2.4,3.4,6.6,3.6,8.6,0c3.8-6.4,9.6-11,12.4-17.5c2.6-6.4,6.8-10,10.4-14.9
							c-0.2-10.4-1.6-20.5,3.4-29.9c1.8-3.4,1-9.2,0.8-14.1c-0.2-5.4-1-10.8-1.4-16.3c-0.8-7.6,0.6-12.6,7.4-15.5
							c5.8-2.4,12.6-6,15.9-12c3.2-6,7.4-9.4,11.4-13.6c5-5.2,10.2-10.2,14.5-16.3c4.8-6.8,9.8-12.2,16.9-15.3
							c6-2.6,9.8-8.2,10.2-16.7c0-1.8,1-3.6,1.4-4.8c5.8-5.6,11.8-2.8,17.7-3.2c5.8-0.4,11.6-2,17.5-4c5.4-2,10.4-5,16.5-8.2
							c1.8,15.3,6.4,27.9,15.9,35.3c4.8,3.6,4.4,8.4,6,12.8c2,5.2,8,7,8.4,13.9c0.4,5.4,0.4,10.8,0,16.3c-0.2,4-1.4,7.8-2.4,12.4
							c6,4.2,11,6.6,16.9,1.8c5.4-4.2,10.8-8.2,16.7-12.8c7.6,18.3,7.6,37.9,14.1,55.4c2.6,7.4,0.2,17.3,1.2,26.3
							s-1.8,18.7-2.6,27.9c-0.6,5.2-0.6,10.6-0.8,15.9c3,0.8,6,0.4,7,2c6.8,10.8,14.3,20.9,16.3,35.9c1.6,11.8,4.8,22.9,10,32.1
							h26.5c-1-4-1.2-8-0.6-12.6c1.4-9-1-16.3-6.2-22.1c-6.4-7-11.8-15.7-20.5-19.3c-4.6-2-6.4-6.2-7.8-11.8
							c-2-7.6-3.6-17.1-8.2-21.5c-5.2-5-5.6-10-4-15.7c3.4-13.6,8-26.7,9.8-41.2c0.2-1,1.6-2.4,2.2-2.4c1.4,0.2,3.6,0.8,4,2
							c1.4,3.4,0.8,8.6,5.2,9c10.2,1,16.7,8.2,20.1,20.1c1.6,6,6,7.6,9.2,10.4c3,2.4,6.8,3.4,10.4,5c0.4,7.2,0.6,13.9,1.2,22.3
							c7-5.6,14.7-8.6,18.1-15.3c4.4-8.4,10.6-10.6,16.5-15.1c2.8-2,5.4-4.4,8.4-6.4c3.6-2.4,5.8-6,6.6-11
							c4.2-23.7,0.8-45.8-13.4-62.2c-8-9.2-15.3-18.7-21.7-29.7c-5.4-9.2-5.6-14.9,0.6-23.3c4.6-6.4,10.6-10.8,16.3-16.3
							c7.4-7.2,14.3-8.4,22.1-2.4c1,5.2,2,10.2,2.8,15.1c-4.4,4-8.4,7.4-12,11.6c-3.8,4.4-2.2,12.2,2.6,15.3c3.6,2.2,7,2,10.6-0.4
							c6.4-4,7.8-12.4,11-19.1c-0.2-1-0.2-1.8-0.4-2.4c-0.6-1-1.4-2-2-3c-3.8-7.6-2.8-15.9,3-18.1c8-3.2,16.7-4.8,24.7-8
							c10-4.2,19.3-11.8,30.3-12.2c2,0,4.4-1.4,6-2.8c11.6-11,23.1-22.1,34.5-33.5c1-1,1.8-3.2,2-5c1.6-13.9,9.4-22.7,16.1-32.1
							c4.8-7,9.8-18.9,12-31.1c-1-0.2-2-0.4-3.2-0.6c-6.6-1.8-6.6-1.8-2.4-9c3-5.2,4-12.8,0.8-16.5c-7.4-8.4-11.4-19.7-15.7-30.5
							c-1-2.2-2.8-4-4.4-5.6c-2.2-2.2-4.6-4.4-8.2-7.8c6.8-7,13-12.6,18.3-19.1c5.6-6.6,14.5-4.2,20.7-13c-8.2-3-15.3-5.6-23.1-8.4
							c-2.4,2.2-5.6,4.8-8.6,7.4c-5,4.2-6.8,3.6-8.4-4.6c-0.8-4-2-6-4.8-6.8c-2.6-0.8-5.4-0.8-7.8-2c-3.8-2-3.8-6-1.4-11
							c7.6,2,13.6-1.2,19.1-9.4c4.4-6.4,11.2-10.2,17.3-14.5c4-2.8,8.2-2.4,11,4.8c-3,6.2-11.8,10.6-5.6,22.7
							c12.6-7.8,25.7-21.5,41.4-6.4c-1.8,5.8-3.6,11.2-5,16.1c2.8,6.6,6.6,5.4,10.4,5.6c6,0.2,6.8,2.2,6.8,10.2
							c0,3.2-0.2,6.6,0.6,9.6c1.4,5,1,9.2-0.8,13.9c-1.4,3.6-2.6,7.2-4.2,11.6c3,2,5.6,5,7.6,4.4c8.8-3,17.5-6.4,25.9-10.8
							c5-2.4,6.6-8,6.4-15.1c-0.2-9-1-17.5-6.2-24.7c-5.4-7.4-10.2-15.5-15.3-23.1c0.6-6.4,4.8-6.6,7.8-9c7-5.2,16.9-7.4,16.9-21.9
							c0-2.4,3-5.6,5.2-7.4c5.8-4.8,12-9,17.1-12.6c6.8,1.4,12.8,4.2,18.3,3.2c8-1.4,15.9-5.6,21.5-13.2c2.2-3,4.6-6,7.2-9V-12.1
							C1944.6-12.5,1943-13.3,1941.8-15.5z"/>
					</g>
				</g>
			</g>
		</g>
	</g>
</g>
<g>
	<g>
		<g>
			<g>
				<g>
					<g>
						<defs>
							<rect id="SVGID_00000003096819904971392040000008365571243188060843_" y="0" width="1920" height="700"/>
						</defs>
						<clipPath id="SVGID_00000111871692135425786750000009019843774958778788_">
							<use xlink:href="#SVGID_00000003096819904971392040000008365571243188060843_"  style="overflow:visible;"/>
						</clipPath>
						<path style="clip-path:url(#SVGID_00000111871692135425786750000009019843774958778788_);fill:#CAD2DB;" d="M353.4,254.9
							c0-10,14.1-10,20.1-10s16.1-2,20.1-6s10-8,12-12s8-14.1,8-14.1s-6-8-2-12s10-16.1,14.1-18.1c4-2,20.1-10,20.1-10s4-2,4-10
							s2-18.1,12-16.1s16.1,8,22.1,6s16.1-16.1,24.1-16.1c8,0,16.1-2,20.1,6s12,26.1,22.1,30.1c10,4,32.1,16.1,36.1,22.1
							s14.1,14.1,6,22.1c-8,8-24.1,10-26.1,8s-6-2-8,0s-6,4-6,4l30.1,16.1c0,0,4-10,4-12s0-4,4-6s16.1-14.1,16.1-18.1s-8-12-4-14.1
							c4-2,10-2,16.1,2l2,2c0,0,2-8-2-10s-10-6-10-6s-14.1-4-14.1-8s-2-6-6-6s-14.1-2-18.1-12s-12-16.1-14.1-18.1c-2-2-6-10-2-16.1
							c4-6,8-6,8-6s8,10,10,12c2,2,6,4,8,6s18.1,18.1,24.1,20.1s22.1,6,26.1,14.1c4,8,2,16.1,2,20.1s10,18.1,12,22.1
							s12,18.1,12,24.1c0,0,0,4,2,6s12,6,12,6s4-10,8-14.1c4-4,10-10,10-10s-12-12-14.1-18.1c-2-6-8-14.1-2-12c6,2,8,4,12,0
							s4-8,10-8c5.8,0,15.5-1.8,14.1,9.2l23.5-18.5c-3.4-1-3.4-2.4-3.4-6.8c0-8-2-10,2-16.1c4-6,8-12,8-14.1c0-2,0-8,4-10
							s6-10,10-14.1c4-4,12-12,12-12s18.1,10,20.1,10s-4,4-2,6s6,6,8,10c2,4,4,6,4,6s16.1-6,18.1-8s14.1-6,22.1,0s20.1,12,24.1,16.1
							c4,4,16.1,14.1,16.1,14.1s3.2-0.8,5.6,1.2c5.8,0,11.8,0,16.5,0.8c12,2,34.1,10,42.2,4c4.4-3.4,8.8-7.2,12-10
							c-0.4-4.4-2.4-7-6-14.1c-4-8,0-12,4-16.1c2-2,5.2-5.2,8.4-8c-1.6-1.2-3.6-2.6-6.4-4c-8-4-32.1-20.1-32.1-34.1
							s6-34.1,18.1-44.2c12-10,16.1-18.1,30.1-16.1s46.2,6,46.2,6l16.1,10l82.3,18.1c0,0,44.2,12,26.1-18.1c0,0-4-8-8-10
							s-10-10,2-16.1c12-6,22.1-22.1,22.1-22.1l77.9-9h-690c0,2.2-0.2,4.4-0.4,6.8c-2.2-2.4-4.2-4.6-6.4-6.8h-25.9
							c0.2,1,0.4,2,0.8,3c1.4,6.8,3,13.6,4.4,20.1c-1.8,1.4-2.8,2.8-3.6,2.8c-10-2.4-19.3,2.8-28.7,4.6c-5.4,1-10.8,4.8-14.3,12
							c-5.2,11-13.2,17.5-23.1,20.9c-3,1-6.2,2.2-10.2,3.8c1,14.5-10.2,10.8-15.3,17.1c-7.6,9.2-14.9-0.4-22.5,0.4
							c0.4,5,0.6,8.8,0.8,13.2c-3.8,0.4-7.4,2.2-10,1c-8.2-4.6-15.7-0.8-24.7,2.2c2.2,3.8,3.6,7,5.6,9.6c1,1.2,3,1,4.6,1.2
							c11.6,1.8,19.3,11,25.9,21.9c1.6,2.6,3,6,3,9.2c0.2,10.2,0.6,20.5-4.8,29.9c-2,0.4-4,1.2-6.2,1.2c-17.7-0.8-35.7-0.4-53.2-3.2
							c-10.2-1.8-17.5,1.8-24.3,7.4c1.6,11.4,4.4,21.7,3.8,31.5s-4.6,19.3-7.4,29.7c2,3.4,5,6.6,6.2,10.8c1.2,4,0.8,9,1,14.1
							c5.4,0,10.2,0.6,15.1-0.2c5.6-1,9.4,0.8,12.2,7c1.6,3.6,3.8,6.6,5.4,9.6c-0.6,2.6-1.4,5-2,7.4h9.8
							C355.4,261.5,353.4,259.1,353.4,254.9z M809.1,114.4c2-6,4-10,10-12s20.1-2,24.1-6c0,0,2,16.1-2,18.1s-4,6-12,4
							C821.1,116.4,807.1,120.4,809.1,114.4z"/>
					</g>
				</g>
			</g>
		</g>
	</g>
</g>
<g>
	<g>
		<g>
			<g>
				<g>
					<g>
						<defs>
							<rect id="SVGID_00000067933897129932114980000014582688431211501445_" y="0" width="1920" height="700"/>
						</defs>
						<clipPath id="SVGID_00000009550257581695907570000013496402947199389621_">
							<use xlink:href="#SVGID_00000067933897129932114980000014582688431211501445_"  style="overflow:visible;"/>
						</clipPath>
						
							<linearGradient id="SVGID_00000098201950618893696370000001879760578577258939_" gradientUnits="userSpaceOnUse" x1="591.8501" y1="1018.3898" x2="591.8501" y2="1384.2898" gradientTransform="matrix(1 0 0 1 0 -660.8897)">
							<stop  offset="0.3995" style="stop-color:#CAD2DB"/>
							<stop  offset="1" style="stop-color:#E1E7EF"/>
						</linearGradient>
						
							<path style="clip-path:url(#SVGID_00000009550257581695907570000013496402947199389621_);fill:url(#SVGID_00000098201950618893696370000001879760578577258939_);" d="
							M881.4,708.5l8-6l72.3-62.2l-60.2-2l-14.1-8c0,0,16.1-38.1,16.1-42.2c0-1.6-1.4-4-3-6.2c0.6,3.6,1,6.2,1,6.2s-10-8-16.1-16.1
							c-6-8-20.1-18.1-26.1-28.1s-6-18.1-8-28.1c-0.6-3.4-2-5.8-3.8-7.8c-2.4,3-6.2,8.4-6.2,9.8c0,2-4,8-4,16.1c0,8-2,14.1-6,14.1
							s-10,2-10,8s2,10-2,12s-8,2-8,8s2,16.1-2,8c-4-8-6-16.1-8-16.1s-2-4-2-8s0-8,0-8s-16.1,2-14.1,8s6,8,2,12s-12,8-12,8
							s-6,4-12,2s-8-4-10,0s-2,8-10,8s-24.1,2-24.1,2s-8,2-10-2s-14.1-16.1-16.1-6c-2,10-10,16.1-16.1,16.1c-6,0-8-2-6-8s0-10-2-12
							s-8-6-6-12s0-6-2-8s-12-10-12-10s0-2,2-4s6-6,8-14.1c2-8,8-12,12-14.1c4-2,4-2,4-6s-4-22.1-4-22.1s0-6,2-6s0-4,0-6s-2-8-2-8
							s0-4-6-6s-74.3-38.1-76.3-40.1s-14.1-6-18.1-2s-8,8-16.1,4c-8-4-14.1-8-14.1-8s-2-4-16.1,2c-14.1,6-46.2,22.1-46.2,22.1v12
							c0,0-32.1,8-26.1-6c0,0,2-6-4-6s-8-2-10-4s-6-4-6-4s-4-4-4-6s0-2-2-6s-50.2-58.2-50.2-58.2l-16.1-6c0,0-6,94.3-6,102.4
							s-2,16.1-8,14.1s-38.1-10-42.2-12c0,0-8-8-12-4s-4,10-8,2s-6-16.1-6-20.1s2-4-8-8c-8-3.2-21.1-7.6-26.1-9.4
							c-8.4,10.2-11,25.1-17.5,36.9c-1,2-0.6,5.2-0.8,8c3,4.2,5.8,8.2,8.6,12.4c-2,6.8-2.2,13,0.4,19.7c1.8,4.6,2.2,10.8,1.6,15.9
							c-0.8,7.4-4,14.3-4.6,21.7c-0.6,8.6-5.4,14.3-9,21.3c9,9.4,4.8,22.1,6.6,33.1c9.6,11.2,18.9,22.7,28.7,33.1
							c5.6,6,9.8,12,10.8,21.9c0.4,5,3.4,9.8,4.4,12c12.2,10.6,23.5,19.1,33.3,29.5c8,8.4,16.3,15.5,26.5,18.7
							c1.8-0.8,3.2-1.4,4.8-2.2c16.9-9.8,33.9-12.4,52-6c3.2,1.2,7.4,0.4,10.8-1c9.6-3.8,19.7-7.4,28.7-13
							c7.2-4.6,14.3-5.4,21.9-6.2c13-1.6,23.5,1.2,27.9,19.7c1.8,7.4,6.6,10.4,12.8,9.4c7.4-1.2,14.9-2.6,22.3-4
							c2.6,3,4.6,6.4,7.4,8.4c4,3,6,6.8,6.6,11.6h416.7c0.2-0.2,0.4-0.4,0.6-0.8L881.4,708.5z"/>
					</g>
				</g>
			</g>
		</g>
	</g>
</g>
<g>
	<g>
		<g>
			<g>
				<g>
					<g>
						<defs>
							<rect id="SVGID_00000057150456381586918160000002392481408643839392_" y="0" width="1920" height="700"/>
						</defs>
						<clipPath id="SVGID_00000150813041584965711530000009665973304749701811_">
							<use xlink:href="#SVGID_00000057150456381586918160000002392481408643839392_"  style="overflow:visible;"/>
						</clipPath>
						<path style="clip-path:url(#SVGID_00000150813041584965711530000009665973304749701811_);fill:#E0E6EE;" d="M722.8,186.6l6,2
							c8,4,10-2,10-2C734.8,180.6,722.8,186.6,722.8,186.6z"/>
					</g>
				</g>
			</g>
		</g>
	</g>
</g>
<g>
	<g>
		<g>
			<g>
				<g>
					<g>
						<defs>
							<rect id="SVGID_00000075849269759859194360000002399530926028805012_" y="0" width="1920" height="700"/>
						</defs>
						<clipPath id="SVGID_00000138558280668961068850000000608008811064215719_">
							<use xlink:href="#SVGID_00000075849269759859194360000002399530926028805012_"  style="overflow:visible;"/>
						</clipPath>
						<g id="Layer_3" style="clip-path:url(#SVGID_00000138558280668961068850000000608008811064215719_);">
							<circle class="st20" cx="996.8" cy="406.4" r="6"/>
							<circle class="st20" cx="950.6" cy="346.2" r="6"/>
							<circle class="st20" cx="1033.3" cy="417.9" r="6"/>
							<circle class="st20" cx="1045.4" cy="405.8" r="6"/>
							<g>
								<path class="st21" d="M809.8,180.4v-18.5l-9,15.3h-3.4l-9-14.9v18.1h-6.6v-30.9h6l11.6,19.3l11.4-19.3h5.8v30.9L809.8,180.4
									L809.8,180.4z"/>
								<path class="st21" d="M821.4,149.5c0-2.2,1.8-3.8,4.2-3.8c2.6,0,4.2,1.6,4.2,3.8s-1.8,4-4.2,4
									C823,153.3,821.4,151.7,821.4,149.5z M822.2,156.5h6.8v23.9h-6.8V156.5z"/>
								<path class="st21" d="M858.5,147.7v32.7h-6.6v-2.8c-1.8,2-4.2,3-7.4,3c-6.6,0-11.8-4.8-11.8-12.2s5.2-12.2,11.8-12.2
									c3,0,5.4,1,7,2.8v-11.4L858.5,147.7L858.5,147.7z M851.9,168.5c0-4-2.6-6.6-6-6.6s-6,2.4-6,6.6s2.6,6.6,6,6.6
									C849.1,175,851.9,172.6,851.9,168.5z"/>
								<path class="st21" d="M888,147.7v32.7h-6.6v-2.8c-1.8,2-4.2,3-7.4,3c-6.6,0-11.8-4.8-11.8-12.2s5.2-12.2,11.8-12.2
									c3,0,5.4,1,7,2.8v-11.4L888,147.7L888,147.7z M881.2,168.5c0-4-2.6-6.6-6-6.6s-6,2.4-6,6.6s2.6,6.6,6,6.6
									C878.6,175,881.2,172.6,881.2,168.5z"/>
								<path class="st21" d="M893.3,147.7h6.8v32.7h-6.8V147.7z"/>
								<path class="st21" d="M928.6,170.4h-18.1c0.6,3,3.2,4.8,6.8,4.8c2.4,0,4.4-0.8,6-2.2l3.6,4c-2.2,2.4-5.6,3.8-9.8,3.8
									c-8.2,0-13.6-5.2-13.6-12.2s5.4-12.2,12.6-12.2c7,0,12.4,4.6,12.4,12.2C928.8,169.2,928.6,169.8,928.6,170.4z M910.5,166.3
									h11.6c-0.4-3-2.8-5-5.8-5C913.3,161.5,911.1,163.3,910.5,166.3z"/>
								<path class="st21" d="M968.1,174.6v5.8h-23.9v-30.9h23.3v5.8h-16.3v6.6h14.5v5.6h-14.5v7.2L968.1,174.6L968.1,174.6z"/>
								<path class="st21" d="M993.2,166.7v13.6h-6.4v-3c-1.2,2.2-3.8,3.2-7.2,3.2c-5.6,0-8.8-3-8.8-7.2s3-7,10.2-7h5.4
									c0-3-1.8-4.6-5.4-4.6c-2.4,0-5,0.8-6.8,2.2l-2.4-4.8c2.6-1.8,6.4-2.8,10.2-2.8C989,156.3,993.2,159.5,993.2,166.7z
									 M986.2,172.8v-2.4h-4.6c-3.2,0-4.2,1.2-4.2,2.8c0,1.8,1.4,2.8,3.8,2.8S985.6,175,986.2,172.8z"/>
								<path class="st21" d="M996,178.2l2.2-5c2.2,1.4,5.4,2.2,8.2,2.2c3.2,0,4.4-0.8,4.4-2.2c0-3.8-14.5,0-14.5-9.4
									c0-4.4,4-7.6,11-7.6c3.2,0,6.8,0.8,9,2l-2.2,4.8c-2.4-1.4-4.6-1.8-6.8-1.8c-3,0-4.4,1-4.4,2.2c0,4,14.5,0.2,14.5,9.4
									c0,4.4-4,7.6-11.2,7.6C1002.3,180.8,998.2,179.6,996,178.2z"/>
								<path class="st21" d="M1036,179.2c-1.4,1-3.4,1.6-5.6,1.6c-5.6,0-8.8-2.8-8.8-8.4v-10h-3.6v-5.2h3.6v-5.8h6.8v5.8h6v5.2h-6
									v9.6c0,2,1,3.2,3,3.2c1,0,2-0.2,2.8-0.8L1036,179.2z"/>
								<path class="st21" d="M1070.9,173.8h-14.5l-2.8,6.6h-7.4l13.9-30.9h7l13.9,30.9h-7.4L1070.9,173.8z M1068.7,168.3l-4.8-11.8
									l-4.8,11.8H1068.7z"/>
								<path class="st21" d="M1080.5,178.2l2.2-5c2.2,1.4,5.4,2.2,8.2,2.2c3.2,0,4.4-0.8,4.4-2.2c0-3.8-14.5,0-14.5-9.4
									c0-4.4,4-7.6,11-7.6c3.2,0,6.8,0.8,9,2l-2.2,4.8c-2.4-1.4-4.6-1.8-6.8-1.8c-3,0-4.4,1-4.4,2.2c0,4,14.5,0.2,14.5,9.4
									c0,4.4-4,7.6-11.2,7.6C1086.8,180.8,1082.7,179.6,1080.5,178.2z"/>
								<path class="st21" d="M1104.4,149.5c0-2.2,1.8-3.8,4.2-3.8c2.4,0,4.2,1.6,4.2,3.8s-1.8,4-4.2,4S1104.4,151.7,1104.4,149.5z
									 M1105.2,156.5h6.8v23.9h-6.8V156.5z"/>
								<path class="st21" d="M1138.4,166.7v13.6h-6.4v-3c-1.2,2.2-3.8,3.2-7.2,3.2c-5.6,0-8.8-3-8.8-7.2s3-7,10.2-7h5.4
									c0-3-1.8-4.6-5.4-4.6c-2.4,0-5,0.8-6.8,2.2l-2.4-4.8c2.6-1.8,6.4-2.8,10.2-2.8C1134.1,156.3,1138.4,159.5,1138.4,166.7z
									 M1131.5,172.8v-2.4h-4.6c-3.2,0-4.2,1.2-4.2,2.8c0,1.8,1.4,2.8,3.8,2.8C1128.7,176,1130.7,175,1131.5,172.8z"/>
							</g>
							<polyline class="st22" points="996.8,405.4 1009.8,351.2 1019.9,351.2 							"/>
							<polyline class="st22" points="1046,405.4 1053,385.3 1065,385.3 							"/>
							<polyline class="st22" points="1055,448.6 1040.9,448.6 1034.9,420.5 							"/>
							<circle class="st23" cx="928.5" cy="404.4" r="6"/>
							<polyline class="st24" points="945.1,415.5 937.1,442.5 921.5,442.5 							"/>
							<circle class="st23" cx="958.6" cy="366.1" r="6"/>
							<polyline class="st24" points="960.2,363.3 968.7,320.1 982.7,320.1 							"/>
							<polyline class="st22" points="950.6,346.2 964.7,282 982.7,282 							"/>
							<polyline class="st24" points="928,400.4 919.6,331.6 905.5,331.6 							"/>
							<circle class="st20" cx="945.3" cy="414.4" r="6"/>
						</g>
					</g>
				</g>
			</g>
		</g>
	</g>
</g>
<g>
	<path d="M764.8,335.5l0.6-1.1c1,1,2.8,1.7,4.6,1.7c2.6,0,3.8-1.1,3.8-2.5c0-3.8-8.6-1.5-8.6-6.7c0-2.1,1.6-3.8,5.2-3.8
		c1.6,0,3.2,0.5,4.3,1.2l-0.5,1.2c-1.2-0.8-2.6-1.2-3.8-1.2c-2.6,0-3.7,1.1-3.7,2.5c0,3.8,8.6,1.5,8.6,6.6c0,2.1-1.6,3.8-5.2,3.8
		C767.9,337.3,765.8,336.6,764.8,335.5z"/>
	<path d="M787.2,333.5h-7.8l-1.7,3.7h-1.5l6.4-14h1.5l6.4,14h-1.6L787.2,333.5z M786.7,332.3l-3.4-7.5l-3.4,7.5H786.7z"/>
	<path d="M792.4,331.2v-8h1.5v8c0,3.3,1.6,4.8,4.3,4.8s4.3-1.5,4.3-4.8v-8h1.4v8c0,4-2.2,6.1-5.7,6.1
		C794.5,337.3,792.4,335.2,792.4,331.2z"/>
	<path d="M808.3,323.2h5.7c4.5,0,7.5,2.9,7.5,7s-3,7-7.5,7h-5.7V323.2z M814,335.9c3.7,0,6.1-2.4,6.1-5.7s-2.4-5.7-6.1-5.7h-4.1
		v11.4L814,335.9L814,335.9z"/>
	<path d="M824.8,323.2h1.5v14h-1.5V323.2z"/>
	<path d="M841.4,336.6c-0.6,0.5-1.4,0.7-2.2,0.7c-2,0-3.1-1.1-3.1-3.1v-6.4h-1.9v-1.2h1.9v-2.3h1.4v2.3h3.2v1.2h-3.2v6.3
		c0,1.2,0.6,1.9,1.8,1.9c0.6,0,1.2-0.2,1.6-0.5L841.4,336.6z"/>
	<path d="M851.9,330.7v6.5h-1.4v-1.6c-0.6,1.1-1.9,1.7-3.6,1.7c-2.4,0-3.8-1.2-3.8-3.1c0-1.6,1-3,4.1-3h3.3v-0.6c0-1.8-1-2.8-3-2.8
		c-1.4,0-2.6,0.5-3.5,1.2l-0.6-1.1c1.1-0.9,2.6-1.4,4.3-1.4C850.3,326.6,851.9,328,851.9,330.7z M850.5,334v-1.7h-3.3
		c-2,0-2.7,0.8-2.7,1.9c0,1.2,1,2,2.7,2C848.7,336.2,849.9,335.4,850.5,334z"/>
	<path d="M855.4,323.4c0-0.5,0.5-1,1-1s1,0.4,1,1s-0.4,1-1,1C855.9,324.4,855.4,323.9,855.4,323.4z M855.8,326.7h1.4v10.5h-1.4
		V326.7z"/>
	<path d="M870.8,331.1v6.1h-1.4v-6c0-2.2-1.2-3.4-3.2-3.4c-2.3,0-3.7,1.4-3.7,3.8v5.5h-1.4v-14.8h1.4v6.2c0.8-1.2,2.2-1.9,3.9-1.9
		C869,326.6,870.8,328.1,870.8,331.1z"/>
	<path d="M882.6,330.7v6.5h-1.4v-1.6c-0.6,1.1-1.9,1.7-3.6,1.7c-2.4,0-3.8-1.2-3.8-3.1c0-1.6,1-3,4.1-3h3.3v-0.6c0-1.8-1-2.8-3-2.8
		c-1.4,0-2.6,0.5-3.5,1.2l-0.6-1.1c1.1-0.9,2.6-1.4,4.3-1.4C881.1,326.6,882.6,328,882.6,330.7z M881.2,334v-1.7h-3.3
		c-2,0-2.7,0.8-2.7,1.9c0,1.2,1,2,2.7,2C879.5,336.2,880.6,335.4,881.2,334z"/>
	<path d="M896.2,331.1v6.1h-1.4v-6c0-2.2-1.2-3.4-3.2-3.4c-2.3,0-3.7,1.4-3.7,3.8v5.5h-1.4v-10.5h1.4v1.9c0.8-1.3,2.2-2,4-2
		C894.4,326.6,896.2,328.1,896.2,331.1z"/>
</g>
<g>
	<path d="M999.7,323.5c-0.6,0.5-1.4,0.7-2.2,0.7c-2,0-3.1-1.1-3.1-3.1v-6.4h-1.9v-1.2h1.9v-2.3h1.4v2.3h3.2v1.2h-3.2v6.3
		c0,1.2,0.6,1.9,1.8,1.9c0.6,0,1.2-0.2,1.6-0.5L999.7,323.5z"/>
	<path d="M1010.3,317.6v6.5h-1.4v-1.6c-0.6,1.1-1.9,1.7-3.6,1.7c-2.4,0-3.8-1.2-3.8-3.1c0-1.6,1-3,4.1-3h3.3v-0.6c0-1.8-1-2.8-3-2.8
		c-1.4,0-2.6,0.5-3.5,1.2l-0.6-1.1c1.1-0.9,2.6-1.4,4.3-1.4C1008.7,313.5,1010.3,314.9,1010.3,317.6z M1008.8,321v-1.7h-3.3
		c-2,0-2.7,0.8-2.7,1.9c0,1.2,1,2,2.7,2C1007.1,323.1,1008.3,322.4,1008.8,321z"/>
	<path d="M1013.8,310.3c0-0.5,0.5-1,1-1s1,0.4,1,1s-0.4,1-1,1C1014.3,311.3,1013.8,310.9,1013.8,310.3z M1014.1,313.6h1.4v10.5h-1.4
		V313.6z"/>
	<path d="M1029.2,318v6.1h-1.4v-6c0-2.2-1.2-3.4-3.2-3.4c-2.3,0-3.7,1.4-3.7,3.8v5.5h-1.4v-14.8h1.4v6.2c0.8-1.2,2.2-1.9,3.9-1.9
		C1027.4,313.5,1029.2,315,1029.2,318z"/>
	<path d="M1041,317.6v6.5h-1.4v-1.6c-0.6,1.1-1.9,1.7-3.6,1.7c-2.4,0-3.8-1.2-3.8-3.1c0-1.6,1-3,4.1-3h3.3v-0.6c0-1.8-1-2.8-3-2.8
		c-1.4,0-2.6,0.5-3.5,1.2l-0.6-1.1c1.1-0.9,2.6-1.4,4.3-1.4C1039.4,313.5,1041,314.9,1041,317.6z M1039.6,321v-1.7h-3.3
		c-2,0-2.7,0.8-2.7,1.9c0,1.2,1,2,2.7,2C1037.8,323.1,1039,322.4,1039.6,321z"/>
	<path d="M1054.5,318v6.1h-1.4v-6c0-2.2-1.2-3.4-3.2-3.4c-2.3,0-3.7,1.4-3.7,3.8v5.5h-1.4v-10.5h1.4v1.9c0.8-1.3,2.2-2,4-2
		C1052.8,313.5,1054.5,315,1054.5,318z"/>
	<path d="M1068.3,317.5l-2.9,2.9v3.7h-1.5v-14h1.5v8.5l8.2-8.5h1.7l-6.1,6.3l6.5,7.7h-1.8L1068.3,317.5z"/>
	<path d="M1086.9,313.6v10.5h-1.4v-1.9c-0.7,1.3-2.1,2-3.8,2c-2.7,0-4.4-1.5-4.4-4.5v-6.1h1.4v6c0,2.2,1.2,3.4,3.2,3.4
		c2.2,0,3.6-1.4,3.6-3.8v-5.5L1086.9,313.6L1086.9,313.6z"/>
	<path d="M1106.4,313.6l-4,10.5h-1.3l-3.3-8.6l-3.3,8.6h-1.3l-4-10.5h1.4l3.3,8.9l3.4-8.9h1.2l3.4,8.9l3.3-8.9H1106.4z"/>
	<path d="M1116.1,317.6v6.5h-1.4v-1.6c-0.6,1.1-1.9,1.7-3.6,1.7c-2.4,0-3.8-1.2-3.8-3.1c0-1.6,1-3,4.1-3h3.3v-0.6c0-1.8-1-2.8-3-2.8
		c-1.4,0-2.6,0.5-3.5,1.2l-0.6-1.1c1.1-0.9,2.6-1.4,4.3-1.4C1114.6,313.5,1116.1,314.9,1116.1,317.6z M1114.7,321v-1.7h-3.3
		c-2,0-2.7,0.8-2.7,1.9c0,1.2,1,2,2.7,2C1113,323.1,1114.1,322.4,1114.7,321z"/>
	<path d="M1119.7,310.3c0-0.5,0.5-1,1-1s1,0.4,1,1s-0.4,1-1,1S1119.7,310.9,1119.7,310.3z M1120,313.6h1.4v10.5h-1.4V313.6z"/>
	<path d="M1130.9,323.5c-0.6,0.5-1.4,0.7-2.2,0.7c-2,0-3.1-1.1-3.1-3.1v-6.4h-1.9v-1.2h1.9v-2.3h1.4v2.3h3.2v1.2h-3.2v6.3
		c0,1.2,0.6,1.9,1.8,1.9c0.6,0,1.2-0.2,1.6-0.5L1130.9,323.5z"/>
</g>
<g>
	<path d="M997,283.4l-2.9,2.9v3.7h-1.5v-14h1.5v8.5l8.2-8.5h1.7l-6.1,6.3l6.5,7.7h-1.8L997,283.4z"/>
	<path d="M1015.6,279.4V290h-1.4v-2c-0.7,1.3-2.1,2-3.8,2c-2.7,0-4.4-1.5-4.4-4.5v-6.1h1.4v6c0,2.2,1.2,3.4,3.2,3.4
		c2.2,0,3.6-1.4,3.6-3.8v-5.5L1015.6,279.4L1015.6,279.4z"/>
	<path d="M1035.1,279.4l-4,10.5h-1.3l-3.3-8.6l-3.3,8.6h-1.3l-4-10.5h1.4l3.3,8.9l3.4-8.9h1.2l3.4,8.9l3.3-8.9H1035.1z"/>
	<path d="M1044.8,283.4v6.5h-1.4v-1.6c-0.6,1.1-1.9,1.7-3.6,1.7c-2.4,0-3.8-1.2-3.8-3.1c0-1.6,1-3,4.1-3h3.3v-0.6c0-1.8-1-2.8-3-2.8
		c-1.4,0-2.6,0.5-3.5,1.2l-0.6-1.1c1.1-0.9,2.6-1.4,4.3-1.4C1043.3,279.4,1044.8,280.7,1044.8,283.4z M1043.4,286.8v-1.7h-3.3
		c-2,0-2.7,0.8-2.7,1.9c0,1.2,1,2,2.7,2C1041.7,289,1042.8,288.2,1043.4,286.8z"/>
	<path d="M1048.3,276.1c0-0.5,0.5-1,1-1s1,0.4,1,1s-0.4,1-1,1C1048.8,277.1,1048.3,276.7,1048.3,276.1z M1048.7,279.4h1.4V290h-1.4
		V279.4z"/>
	<path d="M1059.6,289.3c-0.6,0.5-1.4,0.7-2.2,0.7c-2,0-3.1-1.1-3.1-3.1v-6.4h-1.9v-1.2h1.9V277h1.4v2.3h3.2v1.2h-3.2v6.3
		c0,1.2,0.6,1.9,1.8,1.9c0.6,0,1.2-0.2,1.6-0.5L1059.6,289.3z"/>
</g>
<g>
	<path d="M1075,382.5h5.7c4.5,0,7.5,2.9,7.5,7s-3,7-7.5,7h-5.7V382.5z M1080.6,395.2c3.7,0,6.1-2.4,6.1-5.7c0-3.4-2.4-5.7-6.1-5.7
		h-4.1v11.4L1080.6,395.2L1080.6,395.2z"/>
	<path d="M1100.7,386v10.5h-1.4v-1.9c-0.7,1.3-2.1,2-3.8,2c-2.7,0-4.4-1.5-4.4-4.5V386h1.4v6c0,2.2,1.2,3.4,3.2,3.4
		c2.2,0,3.6-1.4,3.6-3.8V386H1100.7z"/>
	<path d="M1115.3,391.3c0,3.2-2.2,5.4-5.2,5.4c-1.7,0-3.2-0.8-4.1-2.2v2.1h-1.4v-14.8h1.4v6.3c0.9-1.4,2.3-2.1,4-2.1
		C1113.1,385.9,1115.3,388.1,1115.3,391.3z M1113.9,391.3c0-2.5-1.7-4.1-3.9-4.1c-2.2,0-3.9,1.6-3.9,4.1s1.7,4.1,3.9,4.1
		C1112.2,395.4,1113.9,393.7,1113.9,391.3z"/>
	<path d="M1126.1,390v6.5h-1.4v-1.6c-0.6,1.1-1.9,1.7-3.6,1.7c-2.4,0-3.8-1.2-3.8-3.1c0-1.6,1-3,4.1-3h3.3v-0.6c0-1.8-1-2.8-3-2.8
		c-1.4,0-2.6,0.5-3.5,1.2l-0.6-1.1c1.1-0.9,2.6-1.4,4.3-1.4C1124.5,385.9,1126.1,387.3,1126.1,390z M1124.7,393.4v-1.7h-3.3
		c-2,0-2.7,0.8-2.7,1.9c0,1.2,1,2,2.7,2C1122.9,395.5,1124.1,394.7,1124.7,393.4z"/>
	<path d="M1129.6,382.7c0-0.5,0.5-1,1-1s1,0.4,1,1s-0.4,1-1,1C1130.1,383.7,1129.6,383.2,1129.6,382.7z M1129.9,386h1.4v10.5h-1.4
		V386z"/>
</g>
<g>
	<path d="M1076.4,453.2h-7.8l-1.7,3.7h-1.5l6.4-14h1.5l6.4,14h-1.6L1076.4,453.2z M1075.9,452l-3.4-7.5l-3.4,7.5H1075.9z"/>
	<path d="M1092.3,451.7c0,3.2-2.2,5.4-5.2,5.4c-1.7,0-3.2-0.8-4.1-2.2v2.1h-1.4v-14.8h1.4v6.3c0.9-1.4,2.3-2.1,4-2.1
		C1090.1,446.3,1092.3,448.5,1092.3,451.7z M1090.9,451.7c0-2.5-1.7-4.1-3.9-4.1c-2.2,0-3.9,1.6-3.9,4.1s1.7,4.1,3.9,4.1
		C1089.2,455.8,1090.9,454.1,1090.9,451.7z"/>
	<path d="M1104.7,446.4v10.5h-1.4V455c-0.7,1.3-2.1,2-3.8,2c-2.7,0-4.4-1.5-4.4-4.5v-6.1h1.4v6c0,2.2,1.2,3.4,3.2,3.4
		c2.2,0,3.6-1.4,3.6-3.8v-5.5L1104.7,446.4L1104.7,446.4z"/>
	<path d="M1114.2,442.9h5.7c4.5,0,7.5,2.9,7.5,7s-3,7-7.5,7h-5.7V442.9z M1119.8,455.7c3.7,0,6.1-2.4,6.1-5.7c0-3.4-2.4-5.7-6.1-5.7
		h-4.1v11.4L1119.8,455.7L1119.8,455.7z"/>
	<path d="M1140.1,450.8v6.1h-1.4v-6c0-2.2-1.2-3.4-3.2-3.4c-2.3,0-3.7,1.4-3.7,3.8v5.5h-1.4V442h1.4v6.2c0.8-1.2,2.2-1.9,3.9-1.9
		C1138.4,446.3,1140.1,447.8,1140.1,450.8z"/>
	<path d="M1151.9,450.4v6.5h-1.4v-1.6c-0.6,1.1-1.9,1.7-3.6,1.7c-2.4,0-3.8-1.2-3.8-3.1c0-1.6,1-3,4.1-3h3.3v-0.6c0-1.8-1-2.8-3-2.8
		c-1.4,0-2.6,0.5-3.5,1.2l-0.6-1.1c1.1-0.9,2.6-1.4,4.3-1.4C1150.4,446.3,1151.9,447.7,1151.9,450.4z M1150.5,453.8v-1.7h-3.3
		c-2,0-2.7,0.8-2.7,1.9c0,1.2,1,2,2.7,2C1148.8,455.9,1149.9,455.2,1150.5,453.8z"/>
	<path d="M1166.4,451.7c0,3.2-2.2,5.4-5.2,5.4c-1.7,0-3.2-0.8-4.1-2.2v2.1h-1.4v-14.8h1.4v6.3c0.9-1.4,2.3-2.1,4-2.1
		C1164.2,446.3,1166.4,448.5,1166.4,451.7z M1165,451.7c0-2.5-1.7-4.1-3.9-4.1c-2.2,0-3.9,1.6-3.9,4.1s1.7,4.1,3.9,4.1
		C1163.3,455.8,1165,454.1,1165,451.7z"/>
	<path d="M1169,443.1c0-0.5,0.5-1,1-1s1,0.4,1,1s-0.4,1-1,1C1169.5,444.1,1169,443.7,1169,443.1z M1169.3,446.4h1.4v10.5h-1.4V446.4
		z"/>
</g>
<g>
	<path d="M1044.8,359.3c-0.9,1-2,1.6-3.4,1.6c-1.6,0-3-0.7-4.8-2.7c-4.1-0.1-7.1-3.1-7.1-7.1c0-4.1,3.1-7.1,7.4-7.1
		c4.2,0,7.3,3,7.3,7.1c0,3.6-2.4,6.3-5.8,7c1.1,1.1,2,1.6,3,1.6c1.1,0,1.9-0.4,2.7-1.3L1044.8,359.3z M1036.8,356.9
		c3.4,0,5.9-2.5,5.9-5.8s-2.5-5.8-5.9-5.8s-5.9,2.5-5.9,5.8S1033.4,356.9,1036.8,356.9z"/>
	<path d="M1055.1,351.6v6.5h-1.4v-1.6c-0.6,1.1-1.9,1.7-3.6,1.7c-2.4,0-3.8-1.2-3.8-3.1c0-1.6,1-3,4.1-3h3.3v-0.6c0-1.8-1-2.8-3-2.8
		c-1.4,0-2.6,0.5-3.5,1.2l-0.6-1.1c1.1-0.9,2.6-1.4,4.3-1.4C1053.5,347.5,1055.1,348.8,1055.1,351.6z M1053.7,354.9v-1.7h-3.3
		c-2,0-2.7,0.8-2.7,1.9c0,1.2,1,2,2.7,2C1051.9,357.1,1053.1,356.3,1053.7,354.9z"/>
	<path d="M1064.5,357.4c-0.6,0.5-1.4,0.7-2.2,0.7c-2,0-3.1-1.1-3.1-3.1v-6.4h-1.9v-1.2h1.9v-2.3h1.4v2.3h3.2v1.2h-3.2v6.3
		c0,1.2,0.6,1.9,1.8,1.9c0.6,0,1.2-0.2,1.6-0.5L1064.5,357.4z"/>
	<path d="M1075,351.6v6.5h-1.4v-1.6c-0.6,1.1-1.9,1.7-3.6,1.7c-2.4,0-3.8-1.2-3.8-3.1c0-1.6,1-3,4.1-3h3.3v-0.6c0-1.8-1-2.8-3-2.8
		c-1.4,0-2.6,0.5-3.5,1.2l-0.6-1.1c1.1-0.9,2.6-1.4,4.3-1.4C1073.5,347.5,1075,348.8,1075,351.6z M1073.6,354.9v-1.7h-3.3
		c-2,0-2.7,0.8-2.7,1.9c0,1.2,1,2,2.7,2C1071.8,357.1,1073,356.3,1073.6,354.9z"/>
	<path d="M1084.2,347.5v1.4c-0.1,0-0.2,0-0.3,0c-2.2,0-3.5,1.4-3.5,3.9v5.4h-1.4v-10.5h1.4v2.1
		C1080.9,348.2,1082.2,347.5,1084.2,347.5z"/>
</g>
<g>
	<path d="M610.5,444.5l0.6-1.1c1,1,2.8,1.7,4.6,1.7c2.6,0,3.8-1.1,3.8-2.5c0-3.8-8.6-1.5-8.6-6.7c0-2.1,1.6-3.8,5.2-3.8
		c1.6,0,3.2,0.5,4.3,1.2l-0.5,1.2c-1.2-0.8-2.6-1.2-3.8-1.2c-2.6,0-3.7,1.1-3.7,2.5c0,3.8,8.6,1.5,8.6,6.6c0,2.1-1.6,3.8-5.2,3.8
		C613.6,446.3,611.5,445.6,610.5,444.5z"/>
	<path d="M631.8,439.7v6.5h-1.4v-1.6c-0.6,1.1-1.9,1.7-3.6,1.7c-2.4,0-3.8-1.2-3.8-3.1c0-1.6,1-3,4.1-3h3.3v-0.6c0-1.8-1-2.8-3-2.8
		c-1.4,0-2.6,0.5-3.5,1.2l-0.6-1.1c1.1-0.9,2.6-1.4,4.3-1.4C630.2,435.6,631.8,436.9,631.8,439.7z M630.3,443v-1.7H627
		c-2,0-2.7,0.8-2.7,1.9c0,1.2,1,2,2.7,2C628.6,445.2,629.8,444.4,630.3,443z"/>
	<path d="M645.1,435.7v10.5h-1.4v-1.9c-0.7,1.3-2.1,2-3.8,2c-2.7,0-4.4-1.5-4.4-4.5v-6.1h1.4v6c0,2.2,1.2,3.4,3.2,3.4
		c2.2,0,3.6-1.4,3.6-3.8v-5.5h1.4V435.7z"/>
	<path d="M658.7,431.3v14.8h-1.4V444c-0.9,1.4-2.3,2.2-4.1,2.2c-3,0-5.2-2.2-5.2-5.4s2.2-5.3,5.2-5.3c1.7,0,3.1,0.7,4,2.1v-6.3
		L658.7,431.3L658.7,431.3z M657.3,440.9c0-2.5-1.7-4.1-3.9-4.1s-3.9,1.6-3.9,4.1s1.7,4.1,3.9,4.1S657.3,443.4,657.3,440.9z"/>
	<path d="M662.3,432.3c0-0.5,0.5-1,1-1s1,0.4,1,1s-0.4,1-1,1C662.8,433.4,662.3,432.9,662.3,432.3z M662.6,435.7h1.4v10.5h-1.4
		V435.7z"/>
	<path d="M676.3,433.5h-4.9v-1.3h11.3v1.3h-4.9v12.7h-1.5L676.3,433.5L676.3,433.5z"/>
	<path d="M692.1,439.7v6.5h-1.4v-1.6c-0.6,1.1-1.9,1.7-3.6,1.7c-2.4,0-3.8-1.2-3.8-3.1c0-1.6,1-3,4.1-3h3.3v-0.6c0-1.8-1-2.8-3-2.8
		c-1.4,0-2.6,0.5-3.5,1.2l-0.6-1.1c1.1-0.9,2.6-1.4,4.3-1.4C690.6,435.6,692.1,436.9,692.1,439.7z M690.7,443v-1.7h-3.3
		c-2,0-2.7,0.8-2.7,1.9c0,1.2,1,2,2.7,2C688.9,445.2,690.1,444.4,690.7,443z"/>
	<path d="M695.6,432.3c0-0.5,0.5-1,1-1s1,0.4,1,1s-0.4,1-1,1C696.1,433.4,695.6,432.9,695.6,432.3z M696,435.7h1.4v10.5H696V435.7z"
		/>
	<path d="M711,440.1v6.1h-1.4v-6c0-2.2-1.2-3.4-3.2-3.4c-2.3,0-3.7,1.4-3.7,3.8v5.5h-1.4v-14.8h1.4v6.2c0.8-1.2,2.2-1.9,3.9-1.9
		C709.3,435.6,711,437.1,711,440.1z"/>
	<path d="M722.8,439.7v6.5h-1.4v-1.6c-0.6,1.1-1.9,1.7-3.6,1.7c-2.4,0-3.8-1.2-3.8-3.1c0-1.6,1-3,4.1-3h3.3v-0.6c0-1.8-1-2.8-3-2.8
		c-1.4,0-2.6,0.5-3.5,1.2l-0.6-1.1c1.1-0.9,2.6-1.4,4.3-1.4C721.3,435.6,722.8,436.9,722.8,439.7z M721.4,443v-1.7h-3.3
		c-2,0-2.7,0.8-2.7,1.9c0,1.2,1,2,2.7,2C719.7,445.2,720.8,444.4,721.4,443z"/>
	<path d="M736.4,440.1v6.1H735v-6c0-2.2-1.2-3.4-3.2-3.4c-2.3,0-3.7,1.4-3.7,3.8v5.5h-1.4v-10.5h1.4v1.9c0.8-1.3,2.2-2,4-2
		C734.6,435.6,736.4,437.1,736.4,440.1z"/>
	<path d="M744.5,439.2c0-4.1,3.1-7.1,7.3-7.1c2,0,3.9,0.7,5.1,2L756,435c-1.1-1.2-2.5-1.7-4.1-1.7c-3.4,0-5.9,2.5-5.9,5.8
		s2.5,5.8,5.9,5.8c1.6,0,3-0.5,4.1-1.7l0.9,0.9c-1.2,1.4-3.1,2.1-5.1,2.1C747.6,446.3,744.5,443.3,744.5,439.2z"/>
	<path d="M767.6,439.7v6.5h-1.4v-1.6c-0.6,1.1-1.9,1.7-3.6,1.7c-2.4,0-3.8-1.2-3.8-3.1c0-1.6,1-3,4.1-3h3.3v-0.6c0-1.8-1-2.8-3-2.8
		c-1.4,0-2.6,0.5-3.5,1.2l-0.6-1.1c1.1-0.9,2.6-1.4,4.3-1.4C766.1,435.6,767.6,436.9,767.6,439.7z M766.2,443v-1.7h-3.3
		c-2,0-2.7,0.8-2.7,1.9c0,1.2,1,2,2.7,2C764.5,445.2,765.6,444.4,766.2,443z"/>
	<path d="M782.1,440.9c0,3.2-2.2,5.4-5.2,5.4c-1.7,0-3.2-0.8-4.1-2.2v2.1h-1.4v-14.8h1.4v6.3c0.9-1.4,2.3-2.1,4-2.1
		C779.9,435.6,782.1,437.7,782.1,440.9z M780.7,440.9c0-2.5-1.7-4.1-3.9-4.1s-3.9,1.6-3.9,4.1s1.7,4.1,3.9,4.1
		S780.7,443.4,780.7,440.9z"/>
	<path d="M785,431.3h1.4v14.8H785V431.3z"/>
	<path d="M799.6,441.4h-8.8c0.2,2.2,1.8,3.7,4.1,3.7c1.3,0,2.4-0.5,3.2-1.4l0.8,0.9c-0.9,1.1-2.4,1.7-4.1,1.7
		c-3.3,0-5.5-2.2-5.5-5.4c0-3.1,2.2-5.3,5.1-5.3c3,0,5.1,2.2,5.1,5.3C799.6,441,799.6,441.2,799.6,441.4z M790.8,440.3h7.5
		c-0.2-2.1-1.7-3.5-3.7-3.5C792.5,436.8,791,438.2,790.8,440.3z"/>
	<path d="M818.1,446.4l-1.9-2c-1.2,1.3-2.8,1.9-4.7,1.9c-2.7,0-4.7-1.4-4.7-3.6c0-1.7,1-2.9,3.5-4.4c-1.4-1.4-1.8-2.2-1.8-3.3
		c0-1.8,1.4-3,3.5-3c2,0,3.3,1,3.3,2.8c0,1.4-0.8,2.4-3.1,3.7l3.8,4c0.4-0.7,0.7-1.6,0.9-2.7l1.2,0.4c-0.3,1.3-0.7,2.3-1.2,3.2
		l2,2.1L818.1,446.4z M815.3,443.5l-4.2-4.3c-2.2,1.3-2.9,2.2-2.9,3.4c0,1.5,1.4,2.5,3.4,2.5C813,445.1,814.3,444.6,815.3,443.5z
		 M809.8,435c0,0.8,0.3,1.4,1.6,2.7c2-1.2,2.7-1.9,2.7-2.9s-0.7-1.7-2-1.7C810.6,433.1,809.8,433.9,809.8,435z"/>
	<path d="M825.3,444.5l0.6-1.1c1,1,2.8,1.7,4.6,1.7c2.6,0,3.8-1.1,3.8-2.5c0-3.8-8.6-1.5-8.6-6.7c0-2.1,1.6-3.8,5.2-3.8
		c1.6,0,3.2,0.5,4.3,1.2l-0.5,1.2c-1.2-0.8-2.6-1.2-3.8-1.2c-2.6,0-3.7,1.1-3.7,2.5c0,3.8,8.6,1.5,8.6,6.6c0,2.1-1.6,3.8-5.2,3.8
		C828.4,446.3,826.4,445.6,825.3,444.5z"/>
	<path d="M837.6,440.9c0-3.1,2.3-5.3,5.4-5.3s5.3,2.2,5.3,5.3c0,3.1-2.3,5.4-5.3,5.4S837.6,444,837.6,440.9z M846.9,440.9
		c0-2.5-1.7-4.1-3.9-4.1s-3.9,1.6-3.9,4.1s1.7,4.1,3.9,4.1S846.9,443.4,846.9,440.9z"/>
	<path d="M851.2,431.3h1.4v14.8h-1.4V431.3z"/>
	<path d="M866.1,435.7v10.5h-1.4v-1.9c-0.7,1.3-2.1,2-3.8,2c-2.7,0-4.4-1.5-4.4-4.5v-6.1h1.4v6c0,2.2,1.2,3.4,3.2,3.4
		c2.2,0,3.6-1.4,3.6-3.8v-5.5h1.4V435.7z"/>
	<path d="M875.6,445.5c-0.6,0.5-1.4,0.7-2.2,0.7c-2,0-3.1-1.1-3.1-3.1v-6.4h-1.9v-1.2h1.9v-2.3h1.4v2.3h3.2v1.2h-3.2v6.3
		c0,1.2,0.6,1.9,1.8,1.9c0.6,0,1.2-0.2,1.6-0.5L875.6,445.5z"/>
	<path d="M877.8,432.3c0-0.5,0.5-1,1-1s1,0.4,1,1s-0.4,1-1,1C878.3,433.4,877.8,432.9,877.8,432.3z M878.1,435.7h1.4v10.5h-1.4
		V435.7z"/>
	<path d="M882.5,440.9c0-3.1,2.3-5.3,5.4-5.3s5.3,2.2,5.3,5.3c0,3.1-2.3,5.4-5.3,5.4S882.5,444,882.5,440.9z M891.7,440.9
		c0-2.5-1.7-4.1-3.9-4.1s-3.9,1.6-3.9,4.1s1.7,4.1,3.9,4.1C890.1,445,891.7,443.4,891.7,440.9z"/>
	<path d="M905.8,440.1v6.1h-1.4v-6c0-2.2-1.2-3.4-3.2-3.4c-2.3,0-3.7,1.4-3.7,3.8v5.5h-1.4v-10.5h1.4v1.9c0.8-1.3,2.2-2,4-2
		C904,435.6,905.8,437.1,905.8,440.1z"/>
</g>
<path d="M852.1,468.5l0.6-1.1c1,1,2.8,1.7,4.6,1.7c2.6,0,3.8-1.1,3.8-2.5c0-3.8-8.6-1.5-8.6-6.7c0-2.1,1.6-3.8,5.2-3.8
	c1.6,0,3.2,0.5,4.3,1.2l-0.5,1.2c-1.2-0.8-2.6-1.2-3.8-1.2c-2.6,0-3.7,1.1-3.7,2.5c0,3.8,8.6,1.5,8.6,6.6c0,2.1-1.6,3.8-5.2,3.8
	C855.2,470.3,853.1,469.6,852.1,468.5z"/>
<path d="M873.4,463.7v6.5H872v-1.6c-0.6,1.1-1.9,1.7-3.6,1.7c-2.4,0-3.8-1.2-3.8-3.1c0-1.6,1-3,4.1-3h3.3v-0.6c0-1.8-1-2.8-3-2.8
	c-1.4,0-2.6,0.5-3.5,1.2l-0.6-1.1c1.1-0.9,2.6-1.4,4.3-1.4C871.8,459.6,873.4,460.9,873.4,463.7z M871.9,467v-1.7h-3.3
	c-2,0-2.7,0.8-2.7,1.9c0,1.2,1,2,2.7,2C870.2,469.2,871.4,468.4,871.9,467z"/>
<path d="M886.7,459.7v10.5h-1.4v-1.9c-0.7,1.3-2.1,2-3.8,2c-2.7,0-4.4-1.5-4.4-4.5v-6.1h1.4v6c0,2.2,1.2,3.4,3.2,3.4
	c2.2,0,3.6-1.4,3.6-3.8v-5.5h1.4V459.7z"/>
<path d="M900.3,455.3v14.8h-1.4V468c-0.9,1.4-2.3,2.2-4.1,2.2c-3,0-5.2-2.2-5.2-5.4s2.2-5.3,5.2-5.3c1.7,0,3.1,0.7,4,2.1v-6.3
	L900.3,455.3L900.3,455.3z M898.9,464.9c0-2.5-1.7-4.1-3.9-4.1s-3.9,1.6-3.9,4.1s1.7,4.1,3.9,4.1S898.9,467.4,898.9,464.9z"/>
<path d="M903.9,456.3c0-0.5,0.5-1,1-1s1,0.4,1,1s-0.4,1-1,1C904.4,457.4,903.9,456.9,903.9,456.3z M904.2,459.7h1.4v10.5h-1.4V459.7
	z"/>
<polyline class="st22" points="937.1,442.5 930.9,463.5 915.3,463.5 "/>
<g>
	<g>
		<g>
			<g>
				<defs>
					<rect id="SVGID_00000127728516029337697210000006801320156443304373_" x="937.3" y="407.9" width="7.9" height="12.9"/>
				</defs>
				<clipPath id="SVGID_00000168823826376030841770000008244205999479649454_">
					<use xlink:href="#SVGID_00000127728516029337697210000006801320156443304373_"  style="overflow:visible;"/>
				</clipPath>
				
					<ellipse style="clip-path:url(#SVGID_00000168823826376030841770000008244205999479649454_);fill:#5D6FCC;" cx="944.9" cy="414.4" rx="5.8" ry="6"/>
			</g>
		</g>
	</g>
</g>
<circle class="st23" cx="1532.4" cy="77.5" r="6"/>
<circle class="st20" cx="1532.4" cy="107.4" r="6"/>
<path d="M1559.5,109.8c0,2.1-1.6,3.4-4.7,3.4h-5.8v-12.6h5.4c2.8,0,4.4,1.2,4.4,3.2c0,1.4-0.8,2.4-1.9,2.9
	C1558.5,107.1,1559.5,108.1,1559.5,109.8z M1550.3,101.7v4.6h4c2,0,3.2-0.8,3.2-2.3s-1.2-2.3-3.2-2.3
	C1554.3,101.7,1550.3,101.7,1550.3,101.7z M1558.1,109.7c0-1.6-1.2-2.4-3.4-2.4h-4.4v4.7h4.4
	C1556.9,112.1,1558.1,111.4,1558.1,109.7z"/>
<path d="M1567,103.7v1.2c-0.1,0-0.2,0-0.3,0c-2,0-3.2,1.3-3.2,3.5v4.8h-1.3v-9.5h1.2v1.9C1564.1,104.3,1565.3,103.7,1567,103.7z"/>
<path d="M1576.4,107.3v5.9h-1.2v-1.5c-0.6,1-1.7,1.6-3.3,1.6c-2.1,0-3.5-1.1-3.5-2.8c0-1.5,0.9-2.7,3.7-2.7h3v-0.6
	c0-1.6-0.9-2.5-2.7-2.5c-1.2,0-2.4,0.4-3.2,1.1l-0.6-1c1-0.8,2.4-1.3,3.9-1.3C1575.1,103.7,1576.4,104.9,1576.4,107.3z
	 M1575.2,110.4v-1.5h-3c-1.8,0-2.4,0.7-2.4,1.7c0,1.1,0.9,1.8,2.4,1.8C1573.6,112.3,1574.7,111.6,1575.2,110.4z"/>
<path d="M1588.6,107.7v5.5h-1.3v-5.4c0-2-1-3-2.8-3c-2,0-3.3,1.3-3.3,3.4v5h-1.3v-9.5h1.2v1.7c0.7-1.2,2-1.8,3.6-1.8
	C1587,103.7,1588.6,105,1588.6,107.7z"/>
<path d="M1591.2,108.5c0-2.8,2.1-4.8,4.9-4.8c1.6,0,3,0.6,3.7,1.9l-1,0.6c-0.6-1-1.7-1.4-2.8-1.4c-2.1,0-3.6,1.5-3.6,3.7
	s1.5,3.7,3.6,3.7c1.1,0,2.1-0.4,2.8-1.4l1,0.6c-0.8,1.2-2.1,1.9-3.7,1.9C1593.2,113.3,1591.2,111.3,1591.2,108.5z"/>
<path d="M1610.8,107.7v5.5h-1.3v-5.4c0-2-1-3-2.8-3c-2,0-3.3,1.3-3.3,3.4v5h-1.3V99.8h1.3v5.5c0.7-1.1,1.9-1.7,3.5-1.7
	C1609.3,103.7,1610.8,105,1610.8,107.7z"/>
<path d="M1618.2,106.9c0-3.7,2.8-6.4,6.6-6.4c3.8,0,6.6,2.7,6.6,6.4c0,3.7-2.8,6.4-6.6,6.4S1618.2,110.6,1618.2,106.9z
	 M1630.1,106.9c0-3-2.3-5.2-5.3-5.2s-5.3,2.2-5.3,5.2s2.3,5.2,5.3,5.2C1627.8,112.1,1630.1,109.9,1630.1,106.9z"/>
<path d="M1635.6,102.6v1.1h2.9v1.1h-2.9v8.4h-1.3v-8.4h-1.7v-1.1h1.7v-1.2c0-1.7,1-2.8,2.9-2.8c0.7,0,1.4,0.2,1.9,0.6l-0.4,1
	c-0.4-0.3-0.9-0.5-1.4-0.5C1636.2,100.8,1635.6,101.4,1635.6,102.6z"/>
<path d="M1643.3,99.7c0.7,0,1.4,0.2,1.9,0.6l-0.4,1c-0.4-0.3-0.9-0.5-1.4-0.5c-1.1,0-1.7,0.6-1.7,1.8v1.1h2.9v1.1h-2.9v8.4h-1.3
	v-8.4h-1.7v-1.1h1.7v-1.2C1640.4,100.9,1641.5,99.7,1643.3,99.7z M1649.4,100.7c0,0.5-0.4,0.9-0.9,0.9s-0.9-0.4-0.9-0.9
	s0.4-0.9,0.9-0.9C1648.9,99.8,1649.4,100.2,1649.4,100.7z M1647.8,103.7h1.3v9.5h-1.3V103.7z"/>
<path d="M1651.7,108.5c0-2.8,2.1-4.8,4.9-4.8c1.6,0,3,0.6,3.7,1.9l-1,0.6c-0.6-1-1.7-1.4-2.8-1.4c-2.1,0-3.6,1.5-3.6,3.7
	s1.5,3.7,3.6,3.7c1.1,0,2.1-0.4,2.8-1.4l1,0.6c-0.8,1.2-2.1,1.9-3.7,1.9C1653.7,113.3,1651.7,111.3,1651.7,108.5z"/>
<path d="M1670.8,108.9h-7.9c0.1,2,1.7,3.3,3.7,3.3c1.2,0,2.2-0.4,2.9-1.2l0.7,0.8c-0.8,1-2.2,1.5-3.7,1.5c-3,0-5-2-5-4.8
	s2-4.8,4.6-4.8c2.7,0,4.6,2,4.6,4.8C1670.8,108.6,1670.8,108.7,1670.8,108.9z M1662.9,107.9h6.7c-0.2-1.9-1.5-3.2-3.4-3.2
	C1664.4,104.8,1663.1,106.1,1662.9,107.9z"/>
<path d="M1672.1,112.1l0.6-1c0.8,0.6,2,1.1,3.4,1.1c1.8,0,2.5-0.6,2.5-1.5c0-2.5-6.1-0.5-6.1-4.3c0-1.5,1.3-2.7,3.7-2.7
	c1.2,0,2.6,0.3,3.3,0.9l-0.6,1c-0.8-0.6-1.8-0.8-2.8-0.8c-1.7,0-2.5,0.7-2.5,1.6c0,2.6,6.1,0.6,6.1,4.3c0,1.6-1.4,2.7-3.9,2.7
	C1674.4,113.3,1672.9,112.8,1672.1,112.1z"/>
<g>
	<path d="M1557.9,74.8c0,2.7-1.9,4.3-5.2,4.3h-3.4v4h-1.3V70.5h4.7C1555.9,70.5,1557.9,72.1,1557.9,74.8z M1556.5,74.8
		c0-2-1.3-3.2-3.9-3.2h-3.3v6.3h3.3C1555.2,77.9,1556.5,76.8,1556.5,74.8z"/>
	<path d="M1565,73.5v1.2c-0.1,0-0.2,0-0.3,0c-2,0-3.2,1.3-3.2,3.5v4.8h-1.3v-9.5h1.2v1.9C1562,74.2,1563.3,73.5,1565,73.5z"/>
	<path d="M1566.3,78.3c0-2.8,2.1-4.8,4.8-4.8c2.8,0,4.8,2,4.8,4.8c0,2.8-2,4.8-4.8,4.8C1568.3,83.2,1566.3,81.1,1566.3,78.3z
		 M1574.6,78.3c0-2.2-1.5-3.7-3.5-3.7s-3.5,1.5-3.5,3.7c0,2.2,1.5,3.7,3.5,3.7S1574.6,80.5,1574.6,78.3z"/>
	<path d="M1587.1,69.7v13.4h-1.2v-1.9c-0.8,1.3-2.1,2-3.7,2c-2.7,0-4.7-2-4.7-4.8s2-4.8,4.7-4.8c1.5,0,2.8,0.6,3.6,1.9v-5.7H1587.1z
		 M1585.9,78.3c0-2.2-1.5-3.7-3.5-3.7c-2,0-3.5,1.5-3.5,3.7c0,2.2,1.5,3.7,3.5,3.7C1584.4,82,1585.9,80.5,1585.9,78.3z"/>
	<path d="M1599.2,73.6v9.5h-1.2v-1.7c-0.7,1.2-1.9,1.8-3.4,1.8c-2.4,0-4-1.4-4-4.1v-5.5h1.3V79c0,2,1,3,2.8,3c2,0,3.2-1.3,3.2-3.4
		v-5H1599.2z"/>
	<path d="M1601.9,78.3c0-2.8,2.1-4.8,4.9-4.8c1.6,0,3,0.6,3.7,1.9l-1,0.6c-0.6-1-1.7-1.4-2.8-1.4c-2.1,0-3.6,1.5-3.6,3.7
		c0,2.2,1.5,3.7,3.6,3.7c1.1,0,2.1-0.4,2.8-1.4l1,0.6c-0.8,1.2-2.1,1.9-3.7,1.9C1603.9,83.2,1601.9,81.2,1601.9,78.3z"/>
	<path d="M1618,82.5c-0.5,0.5-1.3,0.7-2,0.7c-1.8,0-2.8-1-2.8-2.8v-5.7h-1.7v-1.1h1.7v-2.1h1.3v2.1h2.9v1.1h-2.9v5.7
		c0,1.1,0.6,1.7,1.6,1.7c0.5,0,1-0.2,1.4-0.5L1618,82.5z"/>
	<path d="M1620.1,70.6c0-0.5,0.4-0.9,0.9-0.9s0.9,0.4,0.9,0.9c0,0.5-0.4,0.9-0.9,0.9C1620.5,71.5,1620.1,71.1,1620.1,70.6z
		 M1620.4,73.6h1.3v9.5h-1.3V73.6z"/>
	<path d="M1624.3,78.3c0-2.8,2.1-4.8,4.8-4.8c2.8,0,4.8,2,4.8,4.8c0,2.8-2,4.8-4.8,4.8C1626.3,83.2,1624.3,81.1,1624.3,78.3z
		 M1632.6,78.3c0-2.2-1.5-3.7-3.5-3.7s-3.5,1.5-3.5,3.7c0,2.2,1.5,3.7,3.5,3.7S1632.6,80.5,1632.6,78.3z"/>
	<path d="M1645.2,77.6v5.5h-1.3v-5.4c0-2-1-3-2.8-3c-2,0-3.3,1.3-3.3,3.4v5h-1.3v-9.5h1.2v1.7c0.7-1.2,2-1.8,3.6-1.8
		C1643.6,73.5,1645.2,74.9,1645.2,77.6z"/>
	<path d="M1652.5,81.5l0.5-1c0.9,0.9,2.5,1.5,4.2,1.5c2.4,0,3.4-1,3.4-2.2c0-3.5-7.8-1.3-7.8-6c0-1.9,1.4-3.5,4.6-3.5
		c1.4,0,2.9,0.4,3.9,1.1l-0.5,1.1c-1.1-0.7-2.3-1-3.5-1c-2.3,0-3.3,1-3.3,2.3c0,3.5,7.8,1.4,7.8,6c0,1.9-1.5,3.4-4.7,3.4
		C1655.3,83.2,1653.4,82.5,1652.5,81.5z"/>
	<path d="M1673,73.6v9.5h-1.2v-1.7c-0.7,1.2-1.9,1.8-3.4,1.8c-2.4,0-4-1.4-4-4.1v-5.5h1.3V79c0,2,1,3,2.8,3c2,0,3.2-1.3,3.2-3.4v-5
		H1673z"/>
	<path d="M1686.2,78.3c0,2.9-2,4.8-4.7,4.8c-1.6,0-2.9-0.7-3.7-2v1.9h-1.2V69.7h1.3v5.7c0.8-1.2,2.1-1.9,3.6-1.9
		C1684.2,73.5,1686.2,75.5,1686.2,78.3z M1684.9,78.3c0-2.2-1.5-3.7-3.5-3.7c-2,0-3.5,1.5-3.5,3.7c0,2.2,1.5,3.7,3.5,3.7
		C1683.4,82,1684.9,80.5,1684.9,78.3z"/>
	<path d="M1687.5,82l0.6-1c0.8,0.6,2,1.1,3.4,1.1c1.8,0,2.5-0.6,2.5-1.5c0-2.5-6.1-0.5-6.1-4.3c0-1.5,1.3-2.7,3.7-2.7
		c1.2,0,2.6,0.3,3.3,0.9l-0.6,1c-0.8-0.6-1.8-0.8-2.8-0.8c-1.7,0-2.5,0.7-2.5,1.6c0,2.6,6.1,0.6,6.1,4.3c0,1.6-1.4,2.7-3.9,2.7
		C1689.8,83.2,1688.2,82.7,1687.5,82z"/>
	<path d="M1697.3,70.6c0-0.5,0.4-0.9,0.9-0.9s0.9,0.4,0.9,0.9c0,0.5-0.4,0.9-0.9,0.9C1697.7,71.5,1697.3,71.1,1697.3,70.6z
		 M1697.6,73.6h1.3v9.5h-1.3V73.6z"/>
	<path d="M1711.1,69.7v13.4h-1.2v-1.9c-0.8,1.3-2.1,2-3.7,2c-2.7,0-4.7-2-4.7-4.8s2-4.8,4.7-4.8c1.5,0,2.8,0.6,3.6,1.9v-5.7H1711.1z
		 M1709.8,78.3c0-2.2-1.5-3.7-3.5-3.7c-2,0-3.5,1.5-3.5,3.7c0,2.2,1.5,3.7,3.5,3.7C1708.3,82,1709.8,80.5,1709.8,78.3z"/>
	<path d="M1714.3,70.6c0-0.5,0.4-0.9,0.9-0.9s0.9,0.4,0.9,0.9c0,0.5-0.4,0.9-0.9,0.9C1714.8,71.5,1714.3,71.1,1714.3,70.6z
		 M1714.6,73.6h1.3v9.5h-1.3V73.6z"/>
	<path d="M1726.6,77.2v5.9h-1.2v-1.5c-0.6,1-1.7,1.6-3.3,1.6c-2.1,0-3.5-1.1-3.5-2.8c0-1.5,0.9-2.7,3.7-2.7h3v-0.6
		c0-1.6-0.9-2.5-2.7-2.5c-1.2,0-2.4,0.4-3.2,1.1l-0.6-1c1-0.8,2.4-1.3,3.9-1.3C1725.2,73.5,1726.6,74.8,1726.6,77.2z M1725.3,80.2
		v-1.5h-3c-1.8,0-2.4,0.7-2.4,1.7c0,1.1,0.9,1.8,2.4,1.8C1723.8,82.2,1724.8,81.5,1725.3,80.2z"/>
	<path d="M1734.9,73.5v1.2c-0.1,0-0.2,0-0.3,0c-2,0-3.2,1.3-3.2,3.5v4.8h-1.3v-9.5h1.2v1.9C1731.9,74.2,1733.1,73.5,1734.9,73.5z"/>
	<path d="M1736.9,70.6c0-0.5,0.4-0.9,0.9-0.9s0.9,0.4,0.9,0.9c0,0.5-0.4,0.9-0.9,0.9C1737.3,71.5,1736.9,71.1,1736.9,70.6z
		 M1737.2,73.6h1.3v9.5h-1.3V73.6z"/>
	<path d="M1750.3,78.7h-7.9c0.1,2,1.7,3.3,3.7,3.3c1.2,0,2.2-0.4,2.9-1.2l0.7,0.8c-0.8,1-2.2,1.5-3.7,1.5c-3,0-5-2-5-4.8
		c0-2.8,2-4.8,4.6-4.8c2.7,0,4.6,2,4.6,4.8C1750.3,78.4,1750.3,78.6,1750.3,78.7z M1742.3,77.8h6.7c-0.2-1.9-1.5-3.2-3.4-3.2
		C1743.8,74.6,1742.5,75.9,1742.3,77.8z"/>
	<path d="M1751.6,82l0.6-1c0.8,0.6,2,1.1,3.4,1.1c1.8,0,2.5-0.6,2.5-1.5c0-2.5-6.1-0.5-6.1-4.3c0-1.5,1.3-2.7,3.7-2.7
		c1.2,0,2.6,0.3,3.3,0.9l-0.6,1c-0.8-0.6-1.8-0.8-2.8-0.8c-1.7,0-2.5,0.7-2.5,1.6c0,2.6,6.1,0.6,6.1,4.3c0,1.6-1.4,2.7-3.9,2.7
		C1753.9,83.2,1752.3,82.7,1751.6,82z"/>
</g>
</svg>
