<?xml version="1.0" encoding="utf-8"?>
<!-- Generator: Adobe Illustrator 23.0.5, SVG Export Plug-In . SVG Version: 6.00 Build 0)  -->
<svg version="1.1" xmlns="http://www.w3.org/2000/svg" xmlns:xlink="http://www.w3.org/1999/xlink" x="0px" y="0px"
	 viewBox="0 0 1920 700" style="enable-background:new 0 0 1920 700;" xml:space="preserve">
<style type="text/css">
	.st0{display:none;}
	.st1{display:inline;}
	.st2{display:inline;fill:#E1E7EF;}
	.st3{clip-path:url(#SVGID_2_);fill:url(#SVGID_3_);}
	.st4{clip-path:url(#SVGID_5_);}
	.st5{fill:#DEE4ED;}
	.st6{fill:#FFFFFF;}
	.st7{fill:url(#SVGID_6_);}
	.st8{fill:#028F37;}
	.st9{fill:#5D6FCC;}
	.st10{fill:#AAAAAA;}
</style>
<g id="Layer_1">
	<g id="레이어_1_사본_3">
		<g id="Layer_1_00000132791738984363483430000010898725384829928367_" class="st0">
			<g id="Q4qLPL_00000086682324792106548390000011438722380782341564_" class="st1">
				
					<image style="overflow:visible;enable-background:new    ;" width="1920" height="702" id="Q4qLPL_00000070827862367767025170000012634727437266049164_" xlink:href="4A7E9F26.jpeg"  transform="matrix(0.4986 0 0 0.4986 480.8675 7.449271e-06)">
				</image>
			</g>
		</g>
		<g id="Layer_5_00000089556275555668950420000017662749551967897010_" class="st0">
			<rect x="479.5" y="1" class="st2" width="959" height="350"/>
		</g>
		<g>
			<g>
				<g>
					<g>
						<g>
							<defs>
								<rect id="SVGID_1_" x="7.5" width="1912.5" height="700"/>
							</defs>
							<clipPath id="SVGID_2_">
								<use xlink:href="#SVGID_1_"  style="overflow:visible;"/>
							</clipPath>
							
								<linearGradient id="SVGID_3_" gradientUnits="userSpaceOnUse" x1="587.9001" y1="189.0206" x2="2674.5994" y2="189.0206" gradientTransform="matrix(1 0 0 1 0 539.8897)">
								<stop  offset="1.348126e-07" style="stop-color:#CAD2DB"/>
								<stop  offset="1" style="stop-color:#E1E7EF"/>
							</linearGradient>
							<path class="st3" d="M2673.9,93.5c-3-2.3-5.9-5.8-9.1-6.6c-13.4-3.2-26.9-6.3-40.4-7.9c-15.1-1.8-30.4-2-45.6-2.8
								c-1.8-0.1-3.7,0.4-5.1,0.6c-0.6,1.7-1.1,2.4-1,2.9c0.8,3.4,1.6,6.7,2.5,10c-8.8,4-8.8,4-19.4-2.4c1.4-2.4,2.8-4.9,4.7-8
								c-5.9-2.1-11.4-3.1-16.6,0.3c-5.7,3.7-11.7,3.6-17.8,3.2c-16.2-1.1-32.4-2.1-48.6-0.5c-4.9,0.5-9.8-0.9-14.4-1.5
								c-2-10.9-2.6-12.6-7.4-13.9c-6.9-1.9-14-4-21-4c-12.6,0-25.3,1.5-37.9,2.4c-6,0.4-12.4,2.6-17.9-1.7
								c-4.5-3.5-9.3-4.5-14.3-5.6c-2.8-0.6-5.9-2.5-7.8-5.1c-3.5-4.8-7.8-5.8-12.4-6c-7.1-0.4-14.2-0.3-21.3-1
								c-18.1-1.9-36.3-4.1-54.4-6.2c-3.6-0.4-6.8-0.2-10.3,1.7c-3.6,1.9-7.9,1.6-11.8,2.5c-0.8,0.2-1.4,1.5-2.2,2.3
								c0.3,3.4,0.6,6.9,0.8,9.8c-6.4,0-11.9,0-17.3,0c-8.5,0-17.3-1.8-25.6,0.3c-10.4,2.6-19.9,4.2-28.8-5.4
								c-5,5.7-9.5,10.7-14,15.7c-7.9-1.1-15.3-2.4-20.6-8.7c-0.5-7.9-0.9-14.8-1.4-22.7c-8.1-1.7-15.5-4.6-22.9-4.5
								c-8.2,0.1-16.1-0.5-23.9-3.4c-6.7-2.5-10.7-0.6-16.8,6.5c-1,1.2-2.3,2.5-3.5,2.8c-4,0.7-8,1.5-12,1.2
								c-6-0.3-12.1-2.1-18.1-2.2c-6.5-0.1-12.9,0.7-17.7-6.6c-0.4-0.7-1.9-0.3-3-0.3c-13.2,0-26.3,0-39.5,0c-2.5,0-5.2,1.4-7.5,0.5
								c-2-0.8-4-3.4-5.2-5.8c-0.8-1.6-0.4-4.3-0.5-6.4c-2.6-0.4-4.2-0.4-5.6-0.9c-1.2-0.4-2.2-1.4-3.6-2.3c4.4-2,8.3-3.4,11.9-5.6
								c1.6-1,2.9-3.5,3.4-5.7c1-3.7-1.3-6.7-3.4-7.7c-5-2.6-10.3-4.7-15.7-6c-16-3.8-32-3-47.7-0.2c-1.6-2.3-2.7-5.1-4.3-5.8
								c-7.2-3-14.4-6.4-21.9-7.8c-14.8-2.6-29.2-0.4-41.8,11.2c-1.6,1.5-3.5,3.4-5.3,3.3c-9.8-0.4-19,3.5-28.4,5.8
								c-2.4,0.6-5,0.2-7.4-0.5c-9.6-2.6-19.1-2.3-28.7-0.2c-9.9,2.1-19.8,5.2-29.8,6.1c-21.6,2-42.7,7.4-64.7,14
								c3.5,3.1,6.1,5.5,8.8,8c-5.2,4.6-10.7,4.4-16.2,4.5c-12.7,0.2-25.3,0.7-37.9,1.6c-2.7,0.2-5.3,2.3-7.8,3.5
								c2.3,9.8,5.9,15.9,14.2,15.3c1.6-0.1,3.3,2.7,7.5,6.3c-5.1,0-7.4,0.9-8.9-0.1c-11.6-7.6-24.6-7.2-36.9-10.6
								c-2.8-0.8-5.9,0.5-8.9,0.9c-1.1,8.9-8.9,4.2-11.9,8.8c0.8,2.7,1.5,4.9,2.8,9.2c-4.4-2.4-7.4-3.9-10.2-5.4
								c3-15.7,3.1-15.9-6.2-16.5c0.3,2.7,0.6,5.3,0.8,7.1c-5.4,6.1-13.7,0.9-16.7,11.4c2.5,3.5,5.1,7.1,7.6,10.6
								c-4.3,10.2-4.3,10.2-1.5,20c3.6,0.6,7.4,1.2,11.9,1.9c-6.6,5-6.6,5-4.2,15.1c-6.9,12.2-18.3,14.7-28.2,20.5
								c-0.8,0.5-2.7-2.2-5.2-4.3c6.2-5.4,11.5-9.2,16-14.2c2.3-2.6,3.1-7.3,4.5-10.9c-3.4-2.9-5.8-4.9-8.1-6.8
								c0-5.8-1.2-11.5,0.3-15.9c2.6-7.9-1.4-11.8-4.6-16.9c1.3-5.3,7.4-7.9,4.9-16c-3.8-3.2-9.8-2.9-13.8-8.7
								c-2.6-3.8-8.2-4.4-11.4-1.5c-5.3,4.6-12.6,5.9-15.9,13.7c-3.5,8.2-9,11.6-15.7,13.7c-2.6,0.8-4.9,3.3-7.5,5.1
								c4.7,7,4.7,7,2.8,20.2c7.8-0.2,14.5,2.9,19.1,11.3c-4.4,3.7-4.4,3.8-7.4,2.2c-15.1-7.8-31-12.1-46.9-15.5
								s-32.4-1.6-47.6-10.4c-2.2-1.3-4.8,0.6-4.5,5.8c3.6,1.4,7.4,3.3,11.3,4.3c3.8,0.9,6.5,3.4,8.7,7.1c0.5,0.8,0.4,2.2,0.7,3.4
								c-3.7,1.7-7.4,3.4-10.9,5c-2.5-2.8-4.7-5.1-6.5-7c-8.2,2.1-15.6,5-23.1,5.4c-7.1,0.5-14,0.1-20.8,3.8c-1.9,1-5.2,0.3-7-1.2
								c-1.5-1.3-1.8-5-2.8-7.9c-18.6,5.4-36.8,10.6-54.9,16.3c-3.6,1.2-7.8,1.8-10.1,7.4c-2.5,5.9-7.7,5.2-12.2,5.4
								c-5.4,0.3-9.9-1.5-12.7-7.9c2.6-6.1,10.3,0.3,12.1-8c-7.8-9.1-16.7-7.1-25.7-6.1c0,2,0.1,3.2,0,4.3c-0.5,3.1-0.7,6.4-1.7,9.2
								c-2,5.6,3.5,5.2,3.9,9c0.4,3.7-2.5,8.4-5.3,7.5c-5.8-1.8-11.6-5.4-17.7-2.7c-7.6,3.5-15.1,7.4-22.6,11.2
								c-0.7,0.4-1.1,1.8-1.8,3c0.9,2.1,1.9,4.3,3.3,7.6c-3,0.7-5.9,2.4-8.5,1.9c-7-1.4-13.8-3.8-20.8-5.4c-2.9-0.6-6.3-1.1-7,5.8
								c1.8,1.4,3.8,2.9,5.9,4.5c1.7,1.3,5.4-0.2,4.5,5c-7.6,2.8-13.6-3.9-20.3-5.2c-7.8-1.6-11.2-6.9-10.4-15.2
								c0.8-7.6-4.7-8.3-6.9-13.2c2.2-0.2,3.7-0.7,5.1-0.4c11,1.9,22,4.3,33,6c13.8,2.1,27.1,0.5,37.7-11.9
								c-0.6-8.1-4.4-11.1-9-12.7c-7.8-2.8-15.8-4.8-23.3-8.4c-14.4-7-29.1-10.7-44.4-11.8c-3.4-0.2-7.1-1.1-10-3.1
								c-5.2-3.5-10.2-5.2-15.9-2.3c-1.7,0.9-4,0.2-6-0.2c-4.5-0.8-3.2-4.8-2.7-8.7c-7.3-5.1-16-3.1-23.3-6.6
								c-7.2-3.5-12.6-1.5-17.8,4.5c-6.8-6.8-14-7.1-21.7-4.9c-4.4,1.3-8.9,3-13.4,3c-6.2,0-11.5,1-17.2,4.9
								c-5.9,4.1-13.3,4.9-20.3,3.1c-5.7-1.5-11-1-15.7,4.1c-1.5,1.6-3.6,2.4-5.6,2.9c-4.8,1.2-10.4,0.4-12.1,8.8
								c-0.1,0.7-2.9,1.3-4,0.6c-6.4-3.6-12.5-2-18.3,1.9c-1.4,0.9-2.2,3.2-3.5,5.3c3.2,1.8,5.4,2.9,8.8,4.8
								c-5.5,5.2-10.2,10-15.2,14.1c-6.7,5.5-13.9,10.2-17.1,20.5c-0.6,2-2.8,4.2-4.5,4.7c-4.5,1.4-7.6,5.6-11.4,8.1
								c-6.8,4.3-11.9,15.1-21.5,10.9c-0.6-0.3-1.8,1-2.6,1.8c-4.2,3.7-8.8,5.8-13.6,7.9c-8,3.5-15.5,8.9-23.8,13.9
								c1,11.3,1,22.1,3.2,32c1.6,7.3,4.8,14.4,11.7,18c9.4,5,17.9,3.8,26.2-2.2c6.6-4.8,13.1-9.3,21.4-10.2
								c6.4,11.7,12.9,23.6,19.4,35.4c-3.2,8.2-11.1,5.4-15.5,10.9c-0.1,2.5-0.3,5-0.4,7.8c-2.7-2.9-5.2-5.6-7.7-8.4
								c-0.2-0.3,0-1.2,0-2.6c1.1-1.2,2.6-2.8,4.3-4.7c-1.2-2.6-2.7-5-3.5-7.9c-0.8-3.1,2.8-7.5-1.9-10c-5.5,2.2-11.3,4.3-16.9,6.9
								c-4.3,1.9-6.6,6.3-6.2,12c0.3,3.7,1.5,7.4,2.3,11.1c1.4,6.4,2.8,12.9,4.1,18.9c-1.7,1.3-2.6,2.7-3.3,2.5
								c-9.3-2.2-18,2.6-27,4.3c-5.1,1-10.2,4.5-13.4,11.3c-4.9,10.4-12.5,16.5-21.7,19.6c-2.9,1-5.8,2.2-9.6,3.6
								c1,13.5-9.6,10.2-14.2,16c-7.1,8.7-14-0.4-21.1,0.3c0.3,4.7,0.5,8.3,0.8,12.4c-3.5,0.4-7,2.2-9.4,0.9
								c-7.8-4.3-14.8-0.8-23.2,2c2.1,3.6,3.4,6.7,5.3,9c0.9,1.1,2.9,0.9,4.4,1.1c10.8,1.7,18.1,10.4,24.4,20.6
								c1.5,2.4,2.8,5.7,2.9,8.6c0.2,9.5,0.6,19.3-4.5,28.1c-1.9,0.4-3.9,1.2-5.8,1.1c-16.7-0.8-33.5-0.3-50-3.1
								c-9.6-1.6-16.5,1.7-22.9,7.1c1.5,10.8,4.1,20.3,3.6,29.5s-4.3,18.2-6.9,27.9c1.9,3.2,4.7,6.3,5.9,10.2
								c1.2,3.8,0.7,8.5,1,13.2c5.2,0,9.7,0.6,14.1-0.2c5.2-0.8,8.8,0.8,11.5,6.7c1.5,3.3,3.5,6.2,5.1,9
								c-4.1,16.7-10.7,29.2-24.5,34.2c-8.5,3.1-11,14.4-15.5,22.8c-3.5,6.7-1.4,13.6-0.3,20.1c-7.6,15.1-15.3,23.2-27.9,28.1
								c-5.2,2-8.2,5.9-11.3,11.6c-6.1,11.3-15.8,19.6-17.5,34.7c-0.2,1.6-1.9,3-3,4.2c-8.6,9.7-11,24.2-17.3,35.8
								c-1,1.8-0.5,5-0.8,7.6c2.8,4,5.4,7.8,8.1,11.7c-1.8,6.4-2.1,12.2,0.3,18.6c1.7,4.4,2.1,10.1,1.6,15
								c-0.8,6.9-3.8,13.4-4.3,20.3c-0.7,8.2-5.1,13.4-8.6,20.1c8.6,8.8,4.6,20.8,6.2,31.1c9.1,10.6,17.8,21.3,27,31.2
								c5.3,5.6,9.2,11.3,10.1,20.5c0.5,4.8,3.3,9.2,4.1,11.4c11.6,10.1,22,18,31.4,27.7c7.6,7.9,15.4,14.5,24.8,17.6
								c1.6-0.7,3-1.2,4.4-2c15.8-9.2,32-11.8,48.9-5.6c3.1,1.1,7,0.3,10.2-0.9c9.1-3.6,18.5-6.9,26.9-12.3c6.7-4.3,13.4-5,20.5-5.9
								c12.2-1.6,22.1,1.1,26.2,18.5c1.6,7,6.3,9.8,12.1,8.8c7-1.2,14-2.4,21-3.7c2.5,2.9,4.4,6.1,6.9,7.9c5.7,4.2,7.2,10.2,6,18
								c-1.8,11.9-3.2,23.9-5.3,35.7c-0.7,4.1-3,7.8-4.6,11.9c2.9,10.4,7.3,19.5,13.7,27.3c10.6,12.9,21.5,25.7,23.7,45.8
								c0.2,1.8,1.7,3.2,2.2,5.1c2.8,10.4,10.3,19.7,5,32.2c1.8,6,3.5,12,5.3,17.9c3.1,10.3,3.7,20-3.6,28.1
								c-4.7,5.2-7.5,12-9.2,19.6c-1.7,7.4-3.8,14.6-5.1,22.1c-2,11.9-4,24.3,1,35.7c7.4,16.8,15.4,33.2,23.1,49.8
								c1.2,2.7,3.2,6.1,2.8,8.7c-1.9,14,3.2,26.5,4.6,39.8c1.6,15,5.3,28.7,15.1,38.8c2.6,2.7,5,6.8,6.2,10.8
								c3.3,10.9,7.3,21.2,12.8,30.6c3.5,6,2.8,11.9-1.7,17c2.3,6.1,4.5,11.7,6.3,16.6c5.2,3.3,9.6,6.2,13.6,8.7
								c14.3-4.6,27.8-10.9,42.1-9.6c21.5,2,39.4-7.1,55.2-25.1c8.7-9.9,17.3-19.7,22.9-33.2c1.6-3.8,4.3-7.4,7.2-9.8
								c5.7-4.6,7.5-11.4,9.6-18.9c2.4-8.7,2.2-17.3,0.8-27.1c6.7-3.5,12.6-6.7,18.7-9.7c6.2-3,9.5-7.4,10-16.9
								c0.5-10.6,0.2-20.3-3.3-30c-1.8-5.2-3.2-10.6-4.8-16.4c3-3.9,5.7-7.7,8.7-11.1c3.4-3.8,7.3-6.8,10.7-10.6
								c3-3.4,5.4-7.7,8.5-10.9c2.3-2.3,5.3-3.6,8.1-5.2c2.8-1.5,5.7-2.6,8.5-4.2c7.7-4.4,12.7-12.5,17.1-21.3
								c3.7-7.3,2.2-14.7,0.6-22.3c-0.8-3.6-0.4-7.7-0.5-11.5c-0.3-10.9-0.6-21.8-0.9-33.2c-5.6-4.1-7.5-11.1-9.8-18.4
								c-2.3-7.1-2.3-14.5-1.3-20.5c1.2-7.3-1.6-10.8-4.1-15.3l0.4,0.3c0-0.2,0-0.4,0-0.6c1.1-0.8,2.2-1.5,3.4-2.3
								c-1.1-1.5-2.2-3-3.3-4.5c0-0.4,0-0.7,0-1.1c-0.2,0.1-0.3,0.2-0.5,0.3c0.2-2.5-0.3-5.5,0.7-7.5c7.1-15.1,9.9-33.7,22.8-44.2
								c3.2-2.6,5-7.9,7.5-11.9c9.5-15.2,19.7-29.8,33.1-39.3c12.7-9.1,22.9-21.8,30.7-36.7c10.6-20.2,20-41.6,28.6-63.3
								c4.1-10.3,7.6-22.3,3.6-34.6c-1.2-0.3-2.5-1.2-3.1-0.7c-8,6.2-17,7.3-26,9.2c-10.8,2.2-21.7,4.3-32.1,8.5
								c-7.7,3.2-12.7,1.3-17.2-6.2c-1.5-2.5-3.2-5-4.6-7.2c0.7-4.5,1.4-8.6,2.1-12.8c7.9-0.7,16-0.5,22.8-7.5
								c2.2-2.2,5.7-2.2,8.6-3.3c4.3-1.7,8.6-3.3,12.9-5.1c13.3-5.5,25.3-15.4,39.2-19.3c4.4-1.2,8.8-3.9,10.1-10.4
								c0.9-4.4,3.8-5.9,6.6-7.3c3.8-1.9,7.6-3.7,11.5-4.8c6.2-1.8,13.4-0.3,16-10.8c0.3-1.1,2.8-1.1,4.1-2c2.6-1.8,6.3-3.1,7.3-5.9
								c2.6-6.9,7.9-7.4,12-10.3c0.9-5.7,1.7-11.2,2.5-16.5c2.7-0.8,5.5-0.5,6.5-2.1c4.8-8,9.1-16.4,13.6-24.7
								c-6.6-10.7-12.8-20.1-24.2-21.9c-7.2-1.1-10.9-8.7-12.1-17.7c-0.5-3.7-0.4-7.6-0.7-13.3c-3.9,4.2-7.1,7.2-9.9,10.5
								c-13.7,15.8-13.7,15.8-32,17.3c-0.5,0-1,0.2-1.5,0.2c-4.8,0.2-7.3-2.8-7-9.4c0.3-6.2,1-12.3-3.1-17.8
								c-3.3,3.3-5.8,5.8-11,11.1c2.4-15.4-4-22.2-10.2-28.8c-6.5-7-9.5-16.2-11.8-25.7c10.8-14.4,18.3-14,25.6,0.8
								c2.9,6,5.6,12.2,7.5,16.2c6.3,4.7,11.3,7.8,15.7,12c11.1,10.7,22.9,11.7,35.6,5.4c2.2-1.1,4.5-1.9,6.8-2.9
								c2.1,6.1,3.9,11.3,6.2,17.8c15.3,2.9,30.7,5.9,46.2,8.6c2.4,0.4,5-1.1,7.5-1.3c14.1-1,28.2-1.8,41-2.6
								c7.5,6.5,9,17.1,16.4,21.7c6.6,4.2,12.3,10.6,18.2,15.8c-1.6,1.2-3.6,2.6-6.4,4.7c3.7,4.8,6.8,9,10,13
								c9.1,11.3,12.3,7.5,20.2,2.3c2.4-1.6,4-5.5,5.9-8.2c2.6,6.8,5.6,13.5,2.9,21.7c-0.7,2.1-0.1,5.1,0.3,7.5
								c2.2,13.9,3.2,28.3,7,41.4c5.3,18.6,12,36.7,18.1,54.9c4.3,12.9,10.2,24.8,13.1,38.7c1.2,5.8,5.2,10.8,8.4,15.6
								c2.2,3.3,6.2,3.3,8.1,0c3.5-6.1,9.1-10.3,11.6-16.4c2.5-6,6.5-9.4,9.9-14c-0.2-9.7-1.4-19.2,3.1-28.2
								c1.7-3.2,0.9-8.7,0.8-13.1c-0.2-5.1-0.9-10.2-1.4-15.3c-0.7-7.2,0.7-11.9,7-14.5c5.5-2.2,11.9-5.7,15-11.2
								c3.1-5.6,7-8.8,10.8-12.8c4.7-4.9,9.6-9.6,13.6-15.3c4.5-6.4,9.3-11.5,15.8-14.3c5.6-2.4,9.2-7.6,9.7-15.7
								c0.1-1.8,1-3.5,1.3-4.6c5.4-5.3,11.1-2.7,16.5-3.1c5.5-0.4,11-2,16.3-3.9c5-1.8,9.8-4.8,15.6-7.6c1.7,14.3,6.1,26.2,15,33.1
								c4.5,3.5,4.1,7.8,5.8,12.1c1.9,4.9,7.6,6.5,8,13c0.3,5,0.3,10.2,0,15.2c-0.3,3.7-1.3,7.3-2.2,11.7c5.6,4,10.4,6.2,15.9,1.7
								c5-4,10.1-7.8,15.7-12.1c7.2,17.1,7.2,35.7,13.1,52c2.5,7,0.1,16.3,1.1,24.8c0.9,8.4-1.6,17.5-2.4,26.3
								c-0.5,5-0.5,10-0.8,14.9c2.9,0.8,5.7,0.4,6.6,1.9c6.3,10.2,13.3,19.6,15.3,33.7c2.9,20,9.9,37.6,25.3,47.5
								c2.7,1.7,5.5,3.7,7.5,6.5c1.9,2.5,2.9,6.1,4.3,9.3c2.3-0.9,4.6-1.9,7.4-3.1c-2-6.7-3.2-14.4-6.4-20.3
								c-3.7-6.9-5.7-13.6-4.4-21.6c1.4-8.5-0.9-15.3-5.8-20.7c-6-6.7-11.2-14.8-19.2-18.1c-4.3-1.8-6-5.8-7.4-11.1
								c-1.8-7.2-3.5-16-7.7-20.1c-4.9-4.8-5.2-9.4-3.8-14.7c3.2-12.8,7.6-25.2,9.2-38.6c0.1-0.9,1.4-2.3,2.1-2.3
								c1.3,0.1,3.3,0.7,3.8,1.9c1.3,3.2,0.8,8.1,4.9,8.5c9.6,1,15.7,7.8,18.8,18.9c1.6,5.7,5.6,7.2,8.8,9.9
								c2.8,2.3,6.4,3.2,9.8,4.8c0.3,6.8,0.7,13,1.1,20.9c6.6-5.2,13.8-8.1,17-14.3c4.1-8,10.1-10.1,15.5-14.2c2.6-2,5.1-4.2,7.8-6
								c3.4-2.3,5.4-5.7,6.2-10.3c3.9-22.3,0.7-43-12.6-58.5c-7.5-8.7-14.4-17.6-20.4-27.8c-5.2-8.7-5.3-13.9,0.6-21.9
								c4.4-6,10.1-10.2,15.2-15.2c7.1-6.8,13.3-8,20.8-2.3c0.9,4.8,1.8,9.7,2.6,14.1c-4.1,3.9-8,7-11.3,10.8
								c-3.5,4.2-2,11.5,2.5,14.4c3.4,2.2,6.5,1.9,10-0.3c6.1-3.8,7.4-11.7,10.3-17.8c-0.2-1-0.2-1.7-0.4-2.2c-0.6-1-1.3-1.9-1.8-3
								c-3.7-7.1-2.6-14.9,2.9-17c7.7-3,15.7-4.5,23.3-7.6c9.5-3.9,18.1-11,28.5-11.5c1.9-0.1,4.1-1.2,5.6-2.7
								c10.9-10.3,21.7-20.8,32.4-31.4c1-1,1.6-3,1.8-4.7c1.6-12.9,8.9-21.2,15.2-30.2c4.6-6.5,9.2-17.7,11.3-29.3
								c-1-0.2-1.9-0.3-2.9-0.6c-6.3-1.8-6.3-1.8-2.3-8.5c2.9-4.8,3.8-12.1,0.7-15.5c-7.1-8-10.7-18.4-14.8-28.7
								c-0.9-2.1-2.7-3.7-4.2-5.3c-2.1-2.2-4.4-4.2-7.8-7.3c6.5-6.7,12.2-11.9,17.2-18c5.2-6.2,13.5-4,19.4-12.2
								c-7.8-2.8-14.3-5.2-21.7-8c-2.3,2-5.2,4.5-8.1,7c-4.7,3.9-6.4,3.3-7.9-4.4c-0.7-3.7-1.9-5.6-4.5-6.4
								c-2.5-0.7-5.1-0.7-7.4-1.9c-3.7-1.9-3.7-5.5-1.3-10.3c7.1,1.8,12.7-1.1,18-8.8c4.1-6,10.5-9.7,16.2-13.6
								c3.8-2.6,7.8-2.3,10.4,4.5c-2.8,5.9-11.1,9.9-5.2,21.3c11.9-7.4,24.1-20.1,38.8-6c-1.7,5.5-3.3,10.6-4.7,15
								c2.6,6.3,6.2,5.1,9.8,5.3c5.7,0.2,6.5,2.1,6.4,9.6c0,3-0.2,6.3,0.6,9c1.4,4.7,1,8.7-0.7,13c-1.3,3.3-2.4,6.7-3.9,11
								c2.9,1.8,5.3,4.8,7.1,4.2c8.3-2.8,16.4-6.1,24.4-10.1c4.6-2.3,6.3-7.6,6.1-14.2c-0.2-8.5-0.9-16.5-5.8-23.2
								c-5.1-6.9-9.6-14.5-14.3-21.6c0.5-6,4.5-6.2,7.4-8.4c6.6-5,15.8-7,15.8-20.6c0-2.4,2.8-5.3,4.9-7c5.5-4.5,11.3-8.5,15.9-11.9
								c6.5,1.3,12,4,17.2,3.1c7.5-1.2,15-5.3,20.2-12.5c12.4-16.9,28.5-29,38.7-48.7c1.9-3.7,4.5-7.1,7.4-9.6
								c4.6-3.9,6.7-9.6,7.8-15.9c0.9-5,1.4-10.1,1.5-15.2c0.2-9.1,3.4-15.8,9.4-20.8c3.3,3.4,7.1,6,6.8,11.9
								c-0.7,19.1-1.6,38.2-2.4,57.3c-0.1,2.8,0.5,5.7,0.9,9.3c3.4-3,5.8-5,8.1-7c2.4-2.1,5.4,5,7.6-0.7c-3.2-5.8-6.3-11.5-9.6-17.5
								c2.6-6.2,4.9-11.7,6.9-16.5c4.4-0.9,7.6-1.6,11.3-2.3c-3.2-10.8-6.1-20.4-8.9-30c-0.8-2.9-1.8-6.1-1.8-9.1
								c-0.1-15,0.1-15-6.4-27.8c-0.7,3.1-1,8.2-2.1,8.5c-6.4,2-6.6,8.5-8,14.5c-0.2,0.7-1.4,1-2.9,2c-0.6-3.9-1.2-7.5-1.9-12
								c-5.1-3.9-10.4-9.2-16.3-12.1c-7.4-3.6-13,4.7-19.4,8.1c-1.3-3.2-2.4-6-3.5-8.7c-2.4,0.6-4.6,1.2-6.8,1.8
								c-0.7-2.2-1.2-4-1.6-5.6c-3.6-3.4-8.9,1.4-12.4-4.5c2.1-1.8,3.7-3.3,5.4-4.5c9.7-6.9,19.9-12.7,28.3-22.4
								c1.5-1.7,3.4-2.7,5.2-3.9c5.8-3.9,11.3-8.1,16.7-13.1c11.1-10.2,23.3-17.4,38.1-15.3c11.4,1.6,23,1.4,34.5,0.6
								c5.8-0.4,12.1,2.4,17.4-3.8c1.4-1.6,4.9-0.9,7.4-0.5c4.4,0.7,8.8,1.9,13.2,2.8c0.4,2.4,0.8,4.9,1.3,8.3
								c6.1-1,12.2-1.3,17.9-3.3c6.1-2.1,13.2,3.4,18.7-4.4c-1.6-1.9-3-3.6-4.9-5.9c2.3-2.5,4.4-5.2,6.8-7.2c4.2-3.4,9.5-5.4,13-9.8
								c8.7-10.9,19.8-8.6,30.1-10c3.6-0.5,8.2,1.5,8.8,9.6c0.4,5.6,5.1,6.6,9.9,3.8c7.7-4.5,15.4-9.1,23.9-14.2
								c2.7-8,2.7-8,10.6-7.1c-1.8,5.5-3.1,10.9-5.3,15.6c-1.1,2.5-3.7,4.9-5.9,5.4c-12.5,2.9-22.4,12.7-32,21.3
								c-10.2,9.2-20.7,15.6-31.5,18.9c-2.5,4.1-3.9,7.9-6.2,9.8c-10.9,8.8-11.9,21.2-8.8,35.5c2.9,13.6,5.6,27.3,8.7,40.8
								c0.5,2,2.4,3.4,3.7,5.1c8.4-5.6,15.9-10.4,19.2-22c0.8-2.8,4.5-4.8,7.2-5.9c3.8-1.5,5.9-3.5,6.5-9c0.7-5.7,4.8-8.1,8.8-9.1
								c2.9-0.8,6.1-0.1,9-1c2.3-0.7,4.2-2.2,3.7-6.6c-1.5-12.9-0.8-13.5,9.2-14.7c1.4-0.1,2.6-1.1,4-1.7
								c-3.3-11.9-3.3-11.9-1.6-21.3c-1.4-0.5-2.9-1-4.3-1.4c-1.8-0.4-3.6-0.7-6.4-1.2c4.3-11.1,14.3-14.1,16.2-25.9
								c5.8,0,11.4,1.8,15.7-0.5c5.2-2.8,9-1.5,13.9-0.4c4.3,0.9,9.2-4.7,14.1-5.8c9-2.1,18.1-2.6,25,6.4
								c15.6-10,30.3-19.7,46.6-24.9c15.1-4.9,29.7-13.5,46-7.3c2.8,1.1,5.9-1.4,6.3-7.4c-4.3-6.5-8.9-13.6-13.4-20.3
								c6.2-2.8,12.8-5.8,19.4-8.8C2673.9,127,2673.9,110.3,2673.9,93.5z M1143.2,398.1c2.3-2.4,4.9-4.9,7.7-5.9
								c7.3-2.5,14.7-4.2,22.1-6.2l-0.1,0.1l0,0c-0.3,7.8,0.1,16-6.9,20.7c-6.8,0-13.8,0.2-20.8-0.2c-1.1,0-2.7-2.1-3-3.6
								C1141.9,401.6,1142.4,399,1143.2,398.1z M1100.1,392.8c6.2,2.7,12.7,5.5,19.1,8.3c-0.4,2.3-0.9,5.1-1.4,7.9
								c6,0.7,6.9,8.1,9.9,13.4c4.7-2.3,8.7-4.6,13-6.3c9.3-3.6,18.6-6.7,27.4,2c14.2,4.1,24.3,18.2,37.5,24.8
								c3.8,1.9,5.6,7.1,5.7,13.8c-4.5,6.9-11,9.8-18.3,9.7c-23.8-0.1-23.9,0.2-47-9.6c-12.7-5.4-25.1-6.1-36.6,2.4
								c-9.7,7.1-19.4,5.4-29.4,4.3c-7.9-0.9-13.1-6.2-15.2-16.1c0.4-1.7,0.4-4,1.3-5.3c4.7-6.6,8.4-13.9,10.8-22.3
								C1086.8,413.7,1089.2,397.5,1100.1,392.8z M1077.3,470.1c-6,7-10.4,2.9-16.5,1C1067,466.8,1071.4,466.5,1077.3,470.1z
								 M888.6,282.9c2.9,0.5,6,0.1,9.8,0.1c1.9-3.7,4.1-7.8,6.2-11.9c6.8,3.5,12.9,7.2,18.7-2.4c1.8-2.9,6.1-3.6,9.4-4.7
								c4.7-1.6,9.5-2.8,15-4.4c-0.3-4.2-0.6-7.1-0.6-10.1c-0.1-13.3,2.7-18.6,12.5-22.4c7.6-3,7.7-2.7,11.8-12.7
								c-1.8-7.4-7.2-8.1-11.8-10.6c-6.8-3.7-7.1-5.6-4.8-14.7c1.5-5.9,4.1-9.6,8.1-13.1c6.8-5.9,14.3-9.6,22-12.8
								c6.4-2.6,12.1-6,13.1-16.1c0.2-2.1,1.8-5,3.4-5.9c11.3-6.1,22.9-9,36.3-2.2c-12.1,16.1-26.8,23.5-42.1,31
								c-0.2,3.4-1.3,7.6-0.3,10.7c2.5,7.6,2.3,14.9,0,22.4c9.7,10.1,20.4,11.7,31.7,9.3c7.5-1.6,14.9-3.9,22.4-5.2
								c6-1.1,12.1-1.7,18.2-1.3c3,0.2,6,3.1,9.6,5.1c-9.3,6.9-18,7.4-27.3,6.5c-10.9-1.1-22.1-1.6-32,7.5c-2.2,2-6.5,0.3-9.8,0.3
								c-1.8,3.5-3.3,6.6-5.2,10.2c1.5,1.5,3,2.9,4.5,4.4c-1.1,1.2-2.2,2.6-3.5,3.4c-8.2,5.1-12.3,12.8-10.7,24.7
								c0.3,2.5,0,5.1,0,8.4c-3.7,1.6-8.2,2.1-11,5.1c-5.5,5.8-10,7.8-15.9,1.1c-1.5-1.7-4.8-1.8-7.1-1.3c-5,1.1-9.8,3.2-14.7,4.7
								c-5.9,1.9-11.8,3.6-17.7,5.5c-5.6,1.8-9.9-0.6-12.7-7.1c-3.9,0.9-7.9,0.5-10.7,2.7c-8.7,6.7-15.9,0.6-25-2.2
								C882.4,279.5,885.5,282.4,888.6,282.9z M1027.8,244.4c-1.1,5.9-5.2,9.1-8.7,6.4c-4.1-3.2-7.8-7.2-11.7-10.9
								c2.5-5.2,7.2-5.5,11.3-7.8c3,2,6,4,8.8,5.9C1027.7,240.7,1028.2,242.7,1027.8,244.4z M974.2,427.6c-1.1,0.7-2.2,1.7-3.4,2
								c-0.5,0.1-1.2-1.3-1.8-2.1c1.3-1.3,2.7-2.6,4.1-3.9C973.4,424.7,973.7,425.8,974.2,427.6z M967.8,435.6c-0.9,1.5-1.5,3-2.5,4
								c-0.4,0.4-1.5-0.4-2.3-0.7c0.6-1.4,1.1-3,2-4.1C965.3,434.4,966.6,435.2,967.8,435.6z M1109.1,595.7
								c-7.5-4.8-15-3.5-21.7,1.9c-5.2,4.2-10.2,3.8-15.9,2.3c-10.4-2.8-20.2-8.8-31.2-7.4c-8-8.1-19.2-5.3-27.6-14.1
								c-7.2-7.4-21.2-3.3-28.1,5c-2.8,3.4-2.9,7.3-2.4,12.3c1.2,10.7-6,17.3-13.3,12c-8.6-6.2-17.5-10-27.2-11.4
								c-4-0.5-6.2-3.8-7.4-8.5c-1-4-3.3-6-6.5-7.2c-6.8-2.5-13.3-5.9-20.7-4.8c-6.4,0.9-12.9-2-16.6-7.6c-3.3-4.9-6.6-4.5-10.3-5.5
								c-0.6-0.2-0.9-2.1-1.7-4.2c2.5-2.6,5.3-5.1,7.7-8.1c3-3.8,2.7-7.6-0.5-13.4c-0.8-1.5-1.6-3-2.4-4.5c1.5-3.5,2.9-6.7,4.2-9.8
								c-0.8-0.8-1.3-1.7-1.5-1.6c-5.7,3-8.2-7.4-13.5-5.3c-4.4,1.6-8.6,3.8-13.1,5c-2.3,0.6-5-0.8-7.5-0.8c-6,0-11.9-1-17.9,1.6
								c-3.2,1.4-6.9,0.8-10.4,0.9c-5.5,0.1-11.1-0.4-16.6,0.2c-7.5,0.8-15.3,1.4-22.5,4.1c-9.1,3.4-18.1,8-26.5,13.7
								c-5.8,4-10.8,5.4-17.2,3.5c-4.8-1.4-10,0.1-15-0.1c-5.5-0.2-9.8-2.7-10.8-10.7c2.7-6.1,7.5-6.7,11.8-7.7
								c3.4-0.9,7.1-0.4,10.6-0.5c6.1-0.2,12.3-0.4,16.2-7.9c8.3-3,12.1-12.6,17.8-19.3c-0.9-4-1.7-7.6-2.6-11.5
								c6.6-10,12-20.7,23.4-22.9c4.2-0.8,8.1-5,12.5-7.9c0-5.2,0-10.2,0-15.4c4.1-5.4,9.1-7.1,15-4.9c2.4,0.9,5.1,0.7,7.4,1.9
								c6.8,3.6,12.4,2.2,18.4-3.4c4.8-4.5,10.5-7.3,16-10.5c1.7-1,4-1.2,5.9-0.7c3.4,1.1,6.6,3,10.3,4.8c5.9,19.5,19.4,29,33.3,36
								c9.1,4.6,15.9,12.9,24.5,18c1.9,1.1,3.1,5,4.1,7.8c2,5.6-0.3,12.9-5.1,13.5c-7.3,1-14.5,6.7-22.3,1.9c-2.1-1.3-3.3,0-9.9,4.8
								c8.5,7.8,18.1,11,28.2,16.1c1-5.8,1.8-10.5,2.5-15c3.9-2.3,7.8-3.8,10.9-6.8c3.1-2.9,5.3-7.3,8.6-12
								c-1.6-3.1-3.4-6.7-5.2-10.3c0.9-4.5,3-6.7,6.6-5.4c3.7,1.4,7.2,3.4,11.6,5.5c-0.3-2.8,0.1-5.3-0.7-6c-2.7-2.8-6-4.6-8.7-7.4
								c-4.9-4.9-13.6-2.5-15.6-13.1c-0.2-0.9-2.6-1.5-4-1.5c-8.5,0.2-15-4.2-18.2-14.1c-3-9.5-11.2-10.5-16.4-18
								c0.3-3.9,0.5-8.2,0.9-13.3c2.7-1.1,5.5-2.3,8.4-3.5c2.1,3.3,3.6,6.7,5.8,8.9c2.3,2.3,6.1,2.6,7.9,5.3c5,7.7,12,11.5,18.1,17
								c4.3,3.9,8.9,6.1,13.8,7.5c7.6,2.2,14.2,6.5,18.9,13.4c2.6,7.4-2.7,14.7,1.8,21.2c3.3,4.7,5.4,10.8,10,14.1
								c0.5,0.4,0,3-0.1,4.6v-0.1c7.3,5.7,9.9,15.4,12.8,24.9c3.8,1.5,7.6,3,12.2,4.8c3-10.2,9.3-15.8,16.9-20.5
								c-4.7-11.3-15.5-15.3-18.1-27.7c2.5-3.2,4.5-0.4,6.7,0.8c2.6,1.5,5.8,1,6.5-2.3c1.5-6.9,5.9-5.5,9.5-7
								c5.4-2.2,9.9-0.7,14.1,3.7c-0.8,6.1-1.5,12.2-2.3,18.2c2.8,1.5,4.9,2.7,7.9,4.4c-1.9,2.1-3.3,3.6-5.1,5.5
								c4.7,6.1,10.7,11.1,10.9,21.1c0,1.5,3.4,2.6,4.8,4.4c0.9,1.2,1.1,3.3,1.8,5.5c1.8-2.9,3.3-5.5,5.4-9
								c8.8,6.4,17.9,15.2,26.3-1.4c4.5,2.5,9.3,3.6,12.6,7.1c5.7,6.1,11.9,6,16.9,1.8c7.3-6.1,14.6-5.9,22.9-4.5
								c0,6.8,0.2,13.8-0.1,20.8c-0.1,3-0.9,6.2-1.8,9c-3.3,10-6.9,20-10.3,30c-2.7,7.8-6.8,12-14.1,11.7
								C1118.7,597.8,1113.8,598.8,1109.1,595.7z M1219.3,837.2c-6.8-8.6-13.6-17-22.1-23c-6.1-4.3-11.3-10.5-12.2-20.7
								c-0.9-10.8-5.2-19.4-12.6-25.2c-4.8-3.8-6.8-9.2-6.8-16.1c-0.1-3.9-0.3-7.7-0.5-11.6c-0.6-10.7-3.7-19.7-10.4-26.7
								c-2.6-2.8-6.6-6.3-6.7-9.6c-0.4-12.5-7.2-20.8-10.9-31.1c-3.3-9.2-7.1-18.2-11.2-28.6c6.1-1.2,10.8-2.1,15.8-3.2
								c9.4,12.9,16.3,27.7,22.8,42.8c1.4,3.2,3.3,6.6,5.7,8.4c8.8,6.4,12.3,16.1,12.8,28.5c0.5,10.7,3.3,20,11.6,25.3
								c2.6,1.7,5.7,4.3,6.7,7.5c4.5,13.1,11.9,23.7,18,35.3c1.9,3.6,4.1,8.8,3.4,12.3c-1.8,8.9,1.4,16.3,2.8,24.2
								c1.2,7.2,2.6,14.4,3.9,21.6C1226,844,1222.3,841.1,1219.3,837.2z M1331,469.2c-2.9,3.3-4.6,7-1,11.2
								c8.9,10.3,11.2,23.1,9.1,38.9c-11.6,5.7-23.3,9.3-35.3-1c-2.8-2.4-6.3-3.9-9.6-5.3c-5.4-2.3-7.3-8.1-5.8-13.7
								c2.1-7.6,5.5-14.7,8.7-21.8c0.6-1.4,2.6-1.7,4.1-2.6c-9.8-8.4-16.8-20.1-24.6-30.7c-1.3-1.8-2-4.4-2.6-6.8
								c-2.4-10.7-3-12.7-6.7-18c2.5-7.3,6.5-12.4,12.5-15.6c6.1-3.2,11.7-7.5,17.6-11.1c7.4-4.5,14.8-8.1,23.4-4.7
								c2.7,1.1,5.9,0.2,8.6,0.2c2.3,11.8,1,17.4-5.5,18.1c-6.6,0.7-11.5,3.4-15.4,10.1c-1,1.8-3.5,2.2-5.3,3.3
								c6.8,9.4,10.9,22.2,21.9,24.2c0.4,5.5,0.7,10.3,1,14.3c3.8,2.2,3.7-1.5,5-2.8c3.7-3.6,6.5-3.4,9.2,0.4
								c2.3,3.3,4.3,6.9,6.4,10.2C1342.1,473.6,1336.1,466.7,1331,469.2z M1649.3,62.7c-0.1-0.4-0.3-0.9-0.4-1.3
								C1649.1,61.8,1649.2,62.3,1649.3,62.7L1649.3,62.7z"/>
						</g>
					</g>
				</g>
			</g>
			<g>
				<g>
					<g>
						<g>
							<defs>
								<rect id="SVGID_4_" x="7.5" width="1912.5" height="700"/>
							</defs>
							<clipPath id="SVGID_5_">
								<use xlink:href="#SVGID_4_"  style="overflow:visible;"/>
							</clipPath>
							<g class="st4">
								
									<image style="overflow:visible;opacity:0.11;enable-background:new    ;" width="2080" height="688" xlink:href="4A7E9F2A.png"  transform="matrix(1 0 0 1 616.5 -34)">
								</image>
								<g>
									<g>
										<path class="st5" d="M1132.6,387.2"/>
										<path class="st5" d="M1561.6,40.1c0.2,0,0.3,0,0.4,0c0-0.2,0-0.4-0.1-0.6L1561.6,40.1z"/>
										<path class="st6" d="M1334.5,64.3c6.8,2.7,13.3,5.6,20.4,5.9c15.6,0.7,15.6,0.8,20.8-3.1c-6.4-6-17.3-5.7-17.7-21.7
											c14.9-11.1,28.8-25.1,46.6-29.8c2-0.5,3.9-1.4,5.7-2.7c7.1-5.5,15.2-6.9,23.2-8.4c9-1.6,18.1-2.6,27.1-4.4
											c10.5-2,21-4.4,31.4-6.9c2.2-0.5,4.1-2.5,9.1-5.7c-13.4-6.7-23.4-3.7-33.1-0.4c-10.4,3.5-20.9,6.7-31.4,5.7
											c-13.9-1.4-27.2,2.8-40.7,4.9c-10.8,1.7-21.4,7.1-32,11c-1.3,0.5-2.3,2.3-3.4,3.5c-2.3,2.5-4.3,6.1-7,7.2
											c-8.2,3.6-13.8,12.4-21.4,17.1c-2.6,1.6-5.4,3.1-6,7.8c-0.2,1.6-3,2.8-4.7,3.8c-2.1,1.3-4.3,2.2-7.9,4
											C1320.3,60.7,1327.6,61.5,1334.5,64.3z"/>
										<path class="st6" d="M667.3,325.4c5,0.2,10-0.5,14.9-1.8c5.4-1.4,10.6-4.1,15.9-5.9c6-2,10.2-5.9,8.6-12.9
											c-2.2-9.6,3.9-13.5,6-19.6c-1.5-2.8-2.7-4.9-3.7-7.1c-0.4-0.8-0.4-1.9-0.4-3c0.2,0,0.3,0,0.5,0c0-0.3,0-0.5,0-0.8
											c2.7-0.4,5.5-0.7,8.1-1c0.5,3.4,0.8,5.8,1.3,9.1c4.5,0.4,8.9,0.7,12.8,1c2.2,3,3.9,5.3,5.5,7.8c2.2,3.6,1.5,8.1-1.7,9.1
											c-2.9,0.9-6,0.5-8.9,1c-0.8,0.1-1.5,1.3-2.6,2.2c0.9,3.2,1.9,6.5,2.7,9.1c-1.9,6-8.2,3.4-9.5,10.4
											c3.9,1.1,7.6,2.1,12.1,3.4c-5.1,6.1-9.6,11.5-14.9,17.8c7-0.7,13.6,1.1,17.4-2.3c6.8-6,13.6-3.2,20.4-4.2
											c7-1,14.2-0.6,21.2-1.6c3.8-0.5,7.4-2.9,10.7-4.2c0.6-5.5,0.1-9.2,2.8-13.2c4.8-6.9,3.2-10.6-4.2-12.7
											c-2.4-0.7-4.8-1.1-6.6-1.5c-4.7-9-7.7-18.3-15.7-21.7c-1.3-0.5-2.8-2.3-3.2-3.9c-1.8-9-9.2-11.2-13.3-17.2
											c2.9-5.8,5.4-11,8.3-16.8c-6.8-4.3-13.9-0.7-20-5c7-8.2,7-8.2,8.8-17.7c-3.7,2.8-6.7,6.1-10.2,7.5
											c-3.7,1.4-7.9,1-11.9,1.4c-2.7,3.2-5,6.8-7.8,9.3c-3,2.6-6.5,4.2-10,6.4c6.8,6.8,4.9,14.9,3.5,22.8c1.5,1,3.7,1,4.5,2.8
											c0.2,0.5,0.3,1.1,0.4,1.9c-0.2,0-0.4,0-0.5,0.1c0,0.2,0,0.5,0,0.7c-3.9,0-7.8,0.4-11.6-0.1c-8.8-1.1-16,1.5-19.6,12
											c-4.5,0.6-8.4,1.2-12.1,1.7c-0.4,6.1-2.5,11.3,2.4,14.7c1,0.7,1.5,2.8,2.1,4.2c-3,4-5.6,7.6-9,12.1
											C663.5,322.2,665.3,325.3,667.3,325.4z"/>
										<path class="st6" d="M1281.8,90.1c-0.2,3,3.9,7.1,6.6,5.8c4-1.8,9.2-0.5,13.4-9.6c-6.1-0.7-10.4-1.6-14.8-1.6
											C1284.6,84.8,1282,86.2,1281.8,90.1z"/>
										<path class="st6" d="M757.3,210.4c1.1,0,2.2-1.6,3.8-3.1c-1.2-1.7-2.2-3.9-2.8-3.7c-1.3,0.4-2.7,1.8-3.2,3.2
											C754.9,207.5,756.5,210.3,757.3,210.4z"/>
										<path class="st6" d="M1608.7,42c0.4-1,0.8-2,1.4-3.6c-1.1-0.6-2.1-1.4-3.2-1.7c-0.3-0.1-1.3,2.2-1.2,2.4
											C1606.6,40.3,1607.7,41.1,1608.7,42z"/>
										<path class="st6" d="M697.2,239.3c1.7,0.1,3.6,0.9,5.1,0.2c1-0.4,1.5-2.8,3.5-6.9c-4,1.3-5.6,1.3-6.6,2.3
											C698.2,235.8,697.8,237.8,697.2,239.3z"/>
										<path class="st6" d="M700.7,182.1c-0.8-0.5-1.9-1.7-2.2-1.5c-1.1,1-1.9,2.5-2.8,3.8c0.8,0.6,1.6,1.2,2.9,2.1
											C699.3,185,700,183.5,700.7,182.1z"/>
										<path class="st5" d="M1638.2,7c0-0.3,0-0.8-0.1-1.1c0-0.1,0-0.1-0.1-0.2c-0.8-0.2-1.6-0.4-2.4-0.5
											c0.1,0.8,0.1,1.5,0.2,2.3C1636.6,7.4,1637.4,7.2,1638.2,7z"/>
										<path class="st5" d="M914.2,103.9c0.4-0.1,0.9,0,1.3-0.3c0.2-0.1,0.1-0.8,0.2-1.2c-0.4-0.1-0.8-0.3-1.3-0.4
											C914.4,102.7,914.3,103.3,914.2,103.9z"/>
										<path class="st6" d="M1558.1,36.9c0.3,0.7,0.6,1.8,1.1,2c0.7,0.3,1.4,0.4,2.1,0.5c-0.6-1-1.3-2.1-2-3.1
											C1559.1,36.2,1558.5,36.7,1558.1,36.9z"/>
										<path class="st5" d="M1561.6,40.1l0.4-0.5c-0.2,0-0.5-0.1-0.8-0.1C1561.4,39.7,1561.5,39.9,1561.6,40.1z"/>
										<polygon class="st5" points="1651,22 1650.1,21.6 1650.1,22.4 										"/>
										<polygon class="st5" points="625.1,629.9 624.8,631.1 625.5,631.1 										"/>
										<path class="st6" d="M871.2,453.9c0.1-2.5,0.7-5.1,0.3-7.5c-0.2-1.4-2.1-3.3-3.1-3.2c-4.4,0.2-7.8,5.8-6.4,10.7
											c1,3.4,2.7,6.4,4.4,10.3c-2.7,1.9-5.2,3.8-8.2,6c0.5,3.4,1.3,7,1.5,10.6c0.3,4.2,0.1,8.5,0.1,14.6c4.8-1.7,8.5-3,13.2-4.7
											c0.1-10.4,3-19.2-2.1-27.6C869.8,461.3,871,457,871.2,453.9z"/>
										<path class="st6" d="M1018.2,544.8c10.2-1,16.7,8.3,27.2-1c-9.1-1.7-15.4-3-21.7-4
											C1022.8,539.7,1021.8,541.5,1018.2,544.8z"/>
										<path class="st6" d="M1113.8,548.7c-0.2,0.4,0.2,1.3,0.5,1.7c5.7,5.5,10,1,14.3-3.3c0.3-0.3,0.2-1.1,0.9-4.3
											C1123.3,542.5,1117.4,539.9,1113.8,548.7z"/>
										<path class="st6" d="M797.9,486.6c2.5,2,4.8,4.5,7.7,0.8c0.6-0.8,0.2-4.1-0.5-4.8C801.7,479.3,799.7,482,797.9,486.6z"/>
										<path class="st5" d="M987.2,496.6v0.1"/>
										<path class="st5" d="M1040.4,520.1c-0.4,0.1-0.8,0.2-1.2,0.3c0.5,0.3,1,0.6,1.5,0.9
											C1040.6,520.9,1040.5,520.5,1040.4,520.1z"/>
										<path class="st6" d="M965.6,250.3c1.7-1.9,3.3-4.1,4.6-6.4c0.2-0.4-0.8-1.9-1.8-4.1c-2,2.7-3.8,5.1-5.6,7.5
											C963.8,248.4,965.5,250.5,965.6,250.3z"/>
										<path class="st6" d="M986.2,210.8c-1.1-1.3-1.9-2.6-3-3.4c-0.4-0.3-1.4,0.7-2.2,1.2c0.8,1.2,1.5,2.6,2.5,3.5
											C984,212.4,985,211.3,986.2,210.8z"/>
										<path class="st5" d="M929.7,277.5c-1-0.3-1.5-0.5-2.1-0.7c0.1,0.4,0.2,1.1,0.4,1.1C928.4,278,928.8,277.7,929.7,277.5z"/>
										<g>
											<path class="st6" d="M740.8,544.1c-1.5-0.4-3-0.6-4.6-0.6L740.8,544.1z"/>
											<path class="st6" d="M2624.3,79.1c-15.1-1.8-30.4-2-45.6-2.8c-1.8-0.1-3.7,0.4-5.1,0.6c-0.6,1.7-1.1,2.4-1,2.9
												c0.8,3.4,1.6,6.7,2.5,10c-8.8,4-8.8,4-19.4-2.4c1.4-2.4,2.8-4.9,4.7-8c-5.9-2.1-11.4-3.1-16.6,0.3
												c-5.7,3.7-11.7,3.6-17.8,3.2c-16.2-1.1-32.4-2.1-48.6-0.5c-4.9,0.5-9.8-0.9-14.4-1.5c-2-10.9-2.6-12.6-7.4-13.9
												c-6.9-1.9-14-4-21-4c-12.6,0-25.3,1.5-37.9,2.4c-6,0.4-12.4,2.6-17.9-1.7c-4.5-3.5-9.3-4.5-14.3-5.6
												c-2.8-0.6-5.9-2.5-7.8-5.1c-3.5-4.8-7.8-5.8-12.4-6c-7.1-0.4-14.2-0.3-21.3-1c-18.1-1.9-36.3-4.1-54.4-6.2
												c-3.6-0.4-6.8-0.2-10.3,1.7c-3.6,1.9-7.9,1.6-11.8,2.5c-0.8,0.2-1.4,1.5-2.2,2.3c0.3,3.4,0.6,6.9,0.8,9.8
												c-6.4,0-11.9,0-17.3,0c-8.5,0-17.3-1.8-25.6,0.3c-10.4,2.6-19.9,4.2-28.8-5.4c-5,5.7-9.5,10.7-14,15.7
												c-7.9-1.1-15.3-2.4-20.6-8.7c-0.5-7.9-0.9-14.8-1.4-22.7c-8.1-1.7-15.5-4.6-22.9-4.5c-8.2,0.1-16.1-0.5-23.9-3.4
												c-6.7-2.5-10.7-0.6-16.8,6.5c-1,1.2-2.3,2.5-3.5,2.8c-4,0.7-8,1.5-12,1.2c-6-0.3-12.1-2.1-18.1-2.2
												c-6.5-0.1-12.9,0.7-17.7-6.6c-0.4-0.7-1.9-0.3-3-0.3c-13.2,0-26.3,0-39.5,0c-2.5,0-5.2,1.4-7.5,0.5c-2-0.8-4-3.4-5.2-5.8
												c-0.8-1.6-0.4-4.3-0.5-6.4c-2.6-0.4-4.2-0.4-5.6-0.9c-1.2-0.4-2.2-1.4-3.6-2.3c4.4-2,8.3-3.4,11.9-5.6
												c1.6-1,2.9-3.5,3.4-5.7c1-3.7-1.3-6.7-3.4-7.7c-5-2.6-10.3-4.7-15.7-6c-16-3.8-32-3-47.7-0.2c-1.6-2.3-2.7-5.1-4.3-5.8
												c-7.2-3-14.4-6.4-21.9-7.8c-14.8-2.6-29.2-0.4-41.8,11.2c-1.6,1.5-3.5,3.4-5.3,3.3c-9.8-0.4-19,3.5-28.4,5.8
												c-2.4,0.6-5,0.2-7.4-0.5c-9.6-2.6-19.1-2.3-28.7-0.2c-9.9,2.1-19.8,5.2-29.8,6.1c-21.6,2-42.7,7.4-64.7,14
												c3.5,3.1,6.1,5.5,8.8,8c-5.2,4.6-10.7,4.4-16.2,4.5c-12.7,0.2-25.3,0.7-37.9,1.6c-2.7,0.2-5.3,2.3-7.8,3.5
												c2.3,9.8,5.9,15.9,14.2,15.3c1.6-0.1,3.3,2.7,7.5,6.3c-5.1,0-7.4,0.9-8.9-0.1c-11.6-7.6-24.6-7.2-36.9-10.6
												c-2.8-0.8-5.9,0.5-8.9,0.9c-1.1,8.9-8.9,4.2-11.9,8.8c0.8,2.7,1.5,4.9,2.8,9.2c-4.4-2.4-7.4-3.9-10.2-5.4
												c3-15.7,3.1-15.9-6.2-16.5c0.3,2.7,0.6,5.3,0.8,7.1c-5.4,6.1-13.7,0.9-16.7,11.4c2.5,3.5,5.1,7.1,7.6,10.6
												c-4.3,10.2-4.3,10.2-1.5,20c3.6,0.6,7.4,1.2,11.9,1.9c-6.6,5-6.6,5-4.2,15.1c-6.9,12.2-18.3,14.7-28.2,20.5
												c-0.8,0.5-2.7-2.2-5.2-4.3c6.2-5.4,11.5-9.2,16-14.2c2.3-2.6,3.1-7.3,4.5-10.9c-3.4-2.9-5.8-4.9-8.1-6.8
												c0-5.8-1.2-11.5,0.3-15.9c2.6-7.9-1.4-11.8-4.6-16.9c1.3-5.3,7.4-7.9,4.9-16c-3.8-3.2-9.8-2.9-13.8-8.7
												c-2.6-3.8-8.2-4.4-11.4-1.5c-5.3,4.6-12.6,5.9-15.9,13.7c-3.5,8.2-9,11.6-15.7,13.7c-2.6,0.8-4.9,3.3-7.5,5.1
												c4.7,7,4.7,7,2.8,20.2c7.8-0.2,14.5,2.9,19.1,11.3c-4.4,3.7-4.4,3.8-7.4,2.2c-15.1-7.8-31-12.1-46.9-15.5
												s-32.4-1.6-47.6-10.4c-2.2-1.3-4.8,0.6-4.5,5.8c3.6,1.4,7.4,3.3,11.3,4.3c3.8,0.9,6.5,3.4,8.7,7.1
												c0.5,0.8,0.4,2.2,0.7,3.4c-3.7,1.7-7.4,3.4-10.9,5c-2.5-2.8-4.7-5.1-6.5-7c-8.2,2.1-15.6,5-23.1,5.4
												c-7.1,0.5-14,0.1-20.8,3.8c-1.9,1-5.2,0.3-7-1.2c-1.5-1.3-1.8-5-2.8-7.9c-18.6,5.4-36.8,10.6-54.9,16.3
												c-3.6,1.2-7.8,1.8-10.1,7.4c-2.5,5.9-7.7,5.2-12.2,5.4c-5.4,0.3-9.9-1.5-12.7-7.9c2.6-6.1,10.3,0.3,12.1-8
												c-7.8-9.1-16.7-7.1-25.7-6.1c0,2,0.1,3.2,0,4.3c-0.5,3.1-0.7,6.4-1.7,9.2c-2,5.6,3.5,5.2,3.9,9c0.4,3.7-2.5,8.4-5.3,7.5
												c-5.8-1.8-11.6-5.4-17.7-2.7c-7.6,3.5-15.1,7.4-22.6,11.2c-0.7,0.4-1.1,1.8-1.8,3c0.9,2.1,1.9,4.3,3.3,7.6
												c-3,0.7-5.9,2.4-8.5,1.9c-7-1.4-13.8-3.8-20.8-5.4c-2.9-0.6-6.3-1.1-7,5.8c1.8,1.4,3.8,2.9,5.9,4.5
												c1.7,1.3,5.4-0.2,4.5,5c-7.6,2.8-13.6-3.9-20.3-5.2c-7.8-1.6-11.2-6.9-10.4-15.2c0.8-7.6-4.7-8.3-6.9-13.2
												c2.2-0.2,3.7-0.7,5.1-0.4c11,1.9,22,4.3,33,6c13.8,2.1,27.1,0.5,37.7-11.9c-0.6-8.1-4.4-11.1-9-12.7
												c-7.8-2.8-15.8-4.8-23.3-8.4c-14.4-7-29.1-10.7-44.4-11.8c-3.4-0.2-7.1-1.1-10-3.1c-5.2-3.5-10.2-5.2-15.9-2.3
												c-1.7,0.9-4,0.2-6-0.2c-4.5-0.8-3.2-4.8-2.7-8.7c-7.3-5.1-16-3.1-23.3-6.6c-7.2-3.5-12.6-1.5-17.8,4.5
												c-6.8-6.8-14-7.1-21.7-4.9c-4.4,1.3-8.9,3-13.4,3c-6.2,0-11.5,1-17.2,4.9c-5.9,4.1-13.3,4.9-20.3,3.1
												c-5.7-1.5-11-1-15.7,4.1c-1.5,1.6-3.6,2.4-5.6,2.9c-4.8,1.2-10.4,0.4-12.1,8.8c-0.1,0.7-2.9,1.3-4,0.6
												c-6.4-3.6-12.5-2-18.3,1.9c-1.4,0.9-2.2,3.2-3.5,5.3c3.2,1.8,5.4,2.9,8.8,4.8c-5.5,5.2-10.2,10-15.2,14.1
												c-6.7,5.5-13.9,10.2-17.1,20.5c-0.6,2-2.8,4.2-4.5,4.7c-4.5,1.4-7.6,5.6-11.4,8.1c-6.8,4.3-11.9,15.1-21.5,10.9
												c-0.6-0.3-1.8,1-2.6,1.8c-4.2,3.7-8.8,5.8-13.6,7.9c-8,3.5-15.5,8.9-23.8,13.9c1,11.3,1,22.1,3.2,32
												c1.6,7.3,4.8,14.4,11.7,18c9.4,5,17.9,3.8,26.2-2.2c6.6-4.8,13.1-9.3,21.4-10.2c6.4,11.7,12.9,23.6,19.4,35.4
												c-3.2,8.2-11.1,5.4-15.5,10.9c-0.1,2.5-0.3,5-0.4,7.8c-2.7-2.9-5.2-5.6-7.7-8.4c-0.2-0.3,0-1.2,0-2.6
												c1.1-1.2,2.6-2.8,4.3-4.7c-1.2-2.6-2.7-5-3.5-7.9c-0.8-3.1,2.8-7.5-1.9-10c-5.5,2.2-11.3,4.3-16.9,6.9
												c-4.3,1.9-6.6,6.3-6.2,12c0.3,3.7,1.5,7.4,2.3,11.1c1.4,6.4,2.8,12.9,4.1,18.9c-1.7,1.3-2.6,2.7-3.3,2.5
												c-9.3-2.2-18,2.6-27,4.3c-5.1,1-10.2,4.5-13.4,11.3c-4.9,10.4-12.5,16.5-21.7,19.6c-2.9,1-5.8,2.2-9.6,3.6
												c1,13.5-9.6,10.2-14.2,16c-7.1,8.7-14-0.4-21.1,0.3c0.3,4.7,0.5,8.3,0.8,12.4c-3.5,0.4-7,2.2-9.4,0.9
												c-7.8-4.3-14.8-0.8-23.2,2c2.1,3.6,3.4,6.7,5.3,9c0.9,1.1,2.9,0.9,4.4,1.1c10.8,1.7,18.1,10.4,24.4,20.6
												c1.5,2.4,2.8,5.7,2.9,8.6c0.2,9.5,0.6,19.3-4.5,28.1c-1.9,0.4-3.9,1.2-5.8,1.1c-16.7-0.8-33.5-0.3-50-3.1
												c-9.6-1.6-16.5,1.7-22.9,7.1c1.5,10.8,4.1,20.3,3.6,29.5s-4.3,18.2-6.9,27.9c1.9,3.2,4.7,6.3,5.9,10.2
												c1.2,3.8,0.7,8.5,1,13.2c5.2,0,9.7,0.6,14.1-0.2c5.2-0.8,8.8,0.8,11.5,6.7c1.5,3.3,3.5,6.2,5.1,9
												c-0.4,1.8-0.9,3.5-1.4,5.1l11.2,1.4c-1.7-1.7-2.9-4.2-3.4-7.9c2.7-6.1,7.5-6.7,11.8-7.7c3.4-0.9,7.1-0.4,10.6-0.5
												c6.1-0.2,12.3-0.4,16.2-7.9c8.3-3,12.1-12.6,17.8-19.3c-0.9-4-1.7-7.6-2.6-11.5c6.6-10,12-20.7,23.4-22.9
												c4.2-0.8,8.1-5,12.5-7.9c0-5.2,0-10.2,0-15.4c4.1-5.4,9.1-7.1,15-4.9c2.4,0.9,5.1,0.7,7.4,1.9c6.8,3.6,12.4,2.2,18.4-3.4
												c4.8-4.5,10.5-7.3,16-10.5c1.7-1,4-1.2,5.9-0.7c3.4,1.1,6.6,3,10.3,4.8c5.9,19.5,19.4,29,33.3,36
												c9.1,4.6,15.9,12.9,24.5,18c1.9,1.1,3.1,5,4.1,7.8c2,5.6-0.3,12.9-5.1,13.5c-7.3,1-14.5,6.7-22.3,1.9
												c-2.1-1.3-3.3,0-9.9,4.8c8.5,7.8,18.1,11,28.2,16.1c1-5.8,1.8-10.5,2.5-15c3.9-2.3,7.8-3.8,10.9-6.8
												c3.1-2.9,5.3-7.3,8.6-12c-1.6-3.1-3.4-6.7-5.2-10.3c0.9-4.5,3-6.7,6.6-5.4c3.7,1.4,7.2,3.4,11.6,5.5
												c-0.3-2.8,0.1-5.3-0.7-6c-2.7-2.8-6-4.6-8.7-7.4c-4.9-4.9-13.6-2.5-15.6-13.1c-0.2-0.9-2.6-1.5-4-1.5
												c-8.5,0.2-15-4.2-18.2-14.1c-3-9.5-11.2-10.5-16.4-18c0.3-3.9,0.5-8.2,0.9-13.3c2.7-1.1,5.5-2.3,8.4-3.5
												c2.1,3.3,3.6,6.7,5.8,8.9c2.3,2.3,6.1,2.6,7.9,5.3c5,7.7,12,11.5,18.1,17c4.3,3.9,8.9,6.1,13.8,7.5
												c7.6,2.2,14.2,6.5,18.9,13.4c2.6,7.4-2.7,14.7,1.8,21.2c3.3,4.7,5.4,10.8,10,14.1c0.5,0.4,0,3-0.1,4.6v-0.1
												c7.3,5.7,9.9,15.4,12.8,24.9c3.8,1.5,7.6,3,12.2,4.8c3-10.2,9.3-15.8,16.9-20.5c-4.7-11.3-15.5-15.3-18.1-27.7
												c2.5-3.2,4.5-0.4,6.7,0.8c2.6,1.5,5.8,1,6.5-2.3c1.5-6.9,5.9-5.5,9.5-7c4.1-1.7,7.8-1.2,11.1,1.1l19.9-23.7
												c0.4-1.7,0.4-4,1.3-5.3c4.7-6.6,8.4-13.9,10.8-22.3c9.8-5.8,12.2-22,23.1-26.7c1.9,0.8,3.8,1.6,5.7,2.5
												c0.5-3.8,2-8.1,5.9-11.9c10.3-10.3,13.7-9.3,17.9-16.9s8.9-23.9,12.6-32.8c2.8-6.9,9.1-14.1,11.9-17.1
												c8.9,2.5,18.4,2.9,25.3,2.9c11.1,0,10.2,16.8,9.4,24.1c-0.8,7.2-7.6,6.7-10.2,17c-2.1,8.6-7,17.1-10.6,25.2
												c1.2-0.3,2.3-0.6,3.5-1l-0.1,0.1l0,0c0,0.5,0,1.1-0.1,1.6c0.6-0.1,1.2-0.3,1.7-0.5l-0.1,0.1l0,0
												c-0.2,4.8-0.1,9.7-1.6,13.9c0.8,0.2,1.6,0.5,2.1,0.6c2.5,0.9,14.4,3.7,19.5,8.4c5.1,4.7,13.5,8.4,17,7.4
												c3.4-0.9,10.2-0.9,19.5,5.6c9.3,6.6,26.3,5.6,35.6,8.4c2.9,0.9,7,5.2,9,7c-2-9.2-1.2-13-4.7-18
												c2.2-6.5,5.6-12.4,10.5-15.6c-0.2,0.1-3.9,0.1-6.3-3.3c-6-8.4,0.8-13.1,6.8-17.8c6-4.7,16.1-4.7,11.1-17.7
												s-18.7-7.5-29.7-31c-11.1-23.6,16.1-25.9,21.2-33.4s19.5-7.5,26.3-8.4s17,2.8,19.5,7.5s17.8,6.5,22.1,4.7
												c4.3-1.8,20.3-6.5,28-5.5c7.7,0.9,9.4,10.2,20.4,11.2c11,0.9,9.4-1.9,11.9-10.3c2.6-8.4-19.5-7.5-12.7-13.1
												s-4.3-13.1-7.7-23.3c-3.4-10.3,7.7-6.5,22.1-8.4s50.1-12.1,61.9-16.8c11.9-4.7,23.7,20.5,23.7,20.5l21.2-5.6l3.4,10.3
												h10.2l17-10.3l15.3,12.5l30.6,30.5c0,0,8.4,8.4,14.4,4.7c5.9-3.7,19.5,3.7,19.5,3.7c9.4-8.4,25.5,6.6,29.7,11.2
												c4.3,4.7,14.4,5.6,21.2,9.3c6.8,3.8,13.6,6.5,17,5.6s10.2-8.4,20.4-17.8c10.2-9.3,22.1-10.2,31.4-10.2s9.3,3.7,11.9,8.4
												c2.6,4.7,5.9,10.2,5.9,10.2s14.4-0.9,28.8,0s6.8-0.9,0.8-13.1c-5.9-12.1-9.4-17.7,4.3-21.5c13.6-3.7,25.4,0,33.1,12.2
												c7.6,12.1,17,16.8,28,14.9c11.1-1.8,29.7-5.6,40.7,4.7c11,10.2,25.4,13,42.4,12.1s11.9-13.1,27.1-15.9
												c15.3-2.8,25.4,7.5,38.1,8.4c12.6,0.9,7.8-19.6,9.4-26.1c1.7-6.5,0.8-11.2-7.6-18.7c-8.5-7.5,14.4-15,38.2-12.2
												c23.7,2.8,67.9,57,67.9,57c16.1-4.7,49.2,26.1,49.2,26.1l17,0.9l7.4-7.5c19.3-8.4,19.8,34.5,19.8,40.1s-6,6.6-12,5.6
												c-6.1-0.9-5.8,0.9-7.5,5.6s5.9,9.3,8.5,12.1c2.5,2.8,6.8,14,6.8,14v0.9c11.1-12.9,23.4-24.1,31.8-40.4
												c1.9-3.7,4.5-7.1,7.4-9.6c4.6-3.9,6.7-9.6,7.8-15.9c0.9-5,1.4-10.1,1.4-15.2c0.2-9.1,3.4-15.8,9.4-20.7
												c2.4,2.4,5,4.5,6.2,7.7c0.8,1.5,1.3,3.3,1.2,5.5c-0.7,19.1-1.6,38.2-2.4,57.3c-0.1,2.4,0.3,4.8,0.7,7.6
												c3.2-2.8,5.5-4.8,7.8-6.7c2.3-2.1,5.3,4.9,7.5-0.5c-3-5.4-5.9-10.7-8.9-16.4c0-0.1,0.1-0.1,0.1-0.2
												c-0.2-0.4-0.4-0.8-0.6-1.1c2.6-6.2,4.9-11.7,7-16.4c4.4-0.9,7.7-1.6,11.3-2.3c-3.2-10.8-6.1-20.3-8.9-30
												c-0.9-2.9-1.8-6-1.8-9.1c0-9.5,0-13-1.6-17.6c-0.9-2.3-2.3-5-4.2-8.9c-0.7,3.1-1,8.2-2.1,8.5c-6.4,2-6.6,8.5-8,14.5
												c-0.2,0.7-1.4,1-2.9,2c-0.1-0.5-0.2-1-0.2-1.5c-0.1,0.1-0.2,0.1-0.3,0.2c-0.6-3.6-1.1-6.9-1.7-11
												c-5-3.8-10.1-8.9-16-11.8c-7.4-3.6-13,4.7-19.4,8.1c-0.2-0.5-0.4-0.9-0.5-1.3l0,0c-1.1-2.7-2-5.1-2.9-7.4
												c-2.3,0.6-4.6,1.2-6.7,1.8c-0.1-0.5-0.3-1-0.4-1.4c-0.1,0-0.1,0-0.2,0c-0.5-1.7-0.9-3.2-1.3-4.5
												c-3.6-2.9-8.7,1.5-12.1-4.3c0.1-0.1,0.1-0.1,0.2-0.2c-0.3-0.3-0.6-0.7-0.8-1.2c2.2-1.8,3.8-3.3,5.5-4.5
												c9.7-6.9,19.9-12.7,28.3-22.4c1.4-1.7,3.5-2.7,5.3-3.9c5.8-3.9,11.3-8.1,16.7-13.1c11.1-10.2,23.3-17.4,38.1-15.3
												c11.4,1.6,23,1.4,34.6,0.6c5.8-0.4,12.1,2.4,17.4-3.8c1.4-1.6,4.9-0.9,7.4-0.5c4.4,0.7,8.8,1.9,13.2,2.8
												c0.1,0.4,0.1,0.9,0.2,1.3c0.1,0,0.1,0,0.2,0.1c0.3,2.1,0.6,4.2,1.1,6.9c6-1,12.1-1.3,17.7-3.3c6-2.1,12.9,3.1,18.4-4
												c-1.3-1.6-2.5-3.1-4.1-5c0.1-0.1,0.3-0.3,0.4-0.4c-0.2-0.3-0.5-0.6-0.8-0.9c2.3-2.5,4.4-5.2,6.8-7.2
												c4.3-3.5,9.5-5.4,13-9.8c8.7-10.9,19.8-8.6,30.1-9.9c3.3-0.5,7.5,1.2,8.6,7.8c0.2,0.9,0.4,2,0.5,3.1
												c0,0.2,0.1,0.4,0.1,0.7c1.3,3.8,5.3,4.2,9.5,1.8c7.8-4.5,15.4-9.1,23.9-14.1c2.7-8,2.7-8,10.6-7.1
												c-0.1,0.4-0.3,0.8-0.4,1.2c0.2,0,0.4,0.1,0.6,0.1c-1.8,5.5-3.1,10.9-5.3,15.6c-1.1,2.5-3.7,4.9-5.9,5.4
												c-12.5,2.9-22.4,12.7-32,21.3c-10.2,9.2-20.7,15.6-31.5,18.9c-2.5,4.1-3.9,7.9-6.2,9.8c-10.9,8.8-11.9,21.2-8.8,35.5
												c1.8,8.4,3.5,16.9,5.3,25.3c1,4.7,2,9.5,3.1,14.2c0.4,2,2.4,3.4,3.7,5.1c8.4-5.5,15.9-10.4,19.2-22
												c0.8-2.7,4.5-4.8,7.2-5.9c3.8-1.5,5.9-3.5,6.5-8.9c0.7-5.7,4.8-8.1,8.9-9.2c3-0.8,6.1-0.1,9.1-0.9
												c2.3-0.7,4.1-2.1,3.7-6.6c-1.4-12.9-0.9-13.5,9.2-14.7c1.4-0.2,2.6-1.1,3.9-1.6c-0.8-3-1.4-5.2-1.8-7
												c-1.2-5.2-1-7,0-13.1c-1.3-0.4-2.6-0.9-3.9-1.2c-1.8-0.4-3.6-0.7-6.4-1.2c0.2-0.4,0.4-0.8,0.5-1.2
												c-0.3-0.1-0.5-0.1-0.8-0.1c4.3-11.1,14.3-14,16.2-25.9c5.8,0,11.4,1.8,15.7-0.5c5.2-2.8,9-1.4,14-0.4
												c4.3,0.9,9.2-4.7,14.1-5.8c9-2,18.1-2.6,25,6.4c15.6-10,30.3-19.7,46.6-24.9c15.1-4.9,29.8-13.5,46.1-7.3
												c2.6,1,5.5-1.1,6.1-6.5c-4.2-6.4-8.8-13.3-13.2-19.9c6.2-2.8,12.8-5.8,19.4-8.8c0-16.8,0-33.5,0-50.3
												c-3-2.3-5.9-5.8-9.1-6.6C2651.3,83.8,2637.9,80.7,2624.3,79.1z M965.3,439.6c-0.4,0.4-1.5-0.4-2.3-0.7
												c0.6-1.4,1.1-3,2-4.1c0.3-0.4,1.6,0.4,2.8,0.8C966.9,437.1,966.3,438.6,965.3,439.6z M970.9,429.5
												c-0.5,0.1-1.2-1.3-1.8-2.1c1.3-1.3,2.7-2.6,4.1-3.9c0.3,1.1,0.6,2.2,1.2,4C973.2,428.3,972.1,429.3,970.9,429.5z
												 M1027.8,244.4c-1.1,5.9-5.2,9.1-8.7,6.4c-4.1-3.2-7.8-7.2-11.7-10.9c2.5-5.2,7.2-5.5,11.3-7.8c3,2,6,4,8.8,5.9
												C1027.7,240.7,1028.2,242.7,1027.8,244.4z M1049.6,217.5c-10.9-1.1-22.1-1.6-32,7.5c-2.2,2-6.5,0.3-9.8,0.3
												c-1.8,3.5-3.3,6.6-5.2,10.2c1.5,1.5,3,2.9,4.5,4.4c-1.1,1.2-2.2,2.6-3.5,3.4c-8.2,5.1-12.3,12.8-10.7,24.7
												c0.3,2.5,0,5.1,0,8.4c-3.7,1.6-8.2,2.1-11,5.1c-5.5,5.8-10,7.8-15.9,1.1c-1.5-1.7-4.8-1.8-7.1-1.3
												c-5,1.1-9.8,3.2-14.7,4.7c-5.9,1.9-11.8,3.6-17.7,5.5c-5.6,1.8-9.9-0.6-12.7-7.1c-3.9,0.9-7.9,0.5-10.7,2.7
												c-8.7,6.7-15.9,0.6-25-2.2c4.2-5.4,7.3-2.5,10.5-1.9c2.9,0.5,6,0.1,9.8,0.1c1.9-3.7,4.1-7.8,6.2-11.9
												c6.8,3.5,12.9,7.2,18.7-2.4c1.8-2.9,6.1-3.6,9.4-4.7c4.7-1.6,9.5-2.8,15-4.4c-0.3-4.2-0.6-7.1-0.6-10.1
												c-0.1-13.3,2.7-18.6,12.5-22.4c7.6-3,7.7-2.7,11.8-12.7c-1.8-7.4-7.2-8.1-11.8-10.6c-6.8-3.7-7.1-5.6-4.8-14.7
												c1.5-5.9,4.1-9.6,8.1-13.1c6.8-5.9,14.3-9.6,22-12.8c6.4-2.6,12.1-6,13.1-16.1c0.2-2.1,1.8-5,3.4-5.9
												c11.3-6.1,22.9-9,36.3-2.2c-12.1,16.1-26.8,23.5-42.1,31c-0.2,3.4-1.3,7.6-0.3,10.7c2.5,7.6,2.3,14.9,0,22.4
												c9.7,10.1,20.4,11.7,31.7,9.3c7.5-1.6,14.9-3.9,22.4-5.2c6-1.1,12.1-1.7,18.2-1.3c3,0.2,6,3.1,9.6,5.1
												C1067.7,217.9,1059,218.4,1049.6,217.5z M1649.3,62.7c-0.1-0.4-0.3-0.9-0.4-1.3C1649.1,61.8,1649.2,62.3,1649.3,62.7
												L1649.3,62.7z"/>
										</g>
									</g>
								</g>
							</g>
						</g>
					</g>
				</g>
			</g>
		</g>
		
			<linearGradient id="SVGID_6_" gradientUnits="userSpaceOnUse" x1="960" y1="-439.8897" x2="960" y2="-539.8897" gradientTransform="matrix(1 0 0 1 0 539.8897)">
			<stop  offset="0" style="stop-color:#E1E7EF;stop-opacity:0"/>
			<stop  offset="1" style="stop-color:#E1E7EF;stop-opacity:0.3"/>
		</linearGradient>
		<rect class="st7" width="1920" height="100"/>
	</g>
	<g id="레이어_1_사본">
		<g id="Layer_1_00000022547791836000957880000008268964782661665942_" class="st0">
			<g id="Q4qLPL_00000095315570511170904940000010804034766525873798_" class="st1">
				
					<image style="overflow:visible;enable-background:new    ;" width="1920" height="702" id="Q4qLPL_00000134972815840989327820000007320349582684262073_" xlink:href="4A7E9F2A.jpeg"  transform="matrix(0.4986 0 0 0.4986 480.8675 7.449271e-06)">
				</image>
			</g>
		</g>
		<g id="Layer_5_00000000215904711455682040000011436121178616985021_" class="st0">
			<rect x="479.5" y="1" class="st2" width="959" height="350"/>
		</g>
		<path class="st5" d="M1154.8,401.2"/>
		<circle class="st8" cx="1110.9" cy="257.4" r="6"/>
		<circle class="st8" cx="958.4" cy="220.8" r="6"/>
		<circle class="st8" cx="897.1" cy="268.5" r="6"/>
		<circle class="st9" cx="821.8" cy="312.4" r="6"/>
		<g>
			<path class="st10" d="M683,146.9v5.7h-23.8v-30.7h23.2v5.7h-16.2v6.7h14.3v5.5h-14.3v7.1H683L683,146.9z"/>
			<path class="st10" d="M710.9,128.9v23.6h-6.5v-2.8c-1.8,2.1-4.4,3.2-7.3,3.2c-5.9,0-10.1-3.3-10.1-10.6V129h6.8v12.3
				c0,3.9,1.8,5.7,4.8,5.7c3.2,0,5.4-2,5.4-6.4V129L710.9,128.9L710.9,128.9z"/>
			<path class="st10" d="M730.8,128.6v6.3c-0.6,0-1-0.1-1.5-0.1c-3.8,0-6.3,2.1-6.3,6.6v11.1h-6.8V129h6.5v3.1
				C724.3,129.8,727.2,128.6,730.8,128.6z"/>
			<path class="st10" d="M732.2,140.8c0-7.1,5.5-12.1,13-12.1s12.9,5.1,12.9,12.1s-5.4,12.1-12.9,12.1
				C737.7,152.9,732.2,147.9,732.2,140.8z M751.2,140.8c0-4.1-2.6-6.5-6-6.5s-6.1,2.5-6.1,6.5s2.6,6.5,6.1,6.5
				C748.6,147.3,751.2,144.8,751.2,140.8z"/>
			<path class="st10" d="M787.3,140.8c0,7.4-5.1,12.1-11.8,12.1c-2.9,0-5.3-0.9-7.1-2.9v11h-6.8v-32.1h6.5v2.7
				c1.7-2.1,4.3-3.1,7.4-3.1C782.2,128.6,787.3,133.3,787.3,140.8z M780.4,140.8c0-4.1-2.6-6.5-6-6.5s-6,2.5-6,6.5s2.6,6.5,6,6.5
				S780.4,144.8,780.4,140.8z"/>
			<path class="st10" d="M813.8,142.7h-17.9c0.7,2.9,3.2,4.7,6.8,4.7c2.5,0,4.3-0.8,5.9-2.3l3.6,3.9c-2.2,2.5-5.5,3.8-9.7,3.8
				c-8.2,0-13.5-5.1-13.5-12.1c0-7.1,5.4-12.1,12.6-12.1c6.9,0,12.3,4.6,12.3,12.2C813.9,141.4,813.8,142.1,813.8,142.7z
				 M795.8,138.7h11.6c-0.5-3-2.7-4.9-5.8-4.9S796.3,135.7,795.8,138.7z"/>
		</g>
		<circle class="st8" cx="767.9" cy="324.3" r="6"/>
		<g class="st0">
			<path class="st1" d="M823.3,342.5c-0.6,0.5-1.4,0.7-2.2,0.7c-2,0-3.1-1.1-3.1-3.1v-6.4h-1.9v-1.2h1.9v-2.3h1.4v2.3h3.2v1.2h-3.2
				v6.3c0,1.2,0.6,1.9,1.8,1.9c0.6,0,1.2-0.2,1.6-0.5L823.3,342.5z"/>
			<path class="st1" d="M833.9,336.6v6.5h-1.4v-1.6c-0.6,1.1-1.9,1.7-3.6,1.7c-2.4,0-3.8-1.2-3.8-3.1c0-1.6,1-3,4.1-3h3.3v-0.6
				c0-1.8-1-2.8-3-2.8c-1.4,0-2.6,0.5-3.5,1.2l-0.6-1.1c1.1-0.9,2.6-1.4,4.3-1.4C832.3,332.5,833.9,333.9,833.9,336.6z M832.5,340
				v-1.7h-3.3c-2,0-2.7,0.8-2.7,1.9c0,1.2,1,2,2.7,2C830.7,342.1,831.9,341.3,832.5,340z"/>
			<path class="st1" d="M837.4,329.3c0-0.5,0.5-1,1-1s1,0.4,1,1s-0.4,1-1,1C837.9,330.3,837.4,329.8,837.4,329.3z M837.7,332.6h1.4
				v10.5h-1.4V332.6z"/>
			<path class="st1" d="M852.8,337v6.1h-1.4v-6c0-2.2-1.2-3.4-3.2-3.4c-2.3,0-3.7,1.4-3.7,3.8v5.5h-1.4v-14.8h1.4v6.2
				c0.8-1.2,2.2-1.9,3.9-1.9C851,332.5,852.8,334,852.8,337z"/>
			<path class="st1" d="M864.6,336.6v6.5h-1.4v-1.6c-0.6,1.1-1.9,1.7-3.6,1.7c-2.4,0-3.8-1.2-3.8-3.1c0-1.6,1-3,4.1-3h3.3v-0.6
				c0-1.8-1-2.8-3-2.8c-1.4,0-2.6,0.5-3.5,1.2l-0.6-1.1c1.1-0.9,2.6-1.4,4.3-1.4C863,332.5,864.6,333.9,864.6,336.6z M863.2,340
				v-1.7h-3.3c-2,0-2.7,0.8-2.7,1.9c0,1.2,1,2,2.7,2C861.4,342.1,862.6,341.3,863.2,340z"/>
			<path class="st1" d="M878.1,337v6.1h-1.4v-6c0-2.2-1.2-3.4-3.2-3.4c-2.3,0-3.7,1.4-3.7,3.8v5.5h-1.4v-10.5h1.4v1.9
				c0.8-1.3,2.2-2,4-2C876.4,332.5,878.1,334,878.1,337z"/>
			<path class="st1" d="M899.2,329.1v14H898l-9-11.4v11.4h-1.5v-14h1.2l9,11.4v-11.4H899.2z"/>
			<path class="st1" d="M912.7,338.3h-8.8c0.2,2.2,1.8,3.7,4.1,3.7c1.3,0,2.4-0.5,3.2-1.4l0.8,0.9c-0.9,1.1-2.4,1.7-4.1,1.7
				c-3.3,0-5.5-2.2-5.5-5.4s2.2-5.3,5.1-5.3s5.1,2.2,5.1,5.3C912.7,338,912.7,338.1,912.7,338.3z M903.8,337.2h7.5
				c-0.2-2.1-1.7-3.5-3.7-3.5C905.5,333.7,904,335.2,903.8,337.2z"/>
			<path class="st1" d="M921.1,342.5c-0.6,0.5-1.4,0.7-2.2,0.7c-2,0-3.1-1.1-3.1-3.1v-6.4h-1.9v-1.2h1.9v-2.3h1.4v2.3h3.2v1.2h-3.2
				v6.3c0,1.2,0.6,1.9,1.8,1.9c0.6,0,1.2-0.2,1.6-0.5L921.1,342.5z"/>
			<path class="st1" d="M933.4,337v6.1H932v-6c0-2.2-1.2-3.4-3.2-3.4c-2.3,0-3.7,1.4-3.7,3.8v5.5h-1.4v-14.8h1.4v6.2
				c0.8-1.2,2.2-1.9,3.9-1.9C931.6,332.5,933.4,334,933.4,337z"/>
			<path class="st1" d="M946.4,338.3h-8.8c0.2,2.2,1.8,3.7,4.1,3.7c1.3,0,2.4-0.5,3.2-1.4l0.8,0.9c-0.9,1.1-2.4,1.7-4.1,1.7
				c-3.3,0-5.5-2.2-5.5-5.4s2.2-5.3,5.1-5.3s5.1,2.2,5.1,5.3C946.5,338,946.4,338.1,946.4,338.3z M937.6,337.2h7.5
				c-0.2-2.1-1.7-3.5-3.7-3.5C939.3,333.7,937.8,335.2,937.6,337.2z"/>
			<path class="st1" d="M954.7,332.5v1.4c-0.1,0-0.2,0-0.3,0c-2.2,0-3.5,1.4-3.5,3.9v5.4h-1.4v-10.5h1.4v2.1
				C951.4,333.2,952.7,332.5,954.7,332.5z"/>
			<path class="st1" d="M957.2,328.3h1.4v14.8h-1.4V328.3z"/>
			<path class="st1" d="M970.5,336.6v6.5h-1.4v-1.6c-0.6,1.1-1.9,1.7-3.6,1.7c-2.4,0-3.8-1.2-3.8-3.1c0-1.6,1-3,4.1-3h3.3v-0.6
				c0-1.8-1-2.8-3-2.8c-1.4,0-2.6,0.5-3.5,1.2l-0.6-1.1c1.1-0.9,2.6-1.4,4.3-1.4C969,332.5,970.5,333.9,970.5,336.6z M969.1,340
				v-1.7h-3.3c-2,0-2.7,0.8-2.7,1.9c0,1.2,1,2,2.7,2C967.4,342.1,968.5,341.3,969.1,340z"/>
			<path class="st1" d="M984.1,337v6.1h-1.4v-6c0-2.2-1.2-3.4-3.2-3.4c-2.3,0-3.7,1.4-3.7,3.8v5.5h-1.4v-10.5h1.4v1.9
				c0.8-1.3,2.2-2,4-2C982.3,332.5,984.1,334,984.1,337z"/>
			<path class="st1" d="M997.6,328.3v14.8h-1.4V341c-0.9,1.4-2.3,2.2-4.1,2.2c-3,0-5.2-2.2-5.2-5.4s2.2-5.3,5.2-5.3
				c1.7,0,3.1,0.7,4,2.1v-6.3L997.6,328.3L997.6,328.3z M996.2,337.9c0-2.5-1.7-4.1-3.9-4.1s-3.9,1.6-3.9,4.1s1.7,4.1,3.9,4.1
				S996.2,340.3,996.2,337.9z"/>
			<path class="st1" d="M1000.1,341.9l0.6-1.1c0.8,0.7,2.3,1.2,3.7,1.2c2,0,2.8-0.7,2.8-1.7c0-2.7-6.8-0.6-6.8-4.7
				c0-1.7,1.5-3,4.2-3c1.4,0,2.8,0.4,3.7,1l-0.6,1.1c-0.9-0.6-2-0.9-3.1-0.9c-1.9,0-2.7,0.7-2.7,1.7c0,2.8,6.8,0.7,6.8,4.7
				c0,1.8-1.6,3-4.3,3C1002.6,343.2,1000.9,342.6,1000.1,341.9z"/>
		</g>
		<g>
			<path d="M745.6,300.9v-8h1.5v8c0,3.3,1.6,4.8,4.3,4.8s4.3-1.5,4.3-4.8v-8h1.4v8c0,4-2.2,6.1-5.7,6.1S745.6,304.9,745.6,300.9z"/>
			<path d="M765.9,300.3l-2.9,2.9v3.7h-1.5v-14h1.5v8.5l8.2-8.5h1.7l-6.1,6.3l6.5,7.7h-1.8L765.9,300.3z"/>
		</g>
		<g>
			<path d="M891.2,288.9h5.7c4.5,0,7.5,2.9,7.5,7s-3,7-7.5,7h-5.7V288.9z M896.8,301.6c3.7,0,6.1-2.4,6.1-5.7c0-3.4-2.4-5.7-6.1-5.7
				h-4.1v11.4L896.8,301.6L896.8,301.6z"/>
			<path d="M916.6,298h-8.8c0.2,2.2,1.8,3.7,4.1,3.7c1.3,0,2.4-0.5,3.2-1.4l0.8,0.9c-0.9,1.1-2.4,1.7-4.1,1.7
				c-3.3,0-5.5-2.2-5.5-5.4s2.2-5.3,5.1-5.3s5.1,2.2,5.1,5.3C916.6,297.7,916.6,297.9,916.6,298z M907.8,297h7.5
				c-0.2-2.1-1.7-3.5-3.7-3.5C909.5,293.5,908,294.9,907.8,297z"/>
			<path d="M929.2,296.8v6.1h-1.4v-6c0-2.2-1.2-3.4-3.2-3.4c-2.3,0-3.7,1.4-3.7,3.8v5.5h-1.4v-10.5h1.4v1.9c0.8-1.3,2.2-2,4-2
				C927.4,292.3,929.2,293.8,929.2,296.8z"/>
			<path d="M950.4,296.8v6.1H949v-6c0-2.2-1.1-3.4-3-3.4c-2.2,0-3.5,1.4-3.5,3.8v5.5H941v-6c0-2.2-1.1-3.4-3-3.4
				c-2.1,0-3.5,1.4-3.5,3.8v5.5H933v-10.5h1.4v1.9c0.7-1.3,2.1-2,3.9-2c1.7,0,3.1,0.7,3.7,2.2c0.8-1.4,2.3-2.2,4.2-2.2
				C948.7,292.3,950.4,293.8,950.4,296.8z"/>
			<path d="M962.2,296.4v6.5h-1.4v-1.6c-0.6,1.1-1.9,1.7-3.6,1.7c-2.4,0-3.8-1.2-3.8-3.1c0-1.6,1-3,4.1-3h3.3v-0.6
				c0-1.8-1-2.8-3-2.8c-1.4,0-2.6,0.5-3.5,1.2l-0.6-1.1c1.1-0.9,2.6-1.4,4.3-1.4C960.7,292.3,962.2,293.6,962.2,296.4z M960.8,299.7
				V298h-3.3c-2,0-2.7,0.8-2.7,1.9c0,1.2,1,2,2.7,2C959,301.9,960.2,301.1,960.8,299.7z"/>
			<path d="M971.4,292.3v1.4c-0.1,0-0.2,0-0.3,0c-2.2,0-3.5,1.4-3.5,3.9v5.4h-1.4v-10.5h1.4v2.1C968.1,293,969.4,292.3,971.4,292.3z
				"/>
			<path d="M977.8,297.6l-2.5,2.3v3h-1.4V288h1.4v10.1l6.3-5.7h1.8l-4.5,4.3l4.9,6.2h-1.7L977.8,297.6z"/>
		</g>
		<g>
			<path d="M951.7,252.6l0.6-1.1c1,1,2.8,1.7,4.6,1.7c2.6,0,3.8-1.1,3.8-2.5c0-3.8-8.6-1.5-8.6-6.7c0-2.1,1.6-3.8,5.2-3.8
				c1.6,0,3.2,0.5,4.3,1.2l-0.5,1.2c-1.2-0.8-2.6-1.2-3.8-1.2c-2.6,0-3.7,1.1-3.7,2.5c0,3.8,8.6,1.5,8.6,6.6c0,2.1-1.6,3.8-5.2,3.8
				C954.8,254.4,952.7,253.6,951.7,252.6z"/>
			<path d="M980.3,243.8l-4,10.5H975l-3.3-8.6l-3.3,8.6H967l-4-10.5h1.4l3.3,8.9l3.4-8.9h1.2l3.4,8.9l3.3-8.9H980.3z"/>
			<path d="M991.3,249.4h-8.8c0.2,2.2,1.8,3.7,4.1,3.7c1.3,0,2.4-0.5,3.2-1.4l0.8,0.9c-0.9,1.1-2.4,1.7-4.1,1.7
				c-3.3,0-5.5-2.2-5.5-5.4s2.2-5.3,5.1-5.3s5.1,2.2,5.1,5.3C991.3,249.1,991.3,249.3,991.3,249.4z M982.5,248.4h7.5
				c-0.2-2.1-1.7-3.5-3.7-3.5C984.2,244.9,982.7,246.3,982.5,248.4z"/>
			<path d="M1003.8,239.4v14.8h-1.4v-2.1c-0.9,1.4-2.3,2.2-4.1,2.2c-3,0-5.2-2.2-5.2-5.4s2.2-5.3,5.2-5.3c1.7,0,3.1,0.7,4,2.1v-6.3
				H1003.8L1003.8,239.4z M1002.4,249c0-2.5-1.7-4.1-3.9-4.1s-3.9,1.6-3.9,4.1s1.7,4.1,3.9,4.1S1002.4,251.5,1002.4,249z"/>
			<path d="M1016.9,249.4h-8.8c0.2,2.2,1.8,3.7,4.1,3.7c1.3,0,2.4-0.5,3.2-1.4l0.8,0.9c-0.9,1.1-2.4,1.7-4.1,1.7
				c-3.3,0-5.5-2.2-5.5-5.4s2.2-5.3,5.1-5.3s5.1,2.2,5.1,5.3C1016.9,249.1,1016.9,249.3,1016.9,249.4z M1008.1,248.4h7.5
				c-0.2-2.1-1.7-3.5-3.7-3.5C1009.8,244.9,1008.3,246.3,1008.1,248.4z"/>
			<path d="M1029.5,248.2v6.1h-1.4v-6c0-2.2-1.2-3.4-3.2-3.4c-2.3,0-3.7,1.4-3.7,3.8v5.5h-1.4v-10.5h1.4v1.9c0.8-1.3,2.2-2,4-2
				C1027.8,243.7,1029.5,245.1,1029.5,248.2z"/>
		</g>
		<g>
			<path d="M1114.5,289.5l-3.2-4.5c-0.4,0-0.7,0.1-1.1,0.1h-3.8v4.4h-1.5v-14h5.2c3.6,0,5.7,1.8,5.7,4.8c0,2.2-1.2,3.7-3.2,4.4
				l3.4,4.8L1114.5,289.5L1114.5,289.5z M1114.4,280.4c0-2.2-1.5-3.5-4.3-3.5h-3.7v7h3.7C1112.9,283.9,1114.4,282.5,1114.4,280.4z"
				/>
			<path d="M1128.6,279v10.5h-1.4v-1.9c-0.7,1.3-2.1,2-3.8,2c-2.7,0-4.4-1.5-4.4-4.5V279h1.4v6c0,2.2,1.2,3.4,3.2,3.4
				c2.2,0,3.6-1.4,3.6-3.8V279H1128.6L1128.6,279z"/>
			<path d="M1131.1,288.4l0.6-1.1c0.8,0.7,2.3,1.2,3.7,1.2c2,0,2.8-0.7,2.8-1.7c0-2.7-6.8-0.6-6.8-4.7c0-1.7,1.5-3,4.2-3
				c1.4,0,2.8,0.4,3.7,1l-0.6,1.1c-0.9-0.6-2-0.9-3.1-0.9c-1.9,0-2.7,0.7-2.7,1.7c0,2.8,6.8,0.7,6.8,4.7c0,1.8-1.6,3-4.3,3
				C1133.7,289.6,1132,289.1,1131.1,288.4z"/>
			<path d="M1140.9,288.4l0.6-1.1c0.8,0.7,2.3,1.2,3.7,1.2c2,0,2.8-0.7,2.8-1.7c0-2.7-6.8-0.6-6.8-4.7c0-1.7,1.5-3,4.2-3
				c1.4,0,2.8,0.4,3.7,1l-0.6,1.1c-0.9-0.6-2-0.9-3.1-0.9c-1.9,0-2.7,0.7-2.7,1.7c0,2.8,6.8,0.7,6.8,4.7c0,1.8-1.6,3-4.3,3
				C1143.4,289.6,1141.8,289.1,1140.9,288.4z"/>
			<path d="M1151.8,275.7c0-0.5,0.5-1,1-1s1,0.4,1,1s-0.4,1-1,1C1152.3,276.7,1151.8,276.3,1151.8,275.7z M1152.1,279h1.4v10.5h-1.4
				V279z"/>
			<path d="M1165.4,283v6.5h-1.4v-1.6c-0.6,1.1-1.9,1.7-3.6,1.7c-2.4,0-3.8-1.2-3.8-3.1c0-1.6,1-3,4.1-3h3.3V283c0-1.8-1-2.8-3-2.8
				c-1.4,0-2.6,0.5-3.5,1.2l-0.6-1.1c1.1-0.9,2.6-1.4,4.3-1.4C1163.9,279,1165.4,280.3,1165.4,283z M1164,286.4v-1.7h-3.3
				c-2,0-2.7,0.8-2.7,1.9c0,1.2,1,2,2.7,2C1162.3,288.5,1163.5,287.8,1164,286.4z"/>
		</g>
	</g>
	<circle class="st9" cx="1532.4" cy="77.5" r="6"/>
	<circle class="st8" cx="1532.4" cy="107.4" r="6"/>
	<path d="M1559.5,109.8c0,2.1-1.6,3.4-4.7,3.4h-5.8v-12.6h5.4c2.8,0,4.4,1.2,4.4,3.2c0,1.4-0.8,2.4-1.9,2.9
		C1558.5,107.1,1559.5,108.1,1559.5,109.8z M1550.3,101.7v4.6h4c2,0,3.2-0.8,3.2-2.3s-1.2-2.3-3.2-2.3
		C1554.3,101.7,1550.3,101.7,1550.3,101.7z M1558.1,109.7c0-1.6-1.2-2.4-3.4-2.4h-4.4v4.7h4.4
		C1556.9,112.1,1558.1,111.4,1558.1,109.7z"/>
	<path d="M1567,103.7v1.2c-0.1,0-0.2,0-0.3,0c-2,0-3.2,1.3-3.2,3.5v4.8h-1.3v-9.5h1.2v1.9C1564.1,104.3,1565.3,103.7,1567,103.7z"/>
	<path d="M1576.4,107.3v5.9h-1.2v-1.5c-0.6,1-1.7,1.6-3.3,1.6c-2.1,0-3.5-1.1-3.5-2.8c0-1.5,0.9-2.7,3.7-2.7h3v-0.6
		c0-1.6-0.9-2.5-2.7-2.5c-1.2,0-2.4,0.4-3.2,1.1l-0.6-1c1-0.8,2.4-1.3,3.9-1.3C1575.1,103.7,1576.4,104.9,1576.4,107.3z
		 M1575.2,110.4v-1.5h-3c-1.8,0-2.4,0.7-2.4,1.7c0,1.1,0.9,1.8,2.4,1.8C1573.6,112.3,1574.7,111.6,1575.2,110.4z"/>
	<path d="M1588.6,107.7v5.5h-1.3v-5.4c0-2-1-3-2.8-3c-2,0-3.3,1.3-3.3,3.4v5h-1.3v-9.5h1.2v1.7c0.7-1.2,2-1.8,3.6-1.8
		C1587,103.7,1588.6,105,1588.6,107.7z"/>
	<path d="M1591.2,108.5c0-2.8,2.1-4.8,4.9-4.8c1.6,0,3,0.6,3.7,1.9l-1,0.6c-0.6-1-1.7-1.4-2.8-1.4c-2.1,0-3.6,1.5-3.6,3.7
		s1.5,3.7,3.6,3.7c1.1,0,2.1-0.4,2.8-1.4l1,0.6c-0.8,1.2-2.1,1.9-3.7,1.9C1593.2,113.3,1591.2,111.3,1591.2,108.5z"/>
	<path d="M1610.8,107.7v5.5h-1.3v-5.4c0-2-1-3-2.8-3c-2,0-3.3,1.3-3.3,3.4v5h-1.3V99.8h1.3v5.5c0.7-1.1,1.9-1.7,3.5-1.7
		C1609.3,103.7,1610.8,105,1610.8,107.7z"/>
	<path d="M1618.2,106.9c0-3.7,2.8-6.4,6.6-6.4c3.8,0,6.6,2.7,6.6,6.4c0,3.7-2.8,6.4-6.6,6.4S1618.2,110.6,1618.2,106.9z
		 M1630.1,106.9c0-3-2.3-5.2-5.3-5.2s-5.3,2.2-5.3,5.2s2.3,5.2,5.3,5.2C1627.8,112.1,1630.1,109.9,1630.1,106.9z"/>
	<path d="M1635.6,102.6v1.1h2.9v1.1h-2.9v8.4h-1.3v-8.4h-1.7v-1.1h1.7v-1.2c0-1.7,1-2.8,2.9-2.8c0.7,0,1.4,0.2,1.9,0.6l-0.4,1
		c-0.4-0.3-0.9-0.5-1.4-0.5C1636.2,100.8,1635.6,101.4,1635.6,102.6z"/>
	<path d="M1643.3,99.7c0.7,0,1.4,0.2,1.9,0.6l-0.4,1c-0.4-0.3-0.9-0.5-1.4-0.5c-1.1,0-1.7,0.6-1.7,1.8v1.1h2.9v1.1h-2.9v8.4h-1.3
		v-8.4h-1.7v-1.1h1.7v-1.2C1640.4,100.9,1641.5,99.7,1643.3,99.7z M1649.4,100.7c0,0.5-0.4,0.9-0.9,0.9s-0.9-0.4-0.9-0.9
		s0.4-0.9,0.9-0.9C1648.9,99.8,1649.4,100.2,1649.4,100.7z M1647.8,103.7h1.3v9.5h-1.3V103.7z"/>
	<path d="M1651.7,108.5c0-2.8,2.1-4.8,4.9-4.8c1.6,0,3,0.6,3.7,1.9l-1,0.6c-0.6-1-1.7-1.4-2.8-1.4c-2.1,0-3.6,1.5-3.6,3.7
		s1.5,3.7,3.6,3.7c1.1,0,2.1-0.4,2.8-1.4l1,0.6c-0.8,1.2-2.1,1.9-3.7,1.9C1653.7,113.3,1651.7,111.3,1651.7,108.5z"/>
	<path d="M1670.8,108.9h-7.9c0.1,2,1.7,3.3,3.7,3.3c1.2,0,2.2-0.4,2.9-1.2l0.7,0.8c-0.8,1-2.2,1.5-3.7,1.5c-3,0-5-2-5-4.8
		s2-4.8,4.6-4.8c2.7,0,4.6,2,4.6,4.8C1670.8,108.6,1670.8,108.7,1670.8,108.9z M1662.9,107.9h6.7c-0.2-1.9-1.5-3.2-3.4-3.2
		C1664.4,104.8,1663.1,106.1,1662.9,107.9z"/>
	<path d="M1672.1,112.1l0.6-1c0.8,0.6,2,1.1,3.4,1.1c1.8,0,2.5-0.6,2.5-1.5c0-2.5-6.1-0.5-6.1-4.3c0-1.5,1.3-2.7,3.7-2.7
		c1.2,0,2.6,0.3,3.3,0.9l-0.6,1c-0.8-0.6-1.8-0.8-2.8-0.8c-1.7,0-2.5,0.7-2.5,1.6c0,2.6,6.1,0.6,6.1,4.3c0,1.6-1.4,2.7-3.9,2.7
		C1674.4,113.3,1672.9,112.8,1672.1,112.1z"/>
	<g>
		<path d="M1547.7,81.7l0.5-1c0.9,0.9,2.5,1.5,4.2,1.5c2.4,0,3.4-1,3.4-2.2c0-3.5-7.8-1.3-7.8-6c0-1.9,1.4-3.5,4.6-3.5
			c1.4,0,2.9,0.4,3.9,1.1l-0.5,1.1c-1.1-0.7-2.3-1-3.5-1c-2.3,0-3.3,1-3.3,2.3c0,3.5,7.8,1.4,7.8,6c0,1.9-1.5,3.4-4.7,3.4
			C1550.5,83.3,1548.6,82.7,1547.7,81.7z"/>
		<path d="M1566.8,77.3v5.9h-1.2v-1.5c-0.6,1-1.7,1.6-3.3,1.6c-2.1,0-3.5-1.1-3.5-2.8c0-1.5,0.9-2.7,3.7-2.7h3v-0.6
			c0-1.6-0.9-2.5-2.7-2.5c-1.2,0-2.4,0.4-3.2,1.1l-0.6-1c1-0.8,2.4-1.3,3.9-1.3C1565.4,73.7,1566.8,74.9,1566.8,77.3z M1565.6,80.4
			v-1.5h-3c-1.8,0-2.4,0.7-2.4,1.7c0,1.1,0.9,1.8,2.4,1.8C1564,82.3,1565.1,81.6,1565.6,80.4z"/>
		<path d="M1570.3,69.8h1.3v13.4h-1.3V69.8z"/>
		<path d="M1583.4,78.9h-7.9c0.1,2,1.7,3.3,3.7,3.3c1.2,0,2.2-0.4,2.9-1.2l0.7,0.8c-0.8,1-2.2,1.5-3.7,1.5c-3,0-5-2-5-4.8
			s2-4.8,4.6-4.8c2.7,0,4.6,2,4.6,4.8C1583.4,78.6,1583.4,78.7,1583.4,78.9z M1575.5,77.9h6.7c-0.2-1.9-1.5-3.2-3.4-3.2
			C1577,74.8,1575.6,76.1,1575.5,77.9z"/>
		<path d="M1584.7,82.1l0.6-1c0.8,0.6,2,1.1,3.4,1.1c1.8,0,2.5-0.6,2.5-1.5c0-2.5-6.1-0.5-6.1-4.3c0-1.5,1.3-2.7,3.7-2.7
			c1.2,0,2.6,0.3,3.3,0.9l-0.6,1c-0.8-0.6-1.8-0.8-2.8-0.8c-1.7,0-2.5,0.7-2.5,1.6c0,2.6,6.1,0.6,6.1,4.3c0,1.6-1.4,2.7-3.9,2.7
			C1587,83.3,1585.5,82.8,1584.7,82.1z"/>
		<path d="M1598.6,81.7l0.5-1c0.9,0.9,2.5,1.5,4.2,1.5c2.4,0,3.4-1,3.4-2.2c0-3.5-7.8-1.3-7.8-6c0-1.9,1.4-3.5,4.6-3.5
			c1.4,0,2.9,0.4,3.9,1.1l-0.5,1.1c-1.1-0.7-2.3-1-3.5-1c-2.3,0-3.3,1-3.3,2.3c0,3.5,7.8,1.4,7.8,6c0,1.9-1.5,3.4-4.7,3.4
			C1601.4,83.3,1599.5,82.7,1598.6,81.7z"/>
		<path d="M1619.1,73.7v9.5h-1.2v-1.7c-0.7,1.2-1.9,1.8-3.4,1.8c-2.4,0-4-1.4-4-4.1v-5.5h1.3v5.4c0,2,1,3,2.8,3c2,0,3.2-1.3,3.2-3.4
			v-5C1617.8,73.7,1619.1,73.7,1619.1,73.7z"/>
		<path d="M1632.3,78.5c0,2.9-2,4.8-4.7,4.8c-1.6,0-2.9-0.7-3.7-2v1.9h-1.2V69.8h1.3v5.7c0.8-1.2,2.1-1.9,3.6-1.9
			C1630.3,73.7,1632.3,75.6,1632.3,78.5z M1631,78.5c0-2.2-1.5-3.7-3.5-3.7s-3.5,1.5-3.5,3.7s1.5,3.7,3.5,3.7S1631,80.7,1631,78.5z"
			/>
		<path d="M1633.6,82.1l0.6-1c0.8,0.6,2,1.1,3.4,1.1c1.8,0,2.5-0.6,2.5-1.5c0-2.5-6.1-0.5-6.1-4.3c0-1.5,1.3-2.7,3.7-2.7
			c1.2,0,2.6,0.3,3.3,0.9l-0.6,1c-0.8-0.6-1.8-0.8-2.8-0.8c-1.7,0-2.5,0.7-2.5,1.6c0,2.6,6.1,0.6,6.1,4.3c0,1.6-1.4,2.7-3.9,2.7
			C1635.9,83.3,1634.4,82.8,1633.6,82.1z"/>
		<path d="M1643.4,70.7c0-0.5,0.4-0.9,0.9-0.9s0.9,0.4,0.9,0.9s-0.4,0.9-0.9,0.9C1643.9,71.7,1643.4,71.3,1643.4,70.7z M1643.7,73.7
			h1.3v9.5h-1.3V73.7z"/>
		<path d="M1657.2,69.8v13.4h-1.2v-1.9c-0.8,1.3-2.1,2-3.7,2c-2.7,0-4.7-2-4.7-4.8s2-4.8,4.7-4.8c1.5,0,2.8,0.6,3.6,1.9v-5.7
			L1657.2,69.8L1657.2,69.8z M1656,78.5c0-2.2-1.5-3.7-3.5-3.7s-3.5,1.5-3.5,3.7s1.5,3.7,3.5,3.7C1654.4,82.2,1656,80.7,1656,78.5z"
			/>
		<path d="M1660.5,70.7c0-0.5,0.4-0.9,0.9-0.9s0.9,0.4,0.9,0.9s-0.4,0.9-0.9,0.9C1660.9,71.7,1660.5,71.3,1660.5,70.7z M1660.8,73.7
			h1.3v9.5h-1.3V73.7z"/>
		<path d="M1672.8,77.3v5.9h-1.2v-1.5c-0.6,1-1.7,1.6-3.3,1.6c-2.1,0-3.5-1.1-3.5-2.8c0-1.5,0.9-2.7,3.7-2.7h3v-0.6
			c0-1.6-0.9-2.5-2.7-2.5c-1.2,0-2.4,0.4-3.2,1.1l-0.6-1c1-0.8,2.4-1.3,3.9-1.3C1671.4,73.7,1672.8,74.9,1672.8,77.3z M1671.5,80.4
			v-1.5h-3c-1.8,0-2.4,0.7-2.4,1.7c0,1.1,0.9,1.8,2.4,1.8C1669.9,82.3,1671,81.6,1671.5,80.4z"/>
		<path d="M1681,73.7v1.2c-0.1,0-0.2,0-0.3,0c-2,0-3.2,1.3-3.2,3.5v4.8h-1.3v-9.5h1.2v1.9C1678.1,74.3,1679.3,73.7,1681,73.7z"/>
		<path d="M1691.7,73.7l-4.7,10.6c-0.8,1.9-1.8,2.4-3.2,2.4c-0.9,0-1.7-0.3-2.3-0.9l0.6-1c0.5,0.5,1,0.7,1.7,0.7
			c0.8,0,1.4-0.4,2-1.6l0.4-0.9l-4.2-9.5h1.3l3.6,8l3.6-8h1.2V73.7z"/>
	</g>
</g>
<g id="Isolation_Mode">
	<g>
		<path d="M818.9,330.5H814v-1.3h11.3v1.3h-4.9v12.7h-1.5V330.5z"/>
		<path d="M833.6,333.6c0.7,0.7,1.1,1.7,1.1,3.1v6.5h-1.4v-1.6c-0.3,0.5-0.8,1-1.4,1.3c-0.6,0.3-1.4,0.5-2.2,0.5
			c-1.2,0-2.1-0.3-2.8-0.8c-0.7-0.6-1-1.3-1-2.2c0-0.9,0.3-1.6,1-2.2c0.6-0.5,1.7-0.8,3.1-0.8h3.3v-0.6c0-0.9-0.3-1.6-0.8-2.1
			c-0.5-0.5-1.2-0.7-2.2-0.7c-0.7,0-1.3,0.1-1.9,0.3c-0.6,0.2-1.1,0.5-1.6,0.9l-0.6-1.1c0.5-0.5,1.2-0.8,1.9-1.1
			c0.7-0.2,1.5-0.4,2.4-0.4C831.8,332.6,832.9,332.9,833.6,333.6z M832,341.6c0.6-0.4,1-0.9,1.3-1.6v-1.7H830
			c-1.8,0-2.7,0.6-2.7,1.9c0,0.6,0.2,1.1,0.7,1.5s1.1,0.5,2,0.5C830.8,342.2,831.4,342,832,341.6z"/>
		<path d="M838.6,330.1c-0.2-0.2-0.3-0.4-0.3-0.7c0-0.3,0.1-0.5,0.3-0.7s0.4-0.3,0.7-0.3c0.3,0,0.5,0.1,0.7,0.3
			c0.2,0.2,0.3,0.4,0.3,0.7c0,0.3-0.1,0.5-0.3,0.7c-0.2,0.2-0.4,0.3-0.7,0.3C839,330.4,838.8,330.3,838.6,330.1z M838.6,332.7h1.4
			v10.5h-1.4V332.7z"/>
		<path d="M852.5,333.8c0.8,0.8,1.2,1.9,1.2,3.4v6.1h-1.4v-6c0-1.1-0.3-1.9-0.8-2.5s-1.3-0.9-2.3-0.9c-1.1,0-2,0.3-2.7,1
			c-0.7,0.7-1,1.6-1,2.8v5.5H844v-14.8h1.4v6.2c0.4-0.6,0.9-1.1,1.6-1.4c0.7-0.3,1.5-0.5,2.3-0.5C850.6,332.6,851.7,333,852.5,333.8
			z"/>
		<path d="M864.3,333.6c0.7,0.7,1.1,1.7,1.1,3.1v6.5h-1.4v-1.6c-0.3,0.5-0.8,1-1.4,1.3c-0.6,0.3-1.4,0.5-2.2,0.5
			c-1.2,0-2.1-0.3-2.8-0.8c-0.7-0.6-1-1.3-1-2.2c0-0.9,0.3-1.6,1-2.2c0.6-0.5,1.7-0.8,3.1-0.8h3.3v-0.6c0-0.9-0.3-1.6-0.8-2.1
			c-0.5-0.5-1.2-0.7-2.2-0.7c-0.7,0-1.3,0.1-1.9,0.3c-0.6,0.2-1.1,0.5-1.6,0.9l-0.6-1.1c0.5-0.5,1.2-0.8,1.9-1.1
			c0.7-0.2,1.5-0.4,2.4-0.4C862.6,332.6,863.6,332.9,864.3,333.6z M862.7,341.6c0.6-0.4,1-0.9,1.3-1.6v-1.7h-3.3
			c-1.8,0-2.7,0.6-2.7,1.9c0,0.6,0.2,1.1,0.7,1.5s1.1,0.5,2,0.5C861.5,342.2,862.2,342,862.7,341.6z"/>
		<path d="M877.8,333.8c0.8,0.8,1.2,1.9,1.2,3.4v6.1h-1.4v-6c0-1.1-0.3-1.9-0.8-2.5s-1.3-0.9-2.3-0.9c-1.1,0-2,0.3-2.7,1
			c-0.7,0.7-1,1.6-1,2.8v5.5h-1.4v-10.5h1.4v1.9c0.4-0.6,0.9-1.1,1.6-1.5c0.7-0.4,1.5-0.5,2.4-0.5C876,332.6,877,333,877.8,333.8z"
			/>
		<path d="M900.1,329.2v14h-1.2l-9-11.4v11.4h-1.5v-14h1.2l9,11.4v-11.4H900.1z"/>
		<path d="M913.5,338.4h-8.8c0.1,1.1,0.5,2,1.3,2.7c0.8,0.7,1.7,1,2.9,1c0.7,0,1.3-0.1,1.8-0.3c0.5-0.2,1-0.6,1.4-1l0.8,0.9
			c-0.5,0.6-1,1-1.8,1.3s-1.5,0.4-2.3,0.4c-1.1,0-2-0.2-2.9-0.7c-0.8-0.5-1.5-1.1-2-1.9s-0.7-1.7-0.7-2.8s0.2-1.9,0.7-2.8
			c0.4-0.8,1.1-1.4,1.8-1.9c0.8-0.5,1.7-0.7,2.6-0.7c1,0,1.8,0.2,2.6,0.7s1.4,1.1,1.8,1.9c0.4,0.8,0.7,1.7,0.7,2.8L913.5,338.4z
			 M905.9,334.8c-0.7,0.6-1.1,1.5-1.2,2.5h7.5c-0.1-1-0.5-1.9-1.2-2.5c-0.7-0.6-1.5-1-2.6-1C907.4,333.8,906.6,334.1,905.9,334.8z"
			/>
		<path d="M922,342.6c-0.3,0.2-0.6,0.4-1,0.5c-0.4,0.1-0.8,0.2-1.2,0.2c-1,0-1.7-0.3-2.3-0.8s-0.8-1.3-0.8-2.3v-6.4h-1.9v-1.2h1.9
			v-2.3h1.4v2.3h3.2v1.2h-3.2v6.3c0,0.6,0.2,1.1,0.5,1.4c0.3,0.3,0.8,0.5,1.3,0.5c0.3,0,0.6,0,0.8-0.1c0.3-0.1,0.5-0.2,0.7-0.4
			L922,342.6z"/>
		<path d="M933,333.8c0.8,0.8,1.2,1.9,1.2,3.4v6.1h-1.4v-6c0-1.1-0.3-1.9-0.8-2.5s-1.3-0.9-2.3-0.9c-1.1,0-2,0.3-2.7,1
			c-0.7,0.7-1,1.6-1,2.8v5.5h-1.4v-14.8h1.4v6.2c0.4-0.6,0.9-1.1,1.6-1.4c0.7-0.3,1.5-0.5,2.3-0.5C931.2,332.6,932.3,333,933,333.8z
			"/>
		<path d="M947.3,338.4h-8.8c0.1,1.1,0.5,2,1.3,2.7c0.8,0.7,1.7,1,2.9,1c0.7,0,1.3-0.1,1.8-0.3c0.5-0.2,1-0.6,1.4-1l0.8,0.9
			c-0.5,0.6-1,1-1.8,1.3s-1.5,0.4-2.3,0.4c-1.1,0-2-0.2-2.9-0.7c-0.8-0.5-1.5-1.1-2-1.9s-0.7-1.7-0.7-2.8s0.2-1.9,0.7-2.8
			c0.4-0.8,1.1-1.4,1.8-1.9c0.8-0.5,1.7-0.7,2.6-0.7c1,0,1.8,0.2,2.6,0.7s1.4,1.1,1.8,1.9c0.4,0.8,0.7,1.7,0.7,2.8L947.3,338.4z
			 M939.6,334.8c-0.7,0.6-1.1,1.5-1.2,2.5h7.5c-0.1-1-0.5-1.9-1.2-2.5c-0.7-0.6-1.5-1-2.6-1C941.2,333.8,940.3,334.1,939.6,334.8z"
			/>
		<path d="M953,333.1c0.7-0.4,1.5-0.5,2.5-0.5v1.4l-0.3,0c-1.1,0-2,0.3-2.6,1c-0.6,0.7-0.9,1.6-0.9,2.9v5.4h-1.4v-10.5h1.4v2.1
			C951.9,334,952.4,333.5,953,333.1z"/>
		<path d="M958.1,328.4h1.4v14.8h-1.4V328.4z"/>
		<path d="M970.3,333.6c0.7,0.7,1.1,1.7,1.1,3.1v6.5H970v-1.6c-0.3,0.5-0.8,1-1.4,1.3c-0.6,0.3-1.4,0.5-2.2,0.5
			c-1.2,0-2.1-0.3-2.8-0.8c-0.7-0.6-1-1.3-1-2.2c0-0.9,0.3-1.6,1-2.2s1.7-0.8,3.1-0.8h3.3v-0.6c0-0.9-0.3-1.6-0.8-2.1
			c-0.5-0.5-1.2-0.7-2.2-0.7c-0.7,0-1.3,0.1-1.9,0.3c-0.6,0.2-1.1,0.5-1.6,0.9l-0.6-1.1c0.5-0.5,1.2-0.8,1.9-1.1
			c0.7-0.2,1.5-0.4,2.4-0.4C968.5,332.6,969.5,332.9,970.3,333.6z M968.7,341.6c0.6-0.4,1-0.9,1.3-1.6v-1.7h-3.3
			c-1.8,0-2.7,0.6-2.7,1.9c0,0.6,0.2,1.1,0.7,1.5s1.1,0.5,2,0.5C967.4,342.2,968.1,342,968.7,341.6z"/>
		<path d="M983.7,333.8c0.8,0.8,1.2,1.9,1.2,3.4v6.1h-1.4v-6c0-1.1-0.3-1.9-0.8-2.5s-1.3-0.9-2.3-0.9c-1.1,0-2,0.3-2.7,1
			c-0.7,0.7-1,1.6-1,2.8v5.5h-1.4v-10.5h1.4v1.9c0.4-0.6,0.9-1.1,1.6-1.5c0.7-0.4,1.5-0.5,2.4-0.5C981.9,332.6,983,333,983.7,333.8z
			"/>
		<path d="M998.4,328.4v14.8h-1.4v-2.1c-0.4,0.7-1,1.2-1.7,1.6c-0.7,0.4-1.5,0.6-2.4,0.6c-1,0-1.9-0.2-2.7-0.7
			c-0.8-0.5-1.4-1.1-1.9-1.9c-0.5-0.8-0.7-1.7-0.7-2.8s0.2-2,0.7-2.8s1.1-1.4,1.9-1.9c0.8-0.4,1.7-0.7,2.7-0.7
			c0.9,0,1.6,0.2,2.3,0.5c0.7,0.4,1.3,0.9,1.7,1.6v-6.3H998.4z M995.1,341.5c0.6-0.3,1.1-0.8,1.4-1.5c0.3-0.6,0.5-1.3,0.5-2.1
			s-0.2-1.5-0.5-2.1c-0.3-0.6-0.8-1.1-1.4-1.4c-0.6-0.3-1.3-0.5-2-0.5c-0.7,0-1.4,0.2-2,0.5c-0.6,0.3-1.1,0.8-1.4,1.4
			c-0.3,0.6-0.5,1.3-0.5,2.1s0.2,1.5,0.5,2.1c0.3,0.6,0.8,1.1,1.4,1.5s1.3,0.5,2,0.5C993.8,342,994.5,341.9,995.1,341.5z"/>
		<path d="M1002.7,342.9c-0.8-0.2-1.4-0.6-1.8-0.9l0.6-1.1c0.4,0.3,1,0.6,1.7,0.9c0.7,0.2,1.4,0.3,2.1,0.3c1,0,1.7-0.2,2.1-0.5
			c0.5-0.3,0.7-0.7,0.7-1.3c0-0.4-0.1-0.7-0.4-0.9c-0.3-0.2-0.6-0.4-1-0.5s-0.9-0.2-1.5-0.3c-0.9-0.2-1.5-0.3-2.1-0.5
			c-0.5-0.2-1-0.5-1.3-0.9c-0.4-0.4-0.6-1-0.6-1.7c0-0.9,0.4-1.6,1.1-2.2c0.7-0.6,1.8-0.8,3.1-0.8c0.7,0,1.4,0.1,2,0.3
			c0.7,0.2,1.2,0.4,1.7,0.7l-0.6,1.1c-0.9-0.6-1.9-0.9-3.1-0.9c-0.9,0-1.6,0.2-2.1,0.5c-0.5,0.3-0.7,0.7-0.7,1.3
			c0,0.4,0.1,0.7,0.4,1c0.3,0.2,0.6,0.4,1,0.5c0.4,0.1,0.9,0.2,1.6,0.4c0.8,0.2,1.5,0.3,2,0.5c0.5,0.2,0.9,0.4,1.3,0.8
			c0.4,0.4,0.5,0.9,0.5,1.6c0,0.9-0.4,1.7-1.2,2.2s-1.8,0.8-3.2,0.8C1004.3,343.3,1003.5,343.2,1002.7,342.9z"/>
	</g>
</g>
</svg>
