<?xml version="1.0" encoding="utf-8"?>
<!-- Generator: Adobe Illustrator 26.1.0, SVG Export Plug-In . SVG Version: 6.00 Build 0)  -->
<svg version="1.1" id="레이어_1" xmlns="http://www.w3.org/2000/svg" xmlns:xlink="http://www.w3.org/1999/xlink" x="0px"
	 y="0px" viewBox="0 0 1920 700" style="enable-background:new 0 0 1920 700;" xml:space="preserve">
<style type="text/css">
	.st0{clip-path:url(#SVGID_00000070797995428767382440000018077031022696982966_);}
	.st1{fill:#FFFFFF;}
	
		.st2{clip-path:url(#SVGID_00000084516061440289978390000012922790036944009872_);fill:url(#SVGID_00000022520188963552571630000015126077873115890598_);}
	.st3{clip-path:url(#SVGID_00000158725990080624890660000013792725628560491139_);}
	.st4{fill:#CAD2DB;}
	.st5{clip-path:url(#SVGID_00000163074352258382455350000006093274941129605299_);fill:none;}
	.st6{clip-path:url(#SVGID_00000151544865601264057830000004306846314326564759_);fill:none;}
	.st7{clip-path:url(#SVGID_00000018928967971436253340000014896196894761515191_);fill:none;}
	.st8{clip-path:url(#SVGID_00000117649543748574116540000015262160530139188644_);fill:none;}
	.st9{clip-path:url(#SVGID_00000137847439389253162290000001659341166601065351_);fill:none;}
	.st10{clip-path:url(#SVGID_00000030445799031156516600000011848492551080763533_);fill:none;}
	.st11{clip-path:url(#SVGID_00000105402370491575735800000011939444896182720913_);fill:none;}
	.st12{clip-path:url(#SVGID_00000099624942256569004110000014734091188743987878_);fill:none;}
	.st13{clip-path:url(#SVGID_00000145736711109612334700000009062396262343568003_);fill:none;}
	.st14{clip-path:url(#SVGID_00000086672174562153883720000014220007723875376531_);fill:none;}
	
		.st15{clip-path:url(#SVGID_00000176025122285917352830000013670604781207306135_);fill:url(#SVGID_00000081622922849594392160000007290493305647051162_);}
	.st16{clip-path:url(#SVGID_00000040558161396868590230000003907859139351597442_);fill:#CAD2DB;}
	
		.st17{clip-path:url(#SVGID_00000137840389289415674780000011526138968570663053_);fill:url(#SVGID_00000095304737077487565220000008597755166878955158_);}
	.st18{clip-path:url(#SVGID_00000122708663607726162260000001430098859103844996_);fill:#E0E6EE;}
	.st19{clip-path:url(#SVGID_00000032606347082119224090000005562797475371405446_);}
	.st20{fill:#028F37;}
	.st21{fill:#AAAAAA;}
	.st22{fill:none;stroke:#028F37;stroke-miterlimit:10;}
	.st23{fill:#5D6FCC;}
	.st24{fill:none;stroke:#5D6FCC;stroke-miterlimit:10;}
	.st25{clip-path:url(#SVGID_00000012468727226875069370000013712551315700661922_);fill:#5D6FCC;}
</style>
<g>
	<g>
		<g>
			<g>
				<g>
					<g>
						<g>
							<g>
								<defs>
									<rect id="SVGID_1_" y="0" width="1920" height="700"/>
								</defs>
								<clipPath id="SVGID_00000163765108407213742240000014774592562364438662_">
									<use xlink:href="#SVGID_1_"  style="overflow:visible;"/>
								</clipPath>
								<g style="clip-path:url(#SVGID_00000163765108407213742240000014774592562364438662_);">
									<g>
										<path class="st1" d="M277.1,439.5c0,4,2,12,6,20.1c4,8,4,2,8-2s12,4,12,4c4,2,36.1,10,42.2,12c6,2,8-6,8-14.1
											s6-102.4,6-102.4l16.1,6c0,0,48.2,54.2,50.2,58.2s2,4,2,6s4,6,4,6s4,2,6,4s4,4,10,4s4,6,4,6c-6,14.1,26.1,6,26.1,6v-12
											c0,0,32.1-16.1,46.2-22.1s16.1-2,16.1-2s6,4,14.1,8c8,4,12,0,16.1-4c4-4,16.1,0,18.1,2s70.3,38.1,76.3,40.1s6,6,6,6
											s2,6,2,8s2,6,0,6s-2,6-2,6s4,18.1,4,22.1s0,4-4,6s-10,6-12,14.1c-2,8-6,12-8,14.1s-2,4-2,4s10,8,12,10s4,2,2,8s4,10,6,12
											s4,6,2,12s0,8,6,8s14.1-6,16.1-16.1c2-10,14.1,2,16.1,6s10,2,10,2s16.1-2,24.1-2s8-4,10-8s4-2,10,0s12-2,12-2s8-4,12-8
											s0-6-2-12s14.1-8,14.1-8s0,4,0,8s0,8,2,8s4,8,8,16.1c4,8,2-2,2-8s4-6,8-8s2-6,2-12s6-8,10-8s6-6,6-14.1c0-8,4-14.1,4-16.1
											c0-1.4,4-6.8,6.2-9.8c-3.2-3.8-7.6-5.6-10.2-8.2c-4-4-6-18.1-4-26.1s-2-18.1-10-28.1s-4-12-10-26.1s-22.1-46.2-22.1-46.2
											l18.1-4c0,0,2,6,6,10s14.1,26.1,16.1,32.1s6,10,16.1,20.1c10,10,6,32.1,6,32.1c0,6,4,12,10,16.1s10,10,10,16.1
											c0,6,16.1,26.1,18.1,30.1s6,10,4,14.1c-2,4,4,22.1,4,30.1c0,4,0.4,8.2,1,11.8c1.6,2.2,3,4.6,3,6.2
											c0,4-16.1,42.2-16.1,42.2l14.1,8l60.2,2l-72.3,62.2l-8,6l63,14.3c4.8-6,9-12.6,12.6-19.7c11.2-21.5,21.3-44.4,30.5-67.4
											c4.4-11,8-23.7,3.8-36.9c-1.2-0.4-2.6-1.2-3.2-0.8c-8.4,6.6-18.1,7.8-27.7,9.8c-11.4,2.4-23.1,4.4-34.1,9
											c-8.2,3.4-13.4,1.4-18.3-6.6c-1.6-2.6-3.4-5.2-5-7.6c0.8-4.8,1.6-9.2,2.2-13.6c8.4-0.8,17.1-0.6,24.3-8
											c2.2-2.4,6-2.2,9.2-3.4c4.6-1.8,9.2-3.6,13.9-5.4c14.3-5.8,26.9-16.5,41.8-20.5c4.6-1.4,9.2-4,10.6-11c1-4.6,4-6.2,7-7.8
											c4-2,8-4,12.2-5c6.6-1.8,14.3-0.2,17.1-11.4c0.2-1.2,3-1.2,4.4-2.2c2.8-1.8,6.6-3.2,7.8-6.2c2.6-7.2,8.4-7.8,12.8-11
											c0.8-6,1.8-11.8,2.6-17.5c2.8-0.8,5.8-0.6,6.8-2.2c5-8.4,9.6-17.5,14.5-26.3c-7-11.4-13.6-21.5-25.7-23.3
											c-7.6-1.2-11.6-9.2-12.8-18.9c-0.6-4-0.4-8-0.8-14.3c-4.2,4.4-7.4,7.6-10.6,11c-14.7,16.9-14.7,16.9-34.1,18.5
											c-0.6,0-1,0.2-1.6,0.2c-5,0.2-7.8-3-7.4-10c0.4-6.6,1.2-13-3.2-18.9c-3.4,3.6-6.2,6.2-11.6,11.8
											c2.4-16.5-4.2-23.7-10.8-30.7c-6.8-7.4-10-17.3-12.4-27.3c11.6-15.3,19.5-14.9,27.3,1c3,6.4,6,12.8,8,17.3
											c6.6,5,12,8.2,16.7,12.8c11.8,11.4,24.3,12.4,37.7,5.8c2.4-1.2,4.8-2,7.2-3c2.2,6.4,4.2,12,6.6,18.9
											c16.3,3,32.7,6.2,49.2,9.2c2.6,0.4,5.2-1.2,8-1.4c15.1-1,29.9-1.8,43.8-2.8c5,4.4,7.6,10.6,10.8,15.9
											c8.2-0.8,18.5-2,20.7-3c4-2,4-4,6-8s20.1-12,26.1-14.1s6-2,4-8s-14.1-10-20.1-12s-6-14.1-6-14.1v-30.1l22.1,2
											c14.1,6,20.1-4,34.1-6c14.1-2,20.1-46.2,20.1-50.2s6-12,10-14.1c4-2,30.1-16.1,40.1-24.1s2-14.1,2-14.1
											s-18.1-18.1-22.1-26.1s-10-6-10-6s-16.1-8-22.1-12s0-18.1,0-18.1s18.1-54.2,22.1-64.2s6-20.1,22.1-22.1s6-32.1,6-42.2
											s-10-42.2-10-42.2L1300.5-25h-67.6l-78.5,8.8c0,0-10,16.1-22.1,22.1c-12,6-6,14.1-2,16.1s8,10,8,10
											c18.1,30.1-26.1,18.1-26.1,18.1L1029.9,32l-16.1-10c0,0-32.1-4-46.2-6s-18.1,6-30.1,16.1c-12,10-18.1,30.1-18.1,44.2
											s24.1,30.1,32.1,34.1c2.8,1.4,5,2.8,6.4,4c3.2-2.6,6.6-5.2,9.6-6c6-2,16.1-14.1,26.1-12c10,2,14.1,4,16.1,2
											c0,0,6,12,0,16.1c-6,4-16.1,4-18.1,8s-6,10-10,10c0,0,6,6,8,12s14.1,12,14.1,14.1c0,2,2-2,2,4s2,12,2,12s2-2,4-4s8-4,10,0
											s12,16.1,2,14.1c-10-2-12,0-14.1,4c-2,4,0,6,2,10s8,10,8,22.1s2,14.1,2,14.1l6,12l-10-8c0,0-18.1,12-30.1,2s-12-6-14.1-8
											c-2-2-10-6-6-18.1c4-12,8-22.1,8-22.1s4-2-2-8s-22.1-24.1-22.1-30.1c0-0.8,0-1.4,0-2c-3,2.8-7.4,6.8-12,10
											c-8,6-30.1-2-42.2-4c-4.6-0.8-10.8-1-16.5-0.8c1.4,1.2,2.4,3.2,2.4,6.8c0,10-2,14.1-10,16.1s-36.1,2-42.2-2
											c-6-4-26.1-14.1-32.1-12c-6,2-16.1,2-24.1,6s-6,10-26.1,6c-9-1.8-13.9-2.4-16.7-3.2L708.3,194c0,0.2,0,0.6,0,0.8
											c-2,12-2,14.1-2,14.1l6,4l-4,6c0,0,14.1,14.1,12,22.1c0,0,8,6,8,12l4-8c0,0,26.1,16.1,28.1-2c0,0,10-2,16.1,6
											c6,8,12,6,18.1,2c6-4,16.1-6,22.1-4c0,0,4,22.1-2,32.1s-10,32.1-10,32.1s-2,12-14.1,12c-12,0-16.1-2-18.1-4s-8-6-14.1-2
											c-6,4-10,12-20.1,8c-10-4-22.1-8-30.1-8s-8,0-8,0s-2-6-8-6s-16.1-4-20.1-8s-12-10-22.1-4c-10,6-12,8-12,18.1
											s0,24.1-18.1,14.1s-20.1-10-26.1-10s-8-8-8-10s-4-8-12-10s-22.1,0-28.1-6s-12-10-14.1-10c-2,0-6-2,0-8s8-10,2-22.1
											c0,0,0-6,2-10s2-4-4-4c0,0-6-8-12-6s-14.1,6-14.1,6s-18.1-4-26.1,0s-20.1,0-26.1,0s-36.1,6-54.2,20.1c0,0-6,8-20.1,4
											h-14.1c0,0-4,0-7.4-2h-9.8c-4.4,14.1-11.4,24.3-24.1,28.9c-9,3.2-11.8,15.3-16.5,24.3c-3.8,7-1.4,14.5-0.2,21.3
											c-8,16.1-16.3,24.7-29.7,29.9c-5.6,2.2-8.6,6.2-12,12.2c-6.4,12-16.9,20.9-18.7,36.9c-0.2,1.6-2,3.2-3.2,4.4
											c-0.4,0.4-0.6,0.8-1,1c5,1.6,18.1,6.2,26.1,9.4C279.2,435.5,277.1,435.5,277.1,439.5z M728.8,188.6l-6-2c0,0,12-6,16.1,0
											C738.8,186.6,736.8,192.6,728.8,188.6z"/>
									</g>
								</g>
							</g>
						</g>
					</g>
				</g>
			</g>
		</g>
	</g>
</g>
<g>
	<g>
		<g>
			<g>
				<g>
					<g>
						<g>
							<g>
								<defs>
									<rect id="SVGID_00000029013250798512445490000014653736393966386853_" y="0" width="1920" height="700"/>
								</defs>
								<clipPath id="SVGID_00000150821119944238101470000017195713189219322038_">
									<use xlink:href="#SVGID_00000029013250798512445490000014653736393966386853_"  style="overflow:visible;"/>
								</clipPath>
								
									<linearGradient id="SVGID_00000031200562379120910150000011722541858662166171_" gradientUnits="userSpaceOnUse" x1="960" y1="1376" x2="960" y2="1276" gradientTransform="matrix(1 0 0 1 0 -1276)">
									<stop  offset="0" style="stop-color:#E1E7EF;stop-opacity:0"/>
									<stop  offset="1" style="stop-color:#E1E7EF;stop-opacity:0.3"/>
								</linearGradient>
								
									<rect y="0" style="clip-path:url(#SVGID_00000150821119944238101470000017195713189219322038_);fill:url(#SVGID_00000031200562379120910150000011722541858662166171_);" width="1920" height="100"/>
							</g>
						</g>
					</g>
				</g>
			</g>
		</g>
	</g>
</g>
<g>
	<g>
		<g>
			<g>
				<g>
					<g>
						<g>
							<g>
								<defs>
									<rect id="SVGID_00000043429140443345646710000003125424697752870822_" y="0" width="1920" height="700"/>
								</defs>
								<clipPath id="SVGID_00000121994292161981070890000010296315359726281132_">
									<use xlink:href="#SVGID_00000043429140443345646710000003125424697752870822_"  style="overflow:visible;"/>
								</clipPath>
								
									<g id="Layer_2_00000014607279671892548640000005885046538862342310_" style="clip-path:url(#SVGID_00000121994292161981070890000010296315359726281132_);">
									<ellipse class="st4" cx="1843.9" cy="291" rx="3" ry="2"/>
									<path class="st4" d="M1923.2,258.9c0,0-8,2-10,4s-32.1,26.1-32.1,26.1s-4,2-4,6s8,18.1,8,22.1s2,12,10,4s8-28.1,8-30.1
										s2-6,4-2s6,12,6,12s2-6,12-12l10-18.1L1923.2,258.9z"/>
									<path class="st4" d="M1786.7,407.4c0,0-12,6-12,12s-6,16.1-4,22.1s8,16.1,8,12c0-4,6-18.1,8-24.1
										S1790.7,411.4,1786.7,407.4z"/>
									<path class="st4" d="M1780.6,503.8l12,4c0,0,2,6,2,8s4,10,2,14.1c-2,4-6,12-8,14.1s-4,6-2,12s4,8,4,10c0,0,4-2,8,0
										s6,4,10,6s8,8,8,8s0,12-2,10s-10-4-10-6s-2-6-6-6s-8-4-8-4s-4-2-4,0s-2,4-2,6s4,6,2,8s-2,8-4,6s-8-10-8-12s2-2,2-4
										s0-10-2-14.1s-8-14.1-8-18.1s2-8,4-10s2-4,2-8S1772.6,503.8,1780.6,503.8z"/>
									<path class="st4" d="M1810.7,590.1c0,0-4,0-4,2s0,4,2,4s4,0,4-2s0-4,0-4H1810.7z"/>
									<path class="st4" d="M1816,590.9c0,0,6.8,9.2,4.8,13.2s-4,4-2,8s4,12,4,12v4c0,0,2,0,4-2s2-10,2-12s2-2,2-4
										C1830.8,608.2,1836.8,586.1,1816,590.9z"/>
									<path class="st4" d="M1792.7,604.1c0,0,4-2,8,0s4,6,6,8s4,2,8,2c0,0,0,6,2,8s4,4,4,4s2,2,0,4s-6,2-10,4s-4,6-6,6
										c0,0-8-4-8-8s4-6,2-10s-10-4-8-8C1792.7,610.2,1792.7,604.1,1792.7,604.1z"/>
									<circle class="st4" cx="1769.6" cy="599.1" r="1"/>
									<path class="st4" d="M1762.6,612.2l-4,10C1758.6,622.2,1768.6,622.2,1762.6,612.2z"/>
									<path class="st4" d="M1752.5,632.2l-4,6C1748.5,638.3,1754.5,638.3,1752.5,632.2z"/>
									<path class="st4" d="M1746.5,640.3c0,0-4-2-6,6S1748.5,646.3,1746.5,640.3z"/>
									<path class="st4" d="M1832.8,632.2c0,0-13,20.5-22.1,16.1c-4-2-4-2-6,0s-14.1,12-14.1,18.1s0,10,2,4s2-10,6-8s8,2,10,0
										s6-2,6,2s-4,24.1,18.1,22.1v-14.1c0,0,4,0,6,2c0,0,6-8,4-14.1s-2-12-2-16.1S1836.8,632.2,1832.8,632.2z"/>
									<path class="st4" d="M1734.5,670.4c0,0,20.1,22.1,26.1,24.1c0,0-8,6-8,12l-28.1,6l-22.1-4l6-6
										C1708.4,702.5,1720.4,692.5,1734.5,670.4z"/>
									<path class="st4" d="M1491.6,690.5c0,0,24.1,2,28.1,14.1l-12,4h-12C1495.6,708.5,1485.6,694.5,1491.6,690.5z"/>
									<path class="st4" d="M1461.5,582.1v12h2C1463.5,594.1,1463.5,582.1,1461.5,582.1z"/>
									<path class="st4" d="M1316.9,638.3c0,0-6,24.1-2,34.1s6,18.1,16.1,10c10-8,8-14.1,4-24.1S1319,618.2,1316.9,638.3z"/>
									<path class="st1" d="M1025.9,590.1c0,0-10,0-8,2S1027.9,596.1,1025.9,590.1z"/>
									<path class="st4" d="M409.6-14.1c0,0,2,20.1,6,22.1s18.1-2,16.1,8s-2,18.1-4,20.1s-8,10-22.1,8s-32.1-2-36.1,6h-16.1
										L367.5,32c0,0-18.1-2-10-8s6-10,6-14.1s4-4,10-6s8-16.1,8-16.1L409.6-14.1z"/>
									<path class="st4" d="M345.4-8.1c0,0,0,6,0,16.1s-4,16.1-14.1,18.1s-28.1,4-30.1,4s-4-6-4-6s10-8,8-14.1s-12-2-6-14.1
										c6-12,38.1-24.1,38.1-24.1L345.4-8.1z"/>
									<path class="st1" d="M795,262.9c0,0-14.1-2-14.1,2s-4,10,4,10S799.1,266.9,795,262.9z"/>
									<path class="st4" d="M704.7,264.9c0,0-16.1-2-20.1-4s-6,6-6,6s6-2,12,0C696.7,268.9,700.7,268.9,704.7,264.9z"/>
									<path class="st4" d="M522,206.7c0-2,2-22.1-2-28.1s0-10,0-14.1s-2-10-6-6s-4,10-2,14.1c2,4,4,6,2,8s-8,6-8,6l2,26.1
										L522,206.7z"/>
									<path class="st4" d="M445.8,198.7c0,0-6,2-4,4s6,6,8,2S449.8,198.7,445.8,198.7z"/>
								</g>
							</g>
						</g>
					</g>
				</g>
			</g>
		</g>
	</g>
</g>
<g>
	<g>
		<g>
			<g>
				<g>
					<g>
						<g>
							<g>
								<defs>
									<rect id="SVGID_00000069367259177511112790000000891285500164221057_" y="0" width="1920" height="700"/>
								</defs>
								<clipPath id="SVGID_00000035489849138858784520000001853501910222495385_">
									<use xlink:href="#SVGID_00000069367259177511112790000000891285500164221057_"  style="overflow:visible;"/>
								</clipPath>
								<path style="clip-path:url(#SVGID_00000035489849138858784520000001853501910222495385_);fill:none;" d="M1946.2-12.1v-7
									c-1.4,1-2.6,2.4-4.4,3.8C1943-13.3,1944.6-12.5,1946.2-12.1z"/>
							</g>
						</g>
					</g>
				</g>
			</g>
		</g>
	</g>
</g>
<g>
	<g>
		<g>
			<g>
				<g>
					<g>
						<g>
							<g>
								<defs>
									<rect id="SVGID_00000103946143005109720070000014254435106410820994_" y="0" width="1920" height="700"/>
								</defs>
								<clipPath id="SVGID_00000008131135093816803640000000751287048957264524_">
									<use xlink:href="#SVGID_00000103946143005109720070000014254435106410820994_"  style="overflow:visible;"/>
								</clipPath>
								<path style="clip-path:url(#SVGID_00000008131135093816803640000000751287048957264524_);fill:none;" d="M1528.5,655.7
									c-1-1.6-4-1.2-7-2c0.2-5.2,0.4-10.6,0.8-15.9c0.8-9.4,3.6-19.1,2.6-27.9c-1-9,1.4-18.9-1.2-26.3
									c-6.2-17.5-6.2-37.1-14.1-55.4c-6,4.6-11.4,8.6-16.7,12.8c-5.8,4.8-11,2.4-16.9-1.8c1-4.6,2.2-8.4,2.4-12.4
									c0.4-5.4,0.4-10.8,0-16.3c-0.4-6.8-6.4-8.6-8.4-13.9c-1.8-4.4-1.4-9.2-6-12.8c-9.4-7.2-14.1-20.1-15.9-35.3
									c-6,3-11.2,6.2-16.5,8.2c-5.6,2-11.4,3.6-17.5,4c-5.8,0.4-11.8-2.4-17.7,3.2c-0.4,1.2-1.4,3-1.4,4.8
									c-0.6,8.6-4.4,14.1-10.2,16.7c-7,3-12,8.4-16.9,15.3c-4.2,6-9.4,11-14.5,16.3c-4,4.2-8.2,7.6-11.4,13.6
									c-3.2,5.8-10,9.6-15.9,12c-6.8,2.8-8.2,7.8-7.4,15.5c0.6,5.4,1.2,10.8,1.4,16.3c0.2,4.8,1,10.4-0.8,14.1
									c-4.8,9.4-3.6,19.7-3.4,29.9c-3.6,4.8-7.8,8.4-10.4,14.9s-8.6,11-12.4,17.5c-2,3.6-6.4,3.4-8.6,0c-3.4-5.2-7.6-10.4-9-16.7
									c-3-14.9-9.4-27.5-14.1-41.2c-6.4-19.5-13.4-38.7-19.3-58.4c-4-14.1-5-29.3-7.4-44.2c-0.4-2.6-1-5.8-0.2-8
									c2.8-8.8-0.2-15.9-3-23.1c-2,3-3.6,7-6.2,8.8c-8.4,5.4-11.8,9.6-21.5-2.4c-3.4-4.2-6.6-8.6-10.6-13.9c3-2.2,5-3.8,6.8-5
									c-6.4-5.6-12.4-12.4-19.3-16.9c-2.8-1.8-4.8-4.4-6.6-7.4c-3.2-5.2-5.6-11.4-10.8-15.9c-13.6,0.8-28.7,1.8-43.8,2.8
									c-2.6,0.2-5.4,1.8-8,1.4c-16.5-2.8-32.9-6-49.2-9.2c-2.4-6.8-4.2-12.4-6.6-18.9c-2.4,1-5,2-7.2,3
									c-13.4,6.6-26.1,5.6-37.7-5.8c-4.6-4.4-10-7.6-16.7-12.8c-2-4.2-4.8-10.8-8-17.3c-7.8-15.9-15.7-16.3-27.3-1
									c2.4,10,5.6,19.9,12.4,27.3c6.6,7,13.4,14.3,10.8,30.7c5.6-5.6,8.2-8.2,11.6-11.8c4.4,5.8,3.6,12.2,3.2,18.9
									c-0.4,7,2.4,10.2,7.4,10c0.6,0,1-0.2,1.6-0.2c19.5-1.6,19.5-1.6,34.1-18.5c3-3.6,6.4-6.8,10.6-11c0.4,6,0.2,10.2,0.8,14.3
									c1.2,9.6,5.2,17.7,12.8,18.9c12,1.8,18.7,11.8,25.7,23.3c-4.8,8.8-9.4,17.9-14.5,26.3c-1,1.6-4,1.4-6.8,2.2
									c-0.8,5.6-1.8,11.4-2.6,17.5c-4.4,3.2-10,3.8-12.8,11c-1.2,3-5,4.4-7.8,6.2c-1.4,1-4,1-4.4,2.2
									c-2.6,11.2-10.4,9.6-17.1,11.4c-4.2,1.2-8.2,3-12.2,5c-3,1.4-6,3-7,7.8c-1.4,7-6,9.8-10.6,11c-14.9,4-27.5,14.7-41.8,20.5
									c-4.6,1.8-9.2,3.8-13.9,5.4c-3,1.2-6.8,1.2-9.2,3.4c-7.2,7.4-15.9,7.2-24.3,8c-0.8,4.4-1.4,8.8-2.2,13.6
									c1.6,2.4,3.2,5,5,7.6c4.8,8,10.2,9.8,18.3,6.6c11-4.6,22.7-6.8,34.1-9c9.6-2,19.1-3.2,27.7-9.8c0.6-0.6,2,0.4,3.2,0.8
									c4.2,13,0.6,25.9-3.8,36.9c-9,23.1-19.1,46-30.5,67.4c-3.6,7-8,13.6-12.6,19.7c-0.2,0.2-0.4,0.4-0.6,0.8h611
									c-5.2-9.2-8.2-20.3-10-32.1C1542.8,676.6,1535.3,666.6,1528.5,655.7z"/>
							</g>
						</g>
					</g>
				</g>
			</g>
		</g>
	</g>
</g>
<g>
	<g>
		<g>
			<g>
				<g>
					<g>
						<g>
							<g>
								<defs>
									<rect id="SVGID_00000072273348811438465060000006914729634907743145_" y="0" width="1920" height="700"/>
								</defs>
								<clipPath id="SVGID_00000139285926294516631480000010465139023818480011_">
									<use xlink:href="#SVGID_00000072273348811438465060000006914729634907743145_"  style="overflow:visible;"/>
								</clipPath>
								<path style="clip-path:url(#SVGID_00000139285926294516631480000010465139023818480011_);fill:none;" d="M740.8,168.5
									l-8.6,6.8c2.8,0.8,7.6,1.4,16.7,3.2c20.1,4,18.1-2,26.1-6s18.1-4,24.1-6s26.1,8,32.1,12s34.1,4,42.2,2c8-2,10-6,10-16.1
									c0-3.8-1-5.8-2.4-6.8c-9.2,0.2-17.7,0.8-17.7,0.8L740.8,168.5z"/>
							</g>
						</g>
					</g>
				</g>
			</g>
		</g>
	</g>
</g>
<g>
	<g>
		<g>
			<g>
				<g>
					<g>
						<g>
							<g>
								<defs>
									<rect id="SVGID_00000016776798661221300700000001946813119511783330_" y="0" width="1920" height="700"/>
								</defs>
								<clipPath id="SVGID_00000052084242628584029800000013694544282828782231_">
									<use xlink:href="#SVGID_00000016776798661221300700000001946813119511783330_"  style="overflow:visible;"/>
								</clipPath>
								<path style="clip-path:url(#SVGID_00000052084242628584029800000013694544282828782231_);fill:none;" d="M895.4,539.9
									c2-4-2-10-4-14.1s-18.1-24.1-18.1-30.1s-4-12-10-16.1s-10-10-10-16.1c0,0,4-22.1-6-32.1s-14.1-14.1-16.1-20.1
									s-12-28.1-16.1-32.1c-4-4-6-10-6-10l-18.1,4c0,0,16.1,32.1,22.1,46.2s2,16.1,10,26.1s12,20.1,10,28.1s0,22.1,4,26.1
									c2.6,2.6,7,4.4,10.2,8.2c1.6,2,3,4.4,3.8,7.8c2,10,2,18.1,8,28.1s20.1,20.1,26.1,28.1s16.1,16.1,16.1,16.1s-0.6-2.6-1-6.2
									c-0.4-3.4-1-7.8-1-11.8C899.4,562,893.4,543.9,895.4,539.9z"/>
							</g>
						</g>
					</g>
				</g>
			</g>
		</g>
	</g>
</g>
<g>
	<g>
		<g>
			<g>
				<g>
					<g>
						<g>
							<g>
								<defs>
									<rect id="SVGID_00000178177688165481475700000012309734687415419278_" y="0" width="1920" height="700"/>
								</defs>
								<clipPath id="SVGID_00000031897179403371031120000008134619948278516096_">
									<use xlink:href="#SVGID_00000178177688165481475700000012309734687415419278_"  style="overflow:visible;"/>
								</clipPath>
								<path style="clip-path:url(#SVGID_00000031897179403371031120000008134619948278516096_);fill:none;" d="M542.1-25.2h-6.6
									c2,2.2,4.2,4.6,6.4,6.8C541.9-20.7,541.9-23,542.1-25.2z"/>
							</g>
						</g>
					</g>
				</g>
			</g>
		</g>
	</g>
</g>
<g>
	<g>
		<g>
			<g>
				<g>
					<g>
						<g>
							<g>
								<defs>
									<rect id="SVGID_00000170995574486876099640000010122654208633880725_" y="0" width="1920" height="700"/>
								</defs>
								<clipPath id="SVGID_00000087379300553564069400000012743617423323599281_">
									<use xlink:href="#SVGID_00000170995574486876099640000010122654208633880725_"  style="overflow:visible;"/>
								</clipPath>
								<path style="clip-path:url(#SVGID_00000087379300553564069400000012743617423323599281_);fill:none;" d="M945.6,138.4
									c3.6,7,5.4,9.4,6,14.1c0,0.6,0,1.4,0,2c0,6,16.1,24.1,22.1,30.1s2,8,2,8s-4,10-8,22.1c-4,12,4,16.1,6,18.1s2-2,14.1,8
									s30.1-2,30.1-2l10,8l-6-12c0,0-2-2-2-14.1s-6-18.1-8-22.1s-4-6-2-10s4-6,14.1-4c10,2,0-10-2-14.1s-8-2-10,0s-4,4-4,4
									s-2-6-2-12s-2-2-2-4s-12-8-14.1-14.1s-8-12-8-12c4,0,8-6,10-10s12-4,18.1-8c6-4,0-16.1,0-16.1c-2,2-6,0-16.1-2
									c-10-2-20.1,10-26.1,12c-3,1-6.4,3.4-9.6,6c-3.4,2.8-6.4,5.8-8.4,8C945.6,126.4,941.6,130.4,945.6,138.4z"/>
							</g>
						</g>
					</g>
				</g>
			</g>
		</g>
	</g>
</g>
<g>
	<g>
		<g>
			<g>
				<g>
					<g>
						<g>
							<g>
								<defs>
									<rect id="SVGID_00000106841911096909961510000017748101505596683443_" y="0" width="1920" height="700"/>
								</defs>
								<clipPath id="SVGID_00000136410513121132640320000001881812367381257151_">
									<use xlink:href="#SVGID_00000106841911096909961510000017748101505596683443_"  style="overflow:visible;"/>
								</clipPath>
								<path style="clip-path:url(#SVGID_00000136410513121132640320000001881812367381257151_);fill:none;" d="M694.7,220.7
									l18.1,26.1l-8,46.2l-148.5-42.2l-26.1-24.1l-42.2-6l-128.5,42.2H358c3.4,2,7.4,2,7.4,2h14.1c14.1,4,20.1-4,20.1-4
									c18.1-14.1,48.2-20.1,54.2-20.1s18.1,4,26.1,0s26.1,0,26.1,0s8-4,14.1-6c6-2,12,6,12,6c6,0,6,0,4,4s-2,10-2,10
									c6,12,4,16.1-2,22.1s-2,8,0,8s8,4,14.1,10c6,6,20.1,4,28.1,6s12,8,12,10s2,10,8,10s8,0,26.1,10s18.1-4,18.1-14.1
									s2-12,12-18.1c10-6,18.1,0,22.1,4s14.1,8,20.1,8s8,6,8,6s0,0,8,0s20.1,4,30.1,8s14.1-4,20.1-8s12,0,14.1,2s6,4,18.1,4
									c12,0,14.1-12,14.1-12s4-22.1,10-32.1s2-32.1,2-32.1c-6-2-16.1,0-22.1,4s-12,6-18.1-2c-6-8-16.1-6-16.1-6
									c-2,18.1-28.1,2-28.1,2l-4,8c0-6-8-12-8-12c2-8-12-22.1-12-22.1l4-6l-6-4c0,0,0-2,2-14.1c0-0.2,0-0.6,0-0.8l-6,4.8
									L694.7,220.7z"/>
							</g>
						</g>
					</g>
				</g>
			</g>
		</g>
	</g>
</g>
<g>
	<g>
		<g>
			<g>
				<g>
					<g>
						<g>
							<g>
								<defs>
									<rect id="SVGID_00000047781898650221153190000006247839206579000462_" y="0" width="1920" height="700"/>
								</defs>
								<clipPath id="SVGID_00000096046177751851472170000015019390915030501807_">
									<use xlink:href="#SVGID_00000047781898650221153190000006247839206579000462_"  style="overflow:visible;"/>
								</clipPath>
								<path style="clip-path:url(#SVGID_00000096046177751851472170000015019390915030501807_);fill:none;" d="M875.3,156.5
									c0,0-12-10-16.1-14.1c-4-4-16.1-10-24.1-16.1c-8-6-20.1-2-22.1,0c-2,2-18.1,8-18.1,8s-2-2-4-6s-6-8-8-10s4-6,2-6
									s-20.1-10-20.1-10s-8,8-12,12s-6,12-10,14.1c-4,2-4,8-4,10s-4,8-8,14.1c-4,6-2,8-2,16.1c0,4.4,0,5.8,3.4,6.8l8.6-6.8
									l122.4-10c0,0,8.4-0.8,17.7-0.8C878.5,155.7,875.3,156.5,875.3,156.5z"/>
							</g>
						</g>
					</g>
				</g>
			</g>
		</g>
	</g>
</g>
<g>
	<g>
		<g>
			<g>
				<g>
					<g>
						<g>
							<g>
								<defs>
									<rect id="SVGID_00000125596707610279063650000007280874469320823682_" y="0" width="1920" height="700"/>
								</defs>
								<clipPath id="SVGID_00000175281093178584220350000009011617100279676058_">
									<use xlink:href="#SVGID_00000125596707610279063650000007280874469320823682_"  style="overflow:visible;"/>
								</clipPath>
								<path style="clip-path:url(#SVGID_00000175281093178584220350000009011617100279676058_);fill:none;" d="M694.7,184.6
									c-6,0-6,4-10,8s-6,2-12,0s0,6,2,12s14.1,18.1,14.1,18.1s-6,6-10,10s-8,14.1-8,14.1s-10-4-12-6s-2-6-2-6c0-6-10-20.1-12-24.1
									s-12-18.1-12-22.1s2-12-2-20.1c-4-8-20.1-12-26.1-14.1s-22.1-18.1-24.1-20.1s-6-4-8-6s-10-12-10-12s-4,0-8,6s0,14.1,2,16.1
									s10,8,14.1,18.1c4,10,14.1,12,18.1,12s6,2,6,6s14.1,8,14.1,8s6,4,10,6s2,10,2,10l-2-2c-6-4-12-4-16.1-2c-4,2,4,10,4,14.1
									c0,4-12,16.1-16.1,18.1c-4,2-4,4-4,6s-4,12-4,12l-30.1-16.1c0,0,4-2,6-4s6-2,8,0s18.1,0,26.1-8s-2-16.1-6-22.1
									s-26.1-18.1-36.1-22.1s-18.1-22.1-22.1-30.1s-12-6-20.1-6s-18.1,14.1-24.1,16.1s-12-4-22.1-6c-10-2-12,8-12,16.1
									c0,8-4,10-4,10s-16.1,8-20.1,10s-10,14.1-14.1,18.1c-4,4,2,12,2,12s-6,10-8,14.1c-2,4-8,8-12,12s-14.1,6-20.1,6
									s-20.1,0-20.1,10c0,4.2,2,6.6,4.6,8h1.4l128.5-42.2l42.2,6l26.1,24.1L704.7,293l8-46.2l-18.1-26.1l8-22.1l6-4.8
									C710.1,182.8,700.5,184.6,694.7,184.6z"/>
							</g>
						</g>
					</g>
				</g>
			</g>
		</g>
	</g>
</g>
<g>
	<g>
		<g>
			<g>
				<g>
					<g>
						<g>
							<g>
								<defs>
									<rect id="SVGID_00000110465982753060656490000011473963279518910129_" y="0" width="1920" height="700"/>
								</defs>
								<clipPath id="SVGID_00000136381225187167760140000005169759967186887344_">
									<use xlink:href="#SVGID_00000110465982753060656490000011473963279518910129_"  style="overflow:visible;"/>
								</clipPath>
								<path style="clip-path:url(#SVGID_00000136381225187167760140000005169759967186887344_);fill:none;" d="M829.2,118.4
									c8,2,8-2,12-4s2-18.1,2-18.1c-4,4-18.1,4-24.1,6s-8,6-10,12C807.1,120.4,821.1,116.4,829.2,118.4z"/>
							</g>
						</g>
					</g>
				</g>
			</g>
		</g>
	</g>
</g>
<g>
	<g>
		<g>
			<g>
				<g>
					<g>
						<g>
							<g>
								<defs>
									<rect id="SVGID_00000070113551894005904050000018293024126907034010_" y="0" width="1920" height="700"/>
								</defs>
								<clipPath id="SVGID_00000089544110626434728030000015947615050652097687_">
									<use xlink:href="#SVGID_00000070113551894005904050000018293024126907034010_"  style="overflow:visible;"/>
								</clipPath>
								
									<linearGradient id="SVGID_00000085213318291795491920000000831477778973917854_" gradientUnits="userSpaceOnUse" x1="1173.9001" y1="1625.4001" x2="1946.2001" y2="1625.4001" gradientTransform="matrix(1 0 0 1 0 -1276)">
									<stop  offset="1.348126e-07" style="stop-color:#CAD2DB"/>
									<stop  offset="0.5275" style="stop-color:#CBD3DC"/>
									<stop  offset="1" style="stop-color:#E1E7EF"/>
								</linearGradient>
								
									<path style="clip-path:url(#SVGID_00000089544110626434728030000015947615050652097687_);fill:url(#SVGID_00000085213318291795491920000000831477778973917854_);" d="
									M1941.8-15.5c1.8-1.4,3-2.6,4.4-3.8v-5.8h-646.4l19.2,19c0,0,10,32.1,10,42.2s10,40.1-6,42.2c-16.1,2-18.1,12-22.1,22.1
									s-22.1,64.2-22.1,64.2s-6,14.1,0,18.1s22.1,12,22.1,12s6-2,10,6s22.1,26.1,22.1,26.1s8,6-2,14.1c-10,8-36.1,22.1-40.1,24.1
									s-10,10-10,14.1c0,4-6,48.2-20.1,50.2s-20.1,12-34.1,6l-22.1-2v30.1c0,0,0,12,6,14.1c6,2,18.1,6,20.1,12s2,6-4,8
									s-24.1,10-26.1,14.1c-2,4-2,6-6,8c-2.2,1.2-12.4,2.2-20.7,3c1.8,3,3.8,5.6,6.6,7.4c7,4.4,13,11.2,19.3,16.9
									c-1.6,1.2-3.8,2.8-6.8,5c4,5,7.2,9.6,10.6,13.9c9.6,12,13,7.8,21.5,2.4c2.6-1.6,4.2-5.8,6.2-8.8c2.8,7.2,6,14.3,3,23.1
									c-0.8,2.2-0.2,5.4,0.2,8c2.4,14.9,3.4,30.1,7.4,44.2c5.6,19.9,12.8,38.9,19.3,58.4c4.6,13.6,10.8,26.3,14.1,41.2
									c1.2,6,5.6,11.4,9,16.7c2.4,3.4,6.6,3.6,8.6,0c3.8-6.4,9.6-11,12.4-17.5c2.6-6.4,6.8-10,10.4-14.9
									c-0.2-10.4-1.6-20.5,3.4-29.9c1.8-3.4,1-9.2,0.8-14.1c-0.2-5.4-1-10.8-1.4-16.3c-0.8-7.6,0.6-12.6,7.4-15.5
									c5.8-2.4,12.6-6,15.9-12c3.2-6,7.4-9.4,11.4-13.6c5-5.2,10.2-10.2,14.5-16.3c4.8-6.8,9.8-12.2,16.9-15.3
									c6-2.6,9.8-8.2,10.2-16.7c0-1.8,1-3.6,1.4-4.8c5.8-5.6,11.8-2.8,17.7-3.2c5.8-0.4,11.6-2,17.5-4c5.4-2,10.4-5,16.5-8.2
									c1.8,15.3,6.4,27.9,15.9,35.3c4.8,3.6,4.4,8.4,6,12.8c2,5.2,8,7,8.4,13.9c0.4,5.4,0.4,10.8,0,16.3c-0.2,4-1.4,7.8-2.4,12.4
									c6,4.2,11,6.6,16.9,1.8c5.4-4.2,10.8-8.2,16.7-12.8c7.6,18.3,7.6,37.9,14.1,55.4c2.6,7.4,0.2,17.3,1.2,26.3
									s-1.8,18.7-2.6,27.9c-0.6,5.2-0.6,10.6-0.8,15.9c3,0.8,6,0.4,7,2c6.8,10.8,14.3,20.9,16.3,35.9c1.6,11.8,4.8,22.9,10,32.1
									h26.5c-1-4-1.2-8-0.6-12.6c1.4-9-1-16.3-6.2-22.1c-6.4-7-11.8-15.7-20.5-19.3c-4.6-2-6.4-6.2-7.8-11.8
									c-2-7.6-3.6-17.1-8.2-21.5c-5.2-5-5.6-10-4-15.7c3.4-13.6,8-26.7,9.8-41.2c0.2-1,1.6-2.4,2.2-2.4c1.4,0.2,3.6,0.8,4,2
									c1.4,3.4,0.8,8.6,5.2,9c10.2,1,16.7,8.2,20.1,20.1c1.6,6,6,7.6,9.2,10.4c3,2.4,6.8,3.4,10.4,5c0.4,7.2,0.6,13.9,1.2,22.3
									c7-5.6,14.7-8.6,18.1-15.3c4.4-8.4,10.6-10.6,16.5-15.1c2.8-2,5.4-4.4,8.4-6.4c3.6-2.4,5.8-6,6.6-11
									c4.2-23.7,0.8-45.8-13.4-62.2c-8-9.2-15.3-18.7-21.7-29.7c-5.4-9.2-5.6-14.9,0.6-23.3c4.6-6.4,10.6-10.8,16.3-16.3
									c7.4-7.2,14.3-8.4,22.1-2.4c1,5.2,2,10.2,2.8,15.1c-4.4,4-8.4,7.4-12,11.6c-3.8,4.4-2.2,12.2,2.6,15.3c3.6,2.2,7,2,10.6-0.4
									c6.4-4,7.8-12.4,11-19.1c-0.2-1-0.2-1.8-0.4-2.4c-0.6-1-1.4-2-2-3c-3.8-7.6-2.8-15.9,3-18.1c8-3.2,16.7-4.8,24.7-8
									c10-4.2,19.3-11.8,30.3-12.2c2,0,4.4-1.4,6-2.8c11.6-11,23.1-22.1,34.5-33.5c1-1,1.8-3.2,2-5c1.6-13.9,9.4-22.7,16.1-32.1
									c4.8-7,9.8-18.9,12-31.1c-1-0.2-2-0.4-3.2-0.6c-6.6-1.8-6.6-1.8-2.4-9c3-5.2,4-12.8,0.8-16.5c-7.4-8.4-11.4-19.7-15.7-30.5
									c-1-2.2-2.8-4-4.4-5.6c-2.2-2.2-4.6-4.4-8.2-7.8c6.8-7,13-12.6,18.3-19.1c5.6-6.6,14.5-4.2,20.7-13
									c-8.2-3-15.3-5.6-23.1-8.4c-2.4,2.2-5.6,4.8-8.6,7.4c-5,4.2-6.8,3.6-8.4-4.6c-0.8-4-2-6-4.8-6.8c-2.6-0.8-5.4-0.8-7.8-2
									c-3.8-2-3.8-6-1.4-11c7.6,2,13.6-1.2,19.1-9.4c4.4-6.4,11.2-10.2,17.3-14.5c4-2.8,8.2-2.4,11,4.8c-3,6.2-11.8,10.6-5.6,22.7
									c12.6-7.8,25.7-21.5,41.4-6.4c-1.8,5.8-3.6,11.2-5,16.1c2.8,6.6,6.6,5.4,10.4,5.6c6,0.2,6.8,2.2,6.8,10.2
									c0,3.2-0.2,6.6,0.6,9.6c1.4,5,1,9.2-0.8,13.9c-1.4,3.6-2.6,7.2-4.2,11.6c3,2,5.6,5,7.6,4.4c8.8-3,17.5-6.4,25.9-10.8
									c5-2.4,6.6-8,6.4-15.1c-0.2-9-1-17.5-6.2-24.7c-5.4-7.4-10.2-15.5-15.3-23.1c0.6-6.4,4.8-6.6,7.8-9
									c7-5.2,16.9-7.4,16.9-21.9c0-2.4,3-5.6,5.2-7.4c5.8-4.8,12-9,17.1-12.6c6.8,1.4,12.8,4.2,18.3,3.2c8-1.4,15.9-5.6,21.5-13.2
									c2.2-3,4.6-6,7.2-9V-12.1C1944.6-12.5,1943-13.3,1941.8-15.5z"/>
							</g>
						</g>
					</g>
				</g>
			</g>
		</g>
	</g>
</g>
<g>
	<g>
		<g>
			<g>
				<g>
					<g>
						<g>
							<g>
								<defs>
									<rect id="SVGID_00000108273430923380213420000005642115445245392259_" y="0" width="1920" height="700"/>
								</defs>
								<clipPath id="SVGID_00000136382027005819535310000006900455297409816721_">
									<use xlink:href="#SVGID_00000108273430923380213420000005642115445245392259_"  style="overflow:visible;"/>
								</clipPath>
								<path style="clip-path:url(#SVGID_00000136382027005819535310000006900455297409816721_);fill:#CAD2DB;" d="M353.4,254.9
									c0-10,14.1-10,20.1-10s16.1-2,20.1-6s10-8,12-12s8-14.1,8-14.1s-6-8-2-12s10-16.1,14.1-18.1c4-2,20.1-10,20.1-10s4-2,4-10
									s2-18.1,12-16.1s16.1,8,22.1,6s16.1-16.1,24.1-16.1c8,0,16.1-2,20.1,6s12,26.1,22.1,30.1c10,4,32.1,16.1,36.1,22.1
									s14.1,14.1,6,22.1c-8,8-24.1,10-26.1,8s-6-2-8,0s-6,4-6,4l30.1,16.1c0,0,4-10,4-12s0-4,4-6s16.1-14.1,16.1-18.1
									s-8-12-4-14.1c4-2,10-2,16.1,2l2,2c0,0,2-8-2-10s-10-6-10-6s-14.1-4-14.1-8s-2-6-6-6s-14.1-2-18.1-12s-12-16.1-14.1-18.1
									c-2-2-6-10-2-16.1c4-6,8-6,8-6s8,10,10,12c2,2,6,4,8,6s18.1,18.1,24.1,20.1s22.1,6,26.1,14.1c4,8,2,16.1,2,20.1
									s10,18.1,12,22.1s12,18.1,12,24.1c0,0,0,4,2,6s12,6,12,6s4-10,8-14.1c4-4,10-10,10-10s-12-12-14.1-18.1c-2-6-8-14.1-2-12
									c6,2,8,4,12,0s4-8,10-8c5.8,0,15.5-1.8,14.1,9.2l23.5-18.5c-3.4-1-3.4-2.4-3.4-6.8c0-8-2-10,2-16.1c4-6,8-12,8-14.1
									c0-2,0-8,4-10s6-10,10-14.1c4-4,12-12,12-12s18.1,10,20.1,10s-4,4-2,6s6,6,8,10c2,4,4,6,4,6s16.1-6,18.1-8s14.1-6,22.1,0
									s20.1,12,24.1,16.1c4,4,16.1,14.1,16.1,14.1s3.2-0.8,5.6,1.2c5.8,0,11.8,0,16.5,0.8c12,2,34.1,10,42.2,4
									c4.4-3.4,8.8-7.2,12-10c-0.4-4.4-2.4-7-6-14.1c-4-8,0-12,4-16.1c2-2,5.2-5.2,8.4-8c-1.6-1.2-3.6-2.6-6.4-4
									c-8-4-32.1-20.1-32.1-34.1s6-34.1,18.1-44.2c12-10,16.1-18.1,30.1-16.1s46.2,6,46.2,6l16.1,10l82.3,18.1
									c0,0,44.2,12,26.1-18.1c0,0-4-8-8-10s-10-10,2-16.1c12-6,22.1-22.1,22.1-22.1l77.9-9h-690c0,2.2-0.2,4.4-0.4,6.8
									c-2.2-2.4-4.2-4.6-6.4-6.8h-25.9c0.2,1,0.4,2,0.8,3c1.4,6.8,3,13.6,4.4,20.1c-1.8,1.4-2.8,2.8-3.6,2.8
									c-10-2.4-19.3,2.8-28.7,4.6c-5.4,1-10.8,4.8-14.3,12c-5.2,11-13.2,17.5-23.1,20.9c-3,1-6.2,2.2-10.2,3.8
									c1,14.5-10.2,10.8-15.3,17.1c-7.6,9.2-14.9-0.4-22.5,0.4c0.4,5,0.6,8.8,0.8,13.2c-3.8,0.4-7.4,2.2-10,1
									c-8.2-4.6-15.7-0.8-24.7,2.2c2.2,3.8,3.6,7,5.6,9.6c1,1.2,3,1,4.6,1.2c11.6,1.8,19.3,11,25.9,21.9c1.6,2.6,3,6,3,9.2
									c0.2,10.2,0.6,20.5-4.8,29.9c-2,0.4-4,1.2-6.2,1.2c-17.7-0.8-35.7-0.4-53.2-3.2c-10.2-1.8-17.5,1.8-24.3,7.4
									c1.6,11.4,4.4,21.7,3.8,31.5s-4.6,19.3-7.4,29.7c2,3.4,5,6.6,6.2,10.8c1.2,4,0.8,9,1,14.1c5.4,0,10.2,0.6,15.1-0.2
									c5.6-1,9.4,0.8,12.2,7c1.6,3.6,3.8,6.6,5.4,9.6c-0.6,2.6-1.4,5-2,7.4h9.8C355.4,261.5,353.4,259.1,353.4,254.9z
									 M809.1,114.4c2-6,4-10,10-12s20.1-2,24.1-6c0,0,2,16.1-2,18.1s-4,6-12,4C821.1,116.4,807.1,120.4,809.1,114.4z"/>
							</g>
						</g>
					</g>
				</g>
			</g>
		</g>
	</g>
</g>
<g>
	<g>
		<g>
			<g>
				<g>
					<g>
						<g>
							<g>
								<defs>
									<rect id="SVGID_00000147932854074741920760000003414465528731120270_" y="0" width="1920" height="700"/>
								</defs>
								<clipPath id="SVGID_00000054948012790510467530000000455849507689681549_">
									<use xlink:href="#SVGID_00000147932854074741920760000003414465528731120270_"  style="overflow:visible;"/>
								</clipPath>
								
									<linearGradient id="SVGID_00000088091328798122227160000013023825653221648293_" gradientUnits="userSpaceOnUse" x1="591.8501" y1="1633.5001" x2="591.8501" y2="1999.4" gradientTransform="matrix(1 0 0 1 0 -1276)">
									<stop  offset="0.3995" style="stop-color:#CAD2DB"/>
									<stop  offset="1" style="stop-color:#E1E7EF"/>
								</linearGradient>
								
									<path style="clip-path:url(#SVGID_00000054948012790510467530000000455849507689681549_);fill:url(#SVGID_00000088091328798122227160000013023825653221648293_);" d="
									M881.4,708.5l8-6l72.3-62.2l-60.2-2l-14.1-8c0,0,16.1-38.1,16.1-42.2c0-1.6-1.4-4-3-6.2c0.6,3.6,1,6.2,1,6.2
									s-10-8-16.1-16.1c-6-8-20.1-18.1-26.1-28.1s-6-18.1-8-28.1c-0.6-3.4-2-5.8-3.8-7.8c-2.4,3-6.2,8.4-6.2,9.8c0,2-4,8-4,16.1
									c0,8-2,14.1-6,14.1s-10,2-10,8s2,10-2,12s-8,2-8,8s2,16.1-2,8c-4-8-6-16.1-8-16.1s-2-4-2-8s0-8,0-8s-16.1,2-14.1,8s6,8,2,12
									s-12,8-12,8s-6,4-12,2s-8-4-10,0s-2,8-10,8s-24.1,2-24.1,2s-8,2-10-2s-14.1-16.1-16.1-6c-2,10-10,16.1-16.1,16.1
									c-6,0-8-2-6-8s0-10-2-12s-8-6-6-12s0-6-2-8s-12-10-12-10s0-2,2-4s6-6,8-14.1c2-8,8-12,12-14.1c4-2,4-2,4-6s-4-22.1-4-22.1
									s0-6,2-6s0-4,0-6s-2-8-2-8s0-4-6-6s-74.3-38.1-76.3-40.1s-14.1-6-18.1-2s-8,8-16.1,4c-8-4-14.1-8-14.1-8s-2-4-16.1,2
									c-14.1,6-46.2,22.1-46.2,22.1v12c0,0-32.1,8-26.1-6c0,0,2-6-4-6s-8-2-10-4s-6-4-6-4s-4-4-4-6s0-2-2-6s-50.2-58.2-50.2-58.2
									l-16.1-6c0,0-6,94.3-6,102.4s-2,16.1-8,14.1s-38.1-10-42.2-12c0,0-8-8-12-4s-4,10-8,2s-6-16.1-6-20.1s2-4-8-8
									c-8-3.2-21.1-7.6-26.1-9.4c-8.4,10.2-11,25.1-17.5,36.9c-1,2-0.6,5.2-0.8,8c3,4.2,5.8,8.2,8.6,12.4c-2,6.8-2.2,13,0.4,19.7
									c1.8,4.6,2.2,10.8,1.6,15.9c-0.8,7.4-4,14.3-4.6,21.7c-0.6,8.6-5.4,14.3-9,21.3c9,9.4,4.8,22.1,6.6,33.1
									c9.6,11.2,18.9,22.7,28.7,33.1c5.6,6,9.8,12,10.8,21.9c0.4,5,3.4,9.8,4.4,12c12.2,10.6,23.5,19.1,33.3,29.5
									c8,8.4,16.3,15.5,26.5,18.7c1.8-0.8,3.2-1.4,4.8-2.2c16.9-9.8,33.9-12.4,52-6c3.2,1.2,7.4,0.4,10.8-1
									c9.6-3.8,19.7-7.4,28.7-13c7.2-4.6,14.3-5.4,21.9-6.2c13-1.6,23.5,1.2,27.9,19.7c1.8,7.4,6.6,10.4,12.8,9.4
									c7.4-1.2,14.9-2.6,22.3-4c2.6,3,4.6,6.4,7.4,8.4c4,3,6,6.8,6.6,11.6h416.7c0.2-0.2,0.4-0.4,0.6-0.8L881.4,708.5z"/>
							</g>
						</g>
					</g>
				</g>
			</g>
		</g>
	</g>
</g>
<g>
	<g>
		<g>
			<g>
				<g>
					<g>
						<g>
							<g>
								<defs>
									<rect id="SVGID_00000176022371628015771790000007084521380185670841_" y="0" width="1920" height="700"/>
								</defs>
								<clipPath id="SVGID_00000139263179995325066300000003552159749731304355_">
									<use xlink:href="#SVGID_00000176022371628015771790000007084521380185670841_"  style="overflow:visible;"/>
								</clipPath>
								<path style="clip-path:url(#SVGID_00000139263179995325066300000003552159749731304355_);fill:#E0E6EE;" d="M722.8,186.6
									l6,2c8,4,10-2,10-2C734.8,180.6,722.8,186.6,722.8,186.6z"/>
							</g>
						</g>
					</g>
				</g>
			</g>
		</g>
	</g>
</g>
<g>
	<g>
		<g>
			<g>
				<g>
					<g>
						<g>
							<g>
								<defs>
									<rect id="SVGID_00000052082844158652514400000009023814244223187855_" y="0" width="1920" height="700"/>
								</defs>
								<clipPath id="SVGID_00000143576039584978189490000012579622672341071799_">
									<use xlink:href="#SVGID_00000052082844158652514400000009023814244223187855_"  style="overflow:visible;"/>
								</clipPath>
								<g id="Layer_3" style="clip-path:url(#SVGID_00000143576039584978189490000012579622672341071799_);">
									<circle class="st20" cx="996.8" cy="406.4" r="6"/>
									<circle class="st20" cx="950.6" cy="346.2" r="6"/>
									<circle class="st20" cx="1033.3" cy="417.9" r="6"/>
									<circle class="st20" cx="1045.4" cy="405.8" r="6"/>
									<g>
										<path class="st21" d="M809.8,180.4v-18.5l-9,15.3h-3.4l-9-14.9v18.1h-6.6v-30.9h6l11.6,19.3l11.4-19.3h5.8v30.9
											L809.8,180.4L809.8,180.4z"/>
										<path class="st21" d="M821.4,149.5c0-2.2,1.8-3.8,4.2-3.8c2.6,0,4.2,1.6,4.2,3.8s-1.8,4-4.2,4
											C823,153.3,821.4,151.7,821.4,149.5z M822.2,156.5h6.8v23.9h-6.8V156.5z"/>
										<path class="st21" d="M858.5,147.7v32.7h-6.6v-2.8c-1.8,2-4.2,3-7.4,3c-6.6,0-11.8-4.8-11.8-12.2s5.2-12.2,11.8-12.2
											c3,0,5.4,1,7,2.8v-11.4L858.5,147.7L858.5,147.7z M851.9,168.5c0-4-2.6-6.6-6-6.6s-6,2.4-6,6.6s2.6,6.6,6,6.6
											C849.1,175,851.9,172.6,851.9,168.5z"/>
										<path class="st21" d="M888,147.7v32.7h-6.6v-2.8c-1.8,2-4.2,3-7.4,3c-6.6,0-11.8-4.8-11.8-12.2s5.2-12.2,11.8-12.2
											c3,0,5.4,1,7,2.8v-11.4L888,147.7L888,147.7z M881.2,168.5c0-4-2.6-6.6-6-6.6s-6,2.4-6,6.6s2.6,6.6,6,6.6
											C878.6,175,881.2,172.6,881.2,168.5z"/>
										<path class="st21" d="M893.3,147.7h6.8v32.7h-6.8V147.7z"/>
										<path class="st21" d="M928.6,170.4h-18.1c0.6,3,3.2,4.8,6.8,4.8c2.4,0,4.4-0.8,6-2.2l3.6,4c-2.2,2.4-5.6,3.8-9.8,3.8
											c-8.2,0-13.6-5.2-13.6-12.2s5.4-12.2,12.6-12.2c7,0,12.4,4.6,12.4,12.2C928.8,169.2,928.6,169.8,928.6,170.4z
											 M910.5,166.3h11.6c-0.4-3-2.8-5-5.8-5C913.3,161.5,911.1,163.3,910.5,166.3z"/>
										<path class="st21" d="M968.1,174.6v5.8h-23.9v-30.9h23.3v5.8h-16.3v6.6h14.5v5.6h-14.5v7.2L968.1,174.6L968.1,174.6z"/>
										<path class="st21" d="M993.2,166.7v13.6h-6.4v-3c-1.2,2.2-3.8,3.2-7.2,3.2c-5.6,0-8.8-3-8.8-7.2s3-7,10.2-7h5.4
											c0-3-1.8-4.6-5.4-4.6c-2.4,0-5,0.8-6.8,2.2l-2.4-4.8c2.6-1.8,6.4-2.8,10.2-2.8C989,156.3,993.2,159.5,993.2,166.7z
											 M986.2,172.8v-2.4h-4.6c-3.2,0-4.2,1.2-4.2,2.8c0,1.8,1.4,2.8,3.8,2.8S985.6,175,986.2,172.8z"/>
										<path class="st21" d="M996,178.2l2.2-5c2.2,1.4,5.4,2.2,8.2,2.2c3.2,0,4.4-0.8,4.4-2.2c0-3.8-14.5,0-14.5-9.4
											c0-4.4,4-7.6,11-7.6c3.2,0,6.8,0.8,9,2l-2.2,4.8c-2.4-1.4-4.6-1.8-6.8-1.8c-3,0-4.4,1-4.4,2.2c0,4,14.5,0.2,14.5,9.4
											c0,4.4-4,7.6-11.2,7.6C1002.3,180.8,998.2,179.6,996,178.2z"/>
										<path class="st21" d="M1036,179.2c-1.4,1-3.4,1.6-5.6,1.6c-5.6,0-8.8-2.8-8.8-8.4v-10h-3.6v-5.2h3.6v-5.8h6.8v5.8h6v5.2
											h-6v9.6c0,2,1,3.2,3,3.2c1,0,2-0.2,2.8-0.8L1036,179.2z"/>
										<path class="st21" d="M1070.9,173.8h-14.5l-2.8,6.6h-7.4l13.9-30.9h7l13.9,30.9h-7.4L1070.9,173.8z M1068.7,168.3
											l-4.8-11.8l-4.8,11.8H1068.7z"/>
										<path class="st21" d="M1080.5,178.2l2.2-5c2.2,1.4,5.4,2.2,8.2,2.2c3.2,0,4.4-0.8,4.4-2.2c0-3.8-14.5,0-14.5-9.4
											c0-4.4,4-7.6,11-7.6c3.2,0,6.8,0.8,9,2l-2.2,4.8c-2.4-1.4-4.6-1.8-6.8-1.8c-3,0-4.4,1-4.4,2.2c0,4,14.5,0.2,14.5,9.4
											c0,4.4-4,7.6-11.2,7.6C1086.8,180.8,1082.7,179.6,1080.5,178.2z"/>
										<path class="st21" d="M1104.4,149.5c0-2.2,1.8-3.8,4.2-3.8c2.4,0,4.2,1.6,4.2,3.8s-1.8,4-4.2,4S1104.4,151.7,1104.4,149.5
											z M1105.2,156.5h6.8v23.9h-6.8V156.5z"/>
										<path class="st21" d="M1138.4,166.7v13.6h-6.4v-3c-1.2,2.2-3.8,3.2-7.2,3.2c-5.6,0-8.8-3-8.8-7.2s3-7,10.2-7h5.4
											c0-3-1.8-4.6-5.4-4.6c-2.4,0-5,0.8-6.8,2.2l-2.4-4.8c2.6-1.8,6.4-2.8,10.2-2.8C1134.1,156.3,1138.4,159.5,1138.4,166.7z
											 M1131.5,172.8v-2.4h-4.6c-3.2,0-4.2,1.2-4.2,2.8c0,1.8,1.4,2.8,3.8,2.8C1128.7,176,1130.7,175,1131.5,172.8z"/>
									</g>
									<polyline class="st22" points="996.8,405.4 1009.8,351.2 1019.9,351.2 									"/>
									<polyline class="st22" points="1046,405.4 1053,385.3 1065,385.3 									"/>
									<polyline class="st22" points="1055,448.6 1040.9,448.6 1034.9,420.5 									"/>
									<circle class="st23" cx="928.5" cy="404.4" r="6"/>
									<polyline class="st24" points="945.1,415.5 937.1,442.5 921.5,442.5 									"/>
									<circle class="st23" cx="958.6" cy="366.1" r="6"/>
									<polyline class="st24" points="960.2,363.3 968.7,320.1 982.7,320.1 									"/>
									<polyline class="st22" points="950.6,346.2 964.7,282 982.7,282 									"/>
									<polyline class="st24" points="928,400.4 919.6,331.6 905.5,331.6 									"/>
									<circle class="st20" cx="945.3" cy="414.4" r="6"/>
								</g>
							</g>
						</g>
					</g>
				</g>
			</g>
		</g>
	</g>
</g>
<g>
	<path d="M764.8,335.5l0.6-1.1c1,1,2.8,1.7,4.6,1.7c2.6,0,3.8-1.1,3.8-2.5c0-3.8-8.6-1.5-8.6-6.7c0-2.1,1.6-3.8,5.2-3.8
		c1.6,0,3.2,0.5,4.3,1.2l-0.5,1.2c-1.2-0.8-2.6-1.2-3.8-1.2c-2.6,0-3.7,1.1-3.7,2.5c0,3.8,8.6,1.5,8.6,6.6c0,2.1-1.6,3.8-5.2,3.8
		C767.9,337.3,765.8,336.6,764.8,335.5z"/>
	<path d="M787.2,333.5h-7.8l-1.7,3.7h-1.5l6.4-14h1.5l6.4,14h-1.6L787.2,333.5z M786.7,332.3l-3.4-7.5l-3.4,7.5H786.7z"/>
	<path d="M792.4,331.2v-8h1.5v8c0,3.3,1.6,4.8,4.3,4.8s4.3-1.5,4.3-4.8v-8h1.4v8c0,4-2.2,6.1-5.7,6.1
		C794.5,337.3,792.4,335.2,792.4,331.2z"/>
	<path d="M808.3,323.2h5.7c4.5,0,7.5,2.9,7.5,7s-3,7-7.5,7h-5.7V323.2z M814,335.9c3.7,0,6.1-2.4,6.1-5.7s-2.4-5.7-6.1-5.7h-4.1
		v11.4L814,335.9L814,335.9z"/>
	<path d="M824.8,323.2h1.5v14h-1.5V323.2z"/>
	<path d="M841.4,336.6c-0.6,0.5-1.4,0.7-2.2,0.7c-2,0-3.1-1.1-3.1-3.1v-6.4h-1.9v-1.2h1.9v-2.3h1.4v2.3h3.2v1.2h-3.2v6.3
		c0,1.2,0.6,1.9,1.8,1.9c0.6,0,1.2-0.2,1.6-0.5L841.4,336.6z"/>
	<path d="M851.9,330.7v6.5h-1.4v-1.6c-0.6,1.1-1.9,1.7-3.6,1.7c-2.4,0-3.8-1.2-3.8-3.1c0-1.6,1-3,4.1-3h3.3v-0.6c0-1.8-1-2.8-3-2.8
		c-1.4,0-2.6,0.5-3.5,1.2l-0.6-1.1c1.1-0.9,2.6-1.4,4.3-1.4C850.3,326.6,851.9,328,851.9,330.7z M850.5,334v-1.7h-3.3
		c-2,0-2.7,0.8-2.7,1.9c0,1.2,1,2,2.7,2C848.7,336.2,849.9,335.4,850.5,334z"/>
	<path d="M855.4,323.4c0-0.5,0.5-1,1-1s1,0.4,1,1s-0.4,1-1,1C855.9,324.4,855.4,323.9,855.4,323.4z M855.8,326.7h1.4v10.5h-1.4
		V326.7z"/>
	<path d="M870.8,331.1v6.1h-1.4v-6c0-2.2-1.2-3.4-3.2-3.4c-2.3,0-3.7,1.4-3.7,3.8v5.5h-1.4v-14.8h1.4v6.2c0.8-1.2,2.2-1.9,3.9-1.9
		C869,326.6,870.8,328.1,870.8,331.1z"/>
	<path d="M882.6,330.7v6.5h-1.4v-1.6c-0.6,1.1-1.9,1.7-3.6,1.7c-2.4,0-3.8-1.2-3.8-3.1c0-1.6,1-3,4.1-3h3.3v-0.6c0-1.8-1-2.8-3-2.8
		c-1.4,0-2.6,0.5-3.5,1.2l-0.6-1.1c1.1-0.9,2.6-1.4,4.3-1.4C881.1,326.6,882.6,328,882.6,330.7z M881.2,334v-1.7h-3.3
		c-2,0-2.7,0.8-2.7,1.9c0,1.2,1,2,2.7,2C879.5,336.2,880.6,335.4,881.2,334z"/>
	<path d="M896.2,331.1v6.1h-1.4v-6c0-2.2-1.2-3.4-3.2-3.4c-2.3,0-3.7,1.4-3.7,3.8v5.5h-1.4v-10.5h1.4v1.9c0.8-1.3,2.2-2,4-2
		C894.4,326.6,896.2,328.1,896.2,331.1z"/>
</g>
<g>
	<path d="M999.7,323.5c-0.6,0.5-1.4,0.7-2.2,0.7c-2,0-3.1-1.1-3.1-3.1v-6.4h-1.9v-1.2h1.9v-2.3h1.4v2.3h3.2v1.2h-3.2v6.3
		c0,1.2,0.6,1.9,1.8,1.9c0.6,0,1.2-0.2,1.6-0.5L999.7,323.5z"/>
	<path d="M1010.3,317.6v6.5h-1.4v-1.6c-0.6,1.1-1.9,1.7-3.6,1.7c-2.4,0-3.8-1.2-3.8-3.1c0-1.6,1-3,4.1-3h3.3v-0.6c0-1.8-1-2.8-3-2.8
		c-1.4,0-2.6,0.5-3.5,1.2l-0.6-1.1c1.1-0.9,2.6-1.4,4.3-1.4C1008.7,313.5,1010.3,314.9,1010.3,317.6z M1008.8,321v-1.7h-3.3
		c-2,0-2.7,0.8-2.7,1.9c0,1.2,1,2,2.7,2C1007.1,323.1,1008.3,322.4,1008.8,321z"/>
	<path d="M1013.8,310.3c0-0.5,0.5-1,1-1s1,0.4,1,1s-0.4,1-1,1C1014.3,311.3,1013.8,310.9,1013.8,310.3z M1014.1,313.6h1.4v10.5h-1.4
		V313.6z"/>
	<path d="M1029.2,318v6.1h-1.4v-6c0-2.2-1.2-3.4-3.2-3.4c-2.3,0-3.7,1.4-3.7,3.8v5.5h-1.4v-14.8h1.4v6.2c0.8-1.2,2.2-1.9,3.9-1.9
		C1027.4,313.5,1029.2,315,1029.2,318z"/>
	<path d="M1041,317.6v6.5h-1.4v-1.6c-0.6,1.1-1.9,1.7-3.6,1.7c-2.4,0-3.8-1.2-3.8-3.1c0-1.6,1-3,4.1-3h3.3v-0.6c0-1.8-1-2.8-3-2.8
		c-1.4,0-2.6,0.5-3.5,1.2l-0.6-1.1c1.1-0.9,2.6-1.4,4.3-1.4C1039.4,313.5,1041,314.9,1041,317.6z M1039.6,321v-1.7h-3.3
		c-2,0-2.7,0.8-2.7,1.9c0,1.2,1,2,2.7,2C1037.8,323.1,1039,322.4,1039.6,321z"/>
	<path d="M1054.5,318v6.1h-1.4v-6c0-2.2-1.2-3.4-3.2-3.4c-2.3,0-3.7,1.4-3.7,3.8v5.5h-1.4v-10.5h1.4v1.9c0.8-1.3,2.2-2,4-2
		C1052.8,313.5,1054.5,315,1054.5,318z"/>
	<path d="M1068.3,317.5l-2.9,2.9v3.7h-1.5v-14h1.5v8.5l8.2-8.5h1.7l-6.1,6.3l6.5,7.7h-1.8L1068.3,317.5z"/>
	<path d="M1086.9,313.6v10.5h-1.4v-1.9c-0.7,1.3-2.1,2-3.8,2c-2.7,0-4.4-1.5-4.4-4.5v-6.1h1.4v6c0,2.2,1.2,3.4,3.2,3.4
		c2.2,0,3.6-1.4,3.6-3.8v-5.5L1086.9,313.6L1086.9,313.6z"/>
	<path d="M1106.4,313.6l-4,10.5h-1.3l-3.3-8.6l-3.3,8.6h-1.3l-4-10.5h1.4l3.3,8.9l3.4-8.9h1.2l3.4,8.9l3.3-8.9H1106.4z"/>
	<path d="M1116.1,317.6v6.5h-1.4v-1.6c-0.6,1.1-1.9,1.7-3.6,1.7c-2.4,0-3.8-1.2-3.8-3.1c0-1.6,1-3,4.1-3h3.3v-0.6c0-1.8-1-2.8-3-2.8
		c-1.4,0-2.6,0.5-3.5,1.2l-0.6-1.1c1.1-0.9,2.6-1.4,4.3-1.4C1114.6,313.5,1116.1,314.9,1116.1,317.6z M1114.7,321v-1.7h-3.3
		c-2,0-2.7,0.8-2.7,1.9c0,1.2,1,2,2.7,2C1113,323.1,1114.1,322.4,1114.7,321z"/>
	<path d="M1119.7,310.3c0-0.5,0.5-1,1-1s1,0.4,1,1s-0.4,1-1,1S1119.7,310.9,1119.7,310.3z M1120,313.6h1.4v10.5h-1.4V313.6z"/>
	<path d="M1130.9,323.5c-0.6,0.5-1.4,0.7-2.2,0.7c-2,0-3.1-1.1-3.1-3.1v-6.4h-1.9v-1.2h1.9v-2.3h1.4v2.3h3.2v1.2h-3.2v6.3
		c0,1.2,0.6,1.9,1.8,1.9c0.6,0,1.2-0.2,1.6-0.5L1130.9,323.5z"/>
</g>
<g>
	<path d="M610.5,444.5l0.6-1.1c1,1,2.8,1.7,4.6,1.7c2.6,0,3.8-1.1,3.8-2.5c0-3.8-8.6-1.5-8.6-6.7c0-2.1,1.6-3.8,5.2-3.8
		c1.6,0,3.2,0.5,4.3,1.2l-0.5,1.2c-1.2-0.8-2.6-1.2-3.8-1.2c-2.6,0-3.7,1.1-3.7,2.5c0,3.8,8.6,1.5,8.6,6.6c0,2.1-1.6,3.8-5.2,3.8
		C613.6,446.3,611.5,445.6,610.5,444.5z"/>
	<path d="M631.8,439.7v6.5h-1.4v-1.6c-0.6,1.1-1.9,1.7-3.6,1.7c-2.4,0-3.8-1.2-3.8-3.1c0-1.6,1-3,4.1-3h3.3v-0.6c0-1.8-1-2.8-3-2.8
		c-1.4,0-2.6,0.5-3.5,1.2l-0.6-1.1c1.1-0.9,2.6-1.4,4.3-1.4C630.2,435.6,631.8,436.9,631.8,439.7z M630.3,443v-1.7H627
		c-2,0-2.7,0.8-2.7,1.9c0,1.2,1,2,2.7,2C628.6,445.2,629.8,444.4,630.3,443z"/>
	<path d="M645.1,435.7v10.5h-1.4v-1.9c-0.7,1.3-2.1,2-3.8,2c-2.7,0-4.4-1.5-4.4-4.5v-6.1h1.4v6c0,2.2,1.2,3.4,3.2,3.4
		c2.2,0,3.6-1.4,3.6-3.8v-5.5h1.4V435.7z"/>
	<path d="M658.7,431.3v14.8h-1.4V444c-0.9,1.4-2.3,2.2-4.1,2.2c-3,0-5.2-2.2-5.2-5.4s2.2-5.3,5.2-5.3c1.7,0,3.1,0.7,4,2.1v-6.3
		L658.7,431.3L658.7,431.3z M657.3,440.9c0-2.5-1.7-4.1-3.9-4.1s-3.9,1.6-3.9,4.1s1.7,4.1,3.9,4.1S657.3,443.4,657.3,440.9z"/>
	<path d="M662.3,432.3c0-0.5,0.5-1,1-1s1,0.4,1,1s-0.4,1-1,1C662.8,433.4,662.3,432.9,662.3,432.3z M662.6,435.7h1.4v10.5h-1.4
		V435.7z"/>
	<path d="M676.3,433.5h-4.9v-1.3h11.3v1.3h-4.9v12.7h-1.5L676.3,433.5L676.3,433.5z"/>
	<path d="M692.1,439.7v6.5h-1.4v-1.6c-0.6,1.1-1.9,1.7-3.6,1.7c-2.4,0-3.8-1.2-3.8-3.1c0-1.6,1-3,4.1-3h3.3v-0.6c0-1.8-1-2.8-3-2.8
		c-1.4,0-2.6,0.5-3.5,1.2l-0.6-1.1c1.1-0.9,2.6-1.4,4.3-1.4C690.6,435.6,692.1,436.9,692.1,439.7z M690.7,443v-1.7h-3.3
		c-2,0-2.7,0.8-2.7,1.9c0,1.2,1,2,2.7,2C688.9,445.2,690.1,444.4,690.7,443z"/>
	<path d="M695.6,432.3c0-0.5,0.5-1,1-1s1,0.4,1,1s-0.4,1-1,1C696.1,433.4,695.6,432.9,695.6,432.3z M696,435.7h1.4v10.5H696V435.7z"
		/>
	<path d="M711,440.1v6.1h-1.4v-6c0-2.2-1.2-3.4-3.2-3.4c-2.3,0-3.7,1.4-3.7,3.8v5.5h-1.4v-14.8h1.4v6.2c0.8-1.2,2.2-1.9,3.9-1.9
		C709.3,435.6,711,437.1,711,440.1z"/>
	<path d="M722.8,439.7v6.5h-1.4v-1.6c-0.6,1.1-1.9,1.7-3.6,1.7c-2.4,0-3.8-1.2-3.8-3.1c0-1.6,1-3,4.1-3h3.3v-0.6c0-1.8-1-2.8-3-2.8
		c-1.4,0-2.6,0.5-3.5,1.2l-0.6-1.1c1.1-0.9,2.6-1.4,4.3-1.4C721.3,435.6,722.8,436.9,722.8,439.7z M721.4,443v-1.7h-3.3
		c-2,0-2.7,0.8-2.7,1.9c0,1.2,1,2,2.7,2C719.7,445.2,720.8,444.4,721.4,443z"/>
	<path d="M736.4,440.1v6.1H735v-6c0-2.2-1.2-3.4-3.2-3.4c-2.3,0-3.7,1.4-3.7,3.8v5.5h-1.4v-10.5h1.4v1.9c0.8-1.3,2.2-2,4-2
		C734.6,435.6,736.4,437.1,736.4,440.1z"/>
	<path d="M744.5,439.2c0-4.1,3.1-7.1,7.3-7.1c2,0,3.9,0.7,5.1,2L756,435c-1.1-1.2-2.5-1.7-4.1-1.7c-3.4,0-5.9,2.5-5.9,5.8
		s2.5,5.8,5.9,5.8c1.6,0,3-0.5,4.1-1.7l0.9,0.9c-1.2,1.4-3.1,2.1-5.1,2.1C747.6,446.3,744.5,443.3,744.5,439.2z"/>
	<path d="M767.6,439.7v6.5h-1.4v-1.6c-0.6,1.1-1.9,1.7-3.6,1.7c-2.4,0-3.8-1.2-3.8-3.1c0-1.6,1-3,4.1-3h3.3v-0.6c0-1.8-1-2.8-3-2.8
		c-1.4,0-2.6,0.5-3.5,1.2l-0.6-1.1c1.1-0.9,2.6-1.4,4.3-1.4C766.1,435.6,767.6,436.9,767.6,439.7z M766.2,443v-1.7h-3.3
		c-2,0-2.7,0.8-2.7,1.9c0,1.2,1,2,2.7,2C764.5,445.2,765.6,444.4,766.2,443z"/>
	<path d="M782.1,440.9c0,3.2-2.2,5.4-5.2,5.4c-1.7,0-3.2-0.8-4.1-2.2v2.1h-1.4v-14.8h1.4v6.3c0.9-1.4,2.3-2.1,4-2.1
		C779.9,435.6,782.1,437.7,782.1,440.9z M780.7,440.9c0-2.5-1.7-4.1-3.9-4.1s-3.9,1.6-3.9,4.1s1.7,4.1,3.9,4.1
		S780.7,443.4,780.7,440.9z"/>
	<path d="M785,431.3h1.4v14.8H785V431.3z"/>
	<path d="M799.6,441.4h-8.8c0.2,2.2,1.8,3.7,4.1,3.7c1.3,0,2.4-0.5,3.2-1.4l0.8,0.9c-0.9,1.1-2.4,1.7-4.1,1.7
		c-3.3,0-5.5-2.2-5.5-5.4c0-3.1,2.2-5.3,5.1-5.3c3,0,5.1,2.2,5.1,5.3C799.6,441,799.6,441.2,799.6,441.4z M790.8,440.3h7.5
		c-0.2-2.1-1.7-3.5-3.7-3.5C792.5,436.8,791,438.2,790.8,440.3z"/>
	<path d="M818.1,446.4l-1.9-2c-1.2,1.3-2.8,1.9-4.7,1.9c-2.7,0-4.7-1.4-4.7-3.6c0-1.7,1-2.9,3.5-4.4c-1.4-1.4-1.8-2.2-1.8-3.3
		c0-1.8,1.4-3,3.5-3c2,0,3.3,1,3.3,2.8c0,1.4-0.8,2.4-3.1,3.7l3.8,4c0.4-0.7,0.7-1.6,0.9-2.7l1.2,0.4c-0.3,1.3-0.7,2.3-1.2,3.2
		l2,2.1L818.1,446.4z M815.3,443.5l-4.2-4.3c-2.2,1.3-2.9,2.2-2.9,3.4c0,1.5,1.4,2.5,3.4,2.5C813,445.1,814.3,444.6,815.3,443.5z
		 M809.8,435c0,0.8,0.3,1.4,1.6,2.7c2-1.2,2.7-1.9,2.7-2.9s-0.7-1.7-2-1.7C810.6,433.1,809.8,433.9,809.8,435z"/>
	<path d="M825.3,444.5l0.6-1.1c1,1,2.8,1.7,4.6,1.7c2.6,0,3.8-1.1,3.8-2.5c0-3.8-8.6-1.5-8.6-6.7c0-2.1,1.6-3.8,5.2-3.8
		c1.6,0,3.2,0.5,4.3,1.2l-0.5,1.2c-1.2-0.8-2.6-1.2-3.8-1.2c-2.6,0-3.7,1.1-3.7,2.5c0,3.8,8.6,1.5,8.6,6.6c0,2.1-1.6,3.8-5.2,3.8
		C828.4,446.3,826.4,445.6,825.3,444.5z"/>
	<path d="M837.6,440.9c0-3.1,2.3-5.3,5.4-5.3s5.3,2.2,5.3,5.3c0,3.1-2.3,5.4-5.3,5.4S837.6,444,837.6,440.9z M846.9,440.9
		c0-2.5-1.7-4.1-3.9-4.1s-3.9,1.6-3.9,4.1s1.7,4.1,3.9,4.1S846.9,443.4,846.9,440.9z"/>
	<path d="M851.2,431.3h1.4v14.8h-1.4V431.3z"/>
	<path d="M866.1,435.7v10.5h-1.4v-1.9c-0.7,1.3-2.1,2-3.8,2c-2.7,0-4.4-1.5-4.4-4.5v-6.1h1.4v6c0,2.2,1.2,3.4,3.2,3.4
		c2.2,0,3.6-1.4,3.6-3.8v-5.5h1.4V435.7z"/>
	<path d="M875.6,445.5c-0.6,0.5-1.4,0.7-2.2,0.7c-2,0-3.1-1.1-3.1-3.1v-6.4h-1.9v-1.2h1.9v-2.3h1.4v2.3h3.2v1.2h-3.2v6.3
		c0,1.2,0.6,1.9,1.8,1.9c0.6,0,1.2-0.2,1.6-0.5L875.6,445.5z"/>
	<path d="M877.8,432.3c0-0.5,0.5-1,1-1s1,0.4,1,1s-0.4,1-1,1C878.3,433.4,877.8,432.9,877.8,432.3z M878.1,435.7h1.4v10.5h-1.4
		V435.7z"/>
	<path d="M882.5,440.9c0-3.1,2.3-5.3,5.4-5.3s5.3,2.2,5.3,5.3c0,3.1-2.3,5.4-5.3,5.4S882.5,444,882.5,440.9z M891.7,440.9
		c0-2.5-1.7-4.1-3.9-4.1s-3.9,1.6-3.9,4.1s1.7,4.1,3.9,4.1C890.1,445,891.7,443.4,891.7,440.9z"/>
	<path d="M905.8,440.1v6.1h-1.4v-6c0-2.2-1.2-3.4-3.2-3.4c-2.3,0-3.7,1.4-3.7,3.8v5.5h-1.4v-10.5h1.4v1.9c0.8-1.3,2.2-2,4-2
		C904,435.6,905.8,437.1,905.8,440.1z"/>
</g>
<polyline class="st22" points="937.1,442.5 930.9,463.5 915.3,463.5 "/>
<g>
	<g>
		<g>
			<g>
				<g>
					<g>
						<defs>
							<rect id="SVGID_00000004505112138642114590000005222564880305086384_" x="937.3" y="407.9" width="8.2" height="12.9"/>
						</defs>
						<clipPath id="SVGID_00000173882240765268622590000007403429801169719486_">
							<use xlink:href="#SVGID_00000004505112138642114590000005222564880305086384_"  style="overflow:visible;"/>
						</clipPath>
						
							<circle style="clip-path:url(#SVGID_00000173882240765268622590000007403429801169719486_);fill:#5D6FCC;" cx="945.2" cy="414.4" r="6"/>
					</g>
				</g>
			</g>
		</g>
	</g>
</g>
<g>
	<path d="M824.2,464.7l-1,1.3c-1.9-1-3.5-3.1-4.3-5.6c-0.8,2.7-2.4,4.8-4.5,5.9l-1-1.3c2.6-1.3,4.6-4.8,4.6-8v-3.2h1.6v3.2
		C819.6,460.1,821.7,463.4,824.2,464.7z M827.4,470.1h-1.6v-17.9h1.6v7.3h3v1.4h-3V470.1z"/>
	<path d="M840.9,470.2h-1.6v-6.3H832v-1.4h16.2v1.4h-7.3V470.2z M833.8,456.8c0-2.4,2.5-3.9,6.3-3.9s6.3,1.5,6.3,3.9
		s-2.5,3.9-6.3,3.9S833.8,459.2,833.8,456.8z M835.5,456.8c0,1.6,1.9,2.6,4.6,2.6c2.7,0,4.6-1,4.6-2.6s-1.9-2.6-4.6-2.6
		C837.4,454.2,835.5,455.2,835.5,456.8z"/>
	<path d="M861.6,463.7l0.2,1.4c-2.8,0.5-5.1,0.6-8.7,0.6h-1.4v-11.8h8.5v1.4h-6.9v9C856.7,464.3,858.9,464.2,861.6,463.7z
		 M863.5,470.2v-18h1.6v18H863.5z"/>
	<path d="M884.5,464.9l-0.9,1.3c-2.1-1-3.8-3-4.7-5.5c-0.8,2.6-2.6,4.9-4.6,5.9l-1-1.3c2.6-1.2,4.8-4.6,4.8-7.7v-2.3h-4.2V454h10
		v1.4h-4.2v2.3C879.7,460.7,881.9,463.8,884.5,464.9z M886.3,470.1v-17.9h1.6v17.9H886.3z"/>
	<path d="M902.3,464.7l-1,1.3c-1.9-1-3.5-3.1-4.3-5.6c-0.8,2.7-2.4,4.8-4.5,5.9l-1-1.3c2.6-1.3,4.6-4.8,4.6-8v-3.2h1.6v3.2
		C897.7,460.1,899.8,463.4,902.3,464.7z M905.5,470.1h-1.6v-17.9h1.6v7.3h3v1.4h-3V470.1z"/>
</g>
<g>
	<path d="M1001.3,289.8h-1.6v-6.9h-7.3v-1.3h11.9c0.3-1.3,0.5-2.4,0.5-3.4l-10.7,0.5l-0.2-1.4l11-0.4c0-0.4,0-0.8,0-1.1v-1.4h-10.5
		V273h12.1v1.6c0,1.9,0,4-0.6,6.9h2.7v1.3h-7.3L1001.3,289.8L1001.3,289.8z"/>
	<path d="M1016,282.2v6.1h-1.6v-6c-1.4,0.1-2.7,0.1-3.7,0.1l-0.2-1.4c2.5,0,6.5,0,9.3-0.5l0.1,1.2
		C1018.7,282,1017.3,282.1,1016,282.2z M1011.4,276.3c0-2,1.6-3.3,3.9-3.3c2.2,0,3.9,1.3,3.9,3.3c0,1.9-1.7,3.3-3.9,3.3
		C1013,279.6,1011.4,278.2,1011.4,276.3z M1012.8,276.3c0,1.2,1,2.1,2.4,2.1s2.4-0.8,2.4-2.1c0-1.2-1-2.1-2.4-2.1
		S1012.8,275.1,1012.8,276.3z M1022.5,288.9h-1.5v-4h-3.4v-1.3h3.4v-11.3h1.5V288.9z M1024.4,289.8v-17.9h1.6v17.9H1024.4z"/>
	<path d="M1038.9,279.5c0,3.8-1.9,6.3-4.6,6.3s-4.6-2.4-4.6-6.3c0-3.8,1.9-6.3,4.6-6.3S1038.9,275.7,1038.9,279.5z M1031.4,279.5
		c0,2.9,1.2,4.8,3,4.8c1.7,0,3-1.9,3-4.8s-1.2-4.8-3-4.8S1031.4,276.6,1031.4,279.5z M1042.2,289.8v-18h1.6v18H1042.2z"/>
	<path d="M1047.5,287.5v-1.3h16.3v1.3H1047.5z M1049.6,273.4h12.1v1.3h-10.5v2.7h10.1v1.3h-10.1v2.8h10.7v1.3h-12.3L1049.6,273.4
		L1049.6,273.4z"/>
	<path d="M1081.6,284.6l-0.9,1.3c-2.1-1-3.8-3-4.7-5.5c-0.8,2.6-2.6,4.9-4.6,5.9l-1-1.3c2.6-1.2,4.8-4.6,4.8-7.7V275h-4.2v-1.4h10
		v1.4h-4.2v2.3C1076.8,280.4,1079,283.5,1081.6,284.6z M1083.5,289.8v-17.9h1.6v17.9H1083.5z"/>
	<path d="M1099.4,284.3l-1,1.3c-1.9-1-3.5-3.1-4.3-5.6c-0.8,2.7-2.4,4.8-4.5,5.9l-1-1.3c2.6-1.3,4.6-4.8,4.6-8v-3.2h1.6v3.2
		C1094.8,279.8,1096.9,283,1099.4,284.3z M1102.6,289.8h-1.6v-17.9h1.6v7.3h3v1.4h-3V289.8z"/>
</g>
<g>
	<path d="M1030.4,355l-0.9-1.3c3.3-1.7,5.3-3.7,6.4-6.1l-6,0.6l-0.3-1.4l6.8-0.5c0.3-1,0.5-2,0.5-3.1h-6.5v-1.3h8.1
		C1038.6,347,1036.8,351.8,1030.4,355z M1043.2,357.9h-1.6V340h1.6v7.3h2.9v1.4h-2.9V357.9z"/>
	<path d="M1058.3,351.7l0.2,1.3c-2.8,0.5-5.1,0.6-8.5,0.6h-1.4v-12h8.4v1.3h-6.7v3.7h6.3v1.3h-6.3v4.3
		C1053.4,352.3,1055.6,352.1,1058.3,351.7z M1061.6,357.9h-1.6V340h1.6v7.2h3v1.4h-3V357.9z"/>
	<path d="M1066.1,355.7v-1.4h16.3v1.4H1066.1z M1068.1,341.4h12.3v5.4h-10.6v2.9h11v1.3h-12.7v-5.6h10.6v-2.8H1068L1068.1,341.4
		L1068.1,341.4z"/>
	<path d="M1100.3,352.7l-0.9,1.3c-2.1-1-3.8-3-4.7-5.5c-0.8,2.6-2.6,4.9-4.6,5.9l-1-1.3c2.6-1.2,4.8-4.6,4.8-7.7v-2.3h-4.2v-1.4h10
		v1.4h-4.2v2.3C1095.5,348.5,1097.6,351.6,1100.3,352.7z M1102.1,357.9V340h1.6v17.9H1102.1z"/>
	<path d="M1118,352.4l-1,1.3c-1.9-1-3.5-3.1-4.3-5.6c-0.8,2.7-2.4,4.8-4.5,5.9l-1-1.3c2.6-1.3,4.6-4.8,4.6-8v-3.2h1.6v3.2
		C1113.5,347.9,1115.5,351.2,1118,352.4z M1121.3,357.9h-1.6V340h1.6v7.3h3v1.4h-3V357.9z"/>
</g>
<g>
	<path d="M1083.9,392.2h-1.6V386h-7.3v-1.3h16.3v1.3h-7.4V392.2z M1077.2,375.4h11.8v1.3h-10.1v4.3h10.3v1.3h-12L1077.2,375.4
		L1077.2,375.4z"/>
	<path d="M1102.5,388h-8.3v-12.1h1.6v4.7h5.1v-4.7h1.6L1102.5,388L1102.5,388z M1095.8,386.6h5.1v-4.7h-5.1V386.6z M1107.2,392.3
		h-1.6v-17.9h1.6v7h3v1.4h-3V392.3z"/>
	<path d="M1121.6,382c0,3.8-1.9,6.3-4.6,6.3s-4.6-2.4-4.6-6.3c0-3.8,1.9-6.3,4.6-6.3S1121.6,378.2,1121.6,382z M1114,382
		c0,2.9,1.2,4.8,3,4.8c1.7,0,3-1.9,3-4.8s-1.2-4.8-3-4.8C1115.3,377.2,1114,379.1,1114,382z M1124.9,392.3v-18h1.6v18H1124.9z"/>
	<path d="M1145.9,387.1l-0.9,1.3c-2.1-1-3.8-3-4.7-5.5c-0.8,2.6-2.6,4.9-4.6,5.9l-1-1.3c2.6-1.2,4.8-4.6,4.8-7.7v-2.3h-4.2v-1.4h10
		v1.4h-4.2v2.3C1141.1,382.9,1143.3,386,1145.9,387.1z M1147.7,392.3v-17.9h1.6v17.9H1147.7z"/>
	<path d="M1163.7,386.8l-1,1.3c-1.9-1-3.5-3.1-4.3-5.6c-0.8,2.7-2.4,4.8-4.5,5.9l-1-1.3c2.6-1.3,4.6-4.8,4.6-8v-3.2h1.6v3.2
		C1159.1,382.3,1161.2,385.5,1163.7,386.8z M1166.9,392.3h-1.6v-17.9h1.6v7.3h3v1.4h-3V392.3z"/>
</g>
<g>
	<path d="M1074.6,446.7c0,3.8-1.9,6.3-4.5,6.3c-2.7,0-4.5-2.4-4.5-6.3c0-3.8,1.9-6.3,4.5-6.3
		C1072.8,440.4,1074.6,442.8,1074.6,446.7z M1073.1,446.7c0-2.9-1.2-4.8-2.9-4.8c-1.7,0-3,1.9-3,4.8s1.2,4.8,3,4.8
		C1071.8,451.5,1073.1,449.6,1073.1,446.7z M1079.2,457h-1.6v-18h1.6v7.1h3v1.4h-3V457z"/>
	<path d="M1092.7,457h-1.6v-6h-7.3v-1.3h16.3v1.3h-7.4V457z M1085.8,439.7h1.6v2.5h8.9v-2.5h1.6v7.8h-12.2L1085.8,439.7
		L1085.8,439.7z M1087.4,446.2h8.9v-2.6h-8.9V446.2z"/>
	<path d="M1112.6,450.5l0.2,1.4c-2.7,0.5-5.1,0.6-8.5,0.6h-1.4v-11.8h8.3v1.4h-6.7v9C1107.8,451.1,1110.1,451,1112.6,450.5z
		 M1116,457h-1.6v-18h1.6v7.1h3v1.4h-3V457z"/>
	<path d="M1128.4,445.3v-4.7h1.6v12.1h-8.4v-12.1h1.6v4.7H1128.4z M1128.4,446.6h-5.2v4.7h5.2V446.6z M1133.6,457v-18h1.6v18H1133.6
		z"/>
	<path d="M1154.6,451.8l-0.9,1.3c-2.1-1-3.8-3-4.7-5.5c-0.8,2.6-2.6,4.9-4.6,5.9l-1-1.3c2.6-1.2,4.8-4.6,4.8-7.7v-2.3h-4.2v-1.4h10
		v1.4h-4.2v2.3C1149.8,447.5,1152,450.6,1154.6,451.8z M1156.5,457v-18h1.6v18H1156.5z"/>
	<path d="M1172.4,451.5l-1,1.3c-1.9-1-3.5-3.1-4.3-5.6c-0.8,2.7-2.4,4.8-4.5,5.9l-1-1.3c2.6-1.3,4.6-4.8,4.6-8v-3.2h1.6v3.2
		C1167.9,446.9,1169.9,450.2,1172.4,451.5z M1175.6,457h-1.6v-18h1.6v7.3h3v1.4h-3V457z"/>
</g>
<circle class="st23" cx="1591.9" cy="79.5" r="6"/>
<circle class="st20" cx="1591.9" cy="109.4" r="6"/>
<g>
	<path d="M1614.7,76.4c-0.6,1.5-1.7,2.9-3.3,3.6l-0.8-1.2c2.1-0.9,3.4-3,3.4-4.8v-2.2h1.4V74c0,1.8,1.2,3.6,3.3,4.4l-0.8,1.1
		C1616.4,78.9,1615.3,77.7,1614.7,76.4z M1624.3,84c0,1.8-2.1,2.9-5.4,2.9c-3.3,0-5.4-1.1-5.4-2.9s2.1-2.9,5.4-2.9
		C1622.2,81.1,1624.3,82.2,1624.3,84z M1622.9,84c0-1.2-1.5-1.7-3.9-1.7s-3.9,0.6-3.9,1.7s1.5,1.8,3.9,1.8S1622.9,85.2,1622.9,84z
		 M1619.4,71.1h1.4v4h2.1v-4.3h1.4v10h-1.4v-4.4h-2.1v3.9h-1.4V71.1z"/>
	<path d="M1631.9,76.4c-0.7,1.9-2.1,3.4-4,4.1l-0.8-1.2c2.5-0.9,4-3,4-5.5v-2h1.5v2c0,2.2,1.6,4.2,4,5.1l-0.7,1.2
		C1634.1,79.4,1632.6,78.1,1631.9,76.4z M1640.4,86.6h-10.7v-5h1.5v3.8h9.2V86.6z M1639.7,77v5.7h-1.5V70.8h1.5v5h2.4V77H1639.7z"/>
	<path d="M1659.6,79.6V76h-3.7v3h-7.3v-7.4h1.5v2.5h4.4v-2.5h1.5v3.1h3.7v-4h1.5v8.8H1659.6z M1650.1,77.8h4.4v-2.6h-4.4V77.8z
		 M1661.1,86.7h-10.3v-6.3h1.5v1.9h7.4v-1.9h1.5V86.7z M1652.2,85.5h7.4v-2h-7.4V85.5z"/>
	<path d="M1668.9,79.9c-2.4,0-4.2-1.7-4.2-4c0-2.3,1.8-4,4.2-4c2.4,0,4.2,1.6,4.2,4C1673.1,78.2,1671.3,79.9,1668.9,79.9z
		 M1668.9,78.6c1.6,0,2.8-1.1,2.8-2.7c0-1.6-1.2-2.7-2.8-2.7c-1.6,0-2.8,1.1-2.8,2.7C1666.2,77.5,1667.3,78.6,1668.9,78.6z
		 M1667.2,86.6v-5.2h1.5v4h9.4v1.2H1667.2z M1676.1,70.8h1.5v11.8h-1.5V70.8z"/>
	<path d="M1618.6,104.7h-8v-1.2h3.3v-2.3h1.5v2.3h3.3V104.7z M1618.1,109.5c0,2.2-1.5,3.7-3.5,3.7c-2,0-3.5-1.5-3.5-3.7
		c0-2.2,1.5-3.7,3.5-3.7C1616.6,105.8,1618.1,107.3,1618.1,109.5z M1616.8,109.5c0-1.4-0.9-2.4-2.1-2.4c-1.3,0-2.1,1-2.1,2.4
		s0.9,2.5,2.1,2.5S1616.8,110.9,1616.8,109.5z M1622.9,116.9v-8.1h-2.1v7.3h-1.4v-15h1.4v6.4h2.1v-6.8h1.4v16.2H1622.9z"/>
	<path d="M1637.8,111.7l0.1,1.1c-3.7,0.7-7.5,0.7-10.5,0.7l-0.2-1.2c1.3,0,2.8,0,4.4-0.1v-2.8c-2.1-0.3-3.6-1.7-3.6-3.8
		c0-2.3,1.8-3.8,4.3-3.8c2.5,0,4.3,1.5,4.3,3.8c0,2-1.5,3.5-3.6,3.8v2.7C1634.7,112,1636.3,111.9,1637.8,111.7z M1632.4,108.2
		c1.7,0,2.9-1,2.9-2.6c0-1.5-1.2-2.5-2.9-2.5c-1.7,0-2.9,1-2.9,2.5C1629.6,107.1,1630.8,108.2,1632.4,108.2z M1638.9,117v-16.2h1.5
		V117H1638.9z"/>
	<path d="M1657.9,112.3l-0.8,1.2c-1.9-0.9-3.5-2.7-4.2-4.9c-0.7,2.3-2.4,4.4-4.2,5.3l-0.9-1.2c2.3-1.1,4.3-4.1,4.3-6.9v-2.1h-3.7
		v-1.2h9v1.2h-3.8v2.1C1653.5,108.5,1655.5,111.2,1657.9,112.3z M1659.5,116.9v-16.1h1.5v16.1H1659.5z"/>
	<path d="M1673.9,112l-0.9,1.2c-1.7-0.9-3.2-2.8-3.9-5c-0.7,2.4-2.2,4.3-4,5.3l-0.9-1.2c2.3-1.2,4.2-4.3,4.2-7.2v-2.9h1.5v2.9
		C1669.8,107.9,1671.6,110.8,1673.9,112z M1676.8,116.9h-1.5v-16.1h1.5v6.5h2.7v1.2h-2.7V116.9z"/>
</g>
</svg>
