<?xml version="1.0" encoding="UTF-8"?>
<svg id="Layer_1" data-name="Layer 1" xmlns="http://www.w3.org/2000/svg" version="1.1" xmlns:xlink="http://www.w3.org/1999/xlink" viewBox="0 0 1920 700">
  <defs>
    <style>
      .cls-1 {
        fill: url(#linear-gradient);
      }

      .cls-1, .cls-2, .cls-3, .cls-4, .cls-5, .cls-6, .cls-7, .cls-8, .cls-9, .cls-10, .cls-11, .cls-12, .cls-13 {
        stroke-width: 0px;
      }

      .cls-2 {
        fill: #000;
      }

      .cls-14 {
        clip-path: url(#clippath-2);
      }

      .cls-15, .cls-16 {
        isolation: isolate;
      }

      .cls-17 {
        clip-path: url(#clippath-6);
      }

      .cls-3 {
        fill: #cfd6df;
      }

      .cls-4 {
        fill: url(#linear-gradient-5);
      }

      .cls-5 {
        fill: none;
      }

      .cls-6 {
        fill: #ed6a11;
      }

      .cls-18 {
        clip-path: url(#clippath-1);
      }

      .cls-19 {
        clip-path: url(#clippath-4);
      }

      .cls-7 {
        fill: url(#linear-gradient-2);
      }

      .cls-8 {
        fill: #aaa;
      }

      .cls-9 {
        fill: url(#linear-gradient-3);
      }

      .cls-20 {
        clip-path: url(#clippath);
      }

      .cls-10 {
        fill: #111;
      }

      .cls-21 {
        clip-path: url(#clippath-3);
      }

      .cls-11 {
        fill: #e1e7ef;
      }

      .cls-12 {
        fill: #fff;
      }

      .cls-22 {
        clip-path: url(#clippath-5);
      }

      .cls-23 {
        display: none;
      }

      .cls-16 {
        opacity: .1;
      }

      .cls-13 {
        fill: url(#linear-gradient-4);
      }
    </style>
    <clipPath id="clippath">
      <rect class="cls-5" width="1920" height="700"/>
    </clipPath>
    <clipPath id="clippath-1">
      <rect class="cls-5" width="1920" height="700"/>
    </clipPath>
    <linearGradient id="linear-gradient" x1="1480.7" y1="-311" x2="1698.2" y2="-311" gradientTransform="translate(0 318.6) scale(1 -1)" gradientUnits="userSpaceOnUse">
      <stop offset="0" stop-color="#cad2db"/>
      <stop offset="1" stop-color="#cad2db" stop-opacity=".5"/>
    </linearGradient>
    <clipPath id="clippath-2">
      <rect class="cls-5" width="1920" height="700"/>
    </clipPath>
    <linearGradient id="linear-gradient-2" x1="424.7" y1="342.7" x2="-135.2" y2="-217.2" gradientTransform="translate(0 318.6) scale(1 -1)" gradientUnits="userSpaceOnUse">
      <stop offset="0" stop-color="#cad2db"/>
      <stop offset=".9" stop-color="#cad2db" stop-opacity=".5"/>
    </linearGradient>
    <linearGradient id="linear-gradient-3" x1="-314.8" y1="-272.1" x2="155.6" y2="-346.6" gradientTransform="translate(0 318.6) scale(1 -1)" gradientUnits="userSpaceOnUse">
      <stop offset="0" stop-color="#cad2db"/>
      <stop offset="1" stop-color="#cad2db" stop-opacity=".5"/>
    </linearGradient>
    <clipPath id="clippath-3">
      <rect class="cls-5" width="1920" height="700"/>
    </clipPath>
    <linearGradient id="linear-gradient-4" x1="1216.6" y1="-135.9" x2="1957.6" y2="-135.9" gradientTransform="translate(0 318.6) scale(1 -1)" gradientUnits="userSpaceOnUse">
      <stop offset=".2" stop-color="#cad2db"/>
      <stop offset="1" stop-color="#cad2db" stop-opacity=".5"/>
    </linearGradient>
    <clipPath id="clippath-4">
      <rect class="cls-5" width="1920" height="700"/>
    </clipPath>
    <clipPath id="clippath-5">
      <rect class="cls-5" width="1920" height="700"/>
    </clipPath>
    <linearGradient id="linear-gradient-5" x1="960" y1="218.6" x2="960" y2="318.6" gradientTransform="translate(0 318.6) scale(1 -1)" gradientUnits="userSpaceOnUse">
      <stop offset="0" stop-color="#e1e7ef" stop-opacity="0"/>
      <stop offset="1" stop-color="#e1e7ef" stop-opacity=".3"/>
    </linearGradient>
    <clipPath id="clippath-6">
      <rect class="cls-5" width="1920" height="700"/>
    </clipPath>
  </defs>
  <g id="Layer_4" data-name="Layer 4" class="cls-23">
    <rect class="cls-11" x="462.5" y="1" width="994" height="350.5"/>
  </g>
  <g>
    <g class="cls-20">
      <polygon class="cls-3" points="1728.1 527.9 1714.1 571.8 1702.2 561.8 1702.2 541.8 1714.1 527.9 1728.1 527.9"/>
    </g>
    <g class="cls-18">
      <polygon class="cls-1" points="1634.3 545.8 1640.3 555.8 1664.3 555.8 1684.2 567.8 1698.2 585.7 1696.2 611.7 1690.2 629.6 1668.2 651.6 1662.3 669.6 1660.3 681.5 1618.4 651.6 1588.4 659.6 1558.5 705.5 1502.6 713.5 1490.6 707.5 1490.6 703.5 1490.6 691.5 1480.7 645.6 1502.6 625.6 1520.6 595.7 1538.5 585.7 1554.5 601.7 1564.5 595.7 1590.4 585.7 1590.4 571.8 1592.4 565.8 1606.4 565.8 1634.3 545.8"/>
    </g>
    <g class="cls-14">
      <g>
        <path class="cls-7" d="M130.2,361.6c2.1-.6,4.4-1.5,6.7-2.6,11.5-5.7,13.4-7.6,15.3-19.1,1.9-11.5,0-22.9,0-26.7s0-9.5,7.6-5.7,15.3,9.5,13.4,0c-1.9-9.5-7.6-21-7.6-21h28.6l13.4-3.8h15.3s17.2,1.9,21-1.9,40.1-24.8,57.3-17.2c17.2,7.6,24.8,9.5,28.6,9.5s15.3,1.9,13.4-9.5c-1.9-11.5-5.7-22.9,1.9-28.6,7.6-5.7,32.5-19.1,17.2-21,0,0-91.2-23.7-103.1-30.6-13.4-7.6-43.9-11.5-59.2-38.2s-19.8-24.3-24.8-21c-11.5,7.6-14.3,6.5-22.9,0-7.6-5.7-11.5-3.8-17.2,0-1.6,1.1-3.2,2.7-4.8,4.7l-20,20.2c-13.4,7.6-15.3,9.5-32.5,17.2-17.2,7.6-32.5,24.8-38.2,32.5-5.7,7.6-17.2,13.4-21,7.6-3-4.5-11.8-14.8-20.1-16.3v231.1l4.8,2.9s32.5-34.4,38.2-36.3,19.1-9.5,24.8-9.5,15.3,0,19.1-3.8c3.8-3.8,1.9-5.7-1.9-7.6s-17.2-19.1,0-26.7,22.9-9.5,28.6,3.8c5.7,13.4,3.8,19.1,3.8,19.1,0,0,6.1,1,14.3-1.5"/>
        <path class="cls-9" d="M1.4,555.7l-2.9,1.3v168.4l75.4-15.1s-5.7-66.8-15.3-106.9c-9.5-40.1-57.2-47.7-57.2-47.7Z"/>
      </g>
    </g>
    <g class="cls-21">
      <path class="cls-13" d="M1950,247.1l-24.4,14.3-21.2-3.7-2.1-12.2v-11.1l-10.6-.5-2.7-11.1,5.8-10.6,15.4-4.8,17.5-8.5,5.8-12.7-14.3-8.5-14.9,3.7-22.3,18.1-12.2,17v14.9l4.8,6.4.5,20.2-2.1,9.5-8.3,7.1h0l-6.5,5.6-9.1,12.2-6.4,17.7-14.3,25.2-5.8,35.6-8,29.7-16.4,13.8-29.2,10.6-19.6-1.6,3.2-12.2,3.7-14.3-11.7-6.9-14.3,4.8-15.4,11.1-14.3-.5-18.6,8.5-9-.5-8.5,5.8-25.5,8-23.3,4.3-28.1,3.7-19.6,1.1-2.7-8.5-28.1-1.6-18.6,12.2-17.5,10.6-10.6,15.4-14.9,17.5-17,20.7-13.3,11.7-13.3,11.7-19.6,11.7-27.6,17-21.8,5.8-10,6.5-14.3,14.9,3.2,6.9,2.7,19.6-9,10.6-6.9-1.1-19.1,4.3-3.7,10.1-11.1,9-26,14.3-38.7,11.1-10.1,11.7-2.7,20.7s-1.6,9.6,0,10.1,11.1,11.1,11.1,11.1v10.7l.3.4h79.1l-2-5.7-6.9-11.7-1.6-9h0l1.6,9,6.9,11.7,2,5.7h145.8l-.2-1-6.2-13.3,8.9-9.8-11.6-8.9-18.7-12.5-17.8-.9-2.7-8,18.7-11.6.9-13.3-17.8-8-24,6.2-24,1.8-9.8-8.9-8-16.9,9.8-15.1h16l19.6,7.1v-8l30.2-1.8,20.5,11.6,24,.9,13.4-16,6.2-25.8,9.8-16,10.7,14.2,29.4-5.3,21.4-11.6,49.8-17.8,22.2.9,19.6-7.1,22.2-10.7,21.4-13.3,8-2.7,8-2.7v8.9l9.8,6.2,20.5-1.8,22.2-7.1,19.6-4.5v13.3l-10.7,13.3-16,20.9v37.8l16,23.1,32,20.5h39.1l10.7-19.6,11-40,7.2-11.4h0c0,0,6.6-10.5,6.6-10.5h30.2l19.6-15.5,2.7-12.4-21.3-9.8-16-23.1v-18.4l25.8-26.7-7.1,14.2,7.1,31.1,5.3-7.1,16-12.5,13.3,8,5.3,10.7-18.7,11.6h23.9V241.9l-7.6,5.2ZM1274.5,722h0Z"/>
    </g>
    <g class="cls-19">
      <g>
        <image class="cls-16" width="790" height="737" transform="translate(605 -44)" xlink:href="business_map_local-1.png"/>
        <g>
          <polygon class="cls-12" points="1329.3 44.9 1317.8 52.1 1316.2 60.1 1323.1 65.7 1335.2 68.5 1342 63.9 1345.1 54.3 1346.3 47.7 1333.9 44.9 1329.3 44.9"/>
          <polygon class="cls-12" points="1368.5 50.9 1361.9 56 1368.5 58.5 1372.9 56 1368.5 50.9"/>
          <g id="Layer_5" data-name="Layer 5">
            <path class="cls-12" d="M625-32.3l13.2,6.2-19.8,16.2,17.1,8.9,17.1,2.8,17.1,4.1-10.5,16.1,11.9,15,29-15c9.2-5,15.8-20.2,15.8-20.2l5.3-18.1,23.7,24,15.8,2.6,19.7,11.8-5.3,15,21.1,7.9h26.3l5.3,12-11.9,9.6,14.5,10.1,18.4,13.9h-43.4l-11.9,5.1,13.2,13.5h18.4l4,11.4,17.1-5.9-1.3,5.9,11.9,16.9-1.3,10.1-15.8-7.6-18.4-2.5-9.2-5.5h-7.9l1.3,6.8h-27.7c-7.9,10.1-11.9,19-11.9,19-9.2,6.3-14.5,15.2-14.5,15.2,5.3,6.3,17.1,17.2,17.1,17.2l8.7-1.2s.9,8,1.1,8.6c.2.6,5.6,6.9,5.6,6.9l1.3,13.1,7.8,14.2,7.8,3.9,3.4-8.4-5.4-13.8-6-19.1,7.6-4.3,6.2-2.8,2.7,12.3-7.4,6.4,3.6,10.5,4,6-.9,7.1,2.9,23.4-2.5,12.7-6.7,5.4,7.8,7.3,6.5-3.4,6.9,8.8-.7,9.9-1.6,6.2,17,6.2-13.2,2.8,6.7,9,4,1.9-9.4,5.6-21.3,11.9-8,7.7,3.4,9.5,8.5,5.8-12.3,8.6-3.4,7.7s-.7,11.2-1.1,11.8c-.4.6-7.6,9.2-7.6,9.2l1.8,13.1,4.9,9.7-4.5,1.3-8-4.1-8.5,4.1-7.1-3.4-6.5-1.7-13,5.2-5.6,8.8,5.6,6.4,6.7,1.1,4.9,8.2,1.3,2.8,6.9-2.4-.9-9.9,9.2-2.8,6.2,6-2.2,3.4-4.7-1.5-2.9,4.1,4.5,3,4,4.1-6.9,3.2-3.8-1.9,3.4,9.7,7.8,5.2,6,2.4,5.3,2.8-4.3,5.4-7.8,1.3-6,1.7-2-3.9-1.8-4.5-6.9,2.4-4.7,3.4s-4.5-1.3-4.9-2.4-4.9-4.5-4.9-4.5l-6.7-2.4h-8.4l-8.5,3.4s-2.7,5.2-1.8,7.3c.9,2.2,8,5.8,8,5.8l7.4-2.2,5.3-1.9,3.8,3.4,3.6,2.8,4-1.9,4-1.3,6,2.4,5.4,3.7,5.8,4.5-1.1,6-4.7,8-5.1,1.3-5.8,3.4-4.9,6.7-4.7,4.9-1.1,5.6,10.5,11h13.6l9.2-1.5,4.9-1.5,4.9-14.8,2.9-9,2.2-1.3,2.9,13.3,2.7,12.3,7.6,8.2,10.7,2.4,8.5-3.2,6.5,4.5,5.8.6,5.8-1.5,5.3-.4s3.6.2,4.9.6c1.3.4,8.7-3.4,8.7-3.4l.2-8.2-2.2-12.9,5.3-5.6,2.7-9,4-8.6,8-3.2,8.2-5.8,7.2,3.9-2,7.5-4.3,9.5-1,7.7-11.3,4.9-6.5,5.2.9,12,9.4,3.2,5.8-9.9,9.8-3.4,6,4.5,4.9-1.1-2-8.2-2-4.1,2.5-1.9,7.4,4.5,5.6-4.5,3.4-6.2,5.1,6,4.5,7.5,12.1-3.9-5.8-4.7-7.8-5.8-.2-7.1,8.9-2.2,5.6-1.9-1.1-5.6-7.6-4.9-12.7-8.8-1.8-12.9,6.7-5.4,10,2.8-.4,10.3-.2,12.3,5.3,4.3,8.5,6,1.6,8.4,9.2,5.8,5.6,3,2.9,6.7-1.1,6.7,9.2-1.9s1.3-4.7,1.8-7.7c.4-3-3.6-8.8-3.6-8.8l-10.9-12.3-4.5-8,.7-5.4,2-6,3.4-3.4,5.1-6,2.7,9.9,11.2,3.7,6.2-3.4,6.5,3.4,7.6-3.2,1.3-9.2.2-14.6,1.1-4.5,14.3,4.7,12.1-.2s4.3,3.9,5.3,5.2c1.1,1.3,7.8,10.8,7.8,10.8l6.1-.4-.6,15.5,12.5-.6,1.8-9.8v-5.2l9.5,7.5,5.9,2.3,9.5-4.6,1.8-8.6,1.2-8.6.6-6.3-1.8-8v-6.9l-3-6.9-13.7,8-5.9,8-11.3-2.3v6.9l-1.8-12.6,13.7-10.3-3.6-5.2,5.9.6,10.1,1.2,3-5.2,5.9-1.1,6.5,5.2,1.2,11.5,6.5,2.3,5.9-4,1.2-10.9,9.5,9.2,5.9-.6,25.6-21.2,7.7-7.5,4.2-12.6,8.3-9.8,5.3-7.5-3-10.9,8.3-4,5.9-32.1,3.6-18.4,3-8,1.2-6.9,1.8-5.2,2.4-6.3-.6-12.1-8.9-.6-9.5,7.5-5.9-2.9,5.4-10.3-6.5-14.3-.6-8v-10.3l2.4-10.3,2.4-7.5,1.8-8-3.6-12.6-1.2-9.2,4.8-9.8,3-10.9,1.2-7.5-4.8-6.9-4.8-8,.6-6.3,1.2-8.6v-6.3l-9.5-18.4-4.2-22.4-8.9-8.6-13.1-17.8-12.5-27-23.2-31.5-24.2-36.3h-473.8l11.2,3.7Z"/>
            <path class="cls-12" d="M801.3,616.4l-27.5,13.8-9.4,9.8-12.2,5.1-4.3,10.2s7.5,12.6,9.8,14.2c2.4,1.6,11,.8,11,.8l8.3-5.5s4.3-2.8,9.4-2,11.4,1.2,11.4,1.2l14.2-2.4,18.9-9.4,9.8-1.6,5.9-3.5,5.5-14.2-1.6-9.4-14.9-9.8-10.6-.4-18.1,3.2h-5.6Z"/>
          </g>
        </g>
      </g>
    </g>
    <g class="cls-22">
      <rect class="cls-4" width="1920" height="100"/>
    </g>
    <g class="cls-17">
      <g id="Layer_3" data-name="Layer 3">
        <circle class="cls-6" cx="917.9" cy="35" r="6"/>
        <circle class="cls-6" cx="884" cy="68.9" r="6"/>
        <circle class="cls-6" cx="813.6" cy="150.7" r="6"/>
        <circle class="cls-6" cx="860.2" cy="168.4" r="6"/>
        <circle class="cls-6" cx="815.3" cy="188.5" r="6"/>
        <circle class="cls-6" cx="1141.4" cy="390.2" r="6"/>
        <circle class="cls-6" cx="836.1" cy="458" r="6"/>
        <g class="cls-15">
          <path class="cls-8" d="M956.3,285.3l-3.8,3.9v7.1h-6.4v-27.9h6.4v13.1l12.4-13.1h7.2l-11.6,12.5,12.3,15.5h-7.5l-9-11.1Z"/>
          <path class="cls-8" d="M972.7,285.5c0-6.5,5-11.1,11.8-11.1s11.8,4.6,11.8,11.1-4.9,11.1-11.8,11.1-11.8-4.6-11.8-11.1ZM990,285.5c0-3.7-2.4-5.9-5.5-5.9s-5.5,2.2-5.5,5.9,2.4,5.9,5.5,5.9c3.1.1,5.5-2.1,5.5-5.9Z"/>
          <path class="cls-8" d="M1013.8,274.5v5.7c-.5,0-.9-.1-1.4-.1-3.4,0-5.7,1.9-5.7,6v10.1h-6.2v-21.5h5.9v2.8c1.5-2,4.1-3,7.4-3Z"/>
          <path class="cls-8" d="M1038.2,287.3h-16.2c.6,2.7,2.9,4.3,6.1,4.3s3.9-.7,5.4-2.1l3.3,3.6c-2,2.3-5,3.5-8.9,3.5-7.4,0-12.3-4.7-12.3-11.1s4.9-11.1,11.5-11.1,11.2,4.2,11.2,11.1-.1,1.3-.1,1.8ZM1021.9,283.7h10.6c-.4-2.7-2.5-4.5-5.3-4.5s-4.9,1.7-5.3,4.5Z"/>
          <path class="cls-8" d="M1060.9,284v12.3h-5.8v-2.7c-1.2,2-3.4,3-6.5,3-5,0-8-2.8-8-6.5s2.7-6.4,9.2-6.4h4.9c0-2.7-1.6-4.2-4.9-4.2s-4.6.8-6.2,2l-2.2-4.4c2.4-1.7,5.8-2.6,9.3-2.6,6.4,0,10.2,3,10.2,9.5ZM1054.6,289.5v-2.2h-4.3c-2.9,0-3.8,1.1-3.8,2.5s1.3,2.6,3.5,2.6,3.9-1,4.6-2.9Z"/>
        </g>
        <g class="cls-15">
          <path class="cls-10" d="M918,58.4c.2.8.6,1.5,1,2.2s.9,1.3,1.5,1.8,1.2,1,1.8,1.3l-1,1.3c-.5-.3-1-.6-1.4-1-.5-.4-.9-.8-1.3-1.3-.4-.5-.7-1-1-1.6s-.6-1.2-.8-1.8c-.2.7-.4,1.3-.8,1.9-.3.6-.6,1.2-1,1.7s-.8,1-1.2,1.4c-.4.4-.9.7-1.4,1l-1-1.3c.7-.3,1.3-.8,1.8-1.3.6-.6,1-1.2,1.5-1.9.4-.7.8-1.5,1-2.3s.4-1.7.4-2.5v-3.2h1.6v3.2c0,.8,0,1.6.3,2.4ZM924.5,69.2v-10.5h-4.2v-1.3h4.2v-6.1h1.6v17.9s-1.6,0-1.6,0Z"/>
          <path class="cls-10" d="M943.8,61.8v4h-10.5v1.8h11.1v1.4h-12.7v-4.3h10.5v-1.6h-10.5v-1.2h5.3v-1.7h-7.3v-1.3h16.2v1.3h-7.3v1.7c0,0,5.2,0,5.2,0ZM933.2,56.9c-1.1-.5-1.7-1.3-1.7-2.3s.6-1.8,1.7-2.3c1.1-.5,2.7-.8,4.6-.8s3.6.3,4.6.8c1.1.5,1.6,1.3,1.6,2.3s-.5,1.8-1.6,2.3-2.6.8-4.6.8-3.5-.3-4.6-.8ZM934.4,53.2c-.8.3-1.2.8-1.2,1.4s.4,1.1,1.2,1.4,1.9.5,3.4.5,2.6-.2,3.4-.5c.8-.3,1.2-.8,1.2-1.4s-.4-1.1-1.2-1.4c-.8-.3-1.9-.5-3.4-.5s-2.6.2-3.4.5Z"/>
          <path class="cls-10" d="M958.9,58.4c.2.8.6,1.5,1,2.2s.9,1.3,1.4,1.8c.6.5,1.1,1,1.8,1.3l-1,1.3c-.5-.3-.9-.6-1.4-1-.4-.4-.8-.8-1.2-1.3s-.7-1-1-1.6-.6-1.2-.8-1.8c-.4,1.3-1,2.5-1.8,3.5s-1.7,1.8-2.7,2.4l-1-1.3c.6-.3,1.2-.8,1.8-1.4.6-.6,1.1-1.2,1.5-1.9s.7-1.5,1-2.3c.2-.8.4-1.6.4-2.4v-3.2h1.6v3.3c0,.8.2,1.6.4,2.4ZM966.3,69.2h-1.6v-17.9h1.6v7.2h3v1.4h-3v9.3Z"/>
          <path class="cls-10" d="M970.9,61.7v-1.3h7.3v-1.8c-1.7,0-3.1-.4-4.1-1s-1.4-1.4-1.4-2.4,0-1,.4-1.5c.3-.4.7-.8,1.3-1.1.5-.3,1.2-.5,2-.7s1.7-.2,2.6-.2,1.8,0,2.6.2c.8.2,1.4.4,2,.7.5.3,1,.7,1.2,1.1.3.4.4.9.4,1.5,0,1-.5,1.8-1.5,2.4-1,.6-2.3.9-4,1v1.8h7.2v1.3h-16ZM985.1,69.2h-1.6v-4.5h-10.8v-1.3h12.4v5.8h0ZM975.6,56.8c.8.4,2,.5,3.4.5s2.5-.2,3.4-.5c.8-.4,1.2-.9,1.2-1.6s-.4-1.2-1.2-1.6c-.8-.4-1.9-.6-3.4-.6s-2.6.2-3.4.6c-.8.4-1.2.9-1.2,1.6,0,.6.4,1.2,1.2,1.6Z"/>
        </g>
        <g class="cls-15">
          <path class="cls-10" d="M884.7,91.5c-.2.5-.6,1-1,1.4s-.9.7-1.5.9c-.6.2-1.2.3-1.9.3s-1.3,0-1.9-.3c-.6-.2-1.1-.5-1.5-.9s-.7-.9-1-1.4c-.2-.5-.3-1.1-.3-1.8s0-1.2.3-1.8c.2-.5.6-1,1-1.4s.9-.7,1.5-.9c.6-.2,1.2-.3,1.9-.3s1.3,0,1.9.3c.6.2,1.1.5,1.5.9s.7.9,1,1.4c.2.5.3,1.1.3,1.8s0,1.3-.3,1.8ZM877.5,90.9c.2.4.4.7.6,1,.3.3.6.5,1,.6s.8.2,1.2.2.8,0,1.2-.2.7-.4,1-.6c.3-.3.5-.6.6-1s.2-.8.2-1.2,0-.8-.2-1.2-.4-.7-.6-.9c-.3-.3-.6-.5-1-.6s-.8-.2-1.2-.2-.8,0-1.2.2-.7.4-1,.6c-.3.3-.5.6-.6.9-.2.4-.2.8-.2,1.2s.1.9.2,1.2ZM890,101.6h-11.9v-5.7h1.6v4.3h10.3v1.4ZM889.2,90.9v6.4h-1.6v-13.2h1.6v5.4h2.7v1.4h-2.7Z"/>
          <path class="cls-10" d="M903,91.1c-.2.5-.6,1-1,1.3-.4.4-.9.7-1.5.9s-1.2.3-1.9.3-1.3,0-1.9-.3c-.6-.2-1.1-.5-1.5-.9s-.7-.8-1-1.3c-.2-.5-.3-1.1-.3-1.7s0-1.2.3-1.7.6-1,1-1.3c.4-.4.9-.7,1.5-.9s1.2-.3,1.9-.3,1.3,0,1.9.3c.6.2,1.1.5,1.5.9s.7.8,1,1.3c.2.5.3,1.1.3,1.7.1.6,0,1.1-.3,1.7ZM895.9,90.5c.2.4.4.7.6.9.3.3.6.4,1,.6.4,0,.8.2,1.2.2s.8,0,1.2-.2.7-.3,1-.6c.3-.3.5-.6.6-.9.2-.4.2-.7.2-1.2s0-.8-.2-1.2c-.2-.3-.4-.6-.6-.9-.3-.2-.6-.4-1-.6-.4,0-.8-.2-1.2-.2s-.9,0-1.2.2c-.4,0-.7.3-1,.6-.3.2-.5.5-.6.9-.2.3-.2.7-.2,1.2s0,.8.2,1.2ZM904.4,95.5c.7,0,1.3.4,1.9.6.5.3.9.6,1.2,1.1s.4.9.4,1.4,0,1-.4,1.4c-.3.4-.7.8-1.2,1.1-.5.3-1.1.5-1.9.7-.7.2-1.5.2-2.5.2s-1.7,0-2.5-.2c-.7-.2-1.4-.4-1.9-.7-.5-.3-.9-.6-1.2-1.1-.3-.4-.4-.9-.4-1.4s0-1,.4-1.4.7-.8,1.2-1.1c.5-.3,1.1-.5,1.9-.6.7,0,1.6-.2,2.5-.2.9-.1,1.7,0,2.5.2ZM905,100.1c.8-.4,1.1-.9,1.1-1.5s-.4-1.2-1.1-1.5c-.8-.4-1.8-.5-3.1-.5s-2.4.2-3.1.5c-.8.4-1.1.9-1.1,1.5s.4,1.1,1.1,1.5c.8.4,1.8.6,3.1.6s2.4-.2,3.1-.6ZM910.2,90.6v1.4h-2.6v2.8h-1.6v-10.7h1.6v2.7h2.6v1.3h-2.6v2.5h2.6Z"/>
          <path class="cls-10" d="M916.5,95.2v-1.3h7.3v-1.9h-5.1v-7.1h1.6v2.1h8.7v-2.3h1.6v7.1h-5.1v1.9h7.3v1.3h-16.3v.2ZM930.9,101.6h-12.3v-4.9h1.6v3.6h10.7v1.3ZM929,88.3h-8.7v2.3h8.7v-2.3Z"/>
          <path class="cls-10" d="M942,92.3c-.7-.7-1.3-1.5-1.7-2.4-.4,1-1,1.9-1.8,2.7s-1.7,1.4-2.8,1.7l-.9-1.3c.7-.2,1.3-.6,1.8-1,.6-.4,1-.9,1.4-1.4s.7-1.1.9-1.7.3-1.2.3-1.9v-.7h-4v-1.3h9.6v1.3h-3.9v.7c0,.6,0,1.1.3,1.7s.5,1.1.9,1.6.8.9,1.4,1.3c.5.4,1.1.7,1.8.9l-.8,1.3c-.9-.2-1.7-.7-2.5-1.5ZM949.6,101.7h-11.6v-6.3h11.6v6.3ZM948.1,96.7h-8.4v3.7h8.4v-3.7ZM948,94.5v-4.6h-3.5v-1.4h3.5v-4.5h1.7v10.5h-1.7Z"/>
        </g>
        <g class="cls-15">
          <path class="cls-10" d="M1143,424h-1.6v-6h-7.3v-1.3h16.2v1.3h-7.3v6h0ZM1136.2,406.8h1.6v2.5h8.9v-2.5h1.6v7.7h-12.1v-7.7ZM1137.8,413.2h8.9v-2.6h-8.9v2.6Z"/>
          <path class="cls-10" d="M1159.5,414.8c-.8-.7-1.3-1.5-1.7-2.5-.4,1.1-.9,2-1.7,2.8-.8.8-1.7,1.4-2.8,1.8l-.9-1.3c.7-.2,1.3-.6,1.8-1,.6-.4,1-.9,1.4-1.4s.7-1.1.9-1.8c.2-.6.3-1.3.3-2v-2.2h1.6v2.3c0,.6,0,1.2.3,1.8s.5,1.1.9,1.6.9.9,1.4,1.3,1.1.7,1.8,1l-.8,1.3c-.9-.5-1.8-1-2.5-1.7ZM1167.2,423.6h-11.9v-5.6h1.6v4.2h10.2v1.4h.1ZM1166.4,412.9v6.4h-1.6v-13.2h1.6v5.5h2.7v1.4h-2.7Z"/>
          <path class="cls-10" d="M1182.3,415.3c-.6.3-1.3.4-2.1.4s-1.3-.1-1.8-.3c-.6-.2-1.1-.5-1.5-.9s-.7-.8-1-1.4c-.2-.5-.4-1.1-.4-1.7s0-1.2.4-1.7c.2-.5.6-1,1-1.3.4-.4.9-.7,1.5-.9.6-.2,1.2-.3,1.8-.3s1.4.1,2.1.4c.6.3,1.1.6,1.5,1.1h4.6v-2.6h1.7v10.6h-1.7v-2.6h-4.6c-.4.5-.9.9-1.5,1.2ZM1177.4,412.6c.2.4.4.7.6.9.3.3.6.5,1,.6s.8.2,1.2.2.8-.1,1.2-.2.7-.3,1-.6c.3-.3.5-.6.6-.9.2-.4.2-.7.2-1.2s0-.8-.2-1.2c-.2-.3-.4-.6-.6-.9-.3-.3-.6-.5-1-.6s-.8-.2-1.2-.2-.8.1-1.2.2-.7.3-1,.6c-.3.3-.5.6-.6.9-.2.3-.2.7-.2,1.2,0,.4,0,.8.2,1.2ZM1186.6,417.3c.7.2,1.4.4,1.9.7.5.3.9.7,1.2,1.1.3.4.4.9.4,1.5s0,1-.4,1.5c-.3.4-.7.8-1.2,1.1-.5.3-1.2.5-1.9.7-.7.2-1.6.2-2.5.2s-1.7-.1-2.5-.2c-.7-.2-1.4-.4-1.9-.7-.5-.3-.9-.7-1.2-1.1-.3-.4-.4-.9-.4-1.5s0-1,.4-1.5c.3-.4.7-.8,1.2-1.1.5-.3,1.1-.5,1.9-.7.7-.2,1.6-.2,2.5-.2s1.8.1,2.5.2ZM1187.3,422.1c.8-.4,1.2-.9,1.2-1.6s-.4-1.2-1.2-1.6-1.8-.6-3.2-.6-2.4.2-3.2.6c-.8.4-1.1.9-1.1,1.6s.4,1.2,1.1,1.6c.8.4,1.8.6,3.2.6s2.5-.2,3.2-.6ZM1184.8,411.4c0,.5,0,1-.2,1.4h3.9v-2.8h-3.8c0,.5,0,1,0,1.4Z"/>
          <path class="cls-10" d="M1206.8,415.7v-4h-3.6c0,.5-.2,1-.5,1.4s-.6.8-1,1.1c-.4.3-.9.5-1.4.7s-1.1.2-1.7.2-1.3-.1-1.8-.3c-.6-.2-1.1-.5-1.5-.9s-.7-.8-1-1.3c-.2-.5-.3-1.1-.3-1.7s0-1.2.3-1.7c.2-.5.6-.9,1-1.3s.9-.6,1.5-.8c.6-.2,1.2-.3,1.8-.3s1.2.1,1.7.2c.5.2,1,.4,1.4.7s.7.7,1,1.1.4.9.5,1.4h3.7v-4.3h1.7v9.6l-1.8.2h0ZM1199.8,413.7c.4-.1.7-.3,1-.6.3-.2.5-.5.6-.9.2-.3.2-.7.2-1.1s0-.8-.2-1.1c-.2-.3-.4-.6-.6-.9-.3-.2-.6-.4-1-.6-.4-.1-.8-.2-1.2-.2s-.8.1-1.2.2c-.4.1-.7.3-1,.6-.3.2-.5.5-.6.9-.2.3-.2.7-.2,1.1s0,.8.2,1.1c.2.3.4.6.6.9.3.2.6.4,1,.6.4.1.8.2,1.2.2.4,0,.8-.1,1.2-.2ZM1208.4,423.8h-11.4v-7.2h1.6v2.3h8.2v-2.3h1.6v7.2h0ZM1198.6,422.4h8.2v-2.3h-8.2v2.3Z"/>
          <path class="cls-10" d="M1212,421.7v-1.3h7.2v-4.4h1.6v4.4h7.4v1.3h-16.2ZM1224.7,415.5c-.7-.3-1.3-.7-1.9-1.1s-1.1-.9-1.6-1.5c-.5-.5-.9-1.1-1.2-1.8-.3.6-.7,1.2-1.2,1.8-.5.5-1,1-1.6,1.5-.6.4-1.2.8-1.9,1.1-.7.3-1.4.5-2,.7l-.7-1.4c.8-.1,1.6-.4,2.4-.8s1.5-.8,2.1-1.4,1.1-1.2,1.5-1.9c.4-.7.6-1.4.6-2.2v-1.4h1.7v1.4c0,.7.2,1.5.6,2.2s.9,1.3,1.5,1.9,1.3,1,2.1,1.4c.8.4,1.6.6,2.3.8l-.7,1.4c-.6-.1-1.3-.4-2-.7Z"/>
        </g>
        <g class="cls-15">
          <path class="cls-10" d="M829.6,489.7v-1.3h7.3v-2.5c-1.6-.1-2.9-.4-3.8-1-.9-.6-1.3-1.4-1.3-2.4s0-1,.4-1.4c.3-.4.7-.8,1.2-1.1.5-.3,1.1-.5,1.9-.7s1.5-.2,2.4-.2,1.7.1,2.4.2c.7.2,1.3.4,1.8.7.5.3.9.6,1.2,1.1.3.4.4.9.4,1.4,0,1-.4,1.8-1.3,2.4-.9.6-2.1.9-3.7,1v2.5h7.3v1.3h-16.2ZM830.4,476.6h6.5v-2.3h1.6v2.3h6.4v1.3h-14.5v-1.3ZM834.6,484.1c.7.4,1.8.6,3.1.6s2.3-.2,3.1-.6c.7-.4,1.1-.9,1.1-1.6s-.4-1.2-1.1-1.6-1.8-.6-3.1-.6-2.4.2-3.1.6c-.7.4-1.1.9-1.1,1.6s.4,1.2,1.1,1.6Z"/>
          <path class="cls-10" d="M854.3,482.5c-1.3.1-2.7.2-4.1.2h-1.4v-7.9h1.6v6.5c1.3,0,2.6-.1,3.9-.2s2.6-.3,4.1-.6l.2,1.3c-1.5.4-2.9.6-4.3.7ZM861.9,491.6h-11.3v-6.6h11.3v6.6ZM860.3,486.4h-8.1v3.9h8.1v-3.9ZM861.9,484.1h-1.6v-10.1h1.6v4.1h2.7v1.4h-2.7v4.6Z"/>
          <path class="cls-10" d="M877.8,483.1c-.6.3-1.3.4-2.1.4s-1.3-.1-1.8-.3c-.6-.2-1.1-.5-1.5-.9s-.7-.8-1-1.4c-.2-.5-.4-1.1-.4-1.7s0-1.2.4-1.7c.2-.5.6-1,1-1.3.4-.4.9-.7,1.5-.9.6-.2,1.2-.3,1.8-.3s1.5.1,2.1.4,1.1.6,1.5,1.1h4.6v-2.6h1.7v10.6h-1.7v-2.5h-4.6c-.4.5-.9.8-1.5,1.1ZM872.9,480.4c.2.4.4.7.6.9.3.3.6.5,1,.6s.8.2,1.2.2.8-.1,1.2-.2.7-.3,1-.6.5-.6.6-.9.2-.7.2-1.2,0-.8-.2-1.2c-.2-.3-.4-.6-.6-.9s-.6-.5-1-.6-.8-.2-1.2-.2-.8.1-1.2.2-.7.3-1,.6c-.3.3-.5.6-.6.9-.2.3-.2.7-.2,1.2s0,.9.2,1.2ZM882.1,485.2c.7.2,1.4.4,1.9.7.5.3.9.7,1.2,1.1s.4.9.4,1.5,0,1-.4,1.5-.7.8-1.2,1.1c-.5.3-1.2.5-1.9.7s-1.6.2-2.5.2-1.7-.1-2.5-.2c-.7-.2-1.4-.4-1.9-.7-.5-.3-.9-.7-1.2-1.1s-.4-.9-.4-1.5,0-1,.4-1.5c.3-.4.7-.8,1.2-1.1.5-.3,1.1-.5,1.9-.7.7-.2,1.6-.2,2.5-.2s1.8,0,2.5.2ZM882.9,490c.8-.4,1.2-.9,1.2-1.6s-.4-1.2-1.2-1.6-1.8-.6-3.2-.6-2.4.2-3.2.6-1.1.9-1.1,1.6.4,1.2,1.1,1.6c.8.4,1.8.6,3.2.6,1.3-.1,2.4-.3,3.2-.6ZM880.3,479.3c0,.5,0,1-.2,1.4h3.9v-2.8h-3.8c0,.5,0,.9,0,1.4Z"/>
          <path class="cls-10" d="M902.3,483.6v-4h-3.6c0,.5-.2,1-.5,1.4s-.6.8-1,1.1c-.4.3-.9.5-1.4.7s-1.1.2-1.7.2-1.3-.1-1.8-.3c-.6-.2-1.1-.5-1.5-.9s-.7-.8-1-1.3c-.2-.5-.4-1.1-.4-1.7s0-1.2.4-1.7c.2-.5.6-.9,1-1.3s.9-.6,1.5-.8c.6-.2,1.2-.3,1.8-.3s1.2.1,1.7.2,1,.4,1.4.7c.4.3.7.7,1,1.1s.4.9.5,1.4h3.7v-4.3h1.7v9.6l-1.8.2h0ZM895.3,481.5c.4-.1.7-.3,1-.6.3-.2.5-.5.6-.9,0-.3.2-.7.2-1.1s0-.8-.2-1.1-.4-.6-.6-.9c-.3-.2-.6-.4-1-.6-.4-.1-.8-.2-1.2-.2s-.8.1-1.2.2-.7.3-1,.6c-.3.2-.5.5-.6.9s-.2.7-.2,1.1,0,.8.2,1.1c0,.3.4.6.6.9.3.2.6.4,1,.6.4.1.8.2,1.2.2s.8-.1,1.2-.2ZM903.9,491.6h-11.5v-7.2h1.6v2.3h8.2v-2.3h1.6v7.2h.1ZM894.1,490.3h8.2v-2.3h-8.2v2.3Z"/>
          <path class="cls-10" d="M907.5,489.5v-1.3h7.2v-4.4h1.6v4.4h7.4v1.3h-16.2ZM920.3,483.4c-.7-.3-1.3-.7-1.9-1.1-.6-.4-1.1-.9-1.6-1.5s-.9-1.1-1.2-1.8c-.3.6-.7,1.2-1.2,1.8-.5.5-1,1-1.6,1.5-.6.4-1.2.8-1.9,1.1-.7.3-1.4.5-2,.7l-.7-1.4c.8-.1,1.6-.4,2.4-.8.8-.4,1.5-.8,2.1-1.4s1.1-1.2,1.5-1.9c.4-.7.6-1.4.6-2.2v-1.4h1.7v1.4c0,.7.2,1.5.6,2.2.4.7.9,1.3,1.5,1.9s1.3,1,2.1,1.4,1.6.6,2.3.8l-.7,1.4c-.7-.2-1.4-.4-2-.7Z"/>
        </g>
        <g>
          <path class="cls-2" d="M659.2,125.4c-2.5.5-4.6.6-8.4.6h-1.4v-7.9h7.9v1.3h-6.3v5.2c3.6,0,5.6-.1,8-.6l.2,1.3ZM662.8,131.3c0,2.2-2.3,3.4-5.9,3.4s-5.9-1.3-5.9-3.4,2.3-3.4,5.9-3.4,5.9,1.3,5.9,3.4ZM661.2,131.3c0-1.3-1.6-2.1-4.3-2.1s-4.3.8-4.3,2.1,1.6,2.1,4.3,2.1,4.3-.8,4.3-2.1ZM665.2,121.5v1.4h-2.6v4.7h-1.7v-10.7h1.7v4.7h2.6Z"/>
          <path class="cls-2" d="M677.2,127.4c-2.1-.7-3.7-2.2-4.5-4.1-.8,2-2.4,3.7-4.5,4.4l-.9-1.3c2.7-.9,4.5-3.3,4.5-5.8v-1h-4.1v-1.3h9.8v1.3h-4.1v1c0,2.4,1.9,4.6,4.5,5.5l-.8,1.3ZM682.3,133v1.3h-12.1v-5.6h1.6v4.3h10.4ZM681.8,130h-1.6v-13.1h1.6v13.1Z"/>
          <path class="cls-2" d="M690.7,119.9h3.6v1.3h-8.9v-1.3h3.6v-2.5h1.6v2.5ZM693.7,126.5c0,2.4-1.6,4.1-3.8,4.1s-3.8-1.7-3.8-4.1,1.6-4.1,3.8-4.1,3.8,1.7,3.8,4.1ZM692.3,126.5c0-1.6-1-2.7-2.4-2.7s-2.4,1.1-2.4,2.7,1,2.7,2.4,2.7,2.4-1.1,2.4-2.7ZM700.7,116.8v17.9h-1.6v-9h-2.3v8.2h-1.5v-16.7h1.5v7.2h2.3v-7.6h1.6Z"/>
          <path class="cls-2" d="M710,122.1c0,3,2.1,6.2,4.7,7.5l-1,1.3c-2-1-3.7-3.2-4.5-5.6-.8,2.6-2.5,4.9-4.6,6l-1-1.3c2.6-1.3,4.7-4.7,4.7-7.8v-2.1h-4.1v-1.3h9.8v1.3h-4.1v2.1ZM718.6,116.8v18h-1.6v-10.1h-3.9v-1.3h3.9v-6.5h1.6Z"/>
          <path class="cls-2" d="M732.2,117.3h1.5v16.6h-1.5v-8.6h-3.3c-1,2.2-2.7,4.2-5.6,5.8l-.9-1.2c2.7-1.5,4.4-3.4,5.3-5.5l-5,.5-.2-1.4,5.7-.4c.3-.9.4-1.9.5-2.9h-5.3v-1.3h6.9c0,1.7-.2,3.4-.7,5h2.8v-6.6ZM737.5,116.8v17.9h-1.6v-17.9h1.6Z"/>
          <path class="cls-2" d="M750.4,124.5c0,3.8-1.9,6.3-4.6,6.3s-4.6-2.4-4.6-6.3,1.9-6.3,4.6-6.3,4.6,2.4,4.6,6.3ZM742.9,124.5c0,2.9,1.2,4.8,3,4.8s3-1.9,3-4.8-1.2-4.8-3-4.8-3,1.9-3,4.8ZM755.3,116.8v18h-1.6v-18h1.6Z"/>
          <path class="cls-2" d="M775.3,124.6v1.3h-16.2v-1.3h16.2ZM762.6,133.3h11.1v1.3h-12.7v-4.2h10.5v-1.6h-10.6v-1.2h12.2v4h-10.5v1.8ZM773.2,123.1h-12v-5.9h1.6v1.7h8.7v-1.7h1.6v5.9ZM771.5,120.1h-8.7v1.7h8.7v-1.7Z"/>
          <path class="cls-2" d="M793.6,125.2v1.3h-16.1v-1.3h6.6v-3.4h1.6v3.4h7.9ZM791.8,131.5c0,2-2.4,3.3-6.3,3.3s-6.2-1.2-6.2-3.3,2.4-3.3,6.2-3.3,6.3,1.2,6.3,3.3ZM790,119h-10.6v-1.3h12.2v1.5c0,1.4,0,2.9-.5,4.7l-1.6-.2c.5-1.8.5-3.2.5-4.6v-.2ZM790.1,131.5c0-1.3-1.8-2-4.6-2s-4.6.8-4.6,2,1.8,2,4.6,2,4.6-.8,4.6-2Z"/>
          <path class="cls-2" d="M805.5,126.8c-2-.7-3.6-2.1-4.3-3.9-.8,2-2.4,3.6-4.5,4.4l-.8-1.3c2.7-.9,4.5-3.3,4.5-5.8v-.7h-4v-1.3h9.6v1.3h-4v.7c0,2.3,1.7,4.4,4.3,5.3l-.8,1.3ZM810,131.4c0,2.1-2.3,3.3-5.9,3.3s-5.9-1.2-5.9-3.3,2.2-3.3,5.9-3.3,5.9,1.2,5.9,3.3ZM808.3,131.4c0-1.3-1.6-2-4.3-2s-4.3.7-4.3,2,1.6,2,4.3,2,4.3-.7,4.3-2ZM812.4,121.4v1.4h-2.7v4.9h-1.6v-10.8h1.6v4.5h2.7Z"/>
        </g>
        <g>
          <path class="cls-2" d="M884.5,168.1c-2.5.5-4.6.6-8.4.6h-1.4v-7.9h7.9v1.3h-6.3v5.2c3.6,0,5.6-.1,8-.6l.2,1.3ZM888,174c0,2.2-2.3,3.4-5.9,3.4s-5.9-1.3-5.9-3.4,2.3-3.4,5.9-3.4,5.9,1.3,5.9,3.4ZM886.4,174c0-1.3-1.6-2.1-4.3-2.1s-4.3.8-4.3,2.1,1.6,2.1,4.3,2.1,4.3-.8,4.3-2.1ZM890.5,164.2v1.4h-2.6v4.7h-1.7v-10.7h1.7v4.7h2.6Z"/>
          <path class="cls-2" d="M902.4,170.1c-2.1-.7-3.7-2.2-4.5-4.1-.8,2-2.4,3.7-4.5,4.4l-.9-1.3c2.7-.9,4.5-3.3,4.5-5.8v-1h-4.1v-1.3h9.8v1.3h-4.1v1c0,2.4,1.9,4.6,4.5,5.5l-.8,1.3ZM907.5,175.7v1.3h-12.1v-5.6h1.6v4.3h10.4ZM907,172.7h-1.6v-13.1h1.6v13.1Z"/>
          <path class="cls-2" d="M926.9,167.3v1.3h-16.2v-1.3h7.3v-2.3h1.6v2.3h7.3ZM925.4,166c-2.8-.4-5.5-1.6-6.6-3.5-1.1,1.9-3.8,3.2-6.6,3.5l-.6-1.3c3.3-.4,6.4-2.1,6.4-4.4v-.7h1.7v.7c0,2.3,3.1,4,6.4,4.4l-.6,1.3ZM914.3,176h11.1v1.3h-12.7v-4.2h10.5v-1.7h-10.6v-1.2h12.2v4.1h-10.5v1.7Z"/>
          <path class="cls-2" d="M945.3,171.7h-7.3v5.7h-1.6v-5.7h-7.3v-1.3h16.3v1.3ZM941.7,161.5h-10.7v-1.3h12.4v4.7h-10.7v2.3h11.1v1.3h-12.7v-4.9h10.7v-2.1Z"/>
          <path class="cls-2" d="M957,170.2c-1.9-.8-3.5-2.4-4.2-4.4-.7,2.2-2.3,3.9-4.4,4.7l-.9-1.3c2.7-1,4.5-3.6,4.5-6.4v-2.3h1.6v2.3c0,2.6,1.7,5.1,4.3,6.1l-.9,1.3ZM962.7,175.7v1.3h-12v-5.5h1.6v4.2h10.3ZM960.6,167.2h-3.6v-1.3h3.6v-2.4h-3.6v-1.3h3.6v-2.7h1.6v13.4h-1.6v-5.7Z"/>
          <path class="cls-2" d="M982.1,167.9v1.3h-16.1v-1.3h6.6v-3.4h1.6v3.4h7.9ZM980.2,174.2c0,2-2.4,3.3-6.3,3.3s-6.2-1.2-6.2-3.3,2.4-3.3,6.2-3.3,6.3,1.2,6.3,3.3ZM978.4,161.8h-10.6v-1.3h12.2v1.5c0,1.4,0,2.9-.5,4.7l-1.6-.2c.5-1.8.5-3.2.5-4.6v-.2ZM978.5,174.2c0-1.3-1.8-2-4.6-2s-4.6.8-4.6,2,1.8,2,4.6,2,4.6-.8,4.6-2Z"/>
          <path class="cls-2" d="M993.9,169.5c-2-.7-3.6-2.1-4.3-3.9-.8,2-2.4,3.6-4.5,4.4l-.8-1.3c2.7-.9,4.5-3.3,4.5-5.8v-.7h-4v-1.3h9.6v1.3h-4v.7c0,2.3,1.7,4.4,4.3,5.3l-.8,1.3ZM998.4,174.1c0,2.1-2.3,3.3-5.9,3.3s-5.9-1.2-5.9-3.3,2.2-3.3,5.9-3.3,5.9,1.2,5.9,3.3ZM996.8,174.1c0-1.3-1.6-2-4.3-2s-4.3.7-4.3,2,1.6,2,4.3,2,4.3-.7,4.3-2ZM1000.9,164.1v1.4h-2.7v4.9h-1.6v-10.8h1.6v4.5h2.7Z"/>
        </g>
        <g>
          <path class="cls-2" d="M686.1,187.7c-2.5.5-4.6.6-8.4.6h-1.4v-7.9h7.9v1.3h-6.3v5.2c3.6,0,5.6-.1,8-.6l.2,1.3ZM689.6,193.6c0,2.2-2.3,3.4-5.9,3.4s-5.9-1.3-5.9-3.4,2.3-3.4,5.9-3.4,5.9,1.3,5.9,3.4ZM688,193.6c0-1.3-1.6-2.1-4.3-2.1s-4.3.8-4.3,2.1,1.6,2.1,4.3,2.1,4.3-.8,4.3-2.1ZM692.1,183.8v1.4h-2.6v4.7h-1.7v-10.7h1.7v4.7h2.6Z"/>
          <path class="cls-2" d="M704.1,189.7c-2.1-.7-3.7-2.2-4.5-4.1-.8,2-2.4,3.7-4.5,4.4l-.9-1.3c2.7-.9,4.5-3.3,4.5-5.8v-1h-4.1v-1.3h9.8v1.3h-4.1v1c0,2.4,1.9,4.6,4.5,5.5l-.8,1.3ZM709.2,195.3v1.3h-12.1v-5.6h1.6v4.3h10.4ZM708.6,192.3h-1.6v-13.1h1.6v13.1Z"/>
          <path class="cls-2" d="M722.3,179.6h1.5v16.6h-1.5v-8.6h-3.3c-1,2.2-2.7,4.2-5.6,5.8l-.9-1.2c2.7-1.5,4.4-3.4,5.3-5.5l-5,.5-.2-1.4,5.7-.4c.3-.9.4-1.9.5-2.9h-5.3v-1.3h6.9c0,1.7-.2,3.4-.7,5h2.8v-6.6ZM727.5,179.1v17.9h-1.6v-17.9h1.6Z"/>
          <path class="cls-2" d="M740.5,186.8c0,3.8-1.9,6.3-4.6,6.3s-4.6-2.4-4.6-6.3,1.9-6.3,4.6-6.3,4.6,2.4,4.6,6.3ZM732.9,186.8c0,2.9,1.2,4.8,3,4.8s3-1.9,3-4.8-1.2-4.8-3-4.8-3,1.9-3,4.8ZM745.4,179.1v18h-1.6v-18h1.6Z"/>
          <path class="cls-2" d="M765.3,186.9v1.3h-16.2v-1.3h16.2ZM752.7,195.6h11.1v1.3h-12.7v-4.2h10.5v-1.6h-10.6v-1.2h12.2v4h-10.5v1.8ZM763.2,185.4h-12v-5.9h1.6v1.7h8.7v-1.7h1.6v5.9ZM761.6,182.4h-8.7v1.7h8.7v-1.7Z"/>
          <path class="cls-2" d="M783.7,187.5v1.3h-16.1v-1.3h6.6v-3.4h1.6v3.4h7.9ZM781.8,193.8c0,2-2.4,3.3-6.3,3.3s-6.2-1.2-6.2-3.3,2.4-3.3,6.2-3.3,6.3,1.2,6.3,3.3ZM780,181.4h-10.6v-1.3h12.2v1.5c0,1.4,0,2.9-.5,4.7l-1.6-.2c.5-1.8.5-3.2.5-4.6v-.2ZM780.2,193.8c0-1.3-1.8-2-4.6-2s-4.6.8-4.6,2,1.8,2,4.6,2,4.6-.8,4.6-2Z"/>
          <path class="cls-2" d="M795.5,189.1c-2-.7-3.6-2.1-4.3-3.9-.8,2-2.4,3.6-4.5,4.4l-.8-1.3c2.7-.9,4.5-3.3,4.5-5.8v-.7h-4v-1.3h9.6v1.3h-4v.7c0,2.3,1.7,4.4,4.3,5.3l-.8,1.3ZM800,193.7c0,2.1-2.3,3.3-5.9,3.3s-5.9-1.2-5.9-3.3,2.2-3.3,5.9-3.3,5.9,1.2,5.9,3.3ZM798.4,193.7c0-1.3-1.6-2-4.3-2s-4.3.7-4.3,2,1.6,2,4.3,2,4.3-.7,4.3-2ZM802.5,183.7v1.4h-2.7v4.9h-1.6v-10.8h1.6v4.5h2.7Z"/>
        </g>
      </g>
    </g>
  </g>
</svg>