<?xml version="1.0" encoding="utf-8"?>
<!-- Generator: Adobe Illustrator 23.0.5, SVG Export Plug-In . SVG Version: 6.00 Build 0)  -->
<svg version="1.1" id="레이어_1" xmlns="http://www.w3.org/2000/svg" xmlns:xlink="http://www.w3.org/1999/xlink" x="0px"
	 y="0px" viewBox="0 0 1920 700" style="enable-background:new 0 0 1920 700;" xml:space="preserve">
<style type="text/css">
	.st0{display:none;}
	.st1{display:inline;}
	.st2{display:inline;fill:#E1E7EF;}
	.st3{clip-path:url(#SVGID_2_);fill:#CAD2DB;}
	.st4{clip-path:url(#SVGID_4_);fill:#E1E7EF;}
	.st5{clip-path:url(#SVGID_6_);fill:url(#SVGID_7_);}
	.st6{clip-path:url(#SVGID_9_);}
	.st7{fill:#E1E7EF;}
	.st8{fill:#FFFFFF;}
	.st9{clip-path:url(#SVGID_11_);fill:#CAD2DB;}
	.st10{clip-path:url(#SVGID_13_);fill:#CAD2DB;}
	.st11{clip-path:url(#SVGID_15_);fill:#CAD2DB;}
	.st12{clip-path:url(#SVGID_17_);}
	.st13{fill:#AAAAAA;}
	.st14{fill:#5D6FCC;}
	.st15{fill:#028F37;}
	.st16{fill:#111111;}
	.st17{clip-path:url(#SVGID_19_);fill:url(#SVGID_20_);}
</style>
<g id="Layer_1" class="st0">
	<g id="zKvEBR_1_" class="st1">
	</g>
</g>
<g id="Layer_6" class="st0">
	<rect x="481" class="st2" width="959" height="350"/>
</g>
<g>
	<g>
		<g>
			<g>
				<g>
					<defs>
						<rect id="SVGID_1_" width="1920" height="700"/>
					</defs>
					<clipPath id="SVGID_2_">
						<use xlink:href="#SVGID_1_"  style="overflow:visible;"/>
					</clipPath>
					<path class="st3" d="M442.7,66.3c-7.3-1.2-11-8.8-12.2-17.8c-0.5-3.8-0.4-7.6-0.7-13.4c-4,4.2-7.1,7.3-10,10.6
						c-13.8,15.9-13.7,15.9-32.1,17.5c-0.5,0-1,0.2-1.5,0.2c-4.8,0.2-7.4-2.8-7-9.4c0.3-6.3,1-12.4-3.1-17.9
						c-3.3,3.4-5.8,5.9-11.1,11.2c2.4-15.5-4-22.3-10.3-29c-4.8-5.1-7.7-11.5-9.8-18.2H1v699.7h207.7c0-7.9-0.8-15.4-3.5-22.8
						c-1.9-5.2-3.2-10.7-4.9-16.5c3.1-3.9,5.7-7.8,8.8-11.1c3.4-3.8,7.3-6.9,10.7-10.7c3-3.4,5.4-7.8,8.6-11
						c2.3-2.4,5.4-3.7,8.2-5.2s5.7-2.6,8.5-4.2c7.8-4.5,12.8-12.6,17.2-21.4c3.7-7.3,2.3-14.7,0.6-22.4c-0.8-3.6-0.4-7.7-0.6-11.6
						c-0.3-10.9-0.6-21.9-0.9-33.4c-5.7-4.1-7.5-11.1-9.9-18.5c-2.3-7.1-2.2-14.5-1.3-20.6c1.2-7.3-1.5-10.8-4.1-15.4l0.4,0.3v-0.6
						c1.2-0.8,2.3-1.5,3.4-2.3c-1.1-1.5-2.2-3-3.3-4.5c0-0.4,0-0.7,0-1.1c-0.2,0.1-0.4,0.2-0.5,0.3c0.2-2.5-0.3-5.6,0.6-7.5
						c7.2-15.2,10-33.9,23-44.4c3.2-2.6,5-8,7.6-12c9.6-15.2,19.8-29.9,33.3-39.6c12.8-9.2,23-21.9,30.9-36.8
						c10.7-20.3,20.1-41.8,28.7-63.7c4.1-10.4,7.6-22.4,3.6-34.8c-1.2-0.3-2.5-1.2-3.1-0.7c-8,6.2-17.1,7.4-26.1,9.2
						c-10.9,2.2-21.9,4.3-32.3,8.6c-7.7,3.2-12.7,1.3-17.3-6.2c-1.5-2.6-3.2-5-4.6-7.3c0.8-4.5,1.4-8.6,2.1-12.9
						c8-0.7,16.1-0.5,22.9-7.6c2.2-2.2,5.8-2.2,8.7-3.3c4.3-1.7,8.7-3.4,13-5.1c13.4-5.6,25.4-15.6,39.5-19.4
						c4.4-1.2,8.8-3.9,10.1-10.5c0.9-4.5,3.8-6,6.6-7.4c3.8-1.9,7.6-3.7,11.6-4.8c6.2-1.8,13.5-0.3,16.1-10.9
						c0.3-1.1,2.8-1.1,4.1-1.9c2.6-1.8,6.3-3.2,7.3-6c2.6-6.9,7.9-7.4,12.1-10.4c0.9-5.7,1.7-11.3,2.5-16.6c2.8-0.8,5.6-0.5,6.5-2.1
						c4.8-8,9.1-16.5,13.6-24.8C460.5,77.5,454.2,68.1,442.7,66.3z M281.7,208c-6.9-8.6-13.6-17.1-22.2-23.2
						c-6.2-4.3-11.4-10.5-12.2-20.8c-0.9-10.8-5.3-19.5-12.7-25.3c-4.9-3.8-6.8-9.3-6.9-16.2c-0.1-3.9-0.3-7.8-0.5-11.7
						c-0.6-10.7-3.7-19.8-10.5-26.8c-2.6-2.8-6.6-6.3-6.7-9.7c-0.4-12.6-7.3-21-11-31.3c-3.3-9.3-7.1-18.3-11.2-28.7
						c6.1-1.2,10.8-2.2,15.9-3.2c9.5,13,16.4,27.9,23,43c1.4,3.2,3.4,6.7,5.7,8.5c8.9,6.5,12.4,16.2,12.9,28.6
						c0.5,10.8,3.3,20.1,11.7,25.4c2.6,1.7,5.7,4.4,6.7,7.6c4.5,13.2,12,23.8,18.1,35.5c1.9,3.6,4.1,8.8,3.4,12.4
						c-1.8,9,1.4,16.4,2.8,24.3c1.2,7.3,2.6,14.5,3.9,21.7C288.6,214.8,284.8,211.8,281.7,208z"/>
				</g>
			</g>
		</g>
	</g>
	<g>
		<g>
			<g>
				<g>
					<defs>
						<rect id="SVGID_3_" width="1920" height="700"/>
					</defs>
					<clipPath id="SVGID_4_">
						<use xlink:href="#SVGID_3_"  style="overflow:visible;"/>
					</clipPath>
					<rect x="400.2" y="219" class="st4" width="6.5" height="2.2"/>
				</g>
			</g>
		</g>
	</g>
	<g>
		<g>
			<g>
				<g>
					<defs>
						<rect id="SVGID_5_" width="1920" height="700"/>
					</defs>
					<clipPath id="SVGID_6_">
						<use xlink:href="#SVGID_5_"  style="overflow:visible;"/>
					</clipPath>
					
						<linearGradient id="SVGID_7_" gradientUnits="userSpaceOnUse" x1="467.1001" y1="-190.1499" x2="1" y2="-190.1499" gradientTransform="matrix(1 0 0 1 0 539.9999)">
						<stop  offset="0.2612" style="stop-color:#CAD2DB"/>
						<stop  offset="1" style="stop-color:#E1E7EF;stop-opacity:0.2"/>
					</linearGradient>
					<path class="st5" d="M1,699.7h207.7c0-7.9-0.8-15.4-3.5-22.8c-1.9-5.2-3.2-10.7-4.9-16.5c3.1-3.9,5.7-7.8,8.8-11.1
						c3.4-3.8,7.3-6.9,10.7-10.7c3-3.4,5.4-7.8,8.6-11c2.3-2.4,5.4-3.7,8.2-5.2s5.7-2.6,8.5-4.2c7.8-4.5,12.8-12.6,17.2-21.4
						c3.7-7.3,2.3-14.7,0.6-22.4c-0.8-3.6-0.4-7.7-0.6-11.6c-0.3-10.9-0.6-21.9-0.9-33.4c-5.7-4.1-7.5-11.1-9.9-18.5
						c-2.3-7.1-2.2-14.5-1.3-20.6c1.2-7.3-1.5-10.8-4.1-15.4l0.4,0.3v-0.6c1.2-0.8,2.3-1.5,3.4-2.3c-1.1-1.5-2.2-3-3.3-4.5
						c0-0.4,0-0.7,0-1.1c-0.2,0.1-0.4,0.2-0.5,0.3c0.2-2.5-0.3-5.6,0.6-7.5c7.2-15.2,10-33.9,23-44.4c3.2-2.6,5-8,7.6-12
						c9.6-15.2,19.8-29.9,33.3-39.6c12.8-9.2,23-21.9,30.9-36.8c10.7-20.3,20.1-41.8,28.7-63.7c4.1-10.4,7.6-22.4,3.6-34.8
						c-1.2-0.3-2.5-1.2-3.1-0.7c-8,6.2-17.1,7.4-26.1,9.2c-10.9,2.2-21.9,4.3-32.3,8.6c-7.7,3.2-12.7,1.3-17.3-6.2
						c-1.5-2.6-3.2-5-4.6-7.3c0.8-4.5,1.4-8.6,2.1-12.9c8-0.7,16.1-0.5,22.9-7.6c2.2-2.2,5.8-2.2,8.7-3.3c4.3-1.7,8.7-3.4,13-5.1
						c13.4-5.6,25.4-15.6,39.5-19.4c4.4-1.2,8.8-3.9,10.1-10.5c0.9-4.5,3.8-6,6.6-7.4c3.8-1.9,7.6-3.7,11.6-4.8
						c6.2-1.8,13.5-0.3,16.1-10.9c0.3-1.1,2.8-1.1,4.1-1.9c2.6-1.8,6.3-3.2,7.3-6c2.6-6.9,7.9-7.4,12.1-10.4
						c0.9-5.7,1.7-11.3,2.5-16.6c2.8-0.8,5.6-0.5,6.5-2.1c4.8-8,9.1-16.5,13.6-24.8c-6.6-10.8-12.9-20.2-24.3-22
						c-7.3-1.2-11-8.8-12.2-17.8c-0.5-3.8-0.4-7.6-0.7-13.4c-4,4.2-7.1,7.3-10,10.6c-13.8,15.9-13.7,15.9-32.1,17.5
						c-0.5,0-1,0.2-1.5,0.2c-4.8,0.2-7.4-2.8-7-9.4c0.3-6.3,1-12.4-3.1-17.9c-3.3,3.4-5.8,5.9-11.1,11.2c2.4-15.5-4-22.3-10.3-29
						c-4.8-5-7.7-11.4-9.8-18.1H1V699.7z M246.3,474.9c-0.9-1.6-2.2-3.3-2.1-4.9C244.1,471.5,245.4,473.2,246.3,474.9z M244.3,469.4
						c0.1-0.3,0.3-0.7,0.5-1.1C244.6,468.7,244.4,469,244.3,469.4z M203.7,11.2c9.5,13,16.4,27.9,23,43c1.4,3.2,3.4,6.7,5.7,8.5
						c8.9,6.5,12.4,16.2,12.9,28.6c0.5,10.8,3.3,20.1,11.7,25.4c2.6,1.7,5.7,4.4,6.7,7.6c4.5,13.2,12,23.8,18.1,35.5
						c1.9,3.6,4.1,8.8,3.4,12.4c-1.8,9,1.4,16.4,2.8,24.3c1.2,7.3,2.6,14.5,3.9,21.7c-3.4-3.3-7.2-6.3-10.3-10.2
						c-6.9-8.6-13.6-17.1-22.2-23.2c-6.2-4.3-11.4-10.5-12.2-20.8c-0.9-10.8-5.3-19.5-12.7-25.3c-4.9-3.8-6.8-9.3-6.9-16.2
						c-0.1-3.9-0.3-7.8-0.5-11.7c-0.6-10.7-3.7-19.8-10.5-26.8c-2.6-2.8-6.6-6.3-6.7-9.7c-0.4-12.6-7.3-21-11-31.3
						c-3.3-9.3-7.1-18.3-11.2-28.7C193.9,13.2,198.7,12.3,203.7,11.2z"/>
				</g>
			</g>
		</g>
	</g>
	<g>
		<g>
			<g>
				<g>
					<defs>
						<rect id="SVGID_8_" width="1920" height="700"/>
					</defs>
					<clipPath id="SVGID_9_">
						<use xlink:href="#SVGID_8_"  style="overflow:visible;"/>
					</clipPath>
					<g class="st6">
						<g>
							<g>
								<path class="st7" d="M1150.1,217.7c-0.1,0-0.2,0-0.2,0l-0.1,0.5l0,0h0.5C1150.2,218.1,1150.2,217.9,1150.1,217.7
									L1150.1,217.7z"/>
								<path class="st8" d="M1165.2,231.7c0-9.6-1.8-12-9.5-13c-1.8-0.2-3.6-0.3-5.5-0.4c1,3.4,3.2,6.6,4,10.1
									c0.4,1.9,0.4,4-0.5,6.3c-0.2,0.5-0.4,0.9-0.6,1.4c-0.7,1.4,0.9,4.5,1.5,6.8c0.9,4,1.9,8,2.7,11.9l-0.2,0.2
									c0,0-0.1,0-0.1,0.1c-2.9-2.8-7.3-3.7-7.2-10.2c0-3.6-2.3-2.8-4.3-2.7c-2.8,0-4.5-2-5.6-5.3c-1.6-4.9-5.4-5.3-8.8-6.1
									c-0.8-0.2-1.7,0.7-2.9,1.4c-0.4,4-0.9,8.2-1.2,11.9c4.7,3.3,9.6,4.1,5.6,12.7c-1.9,3.9,2.9,7.2,7.1,9.2
									c2.6-4,5.7-7.7,11-6.6c0.2,0,0.3,0.1,0.4,0c1.9,0,4.1-2.8,6.1-4.2c0.1,0.1,0.2,0.2,0.3,0.3c0-0.2-0.1-0.3-0.1-0.5
									c1.1-1,2.5-1.7,3.4-2.9c3.1-4.1-1.9-11.6,3.9-14.9C1165.3,236.6,1165.2,233.5,1165.2,231.7z"/>
								<path class="st8" d="M374.1,5.5c6.3,4.8,11.4,7.8,15.8,12c11.2,10.7,23.1,11.7,35.7,5.4c2.3-1.1,4.6-1.9,6.9-2.9
									c2.1,6.2,3.9,11.4,6.2,17.9c15.4,2.9,30.8,6,46.4,8.6c2.5,0.5,5-1.1,7.6-1.3c14.2-0.9,28.3-1.8,41.3-2.6
									c7.5,6.5,9.1,17.2,16.5,21.8c6.6,4.2,12.4,10.6,18.3,15.9c-1.6,1.1-3.6,2.6-6.4,4.7c3.7,4.9,6.9,9,10.1,13.1
									c9.1,11.3,12.4,7.5,20.3,2.3c2.5-1.6,4-5.5,5.9-8.3c2.6,6.8,5.6,13.6,2.9,21.9c-0.7,2.1-0.2,5.1,0.3,7.6
									c2.2,13.9,3.2,28.4,7,41.6c5.3,18.7,12,36.8,18.1,55.2c4.3,13,10.3,24.9,13.2,38.8c1.2,5.8,5.2,10.9,8.4,15.7
									c2.2,3.3,6.2,3.4,8.2,0c3.6-6.1,9.1-10.3,11.7-16.5c2.5-6,6.5-9.4,9.9-14c-0.2-9.8-1.4-19.4,3.2-28.3
									c1.7-3.3,0.9-8.8,0.8-13.2c-0.2-5.1-0.9-10.3-1.4-15.4c-0.7-7.2,0.6-12,7-14.5c5.6-2.2,12-5.7,15.1-11.3s7-8.8,10.8-12.8
									c4.7-4.9,9.7-9.6,13.7-15.4c4.5-6.5,9.3-11.6,15.9-14.4c5.7-2.4,9.3-7.7,9.7-15.8c0.1-1.8,1-3.5,1.3-4.6
									c5.5-5.4,11.2-2.7,16.7-3.1c5.5-0.5,11-2,16.4-3.9c5.1-1.9,9.9-4.8,15.7-7.7c1.7,14.4,6.1,26.4,15.1,33.3
									c4.5,3.5,4.1,7.9,5.8,12.2c1.9,4.9,7.7,6.6,8,13.1c0.3,5.1,0.3,10.2,0,15.3c-0.3,3.7-1.4,7.3-2.3,11.7
									c5.6,4.1,10.4,6.2,16,1.7c5-4,10.2-7.8,15.8-12.2c7.3,17.2,7.3,35.9,13.2,52.4c2.5,7,0.2,16.4,1.1,24.9
									c0.9,8.5-1.6,17.6-2.5,26.4c-0.5,5-0.5,10-0.8,15c2.9,0.8,5.7,0.4,6.6,1.9c6.4,10.3,13.4,19.8,15.4,33.9
									c2.9,20.1,10,37.8,25.4,47.7c2.7,1.7,5.5,3.7,7.6,6.5c1.9,2.6,2.9,6.2,4.3,9.4l0,0l0,0c2.4-0.9,4.6-1.9,7.4-3.1
									c-2-6.7-3.2-14.4-6.5-20.4c-3.7-6.9-5.7-13.6-4.4-21.7c1.4-8.5-0.9-15.4-5.8-20.8c-6-6.8-11.3-14.9-19.3-18.3
									c-4.3-1.8-6-5.8-7.4-11.2c-1.8-7.2-3.5-16.1-7.7-20.2c-4.9-4.8-5.3-9.4-3.9-14.8c3.2-12.9,7.7-25.2,9.3-38.8
									c0.1-0.9,1.4-2.3,2.1-2.3c1.4,0.1,3.4,0.7,3.9,1.9c1.3,3.2,0.8,8.2,5,8.6c9.7,1,15.8,7.9,18.9,19c1.5,5.7,5.6,7.3,8.8,9.9
									c2.8,2.4,6.4,3.2,9.8,4.8c0.4,6.9,0.6,13.1,1.1,21.1c6.6-5.3,13.9-8.1,17.1-14.4c4.1-8,10.1-10.1,15.6-14.3
									c2.6-2,5.2-4.2,7.9-6c3.4-2.3,5.5-5.7,6.3-10.4c3.9-22.4,0.8-43.2-12.7-58.8c-7.5-8.7-14.4-17.8-20.6-28
									c-5.1-8.8-5.3-13.9,0.6-22c4.5-6,10.2-10.3,15.3-15.3c7.1-6.9,13.4-8.1,20.9-2.4c0.9,4.9,1.9,9.7,2.6,14.2
									c-4.1,3.9-8,7-11.3,10.9c-3.6,4.2-2,11.6,2.5,14.4c3.5,2.2,6.6,1.9,10.1-0.3c6.1-3.9,7.4-11.7,10.4-17.9
									c-0.2-1-0.2-1.7-0.5-2.2c-0.5-1-1.3-1.9-1.9-2.9c-3.7-7.2-2.6-15,2.9-17.1c7.7-3,15.8-4.5,23.5-7.6
									c9.6-3.9,18.2-11.1,28.6-11.6c1.9-0.1,4.1-1.3,5.7-2.8c11-10.4,21.8-21,32.6-31.6c1-1,1.7-3,1.9-4.7
									c1.6-13,8.9-21.4,15.3-30.4c2.2-3.1,4.3-7.2,6.2-11.9H369.8C371.5-0.4,373,3,374.1,5.5z"/>
								<path class="st8" d="M933.9,379.5c-4.7-3.5-9.4-7.1-14.1-10.5c-4.8-3.5-9.4-8.4-14.6-9.7c-5.1-1.4-7.9-5-11.1-9.1
									c-1.8-2.3-3.5-4.9-5.6-6.5c-6.6-5.1-12.4-11-16.6-19.5c-1.4-2.8-4.6-5-7.4-5.9c-6.7-2.3-13.6-3.7-20.3-5.4
									c-0.2,9.3-0.4,9.5,1.6,12c4,4.9,7.9,10,12.4,14.2c8.3,7.6,11.5,21,20.7,27.4c0.7,0.5,1,2.2,1.3,3.4c2.2,9.4,6.6,17,11.9,24
									c3.1,4.1,5.6,9.4,7.1,14.8c4.5,15.8,13.6,26.9,22.8,37.9c6.2,7.4,13.3,13.7,20.1,20.5c5.6-0.5,11.1-1,16.5-1.5
									c-3.3-7-1.4-14.8-1.7-22.1c-0.2-3.7,0.2-8,1.7-11c1.3-2.6,4.4-3.9,6.8-5.8c-3.4-6.6-6.2-12.2-8.8-17.2
									c-5-0.7-6.8,3.1-8.7,6.6c-2.9,0.4-5.1-1.9-5.4-4.9c-0.8-7.7-5.7-9.4-10.3-11.8C932.8,392.6,933.4,386,933.9,379.5
									L933.9,379.5L933.9,379.5z"/>
								<path class="st7" d="M958.6,465.5l0.2-0.1C958.7,465.4,958.6,465.4,958.6,465.5L958.6,465.5z"/>
								<path class="st7" d="M934,379.3L934,379.3l-0.1,0.1l0,0l0,0c0.1,0.1,0.1,0.1,0.2,0.2C934.2,379.7,934,379.5,934,379.3
									L934,379.3L934,379.3c0,0.2,0.2,0.4,0.2,0.4C934.2,379.6,934.1,379.4,934,379.3L934,379.3L934,379.3z"/>
								<path class="st7" d="M934,379.3L934,379.3L934,379.3z"/>
								<path class="st7" d="M933.9,379.5L933.9,379.5L933.9,379.5z"/>
								<path class="st7" d="M958.7,465.6c0-0.1,0-0.1,0-0.2l-0.2,0.1C958.6,465.5,958.6,465.6,958.7,465.6z"/>
								<path class="st8" d="M1131.7,207.7c6-2.8,7.3,3.4,10.3,6.7c0.4,0.4,0.8,0.8,1.2,1.2c1.2,1,2.4,1.8,3.6,2.8v0.2
									c0.1,0,0.2,0,0.3,0l-0.3-0.4c1-0.1,2.1-0.2,3.1-0.4l2.2-8.7l0,0c-7.6-6.9-14.2-16.7-24.9-12.5c-1.3-3.9-2-7.4-3.4-10.4
									c-1.8-4-1.5-8.8,0.6-10.7c8.6-7.8,9-17.5,5.6-28.8c-0.5-1.5-0.2-3.3-0.3-5c-5.3-1.7-10.1-3.2-14.3-4.5
									c-5.3,5.4-5,11.9-5.4,18.4c-0.2,4.2-0.9,9.4-2.9,12.2c-1.9,2.6-3.3,4.6-2.6,8c0.8,4.3,1.3,9.3,3.2,12.8
									c3.6,6.3,8,11.7,4.2,20.2c1.8,5.1,2.6,11,7.8,14.2c3.3-3.2,3.8-7.3,2.5-11.8c-1-3.5-1-6.2,2.5-8.6
									C1126.8,204.2,1130,208.5,1131.7,207.7z"/>
								<path class="st7" d="M1151.7,203.1c-0.3,0.1-0.7,0.2-1,0.2c0.5,1.9,0.9,3.9,1.4,5.8l0,0
									C1152,207.1,1151.8,205.1,1151.7,203.1z"/>
								<path class="st7" d="M1143.2,218.9c-0.8,0.5-1.4,1.6-1.4,3.4c0,1,1.9,3.1,2.7,3c3.5-0.6,2.5-4,2.4-6.8
									c-0.6-0.1-1.1-0.2-1.6-0.2C1144.5,218.4,1143.8,218.5,1143.2,218.9z"/>
								<path class="st8" d="M689,262.4c-1.5-2.8-3.9-6.3-7.3-3.6c-3.2,16.5-6.6,32.7,1.4,48.4c1.9,0.4,3.4,1.1,4.8,0.9
									c2-0.3,4-0.9,5.8-2c7.3-4.1,9.7-11.4,6.2-20.5C696.9,277.5,693.1,269.9,689,262.4z"/>
								<path class="st8" d="M1114.6,89.9c9.6-19,11.5-26.9,9.8-41.7c-2.4,1-5.1,1.3-6.7,3.1c-2.6,2.9-5.1,6.5-6.7,10.5
									c-1.8,4.4-3.4,9.4-3.6,14.4C1106.9,82.5,1110.3,86.9,1114.6,89.9z"/>
								<path class="st7" d="M1096.7,249.9c6.7-2.6,6.7-2.6,3.1-11.9C1098.8,241.9,1098,244.6,1096.7,249.9z"/>
								<path class="st8" d="M814.3,221.8c0.7,0.2,1.5,0.4,2.2,0.6v-10c-0.5,0-0.9-0.1-1.4-0.1C814.8,215.4,814.5,218.6,814.3,221.8
									z"/>
								<path class="st8" d="M880.4,403.4c-0.3,0.1-0.7,1.2-0.6,1.5c0.8,2.2,1.5,4.4,2.6,6.3c0.2,0.5,1.7,0.1,2.6-0.1
									c0.3-0.1,0.4-0.9,0.8-1.8c-0.9-1.9-1.7-4.1-2.9-6C882.5,402.8,881.1,403.1,880.4,403.4z"/>
								<path class="st8" d="M864.3,371.4c2.1,3.5,3.6,6,5.6,9.4C870.2,372.8,870.2,372.8,864.3,371.4z"/>
								<path class="st7" d="M1105.4,226.6c-0.1,0.5,0.2,1.1,0.4,1.7c0.7-0.3,1.5-0.7,2.2-0.9c-0.6-0.8-1.2-1.5-1.9-2.2
									C1105.9,225.7,1105.5,226.1,1105.4,226.6z"/>
								<path class="st7" d="M826.7,292c-0.1,0.5-0.3,0.9-0.3,1.4c0,0.2,0.5,0.3,0.8,0.4c0.1-0.5,0.3-0.9,0.2-1.4
									C827.5,292.3,827,292.2,826.7,292z"/>
								<path class="st8" d="M1149.9,244.8c0-3.6-2.3-2.8-4.3-2.7c-2.8,0-4.5-2-5.6-5.3"/>
								<path class="st8" d="M933.9,379.5c-4.7-3.5-9.4-7.1-14.1-10.5c-4.8-3.5-9.4-8.4-14.6-9.7c-5.1-1.4-7.9-5-11.1-9.1
									c-1.8-2.3-3.5-4.9-5.6-6.5c-6.6-5.1-12.4-11-16.6-19.5c-1.4-2.8-4.6-5-7.4-5.9c-6.7-2.3-13.6-3.7-20.3-5.4
									c-0.2,9.3-0.4,9.5,1.6,12c4,4.9,7.9,10,12.4,14.2c8.3,7.6,11.5,21,20.7,27.4c0.7,0.5,1,2.2,1.3,3.4c2.2,9.4,6.6,17,11.9,24
									c3.1,4.1,5.6,9.4,7.1,14.8c4.5,15.8,13.6,26.9,22.8,37.9c6.2,7.4,13.3,13.7,20.1,20.5c5.6-0.5,11.1-1,16.5-1.5
									c-3.3-7-1.4-14.8-1.7-22.1c-0.2-3.7,0.2-8,1.7-11c1.3-2.6,4.4-3.9,6.8-5.8c-3.4-6.6-6.2-12.2-8.8-17.2
									c-5-0.7-6.8,3.1-8.7,6.6c-2.9,0.4-5.1-1.9-5.4-4.9c-0.8-7.7-5.7-9.4-10.3-11.8C932.8,392.6,933.4,386,933.9,379.5
									L933.9,379.5L933.9,379.5z"/>
								<path class="st8" d="M1127.2,196.6c-1.3-3.9-2-7.4-3.4-10.4c-1.8-4-1.5-8.8,0.6-10.7"/>
								<path class="st8" d="M689,262.4c-1.5-2.8-3.9-6.3-7.3-3.6c-3.2,16.5-6.6,32.7,1.4,48.4c1.9,0.4,3.4,1.1,4.8,0.9
									c2-0.3,4-0.9,5.8-2c7.3-4.1,9.7-11.4,6.2-20.5C696.9,277.5,693.1,269.9,689,262.4z"/>
								<path class="st8" d="M1090.6,508.1c6-1.5,11.4-3,17.7-0.3c5,2.2,11.3,2.5,16.5,0.8"/>
								<path class="st8" d="M1364.9,440c-7.4-4-15.1-7.2-22.8-10.6c-15.3-6.9-30.6-13.6-45.9-20.3c-0.5-0.2-1,0.1-3.6,0.3
									c-7.2,7.1-15.8,15.5-24.1,23.6c-10.5-8-10.6-21.7-12.8-32.5c-10.4-7.5-19.9-8.4-29.5-1c-1.7,1.2-3.7,1.7-5.4,2.5
									c0,5.5,2.8,6.9,6,7.1c4.3,0.3,5.4,5.3,8.2,7.9c2.2,2,4.8,3.4,7.9,5.6c-2.9,1.5-5.1,2.5-7.2,3.6c3,5.9,5.9,11.6,8.7,17.2
									c4.1,0.7,6.8-5.9,11.4-2.1c9.1,7.4,19.8,10,29.8,14.1c11.9,4.8,16.5,15.5,18.4,28.9c-3.4,6.2-10.8,7.9-8.1,18.6
									c4.5-0.9,9-1.4,13.2-2.9c5.6-2,10.5-0.9,13.7,5c6.1,11.2,15.3,8.8,23.6,9.2c2.9,0.2,6.3-3.6,8.8-6.4c1.8-2,2-6.2,3.7-8.3
									c2-2.5,5-5.3,7.6-5.3c7.7,0.1,15,1.8,20.1,10.9c4.1,7.2,9.4,13.4,13.7,19.5c5.9,1.4,10.9,3.6,15.9,3.5
									c5.4,0,9.7,8.3,16.5,2.7c-0.3-0.7-0.6-1.4-1-2c-2.8-4.2-7.8-6-7.9-12.3c2.8,0.6,5.5,1.2,8.9,1.9c0.5,0.1,1,0.2,1.5,0.3
									c-2-3.7-3.9-4.3-6.4-3.3c-0.3,0.2-0.7,0.2-0.9,0.3c-1,0.3-2,0.5-2.9,0.6c-1,0.3-2.5,1.2-2.8,0.8c-3.2-4.8-9.4-5.5-11.5-10.6
									c-3.3-7.9-9.1-12.1-13.2-18.5c-0.8-1.3-0.8-3.5-1.2-5.3c2.5-2.2,4.8-4.2,7.9-6.8c-5.3-9.6-14-9.1-20.3-14.4
									C1378.3,450,1374.9,445.5,1364.9,440"/>
								<path class="st8" d="M1067.7,301.8c-5.6,10-12,18.8-21.3,23.6c-2.6,1.3-4.8,4.7-6.5,7.8c-5.1,9.8-12.2,15.1-21.3,16.8
									c-1.4,0.3-2.8,1.4-4.1,2.2c-1.6,4.7-3.2,9.2-4.9,14.3c-5.6-1.3-10.4-2.5-15.1-3.6c-4.5,3.7-6.9,9.1-6.3,14.9
									c1,8.7,0.4,19.8,6.2,24.9c4.7,4.3,4.9,8.8,5.9,14.2c2.1,11.7,2.6,12.3,11.9,12.9c1.5,0.1,4-0.9,4.4,0
									c4.1,8,9.3,3.9,14.7,3.5c7.3-0.6,14.9,1.1,19.9,10.7c2.2-1,4.5-2.4,6.9-3c2.8-0.7,5.7-0.7,8.6-1c2.5-28.8,2.5-28.8,13-41.2
									c0.2-1.5,0.2-3.4,0.6-5.2c0.8-4.3,0.7-9.7,2.8-12.5c2.1-2.8,6.4-2.6,9.6-4.1c0.6-0.2,0.8-1.8,2-4.8
									c-9.6-2.1-8.6-13.6-11.9-21.9c-2.5-6.7-0.8-12.8,3.2-17.5c2.1-2.4,4.8-3.1,5.5-7.9c0.4-2.7,4.1-4.6,7.4-7.9
									c-10-5.3-16.7-13.9-24.5-23.5C1071.2,297.4,1069.1,299.3,1067.7,301.8"/>
								<path class="st8" d="M1010.3,476.1c-1,0.2-1.9,0.6-2.9,0.9c-11.4,4.9-14.4,4.7-23.7-1.5"/>
								<path class="st8" d="M1166.2,257.8c-2.2,5.2-5.6,8-8.9,11.3c-4.5,4.6-7.7,7.1-13,3.6c-1.1-0.8-3.2-0.2-4.3,0.8
									c-6.1,5.3-13.6,9.3-13.4,21c0,0.9,0.6,1.9,1.1,3.2c1.8-3.4,3.4-6.5,5.2-9.8c2.5,0,4.9-0.1,7.4,0c2.8,0.2,5.2-5.4,8.2-0.8
									c1,19.9,1.6,20.7,17.5,23.2v-14.5c2.6,0.7,4.6,1.2,6.6,1.9c3.2-3.6,5-7.7,3.3-13.4C1173.1,275.3,1175.6,263.2,1166.2,257.8"
									/>
								<path class="st8" d="M1113.2,524.9c0.5-1-0.1-3.8-0.9-4.8c-4.2-4.9-8.8-8.4-17.3-2.8"/>
								<path class="st8" d="M1131.7,207.7c6-2.8,7.3,3.4,10.3,6.7c0.4,0.4,0.8,0.8,1.2,1.2c1.2,1,2.4,1.8,3.6,2.8v0.2
									c0.1,0,0.2,0,0.3,0l-0.3-0.4c1-0.1,2.1-0.2,3.1-0.4l2.2-8.7l0,0c-7.6-6.9-14.2-16.7-24.9-12.5c-1.3-3.9-2-7.4-3.4-10.4
									c-1.8-4-1.5-8.8,0.6-10.7c8.6-7.8,9-17.5,5.6-28.8c-0.5-1.5-0.2-3.3-0.3-5c-5.3-1.7-10.1-3.2-14.3-4.5
									c-5.3,5.4-5,11.9-5.4,18.4c-0.2,4.2-0.9,9.4-2.9,12.2c-1.9,2.6-3.3,4.6-2.6,8c0.8,4.3,1.3,9.3,3.2,12.8
									c3.6,6.3,8,11.7,4.2,20.2c1.8,5.1,2.6,11,7.8,14.2c3.3-3.2,3.8-7.3,2.5-11.8c-1-3.5-1-6.2,2.5-8.6
									C1126.8,204.2,1130,208.5,1131.7,207.7z"/>
								<g id="Layer_5_00000029013002098638166950000016590128644541684629_">
									<path class="st8" d="M1189.4,361.2c1.7,0,3.5,0.3,5.2-0.2c1.2-0.4,2.2-2.1,3.2-3.3c0.2-0.2-0.3-1.5-0.5-1.5
										c-1.2,0-2.7-0.2-3.7,0.6c-0.8,0.6-1.5,1.4-2.3,2.2C1190.6,359.7,1190.1,360.4,1189.4,361.2
										C1189.4,361.1,1189.4,361.1,1189.4,361.2"/>
									<path class="st8" d="M1159.6,507L1159.6,507c-0.5,0.6-1.1,1.1-1.6,1.6l0,0c-0.6,0.5-1.1,0.9-1.7,1.4l0,0
										c-0.6,0.5-1.2,0.9-1.8,1.2l0,0c-0.6,0.4-1.2,0.8-1.9,1.2c-0.6,0.3-1.3,0.7-2,1.1c-5.2,2.6-7.2,8-7.4,15
										c5.3,1,9.6-1.7,12.6-5.7c5.2-6.8,11.7-10,18.3-13.3c2.3-1.2,6.3-1.3,5.7-6.9c-5.5-0.5-11-0.9-16.4-1.3
										c0.1-0.2,0.2-0.3,0.2-0.5l0,0c-0.5,0.1-1.1,0.2-1.6,0.2c-3-0.9-6-2.1-9.1-2.2c-8.5-0.2-16.9,2-25.3,3.3
										c-8.8,1.4-17.9-4.7-26.7,1.1c-0.3,0.3-1.1,0.2-1.5-0.1c-8.6-6-17.5-4.7-26.4-1.7c-0.8,0.3-1.9-1-2.9-1.1
										c-4.5-0.5-4.5-0.4-4.8,7.6c8.4,5.1,16.9,2.2,25.2,0.1c6-1.5,11.4-3,17.7-0.3c5,2.2,11.3,2.5,16.5,0.8
										c12.3-4,24.8-5.9,37.3-7.5c0.3,0.1,0.7,0.2,1.1,0.3c0.1,0,0.1,0,0.2,0C1162.3,503.5,1161.1,505.4,1159.6,507"/>
									<path class="st8" d="M1182.1,433.4c0-0.1-0.1-0.2-0.2-0.3c-2.2-3-5-4.6-8.2-2.8c-1.2,0.7-2.1,2.5-2.7,4.1
										c-0.2,0.7,0.7,2.3,1.3,3.2c2.4,3.2,5.5,3.1,8.5,1.9c0.1,0,0.2-0.1,0.3-0.2c0.6-0.5,1-1.7,1.5-2.5
										C1182.5,435.6,1182.5,434.3,1182.1,433.4"/>
									<path class="st8" d="M1607.7,596.5c-1.5-2.2-3-4.5-4.6-6.6c-0.1-0.1-0.2-0.1-0.2-0.1c-0.3,0-0.7,0.1-1,0.1
										c-0.2,0.5-0.5,1-0.6,1.4c0,0.1,0,0.2,0,0.3c1,2.7,2.2,5.2,3.3,7.7C1605.6,598.3,1606.7,597.4,1607.7,596.5"/>
									<path class="st8" d="M1171.7,493.1c0.8,0.6,1.5,1.2,2.3,1.8l0,0c0.8-0.6,1.7-1.2,2.5-1.9c-0.8-0.6-1.6-1.6-2.4-1.6
										c-0.4,0-0.8,0.3-1.2,0.6C1172.5,492.3,1172.1,492.7,1171.7,493.1C1171.7,493,1171.7,493.1,1171.7,493.1"/>
									<path class="st8" d="M1276.6,410.5c0-0.1-0.1-0.3-0.1-0.4c-0.4,0.2-0.8,0.3-1.2,0.5c0.5,0.2,1,0.5,1.5,0.7
										C1276.8,411.1,1276.7,410.8,1276.6,410.5"/>
									<path class="st8" d="M1242.7,466.3c0.3,0,0.6,0,0.8-0.2c0.2-0.2,0.1-0.8,0.2-1.2c-0.3-0.2-0.6-0.3-1-0.5
										c-0.1,0.6-0.2,1.2-0.3,1.9l0,0L1242.7,466.3L1242.7,466.3z"/>
									<g>
										<path class="st8" d="M1432.1,691.3c-3.5-1.7-7.3-3.5-10.7-5.1c-8.7-24.9-8.7-24.9-25-36.2c-3.1-2.1-6.3-3.9-8.8-5.5
											c-2.3-9.9-3.2-19.1-6.4-26.8c-2.5-5.9-4.1-11.6-5-17.9c-2.1-13.6-5.2-17.1-16.2-19.5c-3.9-14.2-7.7-28.2-11.7-41.9
											c-0.6-2.1-2-4.6-5.9-2.5c-4.4,15.1-8.7,31.4-7.6,49.2c0.8,12.7-1.7,24.3-6.7,35.2c-3.2,7-7.4,8.2-12.8,3.7
											c-3.3-2.8-6.2-6.8-9.7-8.8c-11.3-6-21-15.3-31.2-23.4c-1.1-0.9-1.6-3-2.8-5.2c1.6-2.6,3.1-5,4.7-7.4c1.3,0,2.9-0.7,3.9,0
											c4.4,2.8,5.2,1.2,3.7-4.9c-2.8,1.7-5.2,3.3-7.6,4.9c0.9-9.5,9-15.3,8.8-26c-8.3-5.3-16.9-1.1-25.1-2.9
											c-8.8-2-15.7-11.1-25.1-10.8c0,1.9-0.2,2.8,0,3.1c0.5,0.9,1.5,1.5,2,2.5c2,3.6,1.7,6.9-0.8,7.3c-2.5,0.5-5.1,1.2-7.6,0.8
											c-5.3-1.1-9.3,2.4-11.8,7c-4.7,8.8-8.4,18.4-12.7,27.8c-6.2,1.1-11.7-0.8-16-7.5c-3.3-4.9-7.6-5.9-12.5-3.8
											c-9.4,4-16.5,11.7-22.3,21.8c1.6,9.7-6.3,7.5-9.1,11.2c-0.4,6.6-0.8,7.8-2.2,8.1c-1.9-2-3.8-3.9-5.5-5.6
											c-4.4,4.4-7.3,8.1-8,14.8c-1.7,15.9-10,27.5-21.9,30c-7.6,1.5-14.8,4.2-21.9,7.7c-2.3,1.1-4.9,2.3-7.3,2.1
											c-6-0.6-10.7,2.9-15.5,6.8c-7.1,5.9-14.4,11.1-21.5,16.5c-1.2,6.6-2.7,13.4-3.4,20.3c-0.3,2.4-0.2,4.9-0.1,7.4h409.5
											C1440.3,710.8,1434.6,703,1432.1,691.3z"/>
									</g>
									<path class="st8" d="M1364.9,440c-7.4-4-15.1-7.2-22.8-10.6c-15.3-6.9-30.6-13.6-45.9-20.3c-0.5-0.2-1,0.1-3.6,0.3
										c-7.2,7.1-15.8,15.5-24.1,23.6c-10.5-8-10.6-21.7-12.8-32.5c-10.4-7.5-19.9-8.4-29.5-1c-1.7,1.2-3.7,1.7-5.4,2.5
										c0,5.5,2.8,6.9,6,7.1c4.3,0.3,5.4,5.3,8.2,7.9c2.2,2,4.8,3.4,7.9,5.6c-2.9,1.5-5.1,2.5-7.2,3.6c3,5.9,5.9,11.6,8.7,17.2
										c4.1,0.7,6.8-5.9,11.4-2.1c9.1,7.4,19.8,10,29.8,14.1c11.9,4.8,16.5,15.5,18.4,28.9c-3.4,6.2-10.8,7.9-8.1,18.6
										c4.5-0.9,9-1.4,13.2-2.9c5.6-2,10.5-0.9,13.7,5c6.1,11.2,15.3,8.8,23.6,9.2c2.9,0.2,6.3-3.6,8.8-6.4c1.8-2,2-6.2,3.7-8.3
										c2-2.5,5-5.3,7.6-5.3c7.7,0.1,15,1.8,20.1,10.9c4.1,7.2,9.4,13.4,13.7,19.5c5.9,1.4,10.9,3.6,15.9,3.5
										c5.4,0,9.7,8.3,16.5,2.7c-0.3-0.7-0.6-1.4-1-2c-2.8-4.2-7.8-6-7.9-12.3c2.8,0.6,5.5,1.2,8.9,1.9c0.5,0.1,1,0.2,1.5,0.3
										c-2-3.7-3.9-4.3-6.4-3.3c-0.3,0.2-0.7,0.2-0.9,0.3c-1,0.3-2,0.5-2.9,0.6c-1,0.3-2.5,1.2-2.8,0.8
										c-3.2-4.8-9.4-5.5-11.5-10.6c-3.3-7.9-9.1-12.1-13.2-18.5c-0.8-1.3-0.8-3.5-1.2-5.3c2.5-2.2,4.8-4.2,7.9-6.8
										c-5.3-9.6-14-9.1-20.3-14.4C1378.3,450,1374.9,445.5,1364.9,440"/>
									<path class="st8" d="M1067.7,301.8c-5.6,10-12,18.8-21.3,23.6c-2.6,1.3-4.8,4.7-6.5,7.8c-5.1,9.8-12.2,15.1-21.3,16.8
										c-1.4,0.3-2.8,1.4-4.1,2.2c-1.6,4.7-3.2,9.2-4.9,14.3c-5.6-1.3-10.4-2.5-15.1-3.6c-4.5,3.7-6.9,9.1-6.3,14.9
										c1,8.7,0.4,19.8,6.2,24.9c4.7,4.3,4.9,8.8,5.9,14.2c2.1,11.7,2.6,12.3,11.9,12.9c1.5,0.1,4-0.9,4.4,0
										c4.1,8,9.3,3.9,14.7,3.5c7.3-0.6,14.9,1.1,19.9,10.7c2.2-1,4.5-2.4,6.9-3c2.8-0.7,5.7-0.7,8.6-1c2.5-28.8,2.5-28.8,13-41.2
										c0.2-1.5,0.2-3.4,0.6-5.2c0.8-4.3,0.7-9.7,2.8-12.5c2.1-2.8,6.4-2.6,9.6-4.1c0.6-0.2,0.8-1.8,2-4.8
										c-9.6-2.1-8.6-13.6-11.9-21.9c-2.5-6.7-0.8-12.8,3.2-17.5c2.1-2.4,4.8-3.1,5.5-7.9c0.4-2.7,4.1-4.6,7.4-7.9
										c-10-5.3-16.7-13.9-24.5-23.5C1071.2,297.4,1069.1,299.3,1067.7,301.8"/>
									<path class="st8" d="M1093.9,425.5c-1.1,4.2-0.8,8.3,2.3,10c4.9,2.6,5.2,7.4,4.9,12.7c-0.2,3.8-1.3,7.7-1.2,11.4
										c0.1,3.7,2.3,5.7,5.3,4.9c1.4-0.3,2.8-1.2,4-1.7c3.8-12-1.7-25.4,4.4-38.2c2.2,6.5,3,12.5,5.8,16
										c3.4,4.4,0.9,14.3,8.3,14.3c4.7,0,2.9,12.4,10.8,7.2c1.5-8,3.5-15.7-3.7-20.9c-1.2-0.9-2.5-3-2.5-4.5
										c0.1-7.9-4.9-12.6-7-19c-0.3-0.9,0.1-2.3,0.2-4.1c2.4-1.8,5-3.7,7.2-5.4c3.9-1.4,6.7,4.8,10.3,1c-1.5-3.9-1.4-8.2-2.8-13.3
										c-8.5,3-17.1,6-25.7,8.9c-9.1-10.9-9.1-10.9-3-21.8c10.3,0.9,20.9-1.6,31.6,1.9c0.5,0.2,1,0.3,1.5,0.4
										c7.7,1.5,12.5-5.1,15.6-18.1c-0.8,0.2-2-0.1-2.6,0.3c-0.1,0.1-0.2,0.1-0.2,0.2c-6,9.5-14.1,9.1-22.2,7.7
										c-6-1-11.9-2.8-18.4-4.4c-5.1,4-11.3,6.8-13.3,16.4C1100.9,400.2,1097.3,412.8,1093.9,425.5"/>
									<path class="st8" d="M957.4,482.5c15,9.8,17,10.4,32.5,11.4c3.5,0.2,7.1,0.9,10.5,2.1c13,4.8,34.8,8.5,49.1,7.7
										c3.1-0.1,7.9,5.6,9.1-0.8c1.5-7.7-5.3-2.9-7.3-5.3c-5.3-6.2-11.9-5.7-18.2-7c-0.5-0.1-0.7-1.8-1.1-2.7
										c1.6-2.7,6.4,0.8,6.4-6.3c-9.4,1-18.3-0.8-26.8-5.2c-0.4-0.3-0.9-0.5-1.4-0.4c-1,0.2-1.9,0.6-2.9,0.9
										c-11.4,4.9-14.4,4.7-23.7-1.5c-5.9-3.9-11.8-6.8-18.7-6.2c-2,0.2-4.2-2.4-6.3-3.7c-2.2,4.9-4.3,9.9-6.6,15.1
										C954.4,481.5,956.1,481.7,957.4,482.5"/>
									<path class="st8" d="M1166.2,257.8c-2.2,5.2-5.6,8-8.9,11.3c-4.5,4.6-7.7,7.1-13,3.6c-1.1-0.8-3.2-0.2-4.3,0.8
										c-6.1,5.3-13.6,9.3-13.4,21c0,0.9,0.6,1.9,1.1,3.2c1.8-3.4,3.4-6.5,5.2-9.8c2.5,0,4.9-0.1,7.4,0c2.8,0.2,5.2-5.4,8.2-0.8
										c1,19.9,1.6,20.7,17.5,23.2v-14.5c2.6,0.7,4.6,1.2,6.6,1.9c3.2-3.6,5-7.7,3.3-13.4C1173.1,275.3,1175.6,263.2,1166.2,257.8
										"/>
									<path class="st8" d="M1440.9,466.4c3.5-2.8,6.6-5.4,8.3-10.4c0.9-2.7,2.5-4.4,5.6-4.9c4.6-0.9,4.5-2.2,0.5-9
										c-9.1,3.5-9,3.7-16.3,13.1c-3.2,4.1-6.4,7-11.9,7c-5.9,0-12.4-0.6-19.1,2.6C1422.8,476.5,1427.3,477.5,1440.9,466.4"/>
									<path class="st8" d="M1184.2,393.4c-2.5,2.5-0.6,4.6,1,5.9c2.4,1.9,5.9,0.6,6.2-2.4c0.5-3.6,0.1-7.4,0.1-11.1
										c2.3-0.8,4.3-1.4,5.8-2c0.4-5,0.8-9.9,1.1-13.2c-3.6-3.5-6.5-6.3-9.3-9.1c0.1-0.1,0.2-0.2,0.3-0.3l0,0c-0.2,0-0.4,0-0.6,0
										l0,0l0.4,0.3c-4.8,6.3-4.9,13.6-3.3,21.5C1186.5,386.6,1187.2,390.4,1184.2,393.4"/>
									<path class="st8" d="M1190.4,429.6c0.3,3.3,0.6,5.8,0.8,8.3c15.6-3.4,15.6-3.4,29.4,0.6c0.6-3.6-0.5-6.7-2.7-8
										C1209,425.5,1199.9,425.2,1190.4,429.6"/>
									<path class="st8" d="M1575.7,663.6c6.5,14.5,16.5,21.1,27.4,26.3c0.5-1.1,1.1-2.3,1.7-3.4c-8.5-7.9-16.9-15.8-25.4-23.5
										C1578.9,662.6,1577.7,663.2,1575.7,663.6"/>
									<path class="st8" d="M1095,517.3c6,4,10.2,7.1,14.5,9.5c0.9,0.5,3.2-0.6,3.7-1.9c0.5-1-0.1-3.8-0.9-4.8
										C1108.1,515.2,1103.4,511.7,1095,517.3"/>
									<path class="st8" d="M1256.2,475.5c-0.2,1.1,1.5,3.6,2.4,3.7c1.2,0.2,3.6-1.3,3.6-2.3c0.5-4.2,0.2-8.4,0.2-13.3
										C1256.3,465,1256.8,470.8,1256.2,475.5"/>
									<path class="st8" d="M1475.7,467c2.1,4.3,4.2,8.6,6.7,12.6c0.6,1,2.6,0.6,3.9,0.8c0.2-1.7,1.1-4.1,0.5-4.9
										c-2.9-4.3-6.1-8.2-9.4-12.5C1476.5,464.9,1475.4,466.4,1475.7,467"/>
									<path class="st8" d="M1154.5,415.2h14.3C1163.9,415.5,1159.3,409.7,1154.5,415.2"/>
									<path class="st8" d="M1213.9,546.7c5.5,2.2,10.2,5,15.1-5.6C1222.5,541.6,1217.5,538.2,1213.9,546.7"/>
									<path class="st8" d="M1501.4,500.9c1.9,1.5,4,2.6,6,3.9l1.4-3.4c-1.9-1.6-3.8-3.3-5.8-4.6c-0.6-0.3-2.2,0.3-2.3,1
										C1500.5,498.6,1500.8,500.4,1501.4,500.9"/>
									<path class="st8" d="M1518.3,493.9c-0.2,0.6,0.8,2.3,1.5,3c2,1.7,4.2,3.1,6.3,4.6c0.5-0.7,1.1-1.4,1.6-2.1
										c-2.1-1.7-4-3.6-6.2-4.9C1520.7,493.9,1519.6,490.8,1518.3,493.9"/>
									<path class="st8" d="M1538.5,520.5c-3.3-5.9-6.4-8.3-10.9-4.7C1529.3,522.9,1533.1,522.2,1538.5,520.5"/>
									<path class="st8" d="M1544.9,515.7c-0.5-2.8-0.6-4.6-1.2-5.9c-1-2-2.1-4.2-3.6-5.4c-1-0.9-1.2,5.3,0.5,7.9
										C1541.5,513.4,1542.8,514.1,1544.9,515.7"/>
									<path class="st8" d="M1229.9,489.9c-0.7-0.8-2.1-2.8-2.3-2.6c-1.4,1.1-2.7,2.7-3.7,4.4c-0.2,0.3,0.1,1.1,0.4,1.9
										c0.2,0.5,0.4,0.9,0.5,1.4c1.5-0.9,3-1.7,4.4-2.6C1229.5,492.1,1229.5,491.2,1229.9,489.9"/>
									<path class="st8" d="M1186.7,406.9c-0.2-0.1-0.9,1.9-1.4,2.8c1.9,0.8,3.7,1.4,5.5,2.2c0.2-0.8,0.5-1.6,0.7-2.4
										C1189.9,408.6,1188.3,407.6,1186.7,406.9"/>
									<path class="st8" d="M1078.6,272.4c0.5,0,1.1-0.1,1.5-0.2c3.4-0.6,5.5-2.3,5.4-7.1c0.1,0,0.2,0,0.3,0
										c0-0.1,0.1-0.2,0.2-0.3c1.5,0.2,2.8-0.2,3.6-1.3c0.6-0.7,1.1-1.7,1.4-2.9c0.1-0.6-0.8-1.5-1.3-2.3
										c-1.2,2.2-2.5,4.3-3.7,6.5c-0.2,0-0.3,0-0.5,0c0,0.1,0,0.2,0,0.3C1081.4,264.5,1079.7,267.5,1078.6,272.4"/>
									<path class="st8" d="M974.2,426.6c1.1,1.7,2.2,3.7,3.6,4.9c0.4,0.3,3.1-2,3-2.8c-0.2-2-1.4-3.7-2.5-6
										C976.4,424.5,975.3,425.6,974.2,426.6"/>
									<path class="st8" d="M1220.9,389.1c-1.8,0.1-4.3,0.2-3.4,3.9c0.3,0.9,2.4,1.7,3.7,1.6c1.3-0.1,2.6-1.4,6.5-3.7
										C1223.7,389.9,1222.3,389.1,1220.9,389.1"/>
									<path class="st8" d="M1553.3,531.9c-0.2-0.8-0.3-1.6-0.6-2.1c-0.6-0.8-1.7-1-2.6-1.5c-0.7,0.6-2,1.2-1.9,1.7
										c0.1,1.1,0.7,2.7,1.3,2.9c0.8,0.2,1.6,0.2,2.5,0c0.5,0,1-0.1,1.5-0.1C1553.4,532.4,1553.4,532.1,1553.3,531.9"/>
									<path class="st8" d="M1498.6,479.9c-1.1,0.8-1.8,1.1-1.8,1.2c0.2,1.1,0.3,2.6,0.9,3.3c0.6,0.8,1.7,0.9,2.7,1.1
										c0.2,0,0.8-1.1,0.6-1.4C1500.2,482.6,1499.3,481.2,1498.6,479.9"/>
									<path class="st8" d="M1272.8,397.4c0.7,6.2,2.2,8.2,6.3,5.3C1277.1,400.9,1275.3,399.5,1272.8,397.4"/>
									<path class="st8" d="M979.7,334.2c-0.2,0.6-0.4,1.2-0.4,1.9c0,0.5,0.4,1.1,0.6,1.7l1.9-2
										C981.1,335.2,980.5,334.7,979.7,334.2"/>
									<path class="st8" d="M1610.5,609.9c0.2,0.3,0.3,0.6,0.4,0.6c0.5,0,0.9-0.1,1.4-0.3c0.5-0.1,0.9-0.3,1.4-0.4
										c0,0,0-0.1-0.1-0.1c-0.4-0.6-0.8-1.4-1.2-2c-0.8,0.4-1.5,0.8-2.3,1.3C1610.3,609.1,1610.4,609.6,1610.5,609.9"/>
									<path class="st8" d="M1620.5,626.4c-0.3,0.2-0.8,0.2-0.8,0.4v0.3c0,0.3,0.1,0.7,0.2,1c0.2-0.1,0.3-0.1,0.5-0.2
										c0.2-0.1,0.3-0.1,0.5-0.2C1620.7,627.4,1620.6,626.9,1620.5,626.4"/>
									<path class="st8" d="M1215.4,413.8c-0.2-0.3-0.3-0.5-0.5-0.5c-0.8-0.1-1.6,0.2-2.4,0.4c0.3,0.8,0.6,1.5,0.9,2.3
										c0.8-0.5,1.6-0.9,2.5-1.4C1215.7,414.4,1215.6,414.1,1215.4,413.8"/>
									<polygon class="st8" points="1392.8,416 1393.1,417.2 1393.7,416.2 									"/>
								</g>
							</g>
						</g>
					</g>
				</g>
			</g>
		</g>
	</g>
	<g>
		<g>
			<g>
				<g>
					<defs>
						<rect id="SVGID_10_" width="1920" height="700"/>
					</defs>
					<clipPath id="SVGID_11_">
						<use xlink:href="#SVGID_10_"  style="overflow:visible;"/>
					</clipPath>
					<path class="st9" d="M349.9,552.8c0,0,10,10,10,34c0,0,8,16-4,18l-22,98l-48,6l4-6c0,0-8-8-2-24s12-14,10-26s-10-20,0-40
						c0,0,2-6,8-8s30-14,30-30C335.9,574.7,341.9,572.7,349.9,552.8z"/>
				</g>
			</g>
		</g>
	</g>
	<g>
		<g>
			<g>
				<g>
					<defs>
						<rect id="SVGID_12_" width="1920" height="700"/>
					</defs>
					<clipPath id="SVGID_13_">
						<use xlink:href="#SVGID_12_"  style="overflow:visible;"/>
					</clipPath>
					<polygon class="st10" points="414.8,673.7 416.8,671.7 418.8,675.7 416.8,677.7 					"/>
				</g>
			</g>
		</g>
	</g>
	<g>
		<g>
			<g>
				<g>
					<defs>
						<rect id="SVGID_14_" width="1920" height="700"/>
					</defs>
					<clipPath id="SVGID_15_">
						<use xlink:href="#SVGID_14_"  style="overflow:visible;"/>
					</clipPath>
					<path class="st11" d="M438.8,661.7c0,0-4,2-2,4S442.8,663.7,438.8,661.7z"/>
				</g>
			</g>
		</g>
	</g>
	<g>
		<g>
			<g>
				<g>
					<defs>
						<rect id="SVGID_16_" width="1920" height="700"/>
					</defs>
					<clipPath id="SVGID_17_">
						<use xlink:href="#SVGID_16_"  style="overflow:visible;"/>
					</clipPath>
					<g id="Layer_4" class="st12">
						<g>
							<path class="st13" d="M762.4,268.5h-14.3l-2.7,6.6h-7.3l13.7-30.8h7l13.8,30.8h-7.5L762.4,268.5z M760.2,263.1l-4.9-11.8
								l-4.9,11.8H760.2z"/>
							<path class="st13" d="M772,272.9l2.3-4.9c2.1,1.4,5.3,2.3,8.2,2.3c3.2,0,4.4-0.8,4.4-2.2c0-3.9-14.3,0.1-14.3-9.4
								c0-4.5,4-7.7,11-7.7c3.3,0,6.9,0.7,9.1,2.1l-2.3,4.9c-2.3-1.3-4.7-1.8-6.8-1.8c-3.1,0-4.4,1-4.4,2.2c0,4,14.3,0.1,14.3,9.5
								c0,4.4-4.1,7.5-11.2,7.5C778.2,275.4,774.2,274.3,772,272.9z"/>
							<path class="st13" d="M795.7,244.3c0-2.2,1.7-3.8,4.3-3.8s4.3,1.6,4.3,3.7c0,2.3-1.7,4-4.3,4
								C797.4,248.1,795.7,246.4,795.7,244.3z M796.5,251.4h6.9v23.7h-6.9V251.4z"/>
							<path class="st13" d="M829.6,261.6v13.5h-6.4v-2.9c-1.3,2.2-3.7,3.3-7.2,3.3c-5.5,0-8.8-3.1-8.8-7.2c0-4.2,2.9-7.1,10.2-7.1
								h5.5c0-2.9-1.8-4.7-5.5-4.7c-2.5,0-5.1,0.8-6.8,2.2l-2.5-4.8c2.6-1.8,6.4-2.9,10.2-2.9C825.4,251.1,829.6,254.4,829.6,261.6z
								 M822.7,267.6v-2.4H818c-3.2,0-4.2,1.2-4.2,2.8c0,1.7,1.5,2.9,3.9,2.9C820,270.8,821.9,269.7,822.7,267.6z"/>
						</g>
						<circle class="st14" cx="966.6" cy="233.9" r="6"/>
						<circle class="st15" cx="910.6" cy="331.8" r="6"/>
						<circle class="st15" cx="938.6" cy="373.8" r="6"/>
						<circle class="st15" cx="975.3" cy="474.4" r="6"/>
						<g>
							<path class="st16" d="M905,347.8h8.2v7.2H905V347.8z M906.6,353.7h5v-4.6h-5V353.7z M918.9,364.4h-12v-4.5h9.7V358h-9.8v-1.3
								h11.4v4.4h-9.7v2h10.4L918.9,364.4L918.9,364.4z M918.2,352v3.9h-1.6v-9.1h1.6v3.8h2.7v1.4L918.2,352L918.2,352z"/>
							<path class="st16" d="M930.7,358.4l0.1,1.3c-2.5,0.4-4.5,0.5-6.8,0.5h-1.2v-6.6h4.8V350h-4.9v-1.3h6.4v6.2h-4.8v4
								C926.4,358.9,928.3,358.8,930.7,358.4z M933.8,363.7h-1.5v-9.2H930v-1.4h2.2v-6h1.5L933.8,363.7L933.8,363.7z M935.9,364.7
								v-17.9h1.6v17.9H935.9z"/>
							<path class="st16" d="M949.9,354.4c0,3.8-1.9,6.3-4.6,6.3s-4.6-2.4-4.6-6.3s1.9-6.3,4.6-6.3
								C948,348.2,949.9,350.6,949.9,354.4z M942.3,354.4c0,2.9,1.2,4.8,3,4.8c1.7,0,3-1.9,3-4.8s-1.2-4.8-3-4.8
								C943.6,349.6,942.3,351.5,942.3,354.4z M953.1,364.7v-18h1.6v18H953.1z"/>
							<path class="st16" d="M969.1,359.3l-1,1.3c-2.1-1-3.8-3.1-4.6-5.7c-0.8,2.7-2.5,4.9-4.6,6l-1-1.3c2.6-1.3,4.8-4.7,4.8-8.1
								v-3.2h1.6v3.2C964.3,354.8,966.5,358.1,969.1,359.3z M971,364.7v-18h1.6v18H971z"/>
							<path class="st16" d="M985.2,354.4c0,3.8-1.9,6.3-4.5,6.3c-2.7,0-4.5-2.4-4.5-6.3s1.9-6.3,4.5-6.3
								C983.3,348.2,985.2,350.6,985.2,354.4z M983.6,354.4c0-2.9-1.2-4.8-2.9-4.8s-3,1.9-3,4.8s1.2,4.8,3,4.8
								C982.4,359.2,983.6,357.3,983.6,354.4z M989.7,364.7H988v-17.9h1.6v7.1h3v1.4h-3v9.4H989.7z"/>
							<path class="st16" d="M1008.9,359.5l-0.9,1.3c-2.1-1-3.8-3-4.7-5.5c-0.8,2.6-2.6,4.9-4.6,5.9l-1-1.3c2.6-1.2,4.8-4.6,4.8-7.7
								V350h-4.2v-1.4h10v1.4h-4.2v2.3C1004.1,355.3,1006.3,358.4,1008.9,359.5z M1010.8,364.7v-17.9h1.6v17.9H1010.8z"/>
							<path class="st16" d="M1026.2,359.2l-1,1.3c-1.9-1-3.5-3.1-4.3-5.6c-0.8,2.7-2.4,4.8-4.5,5.9l-1-1.3c2.6-1.3,4.6-4.8,4.6-8
								v-3.2h1.6v3.2C1021.7,354.7,1023.7,357.9,1026.2,359.2z M1029.4,364.7h-1.6v-17.9h1.6v7.3h3v1.4h-3V364.7z"/>
						</g>
						<g>
							<path class="st16" d="M938.3,394.2c-0.8,2.2-2.4,3.9-4.5,4.7l-0.8-1.3c2.7-1,4.5-3.5,4.5-6.2v-1.8h1.6v1.8
								c0,2.6,1.9,4.9,4.5,5.8l-0.8,1.3C940.7,397.6,939.1,396.1,938.3,394.2z M947.5,403.3c0,2.1-2.3,3.4-6,3.4c-3.8,0-6-1.2-6-3.4
								c0-2.2,2.3-3.4,6-3.4S947.5,401.1,947.5,403.3z M945.9,403.3c0-1.4-1.6-2.1-4.4-2.1c-2.7,0-4.4,0.7-4.4,2.1
								c0,1.3,1.7,2.1,4.4,2.1S945.9,404.6,945.9,403.3z M945.8,388.8h1.6v10.7h-1.6V388.8z"/>
							<path class="st16" d="M951.7,403.3l-0.9-1.3c4.7-2.3,7-5.7,7.4-10h-6.6v-1.4h8.2C959.8,395.8,957.5,400.4,951.7,403.3z
								 M964.4,406.7h-1.6v-17.9h1.6v7.3h2.9v1.4h-2.9V406.7z"/>
							<path class="st16" d="M968.5,404.4v-1.3h7.3V399H970v-1.3h2.7v-5.9H970v-1.3h13.3v1.3h-2.8v5.9h2.7v1.3h-5.8v4.1h7.3v1.3
								H968.5z M978.9,391.8h-4.5v5.9h4.5V391.8z"/>
							<path class="st16" d="M986.4,404.4V403h16.3v1.4H986.4z M988.4,390.1h12.3v5.4h-10.6v2.9h11v1.3h-12.7v-5.6H999v-2.8h-10.7
								L988.4,390.1L988.4,390.1z"/>
							<path class="st16" d="M1019.5,401.5l-0.9,1.3c-2.1-1-3.8-3-4.7-5.5c-0.8,2.6-2.6,4.9-4.6,5.9l-1-1.3c2.6-1.2,4.8-4.6,4.8-7.7
								v-2.3h-4.2v-1.4h10v1.4h-4.2v2.3C1014.7,397.3,1016.9,400.4,1019.5,401.5z M1021.3,406.7v-17.9h1.6v17.9H1021.3z"/>
							<path class="st16" d="M1036.8,401.2l-1,1.3c-1.9-1-3.5-3.1-4.3-5.6c-0.8,2.7-2.4,4.8-4.5,5.9l-1-1.3c2.6-1.3,4.6-4.8,4.6-8
								v-3.2h1.6v3.2C1032.2,396.7,1034.3,399.9,1036.8,401.2z M1040,406.7h-1.6v-17.9h1.6v7.3h3v1.4h-3V406.7z"/>
						</g>
						<g>
							<path class="st16" d="M972.8,500.8c-2.7,0-4.7-1.8-4.7-4.4s2-4.4,4.7-4.4s4.7,1.8,4.7,4.4S975.4,500.8,972.8,500.8z
								 M972.8,499.4c1.8,0,3.1-1.2,3.1-3c0-1.7-1.3-3-3.1-3s-3.1,1.2-3.1,3C969.7,498.1,971,499.4,972.8,499.4z M970.9,508.2v-5.8
								h1.6v4.4H983v1.3h-12.1V508.2z M980.8,490.7h1.6v13.1h-1.6V490.7z"/>
							<path class="st16" d="M985.6,506.4V505h7.3v-4.6h-5.2v-8.3h12.2v1.3h-10.5v5.6h10.7v1.3h-5.5v4.6h7.3v1.4h-16.3V506.4z"/>
							<path class="st16" d="M1011.8,502.1l0.2,1.4c-2.3,0.5-4.3,0.6-6.5,0.6h-1.1v-11.5h1.6v10.1
								C1007.9,502.7,1009.7,502.5,1011.8,502.1z M1014.9,507.7h-1.6V498h-4v-1.4h4V491h1.6V507.7z M1017.1,508.6v-17.9h1.6v17.9
								H1017.1z"/>
							<path class="st16" d="M1032.5,503.3l-1,1.3c-2.1-1-3.8-3.1-4.6-5.7c-0.8,2.7-2.5,4.9-4.6,6l-1-1.3c2.6-1.3,4.8-4.7,4.8-8.1
								v-3.2h1.6v3.2C1027.7,498.8,1029.9,502.1,1032.5,503.3z M1034.4,508.7v-18h1.6v18H1034.4z"/>
							<path class="st16" d="M1048.5,498.3c0,3.8-1.9,6.3-4.5,6.3c-2.7,0-4.5-2.4-4.5-6.3c0-3.8,1.9-6.3,4.5-6.3
								C1046.7,492.1,1048.5,494.5,1048.5,498.3z M1047,498.3c0-2.9-1.2-4.8-2.9-4.8c-1.7,0-3,1.9-3,4.8s1.2,4.8,3,4.8
								C1045.7,503.1,1047,501.3,1047,498.3z M1053,508.6h-1.6v-17.9h1.6v7.1h3v1.4h-3V508.6z"/>
							<path class="st16" d="M1072.3,503.4l-0.9,1.3c-2.1-1-3.8-3-4.7-5.5c-0.8,2.6-2.6,4.9-4.6,5.9l-1-1.3c2.6-1.2,4.8-4.6,4.8-7.7
								v-2.3h-4.2v-1.4h10v1.4h-4.2v2.3C1067.5,499.2,1069.7,502.3,1072.3,503.4z M1074.2,508.6v-17.9h1.6v17.9H1074.2z"/>
							<path class="st16" d="M1089.6,503.2l-1,1.3c-1.9-1-3.5-3.1-4.3-5.6c-0.8,2.7-2.4,4.8-4.5,5.9l-1-1.3c2.6-1.3,4.6-4.8,4.6-8
								v-3.2h1.6v3.2C1085.1,498.6,1087.1,501.9,1089.6,503.2z M1092.8,508.6h-1.6v-17.9h1.6v7.3h3v1.4h-3V508.6z"/>
						</g>
						<g class="st0">
							<path class="st1" d="M968.4,263.2c-0.3,0.3-0.6,0.4-1,0.6s-0.8,0.2-1.3,0.2c-1,0-1.8-0.3-2.4-0.8c-0.6-0.6-0.8-1.4-0.8-2.4
								v-6.7h-2v-1.3h2v-2.4h1.5v2.4h3.4v1.3h-3.4v6.6c0,0.7,0.2,1.2,0.5,1.5s0.8,0.5,1.4,0.5c0.3,0,0.6,0,0.9-0.1
								c0.3-0.1,0.5-0.2,0.7-0.4L968.4,263.2z"/>
							<path class="st1" d="M977.4,253.8c0.8,0.7,1.2,1.8,1.2,3.2v6.8h-1.4v-1.7c-0.3,0.6-0.8,1-1.5,1.3s-1.4,0.5-2.3,0.5
								c-1.2,0-2.2-0.3-2.9-0.9s-1.1-1.4-1.1-2.3s0.3-1.7,1-2.3c0.7-0.6,1.8-0.9,3.2-0.9h3.5V257c0-1-0.3-1.7-0.8-2.2
								s-1.3-0.7-2.3-0.7c-0.7,0-1.4,0.1-2,0.3s-1.2,0.5-1.7,1l-0.7-1.1c0.6-0.5,1.2-0.8,2-1.1s1.6-0.4,2.5-0.4
								C975.6,252.7,976.7,253.1,977.4,253.8z M975.8,262.2c0.6-0.4,1-0.9,1.3-1.7v-1.8h-3.5c-1.9,0-2.8,0.7-2.8,2
								c0,0.6,0.2,1.2,0.7,1.5c0.5,0.4,1.2,0.6,2.1,0.6C974.4,262.8,975.2,262.6,975.8,262.2z"/>
							<path class="st1" d="M981.8,250.1c-0.2-0.2-0.3-0.5-0.3-0.8s0.1-0.5,0.3-0.7s0.5-0.3,0.8-0.3s0.6,0.1,0.8,0.3
								s0.3,0.4,0.3,0.7s-0.1,0.6-0.3,0.8s-0.5,0.3-0.8,0.3S982,250.3,981.8,250.1z M981.8,252.8h1.5v11h-1.5V252.8z"/>
							<path class="st1" d="M995.5,254c0.8,0.8,1.2,2,1.2,3.5v6.4h-1.5v-6.3c0-1.1-0.3-2-0.9-2.6s-1.4-0.9-2.5-0.9
								c-1.2,0-2.1,0.4-2.8,1.1s-1,1.7-1,2.9v5.8h-1.5v-15.6h1.5v6.5c0.4-0.6,1-1.1,1.7-1.5c0.7-0.3,1.5-0.5,2.5-0.5
								C993.6,252.7,994.7,253.2,995.5,254z"/>
							<path class="st1" d="M1007.2,253.8c0.8,0.7,1.2,1.8,1.2,3.2v6.8h-1.4v-1.7c-0.3,0.6-0.8,1-1.5,1.3s-1.4,0.5-2.3,0.5
								c-1.2,0-2.2-0.3-2.9-0.9s-1.1-1.4-1.1-2.3s0.3-1.7,1-2.3c0.7-0.6,1.8-0.9,3.2-0.9h3.5V257c0-1-0.3-1.7-0.8-2.2
								s-1.3-0.7-2.3-0.7c-0.7,0-1.4,0.1-2,0.3s-1.2,0.5-1.7,1l-0.7-1.1c0.6-0.5,1.2-0.8,2-1.1s1.6-0.4,2.5-0.4
								C1005.3,252.7,1006.4,253.1,1007.2,253.8z M1005.5,262.2c0.6-0.4,1-0.9,1.3-1.7v-1.8h-3.5c-1.9,0-2.8,0.7-2.8,2
								c0,0.6,0.2,1.2,0.7,1.5c0.5,0.4,1.2,0.6,2.1,0.6C1004.2,262.8,1004.9,262.6,1005.5,262.2z"/>
							<path class="st1" d="M1020.5,254c0.8,0.8,1.2,2,1.2,3.5v6.4h-1.5v-6.3c0-1.1-0.3-2-0.9-2.6s-1.4-0.9-2.5-0.9
								c-1.2,0-2.1,0.4-2.8,1.1s-1,1.7-1,2.9v5.8h-1.5v-11h1.4v2c0.4-0.7,1-1.2,1.7-1.6s1.6-0.6,2.5-0.6
								C1018.6,252.7,1019.7,253.2,1020.5,254z"/>
							<path class="st1" d="M1042.1,249.2l-6.5,14.7h-1.5l-6.5-14.7h1.7l5.6,12.8l5.7-12.8H1042.1z"/>
							<path class="st1" d="M1043.4,249.2h1.6v14.7h-1.6V249.2z"/>
							<path class="st1" d="M1061.2,249.2v14.7h-1.3l-9.5-11.9v11.9h-1.6v-14.7h1.3l9.5,11.9v-11.9L1061.2,249.2L1061.2,249.2z"/>
							<path class="st1" d="M1074.4,260h-8.2l-1.8,3.9h-1.6l6.7-14.7h1.5l6.7,14.7h-1.6L1074.4,260z M1073.8,258.7l-3.5-7.9
								l-3.5,7.9H1073.8z"/>
						</g>
					</g>
				</g>
			</g>
		</g>
	</g>
	<g>
		<g>
			<g>
				<g>
					<defs>
						<rect id="SVGID_18_" width="1920" height="700"/>
					</defs>
					<clipPath id="SVGID_19_">
						<use xlink:href="#SVGID_18_"  style="overflow:visible;"/>
					</clipPath>
					
						<linearGradient id="SVGID_20_" gradientUnits="userSpaceOnUse" x1="960" y1="-439.9999" x2="960" y2="-539.9999" gradientTransform="matrix(1 0 0 1 0 539.9999)">
						<stop  offset="0" style="stop-color:#E1E7EF;stop-opacity:0"/>
						<stop  offset="1" style="stop-color:#E1E7EF;stop-opacity:0.3"/>
					</linearGradient>
					<rect class="st17" width="1920" height="100"/>
				</g>
			</g>
		</g>
	</g>
</g>
<circle class="st14" cx="1591.9" cy="79.5" r="6"/>
<circle class="st15" cx="1591.9" cy="109.4" r="6"/>
<g>
	<path d="M1614.7,76.4c-0.6,1.5-1.7,2.9-3.3,3.6l-0.8-1.2c2.1-0.9,3.4-3,3.4-4.8v-2.2h1.4V74c0,1.8,1.2,3.6,3.3,4.4l-0.8,1.1
		C1616.4,78.9,1615.3,77.7,1614.7,76.4z M1624.3,84c0,1.8-2.1,2.9-5.4,2.9s-5.4-1.1-5.4-2.9s2.1-2.9,5.4-2.9
		C1622.2,81.1,1624.3,82.2,1624.3,84z M1622.9,84c0-1.2-1.5-1.7-3.9-1.7s-3.9,0.6-3.9,1.7s1.5,1.8,3.9,1.8S1622.9,85.2,1622.9,84z
		 M1619.4,71.1h1.4v4h2.1v-4.3h1.4v10h-1.4v-4.4h-2.1v3.9h-1.4V71.1z"/>
	<path d="M1631.9,76.4c-0.7,1.9-2.1,3.4-4,4.1l-0.8-1.2c2.5-0.9,4-3,4-5.5v-2h1.5v2c0,2.2,1.6,4.2,4,5.1l-0.7,1.2
		C1634.1,79.4,1632.6,78.1,1631.9,76.4z M1640.4,86.6h-10.7v-5h1.5v3.8h9.2V86.6z M1639.7,77v5.7h-1.5V70.8h1.5v5h2.4V77H1639.7z"/>
	<path d="M1659.6,79.6V76h-3.7v3h-7.3v-7.4h1.5v2.5h4.4v-2.5h1.5v3.1h3.7v-4h1.5v8.8L1659.6,79.6L1659.6,79.6z M1650.1,77.8h4.4
		v-2.6h-4.4V77.8z M1661.1,86.7h-10.3v-6.3h1.5v1.9h7.4v-1.9h1.5L1661.1,86.7L1661.1,86.7z M1652.2,85.5h7.4v-2h-7.4V85.5z"/>
	<path d="M1668.9,79.9c-2.4,0-4.2-1.7-4.2-4s1.8-4,4.2-4c2.4,0,4.2,1.6,4.2,4C1673.1,78.2,1671.3,79.9,1668.9,79.9z M1668.9,78.6
		c1.6,0,2.8-1.1,2.8-2.7s-1.2-2.7-2.8-2.7c-1.6,0-2.8,1.1-2.8,2.7C1666.2,77.5,1667.3,78.6,1668.9,78.6z M1667.2,86.6v-5.2h1.5v4
		h9.4v1.2H1667.2z M1676.1,70.8h1.5v11.8h-1.5V70.8z"/>
	<path d="M1618.6,104.7h-8v-1.2h3.3v-2.3h1.5v2.3h3.3v1.2H1618.6z M1618.1,109.5c0,2.2-1.5,3.7-3.5,3.7s-3.5-1.5-3.5-3.7
		s1.5-3.7,3.5-3.7S1618.1,107.3,1618.1,109.5z M1616.8,109.5c0-1.4-0.9-2.4-2.1-2.4c-1.3,0-2.1,1-2.1,2.4s0.9,2.5,2.1,2.5
		S1616.8,110.9,1616.8,109.5z M1622.9,116.9v-8.1h-2.1v7.3h-1.4v-15h1.4v6.4h2.1v-6.8h1.4v16.2
		C1624.3,116.9,1622.9,116.9,1622.9,116.9z"/>
	<path d="M1637.8,111.7l0.1,1.1c-3.7,0.7-7.5,0.7-10.5,0.7l-0.2-1.2c1.3,0,2.8,0,4.4-0.1v-2.8c-2.1-0.3-3.6-1.7-3.6-3.8
		c0-2.2,1.8-3.8,4.3-3.8s4.3,1.5,4.3,3.8c0,2-1.5,3.5-3.6,3.8v2.7C1634.7,112,1636.3,111.9,1637.8,111.7z M1632.4,108.2
		c1.7,0,2.9-1,2.9-2.6c0-1.5-1.2-2.5-2.9-2.5c-1.7,0-2.9,1-2.9,2.5C1629.6,107.1,1630.8,108.2,1632.4,108.2z M1638.9,117v-16.2h1.5
		V117H1638.9z"/>
	<path d="M1657.9,112.3l-0.8,1.2c-1.9-0.9-3.5-2.7-4.2-4.9c-0.7,2.3-2.4,4.4-4.2,5.3l-0.9-1.2c2.3-1.1,4.3-4.1,4.3-6.9v-2.1h-3.7
		v-1.2h9v1.2h-3.8v2.1C1653.5,108.5,1655.5,111.2,1657.9,112.3z M1659.5,116.9v-16.1h1.5v16.1H1659.5z"/>
	<path d="M1673.9,112l-0.9,1.2c-1.7-0.9-3.2-2.8-3.9-5c-0.7,2.4-2.2,4.3-4,5.3l-0.9-1.2c2.3-1.2,4.2-4.3,4.2-7.2v-2.9h1.5v2.9
		C1669.8,107.9,1671.6,110.8,1673.9,112z M1676.8,116.9h-1.5v-16.1h1.5v6.5h2.7v1.2h-2.7V116.9z"/>
</g>
<g>
	<path d="M962.9,251.5h-4.8v-1.7h11.6v1.7h-4.8v12.3h-2V251.5z"/>
	<path d="M978.2,254.2c0.8,0.7,1.2,1.8,1.2,3.2v6.4h-1.8v-1.4c-0.3,0.5-0.8,0.9-1.4,1.1c-0.6,0.3-1.3,0.4-2.1,0.4
		c-1.2,0-2.1-0.3-2.8-0.9s-1.1-1.3-1.1-2.3c0-0.9,0.3-1.7,1-2.3c0.7-0.6,1.8-0.9,3.2-0.9h3v-0.4c0-0.8-0.2-1.5-0.7-1.9
		s-1.2-0.7-2.1-0.7c-0.6,0-1.2,0.1-1.8,0.3s-1.1,0.5-1.5,0.8l-0.8-1.4c0.5-0.4,1.2-0.8,2-1s1.6-0.4,2.4-0.4
		C976.3,253.1,977.4,253.5,978.2,254.2z M976.3,261.9c0.5-0.3,0.9-0.8,1.2-1.4V259h-3c-1.6,0-2.4,0.5-2.4,1.6c0,0.5,0.2,1,0.6,1.3
		c0.4,0.3,1,0.5,1.7,0.5C975.2,262.4,975.8,262.3,976.3,261.9z"/>
	<path d="M983,250.8c-0.2-0.2-0.4-0.5-0.4-0.9s0.1-0.6,0.4-0.9c0.2-0.2,0.6-0.4,0.9-0.4c0.4,0,0.7,0.1,0.9,0.4
		c0.2,0.2,0.4,0.5,0.4,0.9s-0.1,0.7-0.4,0.9s-0.6,0.4-0.9,0.4C983.5,251.2,983.2,251,983,250.8z M983,253.2h1.9v10.6H983V253.2z"/>
	<path d="M997.4,254.3c0.8,0.8,1.2,1.9,1.2,3.4v6.1h-1.9v-5.9c0-1-0.2-1.8-0.7-2.3s-1.2-0.8-2.1-0.8c-1,0-1.9,0.3-2.5,0.9
		c-0.6,0.6-0.9,1.5-0.9,2.6v5.5h-1.9V249h1.9v5.7c0.4-0.5,0.9-0.9,1.6-1.2c0.6-0.3,1.4-0.4,2.2-0.4
		C995.5,253.1,996.6,253.5,997.4,254.3z"/>
	<path d="M1009.4,254.2c0.8,0.7,1.2,1.8,1.2,3.2v6.4h-1.8v-1.4c-0.3,0.5-0.8,0.9-1.4,1.1c-0.6,0.3-1.3,0.4-2.1,0.4
		c-1.2,0-2.1-0.3-2.8-0.9s-1.1-1.3-1.1-2.3c0-0.9,0.3-1.7,1-2.3c0.7-0.6,1.8-0.9,3.2-0.9h3v-0.4c0-0.8-0.2-1.5-0.7-1.9
		s-1.2-0.7-2.1-0.7c-0.6,0-1.2,0.1-1.8,0.3s-1.1,0.5-1.5,0.8l-0.8-1.4c0.5-0.4,1.2-0.8,2-1s1.6-0.4,2.4-0.4
		C1007.5,253.1,1008.6,253.5,1009.4,254.2z M1007.5,261.9c0.5-0.3,0.9-0.8,1.2-1.4V259h-3c-1.6,0-2.4,0.5-2.4,1.6
		c0,0.5,0.2,1,0.6,1.3c0.4,0.3,1,0.5,1.7,0.5S1006.9,262.3,1007.5,261.9z"/>
	<path d="M1023,254.3c0.8,0.8,1.2,1.9,1.2,3.4v6.1h-1.9v-5.9c0-1-0.2-1.8-0.7-2.3s-1.2-0.8-2.1-0.8c-1,0-1.9,0.3-2.5,0.9
		c-0.6,0.6-0.9,1.5-0.9,2.6v5.5h-1.9v-10.6h1.8v1.6c0.4-0.5,0.9-1,1.6-1.3c0.7-0.3,1.4-0.4,2.3-0.4
		C1021.1,253.1,1022.2,253.5,1023,254.3z"/>
	<path d="M1045.6,249.8l-6.1,14h-2l-6.2-14h2.2l5,11.5l5.1-11.5L1045.6,249.8L1045.6,249.8z"/>
	<path d="M1047.3,249.8h2v14h-2V249.8z"/>
	<path d="M1065.6,249.8v14h-1.6l-8.4-10.4v10.4h-2v-14h1.6l8.4,10.4v-10.4L1065.6,249.8L1065.6,249.8z"/>
	<path d="M1078.7,260.3h-7.4l-1.5,3.5h-2.1l6.3-14h2l6.4,14h-2.1L1078.7,260.3z M1078,258.7l-3-6.9l-3,6.9H1078z"/>
</g>
</svg>
