<?xml version="1.0" encoding="utf-8"?>
<!-- Generator: Adobe Illustrator 23.0.5, SVG Export Plug-In . SVG Version: 6.00 Build 0)  -->
<svg version="1.1" xmlns="http://www.w3.org/2000/svg" xmlns:xlink="http://www.w3.org/1999/xlink" x="0px" y="0px"
	 viewBox="0 0 1920 700" style="enable-background:new 0 0 1920 700;" xml:space="preserve">
<style type="text/css">
	.st0{display:none;}
	.st1{display:inline;}
	.st2{display:inline;fill:#E1E7EF;}
	.st3{clip-path:url(#SVGID_2_);fill:#CAD2DB;}
	.st4{clip-path:url(#SVGID_4_);fill:#E1E7EF;}
	.st5{clip-path:url(#SVGID_6_);fill:url(#SVGID_7_);}
	.st6{clip-path:url(#SVGID_9_);}
	.st7{fill:#E1E7EF;}
	.st8{fill:#FFFFFF;}
	.st9{clip-path:url(#SVGID_11_);fill:#CAD2DB;}
	.st10{clip-path:url(#SVGID_13_);fill:#CAD2DB;}
	.st11{clip-path:url(#SVGID_15_);fill:#CAD2DB;}
	.st12{clip-path:url(#SVGID_17_);}
	.st13{fill:#AAAAAA;}
	.st14{fill:#5D6FCC;}
	.st15{fill:#028F37;}
	.st16{clip-path:url(#SVGID_19_);fill:url(#SVGID_20_);}
</style>
<g id="레이어_1">
	<g id="Layer_1" class="st0">
		<g id="zKvEBR_1_" class="st1">
			
				<image style="overflow:visible;enable-background:new    ;" width="1918" height="702" id="zKvEBR" xlink:href="741DEE7E.jpeg"  transform="matrix(0.4986 0 0 0.4986 482.5758 0.4194)">
			</image>
		</g>
	</g>
	<g id="Layer_6" class="st0">
		<rect x="481" class="st2" width="959" height="350"/>
	</g>
	<g>
		<g>
			<g>
				<g>
					<g>
						<defs>
							<rect id="SVGID_1_" width="1920" height="700"/>
						</defs>
						<clipPath id="SVGID_2_">
							<use xlink:href="#SVGID_1_"  style="overflow:visible;"/>
						</clipPath>
						<path class="st3" d="M442.7,66.3c-7.3-1.2-11-8.8-12.2-17.8c-0.5-3.8-0.4-7.6-0.7-13.4c-4,4.2-7.1,7.3-10,10.6
							c-13.8,15.9-13.7,15.9-32.1,17.5c-0.5,0-1,0.2-1.5,0.2c-4.8,0.2-7.4-2.8-7-9.4c0.3-6.3,1-12.3-3.1-17.9
							c-3.3,3.4-5.8,5.9-11.1,11.2c2.4-15.5-4-22.3-10.3-29c-4.8-5.1-7.7-11.5-9.8-18.2H1v699.7h207.7c0-7.9-0.8-15.3-3.5-22.8
							c-1.9-5.2-3.2-10.7-4.9-16.5c3.1-3.9,5.7-7.8,8.8-11.1c3.4-3.8,7.3-6.9,10.7-10.7c3-3.4,5.4-7.8,8.6-11
							c2.3-2.4,5.4-3.7,8.2-5.2s5.7-2.6,8.5-4.2c7.8-4.5,12.8-12.6,17.2-21.4c3.7-7.3,2.3-14.7,0.6-22.4c-0.8-3.6-0.4-7.7-0.6-11.6
							c-0.3-10.9-0.6-21.8-0.9-33.4c-5.7-4.1-7.5-11.1-9.9-18.5c-2.3-7.1-2.2-14.5-1.3-20.6c1.2-7.3-1.5-10.8-4.1-15.4l0.4,0.3v-0.6
							c1.2-0.8,2.3-1.5,3.4-2.3c-1.1-1.5-2.2-3-3.3-4.5c0-0.4,0-0.7,0-1.1c-0.2,0.1-0.4,0.2-0.5,0.3c0.2-2.5-0.3-5.6,0.6-7.5
							c7.2-15.2,10-33.9,23-44.4c3.2-2.6,5-8,7.6-12c9.6-15.2,19.8-29.9,33.3-39.6c12.8-9.2,23-21.9,30.9-36.8
							c10.7-20.3,20.1-41.8,28.7-63.7c4.1-10.4,7.6-22.4,3.6-34.8c-1.2-0.3-2.5-1.2-3.1-0.7c-8,6.2-17.1,7.4-26.1,9.2
							c-10.9,2.2-21.9,4.3-32.3,8.6c-7.7,3.2-12.7,1.3-17.3-6.2c-1.5-2.6-3.2-5-4.6-7.3c0.8-4.5,1.4-8.6,2.1-12.9
							c8-0.7,16.1-0.5,22.9-7.6c2.2-2.2,5.8-2.2,8.7-3.3c4.3-1.7,8.7-3.4,13-5.1c13.4-5.6,25.5-15.6,39.5-19.4
							c4.4-1.2,8.8-3.9,10.1-10.5c0.9-4.5,3.8-6,6.6-7.4c3.8-1.9,7.6-3.7,11.6-4.8c6.2-1.8,13.5-0.3,16-10.9
							c0.3-1.1,2.8-1.1,4.1-1.9c2.6-1.8,6.3-3.2,7.3-6c2.6-6.9,7.9-7.4,12.1-10.4c0.9-5.7,1.7-11.3,2.5-16.6
							c2.8-0.8,5.6-0.5,6.5-2.1c4.8-8,9.1-16.5,13.6-24.8C460.5,77.5,454.1,68.1,442.7,66.3z M281.7,208
							c-6.9-8.6-13.6-17.1-22.2-23.1c-6.2-4.3-11.4-10.5-12.2-20.8c-0.9-10.8-5.3-19.5-12.7-25.3c-4.9-3.8-6.8-9.3-6.9-16.2
							c-0.1-3.9-0.3-7.8-0.5-11.7c-0.6-10.7-3.7-19.8-10.5-26.8c-2.6-2.8-6.6-6.3-6.7-9.7c-0.4-12.6-7.3-21-11-31.3
							c-3.3-9.3-7.1-18.3-11.2-28.7c6.1-1.2,10.8-2.2,15.9-3.2c9.5,12.9,16.4,27.9,23,43c1.4,3.2,3.4,6.7,5.7,8.5
							c8.9,6.5,12.4,16.2,12.9,28.7c0.5,10.8,3.3,20.1,11.7,25.4c2.6,1.7,5.7,4.4,6.7,7.6c4.5,13.2,12,23.8,18.1,35.5
							c1.9,3.6,4.1,8.8,3.4,12.4c-1.8,9,1.4,16.4,2.8,24.4c1.2,7.3,2.6,14.5,3.9,21.7C288.6,214.8,284.8,211.8,281.7,208z"/>
					</g>
				</g>
			</g>
		</g>
		<g>
			<g>
				<g>
					<g>
						<defs>
							<rect id="SVGID_3_" width="1920" height="700"/>
						</defs>
						<clipPath id="SVGID_4_">
							<use xlink:href="#SVGID_3_"  style="overflow:visible;"/>
						</clipPath>
						<rect x="400.2" y="219" class="st4" width="6.5" height="2.2"/>
					</g>
				</g>
			</g>
		</g>
		<g>
			<g>
				<g>
					<g>
						<defs>
							<rect id="SVGID_5_" width="1920" height="700"/>
						</defs>
						<clipPath id="SVGID_6_">
							<use xlink:href="#SVGID_5_"  style="overflow:visible;"/>
						</clipPath>
						
							<linearGradient id="SVGID_7_" gradientUnits="userSpaceOnUse" x1="467.0001" y1="-190.0397" x2="1" y2="-190.0397" gradientTransform="matrix(1 0 0 1 0 539.8897)">
							<stop  offset="0.2612" style="stop-color:#CAD2DB"/>
							<stop  offset="1" style="stop-color:#E1E7EF;stop-opacity:0.2"/>
						</linearGradient>
						<path class="st5" d="M1,699.7h207.7c0-7.9-0.8-15.3-3.5-22.8c-1.9-5.2-3.2-10.7-4.9-16.5c3.1-3.9,5.7-7.8,8.8-11.1
							c3.4-3.8,7.3-6.9,10.7-10.7c3-3.4,5.4-7.8,8.6-11c2.3-2.4,5.4-3.7,8.2-5.2s5.7-2.6,8.5-4.2c7.8-4.5,12.8-12.6,17.2-21.4
							c3.7-7.3,2.3-14.7,0.6-22.4c-0.8-3.6-0.4-7.7-0.6-11.6c-0.3-10.9-0.6-21.8-0.9-33.4c-5.7-4.1-7.5-11.1-9.9-18.5
							c-2.3-7.1-2.2-14.5-1.3-20.6c1.2-7.3-1.5-10.8-4.1-15.4l0.4,0.3v-0.6c1.2-0.8,2.3-1.5,3.4-2.3c-1.1-1.5-2.2-3-3.3-4.5
							c0-0.4,0-0.7,0-1.1c-0.2,0.1-0.4,0.2-0.5,0.3c0.2-2.5-0.3-5.6,0.6-7.5c7.2-15.2,10-33.9,23-44.4c3.2-2.6,5-8,7.6-12
							c9.6-15.2,19.8-29.9,33.3-39.6c12.8-9.2,23-21.9,30.9-36.8c10.7-20.3,20.1-41.8,28.7-63.7c4.1-10.4,7.6-22.4,3.6-34.8
							c-1.2-0.3-2.5-1.2-3.1-0.7c-8,6.2-17.1,7.4-26.1,9.2c-10.9,2.2-21.9,4.3-32.3,8.6c-7.7,3.2-12.7,1.3-17.3-6.2
							c-1.5-2.6-3.2-5-4.6-7.3c0.8-4.5,1.4-8.6,2.1-12.9c8-0.7,16.1-0.5,22.9-7.6c2.2-2.2,5.8-2.2,8.7-3.3c4.3-1.7,8.7-3.4,13-5.1
							c13.4-5.6,25.5-15.6,39.5-19.4c4.4-1.2,8.8-3.9,10.1-10.5c0.9-4.5,3.8-6,6.6-7.4c3.8-1.9,7.6-3.7,11.6-4.8
							c6.2-1.8,13.5-0.3,16-10.9c0.3-1.1,2.8-1.1,4.1-1.9c2.6-1.8,6.3-3.2,7.3-6c2.6-6.9,7.9-7.4,12.1-10.4
							c0.9-5.7,1.7-11.3,2.5-16.6c2.8-0.8,5.6-0.5,6.5-2.1c4.8-8,9.1-16.5,13.6-24.8c-6.6-10.8-12.9-20.2-24.3-22
							c-7.3-1.2-11-8.8-12.2-17.8c-0.5-3.8-0.4-7.6-0.7-13.4c-4,4.2-7.1,7.3-10,10.6C406,61.4,406.1,61.4,387.7,63
							c-0.5,0-1,0.2-1.5,0.2c-4.8,0.2-7.4-2.8-7-9.4c0.3-6.3,1-12.3-3.1-17.9c-3.3,3.4-5.8,5.9-11.1,11.2c2.4-15.5-4-22.3-10.3-29
							c-4.7-5-7.6-11.4-9.7-18.1H1V699.7z M246.3,474.9c-0.9-1.6-2.2-3.3-2.1-4.9C244.1,471.5,245.4,473.2,246.3,474.9z
							 M244.3,469.4c0.1-0.3,0.3-0.7,0.5-1.1C244.6,468.7,244.4,469,244.3,469.4z M203.7,11.2c9.5,13,16.4,27.9,23,43
							c1.4,3.2,3.4,6.7,5.7,8.5c8.9,6.5,12.4,16.2,12.9,28.6c0.5,10.8,3.3,20,11.7,25.4c2.6,1.7,5.7,4.4,6.7,7.6
							c4.5,13.2,12,23.8,18.1,35.5c1.9,3.6,4.1,8.8,3.4,12.4c-1.8,9,1.4,16.4,2.8,24.4c1.2,7.3,2.6,14.5,3.9,21.7
							c-3.4-3.3-7.2-6.3-10.3-10.2c-6.9-8.6-13.6-17.1-22.2-23.1c-6.2-4.3-11.4-10.5-12.2-20.8c-0.9-10.8-5.3-19.5-12.7-25.3
							c-4.9-3.8-6.8-9.3-6.9-16.2c-0.1-3.9-0.3-7.8-0.5-11.7c-0.6-10.7-3.7-19.8-10.5-26.8c-2.6-2.8-6.6-6.3-6.7-9.7
							c-0.4-12.6-7.3-21-11-31.3c-3.3-9.3-7.1-18.3-11.2-28.7C193.9,13.1,198.7,12.2,203.7,11.2z"/>
					</g>
				</g>
			</g>
		</g>
		<g>
			<g>
				<g>
					<g>
						<defs>
							<rect id="SVGID_8_" width="1920" height="700"/>
						</defs>
						<clipPath id="SVGID_9_">
							<use xlink:href="#SVGID_8_"  style="overflow:visible;"/>
						</clipPath>
						<g class="st6">
							
								<image style="overflow:visible;opacity:0.11;enable-background:new    ;" width="1282" height="752" xlink:href="741DEE82.png"  transform="matrix(1 0 0 1 361 -12)">
							</image>
							<g>
								<g>
									<path class="st7" d="M1150.1,217.8c-0.1,0-0.2,0-0.2,0l-0.1,0.5l0,0h0.5C1150.2,218.1,1150.2,217.9,1150.1,217.8
										L1150.1,217.8z"/>
									<path class="st8" d="M1165.2,231.7c0-9.6-1.8-12-9.5-13c-1.8-0.2-3.6-0.3-5.5-0.4c1,3.4,3.2,6.6,4,10.1
										c0.4,1.9,0.4,4-0.5,6.3c-0.2,0.5-0.4,0.9-0.6,1.4c-0.7,1.4,0.9,4.5,1.5,6.8c0.9,4,1.9,8,2.7,11.9l-0.2,0.2
										c0,0-0.1,0-0.1,0.1c-2.9-2.8-7.3-3.7-7.2-10.2c0-3.6-2.3-2.8-4.3-2.7c-2.8,0-4.5-2-5.6-5.3c-1.6-4.9-5.4-5.3-8.8-6.1
										c-0.8-0.2-1.7,0.7-2.9,1.4c-0.4,4-0.9,8.2-1.2,11.9c4.7,3.3,9.6,4.1,5.6,12.6c-1.9,3.9,2.9,7.2,7.1,9.2
										c2.6-4,5.7-7.7,11-6.6c0.2,0,0.3,0.1,0.4,0c1.9,0,4.1-2.8,6.1-4.2c0.1,0.1,0.2,0.2,0.3,0.3c0-0.2-0.1-0.3-0.1-0.5
										c1.1-1,2.5-1.7,3.4-2.9c3.1-4.1-1.9-11.6,3.9-14.9C1165.3,236.6,1165.2,233.5,1165.2,231.7z"/>
									<path class="st8" d="M374.1,5.5c6.3,4.8,11.4,7.8,15.8,12c11.2,10.7,23.1,11.7,35.8,5.4c2.3-1.1,4.6-1.9,6.9-2.9
										c2.1,6.2,3.9,11.4,6.2,17.9c15.4,2.9,30.9,6,46.4,8.6c2.5,0.5,5-1.1,7.6-1.3c14.1-0.9,28.3-1.8,41.3-2.6
										c7.5,6.5,9.1,17.2,16.5,21.8c6.6,4.2,12.3,10.6,18.3,15.9c-1.6,1.1-3.6,2.6-6.4,4.7c3.7,4.9,6.9,9,10.1,13.1
										c9.1,11.3,12.4,7.5,20.3,2.3c2.5-1.6,4-5.5,5.9-8.3c2.6,6.8,5.6,13.6,2.9,21.8c-0.7,2.1-0.2,5.1,0.3,7.6
										c2.2,13.9,3.2,28.4,7,41.6c5.3,18.7,12,36.8,18.1,55.2c4.3,12.9,10.3,24.9,13.2,38.8c1.2,5.8,5.2,10.9,8.4,15.7
										c2.2,3.3,6.2,3.4,8.2,0c3.6-6.1,9.1-10.3,11.7-16.5c2.5-6,6.5-9.4,9.9-14c-0.2-9.8-1.4-19.4,3.2-28.3
										c1.7-3.3,0.9-8.8,0.8-13.2c-0.2-5.1-0.9-10.3-1.4-15.4c-0.7-7.2,0.6-12,7-14.5c5.6-2.2,12-5.7,15.1-11.3s7-8.8,10.8-12.8
										c4.7-4.9,9.7-9.6,13.7-15.4c4.5-6.5,9.3-11.6,15.9-14.4c5.7-2.4,9.3-7.7,9.7-15.8c0.1-1.8,1-3.5,1.3-4.6
										c5.5-5.4,11.2-2.7,16.7-3.1c5.5-0.5,11-2,16.4-3.9c5.1-1.9,9.9-4.8,15.7-7.7c1.7,14.3,6.1,26.4,15.1,33.3
										c4.5,3.5,4.1,7.9,5.8,12.2c1.9,4.9,7.7,6.6,8,13.1c0.3,5.1,0.3,10.2,0,15.3c-0.3,3.7-1.4,7.3-2.3,11.7
										c5.6,4.1,10.4,6.2,16,1.7c5-4,10.2-7.8,15.8-12.1c7.3,17.2,7.3,35.9,13.2,52.4c2.5,7,0.2,16.4,1.1,24.9
										c0.9,8.5-1.6,17.6-2.5,26.4c-0.5,5-0.5,10-0.8,15c2.9,0.8,5.7,0.4,6.6,1.9c6.4,10.3,13.4,19.8,15.4,34
										c2.9,20.1,10,37.8,25.4,47.7c2.7,1.7,5.5,3.7,7.6,6.5c1.9,2.6,2.9,6.2,4.3,9.4l0,0l0,0c2.4-0.9,4.6-1.9,7.4-3.1
										c-2-6.7-3.2-14.4-6.5-20.4c-3.7-6.9-5.7-13.6-4.4-21.7c1.4-8.5-0.9-15.4-5.8-20.8c-6-6.8-11.3-14.9-19.2-18.3
										c-4.3-1.8-6-5.8-7.4-11.2c-1.8-7.2-3.5-16.1-7.7-20.2c-4.9-4.8-5.3-9.4-3.9-14.8c3.2-12.9,7.7-25.2,9.3-38.8
										c0.1-0.9,1.4-2.3,2.1-2.3c1.4,0.1,3.4,0.7,3.9,1.9c1.3,3.2,0.8,8.2,5,8.6c9.7,1,15.8,7.9,18.9,19c1.5,5.7,5.6,7.3,8.8,9.9
										c2.8,2.4,6.4,3.2,9.8,4.8c0.4,6.9,0.6,13.1,1.1,21.1c6.6-5.3,13.8-8.1,17.1-14.4c4.1-8,10.1-10.1,15.6-14.3
										c2.6-2,5.2-4.2,7.9-6c3.4-2.3,5.5-5.7,6.3-10.4c3.9-22.4,0.8-43.2-12.7-58.8c-7.5-8.7-14.4-17.8-20.6-28
										c-5.1-8.8-5.3-13.9,0.6-22c4.5-6,10.2-10.3,15.3-15.2c7.1-6.9,13.4-8.1,20.9-2.4c0.9,4.9,1.9,9.7,2.6,14.2
										c-4.1,3.9-8,7-11.3,10.9c-3.6,4.2-2,11.6,2.5,14.4c3.5,2.2,6.6,1.9,10.1-0.3c6.1-3.9,7.4-11.7,10.4-17.9
										c-0.2-1-0.2-1.7-0.5-2.2c-0.5-1-1.3-1.9-1.9-2.9c-3.7-7.2-2.6-14.9,2.9-17.1c7.7-3,15.8-4.5,23.5-7.6
										c9.6-3.9,18.2-11.1,28.6-11.6c1.9-0.1,4.1-1.3,5.7-2.8c11-10.4,21.8-21,32.6-31.6c1-1,1.7-3,1.9-4.7
										c1.6-13,8.9-21.4,15.2-30.4c2.2-3.1,4.3-7.2,6.2-11.9H369.8C371.5-0.4,373,3,374.1,5.5z"/>
									<path class="st8" d="M933.9,379.5c-4.7-3.5-9.4-7.1-14.1-10.5c-4.8-3.5-9.4-8.4-14.6-9.7c-5.1-1.4-7.9-5-11.1-9.1
										c-1.8-2.3-3.5-4.9-5.6-6.5c-6.6-5.1-12.4-11-16.6-19.5c-1.4-2.8-4.6-5-7.4-5.9c-6.7-2.3-13.5-3.7-20.3-5.4
										c-0.2,9.3-0.4,9.5,1.6,12c4,4.9,7.9,10,12.4,14.1c8.3,7.6,11.5,21,20.7,27.4c0.7,0.5,1,2.2,1.3,3.4c2.2,9.4,6.6,17,11.9,24
										c3.1,4.1,5.6,9.4,7.1,14.8c4.5,15.8,13.6,26.9,22.8,37.9c6.2,7.4,13.3,13.7,20.1,20.5c5.6-0.5,11.1-1,16.5-1.5
										c-3.3-7-1.4-14.8-1.7-22.1c-0.2-3.7,0.2-8,1.7-11c1.3-2.6,4.4-3.9,6.8-5.8c-3.4-6.6-6.2-12.2-8.8-17.2
										c-5-0.7-6.8,3.1-8.7,6.6c-2.9,0.4-5.1-1.9-5.4-4.9c-0.8-7.7-5.7-9.4-10.3-11.8C932.8,392.6,933.4,386,933.9,379.5
										L933.9,379.5L933.9,379.5z"/>
									<path class="st7" d="M958.6,465.5l0.2-0.1C958.7,465.5,958.6,465.5,958.6,465.5L958.6,465.5z"/>
									<path class="st7" d="M934,379.3L934,379.3l-0.1,0.1l0,0l0,0c0.1,0.1,0.1,0.1,0.2,0.2C934.2,379.7,934,379.5,934,379.3
										L934,379.3L934,379.3c0,0.2,0.2,0.4,0.2,0.4C934.2,379.6,934.1,379.4,934,379.3L934,379.3L934,379.3z"/>
									<path class="st7" d="M934,379.3L934,379.3L934,379.3z"/>
									<path class="st7" d="M933.9,379.5L933.9,379.5L933.9,379.5z"/>
									<path class="st7" d="M958.7,465.6c0-0.1,0-0.1,0-0.2l-0.2,0.1C958.6,465.5,958.6,465.6,958.7,465.6z"/>
									<path class="st8" d="M1131.7,207.7c6-2.8,7.3,3.4,10.3,6.7c0.4,0.4,0.8,0.8,1.2,1.2c1.2,1,2.4,1.8,3.6,2.8v0.2
										c0.1,0,0.2,0,0.3,0l-0.3-0.4c1-0.1,2.1-0.2,3.1-0.4l2.2-8.7l0,0c-7.6-6.9-14.2-16.7-24.9-12.5c-1.3-3.9-2-7.4-3.4-10.4
										c-1.8-4-1.5-8.8,0.6-10.7c8.6-7.8,9-17.5,5.6-28.8c-0.5-1.5-0.2-3.3-0.3-5c-5.3-1.7-10.1-3.2-14.3-4.5
										c-5.3,5.4-5,11.9-5.4,18.4c-0.2,4.2-0.9,9.4-2.9,12.1c-1.9,2.6-3.3,4.6-2.6,8c0.8,4.3,1.3,9.3,3.2,12.8
										c3.6,6.3,8,11.7,4.2,20.2c1.8,5.1,2.6,11,7.8,14.1c3.3-3.2,3.8-7.3,2.5-11.8c-1-3.5-1-6.2,2.5-8.6
										C1126.8,204.2,1130,208.5,1131.7,207.7z"/>
									<path class="st7" d="M1151.7,203.1c-0.3,0.1-0.7,0.2-1,0.2c0.5,1.9,0.9,3.9,1.4,5.8l0,0
										C1152,207.1,1151.8,205.1,1151.7,203.1z"/>
									<path class="st7" d="M1143.2,218.9c-0.8,0.5-1.4,1.6-1.4,3.4c0,1,1.9,3.1,2.7,3c3.5-0.6,2.5-4,2.4-6.8
										c-0.6-0.1-1.1-0.2-1.6-0.2C1144.5,218.4,1143.8,218.6,1143.2,218.9z"/>
									<path class="st8" d="M689,262.5c-1.5-2.8-3.9-6.3-7.3-3.6c-3.2,16.5-6.6,32.7,1.4,48.4c1.9,0.4,3.4,1.1,4.8,0.9
										c2-0.3,4-0.9,5.8-2c7.3-4.1,9.7-11.4,6.2-20.5C696.8,277.5,693,269.9,689,262.5z"/>
									<path class="st8" d="M1114.6,89.9c9.6-19,11.5-26.9,9.8-41.7c-2.4,1-5.1,1.3-6.7,3.1c-2.6,2.9-5.1,6.5-6.7,10.5
										c-1.8,4.4-3.4,9.4-3.6,14.3C1106.9,82.5,1110.3,86.9,1114.6,89.9z"/>
									<path class="st7" d="M1096.7,249.9c6.7-2.6,6.7-2.6,3.1-11.9C1098.8,241.9,1098,244.6,1096.7,249.9z"/>
									<path class="st8" d="M814.3,221.8c0.7,0.2,1.5,0.4,2.2,0.6v-10c-0.5,0-0.9-0.1-1.4-0.1
										C814.8,215.4,814.5,218.6,814.3,221.8z"/>
									<path class="st8" d="M880.4,403.4c-0.3,0.1-0.7,1.2-0.6,1.5c0.8,2.2,1.5,4.4,2.6,6.3c0.2,0.5,1.7,0.1,2.6-0.1
										c0.3-0.1,0.4-0.9,0.8-1.8c-0.9-1.9-1.7-4.1-2.9-6C882.5,402.8,881.1,403.1,880.4,403.4z"/>
									<path class="st8" d="M864.3,371.4c2.1,3.5,3.6,6,5.6,9.4C870.2,372.8,870.2,372.8,864.3,371.4z"/>
									<path class="st7" d="M1105.4,226.6c-0.1,0.5,0.2,1.1,0.4,1.7c0.7-0.3,1.5-0.7,2.2-0.9c-0.6-0.8-1.2-1.5-1.9-2.2
										C1105.9,225.7,1105.5,226.1,1105.4,226.6z"/>
									<path class="st7" d="M826.7,292c-0.1,0.5-0.3,0.9-0.3,1.4c0,0.2,0.5,0.3,0.8,0.4c0.1-0.5,0.3-0.9,0.2-1.4
										C827.5,292.3,827,292.2,826.7,292z"/>
									<path class="st8" d="M1149.9,244.8c0-3.6-2.3-2.8-4.3-2.7c-2.8,0-4.5-2-5.6-5.3"/>
									<path class="st8" d="M933.9,379.5c-4.7-3.5-9.4-7.1-14.1-10.5c-4.8-3.5-9.4-8.4-14.6-9.7c-5.1-1.4-7.9-5-11.1-9.1
										c-1.8-2.3-3.5-4.9-5.6-6.5c-6.6-5.1-12.4-11-16.6-19.5c-1.4-2.8-4.6-5-7.4-5.9c-6.7-2.3-13.5-3.7-20.3-5.4
										c-0.2,9.3-0.4,9.5,1.6,12c4,4.9,7.9,10,12.4,14.1c8.3,7.6,11.5,21,20.7,27.4c0.7,0.5,1,2.2,1.3,3.4c2.2,9.4,6.6,17,11.9,24
										c3.1,4.1,5.6,9.4,7.1,14.8c4.5,15.8,13.6,26.9,22.8,37.9c6.2,7.4,13.3,13.7,20.1,20.5c5.6-0.5,11.1-1,16.5-1.5
										c-3.3-7-1.4-14.8-1.7-22.1c-0.2-3.7,0.2-8,1.7-11c1.3-2.6,4.4-3.9,6.8-5.8c-3.4-6.6-6.2-12.2-8.8-17.2
										c-5-0.7-6.8,3.1-8.7,6.6c-2.9,0.4-5.1-1.9-5.4-4.9c-0.8-7.7-5.7-9.4-10.3-11.8C932.8,392.6,933.4,386,933.9,379.5
										L933.9,379.5L933.9,379.5z"/>
									<path class="st8" d="M1127.2,196.6c-1.3-3.9-2-7.4-3.4-10.4c-1.8-4-1.5-8.8,0.6-10.7"/>
									<path class="st8" d="M689,262.5c-1.5-2.8-3.9-6.3-7.3-3.6c-3.2,16.5-6.6,32.7,1.4,48.4c1.9,0.4,3.4,1.1,4.8,0.9
										c2-0.3,4-0.9,5.8-2c7.3-4.1,9.7-11.4,6.2-20.5C696.8,277.5,693,269.9,689,262.5z"/>
									<path class="st8" d="M1090.7,508.1c6-1.5,11.4-3,17.7-0.3c5,2.2,11.3,2.5,16.5,0.8"/>
									<path class="st8" d="M1364.9,440c-7.4-4-15.1-7.2-22.8-10.6c-15.2-6.9-30.6-13.6-45.9-20.3c-0.5-0.2-1,0.1-3.6,0.3
										c-7.2,7.1-15.8,15.5-24.1,23.6c-10.5-8-10.6-21.7-12.8-32.5c-10.4-7.5-19.9-8.4-29.5-1c-1.7,1.2-3.7,1.7-5.4,2.5
										c0,5.5,2.8,6.9,6,7.1c4.3,0.3,5.4,5.3,8.2,7.9c2.2,2,4.8,3.4,7.9,5.6c-2.9,1.5-5.1,2.5-7.2,3.6c3,5.9,5.9,11.6,8.7,17.2
										c4.1,0.7,6.8-5.9,11.4-2.1c9.1,7.4,19.8,10,29.8,14c11.9,4.8,16.5,15.5,18.4,28.9c-3.4,6.2-10.8,7.9-8.1,18.6
										c4.5-0.9,9-1.4,13.2-2.9c5.6-2,10.5-0.9,13.7,5c6.1,11.2,15.3,8.8,23.6,9.2c2.9,0.2,6.3-3.6,8.8-6.4c1.8-2,2-6.2,3.7-8.3
										c2-2.5,5-5.3,7.6-5.3c7.7,0.1,14.9,1.8,20.1,10.9c4.1,7.2,9.4,13.4,13.7,19.4c5.9,1.4,10.9,3.6,15.8,3.5
										c5.4,0,9.7,8.3,16.4,2.7c-0.3-0.7-0.6-1.4-1-2c-2.8-4.2-7.8-6-7.9-12.3c2.8,0.6,5.5,1.2,8.9,1.9c0.5,0.1,1,0.2,1.5,0.3
										c-2-3.7-3.9-4.3-6.4-3.3c-0.3,0.2-0.7,0.2-0.9,0.3c-1,0.3-2,0.5-2.9,0.6c-1,0.3-2.5,1.2-2.8,0.8
										c-3.2-4.8-9.4-5.5-11.5-10.6c-3.3-7.9-9.1-12.1-13.2-18.5c-0.8-1.3-0.8-3.5-1.2-5.3c2.5-2.2,4.8-4.2,7.9-6.8
										c-5.3-9.6-14-9.1-20.3-14.4C1378.2,450,1374.9,445.5,1364.9,440"/>
									<path class="st8" d="M1067.7,301.8c-5.6,10-12,18.8-21.3,23.6c-2.6,1.3-4.8,4.7-6.5,7.8c-5.1,9.8-12.2,15.1-21.2,16.8
										c-1.4,0.3-2.8,1.4-4.1,2.2c-1.6,4.7-3.2,9.2-4.9,14.3c-5.6-1.3-10.4-2.5-15.1-3.6c-4.5,3.7-6.9,9.1-6.3,14.9
										c1,8.7,0.4,19.8,6.2,24.9c4.7,4.3,4.9,8.8,5.9,14.2c2.1,11.7,2.6,12.3,11.9,12.9c1.5,0.1,4-0.9,4.4,0
										c4.1,8,9.3,3.9,14.7,3.5c7.3-0.6,14.9,1.1,19.8,10.7c2.2-1,4.5-2.4,6.9-3c2.8-0.7,5.7-0.7,8.6-1
										c2.5-28.8,2.5-28.8,12.9-41.2c0.2-1.5,0.2-3.4,0.6-5.2c0.8-4.3,0.7-9.7,2.8-12.5c2.1-2.8,6.4-2.6,9.6-4.1
										c0.6-0.2,0.8-1.8,2-4.8c-9.6-2.1-8.6-13.6-11.9-21.9c-2.5-6.7-0.8-12.8,3.2-17.5c2.1-2.4,4.8-3.1,5.5-7.9
										c0.4-2.7,4.1-4.6,7.4-7.9c-10-5.3-16.7-13.9-24.5-23.5C1071.2,297.4,1069.1,299.3,1067.7,301.8"/>
									<path class="st8" d="M1010.3,476.1c-1,0.2-1.9,0.6-2.9,0.9c-11.4,4.9-14.4,4.7-23.7-1.5"/>
									<path class="st8" d="M1166.2,257.8c-2.2,5.2-5.6,8-8.9,11.3c-4.5,4.6-7.7,7.1-13,3.6c-1.1-0.8-3.2-0.2-4.3,0.8
										c-6.1,5.3-13.6,9.3-13.4,21c0,0.9,0.6,1.9,1.1,3.2c1.8-3.4,3.4-6.5,5.2-9.8c2.5,0,4.9-0.1,7.4,0c2.8,0.2,5.2-5.4,8.2-0.8
										c1,19.9,1.6,20.7,17.5,23.1v-14.5c2.6,0.7,4.6,1.2,6.6,1.9c3.2-3.6,5-7.7,3.3-13.4C1173.1,275.3,1175.6,263.2,1166.2,257.8
										"/>
									<path class="st8" d="M1113.2,524.9c0.5-1-0.1-3.8-0.9-4.8c-4.2-4.9-8.8-8.4-17.2-2.8"/>
									<path class="st8" d="M1131.7,207.7c6-2.8,7.3,3.4,10.3,6.7c0.4,0.4,0.8,0.8,1.2,1.2c1.2,1,2.4,1.8,3.6,2.8v0.2
										c0.1,0,0.2,0,0.3,0l-0.3-0.4c1-0.1,2.1-0.2,3.1-0.4l2.2-8.7l0,0c-7.6-6.9-14.2-16.7-24.9-12.5c-1.3-3.9-2-7.4-3.4-10.4
										c-1.8-4-1.5-8.8,0.6-10.7c8.6-7.8,9-17.5,5.6-28.8c-0.5-1.5-0.2-3.3-0.3-5c-5.3-1.7-10.1-3.2-14.3-4.5
										c-5.3,5.4-5,11.9-5.4,18.4c-0.2,4.2-0.9,9.4-2.9,12.1c-1.9,2.6-3.3,4.6-2.6,8c0.8,4.3,1.3,9.3,3.2,12.8
										c3.6,6.3,8,11.7,4.2,20.2c1.8,5.1,2.6,11,7.8,14.1c3.3-3.2,3.8-7.3,2.5-11.8c-1-3.5-1-6.2,2.5-8.6
										C1126.8,204.2,1130,208.5,1131.7,207.7z"/>
									<g id="Layer_5_00000029013002098638166950000016590128644541684629_">
										<path class="st8" d="M1189.4,361.2c1.7,0,3.5,0.3,5.2-0.2c1.2-0.4,2.2-2.1,3.2-3.3c0.2-0.2-0.3-1.5-0.5-1.5
											c-1.2,0-2.7-0.2-3.7,0.6c-0.8,0.6-1.5,1.4-2.3,2.2C1190.7,359.7,1190.1,360.5,1189.4,361.2
											C1189.4,361.1,1189.4,361.1,1189.4,361.2"/>
										<path class="st8" d="M1159.6,507L1159.6,507c-0.5,0.6-1.1,1.1-1.6,1.6l0,0c-0.6,0.5-1.1,0.9-1.7,1.4l0,0
											c-0.6,0.5-1.2,0.9-1.8,1.2l0,0c-0.6,0.4-1.2,0.8-1.9,1.2c-0.6,0.3-1.3,0.7-2,1.1c-5.2,2.6-7.2,8-7.4,15
											c5.3,1,9.6-1.7,12.6-5.7c5.2-6.8,11.7-10,18.3-13.3c2.3-1.2,6.3-1.3,5.7-6.9c-5.5-0.5-11-0.9-16.4-1.3
											c0.1-0.2,0.2-0.3,0.2-0.5l0,0c-0.5,0.1-1.1,0.2-1.6,0.2c-3-0.9-6-2.1-9.1-2.2c-8.5-0.2-16.9,2-25.3,3.3
											c-8.8,1.4-17.8-4.7-26.7,1.1c-0.3,0.3-1.1,0.2-1.5-0.1c-8.6-6-17.4-4.7-26.4-1.7c-0.8,0.3-1.9-1-2.9-1.1
											c-4.5-0.5-4.5-0.4-4.8,7.6c8.4,5.1,16.9,2.2,25.2,0.1c6-1.5,11.4-3,17.7-0.3c5,2.2,11.3,2.5,16.5,0.8
											c12.3-4,24.8-5.9,37.3-7.5c0.3,0.1,0.7,0.2,1.1,0.3c0.1,0,0.1,0,0.2,0C1162.3,503.5,1161.1,505.5,1159.6,507"/>
										<path class="st8" d="M1182.1,433.4c0-0.1-0.1-0.2-0.2-0.3c-2.2-3-5-4.6-8.2-2.8c-1.2,0.7-2.1,2.5-2.7,4.1
											c-0.2,0.7,0.7,2.3,1.3,3.2c2.4,3.2,5.5,3.1,8.5,1.9c0.1,0,0.2-0.1,0.3-0.2c0.6-0.5,1-1.7,1.5-2.5
											C1182.4,435.6,1182.5,434.3,1182.1,433.4"/>
										<path class="st8" d="M1607.7,596.5c-1.5-2.2-3-4.5-4.6-6.6c-0.1-0.1-0.2-0.1-0.2-0.1c-0.3,0-0.7,0.1-1,0.1
											c-0.2,0.5-0.5,1-0.6,1.4c0,0.1,0,0.2,0,0.3c1,2.7,2.2,5.2,3.3,7.7C1605.6,598.3,1606.7,597.3,1607.7,596.5"/>
										<path class="st8" d="M1171.7,493.1c0.8,0.6,1.5,1.2,2.3,1.8l0,0c0.8-0.6,1.7-1.2,2.5-1.9c-0.8-0.6-1.6-1.6-2.4-1.6
											c-0.4,0-0.8,0.3-1.2,0.6C1172.5,492.3,1172.1,492.7,1171.7,493.1C1171.7,493,1171.7,493.1,1171.7,493.1"/>
										<path class="st8" d="M1276.6,410.5c0-0.1-0.1-0.3-0.1-0.4c-0.4,0.2-0.8,0.3-1.2,0.5c0.5,0.2,1,0.5,1.5,0.7
											C1276.8,411.1,1276.7,410.8,1276.6,410.5"/>
										<path class="st8" d="M1242.8,466.4c0.3,0,0.6,0,0.8-0.2c0.2-0.2,0.1-0.8,0.2-1.2c-0.3-0.2-0.6-0.3-1-0.5
											c-0.1,0.6-0.2,1.2-0.3,1.9l0,0L1242.8,466.4L1242.8,466.4z"/>
										<g>
											<path class="st8" d="M1432.1,691.3c-3.5-1.7-7.3-3.5-10.7-5.1c-8.7-24.9-8.7-24.9-25-36.2c-3.1-2.1-6.3-3.9-8.8-5.5
												c-2.3-9.9-3.2-19.1-6.4-26.8c-2.5-5.9-4.1-11.6-5-17.9c-2.1-13.5-5.2-17.1-16.2-19.5c-3.9-14.2-7.7-28.2-11.7-41.9
												c-0.6-2.1-2-4.6-5.9-2.5c-4.4,15.1-8.7,31.4-7.6,49.2c0.8,12.7-1.7,24.3-6.7,35.2c-3.2,7-7.4,8.2-12.8,3.7
												c-3.3-2.8-6.2-6.8-9.7-8.8c-11.3-6-20.9-15.3-31.2-23.4c-1.1-0.9-1.6-3-2.8-5.2c1.6-2.6,3.1-5,4.7-7.4
												c1.3,0,2.9-0.7,3.9,0c4.4,2.8,5.2,1.2,3.7-4.9c-2.8,1.7-5.2,3.3-7.6,4.9c0.9-9.5,9-15.2,8.8-26
												c-8.3-5.3-16.9-1.1-25.1-2.9c-8.8-2-15.7-11.1-25.1-10.8c0,1.9-0.2,2.8,0,3.1c0.5,0.9,1.5,1.5,2,2.5
												c2,3.6,1.7,6.9-0.8,7.3c-2.5,0.5-5.1,1.2-7.6,0.8c-5.3-1.1-9.3,2.4-11.8,7c-4.7,8.8-8.4,18.4-12.7,27.8
												c-6.2,1.1-11.7-0.8-16-7.5c-3.3-4.9-7.6-5.9-12.5-3.8c-9.4,4-16.5,11.7-22.3,21.8c1.6,9.7-6.3,7.5-9.1,11.2
												c-0.4,6.6-0.8,7.8-2.2,8.1c-1.9-2-3.8-3.9-5.5-5.6c-4.4,4.4-7.3,8.1-8,14.8c-1.7,15.8-10,27.5-21.9,30
												c-7.6,1.5-14.8,4.2-21.8,7.7c-2.3,1.1-4.9,2.3-7.3,2.1c-6-0.6-10.7,2.9-15.5,6.8c-7.1,5.9-14.4,11.1-21.5,16.5
												c-1.2,6.6-2.7,13.4-3.4,20.3c-0.3,2.4-0.2,4.9-0.1,7.4h409.5C1440.3,710.8,1434.6,703,1432.1,691.3z"/>
										</g>
										<path class="st8" d="M1364.9,440c-7.4-4-15.1-7.2-22.8-10.6c-15.2-6.9-30.6-13.6-45.9-20.3c-0.5-0.2-1,0.1-3.6,0.3
											c-7.2,7.1-15.8,15.5-24.1,23.6c-10.5-8-10.6-21.7-12.8-32.5c-10.4-7.5-19.9-8.4-29.5-1c-1.7,1.2-3.7,1.7-5.4,2.5
											c0,5.5,2.8,6.9,6,7.1c4.3,0.3,5.4,5.3,8.2,7.9c2.2,2,4.8,3.4,7.9,5.6c-2.9,1.5-5.1,2.5-7.2,3.6c3,5.9,5.9,11.6,8.7,17.2
											c4.1,0.7,6.8-5.9,11.4-2.1c9.1,7.4,19.8,10,29.8,14c11.9,4.8,16.5,15.5,18.4,28.9c-3.4,6.2-10.8,7.9-8.1,18.6
											c4.5-0.9,9-1.4,13.2-2.9c5.6-2,10.5-0.9,13.7,5c6.1,11.2,15.3,8.8,23.6,9.2c2.9,0.2,6.3-3.6,8.8-6.4c1.8-2,2-6.2,3.7-8.3
											c2-2.5,5-5.3,7.6-5.3c7.7,0.1,14.9,1.8,20.1,10.9c4.1,7.2,9.4,13.4,13.7,19.4c5.9,1.4,10.9,3.6,15.8,3.5
											c5.4,0,9.7,8.3,16.4,2.7c-0.3-0.7-0.6-1.4-1-2c-2.8-4.2-7.8-6-7.9-12.3c2.8,0.6,5.5,1.2,8.9,1.9c0.5,0.1,1,0.2,1.5,0.3
											c-2-3.7-3.9-4.3-6.4-3.3c-0.3,0.2-0.7,0.2-0.9,0.3c-1,0.3-2,0.5-2.9,0.6c-1,0.3-2.5,1.2-2.8,0.8
											c-3.2-4.8-9.4-5.5-11.5-10.6c-3.3-7.9-9.1-12.1-13.2-18.5c-0.8-1.3-0.8-3.5-1.2-5.3c2.5-2.2,4.8-4.2,7.9-6.8
											c-5.3-9.6-14-9.1-20.3-14.4C1378.2,450,1374.9,445.5,1364.9,440"/>
										<path class="st8" d="M1067.7,301.8c-5.6,10-12,18.8-21.3,23.6c-2.6,1.3-4.8,4.7-6.5,7.8c-5.1,9.8-12.2,15.1-21.2,16.8
											c-1.4,0.3-2.8,1.4-4.1,2.2c-1.6,4.7-3.2,9.2-4.9,14.3c-5.6-1.3-10.4-2.5-15.1-3.6c-4.5,3.7-6.9,9.1-6.3,14.9
											c1,8.7,0.4,19.8,6.2,24.9c4.7,4.3,4.9,8.8,5.9,14.2c2.1,11.7,2.6,12.3,11.9,12.9c1.5,0.1,4-0.9,4.4,0
											c4.1,8,9.3,3.9,14.7,3.5c7.3-0.6,14.9,1.1,19.8,10.7c2.2-1,4.5-2.4,6.9-3c2.8-0.7,5.7-0.7,8.6-1
											c2.5-28.8,2.5-28.8,12.9-41.2c0.2-1.5,0.2-3.4,0.6-5.2c0.8-4.3,0.7-9.7,2.8-12.5c2.1-2.8,6.4-2.6,9.6-4.1
											c0.6-0.2,0.8-1.8,2-4.8c-9.6-2.1-8.6-13.6-11.9-21.9c-2.5-6.7-0.8-12.8,3.2-17.5c2.1-2.4,4.8-3.1,5.5-7.9
											c0.4-2.7,4.1-4.6,7.4-7.9c-10-5.3-16.7-13.9-24.5-23.5C1071.2,297.4,1069.1,299.3,1067.7,301.8"/>
										<path class="st8" d="M1093.9,425.5c-1.1,4.2-0.8,8.3,2.3,10c4.9,2.6,5.2,7.4,4.9,12.6c-0.2,3.8-1.3,7.7-1.2,11.4
											c0.1,3.7,2.3,5.7,5.3,4.9c1.4-0.3,2.8-1.2,4-1.7c3.8-12-1.7-25.5,4.4-38.2c2.2,6.5,3,12.5,5.8,16
											c3.4,4.4,0.9,14.3,8.3,14.3c4.7,0,2.9,12.4,10.8,7.2c1.5-8,3.5-15.7-3.7-20.9c-1.2-0.9-2.5-3-2.5-4.5
											c0.1-7.9-4.9-12.6-7-19c-0.3-0.9,0.1-2.3,0.2-4.1c2.4-1.8,5-3.7,7.2-5.4c3.9-1.4,6.7,4.8,10.3,1
											c-1.5-3.9-1.4-8.2-2.8-13.3c-8.5,3-17.1,6-25.7,8.9c-9.1-10.9-9.1-10.9-3-21.8c10.3,0.9,20.9-1.6,31.7,1.9
											c0.5,0.2,1,0.3,1.5,0.4c7.7,1.5,12.5-5.1,15.6-18.1c-0.8,0.2-2-0.1-2.6,0.3c-0.1,0.1-0.2,0.1-0.2,0.2
											c-6,9.5-14.1,9.1-22.2,7.7c-6-1-11.9-2.8-18.3-4.4c-5.1,4-11.3,6.8-13.3,16.4C1100.9,400.2,1097.3,412.8,1093.9,425.5"/>
										<path class="st8" d="M957.4,482.5c15,9.8,17,10.4,32.5,11.4c3.5,0.2,7.1,0.9,10.5,2.1c13,4.8,34.8,8.5,49.1,7.7
											c3.1-0.1,7.9,5.6,9.1-0.8c1.5-7.7-5.3-2.9-7.3-5.3c-5.3-6.2-11.9-5.7-18.2-7c-0.5-0.1-0.7-1.8-1.1-2.7
											c1.6-2.7,6.4,0.8,6.4-6.3c-9.4,1-18.3-0.8-26.8-5.2c-0.4-0.3-0.9-0.5-1.4-0.4c-1,0.2-1.9,0.6-2.9,0.9
											c-11.4,4.9-14.4,4.7-23.7-1.5c-5.9-3.9-11.8-6.8-18.7-6.2c-2,0.2-4.2-2.4-6.3-3.7c-2.2,4.9-4.3,9.9-6.6,15.1
											C954.5,481.5,956.1,481.7,957.4,482.5"/>
										<path class="st8" d="M1166.2,257.8c-2.2,5.2-5.6,8-8.9,11.3c-4.5,4.6-7.7,7.1-13,3.6c-1.1-0.8-3.2-0.2-4.3,0.8
											c-6.1,5.3-13.6,9.3-13.4,21c0,0.9,0.6,1.9,1.1,3.2c1.8-3.4,3.4-6.5,5.2-9.8c2.5,0,4.9-0.1,7.4,0c2.8,0.2,5.2-5.4,8.2-0.8
											c1,19.9,1.6,20.7,17.5,23.1v-14.5c2.6,0.7,4.6,1.2,6.6,1.9c3.2-3.6,5-7.7,3.3-13.4
											C1173.1,275.3,1175.6,263.2,1166.2,257.8"/>
										<path class="st8" d="M1440.9,466.4c3.5-2.8,6.6-5.4,8.3-10.4c0.9-2.7,2.5-4.4,5.6-4.9c4.6-0.9,4.5-2.2,0.5-9
											c-9.1,3.5-9,3.7-16.3,13.1c-3.2,4.1-6.4,7-11.9,7c-5.9,0-12.3-0.6-19.1,2.6C1422.8,476.5,1427.2,477.5,1440.9,466.4"/>
										<path class="st8" d="M1184.2,393.4c-2.5,2.5-0.6,4.6,1,5.9c2.4,1.9,5.9,0.6,6.2-2.4c0.5-3.6,0.1-7.4,0.1-11.1
											c2.3-0.8,4.3-1.4,5.8-2c0.4-5,0.8-9.9,1.1-13.2c-3.6-3.5-6.5-6.3-9.3-9.1c0.1-0.1,0.2-0.2,0.3-0.3l0,0c-0.2,0-0.4,0-0.6,0
											l0,0l0.4,0.3c-4.8,6.3-4.9,13.6-3.3,21.5C1186.5,386.6,1187.2,390.4,1184.2,393.4"/>
										<path class="st8" d="M1190.4,429.6c0.3,3.3,0.6,5.8,0.8,8.3c15.6-3.4,15.6-3.4,29.4,0.6c0.6-3.6-0.5-6.7-2.7-8
											C1209,425.5,1199.9,425.2,1190.4,429.6"/>
										<path class="st8" d="M1575.8,663.6c6.5,14.5,16.5,21.1,27.4,26.3c0.5-1.1,1.1-2.3,1.7-3.4c-8.5-7.9-16.9-15.8-25.4-23.5
											C1578.9,662.6,1577.7,663.2,1575.8,663.6"/>
										<path class="st8" d="M1095,517.3c6,4,10.2,7.1,14.5,9.5c0.9,0.5,3.2-0.6,3.7-1.9c0.5-1-0.1-3.8-0.9-4.8
											C1108.1,515.2,1103.4,511.7,1095,517.3"/>
										<path class="st8" d="M1256.2,475.5c-0.2,1.1,1.5,3.6,2.4,3.7c1.2,0.2,3.6-1.3,3.6-2.3c0.5-4.2,0.2-8.4,0.2-13.2
											C1256.3,465,1256.8,470.8,1256.2,475.5"/>
										<path class="st8" d="M1475.7,467c2.1,4.3,4.2,8.6,6.7,12.6c0.6,1,2.6,0.6,3.9,0.8c0.2-1.7,1.1-4.1,0.5-4.9
											c-2.9-4.3-6.1-8.2-9.4-12.5C1476.5,464.9,1475.4,466.4,1475.7,467"/>
										<path class="st8" d="M1154.5,415.2h14.3C1163.9,415.5,1159.3,409.7,1154.5,415.2"/>
										<path class="st8" d="M1213.9,546.7c5.5,2.2,10.2,5,15.1-5.6C1222.5,541.6,1217.5,538.2,1213.9,546.7"/>
										<path class="st8" d="M1501.4,500.9c1.9,1.5,4,2.6,6,3.9l1.4-3.4c-1.9-1.6-3.8-3.3-5.8-4.6c-0.6-0.3-2.2,0.3-2.3,1
											C1500.5,498.6,1500.8,500.4,1501.4,500.9"/>
										<path class="st8" d="M1518.3,493.9c-0.2,0.6,0.8,2.3,1.5,3c2,1.7,4.2,3.1,6.3,4.6c0.5-0.7,1.1-1.4,1.6-2.1
											c-2.1-1.7-4-3.6-6.2-4.9C1520.7,493.9,1519.6,490.8,1518.3,493.9"/>
										<path class="st8" d="M1538.5,520.5c-3.3-5.9-6.4-8.3-10.9-4.7C1529.3,522.9,1533.2,522.2,1538.5,520.5"/>
										<path class="st8" d="M1544.9,515.7c-0.5-2.8-0.6-4.6-1.2-5.9c-1-2-2.1-4.2-3.6-5.4c-1-0.9-1.2,5.3,0.5,7.9
											C1541.5,513.5,1542.8,514.1,1544.9,515.7"/>
										<path class="st8" d="M1229.9,489.9c-0.7-0.8-2.1-2.8-2.3-2.6c-1.4,1.1-2.7,2.7-3.7,4.4c-0.2,0.3,0.1,1.1,0.4,1.9
											c0.2,0.5,0.4,0.9,0.5,1.4c1.5-0.9,3-1.7,4.4-2.6C1229.4,492.1,1229.5,491.2,1229.9,489.9"/>
										<path class="st8" d="M1186.7,406.9c-0.2-0.1-0.9,1.9-1.4,2.8c1.9,0.8,3.7,1.4,5.5,2.2c0.2-0.8,0.5-1.6,0.7-2.4
											C1189.9,408.6,1188.3,407.6,1186.7,406.9"/>
										<path class="st8" d="M1078.6,272.5c0.5,0,1.1-0.1,1.5-0.2c3.4-0.6,5.5-2.3,5.4-7.1c0.1,0,0.2,0,0.3,0
											c0-0.1,0.1-0.2,0.2-0.3c1.5,0.2,2.8-0.2,3.6-1.3c0.6-0.7,1.1-1.7,1.4-2.9c0.1-0.6-0.8-1.5-1.3-2.3
											c-1.2,2.2-2.5,4.3-3.7,6.5c-0.2,0-0.3,0-0.5,0c0,0.1,0,0.2,0,0.3C1081.4,264.5,1079.7,267.5,1078.6,272.5"/>
										<path class="st8" d="M974.2,426.6c1.1,1.7,2.2,3.7,3.6,4.9c0.4,0.3,3.1-2,3-2.8c-0.2-2-1.4-3.7-2.5-6
											C976.4,424.5,975.3,425.6,974.2,426.6"/>
										<path class="st8" d="M1220.9,389.1c-1.8,0.1-4.3,0.2-3.4,3.9c0.3,0.9,2.4,1.7,3.7,1.6c1.3-0.1,2.6-1.4,6.5-3.7
											C1223.7,389.9,1222.3,389.1,1220.9,389.1"/>
										<path class="st8" d="M1553.3,531.9c-0.2-0.8-0.3-1.6-0.6-2.1c-0.6-0.8-1.7-1-2.6-1.5c-0.7,0.6-2,1.2-1.9,1.7
											c0.1,1.1,0.7,2.7,1.3,2.9c0.8,0.2,1.6,0.2,2.5,0c0.5,0,1-0.1,1.5-0.1C1553.4,532.4,1553.4,532.1,1553.3,531.9"/>
										<path class="st8" d="M1498.6,479.9c-1.1,0.8-1.8,1.1-1.8,1.2c0.2,1.1,0.3,2.6,0.9,3.3c0.6,0.8,1.7,0.9,2.7,1.1
											c0.2,0,0.8-1.1,0.6-1.4C1500.2,482.6,1499.3,481.2,1498.6,479.9"/>
										<path class="st8" d="M1272.8,397.4c0.7,6.2,2.2,8.2,6.3,5.3C1277.1,400.9,1275.3,399.5,1272.8,397.4"/>
										<path class="st8" d="M979.7,334.2c-0.2,0.6-0.4,1.2-0.4,1.9c0,0.5,0.4,1.1,0.6,1.7l1.9-2
											C981.1,335.2,980.5,334.7,979.7,334.2"/>
										<path class="st8" d="M1610.5,609.9c0.2,0.3,0.3,0.6,0.4,0.6c0.5,0,0.9-0.1,1.4-0.3c0.5-0.1,0.9-0.3,1.4-0.4
											c0,0,0-0.1-0.1-0.1c-0.4-0.6-0.8-1.4-1.2-2c-0.8,0.4-1.5,0.8-2.3,1.3C1610.3,609.2,1610.4,609.6,1610.5,609.9"/>
										<path class="st8" d="M1620.5,626.4c-0.3,0.2-0.8,0.2-0.8,0.4v0.3c0,0.3,0.1,0.7,0.2,1c0.2-0.1,0.3-0.1,0.5-0.2
											c0.2-0.1,0.3-0.1,0.5-0.2C1620.7,627.4,1620.6,626.9,1620.5,626.4"/>
										<path class="st8" d="M1215.4,413.8c-0.2-0.3-0.3-0.5-0.5-0.5c-0.8-0.1-1.6,0.2-2.4,0.4c0.3,0.8,0.6,1.5,0.9,2.3
											c0.8-0.5,1.6-0.9,2.5-1.4C1215.7,414.4,1215.6,414.1,1215.4,413.8"/>
										<polygon class="st8" points="1392.8,416 1393.1,417.2 1393.7,416.2 										"/>
									</g>
								</g>
							</g>
						</g>
					</g>
				</g>
			</g>
		</g>
		<g>
			<g>
				<g>
					<g>
						<defs>
							<rect id="SVGID_10_" width="1920" height="700"/>
						</defs>
						<clipPath id="SVGID_11_">
							<use xlink:href="#SVGID_10_"  style="overflow:visible;"/>
						</clipPath>
						<path class="st9" d="M349.9,552.8c0,0,10,10,10,34c0,0,8,16-4,18l-22,98l-48,6l4-6c0,0-8-8-2-24s12-14,10-26s-10-20,0-40
							c0,0,2-6,8-8s30-14,30-30C335.9,574.7,341.9,572.7,349.9,552.8z"/>
					</g>
				</g>
			</g>
		</g>
		<g>
			<g>
				<g>
					<g>
						<defs>
							<rect id="SVGID_12_" width="1920" height="700"/>
						</defs>
						<clipPath id="SVGID_13_">
							<use xlink:href="#SVGID_12_"  style="overflow:visible;"/>
						</clipPath>
						<polygon class="st10" points="414.8,673.7 416.8,671.7 418.8,675.7 416.8,677.7 						"/>
					</g>
				</g>
			</g>
		</g>
		<g>
			<g>
				<g>
					<g>
						<defs>
							<rect id="SVGID_14_" width="1920" height="700"/>
						</defs>
						<clipPath id="SVGID_15_">
							<use xlink:href="#SVGID_14_"  style="overflow:visible;"/>
						</clipPath>
						<path class="st11" d="M438.8,661.7c0,0-4,2-2,4S442.8,663.7,438.8,661.7z"/>
					</g>
				</g>
			</g>
		</g>
		<g>
			<g>
				<g>
					<g>
						<defs>
							<rect id="SVGID_16_" width="1920" height="700"/>
						</defs>
						<clipPath id="SVGID_17_">
							<use xlink:href="#SVGID_16_"  style="overflow:visible;"/>
						</clipPath>
						<g id="Layer_4" class="st12">
							<g>
								<path class="st13" d="M762.5,268.5h-14.3l-2.7,6.6h-7.3l13.7-30.8h7l13.8,30.8h-7.5L762.5,268.5z M760.2,263.1l-4.9-11.8
									l-4.9,11.8H760.2z"/>
								<path class="st13" d="M772,272.9l2.3-4.9c2.1,1.4,5.3,2.3,8.2,2.3c3.2,0,4.4-0.8,4.4-2.2c0-3.9-14.3,0.1-14.3-9.4
									c0-4.5,4-7.7,11-7.7c3.3,0,6.9,0.7,9.1,2.1l-2.3,4.9c-2.3-1.3-4.7-1.8-6.8-1.8c-3.1,0-4.4,1-4.4,2.2c0,4,14.3,0.1,14.3,9.5
									c0,4.4-4.1,7.5-11.2,7.5C778.2,275.4,774.2,274.3,772,272.9z"/>
								<path class="st13" d="M795.7,244.3c0-2.2,1.7-3.8,4.3-3.8s4.3,1.6,4.3,3.7c0,2.3-1.7,4-4.3,4
									C797.4,248.1,795.7,246.4,795.7,244.3z M796.5,251.4h6.9v23.7h-6.9V251.4z"/>
								<path class="st13" d="M829.6,261.6v13.5h-6.4v-2.9c-1.3,2.2-3.7,3.3-7.2,3.3c-5.5,0-8.8-3.1-8.8-7.2c0-4.2,2.9-7.1,10.2-7.1
									h5.5c0-2.9-1.8-4.7-5.5-4.7c-2.5,0-5.1,0.8-6.8,2.2l-2.5-4.8c2.6-1.8,6.4-2.9,10.2-2.9C825.4,251.1,829.6,254.4,829.6,261.6
									z M822.7,267.6v-2.4H818c-3.2,0-4.2,1.2-4.2,2.8c0,1.7,1.5,2.9,3.9,2.9C820,270.8,821.9,269.8,822.7,267.6z"/>
							</g>
							<circle class="st14" cx="966.6" cy="233.9" r="6"/>
							<circle class="st15" cx="910.6" cy="331.8" r="6"/>
							<circle class="st15" cx="938.6" cy="373.8" r="6"/>
							<circle class="st15" cx="975.3" cy="474.4" r="6"/>
						</g>
					</g>
				</g>
			</g>
		</g>
		<g>
			<g>
				<g>
					<g>
						<defs>
							<rect id="SVGID_18_" width="1920" height="700"/>
						</defs>
						<clipPath id="SVGID_19_">
							<use xlink:href="#SVGID_18_"  style="overflow:visible;"/>
						</clipPath>
						
							<linearGradient id="SVGID_20_" gradientUnits="userSpaceOnUse" x1="960" y1="-439.8897" x2="960" y2="-539.8897" gradientTransform="matrix(1 0 0 1 0 539.8897)">
							<stop  offset="0" style="stop-color:#E1E7EF;stop-opacity:0"/>
							<stop  offset="1" style="stop-color:#E1E7EF;stop-opacity:0.3"/>
						</linearGradient>
						<rect class="st16" width="1920" height="100"/>
					</g>
				</g>
			</g>
		</g>
	</g>
	<g class="st0">
		<path class="st1" d="M968.1,263.1c-0.6,0.5-1.4,0.7-2.2,0.7c-2,0-3.1-1.1-3.1-3.1v-6.4h-1.9v-1.2h1.9v-2.3h1.4v2.3h3.2v1.2h-3.2
			v6.3c0,1.2,0.6,1.9,1.8,1.9c0.6,0,1.2-0.2,1.6-0.5L968.1,263.1z"/>
		<path class="st1" d="M978.6,257.2v6.5h-1.4v-1.6c-0.6,1.1-1.9,1.7-3.6,1.7c-2.4,0-3.8-1.2-3.8-3.1c0-1.6,1-3,4.1-3h3.3v-0.6
			c0-1.8-1-2.8-3-2.8c-1.4,0-2.6,0.5-3.5,1.2l-0.6-1.1c1.1-0.9,2.6-1.4,4.3-1.4C977.1,253.1,978.6,254.5,978.6,257.2z M977.2,260.6
			v-1.7h-3.3c-2,0-2.7,0.8-2.7,1.9c0,1.2,1,2,2.7,2C975.5,262.7,976.6,262,977.2,260.6z"/>
		<path class="st1" d="M982.1,249.9c0-0.5,0.5-1,1-1s1,0.4,1,1s-0.4,1-1,1C982.6,250.9,982.1,250.5,982.1,249.9z M982.5,253.2h1.4
			v10.5h-1.4V253.2z"/>
		<path class="st1" d="M997.5,257.6v6.1h-1.4v-6c0-2.2-1.2-3.4-3.2-3.4c-2.3,0-3.7,1.4-3.7,3.8v5.5h-1.4v-14.8h1.4v6.2
			c0.8-1.2,2.2-1.9,3.9-1.9C995.8,253.1,997.5,254.6,997.5,257.6z"/>
		<path class="st1" d="M1009.3,257.2v6.5h-1.4v-1.6c-0.6,1.1-1.9,1.7-3.6,1.7c-2.4,0-3.8-1.2-3.8-3.1c0-1.6,1-3,4.1-3h3.3v-0.6
			c0-1.8-1-2.8-3-2.8c-1.4,0-2.6,0.5-3.5,1.2l-0.6-1.1c1.1-0.9,2.6-1.4,4.3-1.4C1007.8,253.1,1009.3,254.5,1009.3,257.2z
			 M1007.9,260.6v-1.7h-3.3c-2,0-2.7,0.8-2.7,1.9c0,1.2,1,2,2.7,2C1006.2,262.7,1007.3,262,1007.9,260.6z"/>
		<path class="st1" d="M1022.9,257.6v6.1h-1.4v-6c0-2.2-1.2-3.4-3.2-3.4c-2.3,0-3.7,1.4-3.7,3.8v5.5h-1.4v-10.5h1.4v1.9
			c0.8-1.3,2.2-2,4-2C1021.1,253.1,1022.9,254.6,1022.9,257.6z"/>
		<path class="st1" d="M1043.9,249.8l-6.2,14h-1.5l-6.2-14h1.6l5.4,12.2l5.4-12.2H1043.9z"/>
		<path class="st1" d="M1045.9,249.8h1.5v14h-1.5V249.8z"/>
		<path class="st1" d="M1063.7,249.8v14h-1.2l-9-11.4v11.4h-1.5v-14h1.2l9,11.4v-11.4L1063.7,249.8L1063.7,249.8z"/>
		<path class="st1" d="M1077,260h-7.8l-1.7,3.7h-1.5l6.4-14h1.5l6.4,14h-1.6L1077,260z M1076.5,258.8l-3.4-7.5l-3.4,7.5H1076.5z"/>
	</g>
	<g>
		<path d="M919.6,350.4v14h-1.4v-11.2l-5.5,9.4H912l-5.5-9.4v11.1h-1.4v-14h1.2l6.1,10.4l6-10.4L919.6,350.4L919.6,350.4z"/>
		<path d="M931.8,357.9v6.5h-1.4v-1.6c-0.6,1.1-1.9,1.7-3.6,1.7c-2.4,0-3.8-1.2-3.8-3.1c0-1.6,1-3,4.1-3h3.3v-0.6c0-1.8-1-2.8-3-2.8
			c-1.4,0-2.6,0.5-3.5,1.2l-0.6-1.1c1.1-0.9,2.6-1.4,4.3-1.4C930.3,353.9,931.8,355.2,931.8,357.9z M930.4,361.3v-1.7h-3.3
			c-2,0-2.7,0.8-2.7,1.9c0,1.2,1,2,2.7,2C928.6,363.4,929.8,362.7,930.4,361.3z"/>
		<path d="M935.7,349.6h1.4v14.8h-1.4V349.6z"/>
		<path d="M949,357.9v6.5h-1.4v-1.6c-0.6,1.1-1.9,1.7-3.6,1.7c-2.4,0-3.8-1.2-3.8-3.1c0-1.6,1-3,4.1-3h3.3v-0.6c0-1.8-1-2.8-3-2.8
			c-1.4,0-2.6,0.5-3.5,1.2l-0.6-1.1c1.1-0.9,2.6-1.4,4.3-1.4C947.4,353.9,949,355.2,949,357.9z M947.6,361.3v-1.7h-3.3
			c-2,0-2.7,0.8-2.7,1.9c0,1.2,1,2,2.7,2C945.8,363.4,947,362.7,947.6,361.3z"/>
		<path d="M961.5,353.9l-5.3,11.8c-0.9,2.1-2,2.7-3.5,2.7c-1,0-1.9-0.3-2.6-1l0.7-1.1c0.5,0.5,1.2,0.8,1.9,0.8
			c0.9,0,1.6-0.4,2.2-1.8l0.5-1l-4.7-10.5h1.5l4,8.9l4-8.9h1.3L961.5,353.9L961.5,353.9z"/>
		<path d="M961.9,363.2l0.6-1.1c0.8,0.7,2.3,1.2,3.7,1.2c2,0,2.8-0.7,2.8-1.7c0-2.7-6.8-0.6-6.8-4.7c0-1.7,1.5-3,4.2-3
			c1.4,0,2.8,0.4,3.7,1l-0.6,1.1c-0.9-0.6-2-0.9-3.1-0.9c-1.9,0-2.7,0.7-2.7,1.7c0,2.8,6.8,0.7,6.8,4.7c0,1.8-1.6,3-4.3,3
			C964.4,364.5,962.8,364,961.9,363.2z"/>
		<path d="M972.8,350.6c0-0.5,0.5-1,1-1s1,0.4,1,1s-0.4,1-1,1C973.3,351.6,972.8,351.2,972.8,350.6z M973.1,353.9h1.4v10.5h-1.4
			V353.9z"/>
		<path d="M986.5,357.9v6.5h-1.4v-1.6c-0.6,1.1-1.9,1.7-3.6,1.7c-2.4,0-3.8-1.2-3.8-3.1c0-1.6,1-3,4.1-3h3.3v-0.6c0-1.8-1-2.8-3-2.8
			c-1.4,0-2.6,0.5-3.5,1.2l-0.6-1.1c1.1-0.9,2.6-1.4,4.3-1.4C984.9,353.9,986.5,355.2,986.5,357.9z M985,361.3v-1.7h-3.3
			c-2,0-2.7,0.8-2.7,1.9c0,1.2,1,2,2.7,2C983.3,363.4,984.5,362.7,985,361.3z"/>
	</g>
	<g>
		<path d="M932.7,404.8l0.6-1.1c1,1,2.8,1.7,4.6,1.7c2.6,0,3.8-1.1,3.8-2.5c0-3.8-8.6-1.5-8.6-6.7c0-2.1,1.6-3.8,5.2-3.8
			c1.6,0,3.2,0.5,4.3,1.2l-0.5,1.2c-1.2-0.8-2.6-1.2-3.8-1.2c-2.6,0-3.7,1.1-3.7,2.5c0,3.8,8.6,1.5,8.6,6.6c0,2.1-1.6,3.8-5.2,3.8
			C935.8,406.6,933.8,405.9,932.7,404.8z"/>
		<path d="M945.8,392.6c0-0.5,0.5-1,1-1s1,0.4,1,1s-0.4,1-1,1C946.2,393.7,945.8,393.2,945.8,392.6z M946.1,396h1.4v10.5h-1.4V396z"
			/>
		<path d="M961.1,400.4v6.1h-1.4v-6c0-2.2-1.2-3.4-3.2-3.4c-2.3,0-3.7,1.4-3.7,3.8v5.5h-1.4V396h1.4v1.9c0.8-1.3,2.2-2,4-2
			C959.4,395.9,961.1,397.4,961.1,400.4z"/>
		<path d="M974.8,396v9.2c0,3.6-1.8,5.3-5.3,5.3c-1.9,0-3.8-0.6-4.9-1.6l0.7-1.1c1,0.9,2.5,1.4,4.1,1.4c2.7,0,3.9-1.2,3.9-3.8v-1.3
			c-0.9,1.3-2.4,2-4.1,2c-3,0-5.3-2.1-5.3-5.1s2.3-5.1,5.3-5.1c1.8,0,3.3,0.7,4.2,2.1v-2H974.8L974.8,396z M973.4,401
			c0-2.3-1.7-3.8-4-3.8s-4,1.6-4,3.8s1.7,3.9,4,3.9S973.4,403.3,973.4,401z"/>
		<path d="M986.7,400v6.5h-1.4v-1.6c-0.6,1.1-1.9,1.7-3.6,1.7c-2.4,0-3.8-1.2-3.8-3.1c0-1.6,1-3,4.1-3h3.3v-0.6c0-1.8-1-2.8-3-2.8
			c-1.4,0-2.6,0.5-3.5,1.2l-0.6-1.1c1.1-0.9,2.6-1.4,4.3-1.4C985.2,395.9,986.7,397.2,986.7,400z M985.3,403.3v-1.7H982
			c-2,0-2.7,0.8-2.7,1.9c0,1.2,1,2,2.7,2C983.5,405.5,984.7,404.7,985.3,403.3z"/>
		<path d="M1001.2,401.2c0,3.2-2.2,5.4-5.2,5.4c-1.7,0-3.1-0.7-4-2.1v5.9h-1.4V396h1.4v2.1c0.9-1.4,2.3-2.2,4.1-2.2
			C999,395.9,1001.2,398,1001.2,401.2z M999.8,401.2c0-2.4-1.7-4.1-3.9-4.1s-3.9,1.7-3.9,4.1c0,2.5,1.7,4.1,3.9,4.1
			C998.1,405.3,999.8,403.7,999.8,401.2z"/>
		<path d="M1003,401.2c0-3.1,2.3-5.3,5.4-5.3c3.1,0,5.3,2.2,5.3,5.3s-2.3,5.4-5.3,5.4C1005.3,406.6,1003,404.4,1003,401.2z
			 M1012.3,401.2c0-2.5-1.7-4.1-3.9-4.1s-3.9,1.6-3.9,4.1s1.7,4.1,3.9,4.1S1012.3,403.7,1012.3,401.2z"/>
		<path d="M1022,395.9v1.4c-0.1,0-0.2,0-0.3,0c-2.2,0-3.5,1.4-3.5,3.9v5.4h-1.4V396h1.4v2.1C1018.7,396.6,1020,395.9,1022,395.9z"/>
		<path d="M1033.6,401.7h-8.8c0.2,2.2,1.8,3.7,4.1,3.7c1.3,0,2.4-0.5,3.2-1.4l0.8,0.9c-0.9,1.1-2.4,1.7-4.1,1.7
			c-3.3,0-5.5-2.2-5.5-5.4s2.2-5.3,5.1-5.3s5.1,2.2,5.1,5.3C1033.6,401.4,1033.6,401.5,1033.6,401.7z M1024.8,400.6h7.5
			c-0.2-2.1-1.7-3.5-3.7-3.5C1026.4,397.1,1024.9,398.5,1024.8,400.6z"/>
	</g>
	<g>
		<path d="M968.2,494.2h1.5v14h-1.5V494.2z"/>
		<path d="M983.6,502.1v6.1h-1.4v-6c0-2.2-1.2-3.4-3.2-3.4c-2.3,0-3.7,1.4-3.7,3.8v5.5h-1.4v-10.5h1.4v1.9c0.8-1.3,2.2-2,4-2
			C981.8,497.6,983.6,499.1,983.6,502.1z"/>
		<path d="M997.1,493.4v14.8h-1.4v-2.1c-0.9,1.4-2.3,2.2-4.1,2.2c-3,0-5.2-2.2-5.2-5.4s2.2-5.3,5.2-5.3c1.7,0,3.1,0.7,4,2.1v-6.3
			L997.1,493.4L997.1,493.4z M995.7,503c0-2.5-1.7-4.1-3.9-4.1s-3.9,1.6-3.9,4.1s1.7,4.1,3.9,4.1S995.7,505.5,995.7,503z"/>
		<path d="M1000,503c0-3.1,2.3-5.3,5.4-5.3c3.1,0,5.3,2.2,5.3,5.3s-2.3,5.4-5.3,5.4C1002.2,508.4,1000,506.1,1000,503z M1009.2,503
			c0-2.5-1.7-4.1-3.9-4.1s-3.9,1.6-3.9,4.1s1.7,4.1,3.9,4.1S1009.2,505.5,1009.2,503z"/>
		<path d="M1023.2,502.1v6.1h-1.4v-6c0-2.2-1.2-3.4-3.2-3.4c-2.3,0-3.7,1.4-3.7,3.8v5.5h-1.4v-10.5h1.4v1.9c0.8-1.3,2.2-2,4-2
			C1021.5,497.6,1023.2,499.1,1023.2,502.1z"/>
		<path d="M1036.3,503.4h-8.8c0.2,2.2,1.8,3.7,4.1,3.7c1.3,0,2.4-0.5,3.2-1.4l0.8,0.9c-0.9,1.1-2.4,1.7-4.1,1.7
			c-3.3,0-5.5-2.2-5.5-5.4s2.2-5.3,5.1-5.3s5.1,2.2,5.1,5.3C1036.3,503.1,1036.3,503.3,1036.3,503.4z M1027.5,502.4h7.5
			c-0.2-2.1-1.7-3.5-3.7-3.5C1029.2,498.9,1027.7,500.3,1027.5,502.4z"/>
		<path d="M1037.8,507l0.6-1.1c0.8,0.7,2.3,1.2,3.7,1.2c2,0,2.8-0.7,2.8-1.7c0-2.7-6.8-0.6-6.8-4.7c0-1.7,1.5-3,4.2-3
			c1.4,0,2.8,0.4,3.7,1l-0.6,1.1c-0.9-0.6-2-0.9-3.1-0.9c-1.9,0-2.7,0.7-2.7,1.7c0,2.8,6.8,0.7,6.8,4.7c0,1.8-1.6,3-4.3,3
			C1040.3,508.4,1038.6,507.8,1037.8,507z"/>
		<path d="M1048.7,494.4c0-0.5,0.5-1,1-1s1,0.4,1,1s-0.4,1-1,1C1049.2,495.4,1048.7,495,1048.7,494.4z M1049,497.7h1.4v10.5h-1.4
			V497.7z"/>
		<path d="M1062.3,501.7v6.5h-1.4v-1.6c-0.6,1.1-1.9,1.7-3.6,1.7c-2.4,0-3.8-1.2-3.8-3.1c0-1.6,1-3,4.1-3h3.3v-0.6
			c0-1.8-1-2.8-3-2.8c-1.4,0-2.6,0.5-3.5,1.2l-0.6-1.1c1.1-0.9,2.6-1.4,4.3-1.4C1060.8,497.6,1062.3,499,1062.3,501.7z
			 M1060.9,505.1v-1.7h-3.3c-2,0-2.7,0.8-2.7,1.9c0,1.2,1,2,2.7,2C1059.2,507.2,1060.3,506.5,1060.9,505.1z"/>
	</g>
	<circle class="st14" cx="1532.4" cy="77.5" r="6"/>
	<circle class="st15" cx="1532.4" cy="107.4" r="6"/>
	<path d="M1559.5,109.8c0,2.1-1.6,3.4-4.7,3.4h-5.8v-12.6h5.4c2.8,0,4.4,1.2,4.4,3.2c0,1.4-0.8,2.4-1.9,2.9
		C1558.5,107.1,1559.5,108.1,1559.5,109.8z M1550.3,101.7v4.6h4c2,0,3.2-0.8,3.2-2.3s-1.2-2.3-3.2-2.3
		C1554.3,101.7,1550.3,101.7,1550.3,101.7z M1558.1,109.7c0-1.6-1.2-2.4-3.4-2.4h-4.4v4.7h4.4
		C1556.9,112.1,1558.1,111.4,1558.1,109.7z"/>
	<path d="M1567,103.7v1.2c-0.1,0-0.2,0-0.3,0c-2,0-3.2,1.3-3.2,3.5v4.8h-1.3v-9.5h1.2v1.9C1564.1,104.3,1565.3,103.7,1567,103.7z"/>
	<path d="M1576.4,107.3v5.9h-1.2v-1.5c-0.6,1-1.7,1.6-3.3,1.6c-2.1,0-3.5-1.1-3.5-2.8c0-1.5,0.9-2.7,3.7-2.7h3v-0.6
		c0-1.6-0.9-2.5-2.7-2.5c-1.2,0-2.4,0.4-3.2,1.1l-0.6-1c1-0.8,2.4-1.3,3.9-1.3C1575.1,103.7,1576.4,104.9,1576.4,107.3z
		 M1575.2,110.4v-1.5h-3c-1.8,0-2.4,0.7-2.4,1.7c0,1.1,0.9,1.8,2.4,1.8C1573.6,112.3,1574.7,111.6,1575.2,110.4z"/>
	<path d="M1588.6,107.7v5.5h-1.3v-5.4c0-2-1-3-2.8-3c-2,0-3.3,1.3-3.3,3.4v5h-1.3v-9.5h1.2v1.7c0.7-1.2,2-1.8,3.6-1.8
		C1587,103.7,1588.6,105,1588.6,107.7z"/>
	<path d="M1591.2,108.5c0-2.8,2.1-4.8,4.9-4.8c1.6,0,3,0.6,3.7,1.9l-1,0.6c-0.6-1-1.7-1.4-2.8-1.4c-2.1,0-3.6,1.5-3.6,3.7
		s1.5,3.7,3.6,3.7c1.1,0,2.1-0.4,2.8-1.4l1,0.6c-0.8,1.2-2.1,1.9-3.7,1.9C1593.2,113.3,1591.2,111.3,1591.2,108.5z"/>
	<path d="M1610.8,107.7v5.5h-1.3v-5.4c0-2-1-3-2.8-3c-2,0-3.3,1.3-3.3,3.4v5h-1.3V99.8h1.3v5.5c0.7-1.1,1.9-1.7,3.5-1.7
		C1609.3,103.7,1610.8,105,1610.8,107.7z"/>
	<path d="M1618.2,106.9c0-3.7,2.8-6.4,6.6-6.4c3.8,0,6.6,2.7,6.6,6.4c0,3.7-2.8,6.4-6.6,6.4S1618.2,110.6,1618.2,106.9z
		 M1630.1,106.9c0-3-2.3-5.2-5.3-5.2s-5.3,2.2-5.3,5.2s2.3,5.2,5.3,5.2C1627.8,112.1,1630.1,109.9,1630.1,106.9z"/>
	<path d="M1635.6,102.6v1.1h2.9v1.1h-2.9v8.4h-1.3v-8.4h-1.7v-1.1h1.7v-1.2c0-1.7,1-2.8,2.9-2.8c0.7,0,1.4,0.2,1.9,0.6l-0.4,1
		c-0.4-0.3-0.9-0.5-1.4-0.5C1636.2,100.8,1635.6,101.4,1635.6,102.6z"/>
	<path d="M1643.3,99.7c0.7,0,1.4,0.2,1.9,0.6l-0.4,1c-0.4-0.3-0.9-0.5-1.4-0.5c-1.1,0-1.7,0.6-1.7,1.8v1.1h2.9v1.1h-2.9v8.4h-1.3
		v-8.4h-1.7v-1.1h1.7v-1.2C1640.4,100.9,1641.5,99.7,1643.3,99.7z M1649.4,100.7c0,0.5-0.4,0.9-0.9,0.9s-0.9-0.4-0.9-0.9
		s0.4-0.9,0.9-0.9C1648.9,99.8,1649.4,100.2,1649.4,100.7z M1647.8,103.7h1.3v9.5h-1.3V103.7z"/>
	<path d="M1651.7,108.5c0-2.8,2.1-4.8,4.9-4.8c1.6,0,3,0.6,3.7,1.9l-1,0.6c-0.6-1-1.7-1.4-2.8-1.4c-2.1,0-3.6,1.5-3.6,3.7
		s1.5,3.7,3.6,3.7c1.1,0,2.1-0.4,2.8-1.4l1,0.6c-0.8,1.2-2.1,1.9-3.7,1.9C1653.7,113.3,1651.7,111.3,1651.7,108.5z"/>
	<path d="M1670.8,108.9h-7.9c0.1,2,1.7,3.3,3.7,3.3c1.2,0,2.2-0.4,2.9-1.2l0.7,0.8c-0.8,1-2.2,1.5-3.7,1.5c-3,0-5-2-5-4.8
		s2-4.8,4.6-4.8c2.7,0,4.6,2,4.6,4.8C1670.8,108.6,1670.8,108.7,1670.8,108.9z M1662.9,107.9h6.7c-0.2-1.9-1.5-3.2-3.4-3.2
		C1664.4,104.8,1663.1,106.1,1662.9,107.9z"/>
	<path d="M1672.1,112.1l0.6-1c0.8,0.6,2,1.1,3.4,1.1c1.8,0,2.5-0.6,2.5-1.5c0-2.5-6.1-0.5-6.1-4.3c0-1.5,1.3-2.7,3.7-2.7
		c1.2,0,2.6,0.3,3.3,0.9l-0.6,1c-0.8-0.6-1.8-0.8-2.8-0.8c-1.7,0-2.5,0.7-2.5,1.6c0,2.6,6.1,0.6,6.1,4.3c0,1.6-1.4,2.7-3.9,2.7
		C1674.4,113.3,1672.9,112.8,1672.1,112.1z"/>
	<g>
		<path d="M1557.8,74.9c0,2.7-1.9,4.3-5.2,4.3h-3.4v4h-1.3V70.5h4.7C1555.9,70.5,1557.8,72.2,1557.8,74.9z M1556.5,74.9
			c0-2-1.3-3.2-3.9-3.2h-3.3V78h3.3C1555.2,78,1556.5,76.8,1556.5,74.9z"/>
		<path d="M1565,73.6v1.2c-0.1,0-0.2,0-0.3,0c-2,0-3.2,1.3-3.2,3.5v4.8h-1.3v-9.5h1.2v1.9C1562,74.3,1563.2,73.6,1565,73.6z"/>
		<path d="M1566.2,78.4c0-2.8,2.1-4.8,4.8-4.8c2.8,0,4.8,2,4.8,4.8s-2,4.8-4.8,4.8C1568.3,83.2,1566.2,81.2,1566.2,78.4z
			 M1574.6,78.4c0-2.2-1.5-3.7-3.5-3.7s-3.5,1.5-3.5,3.7s1.5,3.7,3.5,3.7S1574.6,80.6,1574.6,78.4z"/>
		<path d="M1587.1,69.8v13.4h-1.2v-1.9c-0.8,1.3-2.1,2-3.7,2c-2.7,0-4.7-2-4.7-4.8s2-4.8,4.7-4.8c1.5,0,2.8,0.6,3.6,1.9v-5.7
			L1587.1,69.8L1587.1,69.8z M1585.9,78.4c0-2.2-1.5-3.7-3.5-3.7s-3.5,1.5-3.5,3.7s1.5,3.7,3.5,3.7
			C1584.3,82.1,1585.9,80.6,1585.9,78.4z"/>
		<path d="M1599.2,73.7v9.5h-1.2v-1.7c-0.7,1.2-1.9,1.8-3.4,1.8c-2.4,0-4-1.4-4-4.1v-5.5h1.3V79c0,2,1,3,2.8,3c2,0,3.2-1.3,3.2-3.4
			v-5L1599.2,73.7L1599.2,73.7z"/>
		<path d="M1601.8,78.4c0-2.8,2.1-4.8,4.9-4.8c1.6,0,3,0.6,3.7,1.9l-1,0.6c-0.6-1-1.7-1.4-2.8-1.4c-2.1,0-3.6,1.5-3.6,3.7
			s1.5,3.7,3.6,3.7c1.1,0,2.1-0.4,2.8-1.4l1,0.6c-0.8,1.2-2.1,1.9-3.7,1.9C1603.9,83.2,1601.8,81.2,1601.8,78.4z"/>
		<path d="M1618,82.6c-0.5,0.5-1.3,0.7-2,0.7c-1.8,0-2.8-1-2.8-2.8v-5.7h-1.7v-1.1h1.7v-2.1h1.3v2.1h2.9v1.1h-2.9v5.7
			c0,1.1,0.6,1.7,1.6,1.7c0.5,0,1-0.2,1.4-0.5L1618,82.6z"/>
		<path d="M1620.1,70.7c0-0.5,0.4-0.9,0.9-0.9s0.9,0.4,0.9,0.9s-0.4,0.9-0.9,0.9S1620.1,71.2,1620.1,70.7z M1620.3,73.7h1.3v9.5
			h-1.3V73.7z"/>
		<path d="M1624.2,78.4c0-2.8,2.1-4.8,4.8-4.8c2.8,0,4.8,2,4.8,4.8s-2,4.8-4.8,4.8C1626.3,83.2,1624.2,81.2,1624.2,78.4z
			 M1632.6,78.4c0-2.2-1.5-3.7-3.5-3.7s-3.5,1.5-3.5,3.7s1.5,3.7,3.5,3.7S1632.6,80.6,1632.6,78.4z"/>
		<path d="M1645.2,77.7v5.5h-1.3v-5.4c0-2-1-3-2.8-3c-2,0-3.3,1.3-3.3,3.4v5h-1.3v-9.5h1.2v1.7c0.7-1.2,2-1.8,3.6-1.8
			C1643.6,73.6,1645.2,74.9,1645.2,77.7z"/>
		<path d="M1652.4,81.6l0.5-1c0.9,0.9,2.5,1.5,4.2,1.5c2.4,0,3.4-1,3.4-2.2c0-3.5-7.8-1.3-7.8-6c0-1.9,1.4-3.5,4.6-3.5
			c1.4,0,2.9,0.4,3.9,1.1l-0.5,1.1c-1.1-0.7-2.3-1-3.5-1c-2.3,0-3.3,1-3.3,2.3c0,3.5,7.8,1.4,7.8,6c0,1.9-1.5,3.4-4.7,3.4
			C1655.2,83.3,1653.4,82.6,1652.4,81.6z"/>
		<path d="M1673,73.7v9.5h-1.2v-1.7c-0.7,1.2-1.9,1.8-3.4,1.8c-2.4,0-4-1.4-4-4.1v-5.5h1.3V79c0,2,1,3,2.8,3c2,0,3.2-1.3,3.2-3.4v-5
			L1673,73.7L1673,73.7z"/>
		<path d="M1686.1,78.4c0,2.9-2,4.8-4.7,4.8c-1.6,0-2.9-0.7-3.7-2v1.9h-1.2V69.8h1.3v5.7c0.8-1.2,2.1-1.9,3.6-1.9
			C1684.1,73.6,1686.1,75.6,1686.1,78.4z M1684.9,78.4c0-2.2-1.5-3.7-3.5-3.7s-3.5,1.5-3.5,3.7s1.5,3.7,3.5,3.7
			C1683.3,82.1,1684.9,80.6,1684.9,78.4z"/>
		<path d="M1687.4,82.1l0.6-1c0.8,0.6,2,1.1,3.4,1.1c1.8,0,2.5-0.6,2.5-1.5c0-2.5-6.1-0.5-6.1-4.3c0-1.5,1.3-2.7,3.7-2.7
			c1.2,0,2.6,0.3,3.3,0.9l-0.6,1c-0.8-0.6-1.8-0.8-2.8-0.8c-1.7,0-2.5,0.7-2.5,1.6c0,2.6,6.1,0.6,6.1,4.3c0,1.6-1.4,2.7-3.9,2.7
			C1689.7,83.2,1688.2,82.7,1687.4,82.1z"/>
		<path d="M1697.3,70.7c0-0.5,0.4-0.9,0.9-0.9s0.9,0.4,0.9,0.9s-0.4,0.9-0.9,0.9C1697.7,71.6,1697.3,71.2,1697.3,70.7z M1697.6,73.7
			h1.3v9.5h-1.3V73.7z"/>
		<path d="M1711,69.8v13.4h-1.2v-1.9c-0.8,1.3-2.1,2-3.7,2c-2.7,0-4.7-2-4.7-4.8s2-4.8,4.7-4.8c1.5,0,2.8,0.6,3.6,1.9v-5.7
			L1711,69.8L1711,69.8z M1709.8,78.4c0-2.2-1.5-3.7-3.5-3.7s-3.5,1.5-3.5,3.7s1.5,3.7,3.5,3.7S1709.8,80.6,1709.8,78.4z"/>
		<path d="M1714.3,70.7c0-0.5,0.4-0.9,0.9-0.9s0.9,0.4,0.9,0.9s-0.4,0.9-0.9,0.9C1714.7,71.6,1714.3,71.2,1714.3,70.7z M1714.6,73.7
			h1.3v9.5h-1.3V73.7z"/>
		<path d="M1726.6,77.3v5.9h-1.2v-1.5c-0.6,1-1.7,1.6-3.3,1.6c-2.1,0-3.5-1.1-3.5-2.8c0-1.5,0.9-2.7,3.7-2.7h3v-0.6
			c0-1.6-0.9-2.5-2.7-2.5c-1.2,0-2.4,0.4-3.2,1.1l-0.6-1c1-0.8,2.4-1.3,3.9-1.3C1725.2,73.6,1726.6,74.8,1726.6,77.3z M1725.3,80.3
			v-1.5h-3c-1.8,0-2.4,0.7-2.4,1.7c0,1.1,0.9,1.8,2.4,1.8C1723.7,82.2,1724.8,81.5,1725.3,80.3z"/>
		<path d="M1734.8,73.6v1.2c-0.1,0-0.2,0-0.3,0c-2,0-3.2,1.3-3.2,3.5v4.8h-1.3v-9.5h1.2v1.9C1731.9,74.3,1733.1,73.6,1734.8,73.6z"
			/>
		<path d="M1745.5,73.7l-4.7,10.6c-0.8,1.9-1.8,2.4-3.2,2.4c-0.9,0-1.7-0.3-2.3-0.9l0.6-1c0.5,0.5,1,0.7,1.7,0.7
			c0.8,0,1.4-0.4,2-1.6l0.4-0.9l-4.2-9.5h1.3l3.6,8l3.6-8h1.2V73.7z"/>
	</g>
</g>
<g id="Layer_1_1_">
	<g>
		<path d="M965,251.1h-4.9v-1.3h11.3v1.3h-4.9v12.7H965V251.1z"/>
		<path d="M979.7,254.2c0.7,0.7,1.1,1.7,1.1,3.1v6.5h-1.4v-1.6c-0.3,0.5-0.8,1-1.4,1.3c-0.6,0.3-1.4,0.5-2.2,0.5
			c-1.2,0-2.1-0.3-2.8-0.8c-0.7-0.6-1-1.3-1-2.2c0-0.9,0.3-1.6,1-2.2c0.6-0.5,1.7-0.8,3.1-0.8h3.3v-0.6c0-0.9-0.3-1.6-0.8-2.1
			c-0.5-0.5-1.2-0.7-2.2-0.7c-0.7,0-1.3,0.1-1.9,0.3c-0.6,0.2-1.1,0.5-1.6,0.9l-0.6-1.1c0.5-0.5,1.2-0.8,1.9-1.1
			c0.7-0.2,1.5-0.4,2.4-0.4C977.9,253.2,979,253.5,979.7,254.2z M978.1,262.2c0.6-0.4,1-0.9,1.3-1.6v-1.7h-3.3
			c-1.8,0-2.7,0.6-2.7,1.9c0,0.6,0.2,1.1,0.7,1.5s1.1,0.5,2,0.5C976.9,262.8,977.5,262.6,978.1,262.2z"/>
		<path d="M984.7,250.7c-0.2-0.2-0.3-0.4-0.3-0.7c0-0.3,0.1-0.5,0.3-0.7s0.4-0.3,0.7-0.3c0.3,0,0.5,0.1,0.7,0.3
			c0.2,0.2,0.3,0.4,0.3,0.7c0,0.3-0.1,0.5-0.3,0.7c-0.2,0.2-0.4,0.3-0.7,0.3C985.1,251,984.9,250.9,984.7,250.7z M984.7,253.3h1.4
			v10.5h-1.4V253.3z"/>
		<path d="M998.6,254.3c0.8,0.8,1.2,1.9,1.2,3.4v6.1h-1.4v-6c0-1.1-0.3-1.9-0.8-2.5s-1.3-0.9-2.3-0.9c-1.1,0-2,0.3-2.7,1
			c-0.7,0.7-1,1.6-1,2.8v5.5h-1.4V249h1.4v6.2c0.4-0.6,0.9-1.1,1.6-1.4c0.7-0.3,1.5-0.5,2.3-0.5
			C996.7,253.2,997.8,253.6,998.6,254.3z"/>
		<path d="M1010.4,254.2c0.7,0.7,1.1,1.7,1.1,3.1v6.5h-1.4v-1.6c-0.3,0.5-0.8,1-1.4,1.3c-0.6,0.3-1.4,0.5-2.2,0.5
			c-1.2,0-2.1-0.3-2.8-0.8c-0.7-0.6-1-1.3-1-2.2c0-0.9,0.3-1.6,1-2.2c0.6-0.5,1.7-0.8,3.1-0.8h3.3v-0.6c0-0.9-0.3-1.6-0.8-2.1
			c-0.5-0.5-1.2-0.7-2.2-0.7c-0.7,0-1.3,0.1-1.9,0.3c-0.6,0.2-1.1,0.5-1.6,0.9l-0.6-1.1c0.5-0.5,1.2-0.8,1.9-1.1
			c0.7-0.2,1.5-0.4,2.4-0.4C1008.7,253.2,1009.7,253.5,1010.4,254.2z M1008.8,262.2c0.6-0.4,1-0.9,1.3-1.6v-1.7h-3.3
			c-1.8,0-2.7,0.6-2.7,1.9c0,0.6,0.2,1.1,0.7,1.5s1.1,0.5,2,0.5C1007.6,262.8,1008.3,262.6,1008.8,262.2z"/>
		<path d="M1023.9,254.3c0.8,0.8,1.2,1.9,1.2,3.4v6.1h-1.4v-6c0-1.1-0.3-1.9-0.8-2.5s-1.3-0.9-2.3-0.9c-1.1,0-2,0.3-2.7,1
			c-0.7,0.7-1,1.6-1,2.8v5.5h-1.4v-10.5h1.4v1.9c0.4-0.6,0.9-1.1,1.6-1.5c0.7-0.4,1.5-0.5,2.4-0.5
			C1022.1,253.2,1023.1,253.6,1023.9,254.3z"/>
		<path d="M1046.1,249.8l-6.2,14h-1.5l-6.2-14h1.6l5.4,12.2l5.4-12.2H1046.1z"/>
		<path d="M1048.1,249.8h1.5v14h-1.5V249.8z"/>
		<path d="M1065.9,249.8v14h-1.2l-9-11.4v11.4h-1.5v-14h1.2l9,11.4v-11.4H1065.9z"/>
		<path d="M1079.2,260.1h-7.8l-1.7,3.7h-1.5l6.4-14h1.5l6.4,14h-1.6L1079.2,260.1z M1078.7,258.9l-3.4-7.5l-3.4,7.5H1078.7z"/>
	</g>
</g>
</svg>
