<?xml version="1.0" encoding="utf-8"?>
<!-- Generator: Adobe Illustrator 23.0.5, SVG Export Plug-In . SVG Version: 6.00 Build 0)  -->
<svg version="1.1" id="Layer_1" xmlns="http://www.w3.org/2000/svg" xmlns:xlink="http://www.w3.org/1999/xlink" x="0px" y="0px"
	 viewBox="0 0 1920 700" style="enable-background:new 0 0 1920 700;" xml:space="preserve">
<style type="text/css">
	.st0{display:none;}
	.st1{display:inline;}
	.st2{display:inline;fill:#E1E7EF;}
	.st3{clip-path:url(#SVGID_2_);}
	.st4{fill:#FFFFFF;}
	.st5{clip-path:url(#SVGID_4_);}
	.st6{clip-path:url(#SVGID_6_);fill:#FFFFFF;}
	.st7{clip-path:url(#SVGID_8_);}
	.st8{fill:url(#SVGID_9_);}
	.st9{fill:url(#SVGID_10_);}
	.st10{fill:url(#SVGID_11_);}
	.st11{fill:url(#SVGID_12_);}
	.st12{clip-path:url(#SVGID_14_);fill:#CAD2DB;}
	.st13{clip-path:url(#SVGID_16_);}
	.st14{fill:#028F37;}
	.st15{fill:#AAAAAA;}
	.st16{fill:#5D6FCC;}
	.st17{fill:none;stroke:#5D6FCC;stroke-miterlimit:10;}
	.st18{fill:none;stroke:#028F37;stroke-miterlimit:10;}
	.st19{display:inline;fill:#000111;}
	.st20{fill:#000111;}
	.st21{fill:url(#SVGID_17_);}
</style>
<g id="레이어_1_사본_3">
	<g id="Layer_1_00000132791738984363483430000010898725384829928367_" class="st0">
		<g id="Q4qLPL_00000086682324792106548390000011438722380782341564_" class="st1">
		</g>
	</g>
	<g id="Layer_5_00000089556275555668950420000017662749551967897010_" class="st0">
		<rect x="479.5" y="1" class="st2" width="959" height="350"/>
	</g>
</g>
<g id="Layer_1_00000022547791836000957880000008268964782661665942_" class="st0">
	<g id="Q4qLPL_00000095315570511170904940000010804034766525873798_" class="st1">
	</g>
</g>
<g id="Layer_5_00000000215904711455682040000011436121178616985021_" class="st0">
	<rect x="479.5" y="1" class="st2" width="959" height="350"/>
</g>
<g>
	<g>
		<g>
			<g>
				<g>
					<g>
						<defs>
							<rect id="SVGID_1_" width="1920" height="700"/>
						</defs>
						<clipPath id="SVGID_2_">
							<use xlink:href="#SVGID_1_"  style="overflow:visible;"/>
						</clipPath>
						<g class="st3">
							<g>
								<g>
									<path class="st4" d="M218.7,43.6c0,0-4.7-1.8-8,2.9S196.1,57.4,198.1,57C200.1,56.4,216.8,56,218.7,43.6z"/>
									<g>
										<g>
											<path class="st4" d="M1194.4,498.6c0,0-20.5-13.7-25.7-17.1c-5.1-3.4-12-12-17.1-10.3s-4.3-2.6-7.7-4.3
												s-17.1-8.6-32.5-1.7c-15.4,6.8-17.1,6.8-17.1,6.8v10.3c0,0,12-5.1,13.7-6.8s6.8-6.8,12,0l3.4,1.7l12,5.1l15.4,3.4
												c0,0,3.4,0,5.1,3.4s1.7,5.1,5.1,6.8s8.6,3.4,8.6,3.4v8.6c0,0,8.6,0,13.7,0s10.3,1.7,15.4-1.7
												C1203.9,502.9,1202.1,501.2,1194.4,498.6z"/>
											<circle class="st4" cx="1111.4" cy="484" r="2.6"/>
											<path class="st4" d="M1226.1,508c0,0,6.8,0,10.3,0s5.1,0,10.3,3.4s8.6,5.1,12,8.6s6.8,3.4,6.8,6.8s-1.7,5.1-3.4,3.4
												c-1.7-1.7-23-2.3-29.1,6.8c0,0-5.1-6.8-18.8-5.1c0,0-8.6,1.7-10.3-1.7c-1.7-3.4-1.7-3.4,1.7-5.1s5.1,1.7,5.1,1.7l6.8-6.8
												c0,0,1.7-1.7,0-3.4s-5.1-6.8-1.7-8.6c3.4-1.7,5.1,0,5.1,0L1226.1,508L1226.1,508z"/>
											<path class="st4" d="M1214.4,490.6c0,0-2.8-1.4-2.8,0s0,2.8,1.4,2.8S1214.4,490.6,1214.4,490.6z"/>
											<ellipse class="st4" cx="1171.3" cy="421.5" rx="0.9" ry="1.7"/>
											<ellipse class="st4" cx="1158.5" cy="417.3" rx="1.7" ry="0.9"/>
											<path class="st4" d="M1163.6,438.7c0,0-3.4,1.7-3.4,6.8c0,5.1,1.7,6.8,3.4,8.6c1.7,1.7,3.4,6.8,3.4,1.7
												C1167,450.6,1165.3,436.9,1163.6,438.7z"/>
											<path class="st4" d="M1138.3,653.8c-7.7,6.2-14.5,4.3-21-2.9c-2.7-3-5.8-5.4-8.3-8.7c-5.6-7.4-8.3-16.1-6.4-26.7
												c1.9-10.7,3.5-21.5,4.8-32.3c0.4-3.1-0.3-6.4-0.5-9c-9.8-11.7-20.4-14.7-33-11.5c-7.3,1.9-15,0.3-22.8,0.3
												c2.5-16.5,12.3-54.4,16.7-66.7c0.9-2.6,0.1-6,0.1-9.2c-8.2-2.4-15.6-1.4-23.3,0c-9.9,1.9-16.5,6.4-16.7,20.4
												c0,1.8-1,3.7-1.7,5.4c-2.5,6.1-6.2,10.3-11.6,11.6c-7,1.6-14.1,3.2-21.1,4.5c-2.5,0.5-5.5,1.5-7.4,0.2
												c-7.9-5.2-18.1-6.8-20.8-20.8c-0.6-2.9-3.2-5-4.7-7.6c-3.2-5.6-9.4-25.5-9-30.5c0.8-10.4,1.2-21,3.5-30.9
												c1.8-7.7,3.2-14.8,1.8-22.8c-1.7-9.4,1.5-16.5,7.9-21.4c7-5.4,13.9-11.1,21.2-15.9c3.5-2.3,7.9-4,11.7-3.4
												c8.4,1.3,17.5-0.9,25.2,6.2c1.8,1.6,4.9,1.1,7.4,1.2c7.9,0.4,11.2-7.4,14.8-14.7c14.9,0.6,30.1-7.8,42.1,7.8
												c4.7-2.1,8.4-3.7,13.1-5.8c3.7,5.6,7.3,11,11.6,17.3c-3.2,22.4,10.4,35.1,20.8,51c1.9-1.3,4.5-1.8,5.2-3.6
												c3.5-8.2,5.4-16.9,2.4-26.2c-3.7-11.4-7-23-11-34.2c-5.3-15-0.7-27.6,8.1-36.1c4.9-4.7,9.5-9.7,14.5-14.1
												c4.9-4.3,10.2-8.2,15.4-11.9c2.6-1.9,5.6-2.9,8.4-4.5c1.7-1.1,4.8-2.7,4.8-4c-0.2-7.4,7.6-6.6,7.8-12.7
												c-0.5-9.7-7.3-17.4-4.9-28.1c1.4,2.3,2.6,4,4.5,7.1c2.6-5.9,5.6-10.5,6.6-15.7c1.1-6,5.3-7.6,7.6-11.8
												c2.5-4.7,4.6-9.8,6.3-13.6c6.7-2.9,13.4-3.8,18-8.3c5.7-5.4,12.6-3.5,18.5-7.3c-0.8-2.7-1.4-4.4-2-6.2
												c-3.5-11.2-1.2-19.3,7.5-23.1c13-5.9,26.3-10.3,38.5-19c3.5-2.5,8.3-2.2,12.5-3.3c-2.8,4.9-6.3,7.4-9.5,10.4
												c-3.1,2.9-3.1,7.2,0,11.7c1,1.4,2.5,2.1,3.9,3.2c1.5-0.7,3.3-0.8,4.3-1.9c8.6-10.4,20-12.1,30.6-16.8
												c8.2-3.6,16.2-8.1,24.2-12.4c0.7-0.4,1.1-1.9,1.6-2.9c-2.1-4.1-4.3-8.3-6.7-12.9c-4.6,2.3-7.2,7.2-9.9,11.9
												c-2.7,4.7-5.7,4.6-9.3,2.1c-0.2-2.6-0.5-5.1-0.6-6.5c-6.7-1.7-13-3.5-19.6-5.2c-0.5,1.1-1.4,2.9-2.4,5.1
												c-4.3-9.3-3.4-9.5-4.3-14.5c-1.4-8.4,4.8-11.5,7.4-17.6c-2.2-2.2-3.5-4.6-5.3-5.2c-16.3-5.7-30.8,4.3-46.9,10.2
												c2.1-7.4,6.4-8.5,9.8-10.1c4.3-2,8.6-2.7,11.7-8.2c4.1-7.2,11.2-5.6,17.1-6.4c5.1-0.7,9.6,0.7,13.9,5.9
												c6.4,7.7,14.6,10.7,24.4,9.7c-3.8-9-12.1-7-16.8-13.2c6-3.4,11-1.6,16.1-1.1c11.5,1.1,22.4-0.7,32.3-9.4
												c4.1-3.6,9.2-5.4,14.1-7.4c2.5-1.1,5.1-0.8,5.9,3.2c-7.2,16.3-17.9,29.4-24.3,45.5c1.2,1.6,1.5,2.5,1.9,2.5
												c8.2,0.5,16.4,0.8,24.5,1.1c7.8,0.3,7.8,0.3,14.2,8.5c4-2.2,8.1-4.4,11.9-6.5c2.8,3,4.8,5.9,7.3,7.9c4.4,3.5,7,2.3,9.6-4
												c0.7-1.7,1-3.6,1.7-6.2c-2.2-3.1-4.5-6.4-6.8-9.6c3.2-6.3-5.7-5.8-4.1-12.4c1-3.9-3.3-5.7-6.6-5.9
												c-0.5,0-18-6.9-18.4-7.2c-0.8-0.7-1.7-1.4-3.1-2.6c1.9-3,3.7-6,5.7-8.8c3.5-4.8-2.5-8.6-1.2-11.2c3.6-7.8,0.8-15,1-22.2
												c-2.6-1.6-4.3-3.2-6.2-3.9c-4.8-1.8-10.1-2.3-11.5-10.7c-0.3-1.7-3-3.5-4.9-4.2c-5.7-2.2-11.7-3.6-17.4-6.1
												c-8.6-3.6-16.4-8.4-19.2-21.2c-1.5-6.7-4.3-13-9.6-17c-2.1-1.6-3.7-4.2-5.4-6.6h-42.4c-3.8,1.7-7.9,1.7-12.3,0h-113.3
												c4.2,2.4,8,4.3,11.4,6.8c10.3,7.6,10.8,23.4,1.1,32.1c-5.9,5.3-12.1,9.7-19.7,10c-1.8,0-3.5,1.3-5.3,2.1
												c3.7,12.4,7.1,23.6,10.2,34.3c-3.5,8.7-9.4,10.6-15.6,13.9c-6.6-7.4-13-14.6-19.5-21.8c1.9,0.5,3.8,1.2,5.7,1.2
												c1.6,0,3.9,2,4.9-2.3c-2-4.5-5-4.3-8.1-3.9c-1,0.1-2.1,0.3-3,0.3c-0.6-3.2-1.2-6.5-1.8-9.8c-1-5.4-2-11.1-3.1-17
												c-5.6-0.6-11.2-1.7-16.8-1.6c-13.7,0.2-25.7-8-38.5-12c-15.1-13-31.9-16.1-49.8-13.2c-1.7-3.6-3.2-6.9-4.9-10.2
												c-1.6-3.1-3.2-6.1-4.6-8.9H526.9c6.8,4.5,13,10.3,17.8,19.1c2.5,4.5,6.9,7.2,10.5,10.7c0.9-0.9,1.7-1.6,2.7-2.6
												c2.6,2.6,5.4,5.1,7.7,8.2c1.2,1.7,1.4,4.6,2.5,6.6c4.9,9.5,8.1,10.8,18,7.8c8-2.4,11.8,0.7,13.7,11.9
												c0.9,5.7,3.5,8.8,7.3,11.6c8.5,6.1,16.5,13.1,21.8,24c0.5,1,0.5,2.4,0.8,3.6c-0.5,3-5.1,2.9-3.3,8.7
												c8.4,7.7,17.8,15.3,28.1,21.2c2.7,1.6,6.7,3.2,7.4,6c2.9,11,9.5,20.6,8.6,33c-0.9,11.6-1.4,23.4-3.4,34.8
												c-1.1,6.6-2.3,12.8,0,18.9c2.9,7.8,2.1,15.1-0.4,22.7c1.8,3.5,4.6,6.5,4.9,10c0.9,9.3,6,14.8,10,21.4
												c8.6,14.3,15.3,30.4,24.6,44.1c1,1.4,1.5,3.3,1.7,3.8c8,3.9,15.2,7.4,22.3,10.9c6.5,3.2,10.3,9,13.8,16.9
												c7.9,17.8,12.6,38.8,28.1,49.8c2.7,1.9,4.8,5.9,3,10c-1.1,2.4-3.8,3.7-6,5.9c5.2,14.5,20.2,11.7,27.6,25.2
												c0.2,4.1,0.5,9.8,0.9,15.9c8.3,7.3,18.2,11.9,23.1,23.1c4.9-0.7,7-3.2,5-7.9c-1.4-3.4-3.3-7.7-5.7-8.8
												c-4.8-2.2-4.9-7.4-6.8-11.7c-3.9-9-7.8-18.3-12.9-26.4c-4.8-7.6-9.6-15-12.8-23.9c-1.5-4.1-2.7-7.8-6.6-9.7
												c-9.8-4.8-10.4-15.9-11.2-27.1c12,1.2,15,2.2,16.9,7.5c3.4,9.3,6.2,19,9,27.8c12.1,9,20.3,23.5,31.1,32.6
												c0.5,4.7,0.9,8.4,1.1,10.6c18,17.7,36.2,32.7,42.9,60.3c-1.1,5.4-2.1,10.4-3.1,15.4c1.7,3.1,3,6,4.7,8.3
												c1.7,2.2,3.9,4.2,6.2,5.7c9.4,6.1,17.2,16.5,28.6,17.6c0.9,0.1,1.8,1.2,2.6,1.9c14.7,12.6,32.1,17,48.2,25.2
												c5,2.6,10.2,3,14.9-0.2c11.6-8.1,20.6-2.7,29.1,7.5c3,3.6,5.9,7.4,9,10.6c2.8,2.8,5.8,6,9,7.2
												c12.7,4.6,25.6,8.6,37.2,12.4c4.5,5.1,8.4,9.2,12.1,13.8c9.4,11.8,9.4,11.9,11.6,28.9c2.5,0.9,5.4,1.7,8.2,3.1
												c4.6,2.4,10.8,3.6,12.5,10.2c1.8,7.1,5.5,8.8,10.2,9.5c6.3,0.9,11.9,3.2,16.5,9c1.7,2.2,4.1,3.6,5.9,5.2
												c6.4-4.3,6.4-4.3,5.2-13.4c2.2-2.5,4.2-5.4,6.7-7.6c1.9-1.7,3.8-2.3,5.6-2l3.5-8.9
												C1149.9,647.7,1144.3,648.9,1138.3,653.8z"/>
											<path class="st4" d="M311.5-16c-0.2,7.2-2.2,12.7-7.5,15.9c-4.1,2.5-8.1,5.6-12.1,8.4s-8.3,5.1-12.1,8.2
												c-4.6,3.9-10.2-0.2-14.7,3.4c-1.3,1-2.9,1.5-4.1,2.6c-5.9,5.5-12.6,8.1-19.9,9.5c-2.5,0.5-4.8,3.3-10.2,7.3
												c5.5-0.3,7.4-0.1,9.3-0.6c7.9-2.3,16.2-3.7,23.6-7.7c7.5-4.1,16.7,0,23-8.2c13.4-0.9,23.5-12.1,34.9-18.7
												c6.8-4,13.1-9.8,20.5-12.9c4.1-1.7,7.4-4.5,10.4-7.9H311C311.2-16.6,311.4-16.3,311.5-16z"/>
										</g>
										<path class="st4" d="M590.9,69.4c0,0-0.2-19.6-2.9-23.7s-10.6-0.9-10.6-0.9s-2.7,1.6-1.8,3.8S591,74.9,590.9,69.4z"/>
										<path class="st4" d="M344.4,0c0,0,3.8,17.9,8.2,11.2C357.1,4.5,375,0,375,0H344.4z"/>
										<path class="st4" d="M1145,18.7c0,0,0.9,5.8,8.4,0s-4.2-8.4-4.2-8.4S1142.8,11.6,1145,18.7z"/>
									</g>
								</g>
							</g>
						</g>
					</g>
				</g>
			</g>
		</g>
	</g>
	<g>
		<g>
			<g>
				<g>
					<g>
						<defs>
							<rect id="SVGID_3_" width="1920" height="700"/>
						</defs>
						<clipPath id="SVGID_4_">
							<use xlink:href="#SVGID_3_"  style="overflow:visible;"/>
						</clipPath>
						<g class="st5">
							<g>
								<path class="st4" d="M1169.6,526.8c0,0,5.1,0,6.8,3.4c1.7,3.4,3.4,5.1,3.4,5.1s-3.4,1.7-5.1,1.7s-8.6,0-10.3-1.7
									s-3.4-5.1-3.4-5.1s1.7-3.4,5.1-3.4S1169.6,526.8,1169.6,526.8z"/>
							</g>
						</g>
					</g>
				</g>
			</g>
		</g>
	</g>
	<g>
		<g>
			<g>
				<g>
					<g>
						<defs>
							<rect id="SVGID_5_" width="1920" height="700"/>
						</defs>
						<clipPath id="SVGID_6_">
							<use xlink:href="#SVGID_5_"  style="overflow:visible;"/>
						</clipPath>
						<path class="st6" d="M1280.9,528.5c0,0,1.7-3.4,6.8-1.7c3.6,1.2,5.1,1.7,5.1,1.7s3.4,0,0,3.4c-2.7,2.7-1.7,3.4-6.8,3.4
							c-3.4,0-5.1-3.4-5.1-3.4S1277.5,528.5,1280.9,528.5z"/>
					</g>
				</g>
			</g>
		</g>
	</g>
	<g>
		<g>
			<g>
				<g>
					<g>
						<defs>
							<rect id="SVGID_7_" width="1920" height="700"/>
						</defs>
						<clipPath id="SVGID_8_">
							<use xlink:href="#SVGID_7_"  style="overflow:visible;"/>
						</clipPath>
						<g class="st7">
							
								<linearGradient id="SVGID_9_" gradientUnits="userSpaceOnUse" x1="1927.175" y1="933.4899" x2="1944.375" y2="933.4899" gradientTransform="matrix(1 0 0 -1 0 1239.9999)">
								<stop  offset="1.348126e-07" style="stop-color:#CAD2DB"/>
								<stop  offset="1" style="stop-color:#E1E7EF"/>
							</linearGradient>
							<path class="st8" d="M1938.2,298.1c-4,1-8.6,1.5-11.1,7.3c1,7.5,5.1,9.8,10.2,10c2.3,0.1,4.7-0.2,7-0.4v-17.4
								C1942.3,297.6,1940.2,297.6,1938.2,298.1z"/>
							
								<linearGradient id="SVGID_10_" gradientUnits="userSpaceOnUse" x1="1807.5002" y1="782.5897" x2="1944.6003" y2="782.5897" gradientTransform="matrix(1 0 0 -1 0 1239.9999)">
								<stop  offset="1.348126e-07" style="stop-color:#CAD2DB"/>
								<stop  offset="1" style="stop-color:#E1E7EF"/>
							</linearGradient>
							<path class="st9" d="M1937.4,315.4c-5.2-0.2-9.2-2.6-10.2-10c2.5-5.8,7-6.2,11.1-7.3c2-0.5,4.1-0.5,6.1-0.5v-85.8
								c-11.3-0.3-22.6-0.6-33.8-2.5c-9-1.5-15.5,1.6-21.5,6.6c1.3,10.2,3.9,19.1,3.4,27.8s-4.1,17.1-6.5,26.3
								c1.8,3,4.4,5.9,5.5,9.6c1.1,3.6,0.7,8,0.9,12.4c4.8,0,9.1,0.5,13.3-0.1c4.9-0.8,8.3,0.7,10.8,6.2c1.4,3.1,3.3,5.8,4.8,8.4
								c-3.9,15.6-10,27.5-23.1,32.2c-8,2.9-10.4,13.5-14.6,21.5c-3.3,6.3-1.3,12.8-0.2,18.9c-7.2,14.2-14.5,21.9-26.3,26.4
								c-4.9,1.9-7.7,5.5-10.6,10.9c-5.7,10.7-14.9,18.5-16.5,32.7c-0.2,1.5-1.8,2.8-2.8,4c-8.1,9.1-10.4,22.8-16.3,33.7
								c-0.9,1.7-0.5,4.6-0.7,7.1c2.6,3.7,5.1,7.3,7.7,11c-1.7,6-2,11.5,0.3,17.5c1.6,4.1,2,9.5,1.5,14.1
								c-0.7,6.5-3.6,12.7-4.1,19.2c-0.6,7.7-4.8,12.6-8.1,18.9c8.1,8.3,4.3,19.6,5.8,29.3c8.6,10,16.7,20,25.4,29.3
								c4.9,5.3,8.7,10.7,9.5,19.3c0.4,4.5,3.1,8.7,3.9,10.8c10.9,9.5,20.8,16.9,29.5,26.1c7.1,7.5,14.5,13.7,23.4,16.5
								c1.5-0.7,2.9-1.2,4.2-2c11.5-6.7,23.3-9.7,35.4-7.9V315C1942,315.2,1939.7,315.5,1937.4,315.4z"/>
							
								<linearGradient id="SVGID_11_" gradientUnits="userSpaceOnUse" x1="1932.5" y1="1088.9498" x2="1944.3652" y2="1088.9498" gradientTransform="matrix(1 0 0 -1 0 1239.9999)">
								<stop  offset="1.348126e-07" style="stop-color:#CAD2DB"/>
								<stop  offset="1" style="stop-color:#E1E7EF"/>
							</linearGradient>
							<path class="st10" d="M1932.5,147.7c2,3.4,3.2,6.3,5,8.5c0.9,1.1,2.7,0.9,4.1,1.1c0.9,0.2,1.8,0.4,2.7,0.6v-13.7
								C1940.6,144.7,1936.8,146.3,1932.5,147.7z"/>
							
								<linearGradient id="SVGID_12_" gradientUnits="userSpaceOnUse" x1="1944.3649" y1="1054.9498" x2="1967.4169" y2="1054.9498" gradientTransform="matrix(1 0 0 -1 0 1239.9999)">
								<stop  offset="1.348126e-07" style="stop-color:#CAD2DB"/>
								<stop  offset="1" style="stop-color:#E1E7EF"/>
							</linearGradient>
							<path class="st11" d="M1963.1,211.1c4.8-8.2,4.4-17.5,4.2-26.4c0-2.8-1.3-5.9-2.7-8.1c-5.4-8.7-11.5-16.2-20.2-18.7v53.9
								c4.4,0.1,8.9,0.2,13.3,0.4C1959.5,212.2,1961.3,211.5,1963.1,211.1z"/>
						</g>
					</g>
				</g>
			</g>
		</g>
	</g>
	<g>
		<g>
			<g>
				<g>
					<g>
						<defs>
							<rect id="SVGID_13_" width="1920" height="700"/>
						</defs>
						<clipPath id="SVGID_14_">
							<use xlink:href="#SVGID_13_"  style="overflow:visible;"/>
						</clipPath>
						<path class="st12" d="M1438.3,711.4c-10.5-10.6-22.5-16.1-35.8-14c-10.1,1.6-18.1-2.2-25-11c-2.1-2.7-3.9-5.7-6-8.5
							c-2.9-3.7-5.5-8-8.9-10.7c-3.8-3-9.2-3.5-12.4-7.2c-3.5-4-4.2-11.2-8-15.5c2.6-5.1,2.8-7.4,1.2-12.7c-5-0.3-3.8,6.8-6.9,9.2
							c-2.8,2.1-5,1.4-6.8-1.2c-1.2-1.8-1.5-4.6-2.4-7.4c-3.1,0.3-6.2,1.2-9.1,0.6c-2.6-0.6-4.9-3-7.4-4.8
							c-3.1,10.4-6.4,13.6-12.1,12.2c-1.5-0.4-3.2-0.8-4.4-1.8c-5.5-5-11.6-4.5-17.8-3.7c-2,0.2-4.1,0-7.8,0
							c-1.3-15.8-15.5-9.2-21-20.7c-2.1,6-2.7,11.5-7.8,12.2c-3.6,0.5-7.7,5.8-10.5-1.7c2.2-3.8,4.5-7.6,7.9-13.5
							c-4.5,0-7.9-1.3-9,0.2c-7.9,10.4-18.3,13.3-28.6,16.5c-6.7,2.1-11.1,6.1-11.7,15.5c-0.1,2.3-1.2,4.9-2.6,6.6
							c-3.9,4.8-8.1,9.2-11.7,13.2c-1.6-0.8-2.2-0.9-2.6-1.3c-1.2-1.1-2.6-2.2-3.6-3.6c-4-4.6-8.1-7.7-12.3-9l-3.5,8.9
							c2.4,0.4,4.5,2.6,5.8,6.1c1.7,4.6,2.4,10.3,4.9,14c5.9,8.6,7.5,18.1,7,28.9c-0.2,4.1-0.6,8.3-0.4,12.3h277.7
							C1443.9,716.7,1441,714.1,1438.3,711.4z"/>
					</g>
				</g>
			</g>
		</g>
	</g>
	<g>
		<g>
			<g>
				<g>
					<g>
						<defs>
							<rect id="SVGID_15_" width="1920" height="700"/>
						</defs>
						<clipPath id="SVGID_16_">
							<use xlink:href="#SVGID_15_"  style="overflow:visible;"/>
						</clipPath>
						<g id="Layer_3" class="st13">
							<circle class="st14" cx="1200.8" cy="212.6" r="6.3"/>
							<g>
								<path class="st15" d="M896.6,235.1h-13.4l-2.6,6.2h-6.9l12.9-28.9h6.6l12.9,28.9h-7L896.6,235.1z M894.5,230l-4.6-11.1
									l-4.6,11.1H894.5z"/>
								<path class="st15" d="M945.3,228.6v12.7h-6.4v-11.7c0-3.6-1.6-5.2-4.2-5.2c-2.9,0-4.9,1.9-4.9,5.8v11.1h-6.4v-11.7
									c0-3.6-1.5-5.2-4.2-5.2c-2.9,0-4.9,1.9-4.9,5.8v11.1h-6.4v-22.2h6.2v2.6c1.7-1.9,4.1-2.9,7-2.9c3.1,0,5.7,1.2,7.3,3.6
									c1.8-2.3,4.7-3.6,8-3.6C941.4,218.8,945.3,221.8,945.3,228.6z"/>
								<path class="st15" d="M971.6,232h-16.8c0.6,2.8,3,4.5,6.4,4.5c2.4,0,4-0.7,5.6-2.2l3.4,3.7c-2.1,2.4-5.2,3.6-9.2,3.6
									c-7.7,0-12.7-4.8-12.7-11.4c0-6.6,5.1-11.4,11.8-11.4c6.5,0,11.6,4.4,11.6,11.5C971.8,230.8,971.7,231.5,971.6,232z
									 M954.7,228.3h10.9c-0.4-2.8-2.6-4.6-5.5-4.6C957.3,223.6,955.2,225.4,954.7,228.3z"/>
								<path class="st15" d="M988.8,218.8v5.9c-0.5,0-1-0.1-1.4-0.1c-3.6,0-5.9,1.9-5.9,6.2v10.5H975v-22.2h6.2v2.9
									C982.8,219.9,985.4,218.8,988.8,218.8z"/>
								<path class="st15" d="M991,212.4c0-2,1.6-3.6,4-3.6s4,1.5,4,3.5c0,2.2-1.6,3.7-4,3.7C992.6,216,991,214.4,991,212.4z
									 M991.8,219.1h6.4v22.2h-6.4V219.1z"/>
								<path class="st15" d="M1001.5,230.2c0-6.7,5.2-11.4,12.4-11.4c4.7,0,8.3,2,9.9,5.7l-5,2.7c-1.2-2.1-3-3.1-5-3.1
									c-3.3,0-5.8,2.3-5.8,6.2s2.6,6.2,5.8,6.2c2,0,3.8-0.9,5-3.1l5,2.7c-1.6,3.6-5.3,5.6-9.9,5.6
									C1006.7,241.6,1001.5,236.9,1001.5,230.2z"/>
								<path class="st15" d="M1046.2,228.6v12.7h-6v-2.8c-1.2,2-3.5,3.1-6.8,3.1c-5.2,0-8.3-2.9-8.3-6.7c0-3.9,2.8-6.6,9.5-6.6h5.1
									c0-2.8-1.7-4.4-5.1-4.4c-2.4,0-4.8,0.8-6.4,2.1l-2.3-4.5c2.4-1.7,6-2.7,9.6-2.7C1042.3,218.8,1046.2,221.9,1046.2,228.6z
									 M1039.8,234.3V232h-4.4c-3,0-4,1.1-4,2.6c0,1.6,1.4,2.7,3.6,2.7S1039,236.3,1039.8,234.3z"/>
							</g>
							<circle class="st14" cx="716.4" cy="307.3" r="6.3"/>
							<circle class="st16" cx="1200.2" cy="236.9" r="6.3"/>
							<polyline class="st17" points="1199.3,236 1208.2,266.3 1222.6,266.3 							"/>
							<polyline class="st18" points="1200.8,212.6 1206.3,189.3 1220.7,189.3 							"/>
							<g class="st0">
								<path class="st19" d="M710.3,325.7h1.6V339h8.2v1.3h-9.8V325.7z"/>
								<path class="st19" d="M731.9,336.5h-8.2l-1.8,3.9h-1.6l6.7-14.7h1.5l6.7,14.7h-1.6L731.9,336.5z M731.4,335.2l-3.5-7.9
									l-3.5,7.9H731.4z"/>
								<path class="st19" d="M747.9,331.7c0.3,0.7,0.6,1.4,1,2.1c0.4,0.6,0.9,1.2,1.5,1.7s1.2,0.9,1.9,1.2l-0.9,1.3
									c-0.5-0.2-1-0.5-1.5-0.9s-0.9-0.8-1.3-1.3s-0.8-1-1.1-1.5c-0.3-0.6-0.6-1.1-0.8-1.8c-0.2,0.7-0.5,1.3-0.8,1.9
									s-0.7,1.2-1.1,1.7c-0.4,0.5-0.8,1-1.3,1.4s-1,0.7-1.5,1l-1-1.3c0.6-0.3,1.2-0.7,1.8-1.3c0.6-0.6,1.1-1.2,1.5-1.9
									c0.4-0.7,0.8-1.4,1-2.2c0.3-0.8,0.4-1.6,0.4-2.3v-2.3h-4.2v-1.4h10v1.4h-4.2v2.3C747.5,330.2,747.7,330.9,747.9,331.7z
									 M754.2,341.9V324h1.6v17.9H754.2z"/>
								<path class="st19" d="M765.9,331.1c0.2,0.8,0.6,1.5,1,2.2s0.9,1.3,1.5,1.8s1.1,1,1.8,1.3l-1,1.3c-0.5-0.3-0.9-0.6-1.4-1
									c-0.4-0.4-0.8-0.8-1.2-1.3s-0.7-1-1-1.6s-0.5-1.2-0.8-1.8c-0.4,1.3-1,2.5-1.8,3.5s-1.7,1.8-2.7,2.4l-1-1.3
									c0.6-0.3,1.2-0.8,1.8-1.4s1.1-1.2,1.5-1.9c0.4-0.7,0.7-1.5,1-2.3c0.2-0.8,0.4-1.6,0.4-2.4v-3.2h1.6v3.2
									C765.6,329.5,765.7,330.3,765.9,331.1z M773.3,341.9h-1.6V324h1.6v7.3h3v1.4h-3V341.9z"/>
							</g>
							<g class="st0">
								<path class="st19" d="M1237.5,273c-0.3,0.3-0.6,0.4-1,0.6s-0.8,0.2-1.3,0.2c-1,0-1.8-0.3-2.4-0.8c-0.6-0.6-0.8-1.4-0.8-2.4
									v-6.7h-2v-1.3h2v-2.4h1.5v2.4h3.4v1.3h-3.4v6.6c0,0.7,0.2,1.2,0.5,1.5s0.8,0.5,1.4,0.5c0.3,0,0.6,0,0.9-0.1s0.5-0.2,0.7-0.4
									L1237.5,273z"/>
								<path class="st19" d="M1247.4,263.6c0.8,0.7,1.2,1.8,1.2,3.2v6.8h-1.4V272c-0.3,0.6-0.8,1-1.5,1.3s-1.4,0.5-2.3,0.5
									c-1.2,0-2.2-0.3-2.9-0.9c-0.7-0.6-1.1-1.4-1.1-2.3s0.3-1.7,1-2.3c0.7-0.6,1.8-0.9,3.2-0.9h3.5v-0.7c0-1-0.3-1.7-0.8-2.2
									s-1.3-0.7-2.3-0.7c-0.7,0-1.4,0.1-2,0.3c-0.6,0.2-1.2,0.5-1.7,1l-0.7-1.1c0.6-0.5,1.2-0.8,2-1.1s1.6-0.4,2.5-0.4
									C1245.5,262.6,1246.6,262.9,1247.4,263.6z M1245.7,272c0.6-0.4,1-0.9,1.3-1.7v-1.8h-3.5c-1.9,0-2.8,0.7-2.8,2
									c0,0.6,0.2,1.2,0.7,1.5c0.5,0.4,1.2,0.6,2.1,0.6C1244.4,272.6,1245.1,272.4,1245.7,272z"/>
								<path class="st19" d="M1252.6,259.9c-0.2-0.2-0.3-0.5-0.3-0.8s0.1-0.5,0.3-0.7s0.5-0.3,0.8-0.3s0.6,0.1,0.8,0.3
									s0.3,0.4,0.3,0.7c0,0.3-0.1,0.6-0.3,0.8s-0.5,0.3-0.8,0.3C1253,260.2,1252.8,260.1,1252.6,259.9z M1252.6,262.6h1.5v11h-1.5
									V262.6z"/>
								<path class="st19" d="M1267.2,263.8c0.8,0.8,1.2,2,1.2,3.5v6.4h-1.5v-6.3c0-1.1-0.3-2-0.9-2.6s-1.4-0.9-2.5-0.9
									c-1.2,0-2.1,0.4-2.8,1.1c-0.7,0.7-1,1.7-1,2.9v5.8h-1.5v-15.6h1.5v6.5c0.4-0.6,1-1.1,1.7-1.5c0.7-0.3,1.5-0.5,2.5-0.5
									C1265.2,262.6,1266.3,263,1267.2,263.8z"/>
								<path class="st19" d="M1279.6,263.6c0.8,0.7,1.2,1.8,1.2,3.2v6.8h-1.4V272c-0.3,0.6-0.8,1-1.5,1.3s-1.4,0.5-2.3,0.5
									c-1.2,0-2.2-0.3-2.9-0.9s-1.1-1.4-1.1-2.3s0.3-1.7,1-2.3c0.7-0.6,1.8-0.9,3.2-0.9h3.5v-0.7c0-1-0.3-1.7-0.8-2.2
									s-1.3-0.7-2.3-0.7c-0.7,0-1.4,0.1-2,0.3c-0.6,0.2-1.2,0.5-1.7,1l-0.7-1.1c0.6-0.5,1.2-0.8,2-1.1s1.6-0.4,2.5-0.4
									C1277.8,262.6,1278.9,262.9,1279.6,263.6z M1277.9,272c0.6-0.4,1-0.9,1.3-1.7v-1.8h-3.5c-1.9,0-2.8,0.7-2.8,2
									c0,0.6,0.2,1.2,0.7,1.5c0.5,0.4,1.2,0.6,2.1,0.6S1277.3,272.4,1277.9,272z"/>
								<path class="st19" d="M1293.8,263.8c0.8,0.8,1.2,2,1.2,3.5v6.4h-1.5v-6.3c0-1.1-0.3-2-0.9-2.6s-1.4-0.9-2.5-0.9
									c-1.2,0-2.1,0.4-2.8,1.1s-1,1.7-1,2.9v5.8h-1.5v-11h1.4v2c0.4-0.7,1-1.2,1.7-1.6s1.6-0.6,2.5-0.6
									C1291.8,262.6,1293,263,1293.8,263.8z"/>
								<path class="st19" d="M1306.3,272.2c-1.1-1.1-1.6-2.7-1.6-4.8V259h1.6v8.4c0,1.7,0.4,3,1.2,3.8c0.8,0.8,1.9,1.3,3.3,1.3
									c1.5,0,2.6-0.4,3.4-1.3c0.8-0.8,1.2-2.1,1.2-3.8V259h1.5v8.4c0,2.1-0.5,3.7-1.6,4.8c-1.1,1.1-2.5,1.6-4.4,1.6
									C1308.9,273.8,1307.4,273.3,1306.3,272.2z"/>
								<path class="st19" d="M1322.4,273.3c-1-0.3-1.8-0.8-2.3-1.4l0.6-1.2c0.5,0.5,1.2,1,2.1,1.3s1.8,0.5,2.7,0.5
									c1.3,0,2.3-0.2,3-0.7s1-1.1,1-1.9c0-0.6-0.2-1.1-0.5-1.4c-0.4-0.3-0.8-0.6-1.3-0.8c-0.5-0.2-1.2-0.4-2.2-0.6
									c-1.1-0.3-2-0.5-2.6-0.8s-1.2-0.7-1.7-1.2s-0.7-1.3-0.7-2.2c0-0.7,0.2-1.4,0.6-2s1-1.1,1.8-1.5s1.8-0.5,3-0.5
									c0.8,0,1.7,0.1,2.5,0.3s1.5,0.5,2.1,1l-0.5,1.2c-0.6-0.4-1.3-0.7-2-0.9s-1.4-0.3-2.1-0.3c-1.3,0-2.3,0.2-2.9,0.7
									c-0.7,0.5-1,1.1-1,1.9c0,0.6,0.2,1.1,0.5,1.4c0.4,0.4,0.8,0.6,1.3,0.8c0.5,0.2,1.3,0.4,2.2,0.6c1.1,0.3,1.9,0.5,2.6,0.8
									s1.2,0.7,1.7,1.2s0.7,1.2,0.7,2.1c0,0.7-0.2,1.4-0.6,2s-1,1.1-1.8,1.4c-0.8,0.4-1.8,0.5-3,0.5
									C1324.5,273.8,1323.4,273.6,1322.4,273.3z"/>
								<path class="st19" d="M1343.6,269.8h-8.2l-1.8,3.9h-1.6l6.7-14.7h1.5l6.7,14.7h-1.6L1343.6,269.8z M1343.1,268.5l-3.5-7.9
									l-3.5,7.9H1343.1z"/>
							</g>
							<g>
								<path d="M1232.5,261.3h-4.8v-1.7h11.6v1.7h-4.8v12.3h-2L1232.5,261.3L1232.5,261.3z"/>
								<path d="M1247.8,264c0.8,0.7,1.2,1.8,1.2,3.2v6.4h-1.8v-1.4c-0.3,0.5-0.8,0.9-1.4,1.1c-0.6,0.3-1.3,0.4-2.1,0.4
									c-1.2,0-2.1-0.3-2.8-0.9c-0.7-0.6-1.1-1.3-1.1-2.3c0-0.9,0.3-1.7,1-2.3c0.7-0.6,1.8-0.9,3.2-0.9h3v-0.4
									c0-0.8-0.2-1.5-0.7-1.9s-1.2-0.7-2.1-0.7c-0.6,0-1.2,0.1-1.8,0.3c-0.6,0.2-1.1,0.5-1.5,0.8l-0.8-1.4c0.5-0.4,1.2-0.8,2-1
									s1.6-0.4,2.4-0.4C1245.9,262.9,1247,263.3,1247.8,264z M1245.9,271.8c0.5-0.3,0.9-0.8,1.2-1.4v-1.5h-3
									c-1.6,0-2.4,0.5-2.4,1.6c0,0.5,0.2,1,0.6,1.3s1,0.5,1.7,0.5C1244.8,272.2,1245.4,272.1,1245.9,271.8z"/>
								<path d="M1252.6,260.6c-0.2-0.2-0.4-0.5-0.4-0.9s0.1-0.6,0.4-0.9c0.2-0.2,0.6-0.4,0.9-0.4c0.4,0,0.7,0.1,0.9,0.4
									c0.2,0.2,0.4,0.5,0.4,0.9s-0.1,0.7-0.4,0.9s-0.6,0.4-0.9,0.4C1253.1,261,1252.8,260.8,1252.6,260.6z M1252.6,263h1.9v10.6
									h-1.9V263z"/>
								<path d="M1267,264.1c0.8,0.8,1.2,1.9,1.2,3.4v6.1h-1.9v-5.9c0-1-0.2-1.8-0.7-2.3s-1.2-0.8-2.1-0.8c-1,0-1.9,0.3-2.5,0.9
									s-0.9,1.5-0.9,2.6v5.5h-1.9v-14.8h1.9v5.7c0.4-0.5,0.9-0.9,1.6-1.2c0.6-0.3,1.4-0.4,2.2-0.4
									C1265.1,262.9,1266.2,263.3,1267,264.1z"/>
								<path d="M1279,264c0.8,0.7,1.2,1.8,1.2,3.2v6.4h-1.8v-1.4c-0.3,0.5-0.8,0.9-1.4,1.1c-0.6,0.3-1.3,0.4-2.1,0.4
									c-1.2,0-2.1-0.3-2.8-0.9c-0.7-0.6-1.1-1.3-1.1-2.3c0-0.9,0.3-1.7,1-2.3c0.7-0.6,1.8-0.9,3.2-0.9h3v-0.4
									c0-0.8-0.2-1.5-0.7-1.9s-1.2-0.7-2.1-0.7c-0.6,0-1.2,0.1-1.8,0.3c-0.6,0.2-1.1,0.5-1.5,0.8l-0.8-1.4c0.5-0.4,1.2-0.8,2-1
									s1.6-0.4,2.4-0.4C1277.1,262.9,1278.2,263.3,1279,264z M1277.1,271.8c0.5-0.3,0.9-0.8,1.2-1.4v-1.5h-3
									c-1.6,0-2.4,0.5-2.4,1.6c0,0.5,0.2,1,0.6,1.3s1,0.5,1.7,0.5C1275.9,272.2,1276.5,272.1,1277.1,271.8z"/>
								<path d="M1292.6,264.1c0.8,0.8,1.2,1.9,1.2,3.4v6.1h-1.9v-5.9c0-1-0.2-1.8-0.7-2.3s-1.2-0.8-2.1-0.8c-1,0-1.9,0.3-2.5,0.9
									s-0.9,1.5-0.9,2.6v5.5h-1.9V263h1.8v1.6c0.4-0.5,0.9-1,1.6-1.3s1.4-0.4,2.3-0.4C1290.7,262.9,1291.8,263.3,1292.6,264.1z"/>
								<path d="M1304.4,272.2c-1-1.1-1.6-2.6-1.6-4.6v-8h2v7.9c0,3,1.3,4.5,3.9,4.5c1.3,0,2.3-0.4,2.9-1.1c0.7-0.7,1-1.9,1-3.4
									v-7.9h1.9v8c0,2-0.5,3.5-1.6,4.6s-2.5,1.6-4.4,1.6C1306.9,273.8,1305.5,273.2,1304.4,272.2z"/>
								<path d="M1319.8,273.3c-1-0.3-1.8-0.8-2.3-1.3l0.7-1.6c0.5,0.5,1.2,0.9,2.1,1.2c0.8,0.3,1.7,0.5,2.6,0.5
									c1.2,0,2-0.2,2.6-0.6s0.9-0.9,0.9-1.6c0-0.5-0.2-0.9-0.5-1.2c-0.3-0.3-0.7-0.5-1.2-0.7s-1.1-0.3-2-0.5
									c-1.1-0.3-1.9-0.5-2.5-0.8s-1.2-0.6-1.7-1.2s-0.7-1.2-0.7-2.1c0-0.7,0.2-1.4,0.6-2s1-1.1,1.8-1.4c0.8-0.4,1.8-0.5,3-0.5
									c0.8,0,1.6,0.1,2.4,0.3s1.5,0.5,2.1,0.9l-0.7,1.6c-0.6-0.4-1.2-0.7-1.9-0.9c-0.7-0.2-1.3-0.3-2-0.3c-1.1,0-2,0.2-2.5,0.6
									s-0.8,0.9-0.8,1.6c0,0.5,0.2,0.9,0.5,1.2c0.3,0.3,0.7,0.5,1.2,0.7s1.1,0.3,1.9,0.5c1.1,0.3,1.9,0.5,2.5,0.8s1.2,0.6,1.7,1.2
									s0.7,1.2,0.7,2.1c0,0.7-0.2,1.4-0.6,2s-1,1.1-1.8,1.4c-0.8,0.4-1.8,0.5-3,0.5C1321.8,273.8,1320.8,273.6,1319.8,273.3z"/>
								<path d="M1340.2,270.1h-7.4l-1.5,3.5h-2.1l6.3-14h2l6.4,14h-2.1L1340.2,270.1z M1339.5,268.5l-3-6.9l-3,6.9H1339.5z"/>
							</g>
							<g>
								<path class="st20" d="M1244.7,200.2h-1.6v-6.6h-4.6v6.6h-1.6v-6.6h-4.2v-1.4h16.2v1.4h-4.2L1244.7,200.2L1244.7,200.2z
									 M1234.7,183.2h1.6v5.1h10.6v1.3h-12.2V183.2z"/>
								<path class="st20" d="M1257.6,189.8c0.2,0.8,0.6,1.5,1,2.2s0.9,1.3,1.5,1.8s1.2,1,1.8,1.3l-1,1.3c-0.5-0.3-1-0.6-1.4-1
									c-0.5-0.4-0.9-0.8-1.3-1.3s-0.7-1-1.1-1.6c-0.3-0.6-0.6-1.2-0.8-1.8c-0.2,0.7-0.5,1.3-0.8,1.9c-0.3,0.6-0.7,1.2-1.1,1.7
									s-0.8,1-1.3,1.4s-1,0.8-1.5,1l-1-1.3c0.6-0.3,1.2-0.8,1.8-1.3c0.6-0.6,1.1-1.2,1.5-1.9s0.8-1.4,1-2.2s0.4-1.6,0.4-2.4v-2.1
									h-4.1v-1.3h9.8v1.3h-4.1v2.1C1257.2,188.3,1257.4,189,1257.6,189.8z M1264.2,200.3v-10.1h-3.9v-1.3h3.9v-6.5h1.6v18
									L1264.2,200.3L1264.2,200.3z"/>
								<path class="st20" d="M1276.2,190c0.3,0.7,0.6,1.4,1,2.1c0.4,0.6,0.9,1.2,1.5,1.7s1.2,0.9,1.9,1.2l-0.9,1.3
									c-0.5-0.2-1-0.5-1.5-0.9s-0.9-0.8-1.3-1.3s-0.8-1-1.1-1.5c-0.3-0.6-0.6-1.1-0.8-1.8c-0.2,0.7-0.5,1.3-0.8,1.9
									c-0.3,0.6-0.7,1.2-1.1,1.7s-0.8,1-1.3,1.4s-1,0.7-1.5,1l-1-1.3c0.6-0.3,1.2-0.7,1.8-1.3c0.6-0.6,1.1-1.2,1.5-1.9
									s0.8-1.4,1-2.2c0.3-0.8,0.4-1.6,0.4-2.3v-2.3h-4.2v-1.4h10v1.4h-4.2v2.3C1275.8,188.5,1276,189.3,1276.2,190z M1282.5,200.2
									v-17.9h1.6v17.9H1282.5z"/>
								<path class="st20" d="M1299.1,190c0.3,0.7,0.6,1.4,1,2.1s0.9,1.2,1.5,1.7s1.2,0.9,1.9,1.2l-0.9,1.3c-0.5-0.2-1-0.5-1.5-0.9
									s-0.9-0.8-1.3-1.3s-0.8-1-1.1-1.5c-0.3-0.6-0.6-1.1-0.8-1.8c-0.2,0.7-0.5,1.3-0.8,1.9s-0.7,1.2-1.1,1.7s-0.8,1-1.3,1.4
									s-1,0.7-1.5,1l-1-1.3c0.6-0.3,1.2-0.7,1.8-1.3c0.6-0.6,1.1-1.2,1.5-1.9s0.8-1.4,1-2.2c0.3-0.8,0.4-1.6,0.4-2.3v-2.3h-4.2
									v-1.4h10v1.4h-4.2v2.3C1298.7,188.5,1298.8,189.3,1299.1,190z M1305.4,200.2v-17.9h1.6v17.9H1305.4z"/>
								<path class="st20" d="M1317.1,189.4c0.2,0.8,0.6,1.5,1,2.2s0.9,1.3,1.4,1.8c0.6,0.5,1.1,1,1.8,1.3l-1,1.3
									c-0.5-0.3-0.9-0.6-1.4-1c-0.4-0.4-0.8-0.8-1.2-1.3c-0.4-0.5-0.7-1-1-1.6s-0.5-1.2-0.8-1.8c-0.4,1.3-1,2.5-1.8,3.5
									s-1.7,1.8-2.7,2.4l-1-1.3c0.6-0.3,1.2-0.8,1.8-1.4s1.1-1.2,1.5-1.9s0.7-1.5,1-2.3c0.2-0.8,0.4-1.6,0.4-2.4v-3.2h1.6v3.2
									C1316.7,187.9,1316.9,188.7,1317.1,189.4z M1324.5,200.2h-1.6v-17.9h1.6v7.3h3v1.4h-3V200.2z"/>
							</g>
						</g>
					</g>
				</g>
			</g>
		</g>
	</g>
</g>
<linearGradient id="SVGID_17_" gradientUnits="userSpaceOnUse" x1="960" y1="1139.9999" x2="960" y2="1239.9999" gradientTransform="matrix(1 0 0 -1 0 1239.9999)">
	<stop  offset="0" style="stop-color:#E1E7EF;stop-opacity:0"/>
	<stop  offset="1" style="stop-color:#E1E7EF;stop-opacity:0.3"/>
</linearGradient>
<rect class="st21" width="1920" height="100"/>
<circle class="st16" cx="1591.9" cy="79.5" r="6"/>
<circle class="st14" cx="1591.9" cy="109.4" r="6"/>
<g>
	<path d="M1615,79.4c-2.4,0-4.2-1.6-4.2-3.9s1.8-3.8,4.2-3.8c1.4,0,2.5,0.5,3.3,1.4h4.1v-2.3h1.5v9.6h-1.5V78h-4.1
		C1617.6,78.9,1616.4,79.4,1615,79.4z M1615,78.2c1.6,0,2.7-1.1,2.7-2.6s-1.2-2.6-2.7-2.6c-1.6,0-2.8,1.1-2.8,2.6
		C1612.3,77.1,1613.5,78.2,1615,78.2z M1624,83.8c0,2-2.1,3.1-5.4,3.1s-5.4-1.1-5.4-3.1s2.1-3.1,5.4-3.1
		C1621.9,80.7,1624,81.9,1624,83.8z M1622.5,83.8c0-1.2-1.5-1.9-3.9-1.9c-2.5,0-3.9,0.7-3.9,1.9c0,1.2,1.4,1.9,3.9,1.9
		C1621.1,85.7,1622.5,85,1622.5,83.8z M1619.2,75.6c0,0.5-0.1,0.9-0.2,1.3h3.5v-2.5h-3.5C1619.1,74.7,1619.2,75.2,1619.2,75.6z"/>
	<path d="M1639,79.5v-3.6h-3.3c-0.3,1.9-1.9,3.2-4.1,3.2c-2.4,0-4.2-1.5-4.2-3.7s1.8-3.7,4.2-3.7c2.2,0,3.8,1.2,4.1,3.1h3.3V71h1.5
		v8.7h-1.5V79.5z M1634.4,75.3c0-1.5-1.2-2.5-2.8-2.5s-2.8,1-2.8,2.5s1.2,2.5,2.8,2.5S1634.4,76.7,1634.4,75.3z M1640.5,86.7h-10.3
		v-6.5h1.5v2h7.4v-2h1.5L1640.5,86.7L1640.5,86.7z M1631.6,85.5h7.4v-2.1h-7.4V85.5z"/>
	<path d="M1659.6,79.6V76h-3.7v3h-7.3v-7.4h1.5v2.5h4.4v-2.5h1.5v3.1h3.7v-4h1.5v8.8L1659.6,79.6L1659.6,79.6z M1650.1,77.8h4.4
		v-2.6h-4.4V77.8z M1661.1,86.7h-10.3v-6.3h1.5v1.9h7.4v-1.9h1.5L1661.1,86.7L1661.1,86.7z M1652.2,85.5h7.4v-2h-7.4V85.5z"/>
	<path d="M1668.9,79.9c-2.4,0-4.2-1.7-4.2-4s1.8-4,4.2-4c2.4,0,4.2,1.6,4.2,4C1673.1,78.2,1671.3,79.9,1668.9,79.9z M1668.9,78.6
		c1.6,0,2.8-1.1,2.8-2.7s-1.2-2.7-2.8-2.7c-1.6,0-2.8,1.1-2.8,2.7C1666.2,77.5,1667.3,78.6,1668.9,78.6z M1667.2,86.6v-5.2h1.5v4
		h9.4v1.2H1667.2z M1676.1,70.8h1.5v11.8h-1.5V70.8z"/>
	<path d="M1618.6,104.7h-8v-1.2h3.3v-2.3h1.5v2.3h3.3v1.2H1618.6z M1618.1,109.5c0,2.2-1.5,3.7-3.5,3.7s-3.5-1.5-3.5-3.7
		s1.5-3.7,3.5-3.7S1618.1,107.3,1618.1,109.5z M1616.8,109.5c0-1.4-0.9-2.4-2.1-2.4c-1.3,0-2.1,1-2.1,2.4s0.9,2.5,2.1,2.5
		S1616.8,110.9,1616.8,109.5z M1622.9,116.9v-8.1h-2.1v7.3h-1.4v-15h1.4v6.4h2.1v-6.8h1.4v16.2
		C1624.3,116.9,1622.9,116.9,1622.9,116.9z"/>
	<path d="M1637.8,111.7l0.1,1.1c-3.7,0.7-7.5,0.7-10.5,0.7l-0.2-1.2c1.3,0,2.8,0,4.4-0.1v-2.8c-2.1-0.3-3.6-1.7-3.6-3.8
		c0-2.3,1.8-3.8,4.3-3.8s4.3,1.5,4.3,3.8c0,2-1.5,3.5-3.6,3.8v2.7C1634.7,112,1636.3,111.9,1637.8,111.7z M1632.4,108.2
		c1.7,0,2.9-1,2.9-2.6c0-1.5-1.2-2.5-2.9-2.5c-1.7,0-2.9,1-2.9,2.5C1629.6,107.1,1630.8,108.2,1632.4,108.2z M1638.9,117v-16.2h1.5
		V117H1638.9z"/>
	<path d="M1657.9,112.3l-0.8,1.2c-1.9-0.9-3.5-2.7-4.2-4.9c-0.7,2.3-2.4,4.4-4.2,5.3l-0.9-1.2c2.3-1.1,4.3-4.1,4.3-6.9v-2.1h-3.7
		v-1.2h9v1.2h-3.8v2.1C1653.5,108.5,1655.5,111.2,1657.9,112.3z M1659.5,116.9v-16.1h1.5v16.1H1659.5z"/>
	<path d="M1673.9,112l-0.9,1.2c-1.7-0.9-3.2-2.8-3.9-5c-0.7,2.4-2.2,4.3-4,5.3l-0.9-1.2c2.3-1.2,4.2-4.3,4.2-7.2v-2.9h1.5v2.9
		C1669.8,107.9,1671.6,110.8,1673.9,112z M1676.8,116.9h-1.5v-16.1h1.5v6.5h2.7v1.2h-2.7V116.9z"/>
</g>
<g>
	<path d="M711.9,335.4h6.4v1.6H710v-14.7h1.9V335.4z"/>
	<path d="M720.8,337h-1.9l5-14.7h2.1l5,14.7h-2l-1.4-4.5h-5.4L720.8,337z M724.9,323.8L724.9,323.8c-0.5,1.8-1,3.3-1.5,5l-0.7,2.2
		h4.4l-0.7-2.2C725.9,327.1,725.4,325.5,724.9,323.8z"/>
	<path d="M747.7,333.3l-0.9,1.3c-2.1-1-3.8-3-4.7-5.5c-0.8,2.6-2.6,4.9-4.6,5.9l-1-1.3c2.6-1.2,4.8-4.6,4.8-7.7v-2.3h-4.2v-1.4h10
		v1.4h-4.2v2.3C742.9,329.1,745.1,332.2,747.7,333.3z M749.6,338.5v-17.9h1.6v17.9H749.6z"/>
	<path d="M765.5,333l-1,1.3c-1.9-1-3.5-3.1-4.3-5.6c-0.8,2.7-2.4,4.8-4.5,5.9l-1-1.3c2.6-1.3,4.6-4.8,4.6-8v-3.2h1.6v3.2
		C760.9,328.5,763,331.7,765.5,333z M768.7,338.5h-1.6v-17.9h1.6v7.3h3v1.4h-3V338.5z"/>
</g>
</svg>
