<?xml version="1.0" encoding="utf-8"?>
<!-- Generator: Adobe Illustrator 23.0.5, SVG Export Plug-In . SVG Version: 6.00 Build 0)  -->
<svg version="1.1" id="레이어_1" xmlns="http://www.w3.org/2000/svg" xmlns:xlink="http://www.w3.org/1999/xlink" x="0px"
	 y="0px" viewBox="0 0 1920 700" style="enable-background:new 0 0 1920 700;" xml:space="preserve">
<style type="text/css">
	.st0{display:none;}
	.st1{display:inline;}
	.st2{display:inline;fill:#E1E7EF;stroke:#FFFFFF;stroke-miterlimit:10;}
	.st3{clip-path:url(#SVGID_2_);fill:none;}
	.st4{clip-path:url(#SVGID_4_);fill:none;}
	.st5{clip-path:url(#SVGID_6_);fill:#CAD2DB;}
	.st6{clip-path:url(#SVGID_8_);}
	.st7{fill:#CAD2DB;}
	.st8{clip-path:url(#SVGID_10_);fill:#CAD2DB;}
	.st9{clip-path:url(#SVGID_12_);}
	.st10{fill:#FFFFFF;}
	.st11{clip-path:url(#SVGID_14_);}
	.st12{fill:#AAAAAA;}
	.st13{fill:#5D6FCC;}
	.st14{display:inline;fill:#111111;}
	.st15{clip-path:url(#SVGID_16_);fill:url(#SVGID_17_);}
	.st16{fill:#028F37;}
</style>
<g id="Layer_1" class="st0">
	<g id="R0mMUe_1_" class="st1">
	</g>
</g>
<g id="Layer_5" class="st0">
	<rect x="479.5" class="st2" width="959" height="349"/>
</g>
<g>
	<g>
		<g>
			<g>
				<g>
					<g>
						<defs>
							<rect id="SVGID_1_" width="1920" height="700"/>
						</defs>
						<clipPath id="SVGID_2_">
							<use xlink:href="#SVGID_1_"  style="overflow:visible;"/>
						</clipPath>
						<path class="st3" d="M95.7,244.9c-0.7-1.5-1.3-3-2-4.5c0.4-0.3,1-0.7,1.4-1.1c0.5-0.3,0.9-0.5,1.1-0.4c1,1.1,1.8,2.8,2.6,4.3
							C98,243.7,97,244.2,95.7,244.9z"/>
					</g>
				</g>
			</g>
		</g>
	</g>
	<g>
		<g>
			<g>
				<g>
					<g>
						<defs>
							<rect id="SVGID_3_" width="1920" height="700"/>
						</defs>
						<clipPath id="SVGID_4_">
							<use xlink:href="#SVGID_3_"  style="overflow:visible;"/>
						</clipPath>
						<path class="st4" d="M120.7,230.7c-0.3,0.8-1.8,0.9-2.7,1.4c-0.3-1-1-2.4-0.7-2.9c0.6-1,1.7-1.4,2.6-2.1
							C120.3,228.3,121.1,229.9,120.7,230.7z"/>
					</g>
				</g>
			</g>
		</g>
	</g>
	<g>
		<g>
			<g>
				<g>
					<g>
						<defs>
							<rect id="SVGID_5_" width="1920" height="700"/>
						</defs>
						<clipPath id="SVGID_6_">
							<use xlink:href="#SVGID_5_"  style="overflow:visible;"/>
						</clipPath>
						<path class="st5" d="M95.2,239.3c-0.4,0.4-1,0.8-1.4,1.1c0.6,1.5,1.3,3,2,4.5c1.4-0.8,2.3-1.2,3.1-1.7
							c-0.8-1.5-1.5-3.2-2.6-4.3C96.1,238.8,95.7,239,95.2,239.3z"/>
					</g>
				</g>
			</g>
		</g>
	</g>
	<g>
		<g>
			<g>
				<g>
					<g>
						<defs>
							<rect id="SVGID_7_" width="1920" height="700"/>
						</defs>
						<clipPath id="SVGID_8_">
							<use xlink:href="#SVGID_7_"  style="overflow:visible;"/>
						</clipPath>
						<g class="st6">
							<path class="st7" d="M38.9,162.4c-0.6,2.6-2.3,4.3-5,4.3c-0.3,0-0.5,0-0.8-0.1c-6.2,42-19,81.4-28.8,121.8
								c-0.7,2.7-1.3,5.4-1.9,8.1c-8.5,3.8-14.5,6.5-21.1,9.4c-2.2-1-4.7-2.2-7.2-3.2c-7.7-3-11.2-10.5-12-19.9
								c-0.4-5.5-0.7-10.8-2.9-15.7c-3.4-7.4-2.3-14.5,1.2-21.3c1.8-3.5,3.6-6.9,5.5-10.2c4.1-7.2,5.4-15,2.8-23.3
								c-4.3-13.7-4-26.7,4.2-40.6c2.3-1.1,6.3-2.8,10.3-4.9C-5.3,161,6.4,155.2,10,137.6c0.1-0.6,0.2-1.8,0.5-1.8
								C19.7,133,20,121,24.6,112c5.4,5.8,8.3,12.1,9.7,19.3c1.8,9.3,3.6,18.6,4.7,28.1C39.1,160.4,39.1,161.5,38.9,162.4z"/>
							<path class="st7" d="M893,49.2c0.4-0.3,0.9-0.6,1.3-0.6c0.8,0,1.7,1.1,2.5,1.7c-0.9,0.7-1.8,1.3-2.6,2l0,0
								c-0.8-0.7-1.6-1.3-2.4-1.9c0,0,0,0-0.1,0C892.1,50,892.5,49.6,893,49.2z"/>
							<path class="st7" d="M665.8,21.1c0,0,0.1,0,0.2,0c0,0,0,0.1,0,0.2C665.8,21.2,665.8,21.2,665.8,21.1L665.8,21.1z"/>
							<path class="st7" d="M771.7,60.8c-1.4,6.8-6.4,0.7-9.7,0.8c-15.2,0.9-38.3-3.1-52-8.1c-3.6-1.3-7.4-2-11.1-2.2
								c-16.4-1.1-18.6-1.8-34.5-12.1c-1.4-0.9-3.1-1-5.6-1.8c2.4-5.6,4.7-10.8,7-16.1c2.2,1.4,4.5,4.1,6.6,3.9
								c7.3-0.6,13.7,2.4,19.9,6.6c9.9,6.6,13,6.8,25.1,1.6c1-0.4,2-0.8,3-1c0.5-0.1,1,0.2,1.5,0.4c9,4.7,18.5,6.5,28.4,5.5
								c0,7.6-5,3.9-6.8,6.7c0.4,0.9,0.6,2.7,1.1,2.8c6.7,1.4,13.7,0.8,19.3,7.4C766.2,57.7,773.3,52.7,771.7,60.8z"/>
							<path class="st7" d="M829.7,84.1c-0.6,1.3-3,2.5-3.9,2c-4.6-2.6-9-5.8-15.4-10.1c8.9-5.9,13.9-2.2,18.3,3
								C829.6,80.1,830.2,83,829.7,84.1z"/>
							<path class="st7" d="M894.3,67.8c-7,3.5-13.9,6.8-19.4,14.1c-3.2,4.3-7.8,7.2-13.4,6.1c0.2-7.4,2.3-13.2,7.8-15.9
								c0.7-0.4,1.4-0.8,2.1-1.1c0.7-0.4,1.4-0.8,2-1.2l0,0c0.6-0.4,1.3-0.8,1.9-1.3l0,0c0.6-0.5,1.2-0.9,1.8-1.5l0,0
								c0.6-0.5,1.1-1.1,1.6-1.7l0,0c1.5-1.7,2.8-3.7,4-6c0,0-0.1,0-0.2,0c-0.4-0.1-0.8-0.2-1.1-0.3c-13.3,1.6-26.5,3.7-39.6,7.9
								c-5.5,1.8-12.2,1.4-17.5-0.8c-6.6-2.8-12.4-1.2-18.7,0.4c-8.8,2.2-17.8,5.3-26.7-0.1c0.3-8.5,0.3-8.6,5-8
								c1,0.1,2.2,1.4,3,1.2c9.5-3.2,18.9-4.5,28,1.8c0.4,0.3,1.2,0.4,1.6,0.1c9.4-6.2,19,0.2,28.3-1.2c9-1.4,17.9-3.7,26.9-3.5
								c3.2,0.1,6.5,1.3,9.6,2.3c0.6-0.1,1.2-0.2,1.7-0.2l0,0c0,0.2-0.1,0.4-0.2,0.6c5.8,0.4,11.6,0.9,17.4,1.4
								C901,66.5,896.8,66.6,894.3,67.8z"/>
							<path class="st7" d="M952.6,49.5c-1.5,1-3.1,1.9-4.7,2.8c-0.1-0.4-0.4-1-0.5-1.4c-0.3-0.8-0.6-1.6-0.4-2
								c1-1.8,2.4-3.5,3.9-4.7c0.3-0.2,1.7,1.9,2.5,2.7C953,48.4,952.9,49.3,952.6,49.5z"/>
							<path class="st7" d="M967.9,21.8c-0.2,0.2-0.5,0.2-0.8,0.2h-0.3l0,0c0.1-0.7,0.2-1.3,0.3-2c0.4,0.2,0.7,0.4,1,0.5
								C968,21,968,21.6,967.9,21.8z"/>
							<path class="st7" d="M987.7,33.1c-0.1,1.1-2.5,2.6-3.8,2.5c-1-0.1-2.7-2.7-2.5-3.9c0.6-5,0.1-11.2,6.6-12.6
								C987.9,24.2,988.2,28.8,987.7,33.1z"/>
							<path class="st7" d="M1292.9,87.6c0.9,0.6,2,0.8,2.7,1.6c0.4,0.5,0.5,1.4,0.7,2.2c0,0.3,0.1,0.6,0.2,0.8
								c-0.6,0-1,0.1-1.6,0.1c-0.9,0.1-1.8,0.2-2.6,0c-0.6-0.2-1.3-1.9-1.4-3C1290.8,88.9,1292.2,88.2,1292.9,87.6z"/>
							<path class="st7" d="M1282.3,62.3c1.6,1.3,2.7,3.6,3.8,5.8c0.6,1.4,0.7,3.3,1.2,6.3c-2.2-1.7-3.6-2.4-4.4-3.7
								C1281,67.9,1281.2,61.4,1282.3,62.3z"/>
							<path class="st7" d="M1280.6,79.5c-5.7,1.8-9.7,2.5-11.5-5C1273.8,70.6,1277,73.2,1280.6,79.5z"/>
							<path class="st7" d="M1259.2,51.2c1.3-3.3,2.5,0,3.5,0.6c2.3,1.4,4.4,3.4,6.6,5.2c-0.6,0.7-1.2,1.5-1.7,2.2
								c-2.3-1.6-4.6-3.1-6.7-4.9C1260,53.7,1258.9,51.8,1259.2,51.2z"/>
							<path class="st7" d="M1243,54.2c2.2,1.4,4.1,3.2,6.2,4.9l-1.5,3.6c-2.2-1.4-4.4-2.5-6.4-4.1c-0.6-0.5-1-2.4-0.8-3.4
								C1240.7,54.6,1242.4,53.9,1243,54.2z"/>
							<path class="st7" d="M1238.2,36.4c0.8,1.3,1.8,2.9,2.6,4.5c0.1,0.2-0.5,1.5-0.7,1.4c-1-0.2-2.2-0.4-2.8-1.2
								c-0.7-0.7-0.8-2.3-1-3.5C1236.3,37.5,1237.1,37.2,1238.2,36.4z"/>
							<path class="st7" d="M1215.8,18.4c3.5,4.5,6.9,8.6,10,13.2c0.6,0.9-0.3,3.5-0.5,5.2c-1.4-0.2-3.5,0.2-4.2-0.9
								c-2.7-4.2-4.9-8.8-7.1-13.3C1213.7,22.1,1214.8,20.5,1215.8,18.4z"/>
							<path class="st7" d="M1162.5,17.6c5.8,0,9.2-3.1,12.6-7.4c7.7-10,7.6-10.2,17.3-13.9c4.2,7.2,4.4,8.6-0.5,9.6
								c-3.3,0.6-5,2.4-5.9,5.2c-1.8,5.3-5,8.1-8.8,11c-14.5,11.8-19.2,10.7-34.9-1.8C1149.4,16.9,1156.2,17.6,1162.5,17.6z"/>
							<path class="st7" d="M994.5-13.5h-0.3c0.1,0,0.1,0.1,0.1,0.1C994.4-13.4,994.4-13.4,994.5-13.5z"/>
							<path class="st7" d="M882.9,59.1c0.1-0.2,0.2-0.4,0.2-0.6l0,0c-0.5,0.1-1.1,0.2-1.7,0.2c-3.2-1-6.4-2.2-9.6-2.3
								c-9-0.2-17.9,2.2-26.9,3.5c-9.3,1.4-18.9-5-28.3,1.2c-0.4,0.3-1.1,0.2-1.6-0.1c-9.1-6.3-18.5-5-28-1.8c-0.8,0.3-2-1-3-1.2
								c-4.7-0.6-4.8-0.4-5,8c8.9,5.4,17.9,2.3,26.7,0.1c6.3-1.6,12.1-3.2,18.7-0.4c5.3,2.3,12,2.6,17.5,0.8
								c13-4.2,26.3-6.3,39.6-7.9c0.4,0.1,0.8,0.2,1.1,0.3C882.8,59.1,882.8,59.1,882.9,59.1c-1.2,2.3-2.5,4.4-4,6l0,0
								c-0.5,0.6-1.1,1.2-1.6,1.7l0,0c-0.6,0.6-1.2,1-1.8,1.5l0,0c-0.6,0.5-1.2,0.9-1.9,1.3l0,0c-0.6,0.4-1.3,0.8-2,1.2
								c-0.7,0.4-1.4,0.8-2.1,1.1c-5.5,2.8-7.6,8.5-7.8,15.9c5.6,1.1,10.1-1.8,13.4-6.1c5.5-7.2,12.4-10.6,19.4-14.1
								c2.5-1.2,6.6-1.4,6-7.3C894.5,60,888.7,59.6,882.9,59.1z"/>
							<path class="st7" d="M892.4-8.5c2.6,3.4,5.8,3.2,9,2c0.1,0,0.2-0.1,0.3-0.2c0.6-0.5,1-1.8,1.6-2.7c-0.2-1.1-0.2-2.6-0.6-3.4
								c0-0.1-0.1-0.2-0.2-0.4c-0.1-0.1-0.1-0.2-0.2-0.2h-10.6c-0.3,0.5-0.5,1.1-0.7,1.6C890.8-11.1,891.7-9.4,892.4-8.5z"/>
							<path class="st7" d="M894.1,52.3L894.1,52.3c0.9-0.7,1.8-1.3,2.6-2c-0.8-0.6-1.7-1.7-2.5-1.7c-0.4,0-0.8,0.3-1.3,0.6
								c-0.4,0.3-0.9,0.8-1.3,1.1c0,0,0,0,0.1,0C892.5,51,893.3,51.6,894.1,52.3z"/>
							<path class="st7" d="M966.7,22L966.7,22h0.3c0.3,0,0.6,0,0.8-0.2s0.1-0.8,0.2-1.3c-0.3-0.2-0.7-0.4-1-0.5
								C966.9,20.7,966.8,21.3,966.7,22z"/>
							<path class="st7" d="M980.9-4.6c9.6,7.8,20.9,10.6,31.6,14.9c12.6,5.1,17.5,16.4,19.5,30.7c-3.6,6.6-11.4,8.3-8.6,19.7
								c4.7-1,9.5-1.4,14-3.1c6-2.2,11.2-0.9,14.5,5.3c6.5,11.9,16.2,9.3,25.1,9.8c3.1,0.2,6.7-3.8,9.4-6.8c1.9-2.1,2.1-6.5,3.9-8.8
								c2.2-2.6,5.3-5.6,8-5.6c8.1,0.1,15.9,1.9,21.3,11.6c4.4,7.6,9.9,14.2,14.5,20.6c6.3,1.5,11.6,3.8,16.8,3.7
								c5.8,0,10.3,8.8,17.5,2.8c-0.3-0.8-0.6-1.5-1-2.1c-2.9-4.5-8.3-6.4-8.3-13c2.9,0.6,5.8,1.3,9.4,2c0.5,0.1,1,0.2,1.6,0.4
								c-2.1-3.9-4.2-4.5-6.8-3.5c-0.4,0.2-0.7,0.2-1,0.4c-1.1,0.3-2.1,0.5-3.1,0.7c-1,0.3-2.6,1.3-3,0.9c-3.4-5.1-10-5.8-12.2-11.2
								c-3.5-8.4-9.6-12.8-14-19.7c-0.9-1.4-0.8-3.7-1.2-5.6c2.6-2.3,5.1-4.4,8.3-7.2c-5.6-10.2-14.8-9.6-21.5-15.3
								c-4.7-12.1-8.3-16.9-18.9-22.7c-5.1-2.8-10.4-5.2-15.7-7.5h-86.3l-0.1,0.1c-0.1,0-0.1-0.1-0.1-0.1h-31.1
								c1.9,3.7,3.8,7.4,5.6,11.1C973.1-1.6,976-8.6,980.9-4.6z"/>
							<path class="st7" d="M742.8-13c7.8-0.6,15.8,1.1,21.1,11.4c2.4-1.1,4.8-2.6,7.4-3.2c3-0.8,6-0.8,9.1-1.1
								c0.2-2.8,0.5-5.3,0.7-7.6h-51.5C733.4-9.5,738-12.6,742.8-13z"/>
							<path class="st7" d="M34.3,131.3c-1.4-7.2-4.2-13.5-9.7-19.3c-4.6,9-4.9,21.1-14.1,23.8c-0.3,0.1-0.4,1.2-0.5,1.8
								C6.4,155.3-5.3,161-16.9,166.9c-3.9,2-8,3.8-10.3,4.9c-8.3,13.9-8.6,26.9-4.2,40.6c2.6,8.3,1.4,16.1-2.8,23.3
								c-1.9,3.3-3.7,6.7-5.5,10.2c-3.5,6.8-4.6,14-1.2,21.3c2.2,4.9,2.4,10.2,2.9,15.7c0.7,9.4,4.2,16.9,12,19.9
								c2.5,1,5,2.2,7.2,3.2c6.6-2.9,12.6-5.7,21.1-9.4c0.6-2.7,1.2-5.4,1.9-8.1C14,248.1,26.9,208.7,33,166.7
								c0.3,0,0.5,0.1,0.8,0.1c2.7,0,4.5-1.8,5-4.3c0.2-0.9,0.2-2,0.1-3C37.9,149.9,36.1,140.6,34.3,131.3z"/>
							<path class="st7" d="M626.9,0.9c6.6,7.9,14.1,14.5,21.3,21.8c5.9-0.5,11.7-1.1,17.5-1.6c-3.5-7.4-1.5-15.7-1.8-23.5
								c-0.2-3.7,0.2-8,1.5-11.1h-49.9C619.2-8.5,623.1-3.7,626.9,0.9z"/>
							<path class="st7" d="M665.8,21.1L665.8,21.1h0.2C665.9,21.1,665.8,21.1,665.8,21.1z"/>
							<path class="st7" d="M811.7-10.7c5.2,2.8,5.5,7.8,5.2,13.4c-0.2,4-1.4,8.1-1.3,12.1c0.1,4,2.4,6,5.6,5.2
								c1.5-0.4,3-1.2,4.3-1.8c3.2-10,0.3-20.9,2-31.8h-18.2C809.7-12.3,810.5-11.3,811.7-10.7z"/>
							<path class="st7" d="M836.3-5.3c3.6,4.7,1,15.1,8.8,15.1c5,0,3.1,13.1,11.4,7.6c1.6-8.5,3.7-16.6-3.9-22.1
								c-1.2-0.9-2.7-3.2-2.7-4.8c0-1.4-0.1-2.8-0.4-4h-16.9C833.7-10.2,834.7-7.3,836.3-5.3z"/>
							<path class="st7" d="M665.9,21.1l-0.2,0.1c0,0,0.1,0,0.1,0.1C665.9,21.2,665.9,21.1,665.9,21.1z"/>
							<path class="st7" d="M764.1,55.3c-5.6-6.6-12.6-6-19.3-7.4c-0.5-0.1-0.8-1.9-1.1-2.8c1.7-2.8,6.8,0.9,6.8-6.7
								c-9.9,1-19.4-0.8-28.4-5.5c-0.4-0.3-1-0.6-1.5-0.4c-1,0.2-2,0.6-3,1c-12.1,5.2-15.3,5-25.1-1.6c-6.2-4.1-12.5-7.2-19.9-6.6
								c-2.2,0.2-4.4-2.5-6.6-3.9c-2.3,5.2-4.6,10.4-7,16.1c2.5,0.8,4.2,1,5.6,1.8c15.9,10.4,18,11,34.5,12.1
								c3.7,0.2,7.5,0.9,11.1,2.2c13.8,5,36.9,9,52,8.1c3.3-0.1,8.3,6,9.7-0.8C773.3,52.7,766.2,57.7,764.1,55.3z"/>
							<path class="st7" d="M1177.1,22.1c3.7-3,7-5.7,8.8-11c0.9-2.9,2.6-4.7,5.9-5.2c4.9-1,4.8-2.4,0.5-9.6
								c-9.6,3.7-9.5,3.9-17.3,13.9c-3.4,4.3-6.8,7.4-12.6,7.4c-6.3,0-13.1-0.6-20.2,2.7C1157.9,32.8,1162.6,33.9,1177.1,22.1z"/>
							<path class="st7" d="M943.6-7.5c0.4-2.3,0.1-4.4-0.7-6h-31c0.2,1.9,0.4,3.7,0.5,5.4C928.9-11.7,928.9-11.7,943.6-7.5z"/>
							<path class="st7" d="M810.4,76c6.3,4.2,10.8,7.5,15.4,10.1c1,0.6,3.4-0.7,3.9-2c0.5-1.1-0.1-4-1-5.1
								C824.2,73.9,819.3,70.1,810.4,76z"/>
							<path class="st7" d="M981.3,31.7c-0.2,1.2,1.6,3.8,2.5,3.9c1.3,0.2,3.8-1.4,3.8-2.5c0.5-4.4,0.2-8.9,0.2-14.1
								C981.4,20.6,981.9,26.8,981.3,31.7z"/>
							<path class="st7" d="M1221.1,36c0.6,1,2.8,0.7,4.2,0.9c0.2-1.8,1.1-4.3,0.5-5.2c-3-4.6-6.5-8.7-10-13.2
								c-1,2.1-2.1,3.7-1.8,4.2C1216.2,27.2,1218.4,31.8,1221.1,36z"/>
							<path class="st7" d="M1240.5,55.3c-0.2,1,0.1,2.9,0.8,3.4c2,1.6,4.2,2.7,6.4,4.1l1.5-3.6c-2-1.7-4-3.5-6.2-4.9
								C1242.4,53.9,1240.7,54.6,1240.5,55.3z"/>
							<path class="st7" d="M1260.8,54.4c2.2,1.8,4.4,3.3,6.7,4.9c0.6-0.7,1.1-1.5,1.7-2.2c-2.2-1.8-4.2-3.8-6.6-5.2
								c-1-0.6-2.2-3.9-3.5-0.6C1258.9,51.8,1260,53.7,1260.8,54.4z"/>
							<path class="st7" d="M1280.6,79.5c-3.5-6.3-6.8-8.8-11.5-5C1270.9,81.9,1274.9,81.3,1280.6,79.5z"/>
							<path class="st7" d="M1287.3,74.3c-0.6-3-0.6-4.8-1.2-6.3c-1-2.1-2.2-4.4-3.8-5.8c-1.1-0.9-1.3,5.6,0.6,8.3
								C1283.7,72,1285.1,72.6,1287.3,74.3z"/>
							<path class="st7" d="M950.9,44.2c-1.5,1.2-2.8,2.8-3.9,4.7c-0.2,0.4,0.1,1.1,0.4,2c0.2,0.5,0.4,1,0.5,1.4
								c1.6-0.9,3.2-1.8,4.7-2.8c0.3-0.2,0.4-1.1,0.8-2.6C952.6,46.1,951.2,44,950.9,44.2z"/>
							<path class="st7" d="M1292.2,92.4c0.8,0.2,1.7,0.2,2.6,0c0.6,0,1-0.1,1.6-0.1c-0.1-0.3-0.1-0.6-0.2-0.8
								c-0.2-0.8-0.3-1.7-0.7-2.2c-0.7-0.8-1.8-1.1-2.7-1.6c-0.7,0.6-2.1,1.3-2,1.8C1291,90.5,1291.6,92.2,1292.2,92.4z"/>
							<path class="st7" d="M1240.2,42.4c0.2,0,0.8-1.2,0.7-1.4c-0.8-1.6-1.8-3.2-2.6-4.5c-1.2,0.8-1.9,1.1-1.9,1.3
								c0.2,1.2,0.3,2.8,1,3.5C1238,42,1239.1,42.2,1240.2,42.4z"/>
						</g>
					</g>
				</g>
			</g>
		</g>
	</g>
	<g>
		<g>
			<g>
				<g>
					<g>
						<defs>
							<rect id="SVGID_9_" width="1920" height="700"/>
						</defs>
						<clipPath id="SVGID_10_">
							<use xlink:href="#SVGID_9_"  style="overflow:visible;"/>
						</clipPath>
						<path class="st8" d="M117.3,229.2c-0.3,0.5,0.4,1.9,0.7,2.9c1-0.4,2.4-0.5,2.7-1.4c0.3-0.8-0.5-2.4-0.8-3.6
							C119.1,227.8,117.9,228.3,117.3,229.2z"/>
					</g>
				</g>
			</g>
		</g>
	</g>
	<g>
		<g>
			<g>
				<g>
					<g>
						<defs>
							<rect id="SVGID_11_" width="1920" height="700"/>
						</defs>
						<clipPath id="SVGID_12_">
							<use xlink:href="#SVGID_11_"  style="overflow:visible;"/>
						</clipPath>
						<g id="Layer_4" class="st9">
							<g>
								<g>
									<path class="st10" d="M746.6,311.7c5.7,14.4,11.2,28.3,16.6,42.3c0.5,1.2,1.2,2.5,1.2,3.7c-0.2,11.4,4.6,20.9,7.2,31.2
										c2.6,10.4,5.4,22.7-5.2,30.7c-2.1,1.6-1,6.9,1.4,8.7c1.8,1.4,4,2.2,5.8,3.7c11.3,9.7,22.3,11.2,34.6,1.6
										c11.6-9,24.3-14.2,38.4-9.9c3,0.9,6.5-0.4,9.6-0.2c4.8,0.2,8.3-2.1,11.1-6.9c6.7-11.1,17-14.6,26.9-16.1
										c8.6-1.4,16.9-3,25.1-6.5c10.4-4.6,21.3-5.3,31.9-3.5c7.3,1.2,14.2,5.5,21.4,8.5c2,0.8,5.2,1.2,5.8,2.9
										c3.8,11.1,15.6,15.2,16.1,29.4c0.1,2.2,3.4,4.2,5.3,6.2c9.2-14.1,14.1-18.6,22.6-20.9c-1.4,4.1-2.6,7.8-3.7,11.5
										c-1.2,4-2.2,8.1-3.8,14c3.3-1.7,5.7-2.6,7.8-4c2-1.3,1-6.9,4.8-6.2c0.3,1,0.5,2,0.7,2.8c1,4.4,0.8,6.2-1,17.8v0.1
										c-1.9-1.6-3.7-3.7-5.8-5c-0.3-0.2-0.6-0.4-0.9-0.5c-1.8-0.9-4.3-0.6-6.2,0.2c-1.4,0.6-2.4,2.7-4.7,5.3h17.5l0,0v-0.1
										c0.4-1.1,0.7-2.8,1.4-3.1c8.2-3.2,14,0.2,15.7,10.9c0.9,6.3,2.1,11.5,5.5,16.4c4.4,6.3,10.4,7.2,15.9,9.4
										c7.1,2.8,14.6,4,22.7,6.1c3.5-1.9,7.9-4.4,12.4-6.8c6.2,3.4,12.1,6.5,18.2,9.8c2-1.5,4.1-2.4,5.6-4.2
										c8.1-9,17.4-13.3,28.3-12.9c2.3,0.1,4.7-2.6,7.4-4.1c-0.2-22.9,11.4-39.5,17.7-58.9c1-3,3.2-5.6,5.3-7.6
										c7.2-6.5,9.5-16.4,11.9-26.1c1.9-7.8,2.2-16.2,4.3-23.9c2.3-8.4,1.3-16.3,0.3-24.4c-1.4-11.4-3.2-22.7-4.8-33.9
										c-9.9-11.7-22.8-20.9-27-40.7c-3.7-1.8-7.7-3.7-11.3-5.4c-9.2-26.4-9.2-26.4-26.5-38.4c-3.2-2.2-6.6-4.1-9.4-5.8
										c-2.4-10.4-3.4-20.2-6.8-28.4c-2.6-6.3-4.3-12.3-5.3-19c-2.2-14.4-5.5-18.1-17.1-20.6c-4.2-15.1-8.2-29.9-12.4-44.5
										c-0.7-2.2-2.1-4.8-6.3-2.6c-4.7,16.1-9.2,33.3-8.1,52.1c0.9,13.5-1.8,25.8-7.1,37.3c-3.4,7.4-7.9,8.7-13.5,3.9
										c-3.5-3-6.5-7.2-10.3-9.3c-12-6.4-22.2-16.2-33.1-24.8c-1.2-0.9-1.7-3.2-2.9-5.5c1.7-2.7,3.3-5.3,5-7.9c1.4,0,3-0.7,4.1,0
										c4.7,3,5.5,1.2,3.9-5.2c-2.9,1.8-5.5,3.5-8.1,5.2c1-10.1,9.6-16.2,9.4-27.6c-8.8-5.6-17.9-1.1-26.6-3.1
										c-9.3-2.1-16.6-11.8-26.6-11.4c0,2-0.2,2.9,0,3.3c0.6,1,1.6,1.6,2.1,2.6c2.2,3.8,1.8,7.3-0.8,7.8c-2.6,0.6-5.4,1.3-8,0.8
										c-5.6-1.1-9.9,2.6-12.5,7.4c-5,9.3-8.9,19.5-13.4,29.5c-6.6,1.1-12.4-0.9-17-7.9c-3.5-5.2-8.1-6.3-13.2-4
										c-10,4.2-17.5,12.4-23.6,23.1c1.7,10.3-6.7,7.9-9.6,11.9c-0.4,7-0.8,8.3-2.3,8.6c-2-2.1-4-4.1-5.8-5.9
										c-4.7,4.7-7.7,8.6-8.5,15.7c-1.8,16.8-10.6,29.2-23.3,31.8c-8.1,1.6-15.7,4.4-23.2,8.2c-2.4,1.2-5.2,2.4-7.8,2.2
										c-6.4-0.6-11.3,3.1-16.4,7.2c-7.5,6.2-15.3,11.8-22.8,17.5c-1.2,7-2.9,14.2-3.6,21.5c-0.5,4.5-0.1,9.4,0.7,13.9
										c0.8,3.8,2.9,7.3,4.2,11c0.3,0.9-0.2,2.3-0.4,4C749.7,305.8,747.3,307.3,746.6,311.7"/>
									<path class="st10" d="M1137.2,519.8c-10.3,5.2-19.9,7.1-30,0.8c-1.8-1.2-4.7,0.2-8.3,0.4c4,12.8,6.4,24.5,12.8,33.9
										c4.6,6.6,9.9,7.6,16,4.9c8.2-3.7,13.7-14.2,13.8-26.7c0.1-7.4-0.5-14.7-0.8-22.1c-0.5-0.6-1-1.2-1.4-1.8
										C1138.6,512.8,1137.9,516.4,1137.2,519.8"/>
									<path class="st10" d="M1353.9,157.9c-1.6-2.4-3.2-4.7-4.9-7c-0.1-0.1-0.2-0.1-0.2-0.1c-0.3,0-0.7,0.1-1,0.1
										c-0.2,0.5-0.6,1-0.7,1.4c0,0.1,0,0.2,0,0.3c1.1,2.8,2.3,5.5,3.5,8.2C1351.7,159.9,1352.9,158.9,1353.9,157.9"/>
									<path class="st10" d="M1320.1,229.1c6.8,15.3,17.5,22.4,29.1,27.9c0.6-1.2,1.2-2.4,1.8-3.6c-9-8.3-17.9-16.7-26.9-24.9
										C1323.4,228,1322.1,228.8,1320.1,229.1"/>
									<path class="st10" d="M1356.9,172.2c0.2,0.3,0.3,0.6,0.4,0.6c0.5,0,1-0.1,1.5-0.3c0.5-0.1,1-0.3,1.5-0.4c0,0,0-0.1-0.1-0.1
										c-0.4-0.7-0.8-1.4-1.2-2.2c-0.8,0.4-1.6,0.9-2.4,1.4C1356.6,171.4,1356.7,171.9,1356.9,172.2"/>
									<path class="st10" d="M1367.5,189.7c-0.3,0.2-0.8,0.2-0.8,0.4v0.4c0,0.3,0.1,0.7,0.2,1.1c0.2-0.1,0.3-0.1,0.5-0.2
										c0.2-0.1,0.3-0.1,0.5-0.2C1367.7,190.7,1367.6,190.3,1367.5,189.7"/>
									<path class="st10" d="M1345.9,596.8c4.8,1.2,8.6,1.4,11.9,3.1c2.2,1.1,5.1,1.4,7,3.4c0.7,0.8,1.3,1.8,1.7,3.3
										c-0.1,0-0.2,0.1-0.3,0.1c-0.2,0.2-0.4,0.4-0.5,0.6c-1.7,0-3.5,0.1-5.2,0.3c-0.2,0-0.6,1.4-0.4,1.8c0.2,0.5,0.4,0.9,0.7,1.3
										l1,1.2c1.3-1.5,2.6-3,3.9-4.6c0.4,0,0.7,0,1,0l0,0v0.1c0-0.3-0.1-0.5-0.2-0.8c0.4-0.2,0.8-0.4,1.2-0.6
										c0.5-0.3,1-0.5,1.5-0.4c14.3,1.4,23.1-8.3,29.1-23.4c1.4-3.6,2.7-7.4,4.3-11.8c5.3-2.3,10.7-4.6,15.7-6.7
										c0.6-3.3,0.6-6.9,2-9.2c3-4.8,6.5-9,9.9-13.4c3-3.6,3.4-8.3,3.4-13.2c0.1-3.5-2.3-6.1-5.3-5.3c-2,0.6-3.8,2.1-5.6,3.2
										c-8.3-9.8-8.9-9.9-14.1,1.1c-7.9,16.9-18.7,29.3-33.1,36.8c-1,0.5-2,1.1-3,1.6c-8.8,4-15.6,12-22.2,19.9
										C1348.3,587.6,1347.7,591.9,1345.9,596.8"/>
									<path class="st10" d="M1449.8,463h-8.3c-3.4-13.9-7.3-27.7-22.7-27.7c3.2,6.2,5.9,11.7,8.8,17.1c3.3,6.3,7.2,12,9.9,18.6
										c3.4,8.2,1.6,16.7-4.2,23.6c-1.4,1.7-3.1,3.2-5.7,5.8c6,4.5,10.8,8.2,16.3,12.3c-1.5,5.6-2.7,10.4-3.8,14.8
										c4,6.4,8.1,5.5,11.5,1.2c5.6-7.2,11.9-13.9,13.7-24.7c0.4-2.1,2.2-5,3.7-5.4c10.2-2.6,11-12.1,11.9-22.7
										C1454.1,480.9,1459.2,479.5,1449.8,463"/>
									<path class="st10" d="M936.4,105.2c5.8,2.4,10.8,5.3,16.1-5.9C945.6,99.8,940.3,96.2,936.4,105.2"/>
								</g>
							</g>
						</g>
					</g>
				</g>
			</g>
		</g>
	</g>
	<g>
		<g>
			<g>
				<g>
					<g>
						<defs>
							<rect id="SVGID_13_" width="1920" height="700"/>
						</defs>
						<clipPath id="SVGID_14_">
							<use xlink:href="#SVGID_13_"  style="overflow:visible;"/>
						</clipPath>
						<g id="Layer_3" class="st11">
							<g>
								<path class="st12" d="M875.7,291.4c0-9.1,7-15.8,16.7-15.8c9.6,0,16.7,6.7,16.7,15.8c0,9.1-7.1,15.8-16.7,15.8
									C882.8,307.1,875.7,300.4,875.7,291.4z M901.9,291.4c0-5.8-4.1-9.8-9.5-9.8s-9.5,4-9.5,9.8s4.1,9.8,9.5,9.8
									C897.8,301.1,901.9,297.2,901.9,291.4z"/>
								<path class="st12" d="M911.1,294.9c0-7,5.4-12.1,13.1-12.1c4.9,0,8.8,2.1,10.5,6l-5.3,2.8c-1.3-2.2-3.1-3.2-5.3-3.2
									c-3.4,0-6.1,2.4-6.1,6.5s2.7,6.5,6.1,6.5c2.1,0,4-0.9,5.3-3.2l5.3,2.9c-1.7,3.7-5.6,5.9-10.5,5.9
									C916.5,307,911.1,302,911.1,294.9z"/>
								<path class="st12" d="M960.3,296.8h-17.7c0.7,2.9,3.1,4.7,6.7,4.7c2.5,0,4.3-0.7,5.9-2.3l3.6,3.9c-2.2,2.5-5.4,3.8-9.7,3.8
									c-8.1,0-13.4-5.1-13.4-12.1s5.4-12.1,12.5-12.1c6.9,0,12.2,4.6,12.2,12.2C960.4,295.5,960.3,296.3,960.3,296.8z
									 M942.4,292.9H954c-0.5-3-2.7-4.9-5.7-4.9C945.2,288,942.9,289.9,942.4,292.9z"/>
								<path class="st12" d="M984.6,293.3v13.4h-6.4v-2.9c-1.3,2.1-3.7,3.3-7.1,3.3c-5.5,0-8.7-3-8.7-7.1s2.9-7,10.1-7h5.4
									c0-2.9-1.7-4.6-5.4-4.6c-2.5,0-5,0.8-6.7,2.2l-2.4-4.7c2.6-1.8,6.4-2.8,10.1-2.8C980.4,282.8,984.6,286.2,984.6,293.3z
									 M977.8,299.2v-2.4h-4.7c-3.2,0-4.2,1.2-4.2,2.8c0,1.7,1.4,2.8,3.8,2.8C975,302.4,977,301.3,977.8,299.2z"/>
								<path class="st12" d="M1013.6,293.2v13.4h-6.8v-12.4c0-3.8-1.7-5.5-4.7-5.5c-3.3,0-5.6,2-5.6,6.3v11.6h-6.8v-23.4h6.5v2.8
									c1.8-2,4.6-3.1,7.8-3.1C1009.4,282.8,1013.6,286.1,1013.6,293.2z"/>
								<path class="st12" d="M1017.8,276.1c0-2.1,1.7-3.8,4.2-3.8s4.2,1.6,4.2,3.7c0,2.3-1.7,3.9-4.2,3.9
									C1019.5,279.9,1017.8,278.3,1017.8,276.1z M1018.6,283.2h6.8v23.4h-6.8L1018.6,283.2L1018.6,283.2z"/>
								<path class="st12" d="M1051.3,293.3v13.4h-6.4v-2.9c-1.3,2.1-3.7,3.3-7.1,3.3c-5.5,0-8.7-3-8.7-7.1s2.9-7,10.1-7h5.4
									c0-2.9-1.7-4.6-5.4-4.6c-2.5,0-5,0.8-6.7,2.2l-2.4-4.7c2.6-1.8,6.4-2.8,10.1-2.8C1047.2,282.8,1051.3,286.2,1051.3,293.3z
									 M1044.5,299.2v-2.4h-4.7c-3.2,0-4.2,1.2-4.2,2.8c0,1.7,1.4,2.8,3.8,2.8C1041.8,302.4,1043.8,301.3,1044.5,299.2z"/>
							</g>
							<circle class="st13" cx="1170.9" cy="414" r="5.9"/>
							<circle class="st13" cx="1434.1" cy="461.5" r="5.9"/>
							<g class="st0">
								<path class="st14" d="M1165.9,445.5v-1.3h7.2v-2.5c-3.2-0.2-5-1.4-5-3.4c0-2.1,2.3-3.4,5.8-3.4s5.8,1.2,5.8,3.4
									c0,2-1.9,3.1-5,3.4v2.5h7.2v1.3H1165.9z M1166.7,432.4h6.4v-2.3h1.6v2.3h6.4v1.3h-14.4V432.4z M1173.9,440.4
									c2.6,0,4.1-0.8,4.1-2.1c0-1.3-1.6-2.1-4.1-2.1c-2.6,0-4.2,0.8-4.2,2.1C1169.7,439.6,1171.3,440.4,1173.9,440.4z"/>
								<path class="st14" d="M1192.4,447.5h-1.6v-6.3h-7.2v-1.3h16v1.3h-7.3L1192.4,447.5L1192.4,447.5z M1190.7,432.3
									L1190.7,432.3l-5.6-0.1v-1.3h13v1.3h-5.6v0.1c0,2.3,3.1,4.4,6.2,4.8l-0.6,1.3c-2.8-0.5-5.4-1.9-6.5-4.1
									c-1.1,2.1-3.7,3.6-6.5,4.1l-0.6-1.3C1187.7,436.7,1190.7,434.7,1190.7,432.3z"/>
								<path class="st14" d="M1216.3,442.4l-0.9,1.3c-2.1-0.9-3.8-3-4.7-5.4c-0.8,2.6-2.6,4.9-4.6,5.9l-0.9-1.3
									c2.6-1.2,4.7-4.6,4.7-7.6V433h-4.1v-1.3h9.9v1.3h-4.2v2.3C1211.6,438.2,1213.7,441.3,1216.3,442.4z M1218.1,447.5v-17.7h1.6
									v17.7H1218.1z"/>
								<path class="st14" d="M1233.4,442.1l-1,1.3c-1.9-1-3.5-3.1-4.3-5.5c-0.8,2.6-2.4,4.8-4.4,5.9l-1-1.3
									c2.6-1.3,4.6-4.7,4.6-7.9v-3.2h1.6v3.2C1228.9,437.6,1230.9,440.9,1233.4,442.1z M1236.6,447.5h-1.6v-17.7h1.6v7.2h2.9v1.3
									h-2.9V447.5z"/>
							</g>
							<g class="st0">
								<path class="st14" d="M1440.3,492.5h-1.6v-6.6h-4.5v6.6h-1.6v-6.6h-4.2v-1.3h16.1v1.3h-4.2L1440.3,492.5L1440.3,492.5z
									 M1430.5,475.6h1.6v5.1h10.5v1.3h-12.1V475.6z"/>
								<path class="st14" d="M1451.7,479.7c-0.8,2-2.4,3.5-4.6,4.2l-0.8-1.3c2.7-0.8,4.5-3,4.5-5.4V477h-4.1v-1.3h9.7v1.3h-4v0.2
									c0,2.3,1.8,4.3,4.5,5.1l-0.8,1.3C1454.2,483,1452.5,481.6,1451.7,479.7z M1449.2,492.3v-4.4h9.9v-1.8h-9.9v-1.3h11.5v4.3
									h-9.9v1.9h10.4v1.3H1449.2L1449.2,492.3z M1459,474.8h1.6v9.2h-1.6V474.8z"/>
								<path class="st14" d="M1465.8,485.3h-1.2v-5.2h5.1v-2.5h-5.1v-1.3h6.7v5h-5.1v2.7c2.3,0,4-0.1,6.1-0.5l0.2,1.3
									C1470.3,485.2,1468.4,485.3,1465.8,485.3z M1467.3,492.1v-5.3h1.6v4h10.5v1.3H1467.3z M1473.4,475.1h1.5v5h2.4v-5.3h1.6V488
									h-1.6v-6.6h-2.4v6.1h-1.5V475.1z"/>
								<path class="st14" d="M1481.5,490.1v-1.3h16.1v1.3H1481.5z M1483.6,476.4h12v1.3h-10.4v5.5h10.6v1.3h-12.2V476.4z"/>
								<path class="st14" d="M1514.3,487.3l-0.9,1.3c-2.1-0.9-3.8-3-4.7-5.4c-0.8,2.6-2.6,4.9-4.6,5.9l-0.9-1.3
									c2.6-1.2,4.7-4.6,4.7-7.6v-2.3h-4.1v-1.3h9.9v1.3h-4.2v2.3C1509.5,483.2,1511.7,486.2,1514.3,487.3z M1516.1,492.5v-17.7
									h1.6v17.7H1516.1z"/>
								<path class="st14" d="M1531.4,487.1l-1,1.3c-1.9-1-3.5-3.1-4.3-5.5c-0.8,2.6-2.4,4.8-4.4,5.9l-1-1.3
									c2.6-1.3,4.6-4.7,4.6-7.9v-3.2h1.6v3.2C1526.9,482.6,1528.9,485.8,1531.4,487.1z M1534.6,492.5h-1.6v-17.7h1.6v7.2h2.9v1.3
									h-2.9V492.5z"/>
							</g>
						</g>
					</g>
				</g>
			</g>
		</g>
	</g>
	<g>
		<g>
			<g>
				<g>
					<g>
						<defs>
							<rect id="SVGID_15_" width="1920" height="700"/>
						</defs>
						<clipPath id="SVGID_16_">
							<use xlink:href="#SVGID_15_"  style="overflow:visible;"/>
						</clipPath>
						
							<linearGradient id="SVGID_17_" gradientUnits="userSpaceOnUse" x1="960" y1="1139.9999" x2="960" y2="1239.9999" gradientTransform="matrix(1 0 0 -1 0 1239.9999)">
							<stop  offset="0" style="stop-color:#E1E7EF;stop-opacity:0"/>
							<stop  offset="1" style="stop-color:#E1E7EF;stop-opacity:0.3"/>
						</linearGradient>
						<rect class="st15" width="1920" height="100"/>
					</g>
				</g>
			</g>
		</g>
	</g>
</g>
<circle class="st13" cx="1591.9" cy="79.5" r="6"/>
<circle class="st16" cx="1591.9" cy="109.4" r="6"/>
<g>
	<path d="M1618.6,104.7h-8v-1.2h3.3v-2.3h1.5v2.3h3.3v1.2H1618.6z M1618.1,109.5c0,2.2-1.5,3.7-3.5,3.7s-3.5-1.5-3.5-3.7
		s1.5-3.7,3.5-3.7S1618.1,107.3,1618.1,109.5z M1616.8,109.5c0-1.4-0.9-2.4-2.1-2.4c-1.3,0-2.1,1-2.1,2.4s0.9,2.5,2.1,2.5
		S1616.8,110.9,1616.8,109.5z M1622.9,116.9v-8.1h-2.1v7.3h-1.4v-15h1.4v6.4h2.1v-6.8h1.4v16.2
		C1624.3,116.9,1622.9,116.9,1622.9,116.9z"/>
	<path d="M1637.8,111.7l0.1,1.1c-3.7,0.7-7.5,0.7-10.5,0.7l-0.2-1.2c1.3,0,2.8,0,4.4-0.1v-2.8c-2.1-0.3-3.6-1.7-3.6-3.8
		c0-2.3,1.8-3.8,4.3-3.8s4.3,1.5,4.3,3.8c0,2-1.5,3.5-3.6,3.8v2.7C1634.7,112,1636.3,111.9,1637.8,111.7z M1632.4,108.2
		c1.7,0,2.9-1,2.9-2.6c0-1.5-1.2-2.5-2.9-2.5c-1.7,0-2.9,1-2.9,2.5C1629.6,107.1,1630.8,108.2,1632.4,108.2z M1638.9,117v-16.2h1.5
		V117H1638.9z"/>
	<path d="M1657.9,112.3l-0.8,1.2c-1.9-0.9-3.5-2.7-4.2-4.9c-0.7,2.3-2.4,4.4-4.2,5.3l-0.9-1.2c2.3-1.1,4.3-4.1,4.3-6.9v-2.1h-3.7
		v-1.2h9v1.2h-3.8v2.1C1653.5,108.5,1655.5,111.2,1657.9,112.3z M1659.5,116.9v-16.1h1.5v16.1H1659.5z"/>
	<path d="M1673.9,112l-0.9,1.2c-1.7-0.9-3.2-2.8-3.9-5c-0.7,2.4-2.2,4.3-4,5.3l-0.9-1.2c2.3-1.2,4.2-4.3,4.2-7.2v-2.9h1.5v2.9
		C1669.8,107.9,1671.6,110.8,1673.9,112z M1676.8,116.9h-1.5v-16.1h1.5v6.5h2.7v1.2h-2.7V116.9z"/>
</g>
<g>
	<path d="M1170.9,432.7h-4.8V431h11.6v1.7h-4.8V445h-2L1170.9,432.7L1170.9,432.7z"/>
	<path d="M1186.2,435.4c0.8,0.7,1.2,1.8,1.2,3.2v6.4h-1.8v-1.4c-0.3,0.5-0.8,0.9-1.4,1.1c-0.6,0.3-1.3,0.4-2.1,0.4
		c-1.2,0-2.1-0.3-2.8-0.9c-0.7-0.6-1.1-1.3-1.1-2.3s0.3-1.7,1-2.3c0.7-0.6,1.8-0.8,3.2-0.8h3v-0.4c0-0.8-0.2-1.5-0.7-1.9
		s-1.2-0.7-2.1-0.7c-0.6,0-1.2,0.1-1.8,0.3c-0.6,0.2-1.1,0.5-1.5,0.8l-0.8-1.4c0.5-0.4,1.2-0.8,2-1s1.6-0.4,2.4-0.4
		C1184.3,434.3,1185.4,434.7,1186.2,435.4z M1184.3,443.2c0.5-0.3,0.9-0.8,1.2-1.4v-1.5h-3c-1.6,0-2.4,0.5-2.4,1.6
		c0,0.5,0.2,1,0.6,1.3s1,0.5,1.7,0.5C1183.2,443.6,1183.8,443.5,1184.3,443.2z"/>
	<path d="M1191,432c-0.2-0.2-0.4-0.5-0.4-0.9s0.1-0.6,0.4-0.9c0.2-0.2,0.6-0.4,0.9-0.4c0.4,0,0.7,0.1,0.9,0.3s0.4,0.5,0.4,0.9
		s-0.1,0.7-0.4,0.9s-0.6,0.4-0.9,0.4C1191.5,432.4,1191.2,432.2,1191,432z M1191,434.4h1.9V445h-1.9V434.4z"/>
	<path d="M1205.4,435.5c0.8,0.8,1.2,1.9,1.2,3.4v6.1h-1.9v-5.9c0-1-0.2-1.8-0.7-2.3s-1.2-0.8-2.1-0.8c-1,0-1.9,0.3-2.5,0.9
		s-0.9,1.5-0.9,2.6v5.5h-1.9v-14.8h1.9v5.7c0.4-0.5,0.9-0.9,1.6-1.2c0.6-0.3,1.4-0.4,2.2-0.4
		C1203.5,434.3,1204.6,434.7,1205.4,435.5z"/>
	<path d="M1217.4,435.4c0.8,0.7,1.2,1.8,1.2,3.2v6.4h-1.8v-1.4c-0.3,0.5-0.8,0.9-1.4,1.1c-0.6,0.3-1.3,0.4-2.1,0.4
		c-1.2,0-2.1-0.3-2.8-0.9c-0.7-0.6-1.1-1.3-1.1-2.3s0.3-1.7,1-2.3c0.7-0.6,1.8-0.8,3.2-0.8h3v-0.4c0-0.8-0.2-1.5-0.7-1.9
		s-1.2-0.7-2.1-0.7c-0.6,0-1.2,0.1-1.8,0.3c-0.6,0.2-1.1,0.5-1.5,0.8l-0.8-1.4c0.5-0.4,1.2-0.8,2-1s1.6-0.4,2.4-0.4
		C1215.5,434.3,1216.6,434.7,1217.4,435.4z M1215.5,443.2c0.5-0.3,0.9-0.8,1.2-1.4v-1.5h-3c-1.6,0-2.4,0.5-2.4,1.6
		c0,0.5,0.2,1,0.6,1.3s1,0.5,1.7,0.5C1214.3,443.6,1214.9,443.5,1215.5,443.2z"/>
	<path d="M1231,435.5c0.8,0.8,1.2,1.9,1.2,3.4v6.1h-1.9v-5.9c0-1-0.2-1.8-0.7-2.3s-1.2-0.8-2.1-0.8c-1,0-1.9,0.3-2.5,0.9
		s-0.9,1.5-0.9,2.6v5.5h-1.9v-10.6h1.8v1.6c0.4-0.5,0.9-1,1.6-1.3s1.4-0.4,2.3-0.4C1229.1,434.3,1230.2,434.7,1231,435.5z"/>
	<path d="M1250.3,441.5h-7.4l-1.5,3.5h-2.1l6.3-14h2l6.4,14h-2.1L1250.3,441.5z M1249.6,439.9l-3-6.9l-3,6.9H1249.6z"/>
	<path d="M1265.4,434.4V445h-1.8v-1.6c-0.4,0.5-0.9,1-1.5,1.3s-1.3,0.5-2.1,0.5c-1.4,0-2.5-0.4-3.3-1.2c-0.8-0.8-1.2-1.9-1.2-3.5
		v-6.1h1.9v5.9c0,1,0.2,1.8,0.7,2.3s1.2,0.8,2.1,0.8c1,0,1.8-0.3,2.4-0.9s0.9-1.5,0.9-2.6v-5.5L1265.4,434.4L1265.4,434.4z"/>
	<path d="M1269.6,444.8c-0.8-0.2-1.4-0.5-1.9-0.9l0.8-1.5c0.5,0.3,1,0.6,1.7,0.8c0.7,0.2,1.3,0.3,2,0.3c1.7,0,2.5-0.5,2.5-1.4
		c0-0.3-0.1-0.6-0.3-0.8c-0.2-0.2-0.5-0.3-0.8-0.4s-0.8-0.2-1.5-0.3c-0.9-0.1-1.5-0.3-2.1-0.5c-0.5-0.2-1-0.5-1.4-0.9
		s-0.6-1-0.6-1.7c0-1,0.4-1.7,1.2-2.3c0.8-0.6,1.9-0.9,3.2-0.9c0.7,0,1.4,0.1,2.1,0.3c0.7,0.2,1.3,0.4,1.7,0.7l-0.8,1.5
		c-0.9-0.6-1.9-0.8-3.1-0.8c-0.8,0-1.4,0.1-1.9,0.4c-0.4,0.3-0.6,0.6-0.6,1.1c0,0.3,0.1,0.6,0.4,0.8s0.5,0.3,0.9,0.4
		s0.9,0.2,1.5,0.3c0.9,0.1,1.5,0.3,2.1,0.5c0.5,0.2,1,0.5,1.3,0.8c0.4,0.4,0.6,1,0.6,1.7c0,1-0.4,1.7-1.2,2.3
		c-0.8,0.6-1.9,0.9-3.3,0.9C1271.3,445.1,1270.4,445,1269.6,444.8z"/>
	<path d="M1285.1,444.4c-0.3,0.2-0.6,0.4-1,0.5s-0.8,0.2-1.3,0.2c-1.1,0-1.9-0.3-2.5-0.9s-0.9-1.4-0.9-2.5V436h-1.8v-1.6h1.8v-2.3
		h1.9v2.3h3v1.6h-3v5.7c0,0.6,0.1,1,0.4,1.3s0.7,0.5,1.2,0.5c0.6,0,1.1-0.2,1.5-0.5L1285.1,444.4z"/>
	<path d="M1290.7,434.8c0.7-0.3,1.4-0.5,2.4-0.5v1.9c-0.1,0-0.3,0-0.4,0c-1,0-1.9,0.3-2.5,0.9s-0.9,1.5-0.9,2.6v5.3h-1.9v-10.6h1.8
		v1.8C1289.6,435.6,1290.1,435.1,1290.7,434.8z"/>
	<path d="M1302.7,435.4c0.8,0.7,1.2,1.8,1.2,3.2v6.4h-1.8v-1.4c-0.3,0.5-0.8,0.9-1.4,1.1c-0.6,0.3-1.3,0.4-2.1,0.4
		c-1.2,0-2.1-0.3-2.8-0.9c-0.7-0.6-1.1-1.3-1.1-2.3s0.3-1.7,1-2.3c0.7-0.6,1.8-0.8,3.2-0.8h3v-0.4c0-0.8-0.2-1.5-0.7-1.9
		s-1.2-0.7-2.1-0.7c-0.6,0-1.2,0.1-1.8,0.3c-0.6,0.2-1.1,0.5-1.5,0.8l-0.8-1.4c0.5-0.4,1.2-0.8,2-1s1.6-0.4,2.4-0.4
		C1300.8,434.3,1301.9,434.7,1302.7,435.4z M1300.8,443.2c0.5-0.3,0.9-0.8,1.2-1.4v-1.5h-3c-1.6,0-2.4,0.5-2.4,1.6
		c0,0.5,0.2,1,0.6,1.3s1,0.5,1.7,0.5C1299.6,443.6,1300.2,443.5,1300.8,443.2z"/>
	<path d="M1307.4,430.2h1.9V445h-1.9V430.2z"/>
	<path d="M1313,432c-0.2-0.2-0.4-0.5-0.4-0.9s0.1-0.6,0.4-0.9c0.2-0.2,0.6-0.4,0.9-0.4c0.4,0,0.7,0.1,0.9,0.3s0.4,0.5,0.4,0.9
		s-0.1,0.7-0.4,0.9s-0.6,0.4-0.9,0.4C1313.6,432.4,1313.3,432.2,1313,432z M1313,434.4h1.9V445h-1.9V434.4z"/>
	<path d="M1325.8,435.4c0.8,0.7,1.2,1.8,1.2,3.2v6.4h-1.8v-1.4c-0.3,0.5-0.8,0.9-1.4,1.1c-0.6,0.3-1.3,0.4-2.1,0.4
		c-1.2,0-2.1-0.3-2.8-0.9c-0.7-0.6-1.1-1.3-1.1-2.3s0.3-1.7,1-2.3c0.7-0.6,1.8-0.8,3.2-0.8h3v-0.4c0-0.8-0.2-1.5-0.7-1.9
		s-1.2-0.7-2.1-0.7c-0.6,0-1.2,0.1-1.8,0.3c-0.6,0.2-1.1,0.5-1.5,0.8l-0.8-1.4c0.5-0.4,1.2-0.8,2-1s1.6-0.4,2.4-0.4
		C1323.9,434.3,1325,434.7,1325.8,435.4z M1323.9,443.2c0.5-0.3,0.9-0.8,1.2-1.4v-1.5h-3c-1.6,0-2.4,0.5-2.4,1.6
		c0,0.5,0.2,1,0.6,1.3s1,0.5,1.7,0.5C1322.7,443.6,1323.3,443.5,1323.9,443.2z"/>
</g>
<g>
	<path d="M1433.9,477.7h-4.8V476h11.6v1.7h-4.8V490h-2L1433.9,477.7L1433.9,477.7z"/>
	<path d="M1449.2,480.4c0.8,0.7,1.2,1.8,1.2,3.2v6.4h-1.8v-1.4c-0.3,0.5-0.8,0.9-1.4,1.1c-0.6,0.3-1.3,0.4-2.1,0.4
		c-1.2,0-2.1-0.3-2.8-0.9c-0.7-0.6-1.1-1.3-1.1-2.3s0.3-1.7,1-2.3c0.7-0.6,1.8-0.8,3.2-0.8h3v-0.4c0-0.8-0.2-1.5-0.7-1.9
		s-1.2-0.7-2.1-0.7c-0.6,0-1.2,0.1-1.8,0.3c-0.6,0.2-1.1,0.5-1.5,0.8l-0.8-1.4c0.5-0.4,1.2-0.8,2-1s1.6-0.4,2.4-0.4
		C1447.3,479.3,1448.4,479.7,1449.2,480.4z M1447.3,488.2c0.5-0.3,0.9-0.8,1.2-1.4v-1.5h-3c-1.6,0-2.4,0.5-2.4,1.6
		c0,0.5,0.2,1,0.6,1.3s1,0.5,1.7,0.5C1446.2,488.6,1446.8,488.5,1447.3,488.2z"/>
	<path d="M1454,477c-0.2-0.2-0.4-0.5-0.4-0.9s0.1-0.6,0.4-0.9c0.2-0.2,0.6-0.4,0.9-0.4c0.4,0,0.7,0.1,0.9,0.3s0.4,0.5,0.4,0.9
		s-0.1,0.7-0.4,0.9s-0.6,0.4-0.9,0.4C1454.5,477.4,1454.2,477.2,1454,477z M1454,479.4h1.9V490h-1.9V479.4z"/>
	<path d="M1468.4,480.5c0.8,0.8,1.2,1.9,1.2,3.4v6.1h-1.9v-5.9c0-1-0.2-1.8-0.7-2.3s-1.2-0.8-2.1-0.8c-1,0-1.9,0.3-2.5,0.9
		s-0.9,1.5-0.9,2.6v5.5h-1.9v-14.8h1.9v5.7c0.4-0.5,0.9-0.9,1.6-1.2c0.6-0.3,1.4-0.4,2.2-0.4
		C1466.5,479.3,1467.6,479.7,1468.4,480.5z"/>
	<path d="M1480.4,480.4c0.8,0.7,1.2,1.8,1.2,3.2v6.4h-1.8v-1.4c-0.3,0.5-0.8,0.9-1.4,1.1c-0.6,0.3-1.3,0.4-2.1,0.4
		c-1.2,0-2.1-0.3-2.8-0.9c-0.7-0.6-1.1-1.3-1.1-2.3s0.3-1.7,1-2.3c0.7-0.6,1.8-0.8,3.2-0.8h3v-0.4c0-0.8-0.2-1.5-0.7-1.9
		s-1.2-0.7-2.1-0.7c-0.6,0-1.2,0.1-1.8,0.3c-0.6,0.2-1.1,0.5-1.5,0.8l-0.8-1.4c0.5-0.4,1.2-0.8,2-1s1.6-0.4,2.4-0.4
		C1478.5,479.3,1479.6,479.7,1480.4,480.4z M1478.5,488.2c0.5-0.3,0.9-0.8,1.2-1.4v-1.5h-3c-1.6,0-2.4,0.5-2.4,1.6
		c0,0.5,0.2,1,0.6,1.3s1,0.5,1.7,0.5C1477.3,488.6,1477.9,488.5,1478.5,488.2z"/>
	<path d="M1494,480.5c0.8,0.8,1.2,1.9,1.2,3.4v6.1h-1.9v-5.9c0-1-0.2-1.8-0.7-2.3s-1.2-0.8-2.1-0.8c-1,0-1.9,0.3-2.5,0.9
		s-0.9,1.5-0.9,2.6v5.5h-1.9v-10.6h1.8v1.6c0.4-0.5,0.9-1,1.6-1.3s1.4-0.4,2.3-0.4C1492.1,479.3,1493.2,479.7,1494,480.5z"/>
	<path d="M1516.4,476v14h-1.6l-8.4-10.4V490h-2v-14h1.6l8.4,10.4V476H1516.4z"/>
	<path d="M1529.9,485.3h-8.6c0.1,0.9,0.5,1.7,1.2,2.3c0.7,0.6,1.6,0.9,2.6,0.9c1.3,0,2.3-0.4,3.1-1.3l1.1,1.2
		c-0.5,0.6-1.1,1-1.8,1.3c-0.7,0.3-1.5,0.4-2.4,0.4c-1.1,0-2.1-0.2-3-0.7s-1.5-1.1-2-1.9s-0.7-1.8-0.7-2.8s0.2-2,0.7-2.8
		s1.1-1.5,1.9-1.9s1.7-0.7,2.7-0.7s1.9,0.2,2.7,0.7c0.8,0.5,1.4,1.1,1.9,1.9c0.4,0.8,0.7,1.8,0.7,2.8
		C1529.9,484.9,1529.9,485.1,1529.9,485.3z M1522.4,481.8c-0.6,0.6-1,1.3-1.1,2.2h6.8c-0.1-0.9-0.5-1.6-1.1-2.2s-1.4-0.8-2.3-0.8
		S1523,481.2,1522.4,481.8z"/>
	<path d="M1548.4,479.4l-4,10.6h-1.8l-3.1-8l-3.1,8h-1.8l-3.9-10.6h1.8l3.1,8.4l3.2-8.4h1.6l3.1,8.5l3.2-8.5H1548.4z"/>
	<path d="M1566.5,488.3v1.7h-11.7v-1.4l8.8-10.9h-8.7V476h11.3v1.4l-8.8,10.9H1566.5z"/>
	<path d="M1578.2,485.3h-8.6c0.1,0.9,0.5,1.7,1.2,2.3c0.7,0.6,1.6,0.9,2.6,0.9c1.3,0,2.3-0.4,3.1-1.3l1.1,1.2
		c-0.5,0.6-1.1,1-1.8,1.3c-0.7,0.3-1.5,0.4-2.4,0.4c-1.1,0-2.1-0.2-3-0.7s-1.5-1.1-2-1.9s-0.7-1.8-0.7-2.8s0.2-2,0.7-2.8
		s1.1-1.5,1.9-1.9s1.7-0.7,2.7-0.7s1.9,0.2,2.7,0.7c0.8,0.5,1.4,1.1,1.9,1.9c0.4,0.8,0.7,1.8,0.7,2.8
		C1578.2,484.9,1578.2,485.1,1578.2,485.3z M1570.7,481.8c-0.6,0.6-1,1.3-1.1,2.2h6.8c-0.1-0.9-0.5-1.6-1.1-2.2s-1.4-0.8-2.3-0.8
		S1571.3,481.2,1570.7,481.8z"/>
	<path d="M1587.8,480.4c0.8,0.7,1.2,1.8,1.2,3.2v6.4h-1.8v-1.4c-0.3,0.5-0.8,0.9-1.4,1.1c-0.6,0.3-1.3,0.4-2.1,0.4
		c-1.2,0-2.1-0.3-2.8-0.9c-0.7-0.6-1.1-1.3-1.1-2.3s0.3-1.7,1-2.3c0.7-0.6,1.8-0.8,3.2-0.8h3v-0.4c0-0.8-0.2-1.5-0.7-1.9
		s-1.2-0.7-2.1-0.7c-0.6,0-1.2,0.1-1.8,0.3c-0.6,0.2-1.1,0.5-1.5,0.8l-0.8-1.4c0.5-0.4,1.2-0.8,2-1s1.6-0.4,2.4-0.4
		C1585.9,479.3,1587,479.7,1587.8,480.4z M1585.9,488.2c0.5-0.3,0.9-0.8,1.2-1.4v-1.5h-3c-1.6,0-2.4,0.5-2.4,1.6
		c0,0.5,0.2,1,0.6,1.3s1,0.5,1.7,0.5C1584.8,488.6,1585.4,488.5,1585.9,488.2z"/>
	<path d="M1592.6,475.2h1.9V490h-1.9V475.2z"/>
	<path d="M1605.4,480.4c0.8,0.7,1.2,1.8,1.2,3.2v6.4h-1.8v-1.4c-0.3,0.5-0.8,0.9-1.4,1.1c-0.6,0.3-1.3,0.4-2.1,0.4
		c-1.2,0-2.1-0.3-2.8-0.9c-0.7-0.6-1.1-1.3-1.1-2.3s0.3-1.7,1-2.3c0.7-0.6,1.8-0.8,3.2-0.8h3v-0.4c0-0.8-0.2-1.5-0.7-1.9
		s-1.2-0.7-2.1-0.7c-0.6,0-1.2,0.1-1.8,0.3c-0.6,0.2-1.1,0.5-1.5,0.8l-0.8-1.4c0.5-0.4,1.2-0.8,2-1s1.6-0.4,2.4-0.4
		C1603.5,479.3,1604.6,479.7,1605.4,480.4z M1603.5,488.2c0.5-0.3,0.9-0.8,1.2-1.4v-1.5h-3c-1.6,0-2.4,0.5-2.4,1.6
		c0,0.5,0.2,1,0.6,1.3s1,0.5,1.7,0.5C1602.3,488.6,1602.9,488.5,1603.5,488.2z"/>
	<path d="M1619,480.5c0.8,0.8,1.2,1.9,1.2,3.4v6.1h-1.9v-5.9c0-1-0.2-1.8-0.7-2.3s-1.2-0.8-2.1-0.8c-1,0-1.9,0.3-2.5,0.9
		s-0.9,1.5-0.9,2.6v5.5h-1.9v-10.6h1.8v1.6c0.4-0.5,0.9-1,1.6-1.3s1.4-0.4,2.3-0.4C1617.1,479.3,1618.2,479.7,1619,480.5z"/>
	<path d="M1633.8,475.2V490h-1.8v-1.7c-0.4,0.6-1,1-1.6,1.3c-0.7,0.3-1.4,0.5-2.2,0.5c-1,0-1.9-0.2-2.8-0.7
		c-0.8-0.5-1.5-1.1-1.9-1.9c-0.5-0.8-0.7-1.8-0.7-2.8s0.2-2,0.7-2.8s1.1-1.4,1.9-1.9s1.7-0.7,2.8-0.7c0.8,0,1.5,0.1,2.1,0.4
		s1.2,0.7,1.6,1.3v-5.8L1633.8,475.2L1633.8,475.2z M1630.1,488c0.5-0.3,1-0.8,1.3-1.3c0.3-0.6,0.5-1.2,0.5-2s-0.2-1.4-0.5-2
		s-0.7-1-1.3-1.3s-1.2-0.5-1.8-0.5c-0.7,0-1.3,0.2-1.8,0.5s-1,0.7-1.3,1.3s-0.5,1.2-0.5,2s0.2,1.4,0.5,2s0.7,1,1.3,1.3
		c0.5,0.3,1.1,0.5,1.8,0.5C1629,488.4,1629.6,488.3,1630.1,488z"/>
</g>
<g>
	<path d="M1615.5,79.5c-2.4,0-4.2-1.6-4.2-3.9c0-2.3,1.8-3.8,4.2-3.8c1.4,0,2.5,0.5,3.3,1.4h4.1v-2.3h1.5v9.6h-1.5v-2.3h-4.1
		C1618,79,1616.9,79.5,1615.5,79.5z M1615.5,78.3c1.6,0,2.7-1.1,2.7-2.6c0-1.5-1.2-2.6-2.7-2.6c-1.6,0-2.8,1.1-2.8,2.6
		C1612.8,77.2,1613.9,78.3,1615.5,78.3z M1624.5,83.9c0,2-2.1,3.1-5.4,3.1c-3.3,0-5.4-1.1-5.4-3.1c0-2,2.1-3.1,5.4-3.1
		C1622.4,80.8,1624.5,82,1624.5,83.9z M1623,83.9c0-1.2-1.5-1.9-3.9-1.9c-2.5,0-3.9,0.7-3.9,1.9c0,1.2,1.4,1.9,3.9,1.9
		C1621.5,85.8,1623,85.1,1623,83.9z M1619.7,75.7c0,0.4-0.1,0.9-0.2,1.3h3.5v-2.5h-3.5C1619.6,74.8,1619.7,75.3,1619.7,75.7z"/>
	<path d="M1639.5,79.6v-3.6h-3.3c-0.3,1.9-1.9,3.2-4.1,3.2c-2.4,0-4.2-1.5-4.2-3.7c0-2.2,1.8-3.7,4.2-3.7c2.2,0,3.8,1.2,4.1,3.1h3.3
		v-3.8h1.5v8.7H1639.5z M1634.8,75.4c0-1.5-1.2-2.5-2.8-2.5s-2.8,1-2.8,2.5c0,1.5,1.2,2.5,2.8,2.5S1634.8,76.8,1634.8,75.4z
		 M1641,86.8h-10.3v-6.5h1.5v2h7.4v-2h1.5V86.8z M1632.1,85.6h7.4v-2.1h-7.4V85.6z"/>
	<path d="M1660.1,79.7v-3.7h-3.7v3h-7.3v-7.4h1.5v2.5h4.4v-2.5h1.5v3.1h3.7v-4h1.5v8.8H1660.1z M1650.5,77.9h4.4v-2.6h-4.4V77.9z
		 M1661.5,86.8h-10.3v-6.3h1.5v1.9h7.4v-1.9h1.5V86.8z M1652.7,85.6h7.4v-2h-7.4V85.6z"/>
	<path d="M1669.4,80c-2.4,0-4.2-1.7-4.2-4c0-2.3,1.8-4,4.2-4c2.4,0,4.2,1.6,4.2,4C1673.6,78.3,1671.8,80,1669.4,80z M1669.4,78.7
		c1.6,0,2.8-1.1,2.8-2.7c0-1.6-1.2-2.7-2.8-2.7c-1.6,0-2.8,1.1-2.8,2.7C1666.6,77.6,1667.8,78.7,1669.4,78.7z M1667.7,86.7v-5.2h1.5
		v4h9.4v1.2H1667.7z M1676.6,70.9h1.5v11.8h-1.5V70.9z"/>
</g>
</svg>
