<?xml version="1.0" encoding="utf-8"?>
<!-- Generator: Adobe Illustrator 23.0.5, SVG Export Plug-In . SVG Version: 6.00 Build 0)  -->
<svg version="1.1" id="Layer_1" xmlns="http://www.w3.org/2000/svg" xmlns:xlink="http://www.w3.org/1999/xlink" x="0px" y="0px"
	 viewBox="0 0 1920 700" style="enable-background:new 0 0 1920 700;" xml:space="preserve">
<style type="text/css">
	.st0{display:none;}
	.st1{display:inline;}
	.st2{display:inline;fill:#E1E7EF;}
	.st3{clip-path:url(#SVGID_2_);fill:url(#SVGID_3_);}
	.st4{clip-path:url(#SVGID_5_);}
	.st5{fill:#DEE4ED;}
	.st6{fill:#FFFFFF;}
	.st7{fill:url(#SVGID_6_);}
	.st8{fill:#028F37;}
	.st9{fill:#5D6FCC;}
	.st10{fill:#AAAAAA;}
	.st11{fill:#111111;}
</style>
<g id="레이어_1_사본_3">
	<g id="Layer_1_00000132791738984363483430000010898725384829928367_" class="st0">
		<g id="Q4qLPL_00000086682324792106548390000011438722380782341564_" class="st1">
		</g>
	</g>
	<g id="Layer_5_00000089556275555668950420000017662749551967897010_" class="st0">
		<rect x="479.5" y="1" class="st2" width="959" height="350"/>
	</g>
	<g>
		<g>
			<g>
				<g>
					<defs>
						<rect id="SVGID_1_" x="7.5" width="1912.5" height="700"/>
					</defs>
					<clipPath id="SVGID_2_">
						<use xlink:href="#SVGID_1_"  style="overflow:visible;"/>
					</clipPath>
					
						<linearGradient id="SVGID_3_" gradientUnits="userSpaceOnUse" x1="588.4002" y1="653.3794" x2="2674.5991" y2="653.3794" gradientTransform="matrix(1 0 0 -1 0 1381.8898)">
						<stop  offset="1.348126e-07" style="stop-color:#CAD2DB"/>
						<stop  offset="1" style="stop-color:#E1E7EF"/>
					</linearGradient>
					<path class="st3" d="M2673.8,93.5c-3-2.3-5.9-5.8-9.1-6.6c-13.4-3.2-26.9-6.3-40.4-7.9c-15.1-1.8-30.4-2-45.6-2.8
						c-1.8-0.1-3.7,0.4-5,0.6c-0.6,1.7-1.1,2.4-1,2.9c0.8,3.4,1.6,6.7,2.5,10c-8.8,4-8.8,4-19.4-2.4c1.4-2.4,2.8-4.9,4.7-8
						c-5.9-2.1-11.4-3.1-16.6,0.3c-5.7,3.7-11.7,3.6-17.8,3.1c-16.2-1.1-32.4-2-48.6-0.5c-4.9,0.5-9.8-0.9-14.4-1.5
						c-2-10.9-2.6-12.6-7.4-13.9c-6.9-1.9-14-4-21-4c-12.6,0-25.3,1.5-37.9,2.4c-6,0.4-12.3,2.6-17.9-1.7c-4.5-3.5-9.3-4.5-14.3-5.6
						c-2.8-0.6-5.9-2.5-7.8-5.1c-3.5-4.8-7.8-5.7-12.4-6c-7.1-0.4-14.2-0.3-21.3-1c-18.2-1.9-36.3-4.1-54.4-6.2
						c-3.6-0.4-6.8-0.2-10.3,1.7c-3.6,1.9-7.9,1.6-11.8,2.5c-0.8,0.2-1.4,1.5-2.2,2.3c0.3,3.4,0.6,6.9,0.8,9.7c-6.4,0-11.9,0-17.3,0
						c-8.5,0-17.3-1.8-25.6,0.3c-10.4,2.6-19.9,4.2-28.8-5.4c-5,5.6-9.5,10.7-14,15.7c-7.9-1.1-15.3-2.4-20.6-8.7
						c-0.5-7.9-0.9-14.8-1.4-22.7c-8.1-1.7-15.5-4.6-22.9-4.5c-8.2,0.1-16.1-0.5-23.9-3.4c-6.7-2.5-10.7-0.6-16.8,6.5
						c-1,1.2-2.3,2.5-3.5,2.8c-4,0.7-8,1.5-12,1.2c-6-0.4-12.1-2.1-18.1-2.2c-6.5-0.1-12.9,0.7-17.7-6.6c-0.4-0.7-1.9-0.3-3-0.3
						c-13.2,0-26.3-0.1-39.5,0c-2.5,0-5.2,1.4-7.5,0.5c-2-0.8-4-3.4-5.2-5.8c-0.8-1.6-0.4-4.3-0.5-6.4c-2.6-0.4-4.2-0.4-5.6-0.9
						c-1.2-0.4-2.2-1.4-3.6-2.3c4.4-2,8.3-3.4,11.9-5.7c1.5-1,2.9-3.5,3.5-5.7c1-3.7-1.3-6.6-3.4-7.7c-5-2.6-10.3-4.7-15.7-6
						c-16-3.8-32-3-47.7-0.2c-1.6-2.3-2.7-5.1-4.3-5.8c-7.2-3-14.4-6.5-21.9-7.8c-14.8-2.6-29.2-0.4-41.8,11.2
						c-1.6,1.5-3.5,3.4-5.3,3.3c-9.8-0.4-19,3.5-28.4,5.8c-2.4,0.6-5,0.2-7.4-0.5c-9.6-2.6-19.1-2.3-28.7-0.3
						c-9.9,2.1-19.8,5.2-29.8,6.1c-21.6,2-42.6,7.4-64.7,14c3.5,3.1,6.1,5.5,8.8,8c-5.2,4.6-10.7,4.4-16.2,4.5
						c-12.7,0.3-25.3,0.7-37.9,1.6c-2.7,0.2-5.3,2.3-7.8,3.5c2.3,9.8,5.9,15.9,14.2,15.3c1.6-0.1,3.3,2.7,7.5,6.3
						c-5.1,0-7.4,0.9-8.9-0.1c-11.6-7.6-24.6-7.2-36.9-10.6c-2.8-0.8-5.9,0.5-8.9,0.9c-1.1,8.9-8.9,4.1-11.9,8.8
						c0.8,2.7,1.5,4.9,2.8,9.2c-4.4-2.4-7.4-3.9-10.2-5.4c3-15.7,3-15.9-6.2-16.5c0.3,2.7,0.6,5.3,0.8,7.1
						c-5.4,6.1-13.7,0.9-16.7,11.4c2.5,3.5,5.1,7.1,7.6,10.6c-4.3,10.2-4.3,10.2-1.5,20c3.6,0.6,7.4,1.2,11.9,1.9
						c-6.6,5-6.6,5-4.2,15.1c-7,12.2-18.3,14.7-28.2,20.5c-0.8,0.5-2.7-2.2-5.2-4.3c6.2-5.4,11.5-9.2,16-14.2
						c2.3-2.6,3.1-7.3,4.5-10.9c-3.4-2.9-5.8-4.9-8.1-6.8c0-5.8-1.2-11.5,0.3-15.9c2.6-7.9-1.5-11.8-4.6-16.9
						c1.3-5.3,7.4-7.9,4.9-16c-3.9-3.2-9.8-2.9-13.8-8.7c-2.6-3.8-8.1-4.4-11.4-1.5c-5.3,4.7-12.6,5.9-15.9,13.7
						c-3.5,8.2-9,11.6-15.7,13.7c-2.6,0.8-4.9,3.3-7.5,5.1c4.6,7,4.6,7,2.8,20.2c7.8-0.2,14.5,3,19.1,11.3c-4.4,3.7-4.4,3.8-7.4,2.2
						c-15.1-7.8-31-12.1-46.9-15.5s-32.4-1.6-47.6-10.4c-2.2-1.3-4.8,0.6-4.5,5.8c3.6,1.4,7.4,3.3,11.3,4.3c3.8,0.9,6.5,3.4,8.7,7.1
						c0.5,0.8,0.4,2.1,0.7,3.4c-3.7,1.7-7.4,3.4-10.9,5c-2.5-2.7-4.7-5.1-6.5-7c-8.2,2.1-15.6,5-23,5.5c-7.1,0.5-14,0.1-20.8,3.8
						c-1.9,1-5.2,0.3-7-1.2c-1.5-1.3-1.8-5-2.8-7.9c-18.6,5.4-36.8,10.5-54.9,16.3c-3.6,1.2-7.8,1.8-10.1,7.4
						c-2.5,5.9-7.7,5.2-12.2,5.4c-5.4,0.3-9.9-1.5-12.6-7.9c2.6-6.1,10.3,0.3,12.1-8c-7.8-9.1-16.7-7.1-25.7-6.1c0,2,0.1,3.2,0,4.3
						c-0.5,3.1-0.7,6.4-1.7,9.2c-2,5.6,3.5,5.3,3.9,9s-2.5,8.4-5.3,7.5c-5.8-1.8-11.6-5.5-17.7-2.7c-7.6,3.5-15.1,7.4-22.6,11.2
						c-0.7,0.4-1.1,1.8-1.8,3c0.9,2.1,1.9,4.3,3.3,7.6c-3,0.7-5.9,2.4-8.5,1.9c-7-1.4-13.9-3.8-20.8-5.4c-2.9-0.7-6.3-1.1-7,5.8
						c1.8,1.3,3.8,2.9,5.9,4.5c1.7,1.3,5.4-0.2,4.5,5c-7.6,2.8-13.6-3.9-20.3-5.2c-7.8-1.6-11.2-6.9-10.4-15.2
						c0.8-7.6-4.7-8.3-6.9-13.2c2.2-0.2,3.7-0.7,5.1-0.4c11,1.9,22,4.3,33,6c13.8,2.1,27.1,0.5,37.7-11.9c-0.6-8.1-4.4-11-9-12.7
						c-7.8-2.8-15.8-4.8-23.3-8.4c-14.4-7-29.1-10.7-44.4-11.8c-3.4-0.2-7.1-1.1-10-3.1c-5.2-3.5-10.2-5.2-15.9-2.3
						c-1.7,0.9-4,0.2-6-0.2c-4.5-0.8-3.2-4.8-2.7-8.7c-7.3-5.1-16-3.1-23.3-6.6s-12.6-1.6-17.8,4.5c-6.8-6.8-14-7.1-21.7-4.9
						c-4.4,1.3-9,3-13.4,3c-6.1,0-11.5,1-17.2,4.9c-5.9,4.1-13.3,4.9-20.3,3c-5.7-1.5-11-1-15.7,4.1c-1.5,1.6-3.6,2.4-5.6,2.9
						c-4.8,1.2-10.4,0.4-12.1,8.8c-0.1,0.7-2.9,1.3-4,0.6c-6.4-3.5-12.5-2-18.3,1.9c-1.4,0.9-2.2,3.2-3.5,5.3
						c3.2,1.8,5.4,2.9,8.8,4.8c-5.5,5.2-10.2,10-15.2,14.1c-6.7,5.5-13.9,10.2-17.1,20.5c-0.6,2-2.7,4.2-4.5,4.7
						c-4.5,1.4-7.6,5.6-11.4,8.1c-6.8,4.3-11.9,15.1-21.5,10.9c-0.6-0.3-1.8,1-2.6,1.8c-4.2,3.7-8.8,5.8-13.6,7.9
						c-8,3.5-15.5,8.9-23.8,13.9c1,11.3,1,22.1,3.2,32c1.6,7.3,4.8,14.4,11.7,18c9.4,5,17.9,3.8,26.2-2.2
						c6.6-4.8,13.1-9.3,21.4-10.2c6.4,11.7,12.9,23.6,19.4,35.4c-3.2,8.2-11.1,5.4-15.5,10.9c-0.1,2.5-0.3,5-0.4,7.8
						c-2.7-2.9-5.2-5.6-7.7-8.4c-0.2-0.3,0-1.2,0-2.6c1.1-1.2,2.6-2.8,4.3-4.7c-1.2-2.6-2.7-5.1-3.4-7.9c-0.8-3.1,2.8-7.5-1.9-10
						c-5.5,2.2-11.3,4.3-16.9,6.9c-4.3,1.9-6.6,6.4-6.2,12c0.3,3.7,1.5,7.4,2.3,11.1c1.4,6.4,2.8,12.9,4.1,18.9
						c-1.7,1.3-2.6,2.7-3.3,2.5c-9.3-2.2-18,2.7-26.9,4.3c-5.1,1-10.3,4.5-13.4,11.3c-4.9,10.4-12.5,16.5-21.7,19.6
						c-2.9,1-5.8,2.2-9.6,3.6c1,13.5-9.6,10.3-14.2,16c-7.1,8.7-14-0.4-21.1,0.3c0.3,4.7,0.5,8.3,0.8,12.4c-3.5,0.4-7,2.2-9.4,0.9
						c-7.8-4.3-14.7-0.8-23.2,2c2.1,3.6,3.4,6.7,5.3,9c0.9,1.1,2.9,0.9,4.4,1.1c10.8,1.7,18.1,10.4,24.4,20.6
						c1.5,2.4,2.8,5.7,2.9,8.6c0.2,9.5,0.6,19.3-4.5,28.1c-1.9,0.4-3.9,1.2-5.8,1.1c-16.7-0.8-33.5-0.3-50-3.1
						c-9.6-1.6-16.4,1.7-22.9,7.1c1.4,10.8,4.1,20.3,3.6,29.5c-0.6,9.2-4.3,18.2-6.9,27.9c1.9,3.2,4.7,6.3,5.9,10.2
						c1.2,3.8,0.7,8.5,1,13.2c5.2,0,9.7,0.6,14.1-0.2c5.2-0.8,8.8,0.8,11.5,6.7c1.5,3.3,3.5,6.2,5.1,9
						c-4.1,16.7-10.7,29.2-24.5,34.2c-8.5,3.1-11,14.4-15.5,22.8c-3.5,6.7-1.4,13.6-0.3,20.1c-7.6,15.1-15.3,23.2-27.9,28.1
						c-5.3,2-8.2,5.9-11.3,11.6c-6.1,11.3-15.8,19.6-17.5,34.7c-0.2,1.6-1.9,3-3,4.2c-8.6,9.7-11,24.2-17.3,35.8
						c-1,1.9-0.6,4.9-0.8,7.6c2.8,4,5.4,7.8,8.1,11.7c-1.8,6.4-2.1,12.2,0.3,18.6c1.6,4.4,2.1,10.1,1.6,15
						c-0.8,6.9-3.8,13.4-4.3,20.3c-0.6,8.2-5.1,13.4-8.6,20.1c8.6,8.8,4.6,20.8,6.1,31.1c9.1,10.6,17.8,21.3,27,31.2
						c5.3,5.6,9.2,11.4,10.1,20.5c0.5,4.8,3.3,9.2,4.1,11.4c11.6,10.1,22.1,18,31.4,27.7c7.6,7.9,15.4,14.5,24.8,17.6
						c1.6-0.7,3-1.3,4.4-2c15.8-9.2,31.9-11.8,48.9-5.6c3.1,1.1,7,0.3,10.2-0.9c9.1-3.6,18.5-6.9,26.9-12.3c6.7-4.3,13.4-5,20.5-5.9
						c12.2-1.6,22.1,1.1,26.1,18.5c1.6,7,6.3,9.8,12.1,8.8c7-1.2,14-2.4,21-3.7c2.5,2.9,4.4,6.1,6.9,7.9c5.7,4.2,7.2,10.2,6,18
						c-1.8,11.9-3.2,23.9-5.3,35.7c-0.7,4.1-3,7.8-4.6,11.9c2.9,10.4,7.3,19.5,13.7,27.3c10.6,12.9,21.6,25.7,23.7,45.8
						c0.2,1.8,1.7,3.3,2.2,5c2.8,10.4,10.3,19.7,5,32.2c1.7,6,3.5,12,5.3,17.9c3.1,10.3,3.7,20-3.6,28.1c-4.7,5.2-7.5,12-9.2,19.6
						c-1.7,7.4-3.8,14.6-5.1,22.1c-2,11.9-4,24.3,1,35.7c7.4,16.8,15.4,33.2,23.1,49.8c1.3,2.7,3.2,6.1,2.8,8.7
						c-1.9,14,3.2,26.5,4.6,39.8c1.6,15,5.3,28.7,15.1,38.8c2.6,2.7,5,6.8,6.2,10.8c3.3,10.9,7.3,21.2,12.8,30.6
						c3.5,6,2.8,11.9-1.7,17c2.3,6.1,4.4,11.7,6.3,16.6c5.2,3.3,9.6,6.2,13.6,8.7c14.3-4.6,27.8-10.9,42.1-9.6
						c21.5,2,39.4-7.1,55.2-25c8.7-9.9,17.3-19.7,22.9-33.1c1.6-3.8,4.3-7.4,7.2-9.8c5.7-4.6,7.5-11.4,9.6-18.9
						c2.4-8.7,2.3-17.3,0.8-27.1c6.7-3.5,12.6-6.7,18.7-9.7c6.2-3,9.5-7.4,10-16.9c0.5-10.6,0.2-20.3-3.3-30
						c-1.8-5.2-3.2-10.6-4.8-16.4c3-3.9,5.7-7.7,8.7-11.1c3.4-3.8,7.3-6.8,10.7-10.6c3-3.4,5.4-7.7,8.5-10.9
						c2.3-2.4,5.3-3.6,8.1-5.2c2.8-1.5,5.7-2.6,8.5-4.2c7.7-4.4,12.7-12.5,17.1-21.3c3.7-7.3,2.3-14.7,0.6-22.3
						c-0.8-3.6-0.4-7.7-0.5-11.5c-0.3-10.9-0.6-21.8-1-33.2c-5.6-4-7.5-11.1-9.8-18.4c-2.3-7.1-2.3-14.5-1.3-20.5
						c1.2-7.3-1.6-10.7-4.1-15.3l0.4,0.3c0-0.2,0-0.4,0-0.6c1.1-0.8,2.2-1.5,3.4-2.3c-1.1-1.5-2.2-3-3.3-4.5c0-0.4,0-0.7,0-1.1
						c-0.2,0.1-0.3,0.2-0.5,0.3c0.2-2.5-0.3-5.5,0.6-7.5c7.1-15.1,9.9-33.7,22.8-44.2c3.2-2.6,5-7.9,7.5-11.9
						c9.5-15.2,19.7-29.7,33.1-39.4c12.7-9.1,22.9-21.8,30.7-36.7c10.6-20.2,20-41.6,28.6-63.4c4.1-10.3,7.6-22.3,3.6-34.6
						c-1.2-0.3-2.5-1.2-3.1-0.7c-8,6.2-17,7.4-26,9.2c-10.8,2.2-21.7,4.3-32.1,8.5c-7.7,3.2-12.7,1.3-17.2-6.2
						c-1.5-2.5-3.2-5-4.6-7.2c0.7-4.4,1.4-8.6,2.1-12.8c7.9-0.7,16-0.5,22.8-7.5c2.1-2.2,5.7-2.2,8.6-3.3c4.3-1.7,8.6-3.3,12.9-5.1
						c13.3-5.5,25.3-15.4,39.2-19.3c4.4-1.2,8.7-3.9,10.1-10.4c0.9-4.4,3.8-5.9,6.5-7.3c3.8-1.9,7.6-3.7,11.5-4.8
						c6.1-1.8,13.4-0.3,16-10.8c0.3-1.1,2.8-1.1,4.1-2c2.6-1.8,6.3-3.1,7.3-5.9c2.6-6.9,7.9-7.4,12-10.3c0.9-5.7,1.7-11.2,2.5-16.4
						c2.7-0.8,5.5-0.6,6.5-2.1c4.8-8,9.1-16.4,13.6-24.7c-6.6-10.7-12.9-20.1-24.2-21.9c-7.2-1.1-10.9-8.7-12.1-17.7
						c-0.5-3.7-0.4-7.6-0.7-13.3c-4,4.2-7.1,7.2-10,10.5c-13.7,15.8-13.7,15.8-32,17.3c-0.5,0-1,0.2-1.5,0.2c-4.8,0.2-7.3-2.8-7-9.4
						c0.3-6.2,1-12.3-3.1-17.8c-3.3,3.3-5.8,5.9-11,11.1c2.4-15.4-4-22.2-10.2-28.8c-6.5-7-9.5-16.2-11.8-25.7
						c10.8-14.4,18.3-14,25.6,0.8c2.9,6,5.6,12.2,7.5,16.2c6.3,4.7,11.3,7.8,15.7,12c11.1,10.7,22.9,11.7,35.6,5.4
						c2.2-1.1,4.5-1.9,6.8-2.9c2.1,6.1,3.9,11.3,6.2,17.8c15.3,2.9,30.7,5.9,46.2,8.6c2.4,0.4,5-1.1,7.5-1.3c14.1-1,28.2-1.8,41-2.6
						c7.5,6.5,9,17.1,16.4,21.7c6.6,4.2,12.3,10.6,18.2,15.8c-1.6,1.2-3.6,2.6-6.4,4.7c3.7,4.8,6.8,9,10,13
						c9.1,11.3,12.4,7.5,20.2,2.3c2.4-1.6,4-5.5,5.9-8.2c2.6,6.8,5.6,13.5,2.9,21.7c-0.7,2.1-0.1,5.1,0.3,7.5
						c2.2,13.9,3.2,28.3,7,41.4c5.3,18.6,12,36.6,18,54.9c4.3,12.9,10.2,24.8,13.1,38.7c1.2,5.8,5.2,10.8,8.4,15.6
						c2.2,3.3,6.2,3.3,8.1,0c3.5-6.1,9.1-10.3,11.6-16.4c2.5-6,6.5-9.4,9.9-14c-0.2-9.7-1.4-19.2,3.1-28.2c1.7-3.2,0.9-8.7,0.8-13.1
						c-0.2-5.1-0.9-10.2-1.4-15.3c-0.7-7.2,0.6-11.9,7-14.5c5.5-2.2,11.9-5.7,15-11.2c3.1-5.6,7-8.8,10.8-12.8
						c4.7-4.9,9.6-9.6,13.6-15.3c4.5-6.4,9.3-11.5,15.8-14.3c5.6-2.4,9.2-7.6,9.7-15.7c0.1-1.8,1-3.5,1.3-4.6
						c5.4-5.3,11.1-2.7,16.5-3.1c5.5-0.4,11-2,16.3-3.9c5-1.8,9.8-4.8,15.6-7.6c1.7,14.3,6.1,26.2,15,33.1c4.5,3.5,4.1,7.8,5.8,12.1
						c1.9,4.9,7.6,6.5,8,13c0.3,5.1,0.3,10.2,0,15.2c-0.3,3.7-1.4,7.3-2.2,11.7c5.6,4.1,10.4,6.2,15.9,1.7c5-4,10.1-7.8,15.7-12.1
						c7.2,17.1,7.2,35.7,13.1,52c2.5,7,0.1,16.3,1.1,24.8c1,8.4-1.6,17.5-2.4,26.3c-0.5,5-0.5,10-0.8,14.9c2.9,0.8,5.7,0.4,6.6,1.9
						c6.4,10.3,13.3,19.6,15.4,33.7c2.9,20,9.9,37.6,25.3,47.5c2.7,1.7,5.5,3.7,7.5,6.5c1.9,2.6,2.9,6.1,4.3,9.3
						c2.3-0.9,4.6-1.9,7.4-3.1c-2-6.7-3.2-14.4-6.4-20.3c-3.7-6.9-5.7-13.6-4.4-21.6c1.4-8.5-0.9-15.3-5.8-20.7
						c-6-6.7-11.2-14.8-19.2-18.1c-4.3-1.8-6-5.8-7.4-11.1c-1.8-7.2-3.5-16-7.7-20.1c-4.9-4.8-5.2-9.4-3.8-14.7
						c3.2-12.8,7.6-25.1,9.3-38.6c0.1-0.9,1.4-2.3,2.1-2.3c1.3,0.1,3.3,0.7,3.8,1.9c1.3,3.2,0.8,8.1,4.9,8.5
						c9.6,1,15.7,7.8,18.8,18.9c1.6,5.7,5.6,7.2,8.8,9.9c2.8,2.3,6.4,3.2,9.7,4.8c0.3,6.8,0.7,13,1.1,20.9c6.5-5.2,13.8-8.1,17-14.3
						c4.1-8,10-10.1,15.5-14.2c2.6-2,5.1-4.2,7.8-6c3.4-2.3,5.4-5.7,6.2-10.4c3.9-22.3,0.7-43-12.6-58.5
						c-7.5-8.7-14.4-17.6-20.4-27.8c-5.2-8.7-5.3-13.9,0.6-21.9c4.4-6,10.1-10.2,15.2-15.2c7.1-6.9,13.3-8,20.8-2.3
						c0.9,4.8,1.8,9.7,2.6,14.1c-4.1,3.9-8,7-11.3,10.8c-3.5,4.2-2,11.5,2.5,14.4c3.4,2.2,6.5,1.9,10-0.4
						c6.1-3.8,7.4-11.7,10.3-17.8c-0.2-1-0.2-1.7-0.4-2.2c-0.5-1-1.3-1.9-1.9-3c-3.7-7.1-2.6-14.9,2.9-17c7.7-3,15.7-4.5,23.3-7.6
						c9.5-3.9,18.1-11,28.5-11.5c1.9-0.1,4.1-1.3,5.6-2.7c10.9-10.3,21.7-20.8,32.4-31.4c1-1,1.6-3,1.8-4.7
						c1.6-12.9,8.9-21.2,15.2-30.3c4.6-6.5,9.3-17.7,11.3-29.3c-1-0.2-1.9-0.3-2.9-0.6c-6.3-1.8-6.3-1.8-2.3-8.5
						c2.8-4.8,3.8-12.1,0.7-15.5c-7.1-8-10.7-18.4-14.8-28.7c-0.9-2.1-2.7-3.7-4.3-5.3c-2.1-2.2-4.4-4.2-7.8-7.3
						c6.5-6.7,12.2-11.9,17.2-18c5.2-6.2,13.5-4,19.4-12.2c-7.8-2.9-14.3-5.3-21.7-8c-2.3,2-5.2,4.5-8.1,7c-4.7,3.9-6.4,3.3-7.9-4.4
						c-0.7-3.7-1.9-5.6-4.5-6.4c-2.5-0.7-5.1-0.7-7.4-1.9c-3.7-1.9-3.7-5.5-1.3-10.3c7.1,1.8,12.7-1.1,18-8.8
						c4.1-6,10.5-9.7,16.2-13.6c3.8-2.6,7.8-2.3,10.4,4.5c-2.8,5.9-11.1,9.9-5.3,21.3c11.9-7.4,24.1-20.1,38.8-6
						c-1.7,5.5-3.3,10.7-4.7,15c2.6,6.3,6.2,5.1,9.8,5.3c5.7,0.2,6.5,2.1,6.4,9.6c0,3-0.2,6.3,0.6,9c1.4,4.7,1,8.7-0.7,13
						c-1.3,3.3-2.4,6.7-3.9,10.9c2.8,1.8,5.3,4.8,7.1,4.2c8.3-2.8,16.4-6.1,24.4-10.1c4.6-2.3,6.3-7.6,6.1-14.2
						c-0.3-8.5-0.9-16.5-5.8-23.2c-5.1-6.9-9.6-14.5-14.3-21.6c0.5-6,4.5-6.2,7.4-8.4c6.6-5,15.8-7,15.8-20.6c0-2.4,2.8-5.3,4.9-7
						c5.5-4.5,11.3-8.5,15.9-11.9c6.5,1.3,12,4,17.2,3.1c7.5-1.3,15-5.3,20.2-12.5c12.4-16.9,28.5-29,38.7-48.7
						c1.9-3.7,4.5-7.1,7.4-9.6c4.6-3.9,6.7-9.6,7.8-15.9c0.9-5,1.3-10.1,1.5-15.2c0.2-9.1,3.4-15.8,9.4-20.7c3.3,3.4,7,6,6.8,11.9
						c-0.7,19.1-1.7,38.2-2.4,57.3c-0.1,2.8,0.5,5.7,0.9,9.3c3.4-3,5.8-5,8.2-7.1s5.4,5,7.6-0.7c-3.2-5.8-6.3-11.5-9.5-17.5
						c2.6-6.2,4.9-11.7,6.9-16.5c4.4-0.9,7.6-1.6,11.3-2.3c-3.2-10.8-6.1-20.4-8.9-30c-0.8-2.9-1.8-6.1-1.8-9.1
						c-0.1-15,0.1-15-6.4-27.8c-0.7,3.1-1,8.2-2.1,8.5c-6.4,2-6.6,8.5-8,14.5c-0.2,0.7-1.4,1-2.9,2c-0.6-3.9-1.2-7.5-1.9-12
						c-5.1-3.9-10.4-9.2-16.3-12.1c-7.5-3.6-13,4.7-19.4,8.1c-1.3-3.2-2.4-6-3.5-8.7c-2.3,0.6-4.6,1.2-6.8,1.8
						c-0.7-2.3-1.2-4-1.6-5.6c-3.6-3.4-8.9,1.4-12.4-4.5c2.1-1.8,3.7-3.3,5.4-4.5c9.7-6.9,19.9-12.7,28.3-22.4
						c1.5-1.7,3.5-2.7,5.2-3.9c5.8-3.9,11.3-8.1,16.7-13.1c11.1-10.2,23.3-17.4,38.1-15.3c11.4,1.6,23,1.4,34.5,0.6
						c5.8-0.4,12.1,2.4,17.4-3.8c1.4-1.6,4.9-0.9,7.4-0.5c4.4,0.7,8.8,1.9,13.2,2.8c0.4,2.5,0.7,4.9,1.3,8.3
						c6.1-1,12.2-1.3,17.9-3.3c6.1-2.1,13.2,3.4,18.7-4.4c-1.6-1.9-3-3.6-4.9-5.9c2.3-2.5,4.4-5.2,6.8-7.2c4.3-3.4,9.5-5.4,13-9.7
						c8.7-10.9,19.8-8.6,30.1-10c3.6-0.5,8.2,1.5,8.7,9.6c0.4,5.6,5,6.6,9.9,3.8c7.7-4.5,15.4-9.1,23.9-14.2c2.7-8,2.7-8,10.7-7.1
						c-1.8,5.5-3.1,10.9-5.3,15.6c-1.2,2.5-3.7,4.9-5.9,5.4c-12.5,2.9-22.4,12.7-32,21.3c-10.2,9.2-20.7,15.6-31.5,18.9
						c-2.5,4.1-3.8,7.9-6.2,9.8c-10.9,8.8-11.9,21.2-8.8,35.5c2.9,13.6,5.6,27.3,8.7,40.8c0.5,2,2.4,3.4,3.7,5.1
						c8.4-5.6,15.9-10.4,19.2-22c0.8-2.7,4.5-4.8,7.2-5.9c3.8-1.5,5.9-3.5,6.5-8.9c0.7-5.7,4.7-8.1,8.8-9.1c2.9-0.7,6.1-0.1,9-0.9
						c2.3-0.7,4.2-2.2,3.7-6.6c-1.5-12.9-0.8-13.5,9.3-14.7c1.3-0.2,2.6-1.1,4-1.7c-3.3-11.9-3.3-11.9-1.6-21.3
						c-1.4-0.5-2.9-1-4.3-1.4c-1.8-0.4-3.6-0.7-6.4-1.2c4.3-11.1,14.3-14.1,16.2-25.9c5.8,0,11.4,1.8,15.7-0.5c5.2-2.8,9-1.5,14-0.4
						c4.3,0.9,9.2-4.7,14.1-5.8c9-2,18.1-2.6,25,6.4c15.6-10,30.3-19.7,46.6-24.9c15.1-4.9,29.7-13.5,46-7.3
						c2.8,1.1,5.9-1.4,6.3-7.4c-4.3-6.5-8.9-13.6-13.4-20.3c6.2-2.8,12.8-5.8,19.4-8.8C2673.8,127,2673.8,110.3,2673.8,93.5z
						 M1143.2,398.1c2.3-2.4,4.9-4.9,7.7-5.9c7.3-2.5,14.7-4.2,22.1-6.2l-0.1,0.1l0,0c-0.3,7.8,0.1,16-6.9,20.7
						c-6.8,0-13.8,0.2-20.8-0.2c-1.1-0.1-2.6-2.1-3-3.6C1141.9,401.6,1142.4,399,1143.2,398.1z M1100,392.8
						c6.2,2.7,12.7,5.5,19.1,8.3c-0.4,2.3-0.9,5.1-1.4,7.9c6,0.7,6.9,8.1,9.9,13.3c4.7-2.3,8.7-4.7,13-6.3c9.3-3.6,18.6-6.7,27.4,2
						c14.2,4.1,24.3,18.2,37.5,24.8c3.8,1.9,5.6,7.1,5.7,13.8c-4.5,6.9-11,9.7-18.3,9.7c-23.8-0.1-23.9,0.2-47-9.6
						c-12.7-5.4-25.1-6.1-36.5,2.4c-9.7,7.1-19.4,5.4-29.4,4.3c-8-0.9-13.1-6.2-15.2-16.1c0.4-1.7,0.4-4,1.3-5.3
						c4.7-6.6,8.4-13.9,10.8-22.3C1086.8,413.7,1089.2,397.5,1100,392.8z M1077.3,470.1c-6,7-10.4,2.9-16.5,1
						C1067,466.8,1071.4,466.5,1077.3,470.1z M888.6,282.9c2.9,0.5,6,0.1,9.8,0.1c1.9-3.7,4.1-7.8,6.2-11.9
						c6.8,3.5,12.9,7.2,18.7-2.4c1.8-2.9,6.1-3.6,9.4-4.7c4.7-1.6,9.5-2.8,15-4.3c-0.3-4.2-0.6-7.1-0.6-10.1
						c-0.1-13.3,2.7-18.6,12.5-22.5c7.6-3,7.7-2.7,11.8-12.7c-1.8-7.4-7.2-8.1-11.8-10.6c-6.8-3.7-7.1-5.6-4.8-14.7
						c1.5-5.9,4.1-9.6,8.1-13.1c6.8-5.9,14.3-9.6,22-12.8c6.4-2.6,12.1-6,13.1-16c0.2-2.2,1.8-5,3.4-5.9c11.3-6.1,22.9-9,36.3-2.2
						c-12.1,16.2-26.8,23.5-42.1,31c-0.2,3.4-1.3,7.6-0.3,10.7c2.5,7.6,2.3,14.9,0,22.4c9.7,10.1,20.4,11.7,31.7,9.3
						c7.5-1.6,14.9-3.9,22.4-5.3c6-1.1,12.1-1.7,18.2-1.3c3,0.2,6,3.1,9.5,5c-9.3,6.9-18,7.4-27.3,6.5c-10.9-1.1-22.1-1.6-32,7.5
						c-2.2,2-6.4,0.3-9.8,0.3c-1.8,3.5-3.4,6.6-5.2,10.2c1.5,1.5,3,2.9,4.5,4.4c-1.1,1.2-2.2,2.6-3.5,3.4
						c-8.2,5-12.3,12.8-10.7,24.7c0.3,2.5,0,5.1,0,8.4c-3.7,1.6-8.2,2.1-11,5.1c-5.5,5.8-10,7.8-15.9,1.1c-1.5-1.7-4.8-1.8-7.1-1.3
						c-5,1.1-9.8,3.2-14.7,4.7c-5.9,1.9-11.8,3.6-17.7,5.5c-5.6,1.8-9.9-0.6-12.7-7.1c-3.9,0.9-7.9,0.5-10.7,2.7
						c-8.7,6.7-15.9,0.6-25-2.2C882.4,279.5,885.5,282.4,888.6,282.9z M1027.9,244.4c-1.1,5.9-5.2,9.1-8.7,6.4
						c-4.1-3.2-7.8-7.2-11.7-10.9c2.6-5.2,7.2-5.5,11.3-7.8c3,2,6,4,8.8,5.9C1027.7,240.7,1028.2,242.7,1027.9,244.4z M974.2,427.6
						c-1.1,0.7-2.2,1.7-3.4,2c-0.5,0.1-1.2-1.3-1.9-2.1c1.4-1.3,2.7-2.6,4.1-3.9C973.4,424.7,973.7,425.8,974.2,427.6z M967.8,435.6
						c-0.9,1.5-1.5,3-2.5,4c-0.4,0.4-1.5-0.4-2.3-0.7c0.6-1.4,1.1-3,2-4.1C965.3,434.4,966.6,435.2,967.8,435.6z M1109.1,595.7
						c-7.5-4.8-15-3.6-21.7,1.9c-5.2,4.2-10.2,3.8-15.9,2.3c-10.4-2.7-20.3-8.8-31.2-7.4c-8-8.1-19.2-5.3-27.6-14.1
						c-7.2-7.4-21.2-3.3-28.1,5c-2.8,3.4-2.9,7.3-2.4,12.3c1.2,10.7-6,17.3-13.3,12c-8.6-6.2-17.5-10-27.2-11.4
						c-3.9-0.5-6.2-3.8-7.4-8.5c-1-4-3.3-6-6.5-7.2c-6.8-2.5-13.3-5.9-20.7-4.8c-6.4,0.9-12.9-2-16.6-7.6c-3.3-4.9-6.6-4.6-10.3-5.5
						c-0.6-0.2-0.9-2.1-1.7-4.2c2.5-2.6,5.3-5.1,7.7-8.1c3-3.9,2.7-7.6-0.5-13.4c-0.8-1.5-1.6-3-2.4-4.5c1.5-3.5,2.9-6.7,4.2-9.8
						c-0.8-0.8-1.3-1.7-1.5-1.6c-5.7,3-8.1-7.4-13.5-5.4c-4.4,1.6-8.6,3.8-13.1,5c-2.3,0.6-5-0.8-7.4-0.7c-6,0-11.9-1-17.9,1.6
						c-3.2,1.4-6.9,0.8-10.4,0.9c-5.5,0.1-11.1-0.4-16.6,0.2c-7.5,0.8-15.3,1.4-22.5,4.1c-9.1,3.4-18.1,8-26.5,13.7
						c-5.8,4-10.8,5.4-17.2,3.5c-4.8-1.4-10,0.1-15-0.1c-5.5-0.2-9.8-2.7-10.8-10.7c2.7-6.1,7.5-6.7,11.7-7.7
						c3.4-0.9,7.1-0.4,10.6-0.5c6.1-0.2,12.3-0.4,16.2-7.9c8.3-3.1,12.1-12.6,17.8-19.3c-0.9-4-1.7-7.6-2.6-11.5
						c6.6-10,12-20.7,23.4-22.9c4.2-0.8,8.1-5,12.5-7.9c0-5.2,0-10.2,0-15.3c4.1-5.4,9.1-7.2,15-4.9c2.4,0.9,5.1,0.7,7.4,1.9
						c6.8,3.6,12.4,2.2,18.4-3.4c4.8-4.5,10.5-7.3,16-10.4c1.7-1,4.1-1.2,5.9-0.7c3.4,1.1,6.6,3,10.3,4.7c5.9,19.5,19.4,29,33.3,36
						c9.1,4.6,15.9,12.9,24.5,17.9c1.9,1.1,3.1,4.9,4.1,7.8c2,5.6-0.3,12.9-5.1,13.5c-7.4,1-14.5,6.7-22.3,1.9
						c-2.1-1.3-3.3,0-9.9,4.8c8.5,7.8,18.1,11,28.2,16.1c1-5.8,1.8-10.5,2.5-15c3.9-2.3,7.8-3.8,10.9-6.7c3.1-2.9,5.3-7.3,8.6-12
						c-1.6-3.1-3.4-6.7-5.2-10.3c0.9-4.4,3-6.7,6.6-5.4c3.7,1.4,7.2,3.4,11.6,5.5c-0.3-2.8,0.1-5.3-0.7-6c-2.7-2.7-6-4.6-8.7-7.4
						c-4.9-4.9-13.6-2.5-15.6-13.1c-0.2-0.9-2.6-1.5-4-1.5c-8.5,0.2-15-4.2-18.2-14.1c-3-9.5-11.2-10.6-16.4-18
						c0.3-3.8,0.6-8.2,0.9-13.3c2.7-1.1,5.5-2.3,8.4-3.5c2.1,3.3,3.6,6.7,5.8,8.9c2.3,2.3,6.1,2.6,7.9,5.3c5,7.7,12,11.5,18.1,17
						c4.3,3.9,8.9,6.1,13.8,7.5c7.6,2.2,14.2,6.5,18.9,13.4c2.6,7.4-2.7,14.7,1.8,21.2c3.3,4.7,5.4,10.8,10,14.1
						c0.5,0.4,0,3-0.1,4.6v-0.1c7.3,5.7,9.9,15.4,12.8,24.9c3.8,1.5,7.6,3,12.2,4.8c3-10.1,9.3-15.8,16.9-20.5
						c-4.7-11.3-15.5-15.3-18.1-27.7c2.5-3.2,4.5-0.4,6.7,0.8c2.6,1.4,5.8,1,6.5-2.3c1.5-6.8,5.9-5.5,9.5-7
						c5.4-2.2,9.9-0.7,14.1,3.7c-0.8,6.2-1.5,12.2-2.3,18.2c2.8,1.5,4.9,2.7,7.9,4.4c-1.9,2.1-3.3,3.6-5.1,5.5
						c4.7,6.1,10.7,11.1,10.9,21.1c0,1.5,3.4,2.6,4.7,4.4c0.9,1.2,1.1,3.3,1.8,5.6c1.7-2.9,3.3-5.5,5.4-9
						c8.8,6.4,17.9,15.2,26.3-1.4c4.5,2.4,9.3,3.6,12.6,7.1c5.7,6.1,11.9,6,16.9,1.8c7.3-6.1,14.6-5.9,22.9-4.5
						c0,6.9,0.2,13.8-0.1,20.8c-0.1,3-0.9,6.2-1.8,9c-3.3,10.1-6.9,20-10.3,30c-2.7,7.8-6.8,12-14.1,11.7
						C1118.7,597.8,1113.8,598.8,1109.1,595.7z M1219.3,837.3c-6.8-8.6-13.6-17-22.1-23c-6.1-4.3-11.3-10.5-12.2-20.7
						c-0.9-10.8-5.2-19.4-12.6-25.2c-4.8-3.8-6.7-9.2-6.9-16.1c-0.1-3.9-0.3-7.7-0.5-11.6c-0.6-10.7-3.7-19.7-10.4-26.7
						c-2.6-2.7-6.6-6.3-6.7-9.6c-0.4-12.5-7.2-20.9-10.9-31.1c-3.3-9.2-7.1-18.2-11.2-28.6c6.1-1.2,10.8-2.1,15.8-3.1
						c9.4,12.9,16.3,27.7,22.8,42.8c1.4,3.2,3.3,6.6,5.7,8.4c8.8,6.4,12.3,16.1,12.8,28.5c0.5,10.7,3.3,20,11.6,25.3
						c2.6,1.7,5.7,4.3,6.7,7.5c4.5,13.1,11.9,23.7,18,35.3c1.9,3.6,4.1,8.8,3.4,12.3c-1.8,8.9,1.4,16.3,2.8,24.2
						c1.2,7.2,2.6,14.4,3.9,21.6C1226,844,1222.3,841.1,1219.3,837.3z M1331,469.2c-2.9,3.3-4.6,7-1,11.2
						c8.9,10.3,11.2,23.1,9.1,38.9c-11.6,5.7-23.3,9.3-35.3-1c-2.8-2.4-6.3-3.9-9.6-5.3c-5.4-2.3-7.3-8.1-5.8-13.7
						c2.1-7.6,5.5-14.7,8.7-21.8c0.6-1.4,2.6-1.7,4.1-2.6c-9.8-8.3-16.8-20.1-24.6-30.7c-1.3-1.7-2-4.4-2.6-6.8
						c-2.4-10.7-3-12.7-6.7-18c2.5-7.3,6.5-12.4,12.5-15.6s11.7-7.5,17.6-11.1c7.4-4.5,14.8-8.1,23.4-4.7c2.7,1.1,5.9,0.2,8.6,0.2
						c2.3,11.8,1,17.4-5.5,18.1c-6.6,0.7-11.5,3.4-15.4,10.1c-1,1.8-3.5,2.2-5.3,3.3c6.8,9.4,10.9,22.2,21.9,24.2
						c0.4,5.5,0.7,10.3,1,14.3c3.8,2.2,3.7-1.5,5-2.8c3.7-3.6,6.5-3.4,9.2,0.4c2.3,3.3,4.3,6.8,6.4,10.2
						C1342.1,473.6,1336.1,466.7,1331,469.2z M1649.3,62.7c-0.1-0.4-0.3-0.9-0.4-1.3C1649.1,61.8,1649.2,62.3,1649.3,62.7
						L1649.3,62.7z"/>
				</g>
			</g>
		</g>
		<g>
			<g>
				<g>
					<defs>
						<rect id="SVGID_4_" x="7.5" width="1912.5" height="700"/>
					</defs>
					<clipPath id="SVGID_5_">
						<use xlink:href="#SVGID_4_"  style="overflow:visible;"/>
					</clipPath>
					<g class="st4">
						<g>
							<g>
								<path class="st5" d="M1132.6,387.2"/>
								<path class="st5" d="M1561.6,40.1c0.1,0,0.3,0,0.4,0c0-0.2,0-0.4-0.1-0.6L1561.6,40.1z"/>
								<path class="st6" d="M1334.5,64.3c6.8,2.7,13.3,5.6,20.4,5.9c15.6,0.7,15.6,0.8,20.8-3.1c-6.4-6-17.3-5.7-17.7-21.7
									c14.9-11.1,28.8-25.1,46.6-29.8c2-0.5,4-1.4,5.7-2.7c7.1-5.5,15.2-6.9,23.2-8.3c9-1.6,18.1-2.6,27.1-4.4
									c10.5-2,21-4.4,31.4-6.9c2.2-0.5,4.1-2.5,9.1-5.7c-13.4-6.7-23.4-3.7-33.1-0.4c-10.4,3.5-20.9,6.7-31.4,5.7
									c-13.9-1.4-27.2,2.8-40.7,4.9c-10.9,1.7-21.4,7.1-32,11c-1.3,0.5-2.3,2.3-3.4,3.5c-2.3,2.5-4.3,6.1-7,7.2
									c-8.2,3.6-13.7,12.4-21.4,17.1c-2.6,1.6-5.4,3.1-6,7.8c-0.2,1.6-3,2.8-4.7,3.8c-2.1,1.3-4.3,2.2-7.9,4
									C1320.3,60.7,1327.6,61.5,1334.5,64.3z"/>
								<path class="st6" d="M667.3,325.4c5,0.2,10-0.5,14.9-1.8c5.4-1.4,10.6-4.1,15.9-5.9c5.9-2,10.2-5.9,8.6-12.9
									c-2.2-9.6,3.9-13.6,6-19.6c-1.5-2.8-2.7-4.9-3.7-7.1c-0.4-0.8-0.4-1.9-0.4-3c0.2,0,0.3,0,0.5,0c0-0.3,0-0.5,0-0.8
									c2.7-0.3,5.5-0.7,8.1-1c0.5,3.4,0.8,5.8,1.3,9.1c4.5,0.4,8.9,0.7,12.8,1c2.2,3,3.9,5.3,5.5,7.8c2.2,3.6,1.5,8.1-1.7,9.1
									c-2.9,0.9-6,0.5-8.9,1c-0.8,0.1-1.5,1.3-2.6,2.2c0.9,3.2,1.9,6.5,2.7,9.2c-1.9,6-8.2,3.4-9.5,10.4c3.9,1.1,7.6,2.1,12.1,3.4
									c-5.1,6.1-9.6,11.5-14.9,17.8c7-0.7,13.6,1.1,17.4-2.3c6.8-6,13.6-3.2,20.4-4.2c7-1,14.2-0.6,21.2-1.6
									c3.8-0.6,7.4-2.8,10.6-4.2c0.6-5.5,0.1-9.3,2.8-13.2c4.7-6.9,3.2-10.6-4.2-12.7c-2.4-0.7-4.8-1.1-6.6-1.5
									c-4.7-9-7.6-18.3-15.7-21.7c-1.3-0.5-2.8-2.3-3.2-3.9c-1.8-9-9.3-11.2-13.3-17.2c2.9-5.8,5.4-11,8.3-16.8
									c-6.8-4.3-13.9-0.7-20-5c7-8.2,7-8.2,8.7-17.7c-3.7,2.8-6.7,6.1-10.2,7.5c-3.7,1.5-7.9,1-11.9,1.4c-2.7,3.3-5,6.8-7.8,9.3
									c-3,2.6-6.5,4.2-10,6.4c6.8,6.8,4.9,14.9,3.5,22.8c1.5,1,3.7,0.9,4.5,2.8c0.2,0.5,0.3,1.1,0.4,1.9c-0.2,0-0.4,0-0.6,0.1
									c0,0.2,0,0.5,0.1,0.7c-3.9,0-7.8,0.4-11.6-0.1c-8.8-1.1-16,1.5-19.6,12c-4.5,0.6-8.4,1.2-12.1,1.7
									c-0.4,6.1-2.5,11.3,2.4,14.7c1,0.7,1.5,2.8,2.1,4.2c-3,4-5.6,7.6-9,12.1C663.5,322.2,665.3,325.3,667.3,325.4z"/>
								<path class="st6" d="M1281.7,90.1c-0.2,3,3.9,7.1,6.6,5.9c4-1.8,9.2-0.5,13.4-9.6c-6.1-0.7-10.4-1.6-14.8-1.6
									C1284.6,84.8,1282,86.2,1281.7,90.1z"/>
								<path class="st6" d="M757.3,210.4c1.1,0,2.2-1.6,3.8-3c-1.2-1.7-2.2-3.9-2.7-3.7c-1.3,0.5-2.7,1.8-3.2,3.2
									C754.9,207.5,756.5,210.3,757.3,210.4z"/>
								<path class="st6" d="M1608.7,42c0.4-1,0.8-2,1.5-3.6c-1.1-0.6-2.1-1.4-3.2-1.7c-0.3-0.1-1.3,2.2-1.2,2.4
									C1606.6,40.3,1607.6,41.1,1608.7,42z"/>
								<path class="st6" d="M697.2,239.3c1.7,0.1,3.6,0.9,5.1,0.2c1-0.4,1.5-2.8,3.5-6.9c-4,1.3-5.6,1.3-6.6,2.3
									C698.2,235.8,697.8,237.8,697.2,239.3z"/>
								<path class="st6" d="M700.7,182.1c-0.8-0.5-1.9-1.7-2.2-1.5c-1.1,1-1.9,2.5-2.8,3.8c0.8,0.6,1.6,1.2,2.9,2.1
									C699.4,185,700,183.5,700.7,182.1z"/>
								<path class="st5" d="M1638.2,7c0-0.3,0-0.8-0.1-1.1c0-0.1,0-0.1-0.1-0.1c-0.8-0.3-1.6-0.4-2.4-0.5c0.1,0.8,0.1,1.5,0.2,2.3
									C1636.6,7.4,1637.4,7.2,1638.2,7z"/>
								<path class="st5" d="M914.2,104c0.4-0.1,0.9,0,1.3-0.3c0.2-0.1,0.1-0.8,0.2-1.2c-0.4-0.1-0.9-0.3-1.3-0.4
									C914.4,102.7,914.3,103.3,914.2,104z"/>
								<path class="st6" d="M1558,36.9c0.3,0.7,0.6,1.8,1.1,2c0.7,0.3,1.4,0.4,2.1,0.5c-0.6-1.1-1.3-2.1-2-3.1
									C1559.1,36.2,1558.5,36.7,1558,36.9z"/>
								<path class="st5" d="M1561.6,40.1l0.4-0.5c-0.3,0-0.5-0.1-0.8-0.1C1561.4,39.7,1561.5,39.9,1561.6,40.1z"/>
								<polygon class="st5" points="1651,22 1650.1,21.6 1650.1,22.4 								"/>
								<polygon class="st5" points="625.1,629.9 624.8,631.1 625.5,631.1 								"/>
								<path class="st6" d="M871.2,453.9c0.1-2.5,0.7-5.1,0.3-7.5c-0.2-1.4-2.1-3.3-3.1-3.2c-4.4,0.2-7.8,5.8-6.4,10.7
									c1,3.4,2.7,6.4,4.4,10.3c-2.6,1.9-5.2,3.8-8.2,6c0.5,3.4,1.3,7,1.5,10.6c0.3,4.2,0.1,8.5,0.1,14.6c4.8-1.7,8.5-3,13.2-4.7
									c0.1-10.4,3-19.2-2.1-27.6C869.8,461.3,871,457.1,871.2,453.9z"/>
								<path class="st6" d="M1018.2,544.8c10.2-1,16.7,8.3,27.2-1c-9.1-1.7-15.4-3-21.7-4C1022.8,539.7,1021.8,541.5,1018.2,544.8z
									"/>
								<path class="st6" d="M1113.8,548.7c-0.1,0.4,0.2,1.3,0.5,1.7c5.7,5.5,10,1,14.3-3.3c0.3-0.3,0.3-1.1,0.9-4.3
									C1123.3,542.5,1117.4,539.9,1113.8,548.7z"/>
								<path class="st6" d="M797.9,486.6c2.5,2,4.8,4.5,7.7,0.8c0.6-0.8,0.2-4.1-0.5-4.8C801.7,479.3,799.7,482,797.9,486.6z"/>
								<path class="st5" d="M987.3,496.7v0.1"/>
								<path class="st5" d="M1040.4,520.1c-0.4,0.1-0.8,0.2-1.2,0.4c0.5,0.3,1,0.6,1.5,0.9C1040.6,520.9,1040.5,520.5,1040.4,520.1
									z"/>
								<path class="st6" d="M965.6,250.3c1.7-1.9,3.3-4.1,4.6-6.4c0.2-0.4-0.8-1.9-1.8-4.1c-2,2.7-3.8,5.1-5.6,7.5
									C963.7,248.4,965.5,250.5,965.6,250.3z"/>
								<path class="st6" d="M986.2,210.8c-1.1-1.3-1.9-2.6-3-3.4c-0.4-0.3-1.4,0.7-2.2,1.2c0.8,1.2,1.5,2.6,2.5,3.5
									C984,212.4,985.1,211.3,986.2,210.8z"/>
								<path class="st5" d="M929.7,277.5c-1-0.3-1.5-0.5-2.1-0.7c0.1,0.4,0.2,1.1,0.4,1.1C928.4,278,928.9,277.7,929.7,277.5z"/>
								<g>
									<path class="st6" d="M740.8,544.1c-1.5-0.4-3-0.6-4.6-0.6L740.8,544.1z"/>
									<path class="st6" d="M2624.3,79.1c-15.1-1.8-30.4-2-45.6-2.8c-1.8-0.1-3.7,0.4-5,0.6c-0.6,1.7-1.1,2.4-1,2.9
										c0.8,3.4,1.6,6.7,2.5,10c-8.8,4-8.8,4-19.4-2.4c1.4-2.4,2.8-4.9,4.7-8c-5.9-2.1-11.4-3.1-16.6,0.3
										c-5.7,3.7-11.7,3.6-17.8,3.1c-16.2-1.1-32.4-2-48.6-0.5c-4.9,0.5-9.8-0.9-14.4-1.5c-2-10.9-2.6-12.6-7.4-13.9
										c-6.9-1.9-14-4-21-4c-12.6,0-25.3,1.5-37.9,2.4c-6,0.4-12.3,2.6-17.9-1.7c-4.5-3.5-9.3-4.5-14.3-5.6
										c-2.8-0.6-5.9-2.5-7.8-5.1c-3.5-4.8-7.8-5.7-12.4-6c-7.1-0.4-14.2-0.3-21.3-1c-18.2-1.9-36.3-4.1-54.4-6.2
										c-3.6-0.4-6.8-0.2-10.3,1.7c-3.6,1.9-7.9,1.6-11.8,2.5c-0.8,0.2-1.4,1.5-2.2,2.3c0.3,3.4,0.6,6.9,0.8,9.7
										c-6.4,0-11.9,0-17.3,0c-8.5,0-17.3-1.8-25.6,0.3c-10.4,2.6-19.9,4.2-28.8-5.4c-5,5.6-9.5,10.7-14,15.7
										c-7.9-1.1-15.3-2.4-20.6-8.7c-0.5-7.9-0.9-14.8-1.4-22.7c-8.1-1.7-15.5-4.6-22.9-4.5c-8.2,0.1-16.1-0.5-23.9-3.4
										c-6.7-2.5-10.7-0.6-16.8,6.5c-1,1.2-2.3,2.5-3.5,2.8c-4,0.7-8,1.5-12,1.2c-6-0.4-12.1-2.1-18.1-2.2
										c-6.5-0.1-12.9,0.7-17.7-6.6c-0.4-0.7-1.9-0.3-3-0.3c-13.2,0-26.3-0.1-39.5,0c-2.5,0-5.2,1.4-7.5,0.5c-2-0.8-4-3.4-5.2-5.8
										c-0.8-1.6-0.4-4.3-0.5-6.4c-2.6-0.4-4.2-0.4-5.6-0.9c-1.2-0.4-2.2-1.4-3.6-2.3c4.4-2,8.3-3.4,11.9-5.7
										c1.5-1,2.9-3.5,3.5-5.7c1-3.7-1.3-6.6-3.4-7.7c-5-2.6-10.3-4.7-15.7-6c-16-3.8-32-3-47.7-0.2c-1.6-2.3-2.7-5.1-4.3-5.8
										c-7.2-3-14.4-6.5-21.9-7.8c-14.8-2.6-29.2-0.4-41.8,11.2c-1.6,1.5-3.5,3.4-5.3,3.3c-9.8-0.4-19,3.5-28.4,5.8
										c-2.4,0.6-5,0.2-7.4-0.5c-9.6-2.6-19.1-2.3-28.7-0.3c-9.9,2.1-19.8,5.2-29.8,6.1c-21.6,2-42.6,7.4-64.7,14
										c3.5,3.1,6.1,5.5,8.8,8c-5.2,4.6-10.7,4.4-16.2,4.5c-12.7,0.3-25.3,0.7-37.9,1.6c-2.7,0.2-5.3,2.3-7.8,3.5
										c2.3,9.8,5.9,15.9,14.2,15.3c1.6-0.1,3.3,2.7,7.5,6.3c-5.1,0-7.4,0.9-8.9-0.1c-11.6-7.6-24.6-7.2-36.9-10.6
										c-2.8-0.8-5.9,0.5-8.9,0.9c-1.1,8.9-8.9,4.1-11.9,8.8c0.8,2.7,1.5,4.9,2.8,9.2c-4.4-2.4-7.4-3.9-10.2-5.4
										c3-15.7,3-15.9-6.2-16.5c0.3,2.7,0.6,5.3,0.8,7.1c-5.4,6.1-13.7,0.9-16.7,11.4c2.5,3.5,5.1,7.1,7.6,10.6
										c-4.3,10.2-4.3,10.2-1.5,20c3.6,0.6,7.4,1.2,11.9,1.9c-6.6,5-6.6,5-4.2,15.1c-7,12.2-18.3,14.7-28.2,20.5
										c-0.8,0.5-2.7-2.2-5.2-4.3c6.2-5.4,11.5-9.2,16-14.2c2.3-2.6,3.1-7.3,4.5-10.9c-3.4-2.9-5.8-4.9-8.1-6.8
										c0-5.8-1.2-11.5,0.3-15.9c2.6-7.9-1.5-11.8-4.6-16.9c1.3-5.3,7.4-7.9,4.9-16c-3.9-3.2-9.8-2.9-13.8-8.7
										c-2.6-3.8-8.1-4.4-11.4-1.5c-5.3,4.7-12.6,5.9-15.9,13.7c-3.5,8.2-9,11.6-15.7,13.7c-2.6,0.8-4.9,3.3-7.5,5.1
										c4.6,7,4.6,7,2.8,20.2c7.8-0.2,14.5,3,19.1,11.3c-4.4,3.7-4.4,3.8-7.4,2.2c-15.1-7.8-31-12.1-46.9-15.5
										s-32.4-1.6-47.6-10.4c-2.2-1.3-4.8,0.6-4.5,5.8c3.6,1.4,7.4,3.3,11.3,4.3c3.8,0.9,6.5,3.4,8.7,7.1c0.5,0.8,0.4,2.1,0.7,3.4
										c-3.7,1.7-7.4,3.4-10.9,5c-2.5-2.7-4.7-5.1-6.5-7c-8.2,2.1-15.6,5-23,5.5c-7.1,0.5-14,0.1-20.8,3.8c-1.9,1-5.2,0.3-7-1.2
										c-1.5-1.3-1.8-5-2.8-7.9c-18.6,5.4-36.8,10.5-54.9,16.3c-3.6,1.2-7.8,1.8-10.1,7.4c-2.5,5.9-7.7,5.2-12.2,5.4
										c-5.4,0.3-9.9-1.5-12.6-7.9c2.6-6.1,10.3,0.3,12.1-8c-7.8-9.1-16.7-7.1-25.7-6.1c0,2,0.1,3.2,0,4.3
										c-0.5,3.1-0.7,6.4-1.7,9.2c-2,5.6,3.5,5.3,3.9,9s-2.5,8.4-5.3,7.5c-5.8-1.8-11.6-5.5-17.7-2.7c-7.6,3.5-15.1,7.4-22.6,11.2
										c-0.7,0.4-1.1,1.8-1.8,3c0.9,2.1,1.9,4.3,3.3,7.6c-3,0.7-5.9,2.4-8.5,1.9c-7-1.4-13.9-3.8-20.8-5.4c-2.9-0.7-6.3-1.1-7,5.8
										c1.8,1.3,3.8,2.9,5.9,4.5c1.7,1.3,5.4-0.2,4.5,5c-7.6,2.8-13.6-3.9-20.3-5.2c-7.8-1.6-11.2-6.9-10.4-15.2
										c0.8-7.6-4.7-8.3-6.9-13.2c2.2-0.2,3.7-0.7,5.1-0.4c11,1.9,22,4.3,33,6c13.8,2.1,27.1,0.5,37.7-11.9
										c-0.6-8.1-4.4-11-9-12.7c-7.8-2.8-15.8-4.8-23.3-8.4c-14.4-7-29.1-10.7-44.4-11.8c-3.4-0.2-7.1-1.1-10-3.1
										c-5.2-3.5-10.2-5.2-15.9-2.3c-1.7,0.9-4,0.2-6-0.2c-4.5-0.8-3.2-4.8-2.7-8.7c-7.3-5.1-16-3.1-23.3-6.6s-12.6-1.6-17.8,4.5
										c-6.8-6.8-14-7.1-21.7-4.9c-4.4,1.3-9,3-13.4,3c-6.1,0-11.5,1-17.2,4.9c-5.9,4.1-13.3,4.9-20.3,3c-5.7-1.5-11-1-15.7,4.1
										c-1.5,1.6-3.6,2.4-5.6,2.9c-4.8,1.2-10.4,0.4-12.1,8.8c-0.1,0.7-2.9,1.3-4,0.6c-6.4-3.5-12.5-2-18.3,1.9
										c-1.4,0.9-2.2,3.2-3.5,5.3c3.2,1.8,5.4,2.9,8.8,4.8c-5.5,5.2-10.2,10-15.2,14.1c-6.7,5.5-13.9,10.2-17.1,20.5
										c-0.6,2-2.7,4.2-4.5,4.7c-4.5,1.4-7.6,5.6-11.4,8.1c-6.8,4.3-11.9,15.1-21.5,10.9c-0.6-0.3-1.8,1-2.6,1.8
										c-4.2,3.7-8.8,5.8-13.6,7.9c-8,3.5-15.5,8.9-23.8,13.9c1,11.3,1,22.1,3.2,32c1.6,7.3,4.8,14.4,11.7,18
										c9.4,5,17.9,3.8,26.2-2.2c6.6-4.8,13.1-9.3,21.4-10.2c6.4,11.7,12.9,23.6,19.4,35.4c-3.2,8.2-11.1,5.4-15.5,10.9
										c-0.1,2.5-0.3,5-0.4,7.8c-2.7-2.9-5.2-5.6-7.7-8.4c-0.2-0.3,0-1.2,0-2.6c1.1-1.2,2.6-2.8,4.3-4.7c-1.2-2.6-2.7-5.1-3.4-7.9
										c-0.8-3.1,2.8-7.5-1.9-10c-5.5,2.2-11.3,4.3-16.9,6.9c-4.3,1.9-6.6,6.4-6.2,12c0.3,3.7,1.5,7.4,2.3,11.1
										c1.4,6.4,2.8,12.9,4.1,18.9c-1.7,1.3-2.6,2.7-3.3,2.5c-9.3-2.2-18,2.7-26.9,4.3c-5.1,1-10.3,4.5-13.4,11.3
										c-4.9,10.4-12.5,16.5-21.7,19.6c-2.9,1-5.8,2.2-9.6,3.6c1,13.5-9.6,10.3-14.2,16c-7.1,8.7-14-0.4-21.1,0.3
										c0.3,4.7,0.5,8.3,0.8,12.4c-3.5,0.4-7,2.2-9.4,0.9c-7.8-4.3-14.7-0.8-23.2,2c2.1,3.6,3.4,6.7,5.3,9
										c0.9,1.1,2.9,0.9,4.4,1.1c10.8,1.7,18.1,10.4,24.4,20.6c1.5,2.4,2.8,5.7,2.9,8.6c0.2,9.5,0.6,19.3-4.5,28.1
										c-1.9,0.4-3.9,1.2-5.8,1.1c-16.7-0.8-33.5-0.3-50-3.1c-9.6-1.6-16.4,1.7-22.9,7.1c1.4,10.8,4.1,20.3,3.6,29.5
										c-0.6,9.2-4.3,18.2-6.9,27.9c1.9,3.2,4.7,6.3,5.9,10.2c1.2,3.8,0.7,8.5,1,13.2c5.2,0,9.7,0.6,14.1-0.2
										c5.2-0.8,8.8,0.8,11.5,6.7c1.5,3.3,3.5,6.2,5.1,9c-0.4,1.8-0.9,3.5-1.4,5.1l11.2,1.4c-1.7-1.7-2.9-4.2-3.4-7.9
										c2.7-6.1,7.5-6.7,11.7-7.7c3.4-0.9,7.1-0.4,10.6-0.5c6.1-0.2,12.3-0.4,16.2-7.9c8.3-3.1,12.1-12.6,17.8-19.3
										c-0.9-4-1.7-7.6-2.6-11.5c6.6-10,12-20.7,23.4-22.9c4.2-0.8,8.1-5,12.5-7.9c0-5.2,0-10.2,0-15.3c4.1-5.4,9.1-7.2,15-4.9
										c2.4,0.9,5.1,0.7,7.4,1.9c6.8,3.6,12.4,2.2,18.4-3.4c4.8-4.5,10.5-7.3,16-10.4c1.7-1,4.1-1.2,5.9-0.7
										c3.4,1.1,6.6,3,10.3,4.7c5.9,19.5,19.4,29,33.3,36c9.1,4.6,15.9,12.9,24.5,17.9c1.9,1.1,3.1,4.9,4.1,7.8
										c2,5.6-0.3,12.9-5.1,13.5c-7.4,1-14.5,6.7-22.3,1.9c-2.1-1.3-3.3,0-9.9,4.8c8.5,7.8,18.1,11,28.2,16.1
										c1-5.8,1.8-10.5,2.5-15c3.9-2.3,7.8-3.8,10.9-6.7c3.1-2.9,5.3-7.3,8.6-12c-1.6-3.1-3.4-6.7-5.2-10.3c0.9-4.4,3-6.7,6.6-5.4
										c3.7,1.4,7.2,3.4,11.6,5.5c-0.3-2.8,0.1-5.3-0.7-6c-2.7-2.7-6-4.6-8.7-7.4c-4.9-4.9-13.6-2.5-15.6-13.1
										c-0.2-0.9-2.6-1.5-4-1.5c-8.5,0.2-15-4.2-18.2-14.1c-3-9.5-11.2-10.6-16.4-18c0.3-3.8,0.6-8.2,0.9-13.3
										c2.7-1.1,5.5-2.3,8.4-3.5c2.1,3.3,3.6,6.7,5.8,8.9c2.3,2.3,6.1,2.6,7.9,5.3c5,7.7,12,11.5,18.1,17
										c4.3,3.9,8.9,6.1,13.8,7.5c7.6,2.2,14.2,6.5,18.9,13.4c2.6,7.4-2.7,14.7,1.8,21.2c3.3,4.7,5.4,10.8,10,14.1
										c0.5,0.4,0,3-0.1,4.6v-0.1c7.3,5.7,9.9,15.4,12.8,24.9c3.8,1.5,7.6,3,12.2,4.8c3-10.1,9.3-15.8,16.9-20.5
										c-4.7-11.3-15.5-15.3-18.1-27.7c2.5-3.2,4.5-0.4,6.7,0.8c2.6,1.4,5.8,1,6.5-2.3c1.5-6.8,5.9-5.5,9.5-7
										c4.1-1.7,7.7-1.2,11.1,1.1l19.9-23.7c0.4-1.7,0.4-4,1.3-5.3c4.7-6.6,8.4-13.9,10.8-22.3c9.8-5.8,12.2-22,23.1-26.7
										c1.9,0.8,3.8,1.6,5.7,2.5c0.5-3.8,2-8.1,5.9-11.9c10.3-10.3,13.7-9.3,17.9-16.9c4.3-7.6,9-23.9,12.6-32.8
										c2.8-6.9,9.1-14.2,11.9-17.1c8.9,2.5,18.4,2.9,25.3,2.9c11.1,0,10.2,16.8,9.4,24.1c-0.9,7.2-7.6,6.7-10.2,17
										c-2.1,8.6-7,17.1-10.6,25.2c1.2-0.3,2.3-0.6,3.5-1l-0.1,0.1l0,0c0,0.5,0,1.1-0.1,1.6c0.6-0.2,1.2-0.3,1.7-0.5l-0.1,0.1l0,0
										c-0.2,4.8-0.1,9.7-1.6,13.9c0.8,0.2,1.6,0.4,2.1,0.6c2.5,0.9,14.4,3.7,19.5,8.4c5.1,4.7,13.5,8.4,17,7.4
										c3.4-0.9,10.2-0.9,19.5,5.6c9.3,6.6,26.3,5.6,35.6,8.4c2.9,0.9,7,5.2,9,7c-2-9.2-1.2-13-4.7-18c2.2-6.5,5.6-12.4,10.5-15.6
										c-0.2,0.1-3.9,0.1-6.3-3.3c-6-8.4,0.8-13.1,6.8-17.8c6-4.7,16.1-4.7,11.1-17.7c-5-13.1-18.7-7.5-29.7-31
										c-11.1-23.6,16.1-25.9,21.2-33.3c5.1-7.5,19.5-7.5,26.3-8.4s17,2.8,19.5,7.5s17.8,6.5,22.1,4.7c4.3-1.8,20.3-6.5,28-5.5
										c7.7,0.9,9.4,10.2,20.4,11.2c11,0.9,9.4-1.9,11.9-10.3c2.6-8.4-19.5-7.5-12.7-13.1s-4.3-13.1-7.7-23.3
										c-3.4-10.3,7.7-6.5,22.1-8.4s50.1-12.1,61.9-16.8c11.9-4.7,23.7,20.5,23.7,20.5l21.2-5.6l3.4,10.3h10.2l17-10.3l15.3,12.5
										l30.5,30.5c0,0,8.4,8.4,14.4,4.7c5.9-3.7,19.5,3.7,19.5,3.7c9.4-8.4,25.5,6.6,29.7,11.2c4.3,4.7,14.4,5.6,21.2,9.3
										c6.8,3.7,13.6,6.5,17,5.6s10.2-8.4,20.4-17.8c10.2-9.3,22.1-10.2,31.4-10.2s9.3,3.7,11.9,8.4c2.6,4.7,5.9,10.2,5.9,10.2
										s14.4-0.9,28.8,0s6.8-0.9,0.9-13.1c-5.9-12.1-9.4-17.7,4.3-21.5c13.6-3.7,25.4,0,33.1,12.2c7.6,12.1,17,16.8,28,14.9
										c11.1-1.8,29.7-5.6,40.7,4.7c11,10.2,25.4,13,42.4,12.1s11.9-13.1,27.1-15.9c15.3-2.8,25.4,7.5,38.1,8.4
										c12.6,0.9,7.8-19.6,9.4-26.1c1.7-6.5,0.8-11.2-7.6-18.7c-8.5-7.5,14.4-15,38.1-12.2c23.7,2.8,67.9,57,67.9,57
										c16.1-4.7,49.2,26.1,49.2,26.1l17,0.9l7.4-7.5c19.3-8.4,19.8,34.5,19.8,40.1s-6,6.6-12,5.6c-6.1-0.9-5.8,0.9-7.5,5.6
										s5.9,9.3,8.5,12.1c2.5,2.8,6.8,14,6.8,14v0.9c11.1-12.8,23.4-24.1,31.8-40.4c2-3.7,4.5-7.1,7.4-9.6
										c4.6-3.9,6.7-9.6,7.8-15.9c0.9-5,1.4-10.1,1.5-15.2c0.2-9.1,3.4-15.8,9.4-20.7c2.4,2.4,5,4.5,6.2,7.7
										c0.8,1.5,1.3,3.3,1.2,5.5c-0.7,19.1-1.7,38.2-2.4,57.3c-0.1,2.4,0.3,4.8,0.7,7.6c3.2-2.8,5.5-4.8,7.8-6.7
										c2.3-2.1,5.3,4.9,7.5-0.5c-3-5.4-5.9-10.7-8.9-16.3c0-0.1,0-0.1,0.1-0.2c-0.2-0.4-0.4-0.8-0.6-1.1c2.6-6.2,4.9-11.7,7-16.4
										c4.4-0.9,7.7-1.6,11.3-2.3c-3.2-10.8-6.1-20.3-8.9-30c-0.9-2.9-1.8-6-1.8-9.1c0-9.6,0-13-1.6-17.6c-0.9-2.3-2.3-5-4.2-8.9
										c-0.7,3.1-1,8.2-2.1,8.5c-6.4,2-6.6,8.5-8,14.5c-0.2,0.7-1.4,1-2.9,2c-0.1-0.5-0.2-1-0.2-1.5c-0.1,0.1-0.2,0.1-0.3,0.2
										c-0.6-3.6-1.1-6.9-1.7-11c-5-3.8-10.1-8.9-16-11.8c-7.5-3.6-13,4.7-19.4,8.1c-0.2-0.5-0.4-0.9-0.5-1.3l0,0
										c-1.1-2.7-2-5.1-2.9-7.4c-2.3,0.6-4.6,1.2-6.7,1.8c-0.1-0.5-0.3-0.9-0.4-1.4c-0.1,0-0.1,0-0.2,0.1
										c-0.5-1.7-0.9-3.2-1.3-4.5c-3.6-2.9-8.7,1.5-12.1-4.3c0.1-0.1,0.1-0.1,0.2-0.2c-0.3-0.3-0.6-0.7-0.8-1.2
										c2.2-1.8,3.8-3.3,5.5-4.5c9.7-6.9,19.9-12.7,28.3-22.4c1.4-1.7,3.5-2.7,5.3-3.9c5.8-3.9,11.3-8.1,16.7-13.1
										c11.1-10.2,23.3-17.4,38.1-15.3c11.4,1.6,23,1.4,34.6,0.6c5.8-0.4,12.1,2.4,17.4-3.8c1.4-1.6,4.9-0.9,7.4-0.5
										c4.4,0.7,8.8,1.9,13.2,2.8c0.1,0.4,0.1,0.9,0.2,1.3c0.1,0,0.2,0,0.2,0.1c0.3,2.1,0.6,4.2,1.1,6.9c6-1,12.1-1.3,17.7-3.3
										c6-2.1,12.9,3.1,18.4-4c-1.3-1.6-2.5-3.1-4.1-5c0.1-0.1,0.3-0.3,0.4-0.4c-0.2-0.3-0.5-0.6-0.7-0.9c2.3-2.5,4.4-5.2,6.8-7.2
										c4.3-3.5,9.5-5.4,13-9.8c8.7-10.9,19.8-8.6,30.1-10c3.3-0.5,7.5,1.2,8.6,7.8c0.2,0.9,0.4,2,0.5,3.1c0,0.3,0.1,0.5,0.1,0.7
										c1.3,3.8,5.3,4.2,9.5,1.8c7.8-4.5,15.4-9.1,23.9-14.1c2.7-8,2.7-8,10.6-7.1c-0.1,0.4-0.3,0.8-0.4,1.3c0.2,0,0.4,0,0.7,0.1
										c-1.8,5.5-3.1,10.9-5.3,15.6c-1.2,2.5-3.7,4.9-5.9,5.4c-12.5,2.9-22.4,12.7-32,21.3c-10.2,9.2-20.7,15.6-31.5,18.9
										c-2.5,4.1-3.8,7.9-6.2,9.8c-10.9,8.8-11.9,21.2-8.8,35.5c1.8,8.4,3.5,16.9,5.3,25.3c1,4.7,2,9.5,3.1,14.2
										c0.4,2,2.4,3.4,3.7,5.1c8.4-5.5,16-10.4,19.2-22c0.8-2.7,4.5-4.8,7.2-5.9c3.8-1.5,5.9-3.5,6.5-8.9c0.7-5.7,4.8-8.1,8.9-9.2
										c3-0.8,6.1-0.1,9-0.9c2.3-0.7,4.1-2.1,3.7-6.6c-1.5-12.9-0.9-13.5,9.2-14.7c1.4-0.2,2.6-1.1,3.9-1.6c-0.8-3-1.4-5.2-1.8-7
										c-1.2-5.2-1-7,0-13.1c-1.3-0.4-2.6-0.9-3.9-1.2c-1.8-0.4-3.6-0.7-6.4-1.2c0.2-0.4,0.4-0.8,0.5-1.2c-0.3,0-0.5-0.1-0.8-0.1
										c4.3-11.1,14.3-14,16.2-25.9c5.8,0,11.4,1.8,15.7-0.5c5.2-2.8,9-1.4,14-0.4c4.3,0.9,9.2-4.7,14.1-5.8c9-2,18.1-2.6,25,6.4
										c15.6-10,30.3-19.7,46.6-24.9c15.1-4.8,29.8-13.5,46.1-7.3c2.6,1,5.5-1.1,6.1-6.5c-4.2-6.4-8.8-13.3-13.2-20
										c6.2-2.8,12.8-5.8,19.4-8.8c0-16.8,0-33.5,0-50.3c-3-2.3-5.9-5.8-9.1-6.6C2651.3,83.8,2637.8,80.7,2624.3,79.1z
										 M965.3,439.6c-0.4,0.4-1.5-0.4-2.3-0.7c0.6-1.4,1.1-3,2-4.1c0.3-0.4,1.6,0.4,2.8,0.8C966.9,437.1,966.3,438.6,965.3,439.6
										z M970.9,429.6c-0.5,0.1-1.2-1.3-1.9-2.1c1.4-1.3,2.7-2.6,4.1-3.9c0.3,1.1,0.6,2.2,1.1,4
										C973.2,428.3,972.1,429.3,970.9,429.6z M1027.9,244.4c-1.1,5.9-5.2,9.1-8.7,6.4c-4.1-3.2-7.8-7.2-11.7-10.9
										c2.6-5.2,7.2-5.5,11.3-7.8c3,2,6,4,8.8,5.9C1027.7,240.7,1028.2,242.7,1027.9,244.4z M1049.6,217.5
										c-10.9-1.1-22.1-1.6-32,7.5c-2.2,2-6.4,0.3-9.8,0.3c-1.8,3.5-3.4,6.6-5.2,10.2c1.5,1.5,3,2.9,4.5,4.4
										c-1.1,1.2-2.2,2.6-3.5,3.4c-8.2,5-12.3,12.8-10.7,24.7c0.3,2.5,0,5.1,0,8.4c-3.7,1.6-8.2,2.1-11,5.1
										c-5.5,5.8-10,7.8-15.9,1.1c-1.5-1.7-4.8-1.8-7.1-1.3c-5,1.1-9.8,3.2-14.7,4.7c-5.9,1.9-11.8,3.6-17.7,5.5
										c-5.6,1.8-9.9-0.6-12.7-7.1c-3.9,0.9-7.9,0.5-10.7,2.7c-8.7,6.7-15.9,0.6-25-2.2c4.2-5.4,7.3-2.5,10.4-1.9
										c2.9,0.5,6,0.1,9.8,0.1c1.9-3.7,4.1-7.8,6.2-11.9c6.8,3.5,12.9,7.2,18.7-2.4c1.8-2.9,6.1-3.6,9.4-4.7
										c4.7-1.6,9.5-2.8,15-4.3c-0.3-4.2-0.6-7.1-0.6-10.1c-0.1-13.3,2.7-18.6,12.5-22.5c7.6-3,7.7-2.7,11.8-12.7
										c-1.8-7.4-7.2-8.1-11.8-10.6c-6.8-3.7-7.1-5.6-4.8-14.7c1.5-5.9,4.1-9.6,8.1-13.1c6.8-5.9,14.3-9.6,22-12.8
										c6.4-2.6,12.1-6,13.1-16c0.2-2.2,1.8-5,3.4-5.9c11.3-6.1,22.9-9,36.3-2.2c-12.1,16.2-26.8,23.5-42.1,31
										c-0.2,3.4-1.3,7.6-0.3,10.7c2.5,7.6,2.3,14.9,0,22.4c9.7,10.1,20.4,11.7,31.7,9.3c7.5-1.6,14.9-3.9,22.4-5.3
										c6-1.1,12.1-1.7,18.2-1.3c3,0.2,6,3.1,9.5,5C1067.7,217.9,1059,218.4,1049.6,217.5z M1649.3,62.7c-0.1-0.4-0.3-0.9-0.4-1.3
										C1649.1,61.8,1649.2,62.3,1649.3,62.7L1649.3,62.7z"/>
								</g>
							</g>
						</g>
					</g>
				</g>
			</g>
		</g>
	</g>
	
		<linearGradient id="SVGID_6_" gradientUnits="userSpaceOnUse" x1="960" y1="1281.8898" x2="960" y2="1381.8898" gradientTransform="matrix(1 0 0 -1 0 1381.8898)">
		<stop  offset="0" style="stop-color:#E1E7EF;stop-opacity:0"/>
		<stop  offset="1" style="stop-color:#E1E7EF;stop-opacity:0.3"/>
	</linearGradient>
	<rect class="st7" width="1920" height="100"/>
</g>
<g id="Layer_1_00000022547791836000957880000008268964782661665942_" class="st0">
	<g id="Q4qLPL_00000095315570511170904940000010804034766525873798_" class="st1">
	</g>
</g>
<g id="Layer_5_00000000215904711455682040000011436121178616985021_" class="st0">
	<rect x="479.5" y="1" class="st2" width="959" height="350"/>
</g>
<path class="st5" d="M1154.8,401.2"/>
<circle class="st8" cx="1110.9" cy="257.4" r="6"/>
<circle class="st8" cx="958.4" cy="220.8" r="6"/>
<circle class="st8" cx="897.1" cy="268.5" r="6"/>
<circle class="st9" cx="821.8" cy="312.4" r="6"/>
<g>
	<path class="st10" d="M683,146.9v5.7h-23.8v-30.7h23.2v5.7h-16.1v6.7h14.3v5.5h-14.3v7.1H683z"/>
	<path class="st10" d="M710.9,128.9v23.6h-6.5v-2.8c-1.8,2.1-4.4,3.2-7.3,3.2c-5.9,0-10.1-3.3-10.1-10.6V129h6.8v12.3
		c0,3.9,1.8,5.7,4.8,5.7c3.2,0,5.4-2,5.4-6.4v-11.7L710.9,128.9L710.9,128.9z"/>
	<path class="st10" d="M730.8,128.6v6.3c-0.6,0-1-0.1-1.5-0.1c-3.8,0-6.3,2.1-6.3,6.6v11.1h-6.8v-23.6h6.5v3.1
		C724.4,129.8,727.2,128.6,730.8,128.6z"/>
	<path class="st10" d="M732.2,140.8c0-7.1,5.5-12.2,13-12.2s12.9,5,12.9,12.2s-5.4,12.2-12.9,12.2
		C737.7,152.9,732.2,147.9,732.2,140.8z M751.2,140.8c0-4.1-2.6-6.5-6-6.5s-6.1,2.5-6.1,6.5s2.6,6.5,6.1,6.5
		C748.6,147.3,751.2,144.8,751.2,140.8z"/>
	<path class="st10" d="M787.3,140.8c0,7.4-5.1,12.2-11.8,12.2c-2.9,0-5.4-0.9-7.1-2.9v11h-6.8V129h6.5v2.7c1.7-2.1,4.3-3.1,7.4-3.1
		C782.2,128.6,787.3,133.3,787.3,140.8z M780.4,140.8c0-4.1-2.6-6.5-6-6.5s-6,2.5-6,6.5s2.6,6.5,6,6.5S780.4,144.8,780.4,140.8z"/>
	<path class="st10" d="M813.8,142.7h-17.9c0.7,2.9,3.2,4.7,6.8,4.7c2.5,0,4.3-0.7,5.9-2.3l3.6,3.9c-2.2,2.5-5.5,3.8-9.7,3.8
		c-8.2,0-13.5-5.1-13.5-12.2c0-7.1,5.4-12.2,12.6-12.2c6.9,0,12.3,4.7,12.3,12.2C813.9,141.4,813.8,142.1,813.8,142.7z M795.8,138.7
		h11.6c-0.5-3-2.7-4.9-5.8-4.9S796.3,135.7,795.8,138.7z"/>
</g>
<g>
	<path class="st11" d="M701.8,305.3c-2.7,0-4.6-1.8-4.6-4.3s2-4.2,4.6-4.2c1.5,0,2.8,0.6,3.6,1.5h4.6v-2.6h1.7v10.6H710v-2.6h-4.6
		C704.6,304.7,703.3,305.3,701.8,305.3z M701.8,303.9c1.8,0,3-1.2,3-2.9s-1.3-2.9-3-2.9c-1.8,0-3,1.2-3,2.9S700,303.9,701.8,303.9z
		 M711.7,310.1c0,2.2-2.3,3.4-6,3.4s-5.9-1.3-5.9-3.4c0-2.2,2.3-3.4,5.9-3.4C709.4,306.7,711.7,308,711.7,310.1z M710.1,310.1
		c0-1.4-1.6-2.2-4.4-2.2s-4.3,0.8-4.3,2.2c0,1.4,1.6,2.1,4.3,2.1S710.1,311.5,710.1,310.1z M706.4,301c0,0.5-0.1,1-0.2,1.4h3.8v-2.8
		h-3.8C706.3,300.1,706.4,300.5,706.4,301z"/>
	<path class="st11" d="M729,307.5v6h-1.6v-4.7h-10.9v-1.3h5.6v-3.3h-7.3v-1.3h12c0.5-2.2,0.5-3.7,0.5-5.1h-10.4v-1.3H729v1.3
		c0,1.4,0,2.9-0.4,5.1h2.5v1.3h-7.3v3.3H729z"/>
	<path class="st11" d="M747.7,308.4l-0.9,1.3c-2.1-1-3.8-3-4.7-5.5c-0.8,2.6-2.6,4.9-4.6,5.9l-1-1.3c2.6-1.2,4.7-4.6,4.7-7.7v-2.3
		h-4.1v-1.4h10v1.4h-4.2v2.3C742.9,304.2,745.1,307.3,747.7,308.4z M749.6,313.6v-17.9h1.6v17.9H749.6z"/>
	<path class="st11" d="M765,308.1l-1,1.3c-1.9-1-3.5-3.1-4.3-5.6c-0.8,2.7-2.4,4.8-4.4,5.9l-1-1.3c2.6-1.3,4.6-4.7,4.6-8v-3.2h1.6
		v3.2C760.4,303.6,762.5,306.8,765,308.1z M768.2,313.6h-1.6v-17.9h1.6v7.2h3v1.4h-3V313.6z"/>
</g>
<g>
	<path class="st11" d="M1114.3,283.3l0.2,1.4c-2.7,0.5-5,0.6-8.2,0.6h-1.4v-7h6.4v-3.6h-6.4v-1.3h8v6.3h-6.3v4.3
		C1109.5,283.9,1111.7,283.8,1114.3,283.3z M1117.3,289.6v-9.7h-3.4v-1.3h3.4v-6.9h1.6v17.9H1117.3z"/>
	<path class="st11" d="M1133.2,284.2l-1,1.3c-2.1-1-3.7-3.1-4.6-5.7c-0.8,2.7-2.5,4.9-4.6,6l-1-1.3c2.6-1.3,4.8-4.6,4.8-8.1v-3.2
		h1.6v3.2C1128.4,279.7,1130.6,283,1133.2,284.2z M1135.1,289.6v-17.9h1.6v17.9H1135.1z"/>
	<path class="st11" d="M1149.2,279.3c0,3.8-1.9,6.2-4.5,6.2c-2.7,0-4.5-2.4-4.5-6.2c0-3.8,1.9-6.2,4.5-6.2
		C1147.3,273,1149.2,275.5,1149.2,279.3z M1147.6,279.3c0-2.9-1.2-4.8-2.9-4.8c-1.7,0-2.9,1.9-2.9,4.8s1.2,4.8,2.9,4.8
		C1146.4,284.1,1147.6,282.2,1147.6,279.3z M1153.7,289.5h-1.6v-17.9h1.6v7.1h3v1.4h-3V289.5z"/>
	<path class="st11" d="M1172.9,284.4l-0.9,1.3c-2.1-1-3.8-3-4.7-5.5c-0.8,2.6-2.6,4.9-4.6,5.9l-1-1.3c2.6-1.2,4.7-4.6,4.7-7.7v-2.3
		h-4.1v-1.4h10v1.4h-4.2v2.3C1168.1,280.2,1170.3,283.2,1172.9,284.4z M1174.7,289.5v-17.9h1.6v17.9H1174.7z"/>
	<path class="st11" d="M1190.1,284.1l-1,1.3c-1.9-1-3.5-3.1-4.3-5.6c-0.8,2.7-2.4,4.8-4.4,5.9l-1-1.3c2.6-1.3,4.6-4.7,4.6-8v-3.2
		h1.6v3.2C1185.6,279.6,1187.6,282.8,1190.1,284.1z M1193.3,289.5h-1.6v-17.9h1.6v7.2h3v1.4h-3V289.5z"/>
</g>
<g>
	<path class="st11" d="M951.6,252.1v-1.4h16.2v1.4H951.6z M959.7,241.8c-1.1,2.6-3.9,4.5-6.6,5.2l-0.7-1.4c3.1-0.6,6.5-3.3,6.5-6.4
		v-1.4h1.7v1.4c0,3,3.4,5.8,6.5,6.4l-0.7,1.4C963.6,246.3,960.8,244.4,959.7,241.8z"/>
	<path class="st11" d="M974.7,246.9v6.1h-1.6v-6c-1.4,0.1-2.7,0.1-3.7,0.1l-0.2-1.4c2.5,0,6.4,0,9.3-0.5l0.1,1.2
		C977.4,246.7,976,246.8,974.7,246.9z M970.1,241c0-2,1.6-3.3,3.9-3.3c2.2,0,3.9,1.3,3.9,3.3c0,1.9-1.7,3.3-3.9,3.3
		C971.7,244.3,970.1,243,970.1,241z M971.6,241c0,1.2,1,2.1,2.4,2.1s2.4-0.8,2.4-2.1c0-1.2-1-2.1-2.4-2.1S971.6,239.8,971.6,241z
		 M981.2,253.6h-1.5v-3.9h-3.3v-1.3h3.3V237h1.5V253.6z M983.1,254.5v-17.9h1.6v17.9H983.1z"/>
	<path class="st11" d="M989.3,246.8h-1.2v-8.6h6.8v1.3h-5.2v6c2.2,0,3.9-0.1,6-0.5l0.2,1.3C993.7,246.7,991.8,246.8,989.3,246.8z
		 M990.8,254.1v-5.7h1.6v4.4h10.6v1.4L990.8,254.1L990.8,254.1z M999,237v12.4h-1.6v-6.5h-3.6v-1.3h3.6V237H999z M1000.9,236.6h1.6
		v13.2h-1.6V236.6z"/>
	<path class="st11" d="M1020.3,249.3l-0.9,1.3c-2.1-1-3.8-3-4.7-5.5c-0.8,2.6-2.6,4.9-4.6,5.9l-1-1.3c2.6-1.2,4.7-4.6,4.7-7.7v-2.3
		h-4.1v-1.4h10v1.4h-4.2v2.3C1015.5,245.1,1017.7,248.2,1020.3,249.3z M1022.2,254.5v-17.9h1.6v17.9H1022.2z"/>
	<path class="st11" d="M1037.5,249l-1,1.3c-1.9-1-3.5-3.1-4.3-5.6c-0.8,2.7-2.4,4.8-4.4,5.9l-1-1.3c2.6-1.3,4.6-4.7,4.6-8v-3.2h1.6
		v3.2C1033,244.5,1035.1,247.7,1037.5,249z M1040.8,254.5h-1.6v-17.9h1.6v7.2h3v1.4h-3V254.5z"/>
</g>
<g>
	<path class="st11" d="M892.6,295.2h-1.2v-8.6h6.8v1.3H893v6c2.2,0,3.9-0.1,6-0.5l0.2,1.3C897,295.1,895.1,295.2,892.6,295.2z
		 M894.1,302.4v-5.7h1.6v4.4h10.6v1.4L894.1,302.4L894.1,302.4z M902.3,285.3v12.4h-1.6v-6.5h-3.6V290h3.6v-4.6h1.6V285.3z
		 M904.2,285h1.6v13.2h-1.6V285z"/>
	<path class="st11" d="M917.4,298.3h-8.2v-11.5h8.2V298.3z M915.8,288.1h-5v8.9h5V288.1z M922.2,302.8h-1.6V285h1.6v7.1h3v1.4h-3
		V302.8z"/>
	<path class="st11" d="M926.3,300.4V299h16.2v1.3h-16.2V300.4z M938.9,290.4v-2.2h-10.7v-1.3h12.3v2.2c0,2.6,0,5.1-0.8,8.7l-1.6-0.2
		c0.4-1.8,0.6-3.2,0.7-4.6l-10.8,0.6l-0.2-1.4l11.1-0.5C938.9,291.3,938.9,290.8,938.9,290.4z"/>
	<path class="st11" d="M959.3,297.7l-0.9,1.3c-2.1-1-3.8-3-4.7-5.5c-0.8,2.6-2.6,4.9-4.6,5.9l-1-1.3c2.6-1.2,4.7-4.6,4.7-7.7v-2.3
		h-4.1v-1.4h10v1.4h-4.2v2.3C954.5,293.5,956.6,296.5,959.3,297.7z M961.1,302.8V285h1.6v17.9h-1.6V302.8z"/>
	<path class="st11" d="M976.5,297.4l-1,1.3c-1.9-1-3.5-3.1-4.3-5.6c-0.8,2.7-2.4,4.8-4.4,5.9l-1-1.3c2.6-1.3,4.6-4.7,4.6-8v-3.2h1.6
		v3.2C972,292.9,974,296.1,976.5,297.4z M979.7,302.8h-1.6V285h1.6v7.2h3v1.4h-3V302.8z"/>
</g>
<circle class="st8" cx="767.9" cy="324.3" r="6"/>
<g class="st0">
	<path class="st1" d="M823.7,342.4c-0.3,0.3-0.6,0.4-1,0.6s-0.8,0.2-1.3,0.2c-1,0-1.8-0.3-2.4-0.8c-0.6-0.6-0.8-1.4-0.8-2.4v-6.7h-2
		V332h2v-2.4h1.5v2.4h3.4v1.3h-3.4v6.6c0,0.7,0.2,1.2,0.5,1.5s0.8,0.5,1.4,0.5c0.3,0,0.6,0,0.9-0.1c0.3-0.1,0.5-0.2,0.7-0.4
		L823.7,342.4z"/>
	<path class="st1" d="M832.8,333.1c0.8,0.7,1.2,1.8,1.2,3.2v6.8h-1.4v-1.7c-0.3,0.6-0.8,1-1.5,1.3s-1.4,0.5-2.3,0.5
		c-1.2,0-2.2-0.3-2.9-0.9s-1.1-1.4-1.1-2.3s0.3-1.7,1-2.3c0.7-0.6,1.8-0.9,3.2-0.9h3.5v-0.7c0-1-0.3-1.7-0.8-2.2s-1.3-0.7-2.3-0.7
		c-0.7,0-1.4,0.1-2,0.3c-0.6,0.2-1.2,0.5-1.7,1l-0.7-1.1c0.6-0.5,1.2-0.8,2-1.1s1.6-0.4,2.5-0.4C830.9,332,832,332.3,832.8,333.1z
		 M831.1,341.5c0.6-0.4,1-0.9,1.3-1.7V338H829c-1.9,0-2.8,0.7-2.8,2c0,0.6,0.2,1.2,0.7,1.5c0.5,0.4,1.2,0.6,2.1,0.6
		C829.7,342,830.5,341.8,831.1,341.5z"/>
	<path class="st1" d="M837.1,329.3c-0.2-0.2-0.3-0.5-0.3-0.8s0.1-0.5,0.3-0.7s0.5-0.3,0.8-0.3s0.6,0.1,0.8,0.3s0.3,0.4,0.3,0.7
		c0,0.3-0.1,0.6-0.3,0.8s-0.5,0.3-0.8,0.3S837.3,329.5,837.1,329.3z M837.1,332.1h1.5v11h-1.5V332.1z"/>
	<path class="st1" d="M850.9,333.2c0.8,0.8,1.2,2,1.2,3.5v6.4h-1.5v-6.3c0-1.1-0.3-2-0.9-2.6s-1.4-0.9-2.5-0.9
		c-1.2,0-2.1,0.4-2.8,1.1s-1,1.7-1,2.9v5.8h-1.5v-15.6h1.5v6.5c0.4-0.6,1-1.1,1.7-1.5c0.7-0.3,1.5-0.5,2.5-0.5
		C848.9,332,850,332.4,850.9,333.2z"/>
	<path class="st1" d="M862.5,333.1c0.8,0.7,1.2,1.8,1.2,3.2v6.8h-1.4v-1.7c-0.3,0.6-0.8,1-1.5,1.3s-1.4,0.5-2.3,0.5
		c-1.2,0-2.2-0.3-2.9-0.9s-1.1-1.4-1.1-2.3s0.3-1.7,1-2.3c0.7-0.6,1.8-0.9,3.2-0.9h3.5v-0.7c0-1-0.3-1.7-0.8-2.2s-1.3-0.7-2.3-0.7
		c-0.7,0-1.4,0.1-2,0.3c-0.6,0.2-1.2,0.5-1.7,1l-0.7-1.1c0.6-0.5,1.2-0.8,2-1.1s1.6-0.4,2.5-0.4C860.6,332,861.7,332.3,862.5,333.1z
		 M860.8,341.5c0.6-0.4,1-0.9,1.3-1.7V338h-3.5c-1.9,0-2.8,0.7-2.8,2c0,0.6,0.2,1.2,0.7,1.5c0.5,0.4,1.2,0.6,2.1,0.6
		C859.5,342,860.2,341.8,860.8,341.5z"/>
	<path class="st1" d="M875.8,333.2c0.8,0.8,1.2,2,1.2,3.5v6.4h-1.5v-6.3c0-1.1-0.3-2-0.9-2.6s-1.4-0.9-2.5-0.9
		c-1.2,0-2.1,0.4-2.8,1.1s-1,1.7-1,2.9v5.8h-1.5v-11h1.4v2c0.4-0.7,1-1.2,1.7-1.6s1.6-0.6,2.5-0.6C873.9,332,875,332.4,875.8,333.2z
		"/>
	<path class="st1" d="M897.5,328.4v14.7h-1.3l-9.5-11.9v11.9h-1.6v-14.7h1.3l9.5,11.9v-11.9H897.5z"/>
	<path class="st1" d="M910.7,338.1h-9.2c0.1,1.1,0.5,2.1,1.3,2.8s1.8,1.1,3,1.1c0.7,0,1.3-0.1,1.9-0.4c0.6-0.2,1.1-0.6,1.5-1.1
		l0.8,1c-0.5,0.6-1.1,1-1.8,1.3s-1.5,0.5-2.4,0.5c-1.1,0-2.1-0.2-3-0.7s-1.6-1.2-2-2c-0.5-0.9-0.7-1.8-0.7-2.9s0.2-2,0.7-2.9
		s1.1-1.5,1.9-2c0.8-0.5,1.7-0.7,2.8-0.7c1,0,1.9,0.2,2.8,0.7c0.8,0.5,1.4,1.1,1.9,2c0.5,0.8,0.7,1.8,0.7,2.9L910.7,338.1z
		 M902.7,334.3c-0.7,0.7-1.1,1.6-1.2,2.7h7.8c-0.1-1.1-0.5-2-1.2-2.7s-1.6-1-2.7-1C904.3,333.3,903.5,333.6,902.7,334.3z"/>
	<path class="st1" d="M918.8,342.4c-0.3,0.3-0.6,0.4-1,0.6s-0.8,0.2-1.3,0.2c-1,0-1.8-0.3-2.4-0.8c-0.6-0.6-0.8-1.4-0.8-2.4v-6.7h-2
		V332h2v-2.4h1.5v2.4h3.4v1.3h-3.4v6.6c0,0.7,0.2,1.2,0.5,1.5s0.8,0.5,1.4,0.5c0.3,0,0.6,0,0.9-0.1c0.3-0.1,0.5-0.2,0.7-0.4
		L918.8,342.4z"/>
	<path class="st1" d="M929.6,333.2c0.8,0.8,1.2,2,1.2,3.5v6.4h-1.5v-6.3c0-1.1-0.3-2-0.9-2.6s-1.4-0.9-2.5-0.9
		c-1.2,0-2.1,0.4-2.8,1.1s-1,1.7-1,2.9v5.8h-1.5v-15.6h1.5v6.5c0.4-0.6,1-1.1,1.7-1.5c0.7-0.3,1.5-0.5,2.5-0.5
		C927.7,332,928.8,332.4,929.6,333.2z"/>
	<path class="st1" d="M943.7,338.1h-9.2c0.1,1.1,0.5,2.1,1.3,2.8s1.8,1.1,3,1.1c0.7,0,1.3-0.1,1.9-0.4c0.6-0.2,1.1-0.6,1.5-1.1
		l0.8,1c-0.5,0.6-1.1,1-1.8,1.3s-1.5,0.5-2.4,0.5c-1.1,0-2.1-0.2-3-0.7s-1.6-1.2-2-2c-0.5-0.9-0.7-1.8-0.7-2.9s0.2-2,0.7-2.9
		s1.1-1.5,1.9-2c0.8-0.5,1.7-0.7,2.8-0.7c1,0,1.9,0.2,2.8,0.7c0.8,0.5,1.4,1.1,1.9,2c0.5,0.8,0.7,1.8,0.7,2.9L943.7,338.1z
		 M935.7,334.3c-0.7,0.7-1.1,1.6-1.2,2.7h7.8c-0.1-1.1-0.5-2-1.2-2.7s-1.6-1-2.7-1C937.3,333.3,936.4,333.6,935.7,334.3z"/>
	<path class="st1" d="M948.9,332.5c0.7-0.4,1.6-0.6,2.6-0.6v1.4h-0.4c-1.2,0-2.1,0.4-2.7,1.1s-1,1.7-1,3v5.6h-1.5v-11h1.4v2.2
		C947.7,333.5,948.2,332.9,948.9,332.5z"/>
	<path class="st1" d="M953.3,327.5h1.5v15.6h-1.5V327.5z"/>
	<path class="st1" d="M965.3,333.1c0.8,0.7,1.2,1.8,1.2,3.2v6.8H965v-1.7c-0.3,0.6-0.8,1-1.5,1.3s-1.4,0.5-2.3,0.5
		c-1.2,0-2.2-0.3-2.9-0.9s-1.1-1.4-1.1-2.3s0.3-1.7,1-2.3c0.7-0.6,1.8-0.9,3.2-0.9h3.5v-0.7c0-1-0.3-1.7-0.8-2.2s-1.3-0.7-2.3-0.7
		c-0.7,0-1.4,0.1-2,0.3c-0.6,0.2-1.2,0.5-1.7,1l-0.7-1.1c0.6-0.5,1.2-0.8,2-1.1s1.6-0.4,2.5-0.4C963.4,332,964.6,332.3,965.3,333.1z
		 M963.6,341.5c0.6-0.4,1-0.9,1.3-1.7V338h-3.5c-1.9,0-2.8,0.7-2.8,2c0,0.6,0.2,1.2,0.7,1.5c0.5,0.4,1.2,0.6,2.1,0.6
		C962.3,342,963,341.8,963.6,341.5z"/>
	<path class="st1" d="M978.6,333.2c0.8,0.8,1.2,2,1.2,3.5v6.4h-1.5v-6.3c0-1.1-0.3-2-0.9-2.6s-1.4-0.9-2.5-0.9
		c-1.2,0-2.1,0.4-2.8,1.1s-1,1.7-1,2.9v5.8h-1.5v-11h1.4v2c0.4-0.7,1-1.2,1.7-1.6s1.6-0.6,2.5-0.6
		C976.7,332,977.8,332.4,978.6,333.2z"/>
	<path class="st1" d="M993.2,327.5v15.6h-1.4v-2.2c-0.4,0.7-1,1.3-1.8,1.7c-0.7,0.4-1.6,0.6-2.5,0.6c-1,0-2-0.2-2.8-0.7
		s-1.5-1.1-2-2s-0.7-1.8-0.7-2.9s0.2-2.1,0.7-2.9c0.5-0.9,1.1-1.5,2-2c0.8-0.5,1.8-0.7,2.8-0.7c0.9,0,1.7,0.2,2.4,0.6
		s1.3,0.9,1.8,1.6v-6.6h1.5V327.5z M989.7,341.4c0.6-0.4,1.1-0.9,1.5-1.5c0.4-0.7,0.5-1.4,0.5-2.2c0-0.8-0.2-1.6-0.5-2.2
		c-0.4-0.7-0.8-1.2-1.5-1.5c-0.6-0.4-1.3-0.5-2.1-0.5s-1.5,0.2-2.1,0.5c-0.6,0.4-1.1,0.9-1.5,1.5c-0.4,0.7-0.5,1.4-0.5,2.2
		c0,0.8,0.2,1.6,0.5,2.2c0.4,0.7,0.8,1.2,1.5,1.5c0.6,0.4,1.3,0.5,2.1,0.5S989.1,341.7,989.7,341.4z"/>
	<path class="st1" d="M996.9,342.8c-0.8-0.3-1.5-0.6-1.9-1l0.7-1.2c0.5,0.4,1,0.7,1.7,0.9c0.7,0.2,1.4,0.3,2.2,0.3
		c1,0,1.8-0.2,2.2-0.5c0.5-0.3,0.7-0.8,0.7-1.3c0-0.4-0.1-0.7-0.4-1c-0.3-0.2-0.6-0.4-1-0.5s-0.9-0.2-1.6-0.3
		c-0.9-0.2-1.6-0.3-2.2-0.5c-0.5-0.2-1-0.5-1.4-0.9s-0.6-1-0.6-1.7c0-0.9,0.4-1.7,1.2-2.3c0.8-0.6,1.8-0.9,3.2-0.9
		c0.7,0,1.4,0.1,2.1,0.3c0.7,0.2,1.3,0.4,1.8,0.7l-0.7,1.2c-0.9-0.6-2-0.9-3.3-0.9c-1,0-1.7,0.2-2.2,0.5s-0.7,0.8-0.7,1.3
		c0,0.4,0.1,0.8,0.4,1c0.3,0.3,0.6,0.4,1,0.6c0.4,0.1,1,0.2,1.7,0.4c0.9,0.2,1.6,0.3,2.1,0.5s1,0.5,1.4,0.9s0.6,1,0.6,1.7
		c0,1-0.4,1.7-1.2,2.3c-0.8,0.6-1.9,0.9-3.3,0.9C998.6,343.2,997.7,343.1,996.9,342.8z"/>
</g>
<g id="_x3C_Layer_x3E_">
	<g>
		<path d="M818.6,330.9h-4.9v-1.3H825v1.3h-4.9v12.7h-1.5V330.9z"/>
		<path d="M833.3,334c0.7,0.7,1.1,1.7,1.1,3v6.5H833V342c-0.3,0.5-0.8,1-1.4,1.3c-0.6,0.3-1.4,0.5-2.2,0.5c-1.2,0-2.1-0.3-2.8-0.8
			c-0.7-0.6-1-1.3-1-2.2c0-0.9,0.3-1.6,1-2.2c0.6-0.5,1.7-0.8,3.1-0.8h3.3V337c0-0.9-0.3-1.6-0.8-2.1s-1.2-0.7-2.2-0.7
			c-0.7,0-1.3,0.1-1.9,0.3c-0.6,0.2-1.1,0.5-1.6,0.9l-0.6-1.1c0.5-0.5,1.2-0.8,1.9-1s1.5-0.4,2.4-0.4
			C831.5,333,832.6,333.3,833.3,334z M831.7,342c0.6-0.4,1-0.9,1.3-1.6v-1.7h-3.3c-1.8,0-2.7,0.6-2.7,1.9c0,0.6,0.2,1.1,0.7,1.5
			s1.1,0.5,2,0.5C830.5,342.6,831.1,342.4,831.7,342z"/>
		<path d="M838.3,330.5c-0.2-0.2-0.3-0.4-0.3-0.7c0-0.3,0.1-0.5,0.3-0.7s0.4-0.3,0.7-0.3s0.5,0.1,0.7,0.3c0.2,0.2,0.3,0.4,0.3,0.7
			c0,0.3-0.1,0.5-0.3,0.7s-0.4,0.3-0.7,0.3S838.5,330.7,838.3,330.5z M838.3,333.1h1.4v10.5h-1.4V333.1z"/>
		<path d="M852.2,334.1c0.8,0.8,1.2,1.9,1.2,3.4v6.1H852v-6c0-1.1-0.3-1.9-0.8-2.5s-1.3-0.9-2.3-0.9c-1.1,0-2,0.3-2.7,1
			s-1,1.6-1,2.8v5.5h-1.4v-14.8h1.4v6.2c0.4-0.6,0.9-1.1,1.6-1.4c0.7-0.3,1.5-0.5,2.3-0.5C850.3,333,851.4,333.4,852.2,334.1z"/>
		<path d="M864,334c0.7,0.7,1.1,1.7,1.1,3v6.5h-1.4V342c-0.3,0.5-0.8,1-1.4,1.3c-0.6,0.3-1.4,0.5-2.2,0.5c-1.2,0-2.1-0.3-2.8-0.8
			c-0.7-0.6-1-1.3-1-2.2c0-0.9,0.3-1.6,1-2.2c0.6-0.5,1.7-0.8,3.1-0.8h3.3V337c0-0.9-0.3-1.6-0.8-2.1s-1.2-0.7-2.2-0.7
			c-0.7,0-1.3,0.1-1.9,0.3c-0.6,0.2-1.1,0.5-1.6,0.9l-0.6-1.1c0.5-0.5,1.2-0.8,1.9-1s1.5-0.4,2.4-0.4C862.3,333,863.3,333.3,864,334
			z M862.4,342c0.6-0.4,1-0.9,1.3-1.6v-1.7h-3.3c-1.8,0-2.7,0.6-2.7,1.9c0,0.6,0.2,1.1,0.7,1.5s1.1,0.5,2,0.5
			C861.2,342.6,861.9,342.4,862.4,342z"/>
		<path d="M877.5,334.1c0.8,0.8,1.2,1.9,1.2,3.4v6.1h-1.4v-6c0-1.1-0.3-1.9-0.8-2.5s-1.3-0.9-2.3-0.9c-1.1,0-2,0.3-2.7,1
			s-1,1.6-1,2.8v5.5H869V333h1.4v1.9c0.4-0.6,0.9-1.1,1.6-1.5c0.7-0.4,1.5-0.5,2.4-0.5C875.7,333,876.7,333.4,877.5,334.1z"/>
		<path d="M899.8,329.6v14h-1.2l-9-11.4v11.4h-1.5v-14h1.2l9,11.4v-11.4H899.8z"/>
		<path d="M913.2,338.8h-8.8c0.1,1.1,0.5,2,1.3,2.6c0.8,0.7,1.7,1,2.9,1c0.7,0,1.3-0.1,1.8-0.3c0.5-0.2,1-0.6,1.4-1l0.8,0.9
			c-0.5,0.6-1,1-1.8,1.3s-1.5,0.4-2.3,0.4c-1.1,0-2-0.2-2.9-0.7c-0.8-0.5-1.5-1.1-2-1.9s-0.7-1.7-0.7-2.8s0.2-1.9,0.7-2.8
			c0.4-0.8,1.1-1.4,1.8-1.9c0.8-0.5,1.7-0.7,2.6-0.7c1,0,1.8,0.2,2.6,0.7s1.4,1.1,1.8,1.9s0.7,1.7,0.7,2.8L913.2,338.8z
			 M905.6,335.2c-0.7,0.6-1.1,1.5-1.2,2.5h7.5c-0.1-1-0.5-1.9-1.2-2.5s-1.5-1-2.6-1C907.1,334.2,906.3,334.5,905.6,335.2z"/>
		<path d="M921.7,343c-0.3,0.2-0.6,0.4-1,0.6c-0.4,0.1-0.8,0.2-1.2,0.2c-1,0-1.7-0.3-2.3-0.8c-0.5-0.5-0.8-1.3-0.8-2.3v-6.4h-1.9
			v-1.2h1.9v-2.3h1.4v2.3h3.2v1.2h-3.2v6.3c0,0.6,0.2,1.1,0.5,1.4s0.8,0.5,1.3,0.5c0.3,0,0.6,0,0.8-0.1s0.5-0.2,0.7-0.4L921.7,343z"
			/>
		<path d="M932.7,334.1c0.8,0.8,1.2,1.9,1.2,3.4v6.1h-1.4v-6c0-1.1-0.3-1.9-0.8-2.5s-1.3-0.9-2.3-0.9c-1.1,0-2,0.3-2.7,1
			s-1,1.6-1,2.8v5.5h-1.4v-14.8h1.4v6.2c0.4-0.6,0.9-1.1,1.6-1.4c0.7-0.3,1.5-0.5,2.3-0.5C930.9,333,932,333.4,932.7,334.1z"/>
		<path d="M947,338.8h-8.8c0.1,1.1,0.5,2,1.3,2.6c0.8,0.7,1.7,1,2.9,1c0.7,0,1.3-0.1,1.8-0.3c0.5-0.2,1-0.6,1.4-1l0.8,0.9
			c-0.5,0.6-1,1-1.8,1.3s-1.5,0.4-2.3,0.4c-1.1,0-2-0.2-2.9-0.7c-0.8-0.5-1.5-1.1-2-1.9s-0.7-1.7-0.7-2.8s0.2-1.9,0.7-2.8
			c0.4-0.8,1.1-1.4,1.8-1.9c0.8-0.5,1.7-0.7,2.6-0.7c1,0,1.8,0.2,2.6,0.7s1.4,1.1,1.8,1.9s0.7,1.7,0.7,2.8L947,338.8z M939.3,335.2
			c-0.7,0.6-1.1,1.5-1.2,2.5h7.5c-0.1-1-0.5-1.9-1.2-2.5s-1.5-1-2.6-1C940.9,334.2,940,334.5,939.3,335.2z"/>
		<path d="M952.7,333.5c0.7-0.4,1.5-0.5,2.5-0.5v1.4h-0.3c-1.1,0-2,0.3-2.6,1s-0.9,1.6-0.9,2.9v5.4H950v-10.5h1.4v2.1
			C951.6,334.4,952.1,333.9,952.7,333.5z"/>
		<path d="M957.8,328.8h1.4v14.8h-1.4V328.8z"/>
		<path d="M970,334c0.7,0.7,1.1,1.7,1.1,3v6.5h-1.4V342c-0.3,0.5-0.8,1-1.4,1.3c-0.6,0.3-1.4,0.5-2.2,0.5c-1.2,0-2.1-0.3-2.8-0.8
			c-0.7-0.6-1-1.3-1-2.2c0-0.9,0.3-1.6,1-2.2c0.6-0.5,1.7-0.8,3.1-0.8h3.3V337c0-0.9-0.3-1.6-0.8-2.1s-1.2-0.7-2.2-0.7
			c-0.7,0-1.3,0.1-1.9,0.3c-0.6,0.2-1.1,0.5-1.6,0.9l-0.6-1.1c0.5-0.5,1.2-0.8,1.9-1s1.5-0.4,2.4-0.4C968.2,333,969.2,333.3,970,334
			z M968.4,342c0.6-0.4,1-0.9,1.3-1.6v-1.7h-3.3c-1.8,0-2.7,0.6-2.7,1.9c0,0.6,0.2,1.1,0.7,1.5s1.1,0.5,2,0.5
			C967.1,342.6,967.8,342.4,968.4,342z"/>
		<path d="M983.4,334.1c0.8,0.8,1.2,1.9,1.2,3.4v6.1h-1.4v-6c0-1.1-0.3-1.9-0.8-2.5s-1.3-0.9-2.3-0.9c-1.1,0-2,0.3-2.7,1
			s-1,1.6-1,2.8v5.5H975V333h1.4v1.9c0.4-0.6,0.9-1.1,1.6-1.5c0.7-0.4,1.5-0.5,2.4-0.5C981.6,333,982.7,333.4,983.4,334.1z"/>
		<path d="M998.1,328.8v14.8h-1.4v-2.1c-0.4,0.7-1,1.2-1.7,1.6s-1.5,0.6-2.4,0.6c-1,0-1.9-0.2-2.7-0.7s-1.4-1.1-1.9-1.9
			s-0.7-1.7-0.7-2.8c0-1,0.2-2,0.7-2.8s1.1-1.4,1.9-1.9c0.8-0.4,1.7-0.7,2.7-0.7c0.9,0,1.6,0.2,2.3,0.5c0.7,0.4,1.3,0.9,1.7,1.5
			v-6.3h1.5V328.8z M994.8,341.9c0.6-0.3,1.1-0.8,1.4-1.5c0.3-0.6,0.5-1.3,0.5-2.1c0-0.8-0.2-1.5-0.5-2.1s-0.8-1.1-1.4-1.5
			c-0.6-0.3-1.3-0.5-2-0.5s-1.4,0.2-2,0.5s-1.1,0.8-1.4,1.5c-0.3,0.6-0.5,1.3-0.5,2.1c0,0.8,0.2,1.5,0.5,2.1s0.8,1.1,1.4,1.5
			c0.6,0.3,1.3,0.5,2,0.5S994.2,342.3,994.8,341.9z"/>
		<path d="M1002.4,343.3c-0.8-0.2-1.4-0.6-1.8-0.9l0.6-1.1c0.4,0.3,1,0.6,1.7,0.8c0.7,0.2,1.4,0.3,2.1,0.3c1,0,1.7-0.1,2.1-0.4
			c0.5-0.3,0.7-0.7,0.7-1.3c0-0.4-0.1-0.7-0.4-0.9s-0.6-0.4-1-0.5s-0.9-0.2-1.5-0.3c-0.9-0.2-1.5-0.3-2.1-0.5
			c-0.5-0.2-1-0.5-1.3-0.9c-0.4-0.4-0.5-1-0.5-1.7c0-0.9,0.4-1.6,1.1-2.2c0.7-0.6,1.8-0.8,3.1-0.8c0.7,0,1.4,0.1,2,0.3
			c0.7,0.2,1.2,0.4,1.7,0.7l-0.6,1.1c-0.9-0.6-1.9-0.9-3.1-0.9c-0.9,0-1.6,0.2-2,0.5c-0.5,0.3-0.7,0.7-0.7,1.3c0,0.4,0.1,0.7,0.4,1
			c0.3,0.2,0.6,0.4,1,0.5s0.9,0.2,1.6,0.4c0.8,0.2,1.5,0.3,2,0.5s0.9,0.4,1.3,0.8c0.4,0.4,0.5,0.9,0.5,1.6c0,0.9-0.4,1.6-1.1,2.2
			c-0.8,0.5-1.8,0.8-3.2,0.8C1004,343.7,1003.2,343.6,1002.4,343.3z"/>
	</g>
</g>
<circle class="st9" cx="1591.9" cy="79.5" r="6"/>
<circle class="st8" cx="1591.9" cy="109.4" r="6"/>
<g>
	<path d="M1615,79.4c-2.4,0-4.2-1.6-4.2-3.9s1.8-3.8,4.2-3.8c1.4,0,2.5,0.5,3.3,1.4h4.1v-2.3h1.5v9.6h-1.5V78h-4.1
		C1617.6,78.9,1616.4,79.4,1615,79.4z M1615,78.2c1.6,0,2.7-1.1,2.7-2.6s-1.2-2.6-2.7-2.6c-1.6,0-2.8,1.1-2.8,2.6
		C1612.3,77.1,1613.5,78.2,1615,78.2z M1624,83.8c0,2-2.1,3.1-5.4,3.1s-5.4-1.1-5.4-3.1s2.1-3.1,5.4-3.1
		C1621.9,80.7,1624,81.9,1624,83.8z M1622.5,83.8c0-1.2-1.5-1.9-3.9-1.9c-2.5,0-3.9,0.7-3.9,1.9c0,1.2,1.4,1.9,3.9,1.9
		C1621.1,85.7,1622.5,85,1622.5,83.8z M1619.2,75.6c0,0.5-0.1,0.9-0.2,1.3h3.5v-2.5h-3.5C1619.1,74.7,1619.2,75.2,1619.2,75.6z"/>
	<path d="M1639,79.5v-3.6h-3.3c-0.3,1.9-1.9,3.2-4.1,3.2c-2.4,0-4.2-1.5-4.2-3.7s1.8-3.7,4.2-3.7c2.2,0,3.8,1.2,4.1,3.1h3.3V71h1.5
		v8.7h-1.5V79.5z M1634.4,75.3c0-1.5-1.2-2.5-2.8-2.5s-2.8,1-2.8,2.5s1.2,2.5,2.8,2.5S1634.4,76.7,1634.4,75.3z M1640.5,86.7h-10.3
		v-6.5h1.5v2h7.4v-2h1.5L1640.5,86.7L1640.5,86.7z M1631.6,85.5h7.4v-2.1h-7.4V85.5z"/>
	<path d="M1659.6,79.6V76h-3.7v3h-7.3v-7.4h1.5v2.5h4.4v-2.5h1.5v3.1h3.7v-4h1.5v8.8L1659.6,79.6L1659.6,79.6z M1650.1,77.8h4.4
		v-2.6h-4.4V77.8z M1661.1,86.7h-10.3v-6.3h1.5v1.9h7.4v-1.9h1.5L1661.1,86.7L1661.1,86.7z M1652.2,85.5h7.4v-2h-7.4V85.5z"/>
	<path d="M1668.9,79.9c-2.4,0-4.2-1.7-4.2-4s1.8-4,4.2-4c2.4,0,4.2,1.6,4.2,4C1673.1,78.2,1671.3,79.9,1668.9,79.9z M1668.9,78.6
		c1.6,0,2.8-1.1,2.8-2.7s-1.2-2.7-2.8-2.7c-1.6,0-2.8,1.1-2.8,2.7C1666.2,77.5,1667.3,78.6,1668.9,78.6z M1667.2,86.6v-5.2h1.5v4
		h9.4v1.2H1667.2z M1676.1,70.8h1.5v11.8h-1.5V70.8z"/>
	<path d="M1618.6,104.7h-8v-1.2h3.3v-2.3h1.5v2.3h3.3v1.2H1618.6z M1618.1,109.5c0,2.2-1.5,3.7-3.5,3.7s-3.5-1.5-3.5-3.7
		s1.5-3.7,3.5-3.7S1618.1,107.3,1618.1,109.5z M1616.8,109.5c0-1.4-0.9-2.4-2.1-2.4c-1.3,0-2.1,1-2.1,2.4s0.9,2.5,2.1,2.5
		S1616.8,110.9,1616.8,109.5z M1622.9,116.9v-8.1h-2.1v7.3h-1.4v-15h1.4v6.4h2.1v-6.8h1.4v16.2
		C1624.3,116.9,1622.9,116.9,1622.9,116.9z"/>
	<path d="M1637.8,111.7l0.1,1.1c-3.7,0.7-7.5,0.7-10.5,0.7l-0.2-1.2c1.3,0,2.8,0,4.4-0.1v-2.8c-2.1-0.3-3.6-1.7-3.6-3.8
		c0-2.3,1.8-3.8,4.3-3.8s4.3,1.5,4.3,3.8c0,2-1.5,3.5-3.6,3.8v2.7C1634.7,112,1636.3,111.9,1637.8,111.7z M1632.4,108.2
		c1.7,0,2.9-1,2.9-2.6c0-1.5-1.2-2.5-2.9-2.5c-1.7,0-2.9,1-2.9,2.5C1629.6,107.1,1630.8,108.2,1632.4,108.2z M1638.9,117v-16.2h1.5
		V117H1638.9z"/>
	<path d="M1657.9,112.3l-0.8,1.2c-1.9-0.9-3.5-2.7-4.2-4.9c-0.7,2.3-2.4,4.4-4.2,5.3l-0.9-1.2c2.3-1.1,4.3-4.1,4.3-6.9v-2.1h-3.7
		v-1.2h9v1.2h-3.8v2.1C1653.5,108.5,1655.5,111.2,1657.9,112.3z M1659.5,116.9v-16.1h1.5v16.1H1659.5z"/>
	<path d="M1673.9,112l-0.9,1.2c-1.7-0.9-3.2-2.8-3.9-5c-0.7,2.4-2.2,4.3-4,5.3l-0.9-1.2c2.3-1.2,4.2-4.3,4.2-7.2v-2.9h1.5v2.9
		C1669.8,107.9,1671.6,110.8,1673.9,112z M1676.8,116.9h-1.5v-16.1h1.5v6.5h2.7v1.2h-2.7V116.9z"/>
</g>
</svg>
