<?xml version="1.0" encoding="utf-8"?>
<!-- Generator: Adobe Illustrator 23.0.5, SVG Export Plug-In . SVG Version: 6.00 Build 0)  -->
<svg version="1.1" id="Layer_1" xmlns="http://www.w3.org/2000/svg" xmlns:xlink="http://www.w3.org/1999/xlink" x="0px" y="0px"
	 viewBox="0 0 1920 700" style="enable-background:new 0 0 1920 700;" xml:space="preserve">
<style type="text/css">
	.st0{display:none;}
	.st1{display:inline;}
	.st2{display:inline;fill:#E1E7EF;}
	.st3{clip-path:url(#SVGID_2_);}
	.st4{fill:#FFFFFF;}
	.st5{clip-path:url(#SVGID_4_);}
	.st6{clip-path:url(#SVGID_6_);fill:#FFFFFF;}
	.st7{clip-path:url(#SVGID_8_);}
	.st8{fill:url(#SVGID_9_);}
	.st9{fill:url(#SVGID_10_);}
	.st10{fill:url(#SVGID_11_);}
	.st11{fill:url(#SVGID_12_);}
	.st12{clip-path:url(#SVGID_14_);fill:#CAD2DB;}
	.st13{clip-path:url(#SVGID_16_);}
	.st14{fill:#028F37;}
	.st15{fill:#AAAAAA;}
	.st16{fill:#5D6FCC;}
	.st17{fill:none;stroke:#5D6FCC;stroke-miterlimit:10;}
	.st18{fill:none;stroke:#028F37;stroke-miterlimit:10;}
	.st19{fill:url(#SVGID_17_);}
</style>
<g id="레이어_1_사본_3">
	<g id="Layer_1_00000132791738984363483430000010898725384829928367_" class="st0">
		<g id="Q4qLPL_00000086682324792106548390000011438722380782341564_" class="st1">
		</g>
	</g>
	<g id="Layer_5_00000089556275555668950420000017662749551967897010_" class="st0">
		<rect x="479.5" y="1" class="st2" width="959" height="350"/>
	</g>
</g>
<g id="레이어_1_사본">
	<g id="Layer_1_00000022547791836000957880000008268964782661665942_" class="st0">
		<g id="Q4qLPL_00000095315570511170904940000010804034766525873798_" class="st1">
		</g>
	</g>
	<g id="Layer_5_00000000215904711455682040000011436121178616985021_" class="st0">
		<rect x="479.5" y="1" class="st2" width="959" height="350"/>
	</g>
	<g>
		<g>
			<g>
				<g>
					<g>
						<g>
							<g>
								<defs>
									<rect id="SVGID_1_" width="1920" height="700"/>
								</defs>
								<clipPath id="SVGID_2_">
									<use xlink:href="#SVGID_1_"  style="overflow:visible;"/>
								</clipPath>
								<g class="st3">
									<g>
										<g>
											<path class="st4" d="M218.8,43.5c0,0-4.7-1.8-8,2.9s-14.6,10.9-12.6,10.5C200.1,56.4,216.8,56,218.8,43.5z"/>
											<g>
												<g>
													<path class="st4" d="M1194.4,498.6c0,0-20.6-13.7-25.7-17.1s-12-12-17.1-10.3s-4.3-2.6-7.7-4.3s-17.1-8.6-32.5-1.7
														s-17.1,6.9-17.1,6.9v10.3c0,0,12-5.1,13.7-6.9s6.8-6.9,12,0l3.4,1.7l12,5.1l15.4,3.4c0,0,3.4,0,5.1,3.4
														s1.7,5.1,5.1,6.9s8.6,3.4,8.6,3.4v8.6c0,0,8.6,0,13.7,0s10.3,1.7,15.4-1.7C1203.9,502.9,1202.2,501.1,1194.4,498.6z"/>
													<circle class="st4" cx="1111.4" cy="484" r="2.6"/>
													<path class="st4" d="M1226.1,508c0,0,6.8,0,10.3,0s5.1,0,10.3,3.4s8.6,5.1,12,8.6s6.8,3.4,6.8,6.8s-1.7,5.1-3.4,3.4
														c-1.7-1.7-23-2.3-29.1,6.8c0,0-5.1-6.8-18.8-5.1c0,0-8.6,1.7-10.3-1.7c-1.7-3.4-1.7-3.4,1.7-5.1s5.1,1.7,5.1,1.7
														l6.8-6.8c0,0,1.7-1.7,0-3.4s-5.1-6.9-1.7-8.6s5.1,0,5.1,0L1226.1,508L1226.1,508z"/>
													<path class="st4" d="M1214.4,490.6c0,0-2.8-1.4-2.8,0s0,2.8,1.4,2.8C1214.4,493.5,1214.4,490.6,1214.4,490.6z"/>
													<ellipse class="st4" cx="1171.3" cy="421.5" rx="0.9" ry="1.7"/>
													<ellipse class="st4" cx="1158.5" cy="417.2" rx="1.7" ry="0.9"/>
													<path class="st4" d="M1163.6,438.7c0,0-3.4,1.7-3.4,6.9s1.7,6.9,3.4,8.6c1.7,1.7,3.4,6.9,3.4,1.7
														C1167.1,450.6,1165.3,436.9,1163.6,438.7z"/>
													<path class="st4" d="M1138.3,653.8c-7.7,6.2-14.5,4.3-21-2.9c-2.7-3-5.8-5.4-8.3-8.7c-5.6-7.4-8.3-16.1-6.4-26.7
														c1.9-10.7,3.5-21.5,4.8-32.3c0.4-3.1-0.3-6.4-0.5-9c-9.8-11.7-20.4-14.7-33-11.5c-7.3,1.9-15.1,0.3-22.8,0.3
														c2.5-16.5,12.3-54.4,16.7-66.7c0.9-2.5,0.1-6,0.1-9.2c-8.2-2.4-15.6-1.4-23.3,0c-9.9,1.9-16.5,6.4-16.7,20.4
														c0,1.8-1,3.7-1.7,5.4c-2.5,6.1-6.2,10.3-11.6,11.6c-7,1.6-14.1,3.2-21.2,4.5c-2.5,0.5-5.5,1.5-7.4,0.2
														c-7.9-5.2-18.1-6.8-20.8-20.8c-0.6-2.9-3.2-5-4.7-7.6c-3.2-5.6-9.4-25.5-9-30.5c0.8-10.4,1.2-21,3.5-30.9
														c1.8-7.7,3.2-14.8,1.8-22.8c-1.7-9.4,1.5-16.5,7.9-21.4c7-5.4,13.9-11.1,21.2-15.9c3.5-2.3,7.9-4,11.8-3.4
														c8.4,1.3,17.5-0.9,25.2,6.2c1.8,1.6,4.9,1.1,7.4,1.2c7.9,0.4,11.2-7.4,14.8-14.7c14.9,0.6,30.1-7.8,42.1,7.8
														c4.7-2,8.4-3.7,13.2-5.8c3.7,5.6,7.3,11,11.6,17.3c-3.2,22.4,10.4,35.1,20.8,51c1.9-1.3,4.5-1.8,5.2-3.6
														c3.5-8.2,5.4-16.9,2.4-26.2c-3.7-11.4-7-23-11-34.2c-5.3-15-0.7-27.6,8.1-36.1c4.9-4.7,9.5-9.7,14.5-14.1
														c4.9-4.3,10.2-8.2,15.4-11.9c2.6-1.9,5.6-2.9,8.4-4.5c1.8-1.1,4.8-2.6,4.8-4c-0.2-7.4,7.6-6.6,7.8-12.7
														c-0.5-9.7-7.3-17.4-4.9-28.1c1.4,2.3,2.6,4,4.5,7.1c2.6-5.9,5.6-10.5,6.6-15.7c1.1-6,5.3-7.6,7.6-11.8
														c2.5-4.7,4.6-9.8,6.3-13.6c6.7-2.9,13.4-3.8,18-8.3c5.7-5.4,12.6-3.5,18.5-7.3c-0.8-2.6-1.4-4.4-2-6.2
														c-3.5-11.2-1.2-19.3,7.5-23.1c13-5.9,26.3-10.3,38.5-19c3.5-2.5,8.3-2.2,12.5-3.3c-2.8,4.9-6.3,7.4-9.5,10.4
														c-3.1,2.9-3.1,7.2,0,11.7c1,1.4,2.5,2.1,3.9,3.1c1.5-0.6,3.3-0.8,4.3-1.9c8.6-10.4,20-12.1,30.6-16.8
														c8.2-3.6,16.2-8.1,24.2-12.4c0.7-0.4,1.1-1.9,1.6-2.9c-2.1-4.1-4.3-8.2-6.7-12.9c-4.6,2.3-7.2,7.2-9.9,11.9
														s-5.7,4.6-9.3,2.1c-0.2-2.6-0.5-5.1-0.6-6.5c-6.7-1.8-13-3.5-19.6-5.2c-0.5,1.1-1.4,2.9-2.4,5.1
														c-4.3-9.3-3.4-9.5-4.3-14.5c-1.4-8.4,4.8-11.5,7.4-17.6c-2.2-2.2-3.5-4.6-5.3-5.2c-16.3-5.7-30.8,4.3-46.9,10.2
														c2.1-7.4,6.3-8.5,9.8-10.1c4.3-2,8.6-2.7,11.8-8.2c4.1-7.2,11.2-5.6,17.1-6.4c5.1-0.7,9.6,0.7,13.9,5.9
														c6.3,7.7,14.6,10.7,24.4,9.7c-3.8-9-12.1-6.9-16.8-13.2c6-3.4,11-1.6,16.1-1.1c11.5,1.2,22.4-0.7,32.3-9.4
														c4.1-3.6,9.2-5.4,14.1-7.4c2.5-1.1,5.1-0.8,5.9,3.2c-7.2,16.3-17.9,29.4-24.3,45.5c1.2,1.6,1.5,2.5,1.9,2.5
														c8.2,0.5,16.3,0.8,24.5,1.1c7.8,0.3,7.8,0.3,14.2,8.5c4-2.2,8.1-4.4,11.9-6.4c2.8,3.1,4.8,5.9,7.3,7.9
														c4.4,3.5,7,2.3,9.6-4c0.7-1.7,1-3.6,1.7-6.2c-2.2-3.1-4.5-6.4-6.8-9.6c3.2-6.3-5.7-5.8-4.1-12.4c1-3.9-3.3-5.7-6.6-5.9
														c-0.5,0-18-6.9-18.4-7.2c-0.8-0.7-1.7-1.4-3.1-2.6c1.9-3,3.7-6,5.7-8.8c3.5-4.8-2.5-8.6-1.2-11.2
														c3.7-7.8,0.8-15,1-22.2c-2.6-1.6-4.3-3.2-6.2-3.9c-4.8-1.8-10.1-2.3-11.5-10.7c-0.3-1.8-3-3.5-4.9-4.2
														c-5.7-2.2-11.7-3.6-17.4-6.1c-8.6-3.6-16.4-8.4-19.2-21.2c-1.5-6.7-4.3-13-9.6-17c-2.1-1.6-3.8-4.2-5.4-6.6h-42.4
														c-3.8,1.7-7.9,1.7-12.3,0h-113.3c4.2,2.4,8,4.3,11.3,6.8c10.3,7.6,10.8,23.4,1.2,32.1c-5.9,5.3-12.1,9.7-19.7,10
														c-1.8,0-3.5,1.3-5.3,2.1c3.7,12.4,7.1,23.6,10.2,34.3c-3.5,8.7-9.4,10.7-15.6,13.9c-6.6-7.4-13.1-14.6-19.5-21.8
														c1.9,0.5,3.8,1.2,5.7,1.2c1.6,0,3.9,2,4.9-2.3c-2-4.5-5-4.3-8.1-3.9c-1,0.1-2.1,0.3-3.1,0.3c-0.6-3.2-1.2-6.5-1.8-9.8
														c-1-5.4-2-11.1-3.1-17c-5.6-0.6-11.2-1.8-16.8-1.6c-13.7,0.2-25.7-8-38.5-12c-15.1-13-31.9-16.1-49.8-13.2
														c-1.7-3.6-3.2-6.9-4.9-10.1c-1.6-3.1-3.2-6.2-4.6-8.9H526.9c6.8,4.5,13,10.3,17.8,19.1c2.5,4.5,6.9,7.2,10.5,10.7
														c0.9-0.9,1.8-1.6,2.7-2.6c2.5,2.6,5.4,5.1,7.7,8.2c1.2,1.7,1.4,4.5,2.5,6.6c4.9,9.5,8.1,10.8,18,7.8
														c8-2.4,11.8,0.7,13.7,11.9c0.9,5.7,3.5,8.8,7.3,11.6c8.5,6.1,16.5,13.1,21.8,24c0.5,1,0.5,2.4,0.8,3.7
														c-0.5,3.1-5,2.9-3.3,8.7c8.4,7.7,17.8,15.3,28.1,21.2c2.7,1.6,6.7,3.2,7.5,6c2.9,11,9.5,20.6,8.6,33
														c-0.9,11.6-1.4,23.4-3.4,34.8c-1.2,6.6-2.3,12.8,0,18.9c2.9,7.8,2.1,15.1-0.4,22.7c1.8,3.5,4.6,6.5,5,10
														c0.9,9.3,6,14.8,10,21.4c8.6,14.3,15.3,30.4,24.6,44.1c1,1.4,1.5,3.3,1.8,3.8c8,3.9,15.2,7.4,22.3,10.9
														c6.5,3.1,10.3,9,13.8,16.9c7.9,17.8,12.5,38.8,28.1,49.8c2.7,1.9,4.8,5.9,3,10c-1.1,2.4-3.8,3.7-6,5.9
														c5.2,14.5,20.2,11.7,27.6,25.2c0.2,4.1,0.5,9.8,0.9,15.9c8.2,7.4,18.2,11.9,23.1,23.1c5-0.7,7-3.1,5-7.9
														c-1.4-3.4-3.3-7.7-5.7-8.8c-4.8-2.2-5-7.4-6.8-11.7c-3.9-9-7.8-18.3-12.9-26.4c-4.8-7.6-9.6-15-12.8-23.9
														c-1.5-4.1-2.7-7.8-6.6-9.7c-9.8-4.8-10.4-15.9-11.2-27.1c12,1.2,15,2.2,16.9,7.5c3.4,9.3,6.2,19,9,27.8
														c12,9,20.3,23.5,31.1,32.6c0.5,4.7,0.9,8.4,1.2,10.6c18,17.7,36.2,32.6,42.9,60.3c-1.1,5.4-2.1,10.4-3.1,15.4
														c1.7,3.1,3,6,4.7,8.3c1.8,2.2,3.9,4.2,6.2,5.7c9.4,6.1,17.2,16.5,28.6,17.6c0.9,0.1,1.8,1.2,2.6,1.9
														c14.7,12.6,32,17,48.2,25.2c5,2.5,10.2,3,14.9-0.2c11.6-8.1,20.7-2.7,29.1,7.5c3,3.6,5.9,7.4,9,10.6
														c2.8,2.8,5.8,6,9,7.2c12.7,4.6,25.6,8.6,37.2,12.4c4.4,5,8.4,9.2,12.1,13.8c9.4,11.8,9.4,11.9,11.6,28.9
														c2.5,0.9,5.4,1.7,8.2,3.1c4.6,2.4,10.8,3.6,12.5,10.2c1.8,7.1,5.5,8.8,10.2,9.5c6.3,0.9,11.9,3.2,16.5,9
														c1.8,2.2,4.1,3.7,5.9,5.2c6.3-4.3,6.3-4.3,5.2-13.4c2.2-2.5,4.2-5.4,6.7-7.6c1.9-1.7,3.8-2.3,5.6-2l3.5-8.9
														C1149.9,647.7,1144.3,648.9,1138.3,653.8z"/>
													<path class="st4" d="M311.5-16c-0.2,7.2-2.2,12.6-7.5,15.9c-4.1,2.5-8.1,5.6-12.1,8.4s-8.2,5.1-12,8.2
														c-4.6,3.9-10.1-0.1-14.7,3.4c-1.3,1-2.9,1.5-4.1,2.6c-5.9,5.5-12.6,8.1-19.9,9.5c-2.5,0.5-4.8,3.3-10.2,7.3
														c5.5-0.3,7.4-0.1,9.3-0.6c7.9-2.3,16.2-3.7,23.6-7.7c7.5-4.1,16.7,0,23-8.2c13.4-0.9,23.5-12.1,34.9-18.8
														c6.9-4,13.1-9.8,20.5-12.9c4.1-1.7,7.4-4.5,10.4-7.9h-41.6C311.2-16.5,311.4-16.3,311.5-16z"/>
												</g>
												<path class="st4" d="M590.9,69.4c0,0-0.2-19.6-2.9-23.7s-10.6-0.9-10.6-0.9s-2.7,1.5-1.8,3.8S591,74.9,590.9,69.4z"/>
												<path class="st4" d="M344.5,0c0,0,3.8,17.9,8.2,11.2C357.1,4.5,375,0,375,0H344.5z"/>
												<path class="st4" d="M1145,18.7c0,0,0.9,5.8,8.4,0s-4.2-8.4-4.2-8.4S1142.8,11.6,1145,18.7z"/>
											</g>
										</g>
									</g>
								</g>
							</g>
						</g>
					</g>
				</g>
			</g>
		</g>
		<g>
			<g>
				<g>
					<g>
						<g>
							<g>
								<defs>
									<rect id="SVGID_3_" width="1920" height="700"/>
								</defs>
								<clipPath id="SVGID_4_">
									<use xlink:href="#SVGID_3_"  style="overflow:visible;"/>
								</clipPath>
								<g class="st5">
									<g>
										<path class="st4" d="M1169.6,526.8c0,0,5.1,0,6.8,3.4s3.4,5.1,3.4,5.1s-3.4,1.7-5.1,1.7s-8.6,0-10.3-1.7s-3.4-5.1-3.4-5.1
											s1.7-3.4,5.1-3.4S1169.6,526.8,1169.6,526.8z"/>
									</g>
								</g>
							</g>
						</g>
					</g>
				</g>
			</g>
		</g>
		<g>
			<g>
				<g>
					<g>
						<g>
							<g>
								<defs>
									<rect id="SVGID_5_" width="1920" height="700"/>
								</defs>
								<clipPath id="SVGID_6_">
									<use xlink:href="#SVGID_5_"  style="overflow:visible;"/>
								</clipPath>
								<path class="st6" d="M1280.9,528.5c0,0,1.7-3.4,6.8-1.7c3.6,1.2,5.1,1.7,5.1,1.7s3.4,0,0,3.4c-2.7,2.7-1.7,3.4-6.8,3.4
									c-3.4,0-5.1-3.4-5.1-3.4S1277.5,528.5,1280.9,528.5z"/>
							</g>
						</g>
					</g>
				</g>
			</g>
		</g>
		<g>
			<g>
				<g>
					<g>
						<g>
							<g>
								<defs>
									<rect id="SVGID_7_" width="1920" height="700"/>
								</defs>
								<clipPath id="SVGID_8_">
									<use xlink:href="#SVGID_7_"  style="overflow:visible;"/>
								</clipPath>
								<g class="st7">
									
										<linearGradient id="SVGID_9_" gradientUnits="userSpaceOnUse" x1="1927.1799" y1="-915.3797" x2="1944.3799" y2="-915.3797" gradientTransform="matrix(1 0 0 1 0 1221.8896)">
										<stop  offset="1.348126e-07" style="stop-color:#CAD2DB"/>
										<stop  offset="1" style="stop-color:#E1E7EF"/>
									</linearGradient>
									<path class="st8" d="M1938.2,298.1c-4,1-8.6,1.5-11.1,7.3c1,7.5,5.1,9.8,10.2,10c2.3,0.1,4.7-0.2,7-0.4v-17.4
										C1942.3,297.6,1940.2,297.6,1938.2,298.1z"/>
									
										<linearGradient id="SVGID_10_" gradientUnits="userSpaceOnUse" x1="1807.4001" y1="-764.5794" x2="1944.4003" y2="-764.5794" gradientTransform="matrix(1 0 0 1 0 1221.8896)">
										<stop  offset="1.348126e-07" style="stop-color:#CAD2DB"/>
										<stop  offset="1" style="stop-color:#E1E7EF"/>
									</linearGradient>
									<path class="st9" d="M1937.4,315.4c-5.2-0.2-9.2-2.6-10.2-10c2.5-5.8,7-6.2,11.1-7.3c2-0.5,4.1-0.5,6.1-0.5v-85.9
										c-11.3-0.3-22.6-0.6-33.8-2.5c-9-1.5-15.5,1.6-21.5,6.6c1.3,10.2,3.8,19.1,3.4,27.8c-0.5,8.7-4.1,17.1-6.5,26.3
										c1.8,3,4.4,5.9,5.5,9.6c1.1,3.6,0.7,8,0.9,12.5c4.8,0,9.1,0.5,13.2-0.1c4.9-0.8,8.3,0.7,10.8,6.2c1.4,3.1,3.3,5.8,4.8,8.4
										c-3.8,15.6-10,27.5-23.1,32.2c-8,2.9-10.4,13.5-14.6,21.5c-3.3,6.3-1.3,12.8-0.2,18.9c-7.2,14.2-14.4,21.9-26.3,26.4
										c-4.9,1.9-7.7,5.5-10.6,10.9c-5.7,10.7-14.9,18.5-16.5,32.6c-0.2,1.5-1.8,2.8-2.8,4c-8.1,9.1-10.4,22.8-16.3,33.7
										c-0.9,1.7-0.5,4.6-0.7,7.1c2.6,3.8,5.1,7.4,7.7,11c-1.7,6-2,11.5,0.3,17.5c1.6,4.1,2,9.5,1.5,14.1
										c-0.7,6.5-3.6,12.7-4.1,19.2c-0.6,7.7-4.8,12.6-8.1,18.9c8.1,8.3,4.3,19.6,5.8,29.3c8.6,10,16.7,20,25.4,29.3
										c4.9,5.3,8.7,10.7,9.5,19.3c0.4,4.5,3.1,8.7,3.9,10.8c10.9,9.5,20.8,16.9,29.5,26.1c7.1,7.5,14.4,13.7,23.3,16.5
										c1.5-0.7,2.9-1.2,4.2-2c11.5-6.7,23.2-9.7,35.4-7.9V315C1942,315.2,1939.7,315.5,1937.4,315.4z"/>
									
										<linearGradient id="SVGID_11_" gradientUnits="userSpaceOnUse" x1="1932.5" y1="-1070.8396" x2="1944.36" y2="-1070.8396" gradientTransform="matrix(1 0 0 1 0 1221.8896)">
										<stop  offset="1.348126e-07" style="stop-color:#CAD2DB"/>
										<stop  offset="1" style="stop-color:#E1E7EF"/>
									</linearGradient>
									<path class="st10" d="M1932.5,147.7c1.9,3.4,3.2,6.3,5,8.5c0.9,1.1,2.7,0.9,4.1,1.1c0.9,0.1,1.8,0.4,2.7,0.6v-13.7
										C1940.6,144.7,1936.8,146.3,1932.5,147.7z"/>
									
										<linearGradient id="SVGID_12_" gradientUnits="userSpaceOnUse" x1="1944.36" y1="-1036.9348" x2="1967.4116" y2="-1036.9348" gradientTransform="matrix(1 0 0 1 0 1221.8896)">
										<stop  offset="1.348126e-07" style="stop-color:#CAD2DB"/>
										<stop  offset="1" style="stop-color:#E1E7EF"/>
									</linearGradient>
									<path class="st11" d="M1963.1,211.1c4.8-8.2,4.4-17.5,4.2-26.4c0-2.8-1.3-5.9-2.7-8.1c-5.4-8.7-11.5-16.2-20.2-18.8v53.9
										c4.4,0.1,8.8,0.2,13.3,0.4C1959.5,212.2,1961.3,211.5,1963.1,211.1z"/>
								</g>
							</g>
						</g>
					</g>
				</g>
			</g>
		</g>
		<g>
			<g>
				<g>
					<g>
						<g>
							<g>
								<defs>
									<rect id="SVGID_13_" width="1920" height="700"/>
								</defs>
								<clipPath id="SVGID_14_">
									<use xlink:href="#SVGID_13_"  style="overflow:visible;"/>
								</clipPath>
								<path class="st12" d="M1438.2,711.3c-10.5-10.6-22.5-16.1-35.8-14c-10.1,1.6-18.1-2.2-25-11c-2.1-2.7-3.9-5.7-6-8.5
									c-2.9-3.7-5.5-8-8.8-10.7c-3.8-3-9.2-3.5-12.4-7.2c-3.5-4-4.2-11.2-8-15.5c2.6-5.1,2.8-7.4,1.2-12.7c-5-0.3-3.8,6.8-6.9,9.2
									c-2.8,2.1-5,1.4-6.8-1.2c-1.2-1.8-1.5-4.5-2.4-7.5c-3.1,0.3-6.2,1.2-9.1,0.6c-2.6-0.6-4.9-3-7.4-4.8
									c-3.1,10.4-6.4,13.6-12.1,12.2c-1.5-0.4-3.2-0.8-4.4-1.8c-5.5-5-11.6-4.5-17.8-3.7c-2,0.2-4.1,0-7.8,0
									c-1.3-15.8-15.6-9.2-21-20.7c-2.1,6-2.7,11.5-7.8,12.2c-3.7,0.5-7.7,5.8-10.5-1.7c2.2-3.8,4.4-7.6,7.9-13.5
									c-4.4,0-7.9-1.3-9,0.2c-7.9,10.4-18.3,13.3-28.6,16.5c-6.7,2.1-11.2,6.1-11.7,15.5c-0.1,2.3-1.2,4.9-2.6,6.6
									c-3.9,4.8-8.1,9.2-11.8,13.2c-1.6-0.8-2.2-0.9-2.6-1.3c-1.2-1.2-2.6-2.2-3.7-3.6c-4-4.6-8.1-7.7-12.3-9l-3.5,8.9
									c2.4,0.5,4.5,2.5,5.8,6.1c1.8,4.6,2.4,10.3,4.9,14c5.9,8.6,7.5,18.1,7,28.9c-0.2,4.1-0.6,8.3-0.4,12.3h277.8
									C1443.9,716.7,1441,714.1,1438.2,711.3z"/>
							</g>
						</g>
					</g>
				</g>
			</g>
		</g>
		<g>
			<g>
				<g>
					<g>
						<g>
							<g>
								<defs>
									<rect id="SVGID_15_" width="1920" height="700"/>
								</defs>
								<clipPath id="SVGID_16_">
									<use xlink:href="#SVGID_15_"  style="overflow:visible;"/>
								</clipPath>
								<g id="Layer_3" class="st13">
									<circle class="st14" cx="1200.8" cy="212.6" r="6.3"/>
									<g>
										<path class="st15" d="M896.6,235.1h-13.4l-2.6,6.2h-6.9l12.9-28.9h6.6l12.9,28.9h-7L896.6,235.1z M894.5,230l-4.6-11.1
											l-4.6,11.1H894.5z"/>
										<path class="st15" d="M945.2,228.6v12.7h-6.5v-11.7c0-3.6-1.6-5.2-4.2-5.2c-2.9,0-4.9,1.9-4.9,5.8v11.1h-6.5v-11.7
											c0-3.6-1.5-5.2-4.2-5.2c-2.8,0-4.9,1.9-4.9,5.8v11.1h-6.5v-22.2h6.2v2.6c1.7-1.9,4.1-2.9,7-2.9c3.1,0,5.8,1.2,7.3,3.6
											c1.8-2.3,4.7-3.6,8-3.6C941.4,218.8,945.2,221.8,945.2,228.6z"/>
										<path class="st15" d="M971.6,232h-16.8c0.6,2.8,3,4.4,6.4,4.4c2.3,0,4-0.7,5.6-2.1l3.4,3.7c-2.1,2.4-5.2,3.6-9.2,3.6
											c-7.7,0-12.7-4.8-12.7-11.4c0-6.6,5.1-11.4,11.8-11.4c6.5,0,11.6,4.4,11.6,11.5C971.8,230.8,971.7,231.5,971.6,232z
											 M954.8,228.3h10.9c-0.5-2.8-2.6-4.6-5.5-4.6C957.3,223.6,955.2,225.4,954.8,228.3z"/>
										<path class="st15" d="M988.8,218.8v5.9c-0.5,0-1-0.1-1.4-0.1c-3.5,0-5.9,1.9-5.9,6.2v10.5H975v-22.2h6.2v2.9
											C982.8,219.9,985.4,218.8,988.8,218.8z"/>
										<path class="st15" d="M991,212.4c0-2,1.6-3.6,4-3.6s4,1.5,4,3.5c0,2.1-1.6,3.7-4,3.7C992.6,216,991,214.4,991,212.4z
											 M991.8,219.1h6.5v22.2h-6.5V219.1z"/>
										<path class="st15" d="M1001.5,230.2c0-6.7,5.2-11.4,12.4-11.4c4.7,0,8.3,2,10,5.7l-5,2.7c-1.2-2.1-3-3.1-5-3.1
											c-3.3,0-5.8,2.3-5.8,6.2s2.6,6.2,5.8,6.2c2,0,3.8-0.9,5-3.1l5,2.7c-1.6,3.6-5.3,5.6-10,5.6
											C1006.7,241.6,1001.5,236.9,1001.5,230.2z"/>
										<path class="st15" d="M1046.2,228.6v12.7h-6v-2.8c-1.2,2-3.5,3.1-6.8,3.1c-5.2,0-8.3-2.9-8.3-6.7c0-3.9,2.8-6.6,9.5-6.6
											h5.1c0-2.8-1.7-4.4-5.1-4.4c-2.3,0-4.8,0.8-6.4,2.1l-2.3-4.5c2.4-1.7,6-2.7,9.6-2.7
											C1042.3,218.8,1046.2,221.9,1046.2,228.6z M1039.8,234.3V232h-4.4c-3,0-4,1.1-4,2.6c0,1.6,1.4,2.7,3.6,2.7
											S1039,236.3,1039.8,234.3z"/>
									</g>
									<circle class="st14" cx="716.4" cy="307.4" r="6.3"/>
									<circle class="st16" cx="1200.2" cy="236.9" r="6.3"/>
									<polyline class="st17" points="1199.3,236 1208.2,266.3 1222.6,266.3 									"/>
									<polyline class="st18" points="1200.8,212.6 1206.3,189.3 1220.7,189.3 									"/>
								</g>
							</g>
						</g>
					</g>
				</g>
			</g>
		</g>
	</g>
	
		<linearGradient id="SVGID_17_" gradientUnits="userSpaceOnUse" x1="960" y1="-1121.8896" x2="960" y2="-1221.8896" gradientTransform="matrix(1 0 0 1 0 1221.8896)">
		<stop  offset="0" style="stop-color:#E1E7EF;stop-opacity:0"/>
		<stop  offset="1" style="stop-color:#E1E7EF;stop-opacity:0.3"/>
	</linearGradient>
	<rect class="st19" width="1920" height="100"/>
	<g>
		<path d="M710.3,326.2h1.5V339h7.8v1.3h-9.3V326.2z"/>
		<path d="M730.9,336.5h-7.8l-1.7,3.7h-1.5l6.4-14h1.5l6.4,14h-1.6L730.9,336.5z M730.3,335.3l-3.4-7.5l-3.4,7.5H730.3z"/>
	</g>
	<g>
		<path d="M1244.3,186.2v14h-1.2l-9-11.4v11.4h-1.5v-14h1.2l9,11.4v-11.4H1244.3z"/>
		<path d="M1257.7,195.4h-8.8c0.2,2.2,1.8,3.7,4.1,3.7c1.3,0,2.4-0.5,3.2-1.4l0.8,0.9c-0.9,1.1-2.4,1.7-4.1,1.7
			c-3.3,0-5.5-2.2-5.5-5.4s2.2-5.3,5.1-5.3s5.1,2.2,5.1,5.3C1257.8,195,1257.7,195.2,1257.7,195.4z M1248.9,194.3h7.5
			c-0.2-2.1-1.7-3.5-3.7-3.5C1250.6,190.8,1249.1,192.2,1248.9,194.3z"/>
		<path d="M1275.9,189.6l-4,10.5h-1.3l-3.3-8.6l-3.3,8.6h-1.3l-4-10.5h1.4l3.3,8.9l3.4-8.9h1.2l3.4,8.9l3.3-8.9H1275.9z"/>
		<path d="M1281.2,198.3l0.9-1c0.8,1.1,1.8,1.7,3,1.7c1.7,0,2.6-1,2.6-3.1v-8.5h-5.1v-1.3h6.6v9.7c0,3-1.4,4.4-4.1,4.4
			C1283.5,200.3,1282.1,199.6,1281.2,198.3z"/>
		<path d="M1302.5,195.4h-8.8c0.2,2.2,1.8,3.7,4.1,3.7c1.3,0,2.4-0.5,3.2-1.4l0.8,0.9c-0.9,1.1-2.4,1.7-4.1,1.7
			c-3.3,0-5.5-2.2-5.5-5.4s2.2-5.3,5.1-5.3s5.1,2.2,5.1,5.3C1302.5,195,1302.5,195.2,1302.5,195.4z M1293.7,194.3h7.5
			c-0.2-2.1-1.7-3.5-3.7-3.5C1295.3,190.8,1293.8,192.2,1293.7,194.3z"/>
		<path d="M1310.7,189.6v1.4c-0.1,0-0.2,0-0.3,0c-2.2,0-3.5,1.4-3.5,3.9v5.4h-1.4v-10.5h1.4v2.1
			C1307.4,190.3,1308.7,189.6,1310.7,189.6z"/>
		<path d="M1311.9,199l0.6-1.1c0.8,0.7,2.3,1.2,3.7,1.2c2,0,2.8-0.7,2.8-1.7c0-2.7-6.8-0.6-6.8-4.7c0-1.7,1.5-3,4.2-3
			c1.4,0,2.8,0.4,3.7,1l-0.6,1.1c-0.9-0.6-2-0.9-3.1-0.9c-1.9,0-2.7,0.7-2.7,1.7c0,2.8,6.8,0.7,6.8,4.7c0,1.8-1.6,3-4.3,3
			C1314.4,200.3,1312.7,199.7,1311.9,199z"/>
		<path d="M1332.3,195.4h-8.8c0.2,2.2,1.8,3.7,4.1,3.7c1.3,0,2.4-0.5,3.2-1.4l0.8,0.9c-0.9,1.1-2.4,1.7-4.1,1.7
			c-3.3,0-5.5-2.2-5.5-5.4s2.2-5.3,5.1-5.3s5.1,2.2,5.1,5.3C1332.3,195,1332.3,195.2,1332.3,195.4z M1323.5,194.3h7.5
			c-0.2-2.1-1.7-3.5-3.7-3.5C1325.1,190.8,1323.6,192.2,1323.5,194.3z"/>
		<path d="M1343.8,189.6l-5.3,11.8c-0.9,2.1-2,2.7-3.5,2.7c-1,0-1.9-0.3-2.6-1l0.7-1.1c0.5,0.5,1.2,0.8,1.9,0.8
			c0.9,0,1.6-0.4,2.2-1.8l0.5-1l-4.7-10.5h1.5l4,8.9l4-8.9h1.3V189.6z"/>
	</g>
	<g class="st0">
		<path class="st1" d="M1237.2,272.9c-0.6,0.5-1.4,0.7-2.2,0.7c-2,0-3.1-1.1-3.1-3.1v-6.4h-1.9V263h1.9v-2.3h1.4v2.3h3.2v1.2h-3.2
			v6.3c0,1.2,0.6,1.9,1.8,1.9c0.6,0,1.2-0.2,1.6-0.5L1237.2,272.9z"/>
		<path class="st1" d="M1247.8,267v6.5h-1.4v-1.6c-0.6,1.1-1.9,1.7-3.6,1.7c-2.4,0-3.8-1.2-3.8-3.1c0-1.6,1-3,4.1-3h3.3v-0.6
			c0-1.8-1-2.8-3-2.8c-1.4,0-2.6,0.5-3.5,1.2l-0.6-1.1c1.1-0.9,2.6-1.4,4.3-1.4C1246.2,262.9,1247.8,264.3,1247.8,267z
			 M1246.3,270.4v-1.7h-3.3c-2,0-2.7,0.8-2.7,1.9c0,1.2,1,2,2.7,2C1244.6,272.5,1245.8,271.8,1246.3,270.4z"/>
		<path class="st1" d="M1251.3,259.7c0-0.5,0.5-1,1-1s1,0.4,1,1s-0.4,1-1,1C1251.8,260.7,1251.3,260.2,1251.3,259.7z M1251.6,263
			h1.4v10.5h-1.4V263z"/>
		<path class="st1" d="M1266.7,267.4v6.1h-1.4v-6c0-2.2-1.2-3.4-3.2-3.4c-2.3,0-3.7,1.4-3.7,3.8v5.5h-1.4v-14.8h1.4v6.2
			c0.8-1.2,2.2-1.9,3.9-1.9C1264.9,262.9,1266.7,264.4,1266.7,267.4z"/>
		<path class="st1" d="M1278.5,267v6.5h-1.4v-1.6c-0.6,1.1-1.9,1.7-3.6,1.7c-2.4,0-3.8-1.2-3.8-3.1c0-1.6,1-3,4.1-3h3.3v-0.6
			c0-1.8-1-2.8-3-2.8c-1.4,0-2.6,0.5-3.5,1.2l-0.6-1.1c1.1-0.9,2.6-1.4,4.3-1.4C1276.9,262.9,1278.5,264.3,1278.5,267z
			 M1277.1,270.4v-1.7h-3.3c-2,0-2.7,0.8-2.7,1.9c0,1.2,1,2,2.7,2C1275.3,272.5,1276.5,271.8,1277.1,270.4z"/>
		<path class="st1" d="M1292,267.4v6.1h-1.4v-6c0-2.2-1.2-3.4-3.2-3.4c-2.3,0-3.7,1.4-3.7,3.8v5.5h-1.4V263h1.4v1.9
			c0.8-1.3,2.2-2,4-2C1290.3,262.9,1292,264.4,1292,267.4z"/>
		<path class="st1" d="M1301.3,267.5v-8h1.5v8c0,3.3,1.6,4.8,4.3,4.8c2.7,0,4.3-1.5,4.3-4.8v-8h1.4v8c0,4-2.2,6.1-5.7,6.1
			S1301.3,271.6,1301.3,267.5z"/>
		<path class="st1" d="M1315.9,271.8l0.6-1.1c1,1,2.8,1.7,4.6,1.7c2.6,0,3.8-1.1,3.8-2.5c0-3.8-8.6-1.5-8.6-6.7
			c0-2.1,1.6-3.8,5.2-3.8c1.6,0,3.2,0.5,4.3,1.2l-0.5,1.2c-1.2-0.8-2.6-1.2-3.8-1.2c-2.6,0-3.7,1.1-3.7,2.5c0,3.8,8.6,1.5,8.6,6.6
			c0,2.1-1.6,3.8-5.2,3.8C1319,273.6,1316.9,272.9,1315.9,271.8z"/>
		<path class="st1" d="M1338.3,269.8h-7.8l-1.7,3.7h-1.5l6.4-14h1.5l6.4,14h-1.6L1338.3,269.8z M1337.8,268.6l-3.4-7.5l-3.4,7.5
			H1337.8z"/>
	</g>
	<g>
		<path d="M1231.8,260.8h-4.9v-1.3h11.3v1.3h-4.9v12.7h-1.5V260.8z"/>
		<path d="M1246.6,263.9c0.7,0.7,1.1,1.7,1.1,3v6.5h-1.4v-1.6c-0.3,0.5-0.8,1-1.4,1.3s-1.4,0.5-2.2,0.5c-1.2,0-2.1-0.3-2.8-0.8
			c-0.7-0.6-1-1.3-1-2.2c0-0.9,0.3-1.6,1-2.2c0.6-0.5,1.7-0.8,3.1-0.8h3.3V267c0-0.9-0.3-1.6-0.8-2.1s-1.2-0.7-2.2-0.7
			c-0.7,0-1.3,0.1-1.9,0.3c-0.6,0.2-1.1,0.5-1.6,0.9l-0.6-1.1c0.5-0.5,1.2-0.8,1.9-1c0.7-0.2,1.5-0.4,2.4-0.4
			C1244.8,262.9,1245.8,263.2,1246.6,263.9z M1245,271.9c0.6-0.4,1-0.9,1.3-1.6v-1.7h-3.3c-1.8,0-2.7,0.6-2.7,1.9
			c0,0.6,0.2,1.1,0.7,1.5s1.1,0.5,2,0.5C1243.7,272.5,1244.4,272.3,1245,271.9z"/>
		<path d="M1251.5,260.4c-0.2-0.2-0.3-0.4-0.3-0.7c0-0.3,0.1-0.5,0.3-0.7s0.4-0.3,0.7-0.3c0.3,0,0.5,0.1,0.7,0.3
			c0.2,0.2,0.3,0.4,0.3,0.7c0,0.3-0.1,0.5-0.3,0.7c-0.2,0.2-0.4,0.3-0.7,0.3C1252,260.7,1251.7,260.6,1251.5,260.4z M1251.5,263h1.4
			v10.5h-1.4V263z"/>
		<path d="M1265.4,264c0.8,0.8,1.2,1.9,1.2,3.4v6.1h-1.4v-6c0-1.1-0.3-1.9-0.8-2.5s-1.3-0.9-2.3-0.9c-1.1,0-2,0.3-2.7,1
			s-1,1.6-1,2.8v5.5h-1.4v-14.8h1.4v6.2c0.4-0.6,0.9-1.1,1.6-1.4s1.5-0.5,2.3-0.5C1263.6,262.9,1264.6,263.3,1265.4,264z"/>
		<path d="M1277.3,263.9c0.7,0.7,1.1,1.7,1.1,3v6.5h-1.4v-1.6c-0.3,0.5-0.8,1-1.4,1.3s-1.4,0.5-2.2,0.5c-1.2,0-2.1-0.3-2.8-0.8
			c-0.7-0.6-1-1.3-1-2.2c0-0.9,0.3-1.6,1-2.2c0.6-0.5,1.7-0.8,3.1-0.8h3.3V267c0-0.9-0.3-1.6-0.8-2.1s-1.2-0.7-2.2-0.7
			c-0.7,0-1.3,0.1-1.9,0.3c-0.6,0.2-1.1,0.5-1.6,0.9l-0.6-1.1c0.5-0.5,1.2-0.8,1.9-1c0.7-0.2,1.5-0.4,2.4-0.4
			C1275.5,262.9,1276.6,263.2,1277.3,263.9z M1275.7,271.9c0.6-0.4,1-0.9,1.3-1.6v-1.7h-3.3c-1.8,0-2.7,0.6-2.7,1.9
			c0,0.6,0.2,1.1,0.7,1.5s1.1,0.5,2,0.5C1274.4,272.5,1275.1,272.3,1275.7,271.9z"/>
		<path d="M1290.8,264c0.8,0.8,1.2,1.9,1.2,3.4v6.1h-1.4v-6c0-1.1-0.3-1.9-0.8-2.5s-1.3-0.9-2.3-0.9c-1.1,0-2,0.3-2.7,1
			s-1,1.6-1,2.8v5.5h-1.4V263h1.4v1.9c0.4-0.6,0.9-1.1,1.6-1.5s1.5-0.5,2.4-0.5C1288.9,262.9,1290,263.3,1290.8,264z"/>
		<path d="M1302.7,272.1c-1-1-1.5-2.6-1.5-4.5v-8h1.5v8c0,1.6,0.4,2.8,1.1,3.6c0.7,0.8,1.8,1.2,3.2,1.2c1.4,0,2.5-0.4,3.2-1.2
			c0.7-0.8,1.1-2,1.1-3.6v-8h1.4v8c0,2-0.5,3.5-1.5,4.5s-2.4,1.6-4.2,1.6S1303.7,273.1,1302.7,272.1z"/>
		<path d="M1318,273.1c-1-0.3-1.7-0.8-2.2-1.3l0.6-1.1c0.5,0.5,1.2,0.9,2,1.2s1.7,0.5,2.6,0.5c1.3,0,2.2-0.2,2.8-0.7
			s0.9-1.1,0.9-1.8c0-0.6-0.2-1-0.5-1.3s-0.8-0.6-1.3-0.8s-1.2-0.4-2.1-0.6c-1.1-0.3-1.9-0.5-2.5-0.8c-0.6-0.2-1.2-0.6-1.6-1.1
			s-0.7-1.2-0.7-2.1c0-0.7,0.2-1.4,0.6-1.9s0.9-1,1.7-1.4c0.8-0.3,1.7-0.5,2.9-0.5c0.8,0,1.6,0.1,2.3,0.3c0.8,0.2,1.4,0.5,2,0.9
			l-0.5,1.2c-0.6-0.4-1.2-0.7-1.9-0.9c-0.7-0.2-1.3-0.3-2-0.3c-1.2,0-2.2,0.2-2.8,0.7s-0.9,1.1-0.9,1.8c0,0.6,0.2,1,0.5,1.3
			s0.8,0.6,1.3,0.8c0.5,0.2,1.2,0.4,2.1,0.6c1,0.3,1.9,0.5,2.5,0.8c0.6,0.2,1.2,0.6,1.6,1.1s0.7,1.2,0.7,2c0,0.7-0.2,1.4-0.6,1.9
			s-1,1-1.8,1.4c-0.8,0.3-1.8,0.5-2.9,0.5C1320,273.6,1319,273.5,1318,273.1z"/>
		<path d="M1338.2,269.8h-7.8l-1.7,3.7h-1.5l6.4-14h1.5l6.4,14h-1.6L1338.2,269.8z M1337.7,268.6l-3.4-7.5l-3.4,7.5H1337.7z"/>
	</g>
</g>
<circle class="st16" cx="1532.4" cy="77.5" r="6"/>
<circle class="st14" cx="1532.4" cy="107.4" r="6"/>
<g>
	<path d="M1558.5,109.8c0,2.1-1.6,3.4-4.7,3.4h-5.8v-12.6h5.4c2.8,0,4.4,1.2,4.4,3.2c0,1.4-0.8,2.4-1.9,2.9
		C1557.5,107.1,1558.5,108.1,1558.5,109.8z M1549.3,101.7v4.6h4c2,0,3.2-0.8,3.2-2.3s-1.2-2.3-3.2-2.3
		C1553.3,101.7,1549.3,101.7,1549.3,101.7z M1557.1,109.7c0-1.6-1.2-2.4-3.4-2.4h-4.4v4.7h4.4
		C1555.9,112.1,1557.1,111.4,1557.1,109.7z"/>
	<path d="M1566,103.7v1.2c-0.1,0-0.2,0-0.3,0c-2,0-3.2,1.3-3.2,3.5v4.8h-1.3v-9.5h1.2v1.9C1563.1,104.3,1564.3,103.7,1566,103.7z"/>
	<path d="M1575.4,107.3v5.9h-1.2v-1.5c-0.6,1-1.7,1.6-3.3,1.6c-2.1,0-3.5-1.1-3.5-2.8c0-1.5,0.9-2.7,3.7-2.7h3v-0.6
		c0-1.6-0.9-2.5-2.7-2.5c-1.2,0-2.4,0.4-3.2,1.1l-0.6-1c1-0.8,2.4-1.3,3.9-1.3C1574.1,103.7,1575.4,104.9,1575.4,107.3z
		 M1574.2,110.4v-1.5h-3c-1.8,0-2.4,0.7-2.4,1.7c0,1.1,0.9,1.8,2.4,1.8C1572.6,112.3,1573.7,111.6,1574.2,110.4z"/>
	<path d="M1587.6,107.7v5.5h-1.3v-5.4c0-2-1-3-2.8-3c-2,0-3.3,1.3-3.3,3.4v5h-1.3v-9.5h1.2v1.7c0.7-1.2,2-1.8,3.6-1.8
		C1586,103.7,1587.6,105,1587.6,107.7z"/>
	<path d="M1590.2,108.5c0-2.8,2.1-4.8,4.9-4.8c1.6,0,3,0.6,3.7,1.9l-1,0.6c-0.6-1-1.7-1.4-2.8-1.4c-2.1,0-3.6,1.5-3.6,3.7
		s1.5,3.7,3.6,3.7c1.1,0,2.1-0.4,2.8-1.4l1,0.6c-0.8,1.2-2.1,1.9-3.7,1.9C1592.2,113.3,1590.2,111.3,1590.2,108.5z"/>
	<path d="M1609.8,107.7v5.5h-1.3v-5.4c0-2-1-3-2.8-3c-2,0-3.3,1.3-3.3,3.4v5h-1.3V99.8h1.3v5.5c0.7-1.1,1.9-1.7,3.5-1.7
		C1608.3,103.7,1609.8,105,1609.8,107.7z"/>
	<path d="M1617.2,106.9c0-3.7,2.8-6.4,6.6-6.4c3.8,0,6.6,2.7,6.6,6.4c0,3.7-2.8,6.4-6.6,6.4S1617.2,110.6,1617.2,106.9z
		 M1629.1,106.9c0-3-2.3-5.2-5.3-5.2s-5.3,2.2-5.3,5.2s2.3,5.2,5.3,5.2C1626.8,112.1,1629.1,109.9,1629.1,106.9z"/>
	<path d="M1634.6,102.6v1.1h2.9v1.1h-2.9v8.4h-1.3v-8.4h-1.7v-1.1h1.7v-1.2c0-1.7,1-2.8,2.9-2.8c0.7,0,1.4,0.2,1.9,0.6l-0.4,1
		c-0.4-0.3-0.9-0.5-1.4-0.5C1635.2,100.8,1634.6,101.4,1634.6,102.6z"/>
	<path d="M1642.3,99.7c0.7,0,1.4,0.2,1.9,0.6l-0.4,1c-0.4-0.3-0.9-0.5-1.4-0.5c-1.1,0-1.7,0.6-1.7,1.8v1.1h2.9v1.1h-2.9v8.4h-1.3
		v-8.4h-1.7v-1.1h1.7v-1.2C1639.4,100.9,1640.5,99.7,1642.3,99.7z M1648.4,100.7c0,0.5-0.4,0.9-0.9,0.9s-0.9-0.4-0.9-0.9
		s0.4-0.9,0.9-0.9C1647.9,99.8,1648.4,100.2,1648.4,100.7z M1646.8,103.7h1.3v9.5h-1.3V103.7z"/>
	<path d="M1650.7,108.5c0-2.8,2.1-4.8,4.9-4.8c1.6,0,3,0.6,3.7,1.9l-1,0.6c-0.6-1-1.7-1.4-2.8-1.4c-2.1,0-3.6,1.5-3.6,3.7
		s1.5,3.7,3.6,3.7c1.1,0,2.1-0.4,2.8-1.4l1,0.6c-0.8,1.2-2.1,1.9-3.7,1.9C1652.7,113.3,1650.7,111.3,1650.7,108.5z"/>
	<path d="M1669.8,108.9h-7.9c0.1,2,1.7,3.3,3.7,3.3c1.2,0,2.2-0.4,2.9-1.2l0.7,0.8c-0.8,1-2.2,1.5-3.7,1.5c-3,0-5-2-5-4.8
		s2-4.8,4.6-4.8c2.7,0,4.6,2,4.6,4.8C1669.8,108.6,1669.8,108.7,1669.8,108.9z M1661.9,107.9h6.7c-0.2-1.9-1.5-3.2-3.4-3.2
		C1663.4,104.8,1662.1,106.1,1661.9,107.9z"/>
	<path d="M1671.1,112.1l0.6-1c0.8,0.6,2,1.1,3.4,1.1c1.8,0,2.5-0.6,2.5-1.5c0-2.5-6.1-0.5-6.1-4.3c0-1.5,1.3-2.7,3.7-2.7
		c1.2,0,2.6,0.3,3.3,0.9l-0.6,1c-0.8-0.6-1.8-0.8-2.8-0.8c-1.7,0-2.5,0.7-2.5,1.6c0,2.6,6.1,0.6,6.1,4.3c0,1.6-1.4,2.7-3.9,2.7
		C1673.4,113.3,1671.9,112.8,1671.1,112.1z"/>
</g>
<g>
	<path d="M1557.9,74.8c0,2.7-1.9,4.3-5.2,4.3h-3.4v4h-1.3V70.5h4.7C1555.9,70.5,1557.9,72.1,1557.9,74.8z M1556.5,74.8
		c0-2-1.3-3.2-3.9-3.2h-3.3v6.3h3.3C1555.2,77.9,1556.5,76.8,1556.5,74.8z"/>
	<path d="M1565,73.5v1.2c-0.1,0-0.2,0-0.3,0c-2,0-3.2,1.3-3.2,3.5V83h-1.3v-9.5h1.2v1.9C1562,74.2,1563.3,73.5,1565,73.5z"/>
	<path d="M1566.3,78.3c0-2.8,2.1-4.8,4.8-4.8c2.8,0,4.8,2,4.8,4.8s-2,4.8-4.8,4.8C1568.3,83.2,1566.3,81.2,1566.3,78.3z
		 M1574.6,78.3c0-2.2-1.5-3.7-3.5-3.7s-3.5,1.5-3.5,3.7s1.5,3.7,3.5,3.7S1574.6,80.6,1574.6,78.3z"/>
	<path d="M1587.1,69.7v13.4h-1.2v-1.9c-0.8,1.3-2.1,2-3.7,2c-2.7,0-4.7-2-4.7-4.8c0-2.9,2-4.8,4.7-4.8c1.5,0,2.8,0.6,3.6,1.9v-5.7
		L1587.1,69.7L1587.1,69.7z M1585.9,78.3c0-2.2-1.5-3.7-3.5-3.7s-3.5,1.5-3.5,3.7s1.5,3.7,3.5,3.7S1585.9,80.6,1585.9,78.3z"/>
	<path d="M1599.2,73.6v9.5h-1.2v-1.7c-0.7,1.2-1.9,1.8-3.4,1.8c-2.4,0-4-1.3-4-4.1v-5.5h1.3V79c0,2,1,3,2.8,3c2,0,3.2-1.3,3.2-3.4
		v-5H1599.2z"/>
	<path d="M1601.9,78.3c0-2.8,2.1-4.8,4.9-4.8c1.6,0,3,0.6,3.7,1.9l-1,0.6c-0.6-1-1.7-1.4-2.8-1.4c-2.1,0-3.6,1.5-3.6,3.7
		s1.5,3.7,3.6,3.7c1.1,0,2.1-0.4,2.8-1.4l1,0.6c-0.8,1.2-2.1,1.9-3.7,1.9C1603.9,83.2,1601.9,81.2,1601.9,78.3z"/>
	<path d="M1618,82.5c-0.5,0.5-1.3,0.7-2,0.7c-1.8,0-2.8-1-2.8-2.8v-5.7h-1.7v-1.1h1.7v-2.1h1.3v2.1h2.9v1.1h-2.9v5.7
		c0,1.1,0.6,1.7,1.6,1.7c0.5,0,1-0.2,1.4-0.5L1618,82.5z"/>
	<path d="M1620.1,70.6c0-0.5,0.4-0.9,0.9-0.9s0.9,0.4,0.9,0.9s-0.4,0.9-0.9,0.9S1620.1,71.1,1620.1,70.6z M1620.4,73.6h1.3v9.5h-1.3
		V73.6z"/>
	<path d="M1624.3,78.3c0-2.8,2.1-4.8,4.8-4.8c2.8,0,4.8,2,4.8,4.8s-2,4.8-4.8,4.8C1626.3,83.2,1624.3,81.2,1624.3,78.3z
		 M1632.6,78.3c0-2.2-1.5-3.7-3.5-3.7s-3.5,1.5-3.5,3.7s1.5,3.7,3.5,3.7S1632.6,80.6,1632.6,78.3z"/>
	<path d="M1645.2,77.6v5.5h-1.3v-5.4c0-2-1-3-2.8-3c-2,0-3.3,1.3-3.3,3.4v5h-1.3v-9.5h1.2v1.7c0.7-1.2,2-1.8,3.6-1.8
		C1643.6,73.5,1645.2,74.9,1645.2,77.6z"/>
	<path d="M1652.5,81.5l0.5-1c0.9,0.9,2.5,1.5,4.2,1.5c2.4,0,3.4-1,3.4-2.2c0-3.5-7.8-1.3-7.8-6c0-1.9,1.4-3.5,4.6-3.5
		c1.4,0,2.9,0.4,3.9,1.1l-0.5,1.1c-1.1-0.7-2.3-1-3.5-1c-2.3,0-3.3,1-3.3,2.3c0,3.5,7.8,1.4,7.8,6c0,1.9-1.5,3.4-4.7,3.4
		C1655.3,83.2,1653.4,82.5,1652.5,81.5z"/>
	<path d="M1673,73.6v9.5h-1.2v-1.7c-0.7,1.2-1.9,1.8-3.4,1.8c-2.4,0-4-1.3-4-4.1v-5.5h1.3V79c0,2,1,3,2.8,3c2,0,3.2-1.3,3.2-3.4v-5
		H1673z"/>
	<path d="M1686.2,78.3c0,2.9-2,4.8-4.7,4.8c-1.6,0-2.9-0.7-3.7-2V83h-1.2V69.7h1.3v5.7c0.8-1.2,2.1-1.9,3.6-1.9
		C1684.2,73.5,1686.2,75.5,1686.2,78.3z M1684.9,78.3c0-2.2-1.5-3.7-3.5-3.7s-3.5,1.5-3.5,3.7s1.5,3.7,3.5,3.7
		S1684.9,80.6,1684.9,78.3z"/>
	<path d="M1687.5,82l0.6-1c0.8,0.6,2,1.1,3.4,1.1c1.8,0,2.5-0.6,2.5-1.5c0-2.5-6.1-0.5-6.1-4.3c0-1.5,1.3-2.7,3.7-2.7
		c1.2,0,2.6,0.3,3.3,0.9l-0.6,1c-0.8-0.6-1.8-0.8-2.8-0.8c-1.7,0-2.5,0.7-2.5,1.6c0,2.6,6.1,0.6,6.1,4.3c0,1.6-1.4,2.7-3.9,2.7
		C1689.8,83.2,1688.2,82.7,1687.5,82z"/>
	<path d="M1697.3,70.6c0-0.5,0.4-0.9,0.9-0.9s0.9,0.4,0.9,0.9s-0.4,0.9-0.9,0.9C1697.7,71.5,1697.3,71.1,1697.3,70.6z M1697.6,73.6
		h1.3v9.5h-1.3V73.6z"/>
	<path d="M1711.1,69.7v13.4h-1.2v-1.9c-0.8,1.3-2.1,2-3.7,2c-2.7,0-4.7-2-4.7-4.8c0-2.9,2-4.8,4.7-4.8c1.5,0,2.8,0.6,3.6,1.9v-5.7
		L1711.1,69.7L1711.1,69.7z M1709.8,78.3c0-2.2-1.5-3.7-3.5-3.7s-3.5,1.5-3.5,3.7s1.5,3.7,3.5,3.7S1709.8,80.6,1709.8,78.3z"/>
	<path d="M1714.3,70.6c0-0.5,0.4-0.9,0.9-0.9s0.9,0.4,0.9,0.9s-0.4,0.9-0.9,0.9C1714.8,71.5,1714.3,71.1,1714.3,70.6z M1714.6,73.6
		h1.3v9.5h-1.3V73.6z"/>
	<path d="M1726.6,77.2v5.9h-1.2v-1.5c-0.6,1-1.7,1.6-3.3,1.6c-2.1,0-3.5-1.1-3.5-2.8c0-1.5,0.9-2.7,3.7-2.7h3v-0.6
		c0-1.6-0.9-2.5-2.7-2.5c-1.2,0-2.4,0.4-3.2,1.1l-0.6-1c1-0.8,2.4-1.3,3.9-1.3C1725.2,73.5,1726.6,74.8,1726.6,77.2z M1725.3,80.2
		v-1.5h-3c-1.8,0-2.4,0.7-2.4,1.7c0,1.1,0.9,1.8,2.4,1.8S1724.8,81.5,1725.3,80.2z"/>
	<path d="M1734.9,73.5v1.2c-0.1,0-0.2,0-0.3,0c-2,0-3.2,1.3-3.2,3.5V83h-1.3v-9.5h1.2v1.9C1731.9,74.2,1733.1,73.5,1734.9,73.5z"/>
	<path d="M1745.5,73.6l-4.7,10.6c-0.8,1.9-1.8,2.4-3.2,2.4c-0.9,0-1.7-0.3-2.3-0.9l0.6-1c0.5,0.5,1,0.7,1.7,0.7c0.8,0,1.4-0.4,2-1.6
		l0.4-0.9l-4.2-9.5h1.3l3.6,8l3.6-8h1.2V73.6z"/>
</g>
</svg>
