<?xml version="1.0" encoding="utf-8"?>
<!-- Generator: Adobe Illustrator 26.5.0, SVG Export Plug-In . SVG Version: 6.00 Build 0)  -->
<svg version="1.1" id="Layer_1" xmlns="http://www.w3.org/2000/svg" xmlns:xlink="http://www.w3.org/1999/xlink" x="0px" y="0px"
	 viewBox="0 0 992.1 765.4" style="enable-background:new 0 0 992.1 765.4;" xml:space="preserve">
<style type="text/css">
	.st0{fill:none;}
	.st1{opacity:0.1;fill:#0C5AA9;enable-background:new    ;}
	.st2{fill:#0C5AA9;}
	.st3{fill:#FFFFFF;}
	.st4{fill:#666666;}
	.st5{fill:#D7D7D7;}
	.st6{fill:#10347D;}
	.st7{fill:#093389;}
</style>
<rect class="st0" width="992.1" height="765.4"/>

<g id="사람중심_문화" class="people">
	<g>
		<g>
			<path class="st4" d="M18.9,351.5v-1.3h5c0.6-2.3,0.7-3.9,0.7-5.1h-4.2v-1.3h5.8v0.7c0,1,0,3-0.7,5.7h5.4c0.5-2.3,0.6-3.9,0.6-5.1
				h-4.1v-1.3h5.7v0.7c0,1.2,0,3-0.6,5.6h2.6v1.3L18.9,351.5L18.9,351.5z M26.2,358.5l0.2,1.3c-1.9,0.5-3.4,0.6-4.7,0.6h-0.9v-6.6
				h1.6v5.3C23.4,359,24.7,358.9,26.2,358.5z M34,355.2h-8.1V354h3.3v-1.6h1.6v1.6H34V355.2z M33.2,358.4c0,1.5-1.3,2.4-3.1,2.4
				s-3.1-0.9-3.1-2.4s1.3-2.4,3.1-2.4S33.2,356.9,33.2,358.4z M31.8,358.4c0-0.8-0.7-1.3-1.7-1.3s-1.7,0.5-1.7,1.3s0.7,1.3,1.7,1.3
				C31.1,359.7,31.8,359.2,31.8,358.4z"/>
			<path class="st4" d="M46.5,348c0,2.5-2,4.2-4.7,4.2s-4.7-1.7-4.7-4.2s2-4.2,4.7-4.2C44.6,343.9,46.5,345.6,46.5,348z M38.8,348
				c0,1.7,1.3,2.8,3.1,2.8s3.1-1.2,3.1-2.8c0-1.7-1.3-2.8-3.1-2.8S38.8,346.4,38.8,348z M39.9,360.6v-6.5h11.6v6.5H39.9z
				 M49.9,359.3v-3.8h-8.4v3.8H49.9z M49.8,353.2v-10.3h1.6v10.3H49.8z"/>
			<path class="st4" d="M59.6,352c-2.7,0-4.6-1.7-4.6-4.1s2-4.1,4.6-4.1c2.4,0,4.2,1.3,4.6,3.4h3.7V343h1.7v9.5h-1.7v-3.9h-3.7
				C63.8,350.6,62,352,59.6,352z M62.6,347.8c0-1.6-1.3-2.8-3.1-2.8s-3.1,1.1-3.1,2.8c0,1.6,1.3,2.8,3.1,2.8S62.6,349.4,62.6,347.8z
				 M62.9,360.6h-6.2v-7.2h1.5v2.3h3.2v-2.3h1.5V360.6z M58.2,359.3h3.2v-2.4h-3.2V359.3z M71.3,359.5l-0.8,1.2
				c-1.6-0.7-2.7-1.9-3.2-3.4c-0.6,1.5-1.6,2.7-3.2,3.4l-0.8-1.2c2.1-0.9,3.3-2.9,3.3-4.7v-1.5H68v1.5
				C68,356.7,69.1,358.7,71.3,359.5z"/>
			<path class="st4" d="M72.5,353.4V352h16.3v1.3H72.5V353.4z M87,360.4H74.6v-5.2h1.6v3.9H87V360.4z M74.7,343.6h1.6v4.7h10.6v1.3
				H74.7V343.6z"/>
			<path class="st4" d="M94.4,358.5v-1.3h7.2v-4.4h1.6v4.4h7.4v1.3H94.4z M102.5,348c-1.2,2.6-4,4.4-6.7,5l-0.7-1.4
				c3.1-0.5,6.5-3.2,6.5-6.2V344h1.7v1.4c0,3,3.4,5.6,6.6,6.2l-0.7,1.4C106.5,352.4,103.7,350.6,102.5,348z"/>
			<path class="st4" d="M112.3,353.7v-1.3h7.3v-1.8h-5.2v-7.2h12.1v1.3H116v1.7h10v1.2h-10v1.8h10.6v1.3h-5.4v1.8h7.3v1.3
				L112.3,353.7L112.3,353.7z M126.6,357.9c0,1.9-2.2,2.9-6.1,2.9c-4,0-6.1-1-6.1-2.9s2.2-2.9,6.1-2.9
				C124.4,355.1,126.6,356.1,126.6,357.9z M124.9,357.9c0-1.1-1.6-1.6-4.5-1.6s-4.5,0.6-4.5,1.6c0,1.1,1.6,1.6,4.5,1.6
				S124.9,359.1,124.9,357.9z"/>
			<path class="st4" d="M141.3,355l0.1,1.2c-3.7,0.6-7.9,0.7-11.1,0.7l-0.2-1.4c1.1,0,2.4,0,3.8-0.1V350h1.6v5.5
				C137.5,355.4,139.4,355.3,141.3,355z M138.5,346.2H131v-1.3h9.1v1c0,1.4,0,3.7-0.5,7.1l-1.6-0.2
				C138.5,349.8,138.5,347.6,138.5,346.2z M144,360.8h-1.6v-17.9h1.6v7.5h2.9v1.4H144V360.8z"/>
			<path class="st4" d="M157.6,348.7c-0.8,2.2-2.4,3.9-4.5,4.8l-0.9-1.3c2.7-1,4.5-3.6,4.5-6.4V344h1.6v1.8c0,2.7,1.8,5.2,4.5,6.1
				l-0.9,1.3C160,352.4,158.4,350.8,157.6,348.7z M155.3,360.4v-5.6h1.6v4.3h10.4v1.3L155.3,360.4L155.3,360.4z M165.2,342.9h1.6
				v13.2h-1.6V342.9z"/>
			<path class="st4" d="M181.8,355.5l0.1,1.2c-3.9,0.6-8.2,0.7-11.6,0.7l-0.2-1.4c1.5,0,3.3,0,5-0.1v-3h-3.7v-4.8h7.3v-2.2h-7.4
				v-1.3h9v4.7H173v2.3h7.8v1.3h-4.1v3C178.6,355.8,180.2,355.7,181.8,355.5z M183,360.9v-18h1.6v18H183z"/>
			<path class="st4" d="M187.9,352.5v-1.2h16.3v1.2H187.9z M202.7,360.6h-12.8v-4h10.6v-1.5h-10.7v-1.2h12.3v3.8h-10.6v1.7h11.2
				V360.6z M190,343.4h12.1v3.7h-10.5v1.5h10.8v1.2H190V346h10.5v-1.5H190V343.4z"/>
			<path class="st4" d="M209.8,353.7v-1.3h7.3v-1.8h-5.2v-7.2H224v1.3h-10.5v1.7h10v1.2h-10v1.8h10.6v1.3h-5.4v1.8h7.3v1.3
				L209.8,353.7L209.8,353.7z M224,357.9c0,1.9-2.2,2.9-6.1,2.9c-4,0-6.1-1-6.1-2.9s2.2-2.9,6.1-2.9
				C221.9,355.1,224,356.1,224,357.9z M222.4,357.9c0-1.1-1.6-1.6-4.5-1.6s-4.5,0.6-4.5,1.6c0,1.1,1.6,1.6,4.5,1.6
				S222.4,359.1,222.4,357.9z"/>
			<path class="st4" d="M236.6,347.3h-8.9V346h3.6v-2.5h1.6v2.5h3.6L236.6,347.3L236.6,347.3z M236,352.6c0,2.4-1.6,4.1-3.8,4.1
				s-3.8-1.7-3.8-4.1s1.6-4.1,3.8-4.1S236,350.2,236,352.6z M234.5,352.6c0-1.6-1-2.7-2.4-2.7s-2.4,1.1-2.4,2.7s1,2.7,2.4,2.7
				C233.5,355.3,234.5,354.2,234.5,352.6z M241.3,360.8v-9H239v8.2h-1.5v-16.7h1.5v7.2h2.3v-7.6h1.6v17.9H241.3z"/>
			<path class="st4" d="M11.5,389.4l-1,1.3c-1.9-1-3.5-3.1-4.3-5.6c-0.8,2.7-2.4,4.8-4.5,5.9l-1-1.3c2.6-1.3,4.6-4.8,4.6-8v-3.2H7
				v3.2C7,384.8,9,388.1,11.5,389.4z M14.8,394.8h-1.6v-17.9h1.6v7.3h3v1.4h-3C14.8,385.6,14.8,394.8,14.8,394.8z"/>
			<path class="st4" d="M21.1,386.7h-1.4v-5.1h6.4v-2.3h-6.5V378h8.1v4.9h-6.4v2.5c3.1,0,5.4-0.1,8.2-0.6l0.2,1.3
				C26.8,386.6,24.4,386.7,21.1,386.7z M32.8,394.6H21.5v-6.1h11.3V394.6z M31.2,389.8h-8.1v3.5h8.1V389.8z M32.8,387.6h-1.6v-10.7
				h1.6v4.6h2.7v1.4h-2.7V387.6z"/>
			<path class="st4" d="M36.7,386v-1.3H53v1.3H36.7z M38.6,380.3c0-2,2.4-3.1,6.3-3.1s6.3,1.1,6.3,3.1s-2.4,3.1-6.3,3.1
				C40.9,383.4,38.6,382.3,38.6,380.3z M51.4,394.6H38.8v-4.3h10.5v-1.6H38.7v-1.2h12.2v4H40.4v1.8h11.1L51.4,394.6L51.4,394.6z
				 M40.2,380.3c0,1.2,1.6,1.9,4.6,1.9s4.6-0.7,4.6-1.9c0-1.2-1.6-1.9-4.6-1.9S40.2,379.1,40.2,380.3z"/>
			<path class="st4" d="M65.4,387.8v6.5h-1.6v-6.4c-1.8,0.1-3.4,0.1-5,0.1l-0.2-1.4c3.4,0,7.9-0.1,11.8-0.6l0.1,1.2
				C68.9,387.5,67.2,387.7,65.4,387.8z M59.9,381.4c0-2.2,1.9-3.7,4.6-3.7s4.6,1.5,4.6,3.7s-1.9,3.7-4.6,3.7
				C61.9,385.1,59.9,383.6,59.9,381.4z M61.5,381.4c0,1.4,1.2,2.3,3,2.3c1.8,0,3-0.9,3-2.3s-1.2-2.3-3-2.3
				C62.8,379.1,61.5,380.1,61.5,381.4z M71.7,394.9V377h1.6v17.9H71.7z"/>
			<path class="st4" d="M76.6,379.1h4.5v-2.2h1.6v2.2h4.5v1.3H76.6V379.1z M81.9,388.1c-2.5,0-4.3-1.3-4.3-3.3s1.7-3.3,4.3-3.3
				c2.6,0,4.3,1.3,4.3,3.3C86.2,386.8,84.4,388.1,81.9,388.1z M81.9,386.8c1.6,0,2.7-0.8,2.7-2.1s-1.1-2-2.7-2c-1.7,0-2.7,0.8-2.7,2
				S80.2,386.8,81.9,386.8z M91.3,394.4h-12v-5.1h1.6v3.8h10.3L91.3,394.4L91.3,394.4z M90.5,384.2v6.2h-1.6V377h1.6v5.9h2.7v1.4
				h-2.7V384.2z"/>
			<path class="st4" d="M99.5,391.5l-0.9-1.3c4.8-2.3,7.2-5.7,7.6-10h-6.7v-1.3h8.4C107.9,384,105.5,388.6,99.5,391.5z M111.5,394.8
				v-17.9h1.6v17.9H111.5z"/>
			<path class="st4" d="M129.4,386.5v-4h-3.6c-0.3,2.1-2.1,3.5-4.6,3.5c-2.7,0-4.6-1.7-4.6-4.2s2-4.1,4.6-4.1c2.4,0,4.2,1.4,4.6,3.4
				h3.7v-4.3h1.7v9.6h-1.8V386.5z M124.3,381.9c0-1.7-1.3-2.8-3.1-2.8s-3.1,1.1-3.1,2.8c0,1.6,1.3,2.8,3.1,2.8
				S124.3,383.5,124.3,381.9z M131.1,394.6h-11.5v-7.2h1.6v2.3h8.2v-2.3h1.6L131.1,394.6L131.1,394.6z M121.2,393.3h8.2V391h-8.2
				V393.3z"/>
			<path class="st4" d="M143.3,387.4v3.6h-1.6v-3.6h-7.5v-1.3h16.3v1.3H143.3z M148.7,394.4h-12.4v-5.1h1.6v3.8h10.8L148.7,394.4
				L148.7,394.4z M136.3,377.7h12.1v6.3h-12.1V377.7z M137.9,382.7h8.8V379h-8.8V382.7z"/>
			<path class="st4" d="M163.2,389.5l0.1,1.2c-3.9,0.7-8,0.7-11.2,0.7l-0.2-1.4c1.4,0,3.1,0,4.9-0.1v-2c-2.1-0.3-3.4-1.5-3.4-3.3
				c0-2,1.7-3.3,4.2-3.3s4.2,1.3,4.2,3.3c0,1.8-1.3,3-3.4,3.3v1.9C160,389.9,161.7,389.7,163.2,389.5z M152.2,379.1h4.6v-2.2h1.6
				v2.2h4.5v1.3h-10.7L152.2,379.1L152.2,379.1z M157.6,386.8c1.6,0,2.7-0.8,2.7-2s-1.1-2.1-2.7-2.1c-1.6,0-2.7,0.8-2.7,2.1
				S156,386.8,157.6,386.8z M165.9,394.8h-1.6v-17.9h1.6v7.6h2.8v1.4h-2.8V394.8z"/>
			<path class="st4" d="M170,386.5v-1.2h16.3v1.2H170z M184.8,394.6H172v-4h10.6v-1.5H172v-1.2h12.3v3.8h-10.6v1.7h11.2L184.8,394.6
				L184.8,394.6z M172.1,377.4h12.1v3.7h-10.5v1.5h10.8v1.2h-12.4V380h10.5v-1.5h-10.5L172.1,377.4L172.1,377.4z"/>
			<path class="st4" d="M192.6,378.5h8.2v8.3h-8.2V378.5z M194.2,385.5h5v-5.7h-5V385.5z M206.6,394.4h-12v-5.6h1.6v4.3h10.3
				L206.6,394.4L206.6,394.4z M205.8,383.7v6.3h-1.6v-13.1h1.6v5.5h2.7v1.4L205.8,383.7L205.8,383.7z"/>
			<path class="st4" d="M209.8,386.3V385H226v1.3H209.8z M211.8,377.5H224v1.3h-10.5v3.1h10.7v1.3h-12.3L211.8,377.5L211.8,377.5z
				 M224,394.6h-12.1v-6.8h1.6v2h8.8v-2h1.6L224,394.6L224,394.6z M213.5,393.2h8.8V391h-8.8V393.2z"/>
			<path class="st4" d="M238.9,388l0.2,1.4c-3.1,0.6-5.9,0.8-8.8,0.8h-1.5v-11.6h1.6v10.2C233.2,388.8,235.9,388.6,238.9,388z
				 M240.8,394.8v-17.9h1.6v17.9H240.8z"/>
			<path class="st4" d="M256.1,388.4l0.2,1.4c-2.7,0.5-5.1,0.6-8.5,0.6h-1.4v-11.8h8.3v1.4H248v9C251.2,389,253.5,388.9,256.1,388.4
				z M259.4,394.9h-1.6v-18h1.6v7.1h3v1.4h-3V394.9z"/>
		</g>
		<g>
			<circle class="st3" cx="131.2" cy="201.9" r="112.9"/>
			<path class="st5" d="M131.2,89.6c30,0,58.2,11.7,79.5,32.9c21.2,21.2,32.9,49.4,32.9,79.5s-11.7,58.2-32.9,79.5
				c-21.2,21.2-49.4,32.9-79.5,32.9S73,302.7,51.7,281.5c-21.2-21.2-32.9-49.4-32.9-79.5s11.7-58.2,32.9-79.5S101.1,89.6,131.2,89.6
				 M131.2,88.6C68.6,88.6,17.8,139.4,17.8,202s50.8,113.4,113.4,113.4S244.6,264.6,244.6,202S193.8,88.6,131.2,88.6L131.2,88.6z"/>
		</g>
		<g>
			<path d="M74,222.5l-1.6,2.1c-2.5-1.3-4.4-3.8-5.4-6.9c-1,3.2-3,6-5.7,7.4l-1.6-2.2c3.7-1.8,6-6.2,6-10.6v-3.8h2.7v3.8
				C68.3,216.5,70.5,220.8,74,222.5z M78.3,218.1v12h-2.7v-23.5h2.7v9.3H82v2.2H78.3z"/>
			<path d="M86.2,219.5h-1.9v-7h8V210h-8v-2.2H95v6.8h-8v2.8c4,0,6.9-0.1,10.1-0.8l0.3,2.2C93.7,219.4,90.7,219.5,86.2,219.5z
				 M101.7,221.6v8.1h-15v-8.1H101.7z M99.1,227.6v-3.9h-9.8v3.9H99.1z M101.7,214.6v6H99v-14h2.7v5.8h3.3v2.2H101.7z"/>
			<path d="M118.6,221.7c4.4,0.3,6.7,1.7,6.7,4.2c0,2.7-2.9,4.2-8.1,4.2s-8.1-1.5-8.1-4.2c0-2.5,2.4-3.9,6.8-4.2v-2.2h-9.3v-2.1
				h21.2v2.1h-9.3L118.6,221.7L118.6,221.7z M115.4,209.7h-6.8v-2.2h17.3v2.2H119c0.3,2.1,3.4,4,7.7,4.4l-0.9,2.1
				c-4.1-0.4-7.4-2.2-8.6-4.5c-1.3,2.4-4.4,4.1-8.6,4.5l-1-2.1C112,213.7,115.1,211.8,115.4,209.7z M117.2,223.7
				c-3.5,0-5.4,0.7-5.4,2.1c0,1.4,1.9,2.1,5.4,2.1s5.4-0.8,5.4-2.1C122.6,224.4,120.7,223.7,117.2,223.7z"/>
			<path d="M137.1,213.9c-1.1,2.5-3.1,4.5-5.9,5.5l-1.3-2.1c3.7-1.2,5.8-4.3,5.8-7.5v-2.3h2.7v2.3c0,3.1,2.1,6,5.7,7.1l-1.3,2.1
				C140.2,218,138.2,216.3,137.1,213.9z M149.3,221.1v8.6h-15.4v-8.6H149.3z M146.6,227.6v-4.4h-10.1v4.4H146.6z M149.3,219.9h-2.7
				v-13.3h2.7V219.9z"/>
			<path d="M179.6,220.5h-9.1v4.4h-2.7v-4.4h-9.5v-2.2h21.3V220.5z M177.3,227.4v2.2H161v-6.8h2.7v4.6H177.3z M161,216v-8.5h15.8
				v8.5H161z M163.7,209.7v4.2h10.6v-4.2H163.7z"/>
			<path d="M196,222.9l0.2,2c-5,0.9-10.5,0.9-14.5,0.9l-0.4-2.2c1.8,0,3.9,0,6.1-0.1v-2.3c-2.6-0.4-4.3-2-4.3-4.3
				c0-2.7,2.3-4.4,5.6-4.4c3.4,0,5.6,1.7,5.6,4.4c0,2.3-1.7,3.8-4.3,4.3v2.2C192.1,223.3,194.1,223.2,196,222.9z M181.8,211.4v-2.2
				h5.7v-2.7h2.7v2.7h5.6v2.2H181.8z M188.8,219.3c1.9,0,3.1-0.9,3.1-2.3s-1.2-2.3-3.1-2.3s-3.1,0.9-3.1,2.3
				S186.9,219.3,188.8,219.3z M200,218.5V230h-2.7v-23.5h2.7v9.8h3.4v2.2H200z"/>
		</g>
		<g>
			<path class="st6" d="M100,187.7v-12.6h5.5c1.1,0,2.1,0.2,2.9,0.5c0.8,0.4,1.4,0.9,1.9,1.6s0.7,1.5,0.7,2.4s-0.2,1.7-0.7,2.4
				s-1.1,1.2-1.9,1.6c-0.8,0.4-1.8,0.5-2.9,0.5h-3.8l1.3-1.3v4.8h-3V187.7z M102.9,183.3l-1.3-1.4h3.7c0.9,0,1.6-0.2,2-0.6
				c0.4-0.4,0.7-0.9,0.7-1.6c0-0.7-0.2-1.2-0.7-1.6c-0.4-0.4-1.1-0.6-2-0.6h-3.7l1.3-1.4V183.3z"/>
			<path class="st6" d="M117.6,187.9c-1.1,0-2.1-0.2-2.9-0.6c-0.8-0.4-1.5-1-1.9-1.8s-0.7-1.6-0.7-2.6s0.2-1.8,0.7-2.6
				s1.1-1.3,1.8-1.8c0.8-0.4,1.7-0.6,2.6-0.6s1.8,0.2,2.6,0.6c0.8,0.4,1.4,1,1.8,1.7c0.4,0.8,0.7,1.6,0.7,2.7c0,0.1,0,0.2,0,0.4
				c0,0.1,0,0.3,0,0.4h-7.9v-1.6h6.4l-1.1,0.5c0-0.5-0.1-0.9-0.3-1.3c-0.2-0.4-0.5-0.7-0.8-0.9c-0.4-0.2-0.8-0.3-1.3-0.3
				s-0.9,0.1-1.3,0.3s-0.7,0.5-0.9,0.9s-0.3,0.8-0.3,1.3v0.4c0,0.5,0.1,1,0.4,1.4c0.2,0.4,0.6,0.7,1,0.9s0.9,0.3,1.5,0.3
				c0.5,0,1-0.1,1.4-0.2c0.4-0.2,0.7-0.4,1.1-0.7l1.5,1.6c-0.4,0.5-1,0.9-1.7,1.2C119.2,187.8,118.5,187.9,117.6,187.9z"/>
			<path class="st6" d="M128.7,187.9c-1,0-1.9-0.2-2.7-0.6c-0.8-0.4-1.4-1-1.9-1.8s-0.7-1.6-0.7-2.6s0.2-1.8,0.7-2.6
				s1.1-1.3,1.9-1.8c0.8-0.4,1.7-0.6,2.7-0.6s1.9,0.2,2.7,0.6c0.8,0.4,1.4,1,1.9,1.8c0.5,0.7,0.7,1.6,0.7,2.6s-0.2,1.8-0.7,2.6
				s-1.1,1.3-1.9,1.8S129.8,187.9,128.7,187.9z M128.7,185.6c0.5,0,0.9-0.1,1.3-0.3c0.4-0.2,0.7-0.5,0.9-0.9s0.3-0.9,0.3-1.4
				c0-0.6-0.1-1-0.3-1.4s-0.5-0.7-0.9-0.9s-0.8-0.3-1.3-0.3s-0.9,0.1-1.3,0.3s-0.7,0.5-0.9,0.9s-0.3,0.9-0.3,1.4
				c0,0.6,0.1,1,0.3,1.4c0.2,0.4,0.5,0.7,0.9,0.9C127.9,185.5,128.3,185.6,128.7,185.6z"/>
			<path class="st6" d="M135.9,191.2V178h2.7v2l-0.1,2.9l0.2,2.9v5.5L135.9,191.2L135.9,191.2z M141.7,187.9c-0.8,0-1.5-0.2-2.1-0.5
				s-1.1-0.9-1.4-1.6s-0.5-1.7-0.5-2.8s0.2-2.1,0.5-2.8s0.8-1.3,1.4-1.6c0.6-0.4,1.3-0.5,2.2-0.5s1.7,0.2,2.5,0.6
				c0.7,0.4,1.3,1,1.7,1.7s0.6,1.6,0.6,2.6s-0.2,1.9-0.6,2.6s-1,1.3-1.7,1.7C143.4,187.7,142.6,187.9,141.7,187.9z M141.2,185.6
				c0.5,0,0.9-0.1,1.3-0.3c0.4-0.2,0.7-0.5,0.9-0.9s0.3-0.9,0.3-1.4c0-0.6-0.1-1-0.3-1.4s-0.5-0.7-0.9-0.9s-0.8-0.3-1.3-0.3
				s-0.9,0.1-1.3,0.3c-0.4,0.2-0.7,0.5-0.9,0.9s-0.3,0.9-0.3,1.4c0,0.6,0.1,1,0.3,1.4s0.5,0.7,0.9,0.9
				C140.3,185.5,140.7,185.6,141.2,185.6z"/>
			<path class="st6" d="M148.3,187.7v-13.4h2.8v13.4H148.3z"/>
			<path class="st6" d="M158.6,187.9c-1.1,0-2.1-0.2-2.9-0.6c-0.8-0.4-1.5-1-1.9-1.8s-0.7-1.6-0.7-2.6s0.2-1.8,0.7-2.6
				s1.1-1.3,1.8-1.8c0.8-0.4,1.7-0.6,2.6-0.6c0.9,0,1.8,0.2,2.6,0.6c0.8,0.4,1.4,1,1.8,1.7c0.4,0.8,0.7,1.6,0.7,2.7
				c0,0.1,0,0.2,0,0.4c0,0.1,0,0.3,0,0.4h-7.9v-1.6h6.4l-1.1,0.5c0-0.5-0.1-0.9-0.3-1.3c-0.2-0.4-0.5-0.7-0.8-0.9
				c-0.4-0.2-0.8-0.3-1.3-0.3s-0.9,0.1-1.3,0.3c-0.4,0.2-0.7,0.5-0.9,0.9s-0.3,0.8-0.3,1.3v0.4c0,0.5,0.1,1,0.4,1.4
				c0.2,0.4,0.6,0.7,1,0.9s0.9,0.3,1.5,0.3c0.5,0,1-0.1,1.4-0.2c0.4-0.2,0.7-0.4,1.1-0.7l1.5,1.6c-0.4,0.5-1,0.9-1.7,1.2
				C160.2,187.8,159.4,187.9,158.6,187.9z"/>
		</g>
	</g>
	<g>
		<g>
			<rect x="244.6" y="201.2" class="st5" width="70.9" height="0.9"/>
		</g>
		<g>
			<path class="st2" d="M311.4,207.8c-3.4,0-6.1-2.7-6.1-6.1c0-3.4,2.7-6.1,6.1-6.1s6.1,2.7,6.1,6.1
				C317.5,205,314.8,207.8,311.4,207.8z"/>
			<path class="st3" d="M311.4,196.6c2.8,0,5.1,2.3,5.1,5.1s-2.3,5.1-5.1,5.1s-5.1-2.3-5.1-5.1C306.3,198.9,308.6,196.6,311.4,196.6
				 M311.4,194.6c-3.9,0-7.1,3.2-7.1,7.1c0,3.9,3.2,7.1,7.1,7.1s7.1-3.2,7.1-7.1S315.3,194.6,311.4,194.6L311.4,194.6z"/>
		</g>
	</g>
</g>
<g id="미래지향" class="future">
	<g>
		<g>
			<path class="st4" d="M761.8,349.1c-0.8,1.9-2.4,3.4-4.5,4.1l-0.8-1.3c2.7-0.8,4.5-3,4.5-5.4v-0.4h-4v-1.3h4v-2.3h1.6v2.3h4v1.3
				h-4v0.4c0,2.2,1.8,4.1,4.4,4.9l-0.8,1.3C764.2,352.1,762.6,350.8,761.8,349.1z M770.6,357.3c0,2.1-2.2,3.2-5.9,3.2
				s-5.9-1.2-5.9-3.2c0-2.1,2.2-3.2,5.9-3.2C768.4,354.1,770.6,355.2,770.6,357.3z M769,357.3c0-1.3-1.6-2-4.3-2s-4.3,0.7-4.3,2
				s1.5,2,4.3,2C767.4,359.3,769,358.6,769,357.3z M770.4,348.6v5h-1.6v-11h1.6v4.6h2.7v1.4H770.4z"/>
			<path class="st4" d="M786.2,354.7l0.1,1.2c-4.1,0.7-8.4,0.8-11.6,0.8l-0.2-1.4C777.8,355.3,782.3,355.2,786.2,354.7z M785,348.2
				c0,2.5-2,4.2-4.8,4.2s-4.8-1.7-4.8-4.2s2-4.2,4.8-4.2C783,343.9,785,345.7,785,348.2z M777,348.2c0,1.7,1.3,2.8,3.2,2.8
				s3.2-1.2,3.2-2.8c0-1.7-1.3-2.8-3.2-2.8S777,346.5,777,348.2z M787.4,360.6v-18h1.6v18H787.4z"/>
			<path class="st4" d="M797.7,348.6c-0.8,2.1-2.4,3.7-4.5,4.5l-0.9-1.3c2.7-1,4.5-3.3,4.5-5.9v-0.7h-4v-1.3h9.6v1.3h-3.9v0.7
				c0,2.3,1.8,4.6,4.4,5.5l-0.8,1.3C800.1,351.9,798.5,350.5,797.7,348.6z M807.1,360.6h-1.6v-4.9h-10.3v-1.3h12v6.2H807.1z
				 M805.4,353.4v-4.7h-3.5v-1.3h3.5v-4.7h1.6v10.7H805.4z"/>
			<path class="st4" d="M824.8,355.1l-1,1.3c-1.9-1-3.5-3.1-4.3-5.6c-0.8,2.7-2.4,4.8-4.5,5.9l-1-1.3c2.6-1.3,4.6-4.8,4.6-8v-3.2
				h1.6v3.2C820.2,350.5,822.3,353.8,824.8,355.1z M828,360.6h-1.6v-17.9h1.6v7.3h3v1.4h-3V360.6z"/>
			<path class="st4" d="M832.1,358v-1.3h6.3v-6.4h1.6v6.4h8.3v1.3H832.1z M833.8,344.4h12.6v1.8c0,2.2,0,4.7-0.7,8.3l-1.6-0.2
				c0.7-3.4,0.7-6,0.7-8.1v-0.4h-10.9L833.8,344.4L833.8,344.4z"/>
			<path class="st4" d="M861,354.8l0.1,1.2c-3.8,0.6-8,0.7-11.1,0.7l-0.2-1.4c1.4,0,3.1,0,4.7-0.1v-3.1c-2.3-0.3-3.9-1.9-3.9-4.2
				c0-2.5,2-4.2,4.8-4.2c2.7,0,4.7,1.7,4.7,4.2c0,2.2-1.6,3.8-3.9,4.2v3C857.9,355.1,859.5,355,861,354.8z M855.4,350.8
				c1.8,0,3.1-1.1,3.1-2.8c0-1.7-1.3-2.8-3.1-2.8c-1.9,0-3.2,1.2-3.2,2.8C852.2,349.7,853.5,350.8,855.4,350.8z M863.8,360.6h-1.6
				v-18h1.6v7.4h2.8v1.4h-2.8V360.6z"/>
			<path class="st4" d="M871.9,358.3v-1.4h7.3v-4.6H874V344h12.2v1.3h-10.5v5.6h10.7v1.3h-5.5v4.6h7.3v1.4h-16.3V358.3z"/>
			<path class="st4" d="M895.2,349c-0.8,2.1-2.4,3.7-4.5,4.5l-0.9-1.3c2.7-1,4.5-3.3,4.5-5.9v-0.9h-4v-1.3h9.6v1.3H896v0.9
				c0,2.3,1.8,4.6,4.4,5.5l-0.8,1.3C897.5,352.4,896,350.9,895.2,349z M893.1,360.2v-5.5h1.7v4.2h10.3v1.3H893.1z M904.6,342.6v13.1
				h-1.7v-6.9h-3.6v-1.3h3.6v-4.9L904.6,342.6L904.6,342.6z"/>
			<path class="st4" d="M907.7,351.7v-1.3h16.2v1.3H907.7z M909.5,346c0-2,2.4-3.1,6.3-3.1c3.9,0,6.3,1.1,6.3,3.1s-2.4,3.1-6.3,3.1
				C911.8,349.1,909.5,348.1,909.5,346z M922.4,360.4h-12.7v-4.3h10.5v-1.6h-10.6v-1.2h12.2v4h-10.5v1.8h11.1V360.4z M911.2,346
				c0,1.2,1.6,1.9,4.6,1.9s4.6-0.7,4.6-1.9c0-1.2-1.6-1.9-4.6-1.9S911.2,344.8,911.2,346z"/>
			<path class="st4" d="M929.5,353.4v-1.3h7.3v-1.8h-5.2v-7.2h12.1v1.3h-10.5v1.7h10v1.2h-10v1.8h10.6v1.3h-5.4v1.8h7.3v1.3
				L929.5,353.4L929.5,353.4z M943.8,357.7c0,1.9-2.2,2.9-6.1,2.9c-4,0-6.1-1-6.1-2.9s2.2-2.9,6.1-2.9
				C941.6,354.8,943.8,355.8,943.8,357.7z M942.2,357.7c0-1.1-1.6-1.6-4.5-1.6s-4.5,0.6-4.5,1.6c0,1.1,1.6,1.6,4.5,1.6
				S942.2,358.8,942.2,357.7z"/>
			<path class="st4" d="M956.3,347h-8.9v-1.3h3.6v-2.5h1.6v2.5h3.6v1.3H956.3z M955.7,352.3c0,2.4-1.6,4.1-3.8,4.1s-3.8-1.7-3.8-4.1
				s1.6-4.1,3.8-4.1S955.7,349.9,955.7,352.3z M954.3,352.3c0-1.6-1-2.7-2.4-2.7s-2.4,1.1-2.4,2.7s1,2.7,2.4,2.7
				S954.3,353.9,954.3,352.3z M961.1,360.5v-9h-2.3v8.2h-1.5V343h1.5v7.2h2.3v-7.6h1.6v17.9H961.1z"/>
			<path class="st4" d="M759.3,377.4h1.6v2.6h5.1v-2.6h1.6v7.8h-8.3L759.3,377.4L759.3,377.4z M760.9,383.9h5.1v-2.7h-5.1V383.9z
				 M773.1,394.4h-12v-4.5h9.7V388H761v-1.3h11.4v4.4h-9.7v2h10.4L773.1,394.4L773.1,394.4z M772.4,381.8v4.1h-1.6v-9.3h1.6v3.8h2.7
				v1.4H772.4z"/>
			<path class="st4" d="M781.9,383c-0.8,2.1-2.4,3.7-4.5,4.5l-0.9-1.3c2.7-1,4.5-3.3,4.5-5.9v-0.9h-4v-1.3h9.6v1.3h-3.9v0.9
				c0,2.3,1.8,4.6,4.4,5.5l-0.8,1.3C784.2,386.4,782.6,384.9,781.9,383z M779.7,394.2v-5.5h1.7v4.2h10.3v1.3H779.7z M791.2,376.6
				v13.1h-1.7v-6.9h-3.6v-1.3h3.6v-4.9L791.2,376.6L791.2,376.6z"/>
			<path class="st4" d="M794.6,387.8l-0.2-1.3c1.6,0,3.3,0,5.1-0.1v-2.5H796v-6h8.5v1.3h-6.9v3.4h7v1.3H801v2.5
				c1.7-0.1,3.3-0.2,4.8-0.4l0.1,1.2C802.2,387.7,798,387.8,794.6,387.8z M797.4,394.2v-5h1.6v3.7h10.6v1.3H797.4z M807.4,376.6h1.6
				V390h-1.6V376.6z"/>
			<path class="st4" d="M817.2,390v-11.7h8.2V390H817.2z M823.9,388.7v-9h-5v9H823.9z M829.2,394.6v-18h1.6v18H829.2z"/>
			<path class="st4" d="M842.5,388.4l0.1,1.4c-2.5,0.4-4.5,0.5-6.7,0.5h-1.2v-6.7h5.1V380h-5.1v-1.3h6.7v6.3h-5.1v4
				C838.3,388.9,840.2,388.8,842.5,388.4z M847.8,394.5V385h-2.5v8.6h-1.5V377h1.5v6.7h2.5v-7.1h1.6v17.9H847.8z"/>
			<path class="st4" d="M852,386.2V385h16.3v1.2H852z M866.8,394.3H854v-4h10.6v-1.5h-10.7v-1.2h12.3v3.8h-10.6v1.7h11.2V394.3z
				 M854,377.1h12.1v3.7h-10.5v1.5h10.8v1.2H854v-3.8h10.5v-1.5H854V377.1z"/>
			<path class="st4" d="M879.4,381.3c-0.8,2.1-2.4,3.7-4.6,4.5l-0.8-1.3c2.7-1,4.6-3.3,4.6-5.9v-1.4h1.6v1.4c0,2.5,1.9,4.7,4.5,5.6
				l-0.8,1.3C881.8,384.7,880.2,383.2,879.4,381.3z M877,394.4v-4.5h10v-1.8h-10v-1.3h11.6v4.3h-10v1.9h10.6v1.3H877V394.4z
				 M886.9,376.6h1.6v9.3h-1.6V376.6z"/>
			<path class="st4" d="M891.8,378.8h4.3v-2.2h1.6v2.2h4.1v1.3h-10L891.8,378.8L891.8,378.8z M896.9,388c-2.4,0-4.1-1.4-4.1-3.4
				s1.7-3.4,4.1-3.4c2.4,0,4.1,1.4,4.1,3.4S899.3,388,896.9,388z M896.9,386.7c1.5,0,2.5-0.9,2.5-2.2s-1-2.1-2.5-2.1
				s-2.5,0.8-2.5,2.1S895.4,386.7,896.9,386.7z M895,394.2v-5h1.6v3.7H907v1.3H895z M906.6,376.6v13.7h-1.7v-3.8h-3v-1.3h3v-2.4h-3
				v-1.3h3v-4.8h1.7V376.6z"/>
			<path class="st4" d="M909.7,378.5h4.5v-2h1.6v2h4.5v1.3h-10.6V378.5z M915,386.9c-2.6,0-4.3-1.2-4.3-3.1s1.7-3.1,4.3-3.1
				s4.3,1.2,4.3,3.1C919.3,385.7,917.6,386.9,915,386.9z M915,385.7c1.7,0,2.7-0.7,2.7-1.9c0-1.2-1.1-1.9-2.7-1.9s-2.7,0.7-2.7,1.9
				S913.3,385.7,915,385.7z M923.6,394.3h-11.3v-6.5h1.6v1.9h8v-1.9h1.6v6.5H923.6z M913.9,393h8v-2h-8V393z M923.6,387H922v-10.4
				h1.6v4.6h2.7v1.4h-2.7V387z"/>
			<path class="st4" d="M938.8,387.7l0.2,1.4c-3.1,0.6-5.9,0.8-8.8,0.8h-1.5v-11.6h1.6v10.2C933.1,388.5,935.8,388.3,938.8,387.7z
				 M940.6,394.5v-17.9h1.6v17.9H940.6z"/>
			<path class="st4" d="M956,388.1l0.2,1.4c-2.7,0.5-5.1,0.6-8.5,0.6h-1.4v-11.8h8.3v1.4h-6.7v9C951.1,388.7,953.4,388.6,956,388.1z
				 M959.3,394.6h-1.6v-18h1.6v7.1h3v1.4h-3V394.6z"/>
		</g>
		<g>
			<circle class="st3" cx="859.9" cy="201.7" r="112.9"/>
			<path class="st5" d="M859.9,89.3c30,0,58.2,11.7,79.5,32.9c21.2,21.2,32.9,49.4,32.9,79.5s-11.7,58.2-32.9,79.5
				c-21.2,21.2-49.4,32.9-79.5,32.9c-30,0-58.2-11.7-79.5-32.9c-21.2-21.2-32.9-49.4-32.9-79.5s11.7-58.2,32.9-79.5
				C801.6,101,829.9,89.3,859.9,89.3 M859.9,88.3c-62.6,0-113.4,50.8-113.4,113.4S797.3,315,859.9,315s113.4-50.8,113.4-113.4
				S922.5,88.3,859.9,88.3L859.9,88.3z"/>
		</g>
		<g>
			<path d="M826.6,224h-11v-15.5h11V224z M818.2,221.8h5.8v-11.2h-5.8V221.8z M833.7,229.8H831v-23.6h2.7V229.8z"/>
			<path d="M848.3,221.5l0.2,2.2c-3.1,0.5-5.7,0.6-8.6,0.6h-1.6v-9.2h6.2v-4.3h-6.2v-2.2h8.8v8.6h-6.2v4.8
				C843.4,222.1,845.6,221.9,848.3,221.5z M857.6,229.7h-2.5v-12.2h-2.8v11.1h-2.5v-21.8h2.5v8.6h2.8v-9.1h2.5V229.7z"/>
			<path d="M875.6,222.6l-1.5,2.1c-2.7-1.2-4.8-3.7-5.9-6.8c-1,3.3-3.1,6.1-5.9,7.4l-1.5-2.1c3.6-1.6,6.1-6.1,6.1-10.1v-2.2h-5.2
				v-2.2h13.2v2.2h-5.2v2.2C869.5,217,872,221,875.6,222.6z M880.2,229.7h-2.7v-23.5h2.7V229.7z"/>
			<path d="M884.2,210.9v-2.1h5.6v-2.7h2.7v2.7h5.6v2.1H884.2z M891.1,220.2c-3.4,0-5.7-1.7-5.7-4.2s2.3-4.2,5.7-4.2
				s5.7,1.6,5.7,4.2C896.8,218.5,894.5,220.2,891.1,220.2z M902.7,225.6c0,2.6-3,4.1-7.7,4.1c-4.8,0-7.7-1.5-7.7-4.1s3-4.1,7.7-4.1
				C899.8,221.5,902.7,223,902.7,225.6z M891.1,218.2c1.9,0,3.1-0.8,3.1-2.2s-1.3-2.2-3.1-2.2s-3.1,0.8-3.1,2.2
				S889.2,218.2,891.1,218.2z M900.1,225.6c0-1.4-1.8-2.1-5.1-2.1s-5.1,0.7-5.1,2.1c0,1.4,1.8,2.1,5.1,2.1
				C898.2,227.7,900.1,227,900.1,225.6z M902.5,215.1h3.2v2.2h-3.2v4h-2.7v-15h2.7v3.8h3.2v2.2h-3.2V215.1z"/>
		</g>
		<g>
			<path class="st7" d="M832.7,187.5h-2.9v-12.6h9.5v2.3h-6.6V187.5z M832.5,180.5h6v2.3h-6V180.5z"/>
			<path class="st7" d="M845.2,187.6c-0.8,0-1.5-0.2-2.2-0.5c-0.6-0.3-1.1-0.8-1.5-1.4c-0.3-0.6-0.5-1.5-0.5-2.5v-5.5h2.8v5.1
				c0,0.8,0.2,1.4,0.5,1.8c0.3,0.4,0.8,0.6,1.4,0.6c0.4,0,0.8-0.1,1.2-0.3s0.6-0.5,0.8-0.9s0.3-0.9,0.3-1.5v-4.8h2.8v9.7h-2.7v-2.7
				l0.5,0.8c-0.3,0.7-0.8,1.2-1.4,1.5C846.6,187.5,845.9,187.6,845.2,187.6z"/>
			<path class="st7" d="M852.3,180.2V178h6.7v2.2H852.3z M857.4,187.6c-1.1,0-2-0.3-2.7-0.9s-1-1.4-1-2.6v-8.5h2.8v8.5
				c0,0.4,0.1,0.7,0.3,0.9s0.5,0.3,0.9,0.3s0.8-0.1,1.1-0.4l0.8,2c-0.3,0.2-0.6,0.4-1,0.5C858.3,187.6,857.9,187.6,857.4,187.6z"/>
			<path class="st7" d="M865.4,187.6c-0.8,0-1.5-0.2-2.2-0.5c-0.6-0.3-1.1-0.8-1.5-1.4c-0.3-0.6-0.5-1.5-0.5-2.5v-5.5h2.8v5.1
				c0,0.8,0.2,1.4,0.5,1.8c0.3,0.4,0.8,0.6,1.4,0.6c0.4,0,0.8-0.1,1.2-0.3s0.6-0.5,0.8-0.9s0.3-0.9,0.3-1.5v-4.8h2.8v9.7h-2.7v-2.7
				l0.5,0.8c-0.3,0.7-0.8,1.2-1.4,1.5C866.8,187.5,866.1,187.6,865.4,187.6z"/>
			<path class="st7" d="M873.7,187.5v-9.7h2.7v2.7l-0.4-0.8c0.3-0.7,0.8-1.2,1.4-1.6c0.6-0.4,1.4-0.5,2.3-0.5v2.6
				c-0.1,0-0.2,0-0.3,0s-0.2,0-0.3,0c-0.8,0-1.4,0.2-1.9,0.7c-0.5,0.4-0.7,1.1-0.7,2v4.6H873.7z"/>
			<path class="st7" d="M886.2,187.6c-1.1,0-2.1-0.2-2.9-0.6c-0.8-0.4-1.5-1-1.9-1.8s-0.7-1.6-0.7-2.6s0.2-1.8,0.7-2.6
				s1.1-1.3,1.8-1.8c0.8-0.4,1.7-0.6,2.6-0.6c0.9,0,1.8,0.2,2.6,0.6c0.8,0.4,1.4,1,1.8,1.7c0.4,0.8,0.7,1.6,0.7,2.7
				c0,0.1,0,0.2,0,0.4c0,0.1,0,0.3,0,0.4H883v-1.6h6.4l-1.1,0.5c0-0.5-0.1-0.9-0.3-1.3c-0.2-0.4-0.5-0.7-0.8-0.9
				c-0.4-0.2-0.8-0.3-1.3-0.3s-0.9,0.1-1.3,0.3c-0.4,0.2-0.7,0.5-0.9,0.9s-0.3,0.8-0.3,1.3v0.4c0,0.5,0.1,1,0.4,1.4
				c0.2,0.4,0.6,0.7,1,0.9s0.9,0.3,1.5,0.3c0.5,0,1-0.1,1.4-0.2c0.4-0.2,0.7-0.4,1.1-0.7l1.5,1.6c-0.4,0.5-1,0.9-1.7,1.2
				C887.9,187.5,887.1,187.6,886.2,187.6z"/>
		</g>
	</g>
	<g>
		<g>
			<rect x="675.6" y="201.2" class="st5" width="70.9" height="0.9"/>
		</g>
		<g>
			<path class="st2" d="M679.7,207.8c-3.4,0-6.1-2.7-6.1-6.1c0-3.4,2.7-6.1,6.1-6.1s6.1,2.7,6.1,6.1
				C685.7,205,683,207.8,679.7,207.8z"/>
			<path class="st3" d="M679.7,196.6c2.8,0,5.1,2.3,5.1,5.1s-2.3,5.1-5.1,5.1s-5.1-2.3-5.1-5.1C674.6,198.9,676.8,196.6,679.7,196.6
				 M679.7,194.6c-3.9,0-7.1,3.2-7.1,7.1c0,3.9,3.2,7.1,7.1,7.1s7.1-3.2,7.1-7.1C686.7,197.8,683.6,194.6,679.7,194.6L679.7,194.6z"
				/>
		</g>
	</g>
</g>
<g id="고객가치" class="solution">
	<g>
		<g>
			<circle class="st3" cx="496.1" cy="562.6" r="112.9"/>
			<path class="st5" d="M496.1,450.2c30,0,58.2,11.7,79.5,32.9c21.2,21.2,32.9,49.4,32.9,79.5s-11.7,58.2-32.9,79.5
				c-21.2,21.2-49.4,32.9-79.5,32.9s-58.2-11.7-79.5-32.9c-21.2-21.2-32.9-49.4-32.9-79.5s11.7-58.2,32.9-79.5
				C437.8,461.9,466,450.2,496.1,450.2 M496.1,449.2c-62.6,0-113.4,50.8-113.4,113.4S433.4,676,496.1,676s113.4-50.8,113.4-113.4
				S558.7,449.2,496.1,449.2L496.1,449.2z"/>
		</g>
		<g>
			<path d="M471.7,587.6h-21.2v-2.2h7.9v-8.3h2.7v8.3h10.6V587.6z M452.7,571.6v-2.2h16.7v2.3c0,2.9,0,6.2-0.9,11l-2.7-0.3
				c0.9-4.6,0.9-8,0.9-10.7v-0.1H452.7z"/>
			<path d="M475,581.2l-1.3-1.9c4.7-1.9,7-4.5,7.5-8.2h-6.4v-2.2h9.2C484,574.8,481.2,578.8,475,581.2z M493.7,582v8.7H491v-6.5
				h-13.3V582H493.7z M493.7,581h-2.5v-5.9h-2.6v5.8H486v-13.2h2.5v5.3h2.6v-5.7h2.5V581H493.7z"/>
			<path d="M498.5,586.4l-1.5-2.1c5.7-2.9,8.8-7.1,9.4-12.5h-8.2v-2.2h10.9C509.1,576.5,506.2,582.5,498.5,586.4z M515.2,578.7v12
				h-2.7v-23.5h2.7v9.3h3.6v2.2H515.2z"/>
			<path d="M535.1,583.7l-1.4,2.1c-2.7-1.2-4.7-3.6-5.8-6.5c-1,3.1-3.1,5.7-5.8,6.9l-1.5-2.1c3.7-1.7,5.9-5.6,5.9-9.5v-1.4h-5.2V571
				h5.2v-3.5h2.7v3.5h5.1v2.2h-5.1v1.4C529.2,578.4,531.5,582.1,535.1,583.7z M539.7,590.6H537v-23.5h2.7V590.6z"/>
		</g>
		<g>
			<path class="st4" d="M404.5,714.3l0.1,1.2c-4,0.7-8.4,0.8-11.6,0.8l-0.2-1.4c1.5,0,3.2,0,5-0.1v-3.3h1.6v3.3
				C401.2,714.7,402.9,714.6,404.5,714.3z M397.8,705.7h-4.1v-1.3h4.1v-2.2h1.6v2.2h4.1v1.3h-4.1c0.1,2.3,1.9,4.2,4.5,5l-0.8,1.3
				c-2.2-0.6-3.8-2-4.6-3.8c-0.8,1.9-2.4,3.3-4.6,4l-0.8-1.3C396,710,397.8,708,397.8,705.7z M405.7,720v-18h1.6v18H405.7z"/>
			<path class="st4" d="M410.6,717.5v-1.3h6.3v-6.4h1.6v6.4h8.3v1.3H410.6z M412.3,703.8h12.6v1.8c0,2.2,0,4.7-0.7,8.3l-1.6-0.2
				c0.7-3.4,0.7-6,0.7-8.1v-0.4h-10.9v-1.4H412.3z"/>
			<path class="st4" d="M440.3,714.1l0.1,1.2c-4.1,0.7-8.4,0.8-11.6,0.8l-0.2-1.4C431.9,714.7,436.3,714.7,440.3,714.1z
				 M439.1,707.6c0,2.5-2,4.2-4.8,4.2s-4.8-1.7-4.8-4.2s2-4.2,4.8-4.2C437.1,703.4,439.1,705.1,439.1,707.6z M431.1,707.6
				c0,1.7,1.3,2.8,3.2,2.8s3.2-1.2,3.2-2.8c0-1.7-1.3-2.8-3.2-2.8S431.1,705.9,431.1,707.6z M441.5,720v-18h1.6v18H441.5z"/>
			<path class="st4" d="M451.5,716.6l-0.9-1.3c4.8-2.3,7.2-5.7,7.6-10h-6.7V704h8.4C459.8,709.2,457.5,713.7,451.5,716.6z
				 M463.5,720v-18h1.6v18H463.5z"/>
			<path class="st4" d="M482.4,712.6v4.1h-10.5v1.8H483v1.3h-12.7v-4.3h10.5v-1.6h-10.6v-1.3h5.3v-1.8h-7.3v-1.3h16.2v1.3h-7.3v1.8
				H482.4z M476.4,704.8c-1.1,1.9-3.8,3.2-6.7,3.5l-0.6-1.2c3.3-0.4,6.4-2.1,6.4-4.3v-0.7h1.7v0.7c0,2.2,3.1,3.9,6.4,4.3l-0.6,1.2
				C480.2,708,477.5,706.7,476.4,704.8z"/>
			<path class="st4" d="M497.2,714.2l0.1,1.2c-3.7,0.6-7.9,0.7-11.1,0.7l-0.2-1.4c1.1,0,2.4,0,3.8-0.1v-5.5h1.6v5.5
				C493.4,714.5,495.4,714.4,497.2,714.2z M494.4,705.3H487V704h9.1v1c0,1.4,0,3.7-0.5,7.1l-1.6-0.2
				C494.4,709,494.4,706.8,494.4,705.3z M499.9,720h-1.6v-18h1.6v7.5h2.9v1.4h-2.9V720z"/>
			<path class="st4" d="M522.3,714.1v5.6h-12.2v-5.6h5.3V712h-7.3v-1.3h16.2v1.3H517v2.1H522.3z M509.6,702.6h13.2v1.3H520v3.8h2.6
				v1.3h-13v-1.3h2.6v-3.8h-2.7v-1.3H509.6z M511.7,718.4h9v-3h-9V718.4z M513.9,707.7h4.5v-3.8h-4.5V707.7z"/>
			<path class="st4" d="M531.6,707.1c-0.8,2-2.4,3.5-4.6,4.3l-0.8-1.3c2.7-0.8,4.5-3.1,4.5-5.5v-0.2h-4.1v-1.3h9.8v1.3h-4.1v0.2
				c0,2.3,1.9,4.3,4.5,5.1L536,711C534.1,710.4,532.4,708.9,531.6,707.1z M529.1,719.8v-4.5h10v-1.8h-10v-1.3h11.6v4.3h-10v2h10.6
				v1.3H529.1z M539,702.1h1.6v9.3H539V702.1z"/>
			<path class="st4" d="M543.8,711.1v-1.3H560v1.3H543.8z M545.7,705.5c0-2,2.4-3.1,6.3-3.1c3.9,0,6.3,1.1,6.3,3.1s-2.4,3.1-6.3,3.1
				C548,708.6,545.7,707.5,545.7,705.5z M558.5,719.8h-12.7v-4.3h10.5v-1.6h-10.6v-1.2H558v4h-10.5v1.8h11.1L558.5,719.8
				L558.5,719.8z M547.3,705.5c0,1.2,1.6,1.9,4.6,1.9s4.6-0.7,4.6-1.9s-1.6-1.9-4.6-1.9S547.3,704.3,547.3,705.5z"/>
			<path class="st4" d="M565.7,712.9v-1.3h7.3v-1.8h-5.2v-7.2H580v1.3h-10.5v1.7h10v1.2h-10v1.8h10.6v1.3h-5.4v1.8h7.3v1.3
				L565.7,712.9L565.7,712.9z M580,717.1c0,1.9-2.2,2.9-6.1,2.9c-4,0-6.1-1-6.1-2.9s2.2-2.9,6.1-2.9
				C577.8,714.2,580,715.2,580,717.1z M578.3,717.1c0-1.1-1.6-1.6-4.5-1.6s-4.5,0.6-4.5,1.6c0,1.1,1.6,1.6,4.5,1.6
				S578.3,718.2,578.3,717.1z"/>
			<path class="st4" d="M592.5,706.4h-8.9v-1.3h3.6v-2.5h1.6v2.5h3.6v1.3H592.5z M591.9,711.7c0,2.4-1.6,4.1-3.8,4.1
				s-3.8-1.7-3.8-4.1c0-2.4,1.6-4.1,3.8-4.1S591.9,709.3,591.9,711.7z M590.5,711.7c0-1.6-1-2.7-2.4-2.7s-2.4,1.1-2.4,2.7
				c0,1.6,1,2.7,2.4,2.7C589.5,714.5,590.5,713.3,590.5,711.7z M597.3,720v-9H595v8.2h-1.5v-16.7h1.5v7.2h2.3V702h1.6v18H597.3z"/>
			<path class="st4" d="M403.7,751.5v-1.3h6.3v-6.4h1.6v6.4h8.3v1.3H403.7z M405.4,737.8H418v1.8c0,2.2,0,4.7-0.7,8.3l-1.6-0.2
				c0.7-3.4,0.7-6,0.7-8.1v-0.4h-10.9v-1.4H405.4z"/>
			<path class="st4" d="M422.4,746.8l-0.8-1.2c3.7-1.5,5.7-3.9,6-6.9h-5.3v-1.3h7C429.3,741.7,427,744.9,422.4,746.8z M436.7,754
				H435v-5.2h-10.4v-1.3h12.1V754z M435.1,746.6v-4.7h-2.4v4.6h-1.6v-10.1h1.6v4.2h2.4v-4.5h1.6v10.5H435.1z"/>
			<path class="st4" d="M444,746.4l-0.6-1.3c4.5-1.2,7-3.5,7.3-6.6h-6.5v-1.3h8.3C452.5,741.7,449.3,745,444,746.4z M457.3,753.7
				H446V747h11.3V753.7z M455.7,748.4h-8.1v4h8.1V748.4z M457.3,746.2h-1.6V736h1.6v4.4h2.7v1.4h-2.7V746.2z"/>
			<path class="st4" d="M461.3,746.2v-1.3h7.3v-2.1h-5.3v-6h12.2v1.3H465v3.3h10.7v1.3h-5.4v2.1h7.3v1.3h-16.3V746.2z M475.6,750.7
				c0,2.1-2.3,3.2-6.1,3.2c-3.8,0-6.2-1.2-6.2-3.2s2.3-3.2,6.2-3.2C473.2,747.5,475.6,748.7,475.6,750.7z M473.9,750.7
				c0-1.3-1.6-2-4.5-2s-4.5,0.7-4.5,2s1.6,2,4.5,2S473.9,752,473.9,750.7z"/>
			<path class="st4" d="M479.2,745.1v-1.3h16.2v1.3H479.2z M481,739.5c0-2,2.4-3.1,6.3-3.1s6.3,1.1,6.3,3.1s-2.4,3.1-6.3,3.1
				S481,741.5,481,739.5z M493.9,753.8h-12.7v-4.3h10.5v-1.6h-10.6v-1.2h12.2v4h-10.5v1.8h11.1V753.8z M482.7,739.5
				c0,1.2,1.6,1.9,4.6,1.9s4.6-0.7,4.6-1.9s-1.6-1.9-4.6-1.9S482.7,738.3,482.7,739.5z"/>
			<path class="st4" d="M510,754h-1.6v-5.8h-7.3v-1.3h16.2v1.3H510V754z M508.4,739.6h-5.7v-1.3h5.7v-2.2h1.6v2.2h5.7v1.3H510
				c0,2.2,3,4.2,6.2,4.6l-0.6,1.3c-2.8-0.4-5.3-1.8-6.5-3.7c-1.1,1.9-3.7,3.3-6.5,3.7l-0.6-1.3C505.4,743.8,508.4,741.8,508.4,739.6
				z"/>
			<path class="st4" d="M527.9,754h-1.7v-7.7H519V745h11.9c0.6-2.6,0.6-4.5,0.6-6.2v-0.2H521v-1.3h12v1.6c0,1.7,0,3.6-0.5,6.2h2.7
				v1.3h-7.3V754z"/>
			<path class="st4" d="M537,737.9h4.5v-2h1.6v2h4.5v1.3H537V737.9z M542.2,746.3c-2.6,0-4.3-1.2-4.3-3.1c0-1.9,1.7-3.1,4.3-3.1
				s4.3,1.2,4.3,3.1S544.8,746.3,542.2,746.3z M542.2,745.1c1.7,0,2.7-0.7,2.7-1.9s-1.1-1.9-2.7-1.9s-2.7,0.7-2.7,1.9
				S540.6,745.1,542.2,745.1z M550.8,753.7h-11.3v-6.5h1.6v1.9h8v-1.9h1.6v6.5H550.8z M541.2,752.4h8v-2h-8V752.4z M550.8,746.5
				h-1.6V736h1.6v4.6h2.7v1.4h-2.7V746.5z"/>
			<path class="st4" d="M566,747.1l0.2,1.4c-3.1,0.6-5.9,0.8-8.8,0.8h-1.5v-11.6h1.6v10.2C560.3,747.9,563,747.7,566,747.1z
				 M567.9,754v-18h1.6v18H567.9z"/>
			<path class="st4" d="M583.2,747.5l0.2,1.4c-2.7,0.5-5.1,0.6-8.5,0.6h-1.4v-11.8h8.3v1.4h-6.7v9
				C578.3,748.1,580.6,748,583.2,747.5z M586.5,754h-1.6v-18h1.6v7.1h3v1.4h-3V754z"/>
		</g>
		<g>
			<path class="st7" d="M462.4,548.6c-1,0-2-0.1-2.9-0.4c-0.9-0.3-1.7-0.6-2.2-1.1l1-2.2c0.5,0.4,1.2,0.7,1.9,0.9s1.5,0.4,2.2,0.4
				c0.6,0,1-0.1,1.4-0.2s0.6-0.3,0.8-0.5s0.3-0.4,0.3-0.7s-0.1-0.6-0.4-0.8s-0.6-0.4-1-0.5s-0.9-0.2-1.4-0.4c-0.5-0.1-1-0.3-1.6-0.4
				c-0.5-0.2-1-0.4-1.4-0.6c-0.4-0.3-0.8-0.6-1.1-1c-0.3-0.4-0.4-1-0.4-1.7s0.2-1.4,0.6-2s1-1.1,1.8-1.4c0.8-0.4,1.8-0.5,3-0.5
				c0.8,0,1.6,0.1,2.3,0.3c0.8,0.2,1.4,0.5,2,0.8l-0.9,2.2c-0.6-0.3-1.2-0.6-1.8-0.7c-0.6-0.2-1.2-0.2-1.7-0.2s-1,0.1-1.4,0.2
				s-0.6,0.3-0.8,0.5c-0.2,0.2-0.2,0.5-0.2,0.7c0,0.3,0.1,0.6,0.4,0.8s0.6,0.4,1,0.5s0.9,0.2,1.4,0.4c0.5,0.1,1,0.3,1.6,0.4
				c0.5,0.2,1,0.4,1.4,0.6c0.4,0.3,0.8,0.6,1.1,1c0.3,0.4,0.4,1,0.4,1.6c0,0.7-0.2,1.4-0.6,1.9c-0.4,0.6-1,1.1-1.8,1.4
				C464.6,548.4,463.6,548.6,462.4,548.6z"/>
			<path class="st7" d="M474.2,548.5c-1,0-1.9-0.2-2.7-0.6c-0.8-0.4-1.4-1-1.9-1.8s-0.7-1.6-0.7-2.6s0.2-1.8,0.7-2.6
				s1.1-1.3,1.9-1.8c0.8-0.4,1.7-0.6,2.7-0.6s1.9,0.2,2.7,0.6c0.8,0.4,1.4,1,1.9,1.8c0.5,0.7,0.7,1.6,0.7,2.6s-0.2,1.8-0.7,2.6
				s-1.1,1.3-1.9,1.8C476.1,548.3,475.2,548.5,474.2,548.5z M474.2,546.2c0.5,0,0.9-0.1,1.3-0.3s0.7-0.5,0.9-0.9s0.3-0.9,0.3-1.4
				c0-0.6-0.1-1-0.3-1.4c-0.2-0.4-0.5-0.7-0.9-0.9s-0.8-0.3-1.3-0.3s-0.9,0.1-1.3,0.3s-0.7,0.5-0.9,0.9c-0.2,0.4-0.3,0.9-0.3,1.4
				c0,0.6,0.1,1,0.3,1.4s0.5,0.7,0.9,0.9S473.7,546.2,474.2,546.2z"/>
			<path class="st7" d="M481.4,548.4V535h2.8v13.4H481.4z"/>
			<path class="st7" d="M490.9,548.5c-0.8,0-1.5-0.2-2.2-0.5c-0.6-0.3-1.1-0.8-1.5-1.4c-0.3-0.6-0.5-1.5-0.5-2.5v-5.5h2.8v5.1
				c0,0.8,0.2,1.4,0.5,1.8c0.3,0.4,0.8,0.6,1.4,0.6c0.4,0,0.8-0.1,1.2-0.3c0.3-0.2,0.6-0.5,0.8-0.9c0.2-0.4,0.3-0.9,0.3-1.5v-4.8
				h2.8v9.7h-2.7v-2.7l0.5,0.8c-0.3,0.7-0.8,1.2-1.4,1.5S491.6,548.5,490.9,548.5z"/>
			<path class="st7" d="M498,541.1v-2.2h6.7v2.2H498z M503.1,548.5c-1.1,0-2-0.3-2.7-0.9s-1-1.4-1-2.6v-8.5h2.8v8.5
				c0,0.4,0.1,0.7,0.3,0.9c0.2,0.2,0.5,0.3,0.9,0.3s0.8-0.1,1.1-0.4l0.8,2c-0.3,0.2-0.6,0.4-1,0.5
				C504,548.5,503.5,548.5,503.1,548.5z"/>
			<path class="st7" d="M508.4,537.4c-0.5,0-0.9-0.2-1.3-0.5c-0.3-0.3-0.5-0.7-0.5-1.1c0-0.4,0.2-0.8,0.5-1.1s0.7-0.5,1.3-0.5
				c0.5,0,0.9,0.1,1.3,0.4s0.5,0.6,0.5,1.1s-0.2,0.9-0.5,1.2C509.3,537.2,508.9,537.4,508.4,537.4z M507,548.4v-9.7h2.8v9.7H507z"/>
			<path class="st7" d="M517,548.5c-1,0-1.9-0.2-2.7-0.6c-0.8-0.4-1.4-1-1.9-1.8s-0.7-1.6-0.7-2.6s0.2-1.8,0.7-2.6s1.1-1.3,1.9-1.8
				c0.8-0.4,1.7-0.6,2.7-0.6s1.9,0.2,2.7,0.6c0.8,0.4,1.4,1,1.9,1.8c0.5,0.7,0.7,1.6,0.7,2.6s-0.2,1.8-0.7,2.6s-1.1,1.3-1.9,1.8
				C518.9,548.3,518,548.5,517,548.5z M517,546.2c0.5,0,0.9-0.1,1.3-0.3s0.7-0.5,0.9-0.9s0.3-0.9,0.3-1.4c0-0.6-0.1-1-0.3-1.4
				s-0.5-0.7-0.9-0.9s-0.8-0.3-1.3-0.3s-0.9,0.1-1.3,0.3s-0.7,0.5-0.9,0.9s-0.3,0.9-0.3,1.4c0,0.6,0.1,1,0.3,1.4s0.5,0.7,0.9,0.9
				S516.5,546.2,517,546.2z"/>
			<path class="st7" d="M530.1,538.6c0.8,0,1.5,0.2,2.1,0.5s1.1,0.8,1.4,1.4c0.3,0.6,0.5,1.4,0.5,2.4v5.5h-2.8v-5.1
				c0-0.8-0.2-1.4-0.5-1.7s-0.8-0.6-1.4-0.6c-0.4,0-0.8,0.1-1.2,0.3s-0.6,0.5-0.8,0.9s-0.3,0.9-0.3,1.5v4.8h-2.8v-9.7h2.7v2.7
				l-0.5-0.8c0.3-0.6,0.8-1.1,1.5-1.5C528.5,538.7,529.2,538.6,530.1,538.6z"/>
		</g>
	</g>
	<g>
		<g>
			<rect x="495.6" y="382.8" class="st5" width="0.9" height="67.4"/>
		</g>
		<g>
			<path class="st2" d="M496.1,392.9c-3.4,0-6.1-2.7-6.1-6.1s2.7-6.1,6.1-6.1s6.1,2.7,6.1,6.1C502.1,390.2,499.4,392.9,496.1,392.9z
				"/>
			<path class="st3" d="M496.1,381.7c2.8,0,5.1,2.3,5.1,5.1s-2.3,5.1-5.1,5.1c-2.8,0-5.1-2.3-5.1-5.1S493.3,381.7,496.1,381.7
				 M496.1,379.7c-3.9,0-7.1,3.2-7.1,7.1s3.2,7.1,7.1,7.1s7.1-3.2,7.1-7.1C503.1,382.9,500,379.7,496.1,379.7L496.1,379.7z"/>
		</g>
	</g>
</g>

<g id="center">
	<circle class="st1" cx="496.1" cy="201.7" r="184.3"/>
	<g>
		<circle class="st2" cx="496.1" cy="201.7" r="147.8"/>
		<path class="st3" d="M496.1,54.8c39.2,0,76.1,15.3,103.8,43s43,64.6,43,103.8s-15.3,76.1-43,103.8s-64.6,43-103.8,43
			s-76.1-15.3-103.8-43c-27.7-27.7-43-64.6-43-103.8s15.3-76.1,43-103.8C420,70.1,456.8,54.8,496.1,54.8 M496.1,52.8
			c-82.2,0-148.8,66.6-148.8,148.8s66.6,148.8,148.8,148.8s148.8-66.6,148.8-148.8S578.3,52.8,496.1,52.8L496.1,52.8z"/>
	</g>
	<g>
		<path class="st3" d="M402.3,225.8l-7.3-22.4h5.4l6.4,19.8H404l6.7-19.8h4.8l6.4,19.8h-2.6l6.5-19.8h5l-7.3,22.4h-5.6l-5.7-17.4
			h1.5l-5.8,17.4H402.3z"/>
		<path class="st3" d="M442.3,226.1c-2,0-3.7-0.4-5.2-1.2s-2.6-1.8-3.4-3.2c-0.8-1.3-1.2-2.9-1.2-4.6c0-1.7,0.4-3.3,1.2-4.6
			c0.8-1.3,1.9-2.4,3.3-3.1c1.4-0.8,3-1.1,4.7-1.1s3.2,0.4,4.6,1.1c1.4,0.7,2.4,1.7,3.2,3.1c0.8,1.3,1.2,2.9,1.2,4.8
			c0,0.2,0,0.4,0,0.7c0,0.2,0,0.5-0.1,0.7h-14v-2.9H448l-1.9,0.9c0-0.9-0.2-1.7-0.5-2.3c-0.4-0.7-0.9-1.2-1.5-1.6
			c-0.6-0.4-1.4-0.6-2.2-0.6c-0.9,0-1.6,0.2-2.3,0.6c-0.7,0.4-1.2,0.9-1.5,1.6c-0.4,0.7-0.5,1.5-0.5,2.4v0.8c0,0.9,0.2,1.8,0.6,2.5
			s1,1.3,1.8,1.6c0.8,0.4,1.6,0.6,2.7,0.6c0.9,0,1.7-0.1,2.4-0.4c0.7-0.3,1.3-0.7,1.9-1.2l2.7,2.9c-0.8,0.9-1.8,1.6-3,2.1
			C445.3,225.8,443.9,226.1,442.3,226.1z"/>
		<path class="st3" d="M471.4,226.1c-1.9,0-3.5-0.4-5-1.1c-1.5-0.8-2.6-1.8-3.4-3.2c-0.8-1.3-1.2-2.9-1.2-4.6c0-1.7,0.4-3.3,1.2-4.6
			c0.8-1.3,2-2.4,3.4-3.1c1.5-0.8,3.1-1.1,5-1.1c1.8,0,3.4,0.4,4.7,1.1c1.3,0.8,2.3,1.8,3,3.2l-3.9,2.1c-0.4-0.8-1-1.4-1.7-1.8
			c-0.7-0.4-1.4-0.6-2.2-0.6c-0.9,0-1.6,0.2-2.3,0.6c-0.7,0.4-1.2,0.9-1.6,1.6c-0.4,0.7-0.6,1.6-0.6,2.6s0.2,1.9,0.6,2.6
			c0.4,0.7,0.9,1.2,1.6,1.6c0.7,0.4,1.5,0.6,2.3,0.6s1.5-0.2,2.2-0.6c0.7-0.4,1.2-1,1.7-1.8l3.9,2.1c-0.6,1.4-1.6,2.5-3,3.2
			C474.8,225.7,473.2,226.1,471.4,226.1z"/>
		<path class="st3" d="M490.1,226.1c-1.8,0-3.5-0.4-4.9-1.2s-2.5-1.8-3.4-3.2c-0.8-1.3-1.2-2.9-1.2-4.6c0-1.7,0.4-3.3,1.2-4.6
			c0.8-1.3,1.9-2.4,3.4-3.1c1.4-0.8,3-1.1,4.9-1.1c1.8,0,3.4,0.4,4.9,1.1c1.4,0.8,2.5,1.8,3.4,3.1s1.2,2.9,1.2,4.6
			c0,1.7-0.4,3.2-1.2,4.6c-0.8,1.3-1.9,2.4-3.4,3.2C493.6,225.7,492,226.1,490.1,226.1z M490.1,222c0.8,0,1.6-0.2,2.2-0.6
			s1.2-0.9,1.6-1.6c0.4-0.7,0.6-1.6,0.6-2.5c0-1-0.2-1.9-0.6-2.6c-0.4-0.7-0.9-1.2-1.6-1.6c-0.7-0.4-1.4-0.6-2.2-0.6
			s-1.6,0.2-2.2,0.6c-0.7,0.4-1.2,0.9-1.6,1.6s-0.6,1.6-0.6,2.6s0.2,1.8,0.6,2.5s0.9,1.3,1.6,1.6S489.3,222,490.1,222z"/>
		<path class="st3" d="M513.4,208.3c1.4,0,2.6,0.3,3.7,0.8c1.1,0.5,1.9,1.4,2.5,2.5s0.9,2.6,0.9,4.3v9.9h-5v-9.1
			c0-1.4-0.3-2.4-0.9-3.1c-0.6-0.7-1.5-1-2.6-1c-0.8,0-1.5,0.2-2.1,0.5s-1.1,0.8-1.5,1.5s-0.5,1.6-0.5,2.6v8.5h-5v-17.2h4.8v4.8
			l-0.9-1.4c0.6-1.2,1.5-2,2.7-2.7C510.6,208.6,511.9,208.3,513.4,208.3z"/>
		<path class="st3" d="M535.5,208.3c1.4,0,2.6,0.3,3.7,0.8c1.1,0.5,1.9,1.4,2.5,2.5s0.9,2.6,0.9,4.3v9.9h-5v-9.1
			c0-1.4-0.3-2.4-0.9-3.1c-0.6-0.7-1.5-1-2.6-1c-0.8,0-1.5,0.2-2.1,0.5s-1.1,0.8-1.5,1.5s-0.5,1.6-0.5,2.6v8.5h-5v-17.2h4.8v4.8
			l-0.9-1.4c0.6-1.2,1.5-2,2.7-2.7C532.7,208.6,534,208.3,535.5,208.3z"/>
		<path class="st3" d="M555.7,226.1c-2,0-3.7-0.4-5.2-1.2s-2.6-1.8-3.4-3.2c-0.8-1.3-1.2-2.9-1.2-4.6c0-1.7,0.4-3.3,1.2-4.6
			s1.9-2.4,3.3-3.1c1.4-0.8,3-1.1,4.7-1.1s3.2,0.4,4.6,1.1c1.4,0.7,2.4,1.7,3.2,3.1c0.8,1.3,1.2,2.9,1.2,4.8c0,0.2,0,0.4,0,0.7
			c0,0.2,0,0.5-0.1,0.7h-14v-2.9h11.4l-1.9,0.9c0-0.9-0.2-1.7-0.5-2.3c-0.4-0.7-0.9-1.2-1.5-1.6c-0.6-0.4-1.4-0.6-2.2-0.6
			c-0.9,0-1.6,0.2-2.3,0.6c-0.7,0.4-1.2,0.9-1.5,1.6c-0.4,0.7-0.5,1.5-0.5,2.4v0.8c0,0.9,0.2,1.8,0.6,2.5c0.4,0.7,1,1.3,1.8,1.6
			c0.8,0.4,1.6,0.6,2.7,0.6c0.9,0,1.7-0.1,2.4-0.4c0.7-0.3,1.3-0.7,1.9-1.2l2.7,2.9c-0.8,0.9-1.8,1.6-3,2.1
			C558.6,225.8,557.2,226.1,555.7,226.1z"/>
		<path class="st3" d="M575.6,226.1c-1.9,0-3.5-0.4-5-1.1c-1.5-0.8-2.6-1.8-3.4-3.2c-0.8-1.3-1.2-2.9-1.2-4.6c0-1.7,0.4-3.3,1.2-4.6
			s2-2.4,3.4-3.1c1.5-0.8,3.1-1.1,5-1.1c1.8,0,3.4,0.4,4.7,1.1c1.3,0.8,2.3,1.8,3,3.2l-3.9,2.1c-0.4-0.8-1-1.4-1.7-1.8
			c-0.7-0.4-1.4-0.6-2.2-0.6c-0.9,0-1.6,0.2-2.3,0.6c-0.7,0.4-1.2,0.9-1.6,1.6s-0.6,1.6-0.6,2.6s0.2,1.9,0.6,2.6
			c0.4,0.7,0.9,1.2,1.6,1.6s1.5,0.6,2.3,0.6s1.5-0.2,2.2-0.6c0.7-0.4,1.2-1,1.7-1.8l3.9,2.1c-0.6,1.4-1.6,2.5-3,3.2
			C579,225.7,577.5,226.1,575.6,226.1z"/>
		<path class="st3" d="M584.2,212.8V209h11.9v3.8H584.2z M593.3,226.1c-2,0-3.6-0.5-4.7-1.6c-1.1-1-1.7-2.6-1.7-4.6v-15.1h5v15
			c0,0.7,0.2,1.3,0.6,1.7c0.4,0.4,0.9,0.6,1.6,0.6c0.8,0,1.5-0.2,2-0.6l1.3,3.5c-0.5,0.4-1.1,0.6-1.8,0.8
			C594.8,226,594,226.1,593.3,226.1z"/>
		<path class="st3" d="M411.6,252.8V249h11.9v3.8H411.6z M420.6,266.1c-2,0-3.6-0.5-4.7-1.6c-1.1-1-1.7-2.6-1.7-4.6v-15.1h5v15
			c0,0.7,0.2,1.3,0.6,1.7s0.9,0.6,1.6,0.6c0.8,0,1.5-0.2,2-0.6l1.3,3.5c-0.5,0.4-1.1,0.6-1.8,0.8C422.1,266,421.4,266.1,420.6,266.1
			z"/>
		<path class="st3" d="M438,248.3c1.4,0,2.6,0.3,3.7,0.8s1.9,1.4,2.5,2.5s0.9,2.6,0.9,4.3v9.9h-5v-9.1c0-1.4-0.3-2.4-0.9-3.1
			c-0.6-0.7-1.5-1-2.6-1c-0.8,0-1.5,0.2-2.1,0.5s-1.1,0.8-1.5,1.5s-0.5,1.6-0.5,2.6v8.5h-5V242h5v11.3l-1.1-1.4
			c0.6-1.2,1.5-2,2.7-2.7C435.2,248.6,436.5,248.3,438,248.3z"/>
		<path class="st3" d="M458.2,266.1c-2,0-3.7-0.4-5.2-1.2c-1.5-0.8-2.6-1.8-3.4-3.2s-1.2-2.9-1.2-4.6c0-1.7,0.4-3.3,1.2-4.6
			c0.8-1.3,1.9-2.4,3.3-3.1c1.4-0.8,3-1.1,4.7-1.1s3.2,0.4,4.6,1.1c1.4,0.7,2.4,1.7,3.2,3.1c0.8,1.3,1.2,2.9,1.2,4.8
			c0,0.2,0,0.4,0,0.7c0,0.2,0,0.5-0.1,0.7h-14v-2.9h11.4l-1.9,0.9c0-0.9-0.2-1.7-0.5-2.3c-0.4-0.7-0.9-1.2-1.5-1.6
			c-0.6-0.4-1.4-0.6-2.2-0.6c-0.9,0-1.6,0.2-2.3,0.6c-0.7,0.4-1.2,0.9-1.5,1.6c-0.4,0.7-0.5,1.5-0.5,2.4v0.8c0,0.9,0.2,1.8,0.6,2.5
			s1,1.3,1.8,1.6c0.8,0.4,1.6,0.6,2.7,0.6c0.9,0,1.7-0.1,2.4-0.4c0.7-0.3,1.3-0.7,1.9-1.2l2.7,2.9c-0.8,0.9-1.8,1.6-3,2.1
			C461.1,265.8,459.7,266.1,458.2,266.1z"/>
		<path class="st3" d="M476.8,252.8V249h11.9v3.8H476.8z M479.5,265.8v-17.6c0-1.9,0.6-3.5,1.7-4.7s2.8-1.7,4.9-1.7
			c0.7,0,1.4,0.1,2.1,0.2c0.7,0.1,1.2,0.4,1.7,0.7l-1.3,3.6c-0.3-0.2-0.6-0.3-0.9-0.4c-0.3-0.1-0.7-0.2-1.1-0.2
			c-0.7,0-1.3,0.2-1.7,0.6c-0.4,0.4-0.6,1-0.6,1.9v1.6l0.1,2.1v13.8L479.5,265.8L479.5,265.8z"/>
		<path class="st3" d="M498.5,266.1c-1.4,0-2.7-0.3-3.8-0.8c-1.1-0.6-2-1.4-2.6-2.5s-0.9-2.6-0.9-4.4v-9.7h5v9
			c0,1.4,0.3,2.5,0.9,3.2s1.5,1,2.6,1c0.8,0,1.5-0.2,2-0.5c0.6-0.3,1.1-0.8,1.4-1.5s0.5-1.6,0.5-2.6v-8.5h5V266h-4.7v-4.7l0.9,1.4
			c-0.6,1.2-1.4,2.1-2.5,2.7C501.1,265.7,499.8,266.1,498.5,266.1z"/>
		<path class="st3" d="M511.2,252.8V249h11.9v3.8H511.2z M520.3,266.1c-2,0-3.6-0.5-4.7-1.6c-1.1-1-1.7-2.6-1.7-4.6v-15.1h5v15
			c0,0.7,0.2,1.3,0.6,1.7c0.4,0.4,0.9,0.6,1.6,0.6c0.8,0,1.5-0.2,2-0.6l1.3,3.5c-0.5,0.4-1.1,0.6-1.8,0.8
			C521.8,266,521.1,266.1,520.3,266.1z"/>
		<path class="st3" d="M534.4,266.1c-1.4,0-2.7-0.3-3.8-0.8s-2-1.4-2.6-2.5s-0.9-2.6-0.9-4.4v-9.7h5v9c0,1.4,0.3,2.5,0.9,3.2
			c0.6,0.7,1.5,1,2.6,1c0.8,0,1.5-0.2,2-0.5c0.6-0.3,1.1-0.8,1.4-1.5c0.3-0.7,0.5-1.6,0.5-2.6v-8.5h5V266h-4.7v-4.7l0.9,1.4
			c-0.6,1.2-1.4,2.1-2.5,2.7C537,265.7,535.8,266.1,534.4,266.1z"/>
		<path class="st3" d="M549.1,265.8v-17.2h4.8v4.9l-0.7-1.4c0.5-1.2,1.3-2.1,2.5-2.8c1.1-0.6,2.5-0.9,4.1-0.9v4.6
			c-0.2,0-0.4,0-0.6,0s-0.4,0-0.5,0c-1.4,0-2.5,0.4-3.3,1.2s-1.3,2-1.3,3.6v8.1h-5V265.8z"/>
		<path class="st3" d="M571.5,266.1c-2,0-3.7-0.4-5.2-1.2c-1.5-0.8-2.6-1.8-3.4-3.2c-0.8-1.3-1.2-2.9-1.2-4.6c0-1.7,0.4-3.3,1.2-4.6
			s1.9-2.4,3.3-3.1c1.4-0.8,3-1.1,4.7-1.1s3.2,0.4,4.6,1.1c1.4,0.7,2.4,1.7,3.2,3.1c0.8,1.3,1.2,2.9,1.2,4.8c0,0.2,0,0.4,0,0.7
			s0,0.5-0.1,0.7h-14v-2.9h11.4l-1.9,0.9c0-0.9-0.2-1.7-0.5-2.3c-0.4-0.7-0.9-1.2-1.5-1.6c-0.6-0.4-1.4-0.6-2.2-0.6
			c-0.9,0-1.6,0.2-2.3,0.6c-0.7,0.4-1.2,0.9-1.5,1.6c-0.4,0.7-0.5,1.5-0.5,2.4v0.8c0,0.9,0.2,1.8,0.6,2.5s1,1.3,1.8,1.6
			s1.6,0.6,2.7,0.6c0.9,0,1.7-0.1,2.4-0.4s1.3-0.7,1.9-1.2l2.7,2.9c-0.8,0.9-1.8,1.6-3,2.1C574.4,265.8,573,266.1,571.5,266.1z"/>
	</g>
	<g>
		<path class="st3" d="M433.2,172.1l0.3,1.8c-3.4,0.6-6.2,0.8-10.6,0.8H421v-15.4h10.6v1.8h-8.5v11.8
			C427.3,172.9,430,172.8,433.2,172.1z M436.9,180.5v-13.2h-6.7v-1.8h6.7V157h2.1v23.4h-2.1V180.5z"/>
		<path class="st3" d="M463.2,171.7l0.3,1.8c-4,0.8-7.5,1.1-11.1,1.1h-1.8v-15.2h2.1v13.4C456,172.7,459.5,172.4,463.2,171.7z
			 M467.5,180.4h-2.1v-23.3h2.1v9.3h3.7v1.8h-3.7V180.4z"/>
		<path class="st3" d="M473.5,171.1v-1.7h21.1v1.7H473.5z M475.9,162.5c0-2.9,3.2-4.7,8.2-4.7s8.2,1.7,8.2,4.7s-3.2,4.6-8.2,4.6
			S475.9,165.5,475.9,162.5z M492.3,179.9h-16v-6.8h2.1v5h13.9V179.9z M478,162.5c0,1.9,2.3,2.9,6,2.9s6-1,6-2.9s-2.3-2.9-6-2.9
			C480.4,159.6,478,160.7,478,162.5z"/>
		<path class="st3" d="M504.6,174.5v-15.2h10.7v15.2H504.6z M513.2,172.8V161h-6.6v11.8H513.2z M520.2,180.5v-23.4h2.1v23.4H520.2z"
			/>
		<path class="st3" d="M538.1,172.4l0.2,1.8c-3.2,0.5-5.9,0.6-8.7,0.6H528v-8.7h6.6v-4.7h-6.7v-1.7h8.8v8.2H530v5.2
			C532.7,173,535.1,172.9,538.1,172.4z M544.9,180.4V168h-3.3v11.2h-2v-21.6h2v8.7h3.3v-9.2h2.1v23.3H544.9z"/>
		<path class="st3" d="M551.1,177.5v-1.7h9.5v-4.4h-6.8v-7.2h13.8v-3.6h-13.9v-1.7h16v7.1h-13.8v3.8h14.4v1.7h-7.5v4.4h9.5v1.7
			h-21.2V177.5z"/>
	</g>
</g>
</svg>
