<?xml version="1.0" encoding="utf-8"?>
<!-- Generator: Adobe Illustrator 23.0.5, SVG Export Plug-In . SVG Version: 6.00 Build 0)  -->
<svg version="1.1" xmlns="http://www.w3.org/2000/svg" xmlns:xlink="http://www.w3.org/1999/xlink" x="0px" y="0px"
	 viewBox="0 0 1154 764.7" style="enable-background:new 0 0 1154 764.7;" xml:space="preserve">
<style type="text/css">
	.st0{fill:#ECEEEF;}
	.st1{fill:#303030;}
	.st2{fill:#AFAFAF;}
	.st3{fill:none;}
	.st4{fill:#7D7D7D;}
	.st5{fill:#7D7D7D;stroke:#ECEEEF;stroke-width:3.65;stroke-miterlimit:10;}
</style>
<g id="Layer_1">
	<rect y="0.4" class="st0" width="1154" height="764.3"/>
	<g>
		<path class="st1" d="M210,414.6c0-4.6,3.8-8.4,8.4-8.4s8.4,3.8,8.4,8.4c0,4.7-3.8,8.4-8.4,8.4S210,419.3,210,414.6z M226.2,414.6
			c0-4.3-3.5-7.8-7.8-7.8c-4.4,0-7.8,3.5-7.8,7.8s3.5,7.8,7.8,7.8S226.2,419,226.2,414.6z M216.1,410.6c0.9-0.2,1.6-0.4,2.3-0.7h1.1
			v9.3H218v-7.6h-1.9V410.6L216.1,410.6z"/>
		<path class="st1" d="M324.6,412.8H323v-1.7h1.6V412.8z M324.6,420.5H323v-1.7h1.6V420.5z"/>
		<path class="st1" d="M332,408.3l1.8,3.4c0.3,0.6,0.6,1.1,1,1.9h0.1c0.4-0.8,0.6-1.3,0.9-1.9l1.8-3.4h1.8l-3.6,6.5l3.9,6.7h-1.8
			l-2-3.6c-0.3-0.6-0.7-1.3-1.1-2.1h-0.1c-0.4,0.8-0.7,1.5-1.1,2.1l-1.9,3.6h-1.8l3.9-6.8l-3.6-6.4L332,408.3L332,408.3z"/>
		<path class="st1" d="M343.2,420.1h5.8v1.4h-7.4v-13.2h1.7L343.2,420.1L343.2,420.1z"/>
		<path class="st1" d="M359.8,412.2c0,2.8-2,4.1-4.9,4.1h-2.2v5.2H351v-13.2h3.8C357.9,408.3,359.8,409.3,359.8,412.2z M358.2,412.2
			c0-1.9-1.2-2.5-3.5-2.5h-1.9v5.3h2C357.1,414.9,358.2,414,358.2,412.2z"/>
		<path class="st1" d="M369.9,409.7H364v4.1h5v1.4h-5v4.8h6.1v1.4h-7.8v-13.2h7.6L369.9,409.7L369.9,409.7z"/>
		<path class="st1" d="M382.2,422h-1.4v-7.7h-3c-0.9,2-2.5,3.8-5,5.2l-0.9-1.1c2.5-1.4,3.9-3,4.7-4.9l-4.5,0.5l-0.2-1.3l5.1-0.3
			c0.2-0.9,0.4-1.7,0.4-2.6h-4.8v-1.2h6.2c0,1.5-0.2,3-0.6,4.5h2.5v-6h1.4L382.2,422L382.2,422z M384.2,422.8v-16.1h1.4v16.1H384.2z
			"/>
		<path class="st1" d="M397.1,413.5c0,3.4-1.7,5.6-4.1,5.6s-4.1-2.2-4.1-5.6s1.7-5.6,4.1-5.6S397.1,410.1,397.1,413.5z M390.3,413.5
			c0,2.6,1.1,4.3,2.7,4.3s2.7-1.7,2.7-4.3c0-2.6-1.1-4.3-2.7-4.3S390.3,410.9,390.3,413.5z M400,422.9v-16.2h1.5v16.2H400z"/>
		<path class="st1" d="M404.6,414.8v-1.2h14.6v1.2H404.6z M417.9,422.6h-11.4v-3.8h9.5v-1.4h-9.5v-1.1h11v3.6H408v1.6h10
			L417.9,422.6L417.9,422.6z M406.6,407h1.5v1.5h7.9V407h1.5v5.3h-10.8V407H406.6z M408,411.1h7.9v-1.5H408V411.1z"/>
		<path class="st1" d="M421.6,422.8h-1.2l0.6-3.6h1.6L421.6,422.8z"/>
		<path class="st1" d="M428.2,414.8c0-4.2,2.3-6.8,5.6-6.8c3.3,0,5.6,2.6,5.6,6.8c0,4.3-2.3,6.9-5.6,6.9S428.2,419.1,428.2,414.8z
			 M437.8,414.8c0-3.3-1.5-5.4-3.9-5.4s-3.9,2-3.9,5.4c0,3.3,1.5,5.4,3.9,5.4C436.2,420.3,437.8,418.1,437.8,414.8z"/>
		<path class="st1" d="M449.7,409.7h-5.9v4.5h5v1.4h-5v5.9h-1.7v-13.2h7.6V409.7L449.7,409.7z"/>
		<path class="st1" d="M461.4,422H460v-7.7h-3c-0.9,2-2.5,3.8-5,5.2l-0.9-1.1c2.5-1.4,3.9-3,4.7-4.9l-4.5,0.5l-0.2-1.3l5.1-0.3
			c0.2-0.9,0.4-1.7,0.4-2.6h-4.8v-1.2h6.2c0,1.5-0.2,3-0.6,4.5h2.5v-6h1.4L461.4,422L461.4,422z M463.4,422.8v-16.1h1.4v16.1H463.4z
			"/>
		<path class="st1" d="M476.2,413.5c0,3.4-1.7,5.6-4.1,5.6s-4.1-2.2-4.1-5.6s1.7-5.6,4.1-5.6S476.2,410.1,476.2,413.5z M469.4,413.5
			c0,2.6,1.1,4.3,2.7,4.3s2.7-1.7,2.7-4.3c0-2.6-1.1-4.3-2.7-4.3S469.4,410.9,469.4,413.5z M479.1,422.9v-16.2h1.5v16.2H479.1z"/>
		<path class="st1" d="M483.8,414.8v-1.2h14.6v1.2H483.8z M497,422.6h-11.4v-3.8h9.5v-1.4h-9.5v-1.1h11v3.6H487v1.6h10V422.6
			L497,422.6z M485.7,407h1.5v1.5h7.9V407h1.5v5.3h-10.8V407H485.7z M487.2,411.1h7.9v-1.5h-7.9V411.1z"/>
		<path class="st1" d="M504.7,414.9c0-3.5,1-6.5,2.6-9.1l1,0.5c-1.6,2.6-2.3,5.5-2.3,8.7s0.7,6,2.3,8.7l-1,0.5
			C505.7,421.4,504.7,418.5,504.7,414.9z"/>
		<path class="st1" d="M512.2,414.6c-0.6,0-1.1,0.4-1.5,1.2l-0.9-0.6c0.7-1.3,1.6-1.8,2.5-1.8c1.6,0,2.4,1.7,3.6,1.7
			c0.6,0,1.1-0.4,1.5-1.2l0.9,0.7c-0.7,1.3-1.6,1.8-2.5,1.8C514.1,416.3,513.3,414.6,512.2,414.6z"/>
		<path class="st1" d="M524.1,413c2.8,0,4.3,1.7,4.3,4c0,2.8-2.1,4.6-4.8,4.6c-1.6,0-2.9-0.6-3.7-1.4l0.9-1.2
			c0.8,0.7,1.8,1.1,2.9,1.1c1.8,0,3.1-1.1,3.1-3.1c0-1.7-1.1-2.7-3-2.7c-0.7,0-1.4,0.2-2.2,0.4l-1.1-0.3l1.1-6.3h6.3v1.5h-5.2
			l-0.6,3.5C522.8,413,523.5,413,524.1,413z"/>
		<path class="st1" d="M534.7,421.7c-2.7,0-4.8-2.1-4.8-6.8c0-4.7,2.1-6.8,4.8-6.8s4.8,2.1,4.8,6.8
			C539.6,419.6,537.5,421.7,534.7,421.7z M534.7,409.4c-1.7,0-3.2,1.4-3.2,5.5s1.5,5.5,3.2,5.5s3.2-1.4,3.2-5.5
			S536.4,409.4,534.7,409.4z"/>
		<path class="st1" d="M545.3,421.7c-2.7,0-4.8-2.1-4.8-6.8c0-4.7,2.1-6.8,4.8-6.8s4.8,2.1,4.8,6.8S548,421.7,545.3,421.7z
			 M545.3,409.4c-1.7,0-3.2,1.4-3.2,5.5s1.5,5.5,3.2,5.5s3.2-1.4,3.2-5.5S547,409.4,545.3,409.4z"/>
		<path class="st1" d="M553.7,416.9L553.7,416.9l4.2-5.2h1.8l-3.3,3.9l3.7,5.9h-1.8l-2.9-4.7l-1.8,2.1v2.6H552v-14.3h1.6
			L553.7,416.9L553.7,416.9z"/>
		<path class="st1" d="M564.1,415.4c0.5,1.5,0.8,2.8,1.3,4.4h0.1c0.5-1.6,0.8-2.8,1.3-4.4l2.1-7.1h1.7l-4.2,13.2h-1.9l-4.2-13.2h1.8
			L564.1,415.4z"/>
		<path class="st1" d="M573.4,414.8c0-3.1-0.7-6-2.3-8.7l1-0.5c1.7,2.7,2.7,5.6,2.7,9.1s-1,6.5-2.7,9.1l-1-0.5
			C572.7,420.9,573.4,418,573.4,414.8z"/>
		<path class="st1" d="M210,446.6c0-4.6,3.8-8.4,8.4-8.4s8.4,3.8,8.4,8.4c0,4.7-3.8,8.4-8.4,8.4S210,451.3,210,446.6z M226.2,446.6
			c0-4.3-3.5-7.8-7.8-7.8c-4.4,0-7.8,3.5-7.8,7.8s3.5,7.8,7.8,7.8S226.2,451,226.2,446.6z M220.1,444.5c0-1.1-0.6-1.7-1.8-1.7
			c-0.9,0-1.6,0.5-2.2,1.1l-0.9-0.8c0.9-1,1.9-1.5,3.2-1.5c1.9,0,3.1,1.1,3.1,2.8c0,1.7-1.8,3.5-4.1,5.6c0.6,0,1.2-0.1,1.8-0.1h2.6
			v1.3h-6.6v-0.9C218.3,447.7,220.1,446,220.1,444.5z"/>
		<path class="st1" d="M339,444.8h-1.6v-1.7h1.6V444.8z M339,452.5h-1.6v-1.7h1.6V452.5z"/>
		<path class="st1" d="M345,452.5v-1.2h5.7v-5.8h1.5v5.8h7.5v1.2H345z M346.5,440.3h11.3v1.6c0,2,0,4.2-0.6,7.5l-1.5-0.2
			c0.6-3.1,0.6-5.4,0.6-7.3v-0.4h-9.9L346.5,440.3L346.5,440.3z"/>
		<path class="st1" d="M365.8,447c-2.4,0-4.2-1.5-4.2-3.8c0-2.2,1.8-3.7,4.2-3.7c2.5,0,4.2,1.5,4.2,3.7
			C370,445.4,368.3,447,365.8,447z M365.8,445.7c1.6,0,2.8-1,2.8-2.5s-1.1-2.5-2.8-2.5c-1.6,0-2.8,1-2.8,2.5
			C363.1,444.7,364.2,445.7,365.8,445.7z M373.9,454.6h-10.2v-6.4h1.5v2h7.3v-2h1.5L373.9,454.6L373.9,454.6z M365.1,453.4h7.3v-2
			h-7.3V453.4z M373.9,447.4h-1.5v-8.7h1.5v3.7h2.4v1.2h-2.4V447.4z"/>
		<path class="st1" d="M386.1,445.7c0.7,0,1.1,0.6,1.1,1.1c0,0.6-0.5,1.2-1.1,1.2s-1.1-0.6-1.1-1.2S385.5,445.7,386.1,445.7z"/>
		<path class="st1" d="M406.9,452c0,1.9-2,2.8-5.5,2.8s-5.5-1-5.5-2.8c0-1.7,1.7-2.7,4.8-2.8v-1.7h-6.5v-1.2h14.6v1.2h-6.5v1.7
			C405.2,449.3,406.9,450.3,406.9,452z M400.5,440.6h-5v-1.2h11.9v1.2h-5c0.1,1.8,2.7,3.1,5.5,3.5l-0.5,1.2c-2.6-0.3-5-1.5-6-3.3
			c-0.9,1.8-3.3,3-6,3.3l-0.5-1.2C397.8,443.7,400.3,442.4,400.5,440.6z M401.4,450.3c-2.5,0-4,0.6-4,1.7s1.5,1.7,4,1.7s4-0.6,4-1.7
			S403.9,450.3,401.4,450.3z"/>
		<path class="st1" d="M420.3,450.1l-0.9,1.1c-1.8-0.9-3.4-2.9-4.1-5.1c-0.7,2.4-2.3,4.5-4.1,5.4l-0.9-1.2c2.3-1.1,4.2-4.2,4.2-7.1
			v-1.9h-3.7v-1.2h8.8v1.2h-3.7v1.9C416.1,446,418,449,420.3,450.1z M422.3,454.8v-9.1h-3.5v-1.2h3.5v-5.9h1.5v16.2H422.3
			L422.3,454.8z"/>
		<path class="st1" d="M431.4,447c-2.4,0-4.2-1.5-4.2-3.8c0-2.2,1.8-3.7,4.2-3.7c2.5,0,4.2,1.5,4.2,3.7
			C435.6,445.4,433.8,447,431.4,447z M431.4,445.7c1.6,0,2.8-1,2.8-2.5s-1.1-2.5-2.8-2.5c-1.6,0-2.8,1-2.8,2.5
			S429.8,445.7,431.4,445.7z M439.4,454.6h-10.2v-6.4h1.5v2h7.3v-2h1.5L439.4,454.6L439.4,454.6z M430.7,453.4h7.3v-2h-7.3V453.4z
			 M439.4,447.4h-1.5v-8.7h1.5v3.7h2.4v1.2h-2.4V447.4z"/>
		<path class="st1" d="M453.6,454h-1.4v-7.7h-3c-0.9,2-2.5,3.8-5,5.2l-0.9-1.1c2.5-1.4,3.9-3,4.7-4.9l-4.5,0.5l-0.2-1.3l5.1-0.3
			c0.2-0.9,0.4-1.7,0.4-2.6H444v-1.2h6.2c0,1.5-0.2,3-0.6,4.5h2.5v-6h1.4L453.6,454L453.6,454z M455.5,454.8v-16.1h1.4v16.1H455.5z"
			/>
		<path class="st1" d="M468.4,445.5c0,3.4-1.7,5.6-4.1,5.6s-4.1-2.2-4.1-5.6s1.7-5.6,4.1-5.6C466.7,439.9,468.4,442.1,468.4,445.5z
			 M461.6,445.5c0,2.6,1.1,4.3,2.7,4.3s2.7-1.7,2.7-4.3c0-2.6-1.1-4.3-2.7-4.3S461.6,442.9,461.6,445.5z M471.4,454.9v-16.2h1.5
			v16.2H471.4z"/>
		<path class="st1" d="M476,446.8v-1.2h14.6v1.2H476z M489.2,454.6h-11.4v-3.8h9.5v-1.4h-9.5v-1.1h11v3.6h-9.5v1.6h10L489.2,454.6
			L489.2,454.6z M477.9,439h1.5v1.5h7.9V439h1.5v5.3H478V439H477.9z M479.4,443.1h7.9v-1.5h-7.9V443.1z"/>
		<path class="st1" d="M493,454.8h-1.2l0.6-3.6h1.6L493,454.8z"/>
		<path class="st1" d="M506.2,450.8H500v-10.6h1.4v3.9h3.4v-3.9h1.4L506.2,450.8L506.2,450.8z M501.4,449.6h3.4v-4.3h-3.4V449.6z
			 M511.8,454.8v-8.5h-2.2v7.8h-1.4v-15h1.4v6h2.2v-6.4h1.4v16.1H511.8z"/>
		<path class="st1" d="M520.7,444.4c-0.7,1.9-2.2,3.3-4.1,4l-0.8-1.1c2.4-0.9,4.1-3,4.1-5.3v-0.8h-3.6V440h8.6v1.2h-3.5v0.8
			c0,2.1,1.6,4.1,3.9,5l-0.7,1.1C522.8,447.4,521.4,446.1,520.7,444.4z M518.8,454.5v-5h1.5v3.8h9.3v1.2H518.8z M529.1,438.7v11.8
			h-1.5v-6.2h-3.2v-1.2h3.2v-4.5L529.1,438.7L529.1,438.7z"/>
		<path class="st1" d="M532.2,447.9v-1.2h3.6v-2.3c-1.3-0.5-2-1.3-2-2.4c0-1.9,2.2-3,5.7-3s5.7,1.1,5.7,3c0,1.1-0.7,1.9-2,2.4v2.3
			h3.6v1.2H532.2L532.2,447.9z M545,451.9c0,1.9-2,2.9-5.5,2.9s-5.5-1-5.5-2.9s2.1-2.9,5.5-2.9C543,449,545,450.1,545,451.9z
			 M539.5,443.8c2.6,0,4.2-0.7,4.2-1.9c0-1.2-1.5-1.9-4.2-1.9s-4.2,0.7-4.2,1.9C535.3,443.1,536.9,443.8,539.5,443.8z M543.5,451.9
			c0-1.1-1.5-1.7-4-1.7s-4,0.6-4,1.7s1.5,1.7,4,1.7C542,453.7,543.5,453,543.5,451.9z M541.8,444.8c-0.6,0.1-1.4,0.2-2.3,0.2
			c-0.8,0-1.6,0-2.2-0.2v1.9h4.5V444.8z"/>
		<path class="st1" d="M560.4,442.6h-8v-1.2h3.3v-2.3h1.5v2.3h3.3L560.4,442.6L560.4,442.6z M559.9,447.4c0,2.2-1.5,3.7-3.5,3.7
			s-3.5-1.5-3.5-3.7s1.5-3.7,3.5-3.7C558.4,443.7,559.9,445.2,559.9,447.4z M558.6,447.4c0-1.4-0.9-2.4-2.1-2.4
			c-1.3,0-2.1,1-2.1,2.4s0.9,2.5,2.1,2.5S558.6,448.8,558.6,447.4z M564.7,454.8v-8.1h-2.1v7.4h-1.4v-15h1.4v6.5h2.1v-6.8h1.4v16.1
			L564.7,454.8L564.7,454.8z"/>
		<path class="st1" d="M578.6,450.1l-0.9,1.1c-1.8-0.9-3.4-2.9-4.1-5.1c-0.7,2.4-2.3,4.5-4.1,5.4l-0.9-1.2c2.3-1.1,4.2-4.2,4.2-7.1
			v-1.9h-3.7v-1.2h8.8v1.2h-3.7v1.9C574.4,446,576.3,449,578.6,450.1z M580.7,454.8v-9.1h-3.5v-1.2h3.5v-5.9h1.5v16.2H580.7
			L580.7,454.8z"/>
		<path class="st1" d="M595.5,454h-1.4v-7.7h-3c-0.9,2-2.5,3.8-5,5.2l-0.8-1.1c2.5-1.4,3.9-3,4.7-4.9l-4.5,0.5l-0.2-1.3l5.1-0.3
			c0.2-0.9,0.4-1.7,0.4-2.6H586v-1.2h6.2c0,1.5-0.2,3-0.6,4.5h2.5v-6h1.4L595.5,454L595.5,454z M597.5,454.8v-16.1h1.4v16.1H597.5z"
			/>
		<path class="st1" d="M610.4,445.5c0,3.4-1.7,5.6-4.1,5.6c-2.4,0-4.1-2.2-4.1-5.6s1.7-5.6,4.1-5.6S610.4,442.1,610.4,445.5z
			 M603.6,445.5c0,2.6,1.1,4.3,2.7,4.3c1.6,0,2.7-1.7,2.7-4.3c0-2.6-1.1-4.3-2.7-4.3C604.7,441.2,603.6,442.9,603.6,445.5z
			 M613.3,454.9v-16.2h1.5v16.2H613.3z"/>
		<path class="st1" d="M617.9,446.8v-1.2h14.6v1.2H617.9z M631.2,454.6h-11.4v-3.8h9.5v-1.4h-9.5v-1.1h11v3.6h-9.5v1.6h10
			L631.2,454.6L631.2,454.6z M619.9,439h1.5v1.5h7.8V439h1.5v5.3h-10.8V439z M621.3,443.1h7.8v-1.5h-7.8V443.1z"/>
		<path class="st1" d="M634.9,454.8h-1.2l0.7-3.6h1.6L634.9,454.8z"/>
		<path class="st1" d="M641.4,447.5v-1.2H656v1.2H641.4z M647.8,440.7h-5v-1.2h11.9v1.2h-5c0,1.8,2.7,3.2,5.5,3.5l-0.5,1.2
			c-2.7-0.3-5.1-1.5-6-3.3c-0.9,1.8-3.3,2.9-6,3.3l-0.5-1.2C645.1,443.9,647.7,442.5,647.8,440.7z M654.2,451.9
			c0,1.9-2.1,2.9-5.5,2.9c-3.5,0-5.5-1-5.5-2.9s2.1-2.9,5.5-2.9C652.1,449,654.2,450,654.2,451.9z M652.7,451.9c0-1.1-1.5-1.8-4-1.8
			s-4,0.6-4,1.8s1.5,1.8,4,1.8C651.2,453.6,652.7,453,652.7,451.9z"/>
		<path class="st1" d="M657.8,447.9v-1.2h3.6v-2.3c-1.3-0.5-2-1.3-2-2.4c0-1.9,2.2-3,5.7-3s5.7,1.1,5.7,3c0,1.1-0.7,1.9-2,2.4v2.3
			h3.6v1.2H657.8L657.8,447.9z M670.6,451.9c0,1.9-2,2.9-5.5,2.9s-5.5-1-5.5-2.9s2.1-2.9,5.5-2.9C668.6,449,670.6,450.1,670.6,451.9
			z M665.1,443.8c2.6,0,4.2-0.7,4.2-1.9c0-1.2-1.5-1.9-4.2-1.9s-4.2,0.7-4.2,1.9C660.9,443.1,662.5,443.8,665.1,443.8z M669.1,451.9
			c0-1.1-1.5-1.7-4-1.7s-4,0.6-4,1.7s1.5,1.7,4,1.7S669.1,453,669.1,451.9z M667.3,444.8c-0.6,0.1-1.4,0.2-2.3,0.2
			c-0.8,0-1.6,0-2.2-0.2v1.9h4.5V444.8z"/>
		<path class="st1" d="M676.2,447.5h-1.3v-4.6h5.8v-2h-5.8v-1.2h7.3v4.4h-5.8v2.2c2.8,0,4.9-0.1,7.3-0.5l0.1,1.2
			C681.3,447.4,679.1,447.5,676.2,447.5z M686.9,451.9c0,1.9-2,2.9-5.3,2.9s-5.3-1.1-5.3-2.9s2-3,5.3-3
			C684.8,448.9,686.9,450,686.9,451.9z M685.4,451.9c0-1.1-1.4-1.8-3.8-1.8s-3.9,0.6-3.9,1.8s1.4,1.8,3.9,1.8S685.4,453,685.4,451.9
			z M689.1,444.6v1.2h-2.4v2.6h-1.5v-9.8h1.5v2.5h2.4v1.2h-2.4v2.2L689.1,444.6L689.1,444.6z"/>
		<path class="st1" d="M691.5,451.8l-0.8-1.1c4.2-2.1,6.3-5.1,6.7-9h-5.9v-1.2h7.4C698.8,445,696.7,449.2,691.5,451.8z M703,454.8
			h-1.5v-16.1h1.5v6.5h2.6v1.2H703V454.8z"/>
		<path class="st1" d="M707,447.4v-1.2h6v-3.1h1.5v3.1h7.1v1.2H707z M719.8,451.8c0,1.8-2.2,3-5.6,3s-5.6-1.1-5.6-3s2.2-3,5.6-3
			S719.8,450,719.8,451.8z M708.7,439.5h11v1.4c0,1.3,0,2.6-0.5,4.3l-1.4-0.2c0.4-1.7,0.4-2.9,0.4-4.1v-0.2h-9.5V439.5z
			 M718.3,451.8c0-1.1-1.6-1.8-4.2-1.8c-2.5,0-4.1,0.7-4.1,1.8c0,1.1,1.6,1.8,4.1,1.8C716.7,453.6,718.3,453,718.3,451.8z"/>
		<path class="st1" d="M728.1,444.2c-0.7,1.9-2.1,3.4-4,4.2l-0.8-1.2c2.4-0.9,4-3.2,4-5.6v-2h1.5v2c0,2.3,1.6,4.4,3.9,5.2L732,448
			C730.2,447.4,728.8,446,728.1,444.2z M726.2,454.5v-5h1.5v3.8h9.3v1.2H726.2L726.2,454.5z M731.6,442.5h3.5v-3.8h1.5v12.1h-1.5
			v-7.1h-3.5V442.5z"/>
		<path class="st1" d="M743.5,447.6v-1.2h14.6v1.2H743.5z M756.4,451.9c0,1.9-2.1,2.9-5.5,2.9s-5.5-1-5.5-2.9s2.1-2.9,5.5-2.9
			C754.3,449,756.4,450,756.4,451.9z M745.4,439.3h11v1.2h-9.5v3.1h9.6v1.2h-11.1V439.3z M754.9,451.9c0-1.1-1.5-1.8-4-1.8
			s-4,0.6-4,1.8s1.5,1.8,4,1.8C753.4,453.6,754.9,453,754.9,451.9z"/>
		<path class="st1" d="M210,478.6c0-4.6,3.8-8.4,8.4-8.4s8.4,3.8,8.4,8.4c0,4.7-3.8,8.4-8.4,8.4S210,483.3,210,478.6z M226.2,478.6
			c0-4.3-3.5-7.8-7.8-7.8c-4.4,0-7.8,3.5-7.8,7.8s3.5,7.8,7.8,7.8S226.2,483,226.2,478.6z M214.9,482.1l0.7-1
			c0.6,0.6,1.4,1.1,2.7,1.1c1.2,0,2-0.6,2-1.6s-0.8-1.7-3.2-1.7v-1.1c2.1,0,2.9-0.7,2.9-1.6s-0.6-1.4-1.7-1.4
			c-0.9,0-1.6,0.3-2.2,0.9l-0.8-0.9c0.8-0.7,1.8-1.2,3-1.2c1.9,0,3.2,0.9,3.2,2.5c0,1.1-0.8,1.8-1.8,2.2l0,0
			c1.2,0.3,2.2,1.1,2.2,2.4c0,1.7-1.6,2.7-3.5,2.7C216.7,483.4,215.6,482.8,214.9,482.1z"/>
		<path class="st1" d="M307.3,476.8h-1.6v-1.7h1.6V476.8z M307.3,484.5h-1.6v-1.7h1.6V484.5z"/>
		<path class="st1" d="M321.4,480.1v3.3h-1.5v-3.3h-6.7v-1.2h14.7v1.2H321.4z M320.5,473.9c-1,1.9-3.4,3.2-5.9,3.7l-0.6-1.1
			c2.9-0.4,5.7-2.3,5.7-4.5v-0.8h1.5v0.8c0,2.1,2.8,4,5.6,4.5l-0.6,1.1C323.9,477.1,321.5,475.7,320.5,473.9z M326.2,486.5H315v-4.6
			h1.5v3.4h9.7V486.5L326.2,486.5z"/>
		<path class="st1" d="M329.6,484.8v-1.2h6.6v-4.1h-4.7V472h11v1.2H333v5.1h9.6v1.2h-4.9v4.1h6.6v1.2L329.6,484.8L329.6,484.8z"/>
		<path class="st1" d="M356.1,479.2c-0.7,0.6-1.5,0.9-2.5,0.9c-2.1,0-3.8-1.4-3.8-3.9c0-2.4,1.9-4.3,4.5-4.3s4.3,1.8,4.3,4.4
			c0,1.6-0.6,2.8-1.6,4.2l-3.6,5h-2.1l4.1-5.2C355.8,479.7,356,479.4,356.1,479.2z M354.1,478.8c1.8,0,2.8-1.3,2.8-2.6
			c0-1.7-1.2-2.8-2.7-2.8c-1.7,0-2.8,1.1-2.8,2.7C351.5,477.8,352.5,478.8,354.1,478.8z"/>
		<path class="st1" d="M366.7,479.2c-0.7,0.6-1.5,0.9-2.5,0.9c-2.1,0-3.8-1.4-3.8-3.9c0-2.4,1.9-4.3,4.5-4.3s4.3,1.8,4.3,4.4
			c0,1.6-0.6,2.8-1.6,4.2l-3.6,5h-2.1l4.1-5.2C366.4,479.7,366.6,479.4,366.7,479.2z M364.7,478.8c1.8,0,2.8-1.3,2.8-2.6
			c0-1.7-1.2-2.8-2.7-2.8c-1.7,0-2.8,1.1-2.8,2.7C362,477.8,363,478.8,364.7,478.8z"/>
		<path class="st1" d="M372.3,485.7h-1.6V484h1.6V485.7z"/>
		<path class="st1" d="M381.2,479.2c-0.7,0.6-1.5,0.9-2.5,0.9c-2.1,0-3.8-1.4-3.8-3.9c0-2.4,1.9-4.3,4.5-4.3s4.3,1.8,4.3,4.4
			c0,1.6-0.6,2.8-1.6,4.2l-3.6,5h-2.1l4.1-5.2C380.9,479.7,381.1,479.4,381.2,479.2z M379.2,478.8c1.8,0,2.8-1.3,2.8-2.6
			c0-1.7-1.2-2.8-2.7-2.8c-1.7,0-2.8,1.1-2.8,2.7C376.5,477.8,377.5,478.8,379.2,478.8z"/>
		<path class="st1" d="M388.4,485.5h-1.8l5.4-10.8l0.6-1h-6.9v-1.4h8.7v1.1L388.4,485.5z"/>
		<path class="st1" d="M395.7,476c0-2.7,1.2-4,3-4c1.9,0,3,1.3,3,4s-1.2,4-3,4C396.9,480,395.7,478.7,395.7,476z M400.4,476
			c0-2.1-0.7-2.9-1.7-2.9S397,474,397,476c0,2.1,0.7,2.9,1.7,2.9S400.4,478.1,400.4,476z M400.4,485.7H399l7.3-13.7h1.4L400.4,485.7
			z M404.8,481.6c0-2.7,1.2-4,3-4s3,1.3,3,4s-1.2,4-3,4S404.8,484.3,404.8,481.6z M409.5,481.6c0-2.1-0.7-2.9-1.7-2.9
			s-1.7,0.8-1.7,2.9s0.7,2.9,1.7,2.9C408.9,484.5,409.5,483.7,409.5,481.6z"/>
		<path class="st1" d="M416.2,484.5v-1.2h5.7v-5.8h1.5v5.8h7.5v1.2H416.2z M417.8,472.3h11.3v1.6c0,2,0,4.2-0.6,7.5l-1.5-0.2
			c0.6-3.1,0.6-5.4,0.6-7.3v-0.4h-9.9L417.8,472.3L417.8,472.3z"/>
		<path class="st1" d="M445.4,481.6v5h-11v-5h4.8v-1.9h-6.6v-1.2h14.6v1.2h-6.5v1.9H445.4z M434,471.2h11.9v1.2h-2.5v3.4h2.4v1.2
			H434v-1.2h2.4v-3.4H434V471.2L434,471.2z M435.8,485.4h8.1v-2.7h-8.1V485.4z M437.9,475.8h4v-3.4h-4V475.8z"/>
		<path class="st1" d="M454,475.2c-0.7,1.8-2.2,3.2-4.2,3.9l-0.7-1.2c2.4-0.8,4.1-2.8,4.1-5v-0.2h-3.7v-1.2h8.9v1.2h-3.6v0.2
			c0,2.1,1.7,3.9,4.1,4.6l-0.7,1.1C456.3,478.1,454.8,476.9,454,475.2z M451.8,486.6v-4h9V481h-9v-1.1h10.5v3.9h-9v1.8h9.5v1.2
			L451.8,486.6L451.8,486.6z M460.7,470.7h1.5v8.4h-1.5V470.7z"/>
		<path class="st1" d="M469.3,478.9c0-4.3,2.5-6.9,5.9-6.9c1.6,0,2.9,0.8,3.6,1.6l-0.9,1.1c-0.7-0.7-1.5-1.3-2.7-1.3
			c-2.5,0-4.2,2-4.2,5.4c0,3.3,1.6,5.4,4.1,5.4c1.3,0,2.2-0.6,3.1-1.5l0.9,1c-1.1,1.2-2.3,1.9-4,1.9
			C471.8,485.7,469.3,483.2,469.3,478.9z"/>
		<path class="st1" d="M480.5,480.6c0-3.3,2.1-5.1,4.5-5.1s4.5,1.9,4.5,5.1s-2.1,5.1-4.5,5.1S480.5,483.8,480.5,480.6z M487.9,480.6
			c0-2.3-1.2-3.8-2.8-3.8c-1.7,0-2.8,1.5-2.8,3.8s1.1,3.8,2.8,3.8C486.7,484.4,487.9,482.9,487.9,480.6z"/>
		<path class="st1" d="M493.4,476.8L493.4,476.8c0.9-0.7,2-1.4,3.2-1.4c2.5,0,3.9,2,3.9,5c0,3.4-2,5.3-4.3,5.3
			c-0.9,0-1.8-0.4-2.7-1.1v1.7v3.3h-1.6v-13.9h1.4L493.4,476.8z M498.8,480.5c0-2.2-0.7-3.6-2.6-3.6c-0.9,0-1.7,0.5-2.6,1.4v5.1
			c0.9,0.8,1.8,1,2.4,1C497.6,484.4,498.8,482.9,498.8,480.5z"/>
		<path class="st1" d="M504.4,476.8L504.4,476.8c0.9-0.7,2-1.4,3.2-1.4c2.5,0,3.9,2,3.9,5c0,3.4-2,5.3-4.3,5.3
			c-0.9,0-1.8-0.4-2.7-1.1v1.7v3.3h-1.6v-13.9h1.4L504.4,476.8z M509.8,480.5c0-2.2-0.7-3.6-2.6-3.6c-0.9,0-1.7,0.5-2.6,1.4v5.1
			c0.9,0.8,1.8,1,2.4,1C508.6,484.4,509.8,482.9,509.8,480.5z"/>
		<path class="st1" d="M513.2,480.6c0-3.2,2.1-5.1,4.4-5.1c2.5,0,3.9,1.8,3.9,4.6c0,0.4,0,0.7-0.1,0.9h-6.6c0.1,2.1,1.4,3.4,3.2,3.4
			c1,0,1.7-0.3,2.5-0.8l0.6,1.1c-0.9,0.6-1.9,1-3.2,1C515.2,485.7,513.2,483.8,513.2,480.6z M517.6,476.8c-1.4,0-2.6,1.1-2.8,3h5.2
			C520,477.8,519.1,476.8,517.6,476.8z"/>
		<path class="st1" d="M525.2,477.5L525.2,477.5c0.8-1.2,1.7-2,2.8-2c0.4,0,0.7,0,1,0.2l-0.3,1.4c-0.3-0.1-0.5-0.2-1-0.2
			c-0.8,0-1.8,0.6-2.5,2.3v6.3h-1.6v-9.8h1.3L525.2,477.5z"/>
		<path class="st1" d="M536.2,479.9v5.6h-1.7v-13.2h4.1c2.7,0,4.6,1,4.6,3.7c0,2.1-1.2,3.3-3,3.7l3.4,5.8h-1.9l-3.2-5.6H536.2
			L536.2,479.9z M541.6,476c0-1.8-1.1-2.4-3.2-2.4h-2.2v4.9h2.2C540.5,478.5,541.6,477.7,541.6,476z"/>
		<path class="st1" d="M544.8,480.6c0-3.3,2.1-5.1,4.5-5.1c2.4,0,4.5,1.9,4.5,5.1s-2.1,5.1-4.5,5.1
			C547,485.7,544.8,483.8,544.8,480.6z M552.2,480.6c0-2.3-1.2-3.8-2.8-3.8c-1.7,0-2.8,1.5-2.8,3.8s1.2,3.8,2.8,3.8
			C551.1,484.4,552.2,482.9,552.2,480.6z"/>
		<path class="st1" d="M555.6,480.6c0-3.2,2-5.1,4.2-5.1c1.2,0,1.9,0.4,2.8,1.1l-0.1-1.7v-3.8h1.6v14.3h-1.3l-0.2-1.1l0,0
			c-0.8,0.8-1.8,1.4-3,1.4C557.2,485.7,555.6,483.9,555.6,480.6z M562.5,483v-5.1c-0.8-0.7-1.6-1-2.4-1c-1.6,0-2.8,1.5-2.8,3.8
			c0,2.4,1,3.8,2.7,3.8C560.9,484.4,561.7,483.9,562.5,483z"/>
		<path class="st1" d="M574.6,476.3c-0.6,1.5-1.7,2.9-3.3,3.6l-0.8-1.1c2.1-0.9,3.4-3,3.4-4.8v-2.2h1.4v2.2c0,1.8,1.2,3.6,3.3,4.4
			l-0.8,1.1C576.2,478.8,575.1,477.6,574.6,476.3z M584.2,483.9c0,1.8-2.1,2.9-5.4,2.9s-5.4-1.1-5.4-2.9s2.1-2.9,5.4-2.9
			S584.2,482.1,584.2,483.9z M582.7,483.9c0-1.1-1.5-1.8-3.9-1.8s-3.9,0.6-3.9,1.8s1.5,1.8,3.9,1.8S582.7,485,582.7,483.9z
			 M579.2,471h1.4v4h2v-4.3h1.4v10h-1.4v-4.4h-2v3.9h-1.4V471z"/>
		<path class="st1" d="M591.6,476.3c-0.7,1.9-2.1,3.4-4,4.1l-0.8-1.2c2.5-0.9,4-3,4-5.5v-2h1.5v2c0,2.2,1.6,4.3,4,5.1l-0.7,1.2
			C593.7,479.3,592.3,478,591.6,476.3z M600.1,486.5h-10.7v-5h1.5v3.8h9.2V486.5L600.1,486.5z M599.4,476.8v5.7h-1.5v-11.9h1.5v5
			h2.4v1.2L599.4,476.8L599.4,476.8z"/>
		<path class="st1" d="M226.8,510.6c0,4.7-3.8,8.4-8.4,8.4c-4.6,0-8.4-3.8-8.4-8.4s3.8-8.4,8.4-8.4C223,502.3,226.8,506,226.8,510.6
			z M226.2,510.6c0-4.3-3.5-7.8-7.8-7.8c-4.4,0-7.8,3.5-7.8,7.8c0,4.3,3.5,7.8,7.8,7.8S226.2,515,226.2,510.6z M221.7,512.7h-1.4
			v2.5h-1.4v-2.5h-4.6v-1l4.3-5.9h1.7v5.7h1.4V512.7L221.7,512.7z M219,507.3L219,507.3c-0.3,0.5-0.5,0.8-0.9,1.3l-2.3,3h3.1v-2.4
			C218.9,508.7,218.9,507.9,219,507.3z"/>
		<path class="st1" d="M308.3,508.8h-1.6v-1.7h1.6V508.8z M308.3,516.5h-1.6v-1.7h1.6V516.5z"/>
		<path class="st1" d="M324.6,510.8c0,4.2-2.2,6.6-6.2,6.6H315v-13.2h3.3C322.5,504.3,324.6,506.5,324.6,510.8z M322.9,510.8
			c0-3.4-1.5-5.2-4.6-5.2h-1.5v10.5h1.5C321.3,516.1,322.9,514.2,322.9,510.8z"/>
		<path class="st1" d="M327.2,517.5h-1.7l4.5-13.2h1.9l4.5,13.2h-1.8l-1.3-4h-4.8L327.2,517.5z M330.9,505.6L330.9,505.6
			c-0.5,1.6-0.9,3-1.4,4.5l-0.6,2h4l-0.6-2C331.8,508.6,331.3,507.2,330.9,505.6z"/>
		<path class="st1" d="M336.7,504.3h9.7v1.4h-4v11.8h-1.7v-11.8h-4V504.3z"/>
		<path class="st1" d="M348.5,517.5h-1.7l4.5-13.2h1.9l4.5,13.2h-1.8l-1.3-4h-4.8L348.5,517.5z M352.3,505.6L352.3,505.6
			c-0.5,1.6-0.9,3-1.4,4.5l-0.6,2h4l-0.6-2C353.1,508.6,352.7,507.2,352.3,505.6z"/>
		<path class="st1" d="M372.7,518h-1.4v-7.7h-3c-0.9,2-2.5,3.8-5,5.2l-0.9-1.1c2.5-1.4,3.9-3,4.7-4.9l-4.5,0.5l-0.2-1.3l5.1-0.3
			c0.2-0.9,0.4-1.7,0.4-2.6h-4.8v-1.2h6.2c0,1.5-0.2,3-0.6,4.5h2.5v-6h1.4L372.7,518L372.7,518z M374.6,518.8v-16.1h1.4v16.1H374.6z
			"/>
		<path class="st1" d="M387.5,509.5c0,3.4-1.7,5.6-4.1,5.6s-4.1-2.2-4.1-5.6s1.7-5.6,4.1-5.6C385.8,503.9,387.5,506.1,387.5,509.5z
			 M380.7,509.5c0,2.6,1.1,4.3,2.7,4.3s2.7-1.7,2.7-4.3c0-2.6-1.1-4.3-2.7-4.3C381.8,505.2,380.7,506.9,380.7,509.5z M390.4,518.8
			v-16.2h1.5v16.2H390.4z"/>
		<path class="st1" d="M395.1,510.8v-1.2h14.6v1.2H395.1z M408.3,518.6h-11.4v-3.8h9.5v-1.4h-9.5v-1.1h11v3.6h-9.5v1.6h10
			L408.3,518.6L408.3,518.6z M397,503h1.5v1.5h7.9V503h1.5v5.3H397V503z M398.5,507.1h7.9v-1.5h-7.9V507.1z"/>
		<path class="st1" d="M412.1,518.8h-1.2l0.6-3.6h1.6L412.1,518.8z"/>
		<path class="st1" d="M426.5,518.8H425v-5.5h-6.5V512h14.7v1.2h-6.6v5.6H426.5z M420.4,503.6h10.9v6.3h-10.9V503.6z M421.8,508.7h8
			v-3.9h-8V508.7z"/>
		<path class="st1" d="M439.7,508.2c-0.7,1.9-2.1,3.4-4,4.2l-0.8-1.2c2.4-0.9,4-3.2,4-5.6v-2h1.5v2c0,2.3,1.6,4.4,3.9,5.2l-0.8,1.1
			C441.8,511.4,440.4,510,439.7,508.2z M437.8,518.5v-5h1.5v3.8h9.3v1.2H437.8L437.8,518.5z M443.2,506.5h3.5v-3.8h1.5v12.1h-1.5
			v-7.1h-3.5V506.5z"/>
		<path class="st1" d="M451.3,512.4v-1.2h6.6v-1.6h-4.6v-6.5h10.9v1.1h-9.4v1.5h9v1.1h-9v1.6h9.5v1.1h-4.9v1.6h6.6v1.2L451.3,512.4
			L451.3,512.4z M464.1,516.2c0,1.7-2,2.6-5.5,2.6s-5.5-0.9-5.5-2.6c0-1.7,1.9-2.6,5.5-2.6S464.1,514.5,464.1,516.2z M462.6,516.2
			c0-1-1.4-1.5-4-1.5s-4,0.5-4,1.5s1.4,1.5,4,1.5S462.6,517.2,462.6,516.2z"/>
		<path class="st1" d="M472.6,507.9c-0.7,2-2.1,3.5-4,4.3l-0.8-1.2c2.5-0.9,4-3.3,4-5.8v-1.6h1.5v1.6c0,2.4,1.7,4.6,4,5.5l-0.8,1.2
			C474.8,511.2,473.4,509.8,472.6,507.9z M470.5,518.5v-5h1.5v3.8h9.4v1.2H470.5L470.5,518.5z M479.5,502.7h1.5v11.9h-1.5V502.7z"/>
		<path class="st1" d="M484,511.9v-1.2h3.6v-2.3c-1.3-0.5-2-1.3-2-2.4c0-1.9,2.2-3,5.7-3s5.7,1.1,5.7,3c0,1.1-0.7,1.9-2,2.4v2.3h3.6
			v1.2H484L484,511.9z M496.9,515.9c0,1.8-2,2.9-5.5,2.9s-5.5-1-5.5-2.9s2.1-2.9,5.5-2.9S496.9,514.1,496.9,515.9z M491.4,507.8
			c2.6,0,4.2-0.7,4.2-1.9c0-1.2-1.5-1.9-4.2-1.9c-2.6,0-4.2,0.7-4.2,1.9C487.2,507.1,488.7,507.8,491.4,507.8z M495.4,515.9
			c0-1.1-1.5-1.7-4-1.7s-4,0.6-4,1.7s1.5,1.7,4,1.7S495.4,517,495.4,515.9z M493.6,508.8c-0.6,0.1-1.4,0.2-2.3,0.2
			c-0.8,0-1.6,0-2.2-0.2v1.9h4.5V508.8z"/>
		<path class="st1" d="M514.7,518h-1.4v-7.7h-3c-0.9,2-2.5,3.8-5,5.2l-0.9-1.1c2.5-1.4,3.9-3,4.7-4.9l-4.5,0.5l-0.2-1.3l5.1-0.3
			c0.2-0.9,0.4-1.7,0.4-2.6h-4.8v-1.2h6.2c0,1.5-0.2,3-0.6,4.5h2.5v-6h1.4L514.7,518L514.7,518z M516.6,518.8v-16.1h1.4v16.1H516.6z
			"/>
		<path class="st1" d="M529.5,509.5c0,3.4-1.7,5.6-4.1,5.6c-2.4,0-4.1-2.2-4.1-5.6s1.7-5.6,4.1-5.6
			C527.8,503.9,529.5,506.1,529.5,509.5z M522.7,509.5c0,2.6,1.1,4.3,2.7,4.3s2.7-1.7,2.7-4.3c0-2.6-1.1-4.3-2.7-4.3
			C523.8,505.2,522.7,506.9,522.7,509.5z M532.4,518.8v-16.2h1.5v16.2H532.4z"/>
		<path class="st1" d="M537,510.8v-1.2h14.6v1.2H537z M550.3,518.6h-11.4v-3.8h9.5v-1.4h-9.5v-1.1h11v3.6h-9.5v1.6h10L550.3,518.6
			L550.3,518.6z M539,503h1.5v1.5h7.8V503h1.5v5.3H539V503z M540.4,507.1h7.8v-1.5h-7.8V507.1z"/>
		<path class="st1" d="M554,518.8h-1.2l0.7-3.6h1.6L554,518.8z"/>
		<path class="st1" d="M560.6,511.6l-0.2-1.2h1.6c0.6,0,1.2,0,1.8,0v-3.2h1.5v3.1c1.8-0.1,3.6-0.2,5.2-0.4l0.1,1.1
			C567.3,511.5,563.5,511.6,560.6,511.6z M567.9,504.9h-6.5v-1.2h8v0.9c0,1,0,2.5-0.4,4.4l-1.4-0.1
			C567.9,507.1,567.9,505.9,567.9,504.9z M573.2,515.8c0,1.9-2,2.9-5.4,2.9c-3.3,0-5.4-1.1-5.4-2.9c0-1.8,2-2.9,5.4-2.9
			C571.2,513,573.2,514,573.2,515.8z M571.7,515.8c0-1.1-1.5-1.8-3.9-1.8s-3.9,0.7-3.9,1.8c0,1.2,1.5,1.8,3.9,1.8
			S571.7,517,571.7,515.8z M573.1,508.3v4.4h-1.5v-10.1h1.5v4.4h2.3v1.2L573.1,508.3L573.1,508.3z"/>
		<path class="st1" d="M587.2,518h-1.4v-7.7h-3c-0.9,2-2.5,3.8-5,5.2l-0.8-1.1c2.5-1.4,3.9-3,4.7-4.9l-4.5,0.5l-0.2-1.3l5.1-0.3
			c0.2-0.9,0.4-1.7,0.4-2.6h-4.8v-1.2h6.2c0,1.5-0.2,3-0.6,4.5h2.5v-6h1.4L587.2,518L587.2,518z M589.2,518.8v-16.1h1.4v16.1H589.2z
			"/>
		<path class="st1" d="M602.1,509.5c0,3.4-1.7,5.6-4.1,5.6c-2.4,0-4.1-2.2-4.1-5.6s1.7-5.6,4.1-5.6
			C600.4,503.9,602.1,506.1,602.1,509.5z M595.3,509.5c0,2.6,1.1,4.3,2.7,4.3c1.6,0,2.7-1.7,2.7-4.3c0-2.6-1.1-4.3-2.7-4.3
			C596.4,505.2,595.3,506.9,595.3,509.5z M605,518.8v-16.2h1.5v16.2H605z"/>
		<path class="st1" d="M609.6,510.8v-1.2h14.6v1.2H609.6z M622.9,518.6h-11.4v-3.8h9.5v-1.4h-9.5v-1.1h11v3.6H613v1.6h10
			L622.9,518.6L622.9,518.6z M611.6,503h1.5v1.5h7.8V503h1.5v5.3h-10.8V503z M613,507.1h7.8v-1.5H613V507.1z"/>
		<path class="st1" d="M629.9,511.6v-1.2h14.6v1.2H629.9z M642.7,515.9c0,1.9-2.1,2.9-5.5,2.9s-5.5-1-5.5-2.9s2.1-2.9,5.5-2.9
			S642.7,514,642.7,515.9z M631.7,503.3h11v1.2h-9.5v3.1h9.6v1.2h-11.1V503.3z M641.2,515.9c0-1.2-1.5-1.8-4-1.8s-4,0.6-4,1.8
			s1.5,1.8,4,1.8C639.7,517.6,641.2,517,641.2,515.9z"/>
		<path class="st1" d="M656.9,513.5l0.1,1.1c-3.7,0.7-7.5,0.7-10.5,0.7l-0.2-1.2C649.3,514.1,653.3,514,656.9,513.5z M655.8,507.6
			c0,2.3-1.8,3.8-4.3,3.8s-4.3-1.5-4.3-3.8s1.8-3.8,4.3-3.8C654,503.9,655.8,505.4,655.8,507.6z M648.6,507.6c0,1.5,1.2,2.5,2.9,2.5
			s2.9-1,2.9-2.5s-1.2-2.5-2.9-2.5S648.6,506.1,648.6,507.6z M657.9,518.8v-16.2h1.5v16.2H657.9z"/>
		<path class="st1" d="M666.5,512.4v-1.2h6.6v-1.6h-4.6v-6.5h10.9v1.1H670v1.5h9v1.1h-9v1.6h9.5v1.1h-4.9v1.6h6.6v1.2L666.5,512.4
			L666.5,512.4z M679.3,516.2c0,1.7-2,2.6-5.5,2.6s-5.5-0.9-5.5-2.6c0-1.7,1.9-2.6,5.5-2.6S679.3,514.5,679.3,516.2z M677.8,516.2
			c0-1-1.4-1.5-4-1.5s-4,0.5-4,1.5s1.4,1.5,4,1.5S677.8,517.2,677.8,516.2z"/>
		<path class="st1" d="M687.8,507.9c-0.7,2-2.1,3.5-4,4.3L683,511c2.5-0.9,4-3.3,4-5.8v-1.6h1.5v1.6c0,2.4,1.7,4.6,4,5.5l-0.8,1.2
			C690,511.2,688.6,509.8,687.8,507.9z M685.7,518.5v-5h1.5v3.8h9.4v1.2H685.7L685.7,518.5z M694.7,502.7h1.5v11.9h-1.5V502.7z"/>
		<path class="st1" d="M713.5,518h-1.4v-7.7h-3c-0.9,2-2.5,3.8-5,5.2l-0.8-1.1c2.5-1.4,3.9-3,4.7-4.9l-4.5,0.5l-0.2-1.3l5.1-0.3
			c0.2-0.9,0.4-1.7,0.4-2.6H704v-1.2h6.2c0,1.5-0.2,3-0.6,4.5h2.5v-6h1.4L713.5,518L713.5,518z M715.4,518.8v-16.1h1.4v16.1H715.4z"
			/>
		<path class="st1" d="M728.3,509.5c0,3.4-1.7,5.6-4.1,5.6c-2.4,0-4.1-2.2-4.1-5.6s1.7-5.6,4.1-5.6
			C726.6,503.9,728.3,506.1,728.3,509.5z M721.5,509.5c0,2.6,1.1,4.3,2.7,4.3c1.6,0,2.7-1.7,2.7-4.3c0-2.6-1.1-4.3-2.7-4.3
			S721.5,506.9,721.5,509.5z M731.2,518.8v-16.2h1.5v16.2H731.2z"/>
		<path class="st1" d="M735.8,510.8v-1.2h14.6v1.2H735.8z M749.1,518.6h-11.4v-3.8h9.5v-1.4h-9.5v-1.1h11v3.6h-9.5v1.6h10
			L749.1,518.6L749.1,518.6z M737.8,503h1.5v1.5h7.8V503h1.5v5.3h-10.8V503z M739.3,507.1h7.8v-1.5h-7.8V507.1z"/>
		<path class="st1" d="M210,542.6c0-4.6,3.8-8.4,8.4-8.4s8.4,3.8,8.4,8.4c0,4.7-3.8,8.4-8.4,8.4S210,547.3,210,542.6z M226.2,542.6
			c0-4.3-3.5-7.8-7.8-7.8c-4.4,0-7.8,3.5-7.8,7.8s3.5,7.8,7.8,7.8S226.2,547,226.2,542.6z M215,546.1l0.7-1c0.6,0.5,1.4,1.1,2.6,1.1
			s2.1-0.8,2.1-2s-0.9-1.9-2.1-1.9c-0.7,0-1.2,0.2-1.8,0.6l-0.8-0.5l0.3-4.6h5.3v1.3h-4l-0.2,2.5c0.4-0.2,0.9-0.4,1.5-0.4
			c1.8,0,3.2,0.9,3.2,2.9s-1.7,3.2-3.5,3.2C216.7,547.4,215.7,546.8,215,546.1z"/>
		<path class="st1" d="M340,540.8h-1.6v-1.7h1.6V540.8z M340,548.5h-1.6v-1.7h1.6V548.5z"/>
		<path class="st1" d="M345.6,536.3h9.7v1.4h-4v11.8h-1.7v-11.8h-4V536.3z"/>
		<path class="st1" d="M357.4,549.5h-1.7l4.5-13.2h1.9l4.5,13.2h-1.8l-1.3-4h-4.8L357.4,549.5z M361.1,537.6L361.1,537.6
			c-0.5,1.6-0.9,3-1.4,4.5l-0.6,2h4l-0.6-2C361.9,540.6,361.5,539.2,361.1,537.6z"/>
		<path class="st1" d="M380.5,539.5c0,1.3-0.7,2.5-1.9,2.9v0.1c1.6,0.3,2.7,1.3,2.7,3.2c0,2.6-2,3.9-5,3.9H372v-13.2h3.9
			C378.6,536.3,380.5,537.2,380.5,539.5z M378.8,539.7c0-1.6-1-2.1-3.1-2.1h-2v4.3h2C377.9,541.9,378.8,541.1,378.8,539.7z
			 M379.6,545.6c0-1.7-1.3-2.4-3.6-2.4h-2.3v5h2.3C378.3,548.2,379.6,547.4,379.6,545.6z"/>
		<path class="st1" d="M383.4,545.9v-6.2h1.6v6c0,1.8,0.5,2.6,1.8,2.6c1,0,1.7-0.5,2.6-1.7v-6.9h1.6v9.8h-1.4l-0.1-1.5l0,0
			c-0.9,1.1-1.9,1.8-3.2,1.8C384.2,549.7,383.4,548.4,383.4,545.9z"/>
		<path class="st1" d="M393.1,548.4l0.8-1.1c0.9,0.7,1.7,1.2,2.9,1.2c1.3,0,1.9-0.7,1.9-1.5c0-1-1.1-1.4-2.2-1.8
			c-1.4-0.5-2.9-1.2-2.9-2.8c0-1.5,1.2-2.8,3.4-2.8c1.2,0,2.3,0.5,3,1.1l-0.8,1.1c-0.7-0.5-1.4-0.9-2.3-0.9c-1.2,0-1.8,0.6-1.8,1.4
			c0,0.9,1.1,1.3,2.2,1.7c1.4,0.5,3,1.1,3,3c0,1.6-1.3,2.9-3.6,2.9C395.4,549.7,394.1,549.1,393.1,548.4z"/>
		<path class="st1" d="M404.5,545.4c0.2,0.9,0.4,1.8,0.6,2.7h0.1c0.2-0.9,0.4-1.8,0.7-2.7l1.5-5.7h1.6l1.5,5.7
			c0.2,0.9,0.5,1.8,0.7,2.7h0.1c0.2-0.9,0.4-1.8,0.6-2.7l1.4-5.7h1.5l-2.6,9.8h-2l-1.4-5.3c-0.3-0.9-0.4-1.8-0.7-2.8H408
			c-0.2,1-0.4,1.9-0.7,2.8l-1.4,5.2H404l-2.7-9.8h1.7L404.5,545.4z"/>
		<path class="st1" d="M416.1,546.8c0-2.5,2.1-3.5,6-3.6c0-1.3-0.4-2.5-2-2.5c-1.1,0-2.3,0.4-3,1l-0.6-1.2c0.9-0.6,2.4-1.2,3.9-1.2
			c2.4,0,3.4,1.6,3.4,4v6h-1.4l-0.1-1l0,0c-0.9,0.8-2,1.3-3.3,1.3C417.3,549.7,416.1,548.6,416.1,546.8z M422.1,547.3v-2.9
			c-3.5,0.2-4.4,0.9-4.4,2.4c0,1.2,0.7,1.7,1.7,1.7C420.4,548.4,421.2,548.1,422.1,547.3z"/>
		<path class="st1" d="M425.3,539.7h1.7l2,5.3c0.3,0.8,0.6,1.8,0.9,2.7h0.1c0.3-0.9,0.6-1.9,0.8-2.7l1.8-5.3h1.6l-5,14h-1.5l1.5-4.3
			L425.3,539.7z"/>
		<path class="st1" d="M435.8,550.8h-1.2l0.6-3.6h1.6L435.8,550.8z"/>
		<path class="st1" d="M441.9,536.3h9.7v1.4h-4v11.8h-1.7v-11.8h-4V536.3z"/>
		<path class="st1" d="M461.4,537.7h-5.9v4.5h5v1.4h-5v5.9h-1.7v-13.2h7.6V537.7L461.4,537.7z"/>
		<path class="st1" d="M475.8,539.5c0,1.3-0.7,2.5-1.9,2.9v0.1c1.6,0.3,2.7,1.3,2.7,3.2c0,2.6-2,3.9-5,3.9h-4.2v-13.2h3.9
			C474,536.3,475.8,537.2,475.8,539.5z M474.2,539.7c0-1.6-1-2.1-3.1-2.1h-2v4.3h2C473.3,541.9,474.2,541.1,474.2,539.7z
			 M474.9,545.6c0-1.7-1.3-2.4-3.6-2.4H469v5h2.3C473.6,548.2,474.9,547.4,474.9,545.6z"/>
		<path class="st1" d="M478.7,545.9v-6.2h1.6v6c0,1.8,0.5,2.6,1.8,2.6c1,0,1.7-0.5,2.6-1.7v-6.9h1.6v9.8h-1.4l0.1-1.5l0,0
			c-0.9,1.1-1.9,1.8-3.2,1.8C479.6,549.7,478.7,548.4,478.7,545.9z"/>
		<path class="st1" d="M488.5,548.4l0.8-1.1c0.9,0.7,1.7,1.2,2.9,1.2c1.3,0,1.9-0.7,1.9-1.5c0-1-1.1-1.4-2.2-1.8
			c-1.4-0.5-2.9-1.2-2.9-2.8c0-1.5,1.2-2.8,3.4-2.8c1.2,0,2.3,0.5,3,1.1l-0.8,1.1c-0.7-0.5-1.4-0.9-2.3-0.9c-1.2,0-1.8,0.6-1.8,1.4
			c0,0.9,1.1,1.3,2.2,1.7c1.4,0.5,3,1.1,3,3c0,1.6-1.3,2.9-3.6,2.9C490.8,549.7,489.4,549.1,488.5,548.4z"/>
		<path class="st1" d="M499.8,545.4c0.2,0.9,0.4,1.8,0.6,2.7h0.1c0.2-0.9,0.4-1.8,0.7-2.7l1.5-5.7h1.6l1.5,5.7
			c0.2,0.9,0.5,1.8,0.7,2.7h0.1c0.2-0.9,0.4-1.8,0.6-2.7l1.4-5.7h1.5l-2.6,9.8h-2l-1.4-5.3c-0.3-0.9-0.4-1.8-0.7-2.8h-0.1
			c-0.2,1-0.4,1.9-0.7,2.8l-1.4,5.2h-1.9l-2.7-9.8h1.7L499.8,545.4z"/>
		<path class="st1" d="M511.5,546.8c0-2.5,2.1-3.5,6-3.6c0-1.3-0.4-2.5-2-2.5c-1.2,0-2.3,0.4-3,1l-0.6-1.2c0.9-0.6,2.4-1.2,3.9-1.2
			c2.4,0,3.4,1.6,3.4,4v6h-1.3l-0.1-1l0,0c-0.9,0.8-2,1.3-3.3,1.3C512.7,549.7,511.5,548.6,511.5,546.8z M517.5,547.3v-2.9
			c-3.5,0.2-4.4,0.9-4.4,2.4c0,1.2,0.7,1.7,1.7,1.7C515.8,548.4,516.5,548.1,517.5,547.3z"/>
		<path class="st1" d="M520.7,539.7h1.7l2,5.3c0.3,0.8,0.6,1.8,0.9,2.7h0.1c0.3-0.9,0.6-1.9,0.8-2.7l1.8-5.3h1.6l-5,14h-1.5l1.5-4.3
			L520.7,539.7z"/>
		<path class="st1" d="M531.2,550.8H530l0.7-3.6h1.6L531.2,550.8z"/>
		<path class="st1" d="M545,544.6l1.4,2.7h0.1c-0.1-1.4-0.2-2.8-0.2-4.2v-6.9h1.6v13.2h-1.7l-4.8-8.3l-1.4-2.7h-0.1
			c0.1,1.4,0.2,2.7,0.2,4.1v6.9h-1.6v-13.2h1.7L545,544.6z"/>
		<path class="st1" d="M550.3,547.8l1-1.1c1,1,2.3,1.6,3.7,1.6c1.7,0,2.8-0.9,2.8-2.2s-1-1.8-2.2-2.3l-1.9-0.8
			c-1.2-0.5-2.7-1.4-2.7-3.4s1.8-3.5,4.2-3.5c1.6,0,3,0.6,3.9,1.6l-0.9,1.1c-0.8-0.8-1.8-1.2-3-1.2c-1.5,0-2.5,0.7-2.5,1.9
			c0,1.3,1.2,1.8,2.2,2.2l1.9,0.8c1.5,0.7,2.7,1.6,2.7,3.5c0,2.1-1.7,3.8-4.5,3.8C553.1,549.7,551.5,549,550.3,547.8z"/>
		<path class="st1" d="M570.6,540.2c0,2.8-2,4.1-4.9,4.1h-2.2v5.2h-1.7v-13.2h3.8C568.6,536.3,570.6,537.3,570.6,540.2z
			 M568.9,540.2c0-1.9-1.2-2.5-3.5-2.5h-1.9v5.3h2C567.8,542.9,568.9,542,568.9,540.2z"/>
		<path class="st1" d="M581.5,539.5c0,1.3-0.7,2.5-1.9,2.9v0.1c1.6,0.3,2.7,1.3,2.7,3.2c0,2.6-2,3.9-5,3.9h-4.2v-13.2h3.9
			C579.7,536.3,581.5,537.2,581.5,539.5z M579.9,539.7c0-1.6-1-2.1-3.1-2.1h-2v4.3h2C579,541.9,579.9,541.1,579.9,539.7z
			 M580.6,545.6c0-1.7-1.3-2.4-3.6-2.4h-2.3v5h2.3C579.4,548.2,580.6,547.4,580.6,545.6z"/>
		<path class="st1" d="M597,539.5c0,1.3-0.7,2.5-1.9,2.9v0.1c1.6,0.3,2.7,1.3,2.7,3.2c0,2.6-2,3.9-5,3.9h-4.2v-13.2h3.9
			C595.2,536.3,597,537.2,597,539.5z M595.4,539.7c0-1.6-1-2.1-3.1-2.1h-2v4.3h2C594.5,541.9,595.4,541.1,595.4,539.7z M596.1,545.6
			c0-1.7-1.3-2.4-3.6-2.4h-2.3v5h2.3C594.9,548.2,596.1,547.4,596.1,545.6z"/>
		<path class="st1" d="M599.9,545.9v-6.2h1.6v6c0,1.8,0.5,2.6,1.8,2.6c1,0,1.7-0.5,2.7-1.7v-6.9h1.6v9.8h-1.4l-0.1-1.5l0,0
			c-0.9,1.1-1.9,1.8-3.2,1.8C600.8,549.7,599.9,548.4,599.9,545.9z"/>
		<path class="st1" d="M609.7,548.4l0.8-1.1c0.8,0.7,1.7,1.2,2.9,1.2c1.3,0,1.9-0.7,1.9-1.5c0-1-1.2-1.4-2.2-1.8
			c-1.4-0.5-2.9-1.2-2.9-2.8c0-1.5,1.2-2.8,3.4-2.8c1.2,0,2.3,0.5,3,1.1l-0.8,1.1c-0.7-0.5-1.4-0.9-2.3-0.9c-1.2,0-1.8,0.6-1.8,1.4
			c0,0.9,1.1,1.3,2.2,1.7c1.4,0.5,3,1.1,3,3c0,1.6-1.3,2.9-3.6,2.9C612,549.7,610.6,549.1,609.7,548.4z"/>
		<path class="st1" d="M621,545.4c0.2,0.9,0.4,1.8,0.6,2.7h0.1c0.2-0.9,0.4-1.8,0.7-2.7l1.5-5.7h1.6l1.5,5.7
			c0.2,0.9,0.5,1.8,0.7,2.7h0.1c0.2-0.9,0.4-1.8,0.6-2.7l1.4-5.7h1.5l-2.6,9.8h-2l-1.4-5.3c-0.3-0.9-0.4-1.8-0.7-2.8h-0.1
			c-0.2,1-0.4,1.9-0.7,2.8l-1.4,5.2h-1.9l-2.7-9.8h1.7L621,545.4z"/>
		<path class="st1" d="M632.7,546.8c0-2.5,2.1-3.5,6-3.6c0-1.3-0.4-2.5-2-2.5c-1.2,0-2.3,0.4-3,1l-0.7-1.2c0.9-0.6,2.4-1.2,3.9-1.2
			c2.4,0,3.4,1.6,3.4,4v6H639l-0.1-1l0,0c-0.9,0.8-2,1.3-3.3,1.3C633.9,549.7,632.7,548.6,632.7,546.8z M638.7,547.3v-2.9
			c-3.5,0.2-4.4,0.9-4.4,2.4c0,1.2,0.7,1.7,1.7,1.7C637,548.4,637.8,548.1,638.7,547.3z"/>
		<path class="st1" d="M641.9,539.7h1.7l2,5.3c0.3,0.8,0.6,1.8,0.9,2.7h0.1c0.3-0.9,0.6-1.9,0.8-2.7l1.8-5.3h1.6l-5,14h-1.5l1.5-4.3
			L641.9,539.7z"/>
		<path class="st1" d="M655.6,543.6v-1.2h14.6v1.2H655.6z M668.5,547.9c0,1.9-2.1,2.9-5.5,2.9s-5.5-1-5.5-2.9s2.1-2.9,5.5-2.9
			S668.5,546,668.5,547.9z M657.5,535.3h11v1.2H659v3.1h9.6v1.2h-11.1V535.3z M667,547.9c0-1.2-1.5-1.8-4-1.8s-4,0.6-4,1.8
			s1.5,1.8,4,1.8C665.5,549.6,667,549,667,547.9z"/>
		<path class="st1" d="M685.3,545l0.2,1.2c-2.5,0.5-4.6,0.6-7.6,0.6h-1.3v-10.6h7.5v1.2h-6v8.1C680.9,545.6,683,545.5,685.3,545z
			 M688.3,550.8h-1.5v-16.2h1.5v6.4h2.7v1.2h-2.7V550.8z"/>
		<path class="st1" d="M696.8,543.2c-2.5,0-4.2-1.6-4.2-3.8s1.8-3.8,4.2-3.8s4.2,1.5,4.2,3.8S699.2,543.2,696.8,543.2z M696.8,542
			c1.6,0,2.8-1.1,2.8-2.6s-1.2-2.6-2.8-2.6s-2.8,1-2.8,2.6C694,540.9,695.1,542,696.8,542z M705,547.8c0,1.9-2,3-5.3,3
			s-5.3-1.1-5.3-3s2-3,5.3-3C702.9,544.8,705,545.8,705,547.8z M703.5,547.8c0-1.2-1.4-1.8-3.8-1.8s-3.8,0.7-3.8,1.8
			c0,1.2,1.5,1.8,3.8,1.8S703.5,548.9,703.5,547.8z M707.1,540.5v1.2h-2.4v2.5h-1.5v-9.6h1.5v2.4h2.4v1.2h-2.4v2.2L707.1,540.5
			L707.1,540.5z"/>
		<path class="st1" d="M708.7,536.6h4v-2h1.5v2h4v1.2h-9.5V536.6z M713.4,544.7c-2.3,0-3.8-1.2-3.8-3s1.6-3,3.8-3
			c2.3,0,3.9,1.2,3.9,3C717.3,543.5,715.7,544.7,713.4,544.7z M713.4,543.6c1.5,0,2.5-0.7,2.5-1.9s-1-1.8-2.5-1.8s-2.5,0.7-2.5,1.8
			S711.9,543.6,713.4,543.6z M721.9,550.5h-10.8v-4.6h1.5v3.4h9.3V550.5L721.9,550.5z M721.2,541.2v5.5h-1.5v-12.1h1.5v5.3h2.4v1.2
			L721.2,541.2L721.2,541.2z"/>
		<path class="st1" d="M736.9,550.8h-1.5v-5.4h-6.5v-1.2h14.7v1.2H737v5.4H736.9z M730.7,535.3h1.5v2.2h8v-2.2h1.5v7h-11V535.3z
			 M732.2,541.1h8v-2.4h-8V541.1z"/>
		<path class="st1" d="M745.2,548.7v-1.2h14.6v1.2H745.2z M752.5,539.3c-1,2.4-3.6,4.1-6,4.7l-0.7-1.2c2.8-0.6,5.9-3,5.9-5.7v-1.2
			h1.5v1.2c0,2.7,3.1,5.2,5.9,5.7l-0.7,1.2C756,543.4,753.5,541.7,752.5,539.3z"/>
		<path class="st1" d="M763.7,543.6h-1.2v-7.8h7.3v1.2H764v5.4c3,0,4.8-0.1,6.8-0.5l0.2,1.2C768.7,543.5,766.9,543.6,763.7,543.6z
			 M774.9,550.8h-1.5v-4.5h-9.3v-1.2h10.8V550.8L774.9,550.8z M773.4,544.3V540h-4.5v-1.2h4.5v-4.2h1.5v9.7H773.4L773.4,544.3z"/>
		<path class="st1" d="M778,548.7v-1.2h14.7v1.2H778z M779.9,536.1h10.9v1.2h-9.4v2.4h9.1v1.2h-9.1v2.6h9.6v1.2h-11.1V536.1
			L779.9,536.1z"/>
		<path class="st1" d="M802.3,540.3c-0.6,1.5-1.7,2.9-3.3,3.6l-0.8-1.2c2.1-0.9,3.4-3,3.4-4.8v-2.2h1.4v2.2c0,1.8,1.2,3.6,3.3,4.4
			l-0.8,1.1C804,542.8,802.9,541.6,802.3,540.3z M811.9,547.9c0,1.8-2.1,2.9-5.4,2.9s-5.4-1.1-5.4-2.9s2.1-2.9,5.4-2.9
			C809.8,545,811.9,546.1,811.9,547.9z M810.5,547.9c0-1.2-1.5-1.8-3.9-1.8s-3.9,0.6-3.9,1.8s1.5,1.8,3.9,1.8S810.5,549,810.5,547.9
			z M807,535h1.4v4h2v-4.3h1.4v10h-1.4v-4.4h-2v3.9H807V535z"/>
		<path class="st1" d="M819.3,540.3c-0.7,1.9-2.1,3.4-4,4.1l-0.8-1.2c2.5-0.9,4-3,4-5.5v-2h1.5v2c0,2.2,1.6,4.3,4,5.1l-0.7,1.2
			C821.5,543.3,820.1,542,819.3,540.3z M827.8,550.5h-10.7v-5h1.5v3.8h9.2V550.5L827.8,550.5z M827.1,540.8v5.7h-1.5v-11.9h1.5v5
			h2.4v1.2H827.1L827.1,540.8z"/>
		<path class="st1" d="M226.8,574.6c0,4.7-3.8,8.4-8.4,8.4c-4.6,0-8.4-3.8-8.4-8.4s3.8-8.4,8.4-8.4C223,566.3,226.8,570,226.8,574.6
			z M226.2,574.6c0-4.3-3.5-7.8-7.8-7.8c-4.4,0-7.8,3.5-7.8,7.8s3.5,7.8,7.8,7.8S226.2,579,226.2,574.6z M218.8,570.9
			c-1.4,0-2.6,0.9-2.7,3.7c0.6-0.7,1.6-1.2,2.5-1.2c1.8,0,2.9,1,2.9,2.9c0,1.8-1.4,3-3.2,3c-2.1,0-3.7-1.5-3.7-4.6
			c0-3.7,1.9-5.2,4.1-5.2c1.2,0,2,0.5,2.6,1l-0.8,0.9C220.1,571.2,219.5,570.9,218.8,570.9z M220.2,576.4c0-1.2-0.6-1.8-1.9-1.8
			c-0.6,0-1.4,0.3-2.1,1.2c0.2,1.8,1,2.6,2.3,2.6C219.4,578.3,220.2,577.5,220.2,576.4z"/>
		<path class="st1" d="M235,575.4c0.5,1.5,0.8,2.8,1.3,4.4h0.1c0.5-1.6,0.8-2.8,1.3-4.4l2.1-7.2h1.7l-4.2,13.2h-1.9l-4.2-13.2h1.8
			L235,575.4z"/>
		<path class="st1" d="M242.3,574.9c0-4.3,2.5-6.9,5.9-6.9c1.6,0,2.9,0.8,3.6,1.6l-0.9,1.1c-0.7-0.7-1.6-1.3-2.7-1.3
			c-2.5,0-4.2,2-4.2,5.3s1.6,5.4,4.1,5.4c1.3,0,2.2-0.6,3.1-1.5l0.9,1c-1.1,1.2-2.3,1.9-4.1,1.9
			C244.8,581.7,242.3,579.2,242.3,574.9z"/>
		<path class="st1" d="M256.5,575.4c0.5,1.5,0.8,2.8,1.3,4.4h0.1c0.5-1.6,0.8-2.8,1.3-4.4l2.1-7.2h1.7l-4.2,13.2h-1.9l-4.2-13.2h1.8
			L256.5,575.4z"/>
		<path class="st1" d="M277,577.2l0.1,1.2c-2.5,0.4-4.6,0.5-7.6,0.5h-1.3v-10.8h7.5v1.2h-6v3.3h5.7v1.2h-5.7v3.9
			C272.6,577.7,274.5,577.6,277,577.2z M280,582.8h-1.5v-16.1h1.5v6.5h2.7v1.2H280V582.8z"/>
		<path class="st1" d="M289.8,576.3v6.1h-1.5v-6c-1.5,0-3,0.1-4.3,0.1l-0.2-1.2c3,0,7.1,0,10.6-0.5l0.1,1.1
			C293,576,291.4,576.2,289.8,576.3z M285.1,570.6c0-1.9,1.7-3.2,4-3.2c2.4,0,4,1.3,4,3.2s-1.7,3.2-4,3.2S285.1,572.6,285.1,570.6z
			 M286.5,570.6c0,1.2,1.1,2,2.7,2s2.7-0.8,2.7-2s-1.1-2-2.7-2C287.5,568.6,286.5,569.4,286.5,570.6z M295.7,582.8v-4H292v-1.2h3.7
			v-11h1.5v16.2H295.7z"/>
		<path class="st1" d="M210,606.6c0-4.6,3.8-8.4,8.4-8.4s8.4,3.8,8.4,8.4c0,4.7-3.8,8.4-8.4,8.4S210,611.3,210,606.6z M226.2,606.6
			c0-4.3-3.5-7.8-7.8-7.8c-4.4,0-7.8,3.5-7.8,7.8s3.5,7.8,7.8,7.8S226.2,611,226.2,606.6z M220,603.1h-4.9v-1.3h6.6v0.9
			c-2.4,2.8-2.9,4.8-3.1,8.4h-1.5C217.3,607.8,218,605.7,220,603.1z"/>
		<path class="st1" d="M236.6,607.8c-2.4,0-4.2-1.7-4.2-4s1.8-4,4.2-4s4.2,1.6,4.2,4C240.8,606.1,239,607.8,236.6,607.8z
			 M236.6,606.5c1.6,0,2.8-1.1,2.8-2.7c0-1.6-1.2-2.7-2.8-2.7s-2.8,1.1-2.8,2.7C233.9,605.4,235,606.5,236.6,606.5z M234.9,614.5
			v-5.2h1.5v4h9.4v1.2H234.9z M243.8,598.7h1.5v11.8h-1.5V598.7z"/>
		<path class="st1" d="M256.6,609.8l-0.9,1.1c-1.6-0.9-2.7-2.4-3.3-4.4c-0.6,2.3-1.7,3.9-3.4,4.9l-0.9-1.1c2.3-1.3,3.5-4.1,3.5-7.3
			v-1.3h-3.1v-1.2h7.5v1.2h-2.9v1.3C253.2,606,254.3,608.6,256.6,609.8z M260.8,614.8v-8.4h-2.1v7.6h-1.4v-15h1.4v6.2h2.1v-6.5h1.4
			v16.2L260.8,614.8L260.8,614.8z"/>
		<path class="st1" d="M269.5,611.4l-0.9-1.1c3.7-2.1,5.2-5,5.5-8.3h-4.8v-1.2h6.3C275.6,604.9,274.1,608.8,269.5,611.4z
			 M280.9,614.8v-8.4h-2.2v7.6h-1.4v-14.9h1.4v6.1h2.2v-6.5h1.4v16.2L280.9,614.8L280.9,614.8z"/>
		<path class="st1" d="M285.7,599.3h1.5v2.3h4.6v-2.3h1.4v7.1h-7.5V599.3z M287.1,605.2h4.6v-2.4h-4.6V605.2z M298.1,614.6h-10.8v-4
			h8.8v-1.7h-8.8v-1.2h10.3v3.9h-8.8v1.8h9.4L298.1,614.6L298.1,614.6z M297.6,603.4v3.7h-1.5v-8.3h1.5v3.5h2.4v1.2L297.6,603.4
			L297.6,603.4z"/>
		<path class="st1" d="M301.5,607.4l-0.2-1.2c3,0,7,0,10.4-0.5l0.1,1.1c-1.4,0.2-2.9,0.4-4.4,0.5v3.2H306v-3.1
			C304.4,607.3,302.9,607.4,301.5,607.4z M302.6,602.1c0-1.7,1.6-2.8,4-2.8s4,1.1,4,2.8s-1.6,2.8-4,2.8S302.6,603.8,302.6,602.1z
			 M303.6,614.5v-4.7h1.5v3.5h9.9v1.2H303.6z M304,602.1c0,1.1,1,1.7,2.6,1.7s2.6-0.7,2.6-1.7s-1-1.7-2.6-1.7S304,601.1,304,602.1z
			 M314.6,598.7V611h-1.5v-1.7h-3.3v-1.1h3.3v-9.5H314.6L314.6,598.7z"/>
	</g>
	<path class="st2" d="M872.7,308.1"/>
	<rect x="417.5" y="220.1" class="st3" width="118.2" height="63.4"/>
	<polygon class="st3" points="294.3,223.7 320.4,223.7 337.9,223.7 358.5,223.7 358.5,199.1 294.3,199.1 	"/>
	<polygon class="st3" points="337.9,259.5 279.3,259.5 279.3,283.5 358.5,283.5 358.5,239.5 337.9,239.5 	"/>
	<rect x="369.6" y="294.8" class="st2" width="36.8" height="3.7"/>
	<rect x="405.4" y="199.2" class="st2" width="1" height="10.4"/>
	<path class="st0" d="M545.5,331.8c-0.2,0-0.4,0-0.7-0.1c-0.2,0-0.4,0.1-0.7,0.1H545.5z"/>
	<rect x="292.7" y="140.6" class="st0" width="4.1" height="28.2"/>
	<path class="st2" d="M869,241.8c-10.6-5.9-19.5-9.3-19.5-9.3l-130.8-65.6c-25.6-11.4-53.3-17.3-81.3-17.3H350.6h-29.4h-84.4
		c-11.1,0-20,8.9-20,20v136.6c0,11,8.9,20,20,20h49.8h63.9h333.6c49.2,0,98.2,5.6,146.3,16l59.6,18.6c11.2,3.5,23-3.4,25.5-14.8
		l-2.8-52.1c-0.3-6-0.6-12-0.3-18c0.3-7.9-4-15.3-11.3-18.8L869,241.8z"/>
	<rect x="610" y="139.3" class="st0" width="4.1" height="28.2"/>
	<g>
		<g>
			<path class="st0" d="M349.2,285.2c-9.7,10.9-23,18.1-31.2,30.3c-8.2,12.3-10.8,28-6.9,42.3c2.2,7.9,6.3,15.3,11.8,21.3
				c1.8,1.9,4.6-0.9,2.9-2.9c-9.3-10.2-13.8-24.3-12.1-38c0.9-6.9,3.3-13.6,7-19.5s8.7-10.6,14-15.1c6-5.1,12.2-9.8,17.4-15.7
				C353.8,286.2,350.9,283.3,349.2,285.2L349.2,285.2z"/>
		</g>
	</g>
	<g>
		<g>
			<path class="st0" d="M245.7,216.1c-1.9,3.5-4.4,6.5-7.5,9.1c-3,2.5-6.5,4.5-10,6.3c-7.3,3.9-14.6,7.7-22.4,10.6
				c-4.4,1.7-8.9,3-13.5,4c-2.6,0.6-1.5,4.5,1.1,3.9c8.5-1.8,16.6-5,24.5-8.7c3.9-1.8,7.6-3.8,11.4-5.8c3.7-2,7.4-4.1,10.7-6.6
				c3.7-2.9,6.8-6.6,9.1-10.7C250.5,215.8,247,213.8,245.7,216.1L245.7,216.1z"/>
		</g>
	</g>
	<path class="st0" d="M542.8,217.4v21.9c0,1.5-1.2,2.7-2.7,2.7H423c-1.5,0-2.7,1.2-2.7,2.7v65.1c0,1.5,1.2,2.7,2.7,2.7h117.1
		c1.5,0,2.7,1.2,2.7,2.7v14.1c0,1.3,0.9,2.3,2,2.6c1.2-0.3,2-1.3,2-2.6V315c0-1.5,1.2-2.7,2.7-2.7h173.7c1.7,0,3,1.4,3,3v24.4h4.1
		v-55.2v-3.8v-12.1v-43.1v-8.3c0-1.7-1.4-3-3-3H617.2h-0.6h-70.8C544.2,214.3,542.8,215.7,542.8,217.4z"/>
	<path class="st0" d="M248.2,323.1c-0.2,0-0.4,0-0.5,0c-0.2,0-0.4,0-0.5,0H248.2z"/>
	<path class="st0" d="M261.9,190.1c0-0.1,0-0.1,0-0.2c0-0.1,0-0.1,0-0.2V190.1z"/>
	<path class="st0" d="M245.1,138.3c1.6-2,4.8-0.8,4.8,1.7v120c0,1.5,1.2,2.7,2.7,2.7h19.7c1.5,0,2.7-1.2,2.7-2.7v-1.8
		c0-1.5,1.2-2.7,2.7-2.7h0.8h3H338c1.5,0,2.7-1.2,2.7-2.7v-18.7c0-1.7,1.4-3,3-3h18.7c1.7,0,3-1.4,3-3v-3.3c0-1.7-1.4-3-3-3h-24.8
		l0,0l-68.1,0.1c-1.5,0-2.7-1.2-2.7-2.7v-23.9c0-1.5-1.2-2.7-2.7-2.7h-15.7c-1.4,0-2.6-1.1-2.7-2.5c0.1-1.4,1.3-2.5,2.7-2.5
		l22.8-0.1h18.9c1.5,0,2.7-1.2,2.7-2.7v-15.2v-2.7v-5.8c0-1.7,1.4-3.1,3-3.1H430c1.7,0,3,1.4,3,3v28c0,1.7-1.4,3-3,3h-60.4v3v0.1
		V285c0,1.5-1.2,2.7-2.7,2.7h-89.3c-1.5,0-2.7-1.2-2.7-2.7v-1.4l0,0v-14.2c0-1.5-1.2-2.7-2.7-2.7h-19.7c-1.5,0-2.7,1.2-2.7,2.7v60.1
		c0,1.3-0.9,2.4-2.1,2.6c-1.2-0.3-2.1-1.3-2.1-2.6v-182L245.1,138.3z"/>
	<path class="st0" d="M610.9,192.1c1.8,0,3.2-1.4,3.2-3v-28.4c0-1.5-1.3-2.7-2.8-2.7H465.4c-1.7,0-3,1.4-3,3v28c0,1.7,1.4,3,3,3
		L610.9,192.1L610.9,192.1z"/>
	<path class="st4" d="M606.9,188.4c1.7,0,3.1-1.4,3.1-3v-20.3c0-1.7-1.4-3-3.1-3H469c-1.7,0-3,1.4-3,3v20.3c0,1.7,1.4,3,3,3H606.9z"
		/>
	<g>
		<g>
			<path class="st0" d="M528.1,175.3c0-6.1,5-11,11-11s11,4.9,11,11s-5,11-11,11S528.1,181.3,528.1,175.3z M549.3,175.3
				c0-5.6-4.5-10.2-10.2-10.2s-10.2,4.6-10.2,10.2c0,5.6,4.5,10.2,10.2,10.2S549.3,180.9,549.3,175.3z M540.5,171.5h-5.8V169h9v1.8
				c-3.1,3.4-3.5,5.7-3.8,10.5h-3C537.2,177.3,538,174.6,540.5,171.5z"/>
		</g>
	</g>
	<path class="st4" d="M362.5,217.7h-89c-1.7,0-3-1.3-3-3v-19.3c0-1.7,1.3-3,3-3h89c1.7,0,3,1.3,3,3v19.3
		C365.5,216.4,364.1,217.7,362.5,217.7z"/>
	<g>
		<g>
			<path class="st0" d="M328.5,205c0,6.1-5,11-11,11c-6.1,0-11-4.9-11-11s5-11,11-11S328.5,198.9,328.5,205z M327.6,205
				c0-5.6-4.5-10.2-10.2-10.2c-5.6,0-10.2,4.6-10.2,10.2c0,5.6,4.5,10.2,10.2,10.2S327.6,210.6,327.6,205z M322.1,208.1h-1.6v2.9
				h-2.8v-2.9h-5.8V206l5-7.3h3.6v7.2h1.6L322.1,208.1L322.1,208.1z M317.8,201.3L317.8,201.3c-0.5,0.8-0.7,1.1-1.1,1.8l-1.9,2.8h3
				V204C317.7,203.2,317.7,202.1,317.8,201.3z"/>
		</g>
	</g>
	<path class="st4" d="M344.8,237.6v19.2c0,1.5-1.2,2.7-2.7,2.7h-60.5c-1.5,0-2.7,1.2-2.7,2.7V281c0,1.5,1.2,2.7,2.7,2.7h81.1
		c1.5,0,2.7-1.2,2.7-2.7v-1.1v-20.4v-21.9c0-1.5-1.2-2.7-2.7-2.7h-15.3C346,234.9,344.8,236.1,344.8,237.6z"/>
	<g>
		<g>
			<path class="st0" d="M311.5,271.8c0-6.1,5-11,11-11s11,5,11,11c0,6.1-5,11-11,11C316.4,282.8,311.5,277.9,311.5,271.8z
				 M332.7,271.8c0-5.6-4.5-10.2-10.2-10.2c-5.6,0-10.2,4.6-10.2,10.2s4.5,10.2,10.2,10.2S332.7,277.4,332.7,271.8z M317.6,276.4
				l1.4-1.9c0.8,0.7,1.8,1.3,3.2,1.3c1.2,0,2-0.6,2-1.5c0-1-0.7-1.7-3.7-1.7v-2.1c2.5,0,3.3-0.6,3.3-1.6c0-0.9-0.6-1.4-1.7-1.4
				c-0.9,0-1.8,0.4-2.6,1.1l-1.5-1.8c1.2-1,2.6-1.6,4.2-1.6c2.8,0,4.6,1.2,4.6,3.4c0,1.2-0.8,2.1-2.3,2.7v0.1c1.6,0.4,2.7,1.4,2.7,3
				c0,2.3-2.3,3.6-5,3.6C320.3,278.1,318.6,277.4,317.6,276.4z"/>
		</g>
	</g>
	<path class="st4" d="M539.8,308.9H427.6c-1.7,0-3-1.3-3-3v-57.4c0-1.7,1.3-3,3-3h112.2c1.7,0,3,1.3,3,3v57.4
		C542.8,307.5,541.5,308.9,539.8,308.9z"/>
	<g>
		<g>
			<path class="st0" d="M472.4,277.8c0-6.1,5-11,11-11c6.1,0,11,5,11,11c0,6.1-5,11-11,11C477.3,288.8,472.4,283.9,472.4,277.8z
				 M493.6,277.8c0-5.6-4.5-10.2-10.2-10.2c-5.6,0-10.2,4.6-10.2,10.2s4.5,10.2,10.2,10.2S493.6,283.4,493.6,277.8z M484.9,275.4
				c0-1.2-0.6-1.8-1.8-1.8c-1,0-1.8,0.6-2.5,1.2l-1.6-1.6c1.3-1.3,2.8-2,4.5-2c2.6,0,4.4,1.5,4.4,3.9c0,2-2.1,4.4-4.4,6.3
				c0.7-0.1,1.6-0.1,2.3-0.1h2.5v2.5h-9.1v-1.7C482.6,279.2,484.9,277.1,484.9,275.4z"/>
		</g>
	</g>
	<path class="st4" d="M723,309H549.9c-1.7,0-3-1.3-3-3v-85c0-1.7,1.3-3,3-3H723c1.7,0,3,1.3,3,3v85C726,307.6,724.7,309,723,309z"/>
	<g>
		<path class="st0" d="M623.2,265.7c0-6.1,5-11,11-11s11,4.9,11,11s-5,11-11,11S623.2,271.8,623.2,265.7z M644.4,265.7
			c0-5.6-4.5-10.2-10.2-10.2s-10.2,4.6-10.2,10.2s4.5,10.2,10.2,10.2S644.4,271.3,644.4,265.7z M630.8,260.6
			c1.4-0.3,2.4-0.6,3.3-1.1h2.2v12.3h-3v-9.2h-2.5V260.6z"/>
	</g>
	<path class="st4" d="M299.8,188.4h126.6c1.7,0,3-1.4,3-3v-20.3c0-1.7-1.4-3-3-3H299.8c-1.6,0-3,1.4-3,3v20.3
		C296.8,187.1,298.1,188.4,299.8,188.4z"/>
	<g>
		<g>
			<path class="st0" d="M349.8,175.3c0-6.1,5-11,11-11c6.1,0,11,4.9,11,11s-5,11-11,11S349.8,181.3,349.8,175.3z M371,175.3
				c0-5.6-4.5-10.2-10.2-10.2c-5.6,0-10.2,4.6-10.2,10.2c0,5.6,4.5,10.2,10.2,10.2S371,180.9,371,175.3z M356.1,179.8l1.3-1.9
				c0.8,0.6,1.8,1.3,3.1,1.3c1.3,0,2.2-0.7,2.2-1.9s-0.9-1.9-2.1-1.9c-0.9,0-1.3,0.2-2.1,0.7l-1.3-0.9l0.4-6.2h7.5v2.4H360l-0.2,2.3
				c0.6-0.2,1.2-0.3,1.6-0.3c2.3,0,4.3,1.2,4.3,3.8c0,2.7-2.3,4.3-4.9,4.3C358.6,181.5,357.2,180.8,356.1,179.8z"/>
		</g>
	</g>
	<path class="st2" d="M672.6,152.6"/>
	<g>
		<g>
			<path class="st0" d="M920,348c-9.2-3.5-18.5-7.1-27.4-11.3c-1.8-0.9-3.7-1.8-5.4-2.9c-2.7-1.7-5-3.9-7.2-6.2
				c-5.3-5.6-9.5-12-14.3-18c-9.7-12-22.1-21.5-35.3-29.3c-13.7-8.2-28.4-14.9-43.3-20.8c-15.8-6.2-32.3-11-49.3-11.9
				c-2.1-0.1-4.3-0.2-6.4-0.2c-2.6,0-2.6,4.1,0,4.1c17-0.1,33.6,4.1,49.4,10c15,5.5,29.8,12.3,43.7,20.1c13.3,7.5,25.9,16.6,36,28.2
				c8.7,10,15.3,22.9,27.4,29.1c9.2,4.7,19.1,8.4,28.7,12.2c0.7,0.3,1.5,0.6,2.2,0.9c1,0.4,2.2-0.4,2.5-1.4
				C921.8,349.3,921.1,348.4,920,348L920,348z"/>
		</g>
	</g>
	<g>
		<g>
			<path class="st0" d="M845.7,291.8c-13.2-2.4-25.8,4.8-36.5,11.7c-10.2,6.6-19.7,14.2-30.1,20.4c-5.7,3.4-11.7,6.3-18.1,8.2
				c-2.5,0.8-1.4,4.7,1.1,3.9c23.2-7,40-25.6,61.4-36.1c6.5-3.2,13.9-5.6,21.2-4.3c1.1,0.2,2.2-0.3,2.5-1.4
				C847.4,293.3,846.8,292,845.7,291.8L845.7,291.8z"/>
		</g>
	</g>
	<g>
		<g>
			<path class="st0" d="M775.6,255.2c-5.8-6.8-11.6-13.6-17.4-20.5c-2.7-3.2-5.3-6.4-8.2-9.5c-2.4-2.7-5.2-5.3-8.4-7
				c-2-1.1-4.2-1.8-6.5-2.2c-2.4-0.4-4.8-0.7-7-1.6c-1-0.4-2.2,0.4-2.5,1.4c-0.3,1.1,0.4,2.1,1.4,2.5c3.8,1.5,8,1.2,11.6,2.9
				c3.1,1.5,5.7,3.9,8,6.4c5.7,6.1,10.9,12.7,16.3,19.1c3.2,3.8,6.5,7.6,9.7,11.4C774.4,260.1,777.3,257.2,775.6,255.2L775.6,255.2z
				"/>
		</g>
	</g>
	<g>
		<g>
			<path class="st0" d="M518,157.8c-13.8-5.7-26.9-12.9-39.1-21.6c-3.5-2.5-6.9-5.1-10.2-7.8c-2-1.7-4.9,1.2-2.9,2.9
				c12,9.9,25.1,18.2,39,25c4,1.9,8,3.7,12,5.4c1,0.4,2.2-0.5,2.5-1.4C519.7,159.1,519,158.2,518,157.8L518,157.8z"/>
		</g>
	</g>
	<g>
		<g>
			<path class="st0" d="M752.3,227.9c-11.8-15.4-26.6-28.8-43.8-38c-18.3-9.8-39-14.7-59.6-16.3c-5.8-0.5-11.7-0.7-17.5-0.6
				c-3,0-6,0.1-9,0.2c-1.5,0.1-3,0.1-4.5,0.2c-0.7,0-1.3,0.1-2,0.1c-0.4,0-0.8,0.1-1.1,0.1c-0.2,0-0.9-0.1-0.7,0.1
				c0.2,0.2,0.5,0.5,0.7,0.7c-0.1-0.1-0.1-0.2-0.2-0.2c0.1,0.3,0.2,0.7,0.3,1c0-0.1,0-0.1,0-0.2c-0.1,0.3-0.2,0.7-0.3,1
				c-0.2,0.2-0.5,0.4-0.7,0.5c-0.4,0-0.7,0-1.1,0h0.1c-0.3-0.2-0.6-0.4-0.9-0.5l0.1,0.1c-0.2-0.5-0.4-1-0.6-1.4c0,0.1,0,0.1,0,0.2
				c0.2,2.6,4.3,2.6,4.1,0c-0.2-3.1-4.8-2.9-4.8,0.1c0,3.3,4.1,2.6,6.1,2.5c5.5-0.4,11.1-0.5,16.6-0.5c11.1,0.1,22.3,1,33.2,3
				c21,3.9,41,12,57.8,25.3c9,7.1,17.2,15.5,24.2,24.6c0.7,0.9,1.8,1.3,2.8,0.7C752.4,230.2,753,228.8,752.3,227.9L752.3,227.9z"/>
		</g>
	</g>
	<g>
		<g>
			<path class="st0" d="M525.4,191.6c-0.5,10-11.2,14.7-19.5,17c-10.5,2.9-21.2,4.8-32,6c-21.8,2.5-43.7,2.5-65.6,2.1
				c-12.7-0.2-25.3-0.5-38-0.8c-2.6-0.1-2.6,4,0,4.1c23,0.5,46.1,1.3,69.1,0.8c22.5-0.5,45.3-2.4,67.1-8.2
				c5.6-1.5,11.2-3.5,15.7-7.3c4.1-3.4,6.9-8.3,7.2-13.7C529.6,189,525.6,189,525.4,191.6L525.4,191.6z"/>
		</g>
	</g>
	<path class="st5" d="M601.8,310.6h-33.7c-3.3,0-6-2.7-6-6V271c0-3.3,2.7-6,6-6h33.7c3.3,0,6,2.7,6,6v33.7
		C607.8,308,605.1,310.6,601.8,310.6z"/>
	<g>
		<path class="st0" d="M596.1,287.7c0,6.1-5,11-11,11c-6.1,0-11-5-11-11c0-6.1,5-11,11-11C591.1,276.6,596.1,281.6,596.1,287.7z
			 M595.2,287.7c0-5.6-4.5-10.2-10.2-10.2s-10.2,4.6-10.2,10.2s4.5,10.2,10.2,10.2S595.2,293.3,595.2,287.7z M585.6,283.5
			c-1.5,0-2.8,0.9-2.9,3.8c0.8-0.8,2-1.3,3-1.3c2.2,0,3.9,1.2,3.9,3.8s-2,4.2-4.5,4.2c-2.7,0-5.1-1.8-5.1-6.2c0-4.6,2.6-6.6,5.5-6.6
			c1.8,0,3,0.6,3.9,1.5l-1.6,1.8C587.3,283.9,586.5,283.5,585.6,283.5z M586.9,289.9c0-1.2-0.8-1.8-1.9-1.8c-0.7,0-1.5,0.3-2.2,1.2
			c0.3,1.9,1.2,2.5,2.3,2.5C586,291.8,586.9,291.1,586.9,289.9z"/>
	</g>
</g>
<g id="Layer_2">
	<g>
		<path class="st1" d="M240.3,419.8h6.8v1.5h-15.2v-1.5h6.7v-3.6h1.7V419.8z M232.5,415.4c3.4-0.5,5.9-2.4,6-4.8h-5.3v-1.4h5.3V407
			h1.7v2.2h5.3v1.4h-5.3c0.1,2.3,2.5,4.3,5.9,4.8l-0.7,1.4c-2.8-0.4-5.1-1.7-6.2-3.7c-1.1,1.9-3.4,3.3-6.2,3.7L232.5,415.4z"/>
		<path class="st1" d="M255.8,419.6h7.7v1.5h-15.2v-1.5h5.8v-5.9h1.7V419.6z M259.9,409.7h-10.1v-1.4h11.9v1.6c0,2.1,0,4.4-0.6,7.8
			l-1.8-0.2c0.6-3.2,0.6-5.6,0.6-7.6V409.7z"/>
		<path class="st1" d="M264.9,411.3c0-2.3,1.9-3.9,4.4-3.9c2.5,0,4.4,1.6,4.4,3.9c0,2.3-1.9,3.9-4.4,3.9
			C266.8,415.2,264.9,413.6,264.9,411.3z M269.4,413.7c1.6,0,2.7-1,2.7-2.4c0-1.4-1.1-2.4-2.7-2.4c-1.6,0-2.7,1-2.7,2.4
			C266.7,412.8,267.8,413.7,269.4,413.7z M276,418.3v-1.9h1.8v6.6h-10.7v-6.6h1.8v1.9H276z M276,421.6v-1.9h-7.1v1.9H276z
			 M280.1,410.4v1.5h-2.4v3.8H276v-9h1.8v3.7H280.1z"/>
		<path class="st1" d="M293.6,414.3h7.3v1.4h-15.1v-1.4h6.1v-3.1h1.7V414.3z M299.1,420.2c0,1.9-2.3,3.1-5.9,3.1
			c-3.6,0-5.9-1.1-5.9-3.1c0-1.9,2.3-3.1,5.9-3.1C296.8,417.1,299.1,418.2,299.1,420.2z M296.8,413.1c0.4-1.7,0.4-2.9,0.4-4.2h-9.7
			v-1.4H299v1.4c0,1.3,0,2.7-0.5,4.4L296.8,413.1z M297.4,420.2c0-1.1-1.6-1.7-4.1-1.8c-2.5,0-4.1,0.7-4.1,1.8
			c0,1.1,1.6,1.7,4.1,1.7C295.8,421.9,297.4,421.3,297.4,420.2z"/>
		<path class="st1" d="M302.9,416.5L302,415c2.6-0.9,4.2-3,4.2-5.3v-0.5h-3.7v-1.4h9v1.4H308v0.4c0,2.1,1.5,4,4,4.8l-0.8,1.4
			c-1.9-0.6-3.3-1.9-4-3.4C306.4,414.3,304.9,415.8,302.9,416.5z M315.4,420.1c0,2-2.1,3.1-5.5,3.1c-3.5,0-5.6-1.1-5.6-3.1
			c0-2,2.1-3.1,5.6-3.1C313.3,417,315.4,418.2,315.4,420.1z M313.7,420.1c0-1.1-1.4-1.7-3.8-1.7c-2.4,0-3.8,0.6-3.8,1.7
			c0,1.1,1.4,1.7,3.8,1.7C312.3,421.9,313.7,421.2,313.7,420.1z M315.2,410.8h2.4v1.5h-2.4v4.4h-1.8v-10h1.8V410.8z"/>
	</g>
	<g>
		<path class="st1" d="M232.7,448.9l-1-1.4c2.6-0.9,4.2-3.1,4.2-5.6v-2h1.7v2c0,2.2,1.5,4.3,4.1,5.2l-0.9,1.4c-1.9-0.7-3.2-2-4-3.7
			C236,446.8,234.6,448.2,232.7,448.9z M236.2,450v3.8h9.4v1.4h-11.2V450H236.2z M244.9,443.9h2.4v1.5h-2.4v5.8h-1.8v-12.3h1.8
			V443.9z"/>
		<path class="st1" d="M260.3,438.9h1.8v8.9h-1.8v-3.6h-3.2c-0.3,1.9-2,3.2-4.3,3.2c-2.5,0-4.4-1.6-4.4-3.9c0-2.3,1.8-3.9,4.4-3.9
			c2.2,0,3.9,1.3,4.3,3.1h3.2V438.9z M255.5,443.6c0-1.4-1.1-2.4-2.6-2.4c-1.6,0-2.7,1-2.7,2.4c0,1.4,1.1,2.4,2.7,2.4
			C254.4,446,255.5,445,255.5,443.6z M260.3,450.6v-1.9h1.8v6.7h-10.8v-6.7h1.7v1.9H260.3z M260.3,453.9V452H253v1.9H260.3z"/>
		<path class="st1" d="M265.6,449.1l-0.9-1.4c2.6-0.9,4.2-3.1,4.2-5.3v-0.7h-3.6v-1.4h9v1.4h-3.6v0.7c0,2.1,1.5,4.2,4,5l-0.9,1.4
			c-1.9-0.6-3.2-2-4-3.6C269,446.9,267.6,448.4,265.6,449.1z M269.5,453.8h9.5v1.4h-11.2v-5.2h1.8V453.8z M273.6,443.5h3.2V439h1.8
			v12.2h-1.8v-6.2h-3.2V443.5z"/>
		<path class="st1" d="M282,449.1l-0.9-1.4c2.6-0.9,4.1-3.2,4.1-5.7v-2h1.8v2c0,2.3,1.5,4.4,4,5.3l-1,1.4c-1.8-0.7-3.2-2.1-3.9-3.8
			C285.4,446.8,284,448.3,282,449.1z M285.9,453.8h9.5v1.4h-11.2V450h1.8V453.8z M293.2,451.4v-7.2h-3.5v-1.5h3.5V439h1.8v12.4
			H293.2z"/>
		<path class="st1" d="M310,446.6h7.3v1.4h-15.1v-1.4h6.1v-3.1h1.7V446.6z M315.5,452.5c0,1.9-2.3,3.1-5.9,3.1
			c-3.6,0-5.9-1.1-5.9-3.1c0-1.9,2.3-3.1,5.9-3.1C313.3,449.4,315.5,450.5,315.5,452.5z M313.2,445.4c0.4-1.7,0.4-2.9,0.4-4.2H304
			v-1.4h11.5v1.4c0,1.3,0,2.7-0.5,4.4L313.2,445.4z M313.8,452.5c0-1.1-1.6-1.7-4.1-1.8c-2.5,0-4.1,0.7-4.1,1.8
			c0,1.1,1.6,1.7,4.1,1.7C312.2,454.2,313.8,453.6,313.8,452.5z"/>
		<path class="st1" d="M319.4,448.8l-0.9-1.4c2.6-0.9,4.2-3,4.2-5.3v-0.5H319v-1.4h9v1.4h-3.6v0.4c0,2.1,1.5,4,4,4.8l-0.8,1.4
			c-1.9-0.6-3.3-1.9-4-3.4C322.8,446.6,321.4,448.1,319.4,448.8z M331.8,452.4c0,2-2.1,3.1-5.5,3.1c-3.5,0-5.6-1.1-5.6-3.1
			c0-2,2.1-3.1,5.6-3.1C329.7,449.3,331.8,450.5,331.8,452.4z M330.1,452.4c0-1.1-1.4-1.7-3.8-1.7c-2.4,0-3.8,0.6-3.8,1.7
			c0,1.1,1.4,1.7,3.8,1.7C328.7,454.2,330.1,453.5,330.1,452.4z M331.7,443.1h2.4v1.5h-2.4v4.4h-1.8v-10h1.8V443.1z"/>
	</g>
	<g>
		<path class="st1" d="M240.2,484h6.8v1.4h-15.2V484h6.7v-4h1.7V484z M233.1,480.4l-0.8-1.5c3.2-0.5,6.1-3,6.1-5.6V472h1.9v1.2
			c0,2.6,2.9,5.1,6.1,5.6l-0.8,1.5c-2.7-0.5-5.2-2.2-6.3-4.5C238.2,478.2,235.8,479.8,233.1,480.4z"/>
		<path class="st1" d="M253.3,475.3c0,3,1.1,5.7,3.5,6.9l-1,1.4c-1.6-0.9-2.7-2.4-3.3-4.4c-0.6,2.2-1.7,3.9-3.4,4.9l-1.1-1.3
			c2.4-1.4,3.6-4.2,3.6-7.5v-1.1h-3.1v-1.4h7.7v1.4h-2.9V475.3z M260.9,470.9h1.7v16.6h-1.7V479h-2v7.7h-1.7v-15.5h1.7v6.3h2V470.9z
			"/>
		<path class="st1" d="M277.1,478.6h7.3v1.4h-15.1v-1.4h6.1v-3.1h1.7V478.6z M282.7,484.5c0,1.9-2.3,3.1-5.9,3.1
			c-3.6,0-5.9-1.1-5.9-3.1c0-1.9,2.3-3.1,5.9-3.1C280.4,481.4,282.7,482.5,282.7,484.5z M280.4,477.4c0.4-1.7,0.4-2.9,0.4-4.2h-9.7
			v-1.4h11.5v1.4c0,1.3,0,2.7-0.5,4.4L280.4,477.4z M280.9,484.5c0-1.1-1.6-1.7-4.1-1.8c-2.5,0-4.1,0.7-4.1,1.8
			c0,1.1,1.6,1.7,4.1,1.7C279.3,486.2,280.9,485.6,280.9,484.5z"/>
		<path class="st1" d="M286.5,480.8l-0.9-1.4c2.6-0.9,4.2-3,4.2-5.3v-0.5h-3.7v-1.4h9v1.4h-3.6v0.4c0,2.1,1.5,4,4,4.8l-0.8,1.4
			c-1.9-0.6-3.3-1.9-4-3.4C290,478.6,288.5,480.1,286.5,480.8z M299,484.4c0,2-2.1,3.1-5.5,3.1c-3.5,0-5.6-1.1-5.6-3.1
			c0-2,2.1-3.1,5.6-3.1C296.9,481.3,299,482.5,299,484.4z M297.2,484.4c0-1.1-1.4-1.7-3.8-1.7c-2.4,0-3.8,0.6-3.8,1.7
			c0,1.1,1.4,1.7,3.8,1.7C295.8,486.2,297.2,485.5,297.2,484.4z M298.8,475.1h2.4v1.5h-2.4v4.4H297v-10h1.8V475.1z"/>
	</g>
	<g>
		<path class="st1" d="M240.3,511.7h6.7v1.4h-15.2v-1.4h6.7v-1.4h-4.7v-6.8h11.4v1.4h-9.6v1.3h9.2v1.3h-9.2v1.4h9.7v1.4h-5V511.7z
			 M245.1,516.9c0,1.8-2.1,2.7-5.7,2.7c-3.7,0-5.8-0.9-5.8-2.7c0-1.7,2.1-2.7,5.8-2.7C243,514.2,245.1,515.1,245.1,516.9z
			 M243.4,516.9c0-0.9-1.4-1.4-4-1.4c-2.6,0-4,0.5-4,1.4c0,0.9,1.4,1.4,4,1.3C242,518.2,243.4,517.8,243.4,516.9z"/>
		<path class="st1" d="M249.3,512.8l-0.9-1.4c2.6-1,4.1-3.4,4.1-5.9v-1.6h1.8v1.6c0,2.4,1.5,4.7,4.1,5.6l-0.9,1.4
			c-1.9-0.7-3.3-2.1-4.1-3.9C252.7,510.5,251.2,512,249.3,512.8z M252.9,517.8h9.6v1.4h-11.4V514h1.8V517.8z M262,503v12.2h-1.8V503
			H262z"/>
		<path class="st1" d="M277.1,510.6h7.3v1.4h-15.1v-1.4h6.1v-3.1h1.7V510.6z M282.7,516.5c0,1.9-2.3,3.1-5.9,3.1
			c-3.6,0-5.9-1.1-5.9-3.1c0-1.9,2.3-3.1,5.9-3.1C280.4,513.4,282.7,514.5,282.7,516.5z M280.4,509.4c0.4-1.7,0.4-2.9,0.4-4.2h-9.7
			v-1.4h11.5v1.4c0,1.3,0,2.7-0.5,4.4L280.4,509.4z M280.9,516.5c0-1.1-1.6-1.7-4.1-1.8c-2.5,0-4.1,0.7-4.1,1.8
			c0,1.1,1.6,1.7,4.1,1.7C279.3,518.2,280.9,517.6,280.9,516.5z"/>
		<path class="st1" d="M286.5,512.8l-0.9-1.4c2.6-0.9,4.2-3,4.2-5.3v-0.5h-3.7v-1.4h9v1.4h-3.6v0.4c0,2.1,1.5,4,4,4.8l-0.8,1.4
			c-1.9-0.6-3.3-1.9-4-3.4C290,510.6,288.5,512.1,286.5,512.8z M299,516.4c0,2-2.1,3.1-5.5,3.1c-3.5,0-5.6-1.1-5.6-3.1
			c0-2,2.1-3.1,5.6-3.1C296.9,513.3,299,514.5,299,516.4z M297.2,516.4c0-1.1-1.4-1.7-3.8-1.7c-2.4,0-3.8,0.6-3.8,1.7
			c0,1.1,1.4,1.7,3.8,1.7C295.8,518.2,297.2,517.5,297.2,516.4z M298.8,507.1h2.4v1.5h-2.4v4.4H297v-10h1.8V507.1z"/>
	</g>
	<g>
		<path class="st1" d="M247,543.7v1.4h-6.8v5.4h-1.7v-5.4h-6.7v-1.4H247z M245.1,534.6v7.2h-11.4v-7.2h1.7v2.2h7.9v-2.2H245.1z
			 M243.3,540.4v-2.2h-7.9v2.2H243.3z"/>
		<path class="st1" d="M248.2,546.9h15.2v1.5h-15.2V546.9z M249.6,543.6l-0.8-1.5c3.2-0.6,6-3.1,6-5.8v-1.3h1.9v1.3
			c0,2.7,2.9,5.3,6.1,5.8l-0.8,1.5c-2.7-0.6-5.1-2.3-6.2-4.7C254.7,541.3,252.2,543,249.6,543.6z"/>
		<path class="st1" d="M274.2,542.7c-2.2,0.5-4,0.5-7.4,0.5h-1.3v-8.1h7.6v1.4h-5.9v5.2c3,0,4.7-0.1,6.7-0.5L274.2,542.7z
			 M267.3,546.1v-1.4h11.3v5.8h-1.8v-4.4H267.3z M276.8,533.9h1.8v10h-1.8v-4.3h-4.5v-1.4h4.5V533.9z"/>
		<path class="st1" d="M281.1,547h15.2v1.5h-15.2V547z M294.6,542.8v1.4H283v-8.9h11.4v1.4h-9.6v2.2h9.3v1.4h-9.3v2.4H294.6z"/>
		<path class="st1" d="M310,541.6h7.3v1.4h-15.1v-1.4h6.1v-3.1h1.7V541.6z M315.5,547.5c0,1.9-2.3,3.1-5.9,3.1
			c-3.6,0-5.9-1.1-5.9-3.1c0-1.9,2.3-3.1,5.9-3.1C313.3,544.4,315.5,545.5,315.5,547.5z M313.2,540.4c0.4-1.7,0.4-2.9,0.4-4.2H304
			v-1.4h11.5v1.4c0,1.3,0,2.7-0.5,4.4L313.2,540.4z M313.8,547.5c0-1.1-1.6-1.7-4.1-1.8c-2.5,0-4.1,0.7-4.1,1.8
			c0,1.1,1.6,1.7,4.1,1.7C312.2,549.2,313.8,548.6,313.8,547.5z"/>
		<path class="st1" d="M319.4,543.8l-0.9-1.4c2.6-0.9,4.2-3,4.2-5.3v-0.5H319v-1.4h9v1.4h-3.6v0.4c0,2.1,1.5,4,4,4.8l-0.8,1.4
			c-1.9-0.6-3.3-1.9-4-3.4C322.8,541.6,321.4,543.1,319.4,543.8z M331.8,547.4c0,2-2.1,3.1-5.5,3.1c-3.5,0-5.6-1.1-5.6-3.1
			c0-2,2.1-3.1,5.6-3.1C329.7,544.3,331.8,545.5,331.8,547.4z M330.1,547.4c0-1.1-1.4-1.7-3.8-1.7c-2.4,0-3.8,0.6-3.8,1.7
			c0,1.1,1.4,1.7,3.8,1.7C328.7,549.2,330.1,548.5,330.1,547.4z M331.7,538.1h2.4v1.5h-2.4v4.4h-1.8v-10h1.8V538.1z"/>
	</g>
</g>
</svg>
