<?xml version="1.0" encoding="utf-8"?>
<!-- Generator: Adobe Illustrator 26.1.0, SVG Export Plug-In . SVG Version: 6.00 Build 0)  -->
<svg version="1.1" id="Layer_1" xmlns="http://www.w3.org/2000/svg" xmlns:xlink="http://www.w3.org/1999/xlink" x="0px" y="0px"
	 viewBox="0 0 1154 755.77" style="enable-background:new 0 0 1154 755.77;" xml:space="preserve">
<style type="text/css">
	.st0{fill:#ECEEEF;}
	.st1{fill:#303030;}
	.st2{fill:#7D7D7D;}
	.st3{fill:#AFAFAF;}
	.st4{opacity:0.5;fill:#595959;}
</style>
<rect class="st0" width="1154" height="755.77"/>
<g>
	<path class="st1" d="M210.57,507.86c0-4.63,3.76-8.39,8.39-8.39c4.63,0,8.39,3.76,8.39,8.39c0,4.66-3.8,8.39-8.39,8.39
		C214.33,516.25,210.57,512.49,210.57,507.86z M226.78,507.86c0-4.32-3.49-7.81-7.81-7.81c-4.36,0-7.81,3.55-7.81,7.81
		c0,4.32,3.49,7.81,7.81,7.81S226.78,512.18,226.78,507.86z M216.69,503.83c0.95-0.16,1.62-0.4,2.25-0.74h1.13v9.33h-1.48v-7.63
		h-1.91V503.83z"/>
	<path class="st1" d="M232.57,508.4c0-3.69,2.81-6.41,6.61-6.41c1.84,0,3.49,0.61,4.61,1.84l-0.85,0.85
		c-1.03-1.04-2.29-1.49-3.73-1.49c-3.04,0-5.33,2.23-5.33,5.22c0,2.99,2.29,5.22,5.33,5.22c1.44,0,2.7-0.45,3.73-1.51l0.85,0.85
		c-1.12,1.22-2.77,1.85-4.63,1.85C235.38,514.81,232.57,512.09,232.57,508.4z"/>
	<path class="st1" d="M253.32,508.83v5.87h-1.22v-1.48c-0.58,0.97-1.69,1.57-3.26,1.57c-2.14,0-3.46-1.12-3.46-2.75
		c0-1.46,0.94-2.68,3.66-2.68h3.01v-0.58c0-1.62-0.92-2.5-2.68-2.5c-1.22,0-2.38,0.43-3.15,1.12l-0.58-0.95
		c0.95-0.81,2.36-1.28,3.85-1.28C251.94,505.16,253.32,506.39,253.32,508.83z M252.05,511.86v-1.55h-2.97
		c-1.84,0-2.43,0.72-2.43,1.69c0,1.1,0.88,1.78,2.39,1.78C250.48,513.79,251.54,513.1,252.05,511.86z"/>
	<path class="st1" d="M266.21,509.97c0,2.86-2.02,4.83-4.72,4.83c-1.57,0-2.88-0.68-3.66-1.96v1.87h-1.22v-13.36h1.28v5.69
		c0.79-1.22,2.09-1.87,3.6-1.87C264.2,505.16,266.21,507.11,266.21,509.97z M264.93,509.97c0-2.21-1.53-3.69-3.53-3.69
		c-2.02,0-3.53,1.48-3.53,3.69s1.51,3.69,3.53,3.69C263.4,513.66,264.93,512.18,264.93,509.97z"/>
	<path class="st1" d="M268.64,501.34h1.28v13.36h-1.28V501.34z"/>
	<path class="st1" d="M281.55,510.37h-7.92c0.14,1.98,1.66,3.29,3.73,3.29c1.15,0,2.18-0.41,2.9-1.24l0.72,0.83
		c-0.85,1.01-2.16,1.55-3.66,1.55c-2.95,0-4.97-2.02-4.97-4.83s1.96-4.81,4.63-4.81c2.66,0,4.59,1.96,4.59,4.81
		C281.57,510.08,281.55,510.22,281.55,510.37z M273.63,509.41h6.72c-0.16-1.85-1.51-3.15-3.37-3.15
		C275.14,506.26,273.79,507.56,273.63,509.41z"/>
	<path class="st1" d="M295.68,508.83v5.87h-1.22v-1.48c-0.58,0.97-1.69,1.57-3.26,1.57c-2.14,0-3.46-1.12-3.46-2.75
		c0-1.46,0.94-2.68,3.66-2.68h3.01v-0.58c0-1.62-0.92-2.5-2.68-2.5c-1.22,0-2.38,0.43-3.15,1.12l-0.58-0.95
		c0.95-0.81,2.36-1.28,3.85-1.28C294.29,505.16,295.68,506.39,295.68,508.83z M294.4,511.86v-1.55h-2.97
		c-1.84,0-2.43,0.72-2.43,1.69c0,1.1,0.88,1.78,2.39,1.78C292.83,513.79,293.9,513.1,294.4,511.86z"/>
	<path class="st1" d="M298.02,509.97c0-2.83,2.05-4.81,4.88-4.81c1.6,0,2.95,0.63,3.71,1.87l-0.95,0.65
		c-0.65-0.95-1.66-1.4-2.75-1.4c-2.07,0-3.58,1.48-3.58,3.69c0,2.23,1.51,3.69,3.58,3.69c1.1,0,2.11-0.43,2.75-1.39l0.95,0.65
		c-0.76,1.22-2.11,1.87-3.71,1.87C300.07,514.79,298.02,512.8,298.02,509.97z"/>
	<path class="st1" d="M307.97,509.97c0-2.83,2.05-4.81,4.88-4.81c1.6,0,2.95,0.63,3.71,1.87l-0.95,0.65
		c-0.65-0.95-1.66-1.4-2.75-1.4c-2.07,0-3.58,1.48-3.58,3.69c0,2.23,1.51,3.69,3.58,3.69c1.1,0,2.11-0.43,2.75-1.39l0.95,0.65
		c-0.76,1.22-2.11,1.87-3.71,1.87C310.02,514.79,307.97,512.8,307.97,509.97z"/>
	<path class="st1" d="M327.12,510.37h-7.92c0.14,1.98,1.66,3.29,3.73,3.29c1.15,0,2.18-0.41,2.9-1.24l0.72,0.83
		c-0.85,1.01-2.16,1.55-3.66,1.55c-2.95,0-4.97-2.02-4.97-4.83s1.96-4.81,4.63-4.81c2.66,0,4.59,1.96,4.59,4.81
		C327.14,510.08,327.12,510.22,327.12,510.37z M319.2,509.41h6.72c-0.16-1.85-1.51-3.15-3.37-3.15
		C320.71,506.26,319.36,507.56,319.2,509.41z"/>
	<path class="st1" d="M328.25,513.62l0.58-1.01c0.76,0.59,2.04,1.06,3.37,1.06c1.8,0,2.54-0.61,2.54-1.55
		c0-2.47-6.14-0.52-6.14-4.27c0-1.55,1.33-2.7,3.75-2.7c1.22,0,2.56,0.34,3.35,0.88l-0.56,1.03c-0.83-0.58-1.82-0.81-2.79-0.81
		c-1.71,0-2.47,0.67-2.47,1.57c0,2.56,6.14,0.63,6.14,4.27c0,1.64-1.44,2.7-3.91,2.7C330.54,514.79,329.03,514.29,328.25,513.62z"/>
	<path class="st1" d="M336.88,513.62l0.58-1.01c0.76,0.59,2.04,1.06,3.37,1.06c1.8,0,2.54-0.61,2.54-1.55
		c0-2.47-6.14-0.52-6.14-4.27c0-1.55,1.33-2.7,3.75-2.7c1.22,0,2.56,0.34,3.35,0.88l-0.56,1.03c-0.83-0.58-1.82-0.81-2.79-0.81
		c-1.71,0-2.47,0.67-2.47,1.57c0,2.56,6.14,0.63,6.14,4.27c0,1.64-1.44,2.7-3.91,2.7C339.16,514.79,337.65,514.29,336.88,513.62z"/>
	<path class="st1" d="M345.86,509.97c0-2.81,2.05-4.81,4.83-4.81c2.77,0,4.81,2,4.81,4.81s-2.03,4.83-4.81,4.83
		C347.91,514.79,345.86,512.78,345.86,509.97z M354.19,509.97c0-2.21-1.5-3.69-3.51-3.69s-3.53,1.48-3.53,3.69s1.51,3.69,3.53,3.69
		S354.19,512.18,354.19,509.97z"/>
	<path class="st1" d="M362.69,505.16v1.24c-0.11,0-0.22-0.02-0.31-0.02c-1.98,0-3.19,1.26-3.19,3.49v4.83h-1.28v-9.47h1.22v1.85
		C359.74,505.83,360.94,505.16,362.69,505.16z"/>
	<path class="st1" d="M372.91,505.23l-4.74,10.61c-0.79,1.85-1.8,2.45-3.15,2.45c-0.88,0-1.73-0.29-2.3-0.86l0.59-0.95
		c0.47,0.47,1.04,0.72,1.73,0.72c0.85,0,1.42-0.4,1.96-1.58l0.41-0.92l-4.23-9.45h1.33l3.56,8.05l3.57-8.05H372.91z"/>
	<path class="st1" d="M380.53,504.12v1.12h2.92v1.08h-2.88v8.39h-1.28v-8.39h-1.69v-1.08h1.69v-1.17c0-1.69,1.01-2.81,2.86-2.81
		c0.7,0,1.42,0.2,1.89,0.59l-0.43,0.95c-0.36-0.31-0.86-0.47-1.41-0.47C381.1,502.33,380.53,502.95,380.53,504.12z"/>
	<path class="st1" d="M392.14,508.83v5.87h-1.22v-1.48c-0.58,0.97-1.69,1.57-3.26,1.57c-2.14,0-3.46-1.12-3.46-2.75
		c0-1.46,0.94-2.68,3.66-2.68h3.01v-0.58c0-1.62-0.92-2.5-2.68-2.5c-1.22,0-2.38,0.43-3.15,1.12l-0.58-0.95
		c0.95-0.81,2.36-1.28,3.85-1.28C390.75,505.16,392.14,506.39,392.14,508.83z M390.86,511.86v-1.55h-2.97
		c-1.84,0-2.43,0.72-2.43,1.69c0,1.1,0.88,1.78,2.39,1.78C389.29,513.79,390.36,513.1,390.86,511.86z"/>
	<path class="st1" d="M394.48,509.97c0-2.83,2.05-4.81,4.88-4.81c1.6,0,2.95,0.63,3.71,1.87l-0.95,0.65
		c-0.65-0.95-1.66-1.4-2.75-1.4c-2.07,0-3.58,1.48-3.58,3.69c0,2.23,1.51,3.69,3.58,3.69c1.1,0,2.11-0.43,2.75-1.39l0.95,0.65
		c-0.76,1.22-2.11,1.87-3.71,1.87C396.53,514.79,394.48,512.8,394.48,509.97z"/>
	<path class="st1" d="M410.37,514.13c-0.5,0.45-1.26,0.67-2,0.67c-1.78,0-2.77-1.01-2.77-2.75v-5.73h-1.69v-1.08h1.69v-2.07h1.28
		v2.07h2.88v1.08h-2.88v5.65c0,1.12,0.58,1.73,1.64,1.73c0.52,0,1.04-0.16,1.41-0.49L410.37,514.13z"/>
	<path class="st1" d="M411.56,509.97c0-2.81,2.05-4.81,4.83-4.81c2.77,0,4.81,2,4.81,4.81s-2.03,4.83-4.81,4.83
		C413.61,514.79,411.56,512.78,411.56,509.97z M419.89,509.97c0-2.21-1.5-3.69-3.51-3.69s-3.53,1.48-3.53,3.69s1.51,3.69,3.53,3.69
		S419.89,512.18,419.89,509.97z"/>
	<path class="st1" d="M428.39,505.16v1.24c-0.11,0-0.22-0.02-0.31-0.02c-1.98,0-3.19,1.26-3.19,3.49v4.83h-1.28v-9.47h1.22v1.85
		C425.44,505.83,426.64,505.16,428.39,505.16z"/>
	<path class="st1" d="M438.61,505.23l-4.74,10.61c-0.79,1.85-1.8,2.45-3.15,2.45c-0.88,0-1.73-0.29-2.3-0.86l0.59-0.95
		c0.47,0.47,1.04,0.72,1.73,0.72c0.85,0,1.42-0.4,1.96-1.58l0.41-0.92l-4.23-9.45h1.33l3.56,8.05l3.57-8.05H438.61z"/>
	<path class="st1" d="M443.94,506.13c0-0.56,0.43-0.97,0.95-0.97c0.52,0,0.97,0.41,0.97,0.97c0,0.56-0.45,0.99-0.97,0.99
		C444.37,507.12,443.94,506.69,443.94,506.13z M443.94,513.8c0-0.56,0.43-0.97,0.95-0.97c0.52,0,0.97,0.41,0.97,0.97
		c0,0.56-0.45,0.99-0.97,0.99C444.37,514.79,443.94,514.36,443.94,513.8z"/>
	<path class="st1" d="M463.08,506.42c0,2.68-1.95,4.3-5.15,4.3h-3.38v3.98h-1.33v-12.6h4.72
		C461.13,502.1,463.08,503.72,463.08,506.42z M461.74,506.42c0-2.02-1.33-3.17-3.85-3.17h-3.35v6.3h3.35
		C460.41,509.56,461.74,508.4,461.74,506.42z"/>
	<path class="st1" d="M470.45,505.16v1.24c-0.11,0-0.22-0.02-0.31-0.02c-1.98,0-3.19,1.26-3.19,3.49v4.83h-1.28v-9.47h1.22v1.85
		C467.5,505.83,468.71,505.16,470.45,505.16z"/>
	<path class="st1" d="M471.77,509.97c0-2.81,2.05-4.81,4.83-4.81c2.77,0,4.81,2,4.81,4.81s-2.03,4.83-4.81,4.83
		C473.82,514.79,471.77,512.78,471.77,509.97z M480.1,509.97c0-2.21-1.5-3.69-3.51-3.69s-3.53,1.48-3.53,3.69s1.51,3.69,3.53,3.69
		S480.1,512.18,480.1,509.97z"/>
	<path class="st1" d="M492.47,501.34v13.36h-1.22v-1.87c-0.77,1.28-2.09,1.96-3.66,1.96c-2.7,0-4.72-1.96-4.72-4.83
		s2.02-4.81,4.72-4.81c1.51,0,2.81,0.65,3.6,1.87v-5.69H492.47z M491.21,509.97c0-2.21-1.51-3.69-3.51-3.69
		c-2.02,0-3.53,1.48-3.53,3.69s1.51,3.69,3.53,3.69C489.7,513.66,491.21,512.18,491.21,509.97z"/>
	<path class="st1" d="M504.39,505.23v9.47h-1.22v-1.73c-0.67,1.15-1.89,1.82-3.4,1.82c-2.41,0-4-1.35-4-4.07v-5.49h1.28v5.37
		c0,2.02,1.04,3.04,2.84,3.04c1.98,0,3.22-1.28,3.22-3.44v-4.97H504.39z"/>
	<path class="st1" d="M506.83,509.97c0-2.83,2.05-4.81,4.88-4.81c1.6,0,2.95,0.63,3.71,1.87l-0.95,0.65
		c-0.65-0.95-1.66-1.4-2.75-1.4c-2.07,0-3.58,1.48-3.58,3.69c0,2.23,1.51,3.69,3.58,3.69c1.1,0,2.11-0.43,2.75-1.39l0.95,0.65
		c-0.76,1.22-2.11,1.87-3.71,1.87C508.88,514.79,506.83,512.8,506.83,509.97z"/>
	<path class="st1" d="M522.72,514.13c-0.5,0.45-1.26,0.67-2,0.67c-1.78,0-2.77-1.01-2.77-2.75v-5.73h-1.69v-1.08h1.69v-2.07h1.28
		v2.07h2.88v1.08h-2.88v5.65c0,1.12,0.58,1.73,1.64,1.73c0.52,0,1.04-0.16,1.41-0.49L522.72,514.13z"/>
	<path class="st1" d="M524.58,502.25c0-0.49,0.41-0.9,0.94-0.9s0.94,0.4,0.94,0.88c0,0.52-0.4,0.94-0.94,0.94
		C524.99,503.16,524.58,502.75,524.58,502.25z M524.86,505.23h1.28v9.47h-1.28V505.23z"/>
	<path class="st1" d="M528.57,509.97c0-2.81,2.05-4.81,4.83-4.81c2.77,0,4.81,2,4.81,4.81s-2.03,4.83-4.81,4.83
		C530.63,514.79,528.57,512.78,528.57,509.97z M536.91,509.97c0-2.21-1.5-3.69-3.51-3.69s-3.53,1.48-3.53,3.69s1.51,3.69,3.53,3.69
		S536.91,512.18,536.91,509.97z"/>
	<path class="st1" d="M549.35,509.21v5.49h-1.28v-5.37c0-2-1.04-3.03-2.84-3.03c-2.04,0-3.31,1.26-3.31,3.42v4.97h-1.28v-9.47h1.22
		v1.75c0.68-1.15,1.96-1.82,3.6-1.82C547.76,505.16,549.35,506.5,549.35,509.21z"/>
	<path class="st1" d="M556.22,509.97c0-2.81,2.05-4.81,4.83-4.81c2.77,0,4.81,2,4.81,4.81s-2.03,4.83-4.81,4.83
		C558.27,514.79,556.22,512.78,556.22,509.97z M564.56,509.97c0-2.21-1.5-3.69-3.51-3.69s-3.53,1.48-3.53,3.69s1.51,3.69,3.53,3.69
		S564.56,512.18,564.56,509.97z"/>
	<path class="st1" d="M569.74,504.12v1.12h2.92v1.08h-2.88v8.39h-1.28v-8.39h-1.69v-1.08h1.69v-1.17c0-1.69,1.01-2.81,2.86-2.81
		c0.7,0,1.42,0.2,1.89,0.59l-0.43,0.95c-0.36-0.31-0.86-0.47-1.41-0.47C570.32,502.33,569.74,502.95,569.74,504.12z"/>
	<path class="st1" d="M577.78,509.97c0-2.83,2.05-4.81,4.88-4.81c1.6,0,2.95,0.63,3.71,1.87l-0.95,0.65
		c-0.65-0.95-1.66-1.4-2.75-1.4c-2.07,0-3.58,1.48-3.58,3.69c0,2.23,1.51,3.69,3.58,3.69c1.1,0,2.11-0.43,2.75-1.39l0.95,0.65
		c-0.76,1.22-2.11,1.87-3.71,1.87C579.84,514.79,577.78,512.8,577.78,509.97z"/>
	<path class="st1" d="M595.84,508.83v5.87h-1.22v-1.48c-0.58,0.97-1.69,1.57-3.26,1.57c-2.14,0-3.46-1.12-3.46-2.75
		c0-1.46,0.94-2.68,3.66-2.68h3.01v-0.58c0-1.62-0.92-2.5-2.68-2.5c-1.22,0-2.38,0.43-3.15,1.12l-0.58-0.95
		c0.95-0.81,2.36-1.28,3.85-1.28C594.45,505.16,595.84,506.39,595.84,508.83z M594.56,511.86v-1.55h-2.97
		c-1.84,0-2.43,0.72-2.43,1.69c0,1.1,0.88,1.78,2.39,1.78C593,513.79,594.06,513.1,594.56,511.86z"/>
	<path class="st1" d="M608.73,509.97c0,2.86-2.02,4.83-4.72,4.83c-1.57,0-2.88-0.68-3.66-1.96v1.87h-1.22v-13.36h1.28v5.69
		c0.79-1.22,2.09-1.87,3.6-1.87C606.71,505.16,608.73,507.11,608.73,509.97z M607.45,509.97c0-2.21-1.53-3.69-3.53-3.69
		c-2.02,0-3.53,1.48-3.53,3.69s1.51,3.69,3.53,3.69C605.92,513.66,607.45,512.18,607.45,509.97z"/>
	<path class="st1" d="M611.16,501.34h1.28v13.36h-1.28V501.34z"/>
	<path class="st1" d="M624.06,510.37h-7.92c0.14,1.98,1.66,3.29,3.73,3.29c1.15,0,2.18-0.41,2.9-1.24l0.72,0.83
		c-0.85,1.01-2.16,1.55-3.66,1.55c-2.95,0-4.97-2.02-4.97-4.83s1.96-4.81,4.63-4.81c2.66,0,4.59,1.96,4.59,4.81
		C624.08,510.08,624.06,510.22,624.06,510.37z M616.14,509.41h6.72c-0.16-1.85-1.51-3.15-3.37-3.15
		C617.65,506.26,616.3,507.56,616.14,509.41z"/>
	<path class="st1" d="M638.19,508.83v5.87h-1.22v-1.48c-0.58,0.97-1.69,1.57-3.26,1.57c-2.14,0-3.46-1.12-3.46-2.75
		c0-1.46,0.94-2.68,3.66-2.68h3.01v-0.58c0-1.62-0.92-2.5-2.68-2.5c-1.22,0-2.38,0.43-3.15,1.12l-0.58-0.95
		c0.95-0.81,2.36-1.28,3.85-1.28C636.81,505.16,638.19,506.39,638.19,508.83z M636.92,511.86v-1.55h-2.97
		c-1.84,0-2.43,0.72-2.43,1.69c0,1.1,0.88,1.78,2.39,1.78C635.35,513.79,636.41,513.1,636.92,511.86z"/>
	<path class="st1" d="M640.53,509.97c0-2.83,2.05-4.81,4.88-4.81c1.6,0,2.95,0.63,3.71,1.87l-0.95,0.65
		c-0.65-0.95-1.66-1.4-2.75-1.4c-2.07,0-3.58,1.48-3.58,3.69c0,2.23,1.51,3.69,3.58,3.69c1.1,0,2.11-0.43,2.75-1.39l0.95,0.65
		c-0.76,1.22-2.11,1.87-3.71,1.87C642.58,514.79,640.53,512.8,640.53,509.97z"/>
	<path class="st1" d="M650.48,509.97c0-2.83,2.05-4.81,4.88-4.81c1.6,0,2.95,0.63,3.71,1.87l-0.95,0.65
		c-0.65-0.95-1.66-1.4-2.75-1.4c-2.07,0-3.58,1.48-3.58,3.69c0,2.23,1.51,3.69,3.58,3.69c1.1,0,2.11-0.43,2.75-1.39l0.95,0.65
		c-0.76,1.22-2.11,1.87-3.71,1.87C652.54,514.79,650.48,512.8,650.48,509.97z"/>
	<path class="st1" d="M669.64,510.37h-7.92c0.14,1.98,1.66,3.29,3.73,3.29c1.15,0,2.18-0.41,2.9-1.24l0.72,0.83
		c-0.85,1.01-2.16,1.55-3.66,1.55c-2.95,0-4.97-2.02-4.97-4.83s1.96-4.81,4.63-4.81c2.66,0,4.59,1.96,4.59,4.81
		C669.66,510.08,669.64,510.22,669.64,510.37z M661.72,509.41h6.72c-0.16-1.85-1.51-3.15-3.37-3.15
		C663.23,506.26,661.88,507.56,661.72,509.41z"/>
	<path class="st1" d="M670.77,513.62l0.58-1.01c0.76,0.59,2.04,1.06,3.37,1.06c1.8,0,2.54-0.61,2.54-1.55
		c0-2.47-6.14-0.52-6.14-4.27c0-1.55,1.33-2.7,3.75-2.7c1.22,0,2.56,0.34,3.35,0.88l-0.56,1.03c-0.83-0.58-1.82-0.81-2.79-0.81
		c-1.71,0-2.47,0.67-2.47,1.57c0,2.56,6.14,0.63,6.14,4.27c0,1.64-1.44,2.7-3.91,2.7C673.06,514.79,671.54,514.29,670.77,513.62z"/>
	<path class="st1" d="M679.39,513.62l0.58-1.01c0.76,0.59,2.04,1.06,3.37,1.06c1.8,0,2.54-0.61,2.54-1.55
		c0-2.47-6.14-0.52-6.14-4.27c0-1.55,1.33-2.7,3.75-2.7c1.22,0,2.56,0.34,3.35,0.88l-0.56,1.03c-0.83-0.58-1.82-0.81-2.79-0.81
		c-1.71,0-2.47,0.67-2.47,1.57c0,2.56,6.14,0.63,6.14,4.27c0,1.64-1.44,2.7-3.91,2.7C681.68,514.79,680.17,514.29,679.39,513.62z"/>
	<path class="st1" d="M688.37,509.97c0-2.81,2.05-4.81,4.83-4.81c2.77,0,4.81,2,4.81,4.81s-2.03,4.83-4.81,4.83
		C690.43,514.79,688.37,512.78,688.37,509.97z M696.71,509.97c0-2.21-1.5-3.69-3.51-3.69s-3.53,1.48-3.53,3.69s1.51,3.69,3.53,3.69
		S696.71,512.18,696.71,509.97z"/>
	<path class="st1" d="M705.21,505.16v1.24c-0.11,0-0.22-0.02-0.31-0.02c-1.98,0-3.19,1.26-3.19,3.49v4.83h-1.28v-9.47h1.22v1.85
		C702.25,505.83,703.46,505.16,705.21,505.16z"/>
	<path class="st1" d="M707.18,502.25c0-0.49,0.41-0.9,0.94-0.9s0.94,0.4,0.94,0.88c0,0.52-0.4,0.94-0.94,0.94
		C707.6,503.16,707.18,502.75,707.18,502.25z M707.47,505.23h1.28v9.47h-1.28V505.23z"/>
	<path class="st1" d="M720.38,510.37h-7.92c0.14,1.98,1.66,3.29,3.73,3.29c1.15,0,2.18-0.41,2.9-1.24l0.72,0.83
		c-0.85,1.01-2.16,1.55-3.66,1.55c-2.95,0-4.97-2.02-4.97-4.83s1.96-4.81,4.63-4.81c2.66,0,4.59,1.96,4.59,4.81
		C720.4,510.08,720.38,510.22,720.38,510.37z M712.46,509.41h6.72c-0.16-1.85-1.51-3.15-3.37-3.15
		C713.97,506.26,712.62,507.56,712.46,509.41z"/>
	<path class="st1" d="M721.51,513.62l0.58-1.01c0.76,0.59,2.04,1.06,3.37,1.06c1.8,0,2.54-0.61,2.54-1.55
		c0-2.47-6.14-0.52-6.14-4.27c0-1.55,1.33-2.7,3.75-2.7c1.22,0,2.56,0.34,3.35,0.88l-0.56,1.03c-0.83-0.58-1.82-0.81-2.79-0.81
		c-1.71,0-2.47,0.67-2.47,1.57c0,2.56,6.14,0.63,6.14,4.27c0,1.64-1.44,2.7-3.91,2.7C723.8,514.79,722.29,514.29,721.51,513.62z"/>
	<path class="st1" d="M735.7,502.25c0-0.49,0.41-0.9,0.94-0.9s0.94,0.4,0.94,0.88c0,0.52-0.4,0.94-0.94,0.94
		C736.11,503.16,735.7,502.75,735.7,502.25z M735.98,505.23h1.28v9.47h-1.28V505.23z"/>
	<path class="st1" d="M749.36,509.21v5.49h-1.28v-5.37c0-2-1.04-3.03-2.84-3.03c-2.04,0-3.31,1.26-3.31,3.42v4.97h-1.28v-9.47h1.22
		v1.75c0.68-1.15,1.96-1.82,3.6-1.82C747.78,505.16,749.36,506.5,749.36,509.21z"/>
	<path class="st1" d="M751.7,509.97c0-2.83,2.05-4.81,4.88-4.81c1.6,0,2.95,0.63,3.71,1.87l-0.95,0.65c-0.65-0.95-1.66-1.4-2.75-1.4
		c-2.07,0-3.58,1.48-3.58,3.69c0,2.23,1.51,3.69,3.58,3.69c1.1,0,2.11-0.43,2.75-1.39l0.95,0.65c-0.76,1.22-2.11,1.87-3.71,1.87
		C753.75,514.79,751.7,512.8,751.7,509.97z"/>
	<path class="st1" d="M762.61,501.34h1.28v13.36h-1.28V501.34z"/>
	<path class="st1" d="M775.8,505.23v9.47h-1.22v-1.73c-0.67,1.15-1.89,1.82-3.4,1.82c-2.41,0-4-1.35-4-4.07v-5.49h1.28v5.37
		c0,2.02,1.04,3.04,2.84,3.04c1.98,0,3.22-1.28,3.22-3.44v-4.97H775.8z"/>
	<path class="st1" d="M787.84,501.34v13.36h-1.22v-1.87c-0.77,1.28-2.09,1.96-3.66,1.96c-2.7,0-4.72-1.96-4.72-4.83
		s2.02-4.81,4.72-4.81c1.51,0,2.81,0.65,3.6,1.87v-5.69H787.84z M786.58,509.97c0-2.21-1.51-3.69-3.51-3.69
		c-2.02,0-3.53,1.48-3.53,3.69s1.51,3.69,3.53,3.69C785.07,513.66,786.58,512.18,786.58,509.97z"/>
	<path class="st1" d="M790.94,502.25c0-0.49,0.41-0.9,0.94-0.9s0.94,0.4,0.94,0.88c0,0.52-0.4,0.94-0.94,0.94
		C791.35,503.16,790.94,502.75,790.94,502.25z M791.23,505.23h1.28v9.47h-1.28V505.23z"/>
	<path class="st1" d="M804.6,509.21v5.49h-1.28v-5.37c0-2-1.04-3.03-2.84-3.03c-2.04,0-3.31,1.26-3.31,3.42v4.97h-1.28v-9.47h1.22
		v1.75c0.68-1.15,1.96-1.82,3.6-1.82C803.02,505.16,804.6,506.5,804.6,509.21z"/>
	<path class="st1" d="M816.66,505.23v8.32c0,3.26-1.6,4.74-4.74,4.74c-1.73,0-3.42-0.52-4.41-1.46l0.65-0.97
		c0.9,0.81,2.27,1.3,3.73,1.3c2.4,0,3.49-1.1,3.49-3.44v-1.21c-0.79,1.21-2.14,1.84-3.69,1.84c-2.7,0-4.75-1.89-4.75-4.61
		s2.05-4.57,4.75-4.57c1.58,0,2.95,0.65,3.75,1.89v-1.82H816.66z M815.42,509.74c0-2.05-1.51-3.46-3.6-3.46
		c-2.09,0-3.58,1.4-3.58,3.46s1.49,3.48,3.58,3.48C813.91,513.21,815.42,511.79,815.42,509.74z"/>
	<path class="st1" d="M833.78,513.55v1.15h-8.91v-12.6h8.64v1.15h-7.31v4.48h6.52v1.13h-6.52v4.68H833.78z"/>
	<path class="st1" d="M846.6,506.42c0,2.68-1.95,4.3-5.15,4.3h-3.39v3.98h-1.33v-12.6h4.72C844.65,502.1,846.6,503.72,846.6,506.42z
		 M845.26,506.42c0-2.02-1.33-3.17-3.85-3.17h-3.35v6.3h3.35C843.93,509.56,845.26,508.4,845.26,506.42z"/>
	<path class="st1" d="M848.36,508.4c0-3.69,2.81-6.41,6.61-6.41c1.84,0,3.49,0.61,4.61,1.84l-0.85,0.85
		c-1.03-1.04-2.29-1.49-3.73-1.49c-3.04,0-5.33,2.23-5.33,5.22c0,2.99,2.29,5.22,5.33,5.22c1.44,0,2.7-0.45,3.73-1.51l0.85,0.85
		c-1.12,1.22-2.77,1.85-4.63,1.85C851.16,514.81,848.36,512.09,848.36,508.4z"/>
	<path class="st1" d="M863.06,513.8c0,0.31-0.07,0.54-0.25,1.04l-0.76,2.49h-0.86l0.61-2.61c-0.38-0.11-0.65-0.45-0.65-0.92
		c0-0.56,0.41-0.97,0.95-0.97C862.67,512.83,863.06,513.26,863.06,513.8z"/>
	<path class="st1" d="M460.79,533.34v13.36h-1.22v-1.87c-0.77,1.28-2.09,1.96-3.66,1.96c-2.7,0-4.72-1.96-4.72-4.83
		s2.02-4.81,4.72-4.81c1.51,0,2.81,0.65,3.6,1.87v-5.69H460.79z M459.53,541.97c0-2.21-1.51-3.69-3.51-3.69
		c-2.02,0-3.53,1.48-3.53,3.69s1.51,3.69,3.53,3.69C458.01,545.66,459.53,544.18,459.53,541.97z"/>
	<path class="st1" d="M463.88,534.25c0-0.49,0.41-0.9,0.94-0.9s0.94,0.4,0.94,0.88c0,0.52-0.4,0.94-0.94,0.94
		C464.29,535.16,463.88,534.75,463.88,534.25z M464.17,537.23h1.28v9.47h-1.28V537.23z"/>
	<path class="st1" d="M467.52,545.62l0.58-1.01c0.76,0.59,2.04,1.06,3.37,1.06c1.8,0,2.54-0.61,2.54-1.55
		c0-2.47-6.14-0.52-6.14-4.27c0-1.55,1.33-2.7,3.75-2.7c1.22,0,2.56,0.34,3.35,0.88l-0.56,1.03c-0.83-0.58-1.82-0.81-2.79-0.81
		c-1.71,0-2.47,0.67-2.47,1.57c0,2.56,6.14,0.63,6.14,4.27c0,1.64-1.44,2.7-3.91,2.7C469.8,546.79,468.29,546.29,467.52,545.62z"/>
	<path class="st1" d="M482.44,546.13c-0.5,0.45-1.26,0.67-2,0.67c-1.78,0-2.77-1.01-2.77-2.75v-5.73h-1.69v-1.08h1.69v-2.07h1.28
		v2.07h2.88v1.08h-2.88v5.65c0,1.12,0.58,1.73,1.64,1.73c0.52,0,1.04-0.16,1.41-0.49L482.44,546.13z"/>
	<path class="st1" d="M489.35,537.16v1.24c-0.11,0-0.22-0.02-0.31-0.02c-1.98,0-3.19,1.26-3.19,3.49v4.83h-1.28v-9.47h1.22v1.85
		C486.4,537.83,487.6,537.16,489.35,537.16z"/>
	<path class="st1" d="M491.33,534.25c0-0.49,0.41-0.9,0.94-0.9s0.94,0.4,0.94,0.88c0,0.52-0.4,0.94-0.94,0.94
		C491.74,535.16,491.33,534.75,491.33,534.25z M491.62,537.23h1.28v9.47h-1.28V537.23z"/>
	<path class="st1" d="M505.88,541.97c0,2.86-2.02,4.83-4.72,4.83c-1.57,0-2.88-0.68-3.66-1.96v1.87h-1.22v-13.36h1.28v5.69
		c0.79-1.22,2.09-1.87,3.6-1.87C503.86,537.16,505.88,539.11,505.88,541.97z M504.6,541.97c0-2.21-1.53-3.69-3.53-3.69
		c-2.02,0-3.53,1.48-3.53,3.69s1.51,3.69,3.53,3.69C503.07,545.66,504.6,544.18,504.6,541.97z"/>
	<path class="st1" d="M516.84,537.23v9.47h-1.22v-1.73c-0.67,1.15-1.89,1.82-3.4,1.82c-2.41,0-4-1.35-4-4.07v-5.49h1.28v5.37
		c0,2.02,1.04,3.04,2.84,3.04c1.98,0,3.22-1.28,3.22-3.44v-4.97H516.84z"/>
	<path class="st1" d="M525.22,546.13c-0.5,0.45-1.26,0.67-2,0.67c-1.78,0-2.77-1.01-2.77-2.75v-5.73h-1.69v-1.08h1.69v-2.07h1.28
		v2.07h2.88v1.08h-2.88v5.65c0,1.12,0.58,1.73,1.64,1.73c0.52,0,1.04-0.16,1.41-0.49L525.22,546.13z"/>
	<path class="st1" d="M527.08,534.25c0-0.49,0.41-0.9,0.94-0.9s0.94,0.4,0.94,0.88c0,0.52-0.4,0.94-0.94,0.94
		C527.49,535.16,527.08,534.75,527.08,534.25z M527.36,537.23h1.28v9.47h-1.28V537.23z"/>
	<path class="st1" d="M531.07,541.97c0-2.81,2.05-4.81,4.83-4.81c2.77,0,4.81,2,4.81,4.81s-2.03,4.83-4.81,4.83
		C533.12,546.79,531.07,544.78,531.07,541.97z M539.41,541.97c0-2.21-1.5-3.69-3.51-3.69s-3.53,1.48-3.53,3.69s1.51,3.69,3.53,3.69
		S539.41,544.18,539.41,541.97z"/>
	<path class="st1" d="M551.85,541.21v5.49h-1.28v-5.37c0-2-1.04-3.03-2.84-3.03c-2.04,0-3.31,1.26-3.31,3.42v4.97h-1.28v-9.47h1.22
		v1.75c0.68-1.15,1.96-1.82,3.6-1.82C550.26,537.16,551.85,538.5,551.85,541.21z"/>
	<path class="st1" d="M564.66,546.13c-0.5,0.45-1.26,0.67-2,0.67c-1.78,0-2.77-1.01-2.77-2.75v-5.73h-1.69v-1.08h1.69v-2.07h1.28
		v2.07h2.88v1.08h-2.88v5.65c0,1.12,0.58,1.73,1.64,1.73c0.52,0,1.04-0.16,1.41-0.49L564.66,546.13z"/>
	<path class="st1" d="M571.57,537.16v1.24c-0.11,0-0.22-0.02-0.31-0.02c-1.98,0-3.19,1.26-3.19,3.49v4.83h-1.28v-9.47h1.22v1.85
		C568.62,537.83,569.83,537.16,571.57,537.16z"/>
	<path class="st1" d="M580.99,540.83v5.87h-1.22v-1.48c-0.58,0.97-1.69,1.57-3.26,1.57c-2.14,0-3.46-1.12-3.46-2.75
		c0-1.46,0.94-2.68,3.66-2.68h3.01v-0.58c0-1.62-0.92-2.5-2.68-2.5c-1.22,0-2.38,0.43-3.15,1.12l-0.58-0.95
		c0.95-0.81,2.36-1.28,3.85-1.28C579.6,537.16,580.99,538.39,580.99,540.83z M579.71,543.86v-1.55h-2.97
		c-1.84,0-2.43,0.72-2.43,1.69c0,1.1,0.88,1.78,2.39,1.78C578.14,545.79,579.21,545.1,579.71,543.86z"/>
	<path class="st1" d="M592.99,541.21v5.49h-1.28v-5.37c0-2-1.04-3.03-2.84-3.03c-2.04,0-3.31,1.26-3.31,3.42v4.97h-1.28v-9.47h1.22
		v1.75c0.68-1.15,1.96-1.82,3.6-1.82C591.41,537.16,592.99,538.5,592.99,541.21z"/>
	<path class="st1" d="M594.97,545.62l0.58-1.01c0.76,0.59,2.04,1.06,3.37,1.06c1.8,0,2.54-0.61,2.54-1.55
		c0-2.47-6.14-0.52-6.14-4.27c0-1.55,1.33-2.7,3.75-2.7c1.22,0,2.56,0.34,3.35,0.88l-0.56,1.03c-0.83-0.58-1.82-0.81-2.79-0.81
		c-1.71,0-2.47,0.67-2.47,1.57c0,2.56,6.14,0.63,6.14,4.27c0,1.64-1.44,2.7-3.91,2.7C597.26,546.79,595.74,546.29,594.97,545.62z"/>
	<path class="st1" d="M606.37,536.12v1.12h2.92v1.08h-2.88v8.39h-1.28v-8.39h-1.69v-1.08h1.69v-1.17c0-1.69,1.01-2.81,2.86-2.81
		c0.7,0,1.42,0.2,1.89,0.59l-0.43,0.95c-0.36-0.31-0.86-0.47-1.41-0.47C606.94,534.33,606.37,534.95,606.37,536.12z"/>
	<path class="st1" d="M609.87,541.97c0-2.81,2.05-4.81,4.83-4.81c2.77,0,4.81,2,4.81,4.81s-2.03,4.83-4.81,4.83
		C611.93,546.79,609.87,544.78,609.87,541.97z M618.21,541.97c0-2.21-1.5-3.69-3.51-3.69s-3.53,1.48-3.53,3.69s1.51,3.69,3.53,3.69
		S618.21,544.18,618.21,541.97z"/>
	<path class="st1" d="M626.71,537.16v1.24c-0.11,0-0.22-0.02-0.31-0.02c-1.98,0-3.19,1.26-3.19,3.49v4.83h-1.28v-9.47h1.22v1.85
		C623.75,537.83,624.96,537.16,626.71,537.16z"/>
	<path class="st1" d="M644.6,541.21v5.49h-1.28v-5.37c0-2-1.01-3.03-2.72-3.03c-1.94,0-3.17,1.26-3.17,3.42v4.97h-1.28v-5.37
		c0-2-1.01-3.03-2.74-3.03c-1.93,0-3.17,1.26-3.17,3.42v4.97h-1.28v-9.47h1.22v1.73c0.67-1.13,1.89-1.8,3.47-1.8
		c1.57,0,2.79,0.67,3.37,2c0.68-1.22,2.04-2,3.75-2C643.09,537.16,644.6,538.5,644.6,541.21z"/>
	<path class="st1" d="M656.14,542.37h-7.92c0.14,1.98,1.66,3.29,3.73,3.29c1.15,0,2.18-0.41,2.9-1.24l0.72,0.83
		c-0.85,1.01-2.16,1.55-3.66,1.55c-2.95,0-4.97-2.02-4.97-4.83s1.96-4.81,4.63-4.81c2.66,0,4.59,1.96,4.59,4.81
		C656.15,542.08,656.14,542.22,656.14,542.37z M648.21,541.41h6.72c-0.16-1.85-1.51-3.15-3.37-3.15
		C649.73,538.26,648.38,539.56,648.21,541.41z"/>
	<path class="st1" d="M663.35,537.16v1.24c-0.11,0-0.22-0.02-0.31-0.02c-1.98,0-3.19,1.26-3.19,3.49v4.83h-1.28v-9.47h1.22v1.85
		C660.4,537.83,661.61,537.16,663.35,537.16z"/>
	<path class="st1" d="M666.72,545.8c0,0.31-0.07,0.54-0.25,1.04l-0.76,2.49h-0.87l0.61-2.61c-0.38-0.11-0.65-0.45-0.65-0.92
		c0-0.56,0.41-0.97,0.95-0.97C666.32,544.83,666.72,545.26,666.72,545.8z"/>
	<path class="st1" d="M683.39,541.97c0,2.86-2.02,4.83-4.72,4.83c-1.57,0-2.88-0.68-3.66-1.96v1.87h-1.22v-13.36h1.28v5.69
		c0.79-1.22,2.09-1.87,3.6-1.87C681.37,537.16,683.39,539.11,683.39,541.97z M682.11,541.97c0-2.21-1.53-3.69-3.53-3.69
		c-2.02,0-3.53,1.48-3.53,3.69s1.51,3.69,3.53,3.69C680.58,545.66,682.11,544.18,682.11,541.97z"/>
	<path class="st1" d="M694.35,537.23v9.47h-1.22v-1.73c-0.67,1.15-1.89,1.82-3.4,1.82c-2.41,0-4-1.35-4-4.07v-5.49H687v5.37
		c0,2.02,1.04,3.04,2.84,3.04c1.98,0,3.22-1.28,3.22-3.44v-4.97H694.35z"/>
	<path class="st1" d="M696.44,545.62l0.58-1.01c0.76,0.59,2.04,1.06,3.37,1.06c1.8,0,2.54-0.61,2.54-1.55
		c0-2.47-6.14-0.52-6.14-4.27c0-1.55,1.33-2.7,3.75-2.7c1.22,0,2.56,0.34,3.35,0.88l-0.56,1.03c-0.83-0.58-1.82-0.81-2.79-0.81
		c-1.71,0-2.47,0.67-2.47,1.57c0,2.56,6.14,0.63,6.14,4.27c0,1.64-1.44,2.7-3.91,2.7C698.72,546.79,697.21,546.29,696.44,545.62z"/>
	<path class="st1" d="M720.5,541.97c0,2.86-2.02,4.83-4.72,4.83c-1.57,0-2.88-0.68-3.66-1.96v1.87h-1.22v-13.36h1.28v5.69
		c0.79-1.22,2.09-1.87,3.6-1.87C718.49,537.16,720.5,539.11,720.5,541.97z M719.23,541.97c0-2.21-1.53-3.69-3.53-3.69
		c-2.02,0-3.53,1.48-3.53,3.69s1.51,3.69,3.53,3.69C717.69,545.66,719.23,544.18,719.23,541.97z"/>
	<path class="st1" d="M730.08,540.83v5.87h-1.22v-1.48c-0.58,0.97-1.69,1.57-3.26,1.57c-2.14,0-3.46-1.12-3.46-2.75
		c0-1.46,0.94-2.68,3.66-2.68h3.01v-0.58c0-1.62-0.92-2.5-2.68-2.5c-1.22,0-2.38,0.43-3.15,1.12l-0.58-0.95
		c0.95-0.81,2.36-1.28,3.85-1.28C728.69,537.16,730.08,538.39,730.08,540.83z M728.8,543.86v-1.55h-2.97
		c-1.84,0-2.43,0.72-2.43,1.69c0,1.1,0.88,1.78,2.39,1.78C727.23,545.79,728.3,545.1,728.8,543.86z"/>
	<path class="st1" d="M738.14,537.16v1.24c-0.11,0-0.22-0.02-0.31-0.02c-1.98,0-3.19,1.26-3.19,3.49v4.83h-1.28v-9.47h1.22v1.85
		C735.19,537.83,736.4,537.16,738.14,537.16z"/>
	<path class="st1" d="M741.51,545.8c0,0.31-0.07,0.54-0.25,1.04l-0.76,2.49h-0.87l0.61-2.61c-0.38-0.11-0.65-0.45-0.65-0.92
		c0-0.56,0.41-0.97,0.95-0.97C741.11,544.83,741.51,545.26,741.51,545.8z"/>
	<path class="st1" d="M755.73,540.83v5.87h-1.22v-1.48c-0.58,0.97-1.69,1.57-3.26,1.57c-2.14,0-3.46-1.12-3.46-2.75
		c0-1.46,0.94-2.68,3.66-2.68h3.01v-0.58c0-1.62-0.92-2.5-2.68-2.5c-1.22,0-2.38,0.43-3.15,1.12l-0.58-0.95
		c0.95-0.81,2.36-1.28,3.85-1.28C754.34,537.16,755.73,538.39,755.73,540.83z M754.45,543.86v-1.55h-2.97
		c-1.84,0-2.43,0.72-2.43,1.69c0,1.1,0.88,1.78,2.39,1.78C752.88,545.79,753.95,545.1,754.45,543.86z"/>
	<path class="st1" d="M767.73,541.21v5.49h-1.28v-5.37c0-2-1.04-3.03-2.84-3.03c-2.04,0-3.31,1.26-3.31,3.42v4.97h-1.28v-9.47h1.22
		v1.75c0.68-1.15,1.96-1.82,3.6-1.82C766.15,537.16,767.73,538.5,767.73,541.21z"/>
	<path class="st1" d="M779.67,533.34v13.36h-1.22v-1.87c-0.77,1.28-2.09,1.96-3.66,1.96c-2.7,0-4.72-1.96-4.72-4.83
		s2.02-4.81,4.72-4.81c1.51,0,2.81,0.65,3.6,1.87v-5.69H779.67z M778.41,541.97c0-2.21-1.51-3.69-3.51-3.69
		c-2.02,0-3.53,1.48-3.53,3.69s1.51,3.69,3.53,3.69C776.9,545.66,778.41,544.18,778.41,541.97z"/>
	<path class="st1" d="M795.83,542.37h-7.92c0.14,1.98,1.66,3.29,3.73,3.29c1.15,0,2.18-0.41,2.9-1.24l0.72,0.83
		c-0.85,1.01-2.16,1.55-3.66,1.55c-2.95,0-4.97-2.02-4.97-4.83s1.96-4.81,4.63-4.81c2.66,0,4.59,1.96,4.59,4.81
		C795.85,542.08,795.83,542.22,795.83,542.37z M787.91,541.41h6.72c-0.16-1.85-1.51-3.15-3.37-3.15
		C789.42,538.26,788.07,539.56,787.91,541.41z"/>
	<path class="st1" d="M806.99,541.21v5.49h-1.28v-5.37c0-2-1.04-3.03-2.84-3.03c-2.04,0-3.31,1.26-3.31,3.42v4.97h-1.28v-9.47h1.22
		v1.75c0.68-1.15,1.96-1.82,3.6-1.82C805.41,537.16,806.99,538.5,806.99,541.21z"/>
	<path class="st1" d="M817.43,540.83v5.87h-1.22v-1.48c-0.58,0.97-1.69,1.57-3.26,1.57c-2.14,0-3.46-1.12-3.46-2.75
		c0-1.46,0.94-2.68,3.66-2.68h3.01v-0.58c0-1.62-0.92-2.5-2.68-2.5c-1.22,0-2.38,0.43-3.15,1.12l-0.58-0.95
		c0.95-0.81,2.36-1.28,3.85-1.28C816.05,537.16,817.43,538.39,817.43,540.83z M816.15,543.86v-1.55h-2.97
		c-1.84,0-2.43,0.72-2.43,1.69c0,1.1,0.88,1.78,2.39,1.78C814.59,545.79,815.65,545.1,816.15,543.86z"/>
	<path class="st1" d="M836.35,541.21v5.49h-1.28v-5.37c0-2-1.01-3.03-2.72-3.03c-1.94,0-3.17,1.26-3.17,3.42v4.97h-1.28v-5.37
		c0-2-1.01-3.03-2.74-3.03c-1.93,0-3.17,1.26-3.17,3.42v4.97h-1.28v-9.47h1.22v1.73c0.67-1.13,1.89-1.8,3.48-1.8
		c1.57,0,2.79,0.67,3.37,2c0.68-1.22,2.04-2,3.75-2C834.84,537.16,836.35,538.5,836.35,541.21z"/>
	<path class="st1" d="M847.89,542.37h-7.92c0.14,1.98,1.66,3.29,3.73,3.29c1.15,0,2.18-0.41,2.9-1.24l0.72,0.83
		c-0.85,1.01-2.16,1.55-3.66,1.55c-2.95,0-4.97-2.02-4.97-4.83s1.96-4.81,4.63-4.81c2.66,0,4.59,1.96,4.59,4.81
		C847.91,542.08,847.89,542.22,847.89,542.37z M839.97,541.41h6.72c-0.16-1.85-1.51-3.15-3.37-3.15
		C841.48,538.26,840.13,539.56,839.97,541.41z"/>
	<path class="st1" d="M850.33,533.34h1.28v13.36h-1.28V533.34z"/>
	<path class="st1" d="M873.43,537.23l-3.58,9.47h-1.21l-2.99-7.76l-2.99,7.76h-1.21l-3.57-9.47h1.22l2.97,8.05l3.04-8.05h1.1
		l3.03,8.05l3.01-8.05H873.43z"/>
	<path class="st1" d="M874.88,534.25c0-0.49,0.41-0.9,0.94-0.9s0.94,0.4,0.94,0.88c0,0.52-0.4,0.94-0.94,0.94
		C875.3,535.16,874.88,534.75,874.88,534.25z M875.17,537.23h1.28v9.47h-1.28V537.23z"/>
	<path class="st1" d="M884.61,537.16v1.24c-0.11,0-0.22-0.02-0.31-0.02c-1.98,0-3.19,1.26-3.19,3.49v4.83h-1.28v-9.47h1.22v1.85
		C881.65,537.83,882.86,537.16,884.61,537.16z"/>
	<path class="st1" d="M895.12,542.37h-7.92c0.14,1.98,1.66,3.29,3.73,3.29c1.15,0,2.18-0.41,2.9-1.24l0.72,0.83
		c-0.85,1.01-2.16,1.55-3.66,1.55c-2.95,0-4.97-2.02-4.97-4.83s1.96-4.81,4.63-4.81c2.66,0,4.59,1.96,4.59,4.81
		C895.14,542.08,895.12,542.22,895.12,542.37z M887.2,541.41h6.72c-0.16-1.85-1.51-3.15-3.37-3.15
		C888.71,538.26,887.36,539.56,887.2,541.41z"/>
	<path class="st1" d="M210.57,571.86c0-4.63,3.76-8.39,8.39-8.39c4.63,0,8.39,3.76,8.39,8.39c0,4.66-3.8,8.39-8.39,8.39
		C214.33,580.25,210.57,576.49,210.57,571.86z M226.78,571.86c0-4.32-3.49-7.81-7.81-7.81c-4.36,0-7.81,3.55-7.81,7.81
		c0,4.32,3.49,7.81,7.81,7.81S226.78,576.18,226.78,571.86z M220.6,569.77c0-1.08-0.59-1.71-1.84-1.71c-0.88,0-1.62,0.5-2.2,1.06
		l-0.85-0.79c0.92-0.95,1.89-1.46,3.19-1.46c1.95,0,3.13,1.12,3.13,2.79c0,1.73-1.75,3.51-4.05,5.56c0.56-0.05,1.21-0.07,1.84-0.07
		h2.65v1.26h-6.63v-0.86C218.87,572.91,220.6,571.25,220.6,569.77z"/>
	<path class="st1" d="M242.6,577.55v1.15h-8.91v-12.6h8.64v1.15h-7.31v4.48h6.52v1.13h-6.52v4.68H242.6z"/>
	<path class="st1" d="M245.28,565.34h1.28v13.36h-1.28V565.34z"/>
	<path class="st1" d="M258.18,574.37h-7.92c0.14,1.98,1.66,3.29,3.73,3.29c1.15,0,2.18-0.41,2.9-1.24l0.72,0.83
		c-0.85,1.01-2.16,1.55-3.66,1.55c-2.95,0-4.97-2.02-4.97-4.83s1.96-4.81,4.63-4.81c2.66,0,4.59,1.96,4.59,4.81
		C258.2,574.08,258.18,574.22,258.18,574.37z M250.26,573.41h6.72c-0.16-1.85-1.51-3.15-3.37-3.15
		C251.77,570.26,250.42,571.56,250.26,573.41z"/>
	<path class="st1" d="M259.68,573.97c0-2.83,2.05-4.81,4.88-4.81c1.6,0,2.95,0.63,3.71,1.87l-0.95,0.65
		c-0.65-0.95-1.66-1.4-2.75-1.4c-2.07,0-3.58,1.48-3.58,3.69c0,2.23,1.51,3.69,3.58,3.69c1.1,0,2.11-0.43,2.75-1.39l0.95,0.65
		c-0.76,1.22-2.11,1.87-3.71,1.87C261.73,578.79,259.68,576.8,259.68,573.97z"/>
	<path class="st1" d="M275.57,578.13c-0.5,0.45-1.26,0.67-2,0.67c-1.78,0-2.77-1.01-2.77-2.75v-5.73h-1.69v-1.08h1.69v-2.07h1.28
		v2.07h2.88v1.08h-2.88v5.65c0,1.12,0.58,1.73,1.64,1.73c0.52,0,1.04-0.16,1.41-0.49L275.57,578.13z"/>
	<path class="st1" d="M282.48,569.16v1.24c-0.11,0-0.22-0.02-0.31-0.02c-1.98,0-3.19,1.26-3.19,3.49v4.83h-1.28v-9.47h1.22v1.85
		C279.53,569.83,280.74,569.16,282.48,569.16z"/>
	<path class="st1" d="M284.46,566.25c0-0.49,0.41-0.9,0.94-0.9s0.94,0.4,0.94,0.88c0,0.52-0.4,0.94-0.94,0.94
		C284.87,567.16,284.46,566.75,284.46,566.25z M284.75,569.23h1.28v9.47h-1.28V569.23z"/>
	<path class="st1" d="M288.46,573.97c0-2.83,2.05-4.81,4.88-4.81c1.6,0,2.95,0.63,3.71,1.87l-0.95,0.65
		c-0.65-0.95-1.66-1.4-2.75-1.4c-2.07,0-3.58,1.48-3.58,3.69c0,2.23,1.51,3.69,3.58,3.69c1.1,0,2.11-0.43,2.75-1.39l0.95,0.65
		c-0.76,1.22-2.11,1.87-3.71,1.87C290.51,578.79,288.46,576.8,288.46,573.97z"/>
	<path class="st1" d="M306.51,572.83v5.87h-1.22v-1.48c-0.58,0.97-1.69,1.57-3.26,1.57c-2.14,0-3.46-1.12-3.46-2.75
		c0-1.46,0.94-2.68,3.66-2.68h3.01v-0.58c0-1.62-0.92-2.5-2.68-2.5c-1.22,0-2.38,0.43-3.15,1.12l-0.58-0.95
		c0.95-0.81,2.36-1.28,3.85-1.28C305.13,569.16,306.51,570.39,306.51,572.83z M305.23,575.86v-1.55h-2.97
		c-1.84,0-2.43,0.72-2.43,1.69c0,1.1,0.88,1.78,2.39,1.78C303.67,577.79,304.73,577.1,305.23,575.86z"/>
	<path class="st1" d="M309.8,565.34h1.28v13.36h-1.28V565.34z"/>
	<path class="st1" d="M323.99,578.13c-0.5,0.45-1.26,0.67-2,0.67c-1.78,0-2.77-1.01-2.77-2.75v-5.73h-1.69v-1.08h1.69v-2.07h1.28
		v2.07h2.88v1.08h-2.88v5.65c0,1.12,0.58,1.73,1.64,1.73c0.52,0,1.04-0.16,1.41-0.49L323.99,578.13z"/>
	<path class="st1" d="M334.38,574.37h-7.92c0.14,1.98,1.66,3.29,3.73,3.29c1.15,0,2.18-0.41,2.9-1.24l0.72,0.83
		c-0.85,1.01-2.16,1.55-3.66,1.55c-2.95,0-4.97-2.02-4.97-4.83s1.96-4.81,4.63-4.81c2.66,0,4.59,1.96,4.59,4.81
		C334.4,574.08,334.38,574.22,334.38,574.37z M326.45,573.41h6.72c-0.16-1.85-1.51-3.15-3.37-3.15
		C327.97,570.26,326.62,571.56,326.45,573.41z"/>
	<path class="st1" d="M335.51,577.62l0.58-1.01c0.76,0.59,2.04,1.06,3.37,1.06c1.8,0,2.54-0.61,2.54-1.55
		c0-2.47-6.14-0.52-6.14-4.27c0-1.55,1.33-2.7,3.75-2.7c1.22,0,2.56,0.34,3.35,0.88l-0.56,1.03c-0.83-0.58-1.82-0.81-2.79-0.81
		c-1.71,0-2.47,0.67-2.47,1.57c0,2.56,6.14,0.63,6.14,4.27c0,1.64-1.44,2.7-3.91,2.7C337.79,578.79,336.28,578.29,335.51,577.62z"/>
	<path class="st1" d="M350.43,578.13c-0.5,0.45-1.26,0.67-2,0.67c-1.78,0-2.77-1.01-2.77-2.75v-5.73h-1.69v-1.08h1.69v-2.07h1.28
		v2.07h2.88v1.08h-2.88v5.65c0,1.12,0.58,1.73,1.64,1.73c0.52,0,1.04-0.16,1.41-0.49L350.43,578.13z"/>
	<path class="st1" d="M355.79,577.62l0.58-1.01c0.76,0.59,2.04,1.06,3.37,1.06c1.8,0,2.54-0.61,2.54-1.55
		c0-2.47-6.14-0.52-6.14-4.27c0-1.55,1.33-2.7,3.75-2.7c1.22,0,2.56,0.34,3.35,0.88l-0.56,1.03c-0.83-0.58-1.82-0.81-2.79-0.81
		c-1.71,0-2.47,0.67-2.47,1.57c0,2.56,6.14,0.63,6.14,4.27c0,1.64-1.44,2.7-3.91,2.7C358.08,578.79,356.57,578.29,355.79,577.62z"/>
	<path class="st1" d="M365.44,566.25c0-0.49,0.41-0.9,0.94-0.9s0.94,0.4,0.94,0.88c0,0.52-0.4,0.94-0.94,0.94
		C365.85,567.16,365.44,566.75,365.44,566.25z M365.73,569.23h1.28v9.47h-1.28V569.23z"/>
	<path class="st1" d="M375.38,578.13c-0.5,0.45-1.26,0.67-2,0.67c-1.78,0-2.77-1.01-2.77-2.75v-5.73h-1.69v-1.08h1.69v-2.07h1.28
		v2.07h2.88v1.08h-2.88v5.65c0,1.12,0.58,1.73,1.64,1.73c0.52,0,1.04-0.16,1.41-0.49L375.38,578.13z"/>
	<path class="st1" d="M385.77,574.37h-7.92c0.14,1.98,1.66,3.29,3.73,3.29c1.15,0,2.18-0.41,2.9-1.24l0.72,0.83
		c-0.85,1.01-2.16,1.55-3.66,1.55c-2.95,0-4.97-2.02-4.97-4.83s1.96-4.81,4.63-4.81c2.66,0,4.59,1.96,4.59,4.81
		C385.78,574.08,385.77,574.22,385.77,574.37z M377.84,573.41h6.72c-0.16-1.85-1.51-3.15-3.37-3.15
		C379.36,570.26,378.01,571.56,377.84,573.41z"/>
	<path class="st1" d="M391.92,570.13c0-0.56,0.43-0.97,0.95-0.97c0.52,0,0.97,0.41,0.97,0.97c0,0.56-0.45,0.99-0.97,0.99
		C392.35,571.12,391.92,570.69,391.92,570.13z M391.92,577.8c0-0.56,0.43-0.97,0.95-0.97c0.52,0,0.97,0.41,0.97,0.97
		c0,0.56-0.45,0.99-0.97,0.99C392.35,578.79,391.92,578.36,391.92,577.8z"/>
	<path class="st1" d="M402.52,567.25v4.95h6.52v1.15h-6.52v5.35h-1.33v-12.6h8.64v1.15H402.52z"/>
	<path class="st1" d="M411.84,566.25c0-0.49,0.41-0.9,0.94-0.9s0.94,0.4,0.94,0.88c0,0.52-0.4,0.94-0.94,0.94
		C412.26,567.16,411.84,566.75,411.84,566.25z M412.13,569.23h1.28v9.47h-1.28V569.23z"/>
	<path class="st1" d="M425.51,573.21v5.49h-1.28v-5.37c0-2-1.04-3.03-2.84-3.03c-2.04,0-3.31,1.26-3.31,3.42v4.97h-1.28v-9.47h1.22
		v1.75c0.68-1.15,1.96-1.82,3.6-1.82C423.93,569.16,425.51,570.5,425.51,573.21z"/>
	<path class="st1" d="M435.95,572.83v5.87h-1.22v-1.48c-0.58,0.97-1.69,1.57-3.26,1.57c-2.14,0-3.46-1.12-3.46-2.75
		c0-1.46,0.94-2.68,3.66-2.68h3.01v-0.58c0-1.62-0.92-2.5-2.68-2.5c-1.22,0-2.38,0.43-3.15,1.12l-0.58-0.95
		c0.95-0.81,2.36-1.28,3.85-1.28C434.56,569.16,435.95,570.39,435.95,572.83z M434.67,575.86v-1.55h-2.97
		c-1.84,0-2.43,0.72-2.43,1.69c0,1.1,0.88,1.78,2.39,1.78C433.1,577.79,434.17,577.1,434.67,575.86z"/>
	<path class="st1" d="M439.24,565.34h1.28v13.36h-1.28V565.34z"/>
	<path class="st1" d="M457.08,569.23v12.96h-1.28v-5.28c-0.79,1.22-2.09,1.87-3.6,1.87c-2.7,0-4.72-1.94-4.72-4.83
		c0-2.86,2.02-4.81,4.72-4.81c1.57,0,2.88,0.68,3.66,1.94v-1.87H457.08z M455.82,573.97c0-2.2-1.51-3.69-3.51-3.69
		c-2.02,0-3.53,1.5-3.53,3.69c0,2.21,1.51,3.69,3.53,3.69C454.31,577.66,455.82,576.18,455.82,573.97z"/>
	<path class="st1" d="M469,569.23v9.47h-1.22v-1.73c-0.67,1.15-1.89,1.82-3.4,1.82c-2.41,0-4-1.35-4-4.07v-5.49h1.28v5.37
		c0,2.02,1.04,3.04,2.84,3.04c1.98,0,3.22-1.28,3.22-3.44v-4.97H469z"/>
	<path class="st1" d="M479.54,572.83v5.87h-1.22v-1.48c-0.58,0.97-1.69,1.57-3.26,1.57c-2.14,0-3.46-1.12-3.46-2.75
		c0-1.46,0.94-2.68,3.66-2.68h3.01v-0.58c0-1.62-0.92-2.5-2.68-2.5c-1.22,0-2.38,0.43-3.15,1.12l-0.58-0.95
		c0.95-0.81,2.36-1.28,3.85-1.28C478.16,569.16,479.54,570.39,479.54,572.83z M478.27,575.86v-1.55h-2.97
		c-1.84,0-2.43,0.72-2.43,1.69c0,1.1,0.88,1.78,2.39,1.78C476.7,577.79,477.76,577.1,478.27,575.86z"/>
	<path class="st1" d="M482.84,565.34h1.28v13.36h-1.28V565.34z"/>
	<path class="st1" d="M487.21,566.25c0-0.49,0.41-0.9,0.94-0.9s0.94,0.4,0.94,0.88c0,0.52-0.4,0.94-0.94,0.94
		C487.62,567.16,487.21,566.75,487.21,566.25z M487.5,569.23h1.28v9.47h-1.28V569.23z"/>
	<path class="st1" d="M497.15,578.13c-0.5,0.45-1.26,0.67-2,0.67c-1.78,0-2.77-1.01-2.77-2.75v-5.73h-1.69v-1.08h1.69v-2.07h1.28
		v2.07h2.88v1.08h-2.88v5.65c0,1.12,0.58,1.73,1.64,1.73c0.52,0,1.04-0.16,1.41-0.49L497.15,578.13z"/>
	<path class="st1" d="M507.25,569.23l-4.74,10.61c-0.79,1.85-1.8,2.45-3.15,2.45c-0.88,0-1.73-0.29-2.3-0.86l0.59-0.95
		c0.47,0.47,1.04,0.72,1.73,0.72c0.85,0,1.42-0.4,1.96-1.58l0.41-0.92l-4.23-9.45h1.33l3.56,8.05l3.57-8.05H507.25z"/>
	<path class="st1" d="M513.11,566.25c0-0.49,0.41-0.9,0.94-0.9s0.94,0.4,0.94,0.88c0,0.52-0.4,0.94-0.94,0.94
		C513.52,567.16,513.11,566.75,513.11,566.25z M513.4,569.23h1.28v9.47h-1.28V569.23z"/>
	<path class="st1" d="M526.78,573.21v5.49h-1.28v-5.37c0-2-1.04-3.03-2.84-3.03c-2.04,0-3.31,1.26-3.31,3.42v4.97h-1.28v-9.47h1.22
		v1.75c0.68-1.15,1.96-1.82,3.6-1.82C525.19,569.16,526.78,570.5,526.78,573.21z"/>
	<path class="st1" d="M528.75,577.62l0.58-1.01c0.76,0.59,2.04,1.06,3.37,1.06c1.8,0,2.54-0.61,2.54-1.55
		c0-2.47-6.14-0.52-6.14-4.27c0-1.55,1.33-2.7,3.75-2.7c1.22,0,2.56,0.34,3.35,0.88l-0.56,1.03c-0.83-0.58-1.82-0.81-2.79-0.81
		c-1.71,0-2.47,0.67-2.47,1.57c0,2.56,6.14,0.63,6.14,4.27c0,1.64-1.44,2.7-3.91,2.7C531.04,578.79,529.53,578.29,528.75,577.62z"/>
	<path class="st1" d="M548.29,573.97c0,2.88-2.02,4.83-4.72,4.83c-1.51,0-2.81-0.65-3.6-1.87v5.28h-1.28v-12.96h1.22v1.87
		c0.77-1.26,2.09-1.94,3.66-1.94C546.27,569.16,548.29,571.11,548.29,573.97z M547.01,573.97c0-2.2-1.53-3.69-3.53-3.69
		c-2.02,0-3.53,1.5-3.53,3.69c0,2.21,1.51,3.69,3.53,3.69C545.48,577.66,547.01,576.18,547.01,573.97z"/>
	<path class="st1" d="M558.96,574.37h-7.92c0.14,1.98,1.66,3.29,3.73,3.29c1.15,0,2.18-0.41,2.9-1.24l0.72,0.83
		c-0.85,1.01-2.16,1.55-3.66,1.55c-2.95,0-4.97-2.02-4.97-4.83s1.96-4.81,4.63-4.81c2.66,0,4.59,1.96,4.59,4.81
		C558.98,574.08,558.96,574.22,558.96,574.37z M551.04,573.41h6.72c-0.16-1.85-1.51-3.15-3.37-3.15
		C552.55,570.26,551.2,571.56,551.04,573.41z"/>
	<path class="st1" d="M560.45,573.97c0-2.83,2.05-4.81,4.88-4.81c1.6,0,2.95,0.63,3.71,1.87l-0.95,0.65
		c-0.65-0.95-1.66-1.4-2.75-1.4c-2.07,0-3.58,1.48-3.58,3.69c0,2.23,1.51,3.69,3.58,3.69c1.1,0,2.11-0.43,2.75-1.39l0.95,0.65
		c-0.76,1.22-2.11,1.87-3.71,1.87C562.5,578.79,560.45,576.8,560.45,573.97z"/>
	<path class="st1" d="M576.35,578.13c-0.5,0.45-1.26,0.67-2,0.67c-1.78,0-2.77-1.01-2.77-2.75v-5.73h-1.69v-1.08h1.69v-2.07h1.28
		v2.07h2.88v1.08h-2.88v5.65c0,1.12,0.58,1.73,1.64,1.73c0.52,0,1.04-0.16,1.41-0.49L576.35,578.13z"/>
	<path class="st1" d="M578.2,566.25c0-0.49,0.41-0.9,0.94-0.9s0.94,0.4,0.94,0.88c0,0.52-0.4,0.94-0.94,0.94
		C578.61,567.16,578.2,566.75,578.2,566.25z M578.49,569.23h1.28v9.47h-1.28V569.23z"/>
	<path class="st1" d="M582.19,573.97c0-2.81,2.05-4.81,4.83-4.81c2.77,0,4.81,2,4.81,4.81s-2.03,4.83-4.81,4.83
		C584.25,578.79,582.19,576.78,582.19,573.97z M590.53,573.97c0-2.21-1.5-3.69-3.51-3.69s-3.53,1.48-3.53,3.69s1.51,3.69,3.53,3.69
		S590.53,576.18,590.53,573.97z"/>
	<path class="st1" d="M602.97,573.21v5.49h-1.28v-5.37c0-2-1.04-3.03-2.84-3.03c-2.04,0-3.31,1.26-3.31,3.42v4.97h-1.28v-9.47h1.22
		v1.75c0.68-1.15,1.96-1.82,3.6-1.82C601.39,569.16,602.97,570.5,602.97,573.21z"/>
	<path class="st1" d="M620.39,573.97c0,2.86-2.02,4.83-4.72,4.83c-1.57,0-2.88-0.68-3.66-1.96v1.87h-1.22v-13.36h1.28v5.69
		c0.79-1.22,2.09-1.87,3.6-1.87C618.38,569.16,620.39,571.11,620.39,573.97z M619.11,573.97c0-2.21-1.53-3.69-3.53-3.69
		c-2.02,0-3.53,1.48-3.53,3.69s1.51,3.69,3.53,3.69C617.58,577.66,619.11,576.18,619.11,573.97z"/>
	<path class="st1" d="M630.78,569.23l-4.74,10.61c-0.79,1.85-1.8,2.45-3.15,2.45c-0.88,0-1.73-0.29-2.3-0.86l0.59-0.95
		c0.47,0.47,1.04,0.72,1.73,0.72c0.85,0,1.42-0.4,1.96-1.58l0.41-0.92l-4.23-9.45h1.33l3.56,8.05l3.57-8.05H630.78z"/>
	<path class="st1" d="M638.39,568.12v1.12h2.92v1.08h-2.88v8.39h-1.28v-8.39h-1.69v-1.08h1.69v-1.17c0-1.69,1.01-2.81,2.86-2.81
		c0.7,0,1.42,0.2,1.89,0.59l-0.43,0.95c-0.36-0.31-0.86-0.47-1.41-0.47C638.97,566.33,638.39,566.95,638.39,568.12z"/>
	<path class="st1" d="M651.39,569.23v9.47h-1.22v-1.73c-0.67,1.15-1.89,1.82-3.4,1.82c-2.41,0-4-1.35-4-4.07v-5.49h1.28v5.37
		c0,2.02,1.04,3.04,2.84,3.04c1.98,0,3.22-1.28,3.22-3.44v-4.97H651.39z"/>
	<path class="st1" d="M654.79,565.34h1.28v13.36h-1.28V565.34z"/>
	<path class="st1" d="M659.45,565.34h1.28v13.36h-1.28V565.34z"/>
	<path class="st1" d="M668.36,566.25c0-0.49,0.41-0.9,0.94-0.9s0.94,0.4,0.94,0.88c0,0.52-0.4,0.94-0.94,0.94
		C668.77,567.16,668.36,566.75,668.36,566.25z M668.65,569.23h1.28v9.47h-1.28V569.23z"/>
	<path class="st1" d="M682.02,573.21v5.49h-1.28v-5.37c0-2-1.04-3.03-2.84-3.03c-2.04,0-3.31,1.26-3.31,3.42v4.97h-1.28v-9.47h1.22
		v1.75c0.68-1.15,1.96-1.82,3.6-1.82C680.44,569.16,682.02,570.5,682.02,573.21z"/>
	<path class="st1" d="M684,577.62l0.58-1.01c0.76,0.59,2.04,1.06,3.37,1.06c1.8,0,2.54-0.61,2.54-1.55c0-2.47-6.14-0.52-6.14-4.27
		c0-1.55,1.33-2.7,3.75-2.7c1.22,0,2.56,0.34,3.35,0.88l-0.56,1.03c-0.83-0.58-1.82-0.81-2.79-0.81c-1.71,0-2.47,0.67-2.47,1.57
		c0,2.56,6.14,0.63,6.14,4.27c0,1.64-1.44,2.7-3.91,2.7C686.29,578.79,684.77,578.29,684,577.62z"/>
	<path class="st1" d="M703.53,573.97c0,2.88-2.02,4.83-4.72,4.83c-1.51,0-2.81-0.65-3.6-1.87v5.28h-1.28v-12.96h1.22v1.87
		c0.77-1.26,2.09-1.94,3.66-1.94C701.52,569.16,703.53,571.11,703.53,573.97z M702.25,573.97c0-2.2-1.53-3.69-3.53-3.69
		c-2.02,0-3.53,1.5-3.53,3.69c0,2.21,1.51,3.69,3.53,3.69C700.72,577.66,702.25,576.18,702.25,573.97z"/>
	<path class="st1" d="M714.21,574.37h-7.92c0.14,1.98,1.66,3.29,3.73,3.29c1.15,0,2.18-0.41,2.9-1.24l0.72,0.83
		c-0.85,1.01-2.16,1.55-3.66,1.55c-2.95,0-4.97-2.02-4.97-4.83s1.96-4.81,4.63-4.81c2.66,0,4.59,1.96,4.59,4.81
		C714.23,574.08,714.21,574.22,714.21,574.37z M706.28,573.41H713c-0.16-1.85-1.51-3.15-3.37-3.15
		C707.8,570.26,706.45,571.56,706.28,573.41z"/>
	<path class="st1" d="M715.7,573.97c0-2.83,2.05-4.81,4.88-4.81c1.6,0,2.95,0.63,3.71,1.87l-0.95,0.65c-0.65-0.95-1.66-1.4-2.75-1.4
		c-2.07,0-3.58,1.48-3.58,3.69c0,2.23,1.51,3.69,3.58,3.69c1.1,0,2.11-0.43,2.75-1.39l0.95,0.65c-0.76,1.22-2.11,1.87-3.71,1.87
		C717.75,578.79,715.7,576.8,715.7,573.97z"/>
	<path class="st1" d="M731.59,578.13c-0.5,0.45-1.26,0.67-2,0.67c-1.78,0-2.77-1.01-2.77-2.75v-5.73h-1.69v-1.08h1.69v-2.07h1.28
		v2.07h2.88v1.08h-2.88v5.65c0,1.12,0.58,1.73,1.64,1.73c0.52,0,1.04-0.16,1.41-0.49L731.59,578.13z"/>
	<path class="st1" d="M733.45,566.25c0-0.49,0.41-0.9,0.94-0.9s0.94,0.4,0.94,0.88c0,0.52-0.4,0.94-0.94,0.94
		C733.86,567.16,733.45,566.75,733.45,566.25z M733.73,569.23h1.28v9.47h-1.28V569.23z"/>
	<path class="st1" d="M737.44,573.97c0-2.81,2.05-4.81,4.83-4.81c2.77,0,4.81,2,4.81,4.81s-2.03,4.83-4.81,4.83
		C739.49,578.79,737.44,576.78,737.44,573.97z M745.78,573.97c0-2.21-1.5-3.69-3.51-3.69s-3.53,1.48-3.53,3.69s1.51,3.69,3.53,3.69
		S745.78,576.18,745.78,573.97z"/>
	<path class="st1" d="M758.22,573.21v5.49h-1.28v-5.37c0-2-1.04-3.03-2.84-3.03c-2.04,0-3.31,1.26-3.31,3.42v4.97h-1.28v-9.47h1.22
		v1.75c0.68-1.15,1.96-1.82,3.6-1.82C756.63,569.16,758.22,570.5,758.22,573.21z"/>
	<path class="st1" d="M775.64,573.97c0,2.88-2.02,4.83-4.72,4.83c-1.51,0-2.81-0.65-3.6-1.87v5.28h-1.28v-12.96h1.22v1.87
		c0.77-1.26,2.09-1.94,3.66-1.94C773.62,569.16,775.64,571.11,775.64,573.97z M774.36,573.97c0-2.2-1.53-3.69-3.53-3.69
		c-2.02,0-3.53,1.5-3.53,3.69c0,2.21,1.51,3.69,3.53,3.69C772.83,577.66,774.36,576.18,774.36,573.97z"/>
	<path class="st1" d="M782.84,569.16v1.24c-0.11,0-0.22-0.02-0.31-0.02c-1.98,0-3.19,1.26-3.19,3.49v4.83h-1.28v-9.47h1.22v1.85
		C779.89,569.83,781.09,569.16,782.84,569.16z"/>
	<path class="st1" d="M784.82,566.25c0-0.49,0.41-0.9,0.94-0.9s0.94,0.4,0.94,0.88c0,0.52-0.4,0.94-0.94,0.94
		C785.23,567.16,784.82,566.75,784.82,566.25z M785.1,569.23h1.28v9.47h-1.28V569.23z"/>
	<path class="st1" d="M788.81,573.97c0-2.81,2.05-4.81,4.83-4.81c2.77,0,4.81,2,4.81,4.81s-2.03,4.83-4.81,4.83
		C790.87,578.79,788.81,576.78,788.81,573.97z M797.15,573.97c0-2.21-1.5-3.69-3.51-3.69s-3.53,1.48-3.53,3.69s1.51,3.69,3.53,3.69
		S797.15,576.18,797.15,573.97z"/>
	<path class="st1" d="M805.64,569.16v1.24c-0.11,0-0.22-0.02-0.31-0.02c-1.98,0-3.19,1.26-3.19,3.49v4.83h-1.28v-9.47h1.22v1.85
		C802.69,569.83,803.9,569.16,805.64,569.16z"/>
	<path class="st1" d="M817.44,578.13c-0.5,0.45-1.26,0.67-2,0.67c-1.78,0-2.77-1.01-2.77-2.75v-5.73h-1.69v-1.08h1.69v-2.07h1.28
		v2.07h2.88v1.08h-2.88v5.65c0,1.12,0.58,1.73,1.64,1.73c0.52,0,1.04-0.16,1.41-0.49L817.44,578.13z"/>
	<path class="st1" d="M818.62,573.97c0-2.81,2.05-4.81,4.83-4.81c2.77,0,4.81,2,4.81,4.81s-2.03,4.83-4.81,4.83
		C820.67,578.79,818.62,576.78,818.62,573.97z M826.96,573.97c0-2.21-1.5-3.69-3.51-3.69s-3.53,1.48-3.53,3.69s1.51,3.69,3.53,3.69
		S826.96,576.18,826.96,573.97z"/>
	<path class="st1" d="M833.9,577.62l0.58-1.01c0.76,0.59,2.04,1.06,3.37,1.06c1.8,0,2.54-0.61,2.54-1.55c0-2.47-6.14-0.52-6.14-4.27
		c0-1.55,1.33-2.7,3.75-2.7c1.22,0,2.56,0.34,3.35,0.88l-0.56,1.03c-0.83-0.58-1.82-0.81-2.79-0.81c-1.71,0-2.47,0.67-2.47,1.57
		c0,2.56,6.14,0.63,6.14,4.27c0,1.64-1.44,2.7-3.91,2.7C836.19,578.79,834.68,578.29,833.9,577.62z"/>
	<path class="st1" d="M852.37,569.23v9.47h-1.22v-1.73c-0.67,1.15-1.89,1.82-3.4,1.82c-2.41,0-4-1.35-4-4.07v-5.49h1.28v5.37
		c0,2.02,1.04,3.04,2.84,3.04c1.98,0,3.22-1.28,3.22-3.44v-4.97H852.37z"/>
	<path class="st1" d="M865.37,573.97c0,2.88-2.02,4.83-4.72,4.83c-1.51,0-2.81-0.65-3.6-1.87v5.28h-1.28v-12.96H857v1.87
		c0.77-1.26,2.09-1.94,3.66-1.94C863.35,569.16,865.37,571.11,865.37,573.97z M864.09,573.97c0-2.2-1.53-3.69-3.53-3.69
		c-2.02,0-3.53,1.5-3.53,3.69c0,2.21,1.51,3.69,3.53,3.69C862.56,577.66,864.09,576.18,864.09,573.97z"/>
	<path class="st1" d="M877.39,573.97c0,2.88-2.02,4.83-4.72,4.83c-1.51,0-2.81-0.65-3.6-1.87v5.28h-1.28v-12.96h1.22v1.87
		c0.77-1.26,2.09-1.94,3.66-1.94C875.38,569.16,877.39,571.11,877.39,573.97z M876.11,573.97c0-2.2-1.53-3.69-3.53-3.69
		c-2.02,0-3.53,1.5-3.53,3.69c0,2.21,1.51,3.69,3.53,3.69C874.58,577.66,876.11,576.18,876.11,573.97z"/>
	<path class="st1" d="M879.82,565.34h1.28v13.36h-1.28V565.34z"/>
	<path class="st1" d="M892.44,569.23l-4.74,10.61c-0.79,1.85-1.8,2.45-3.15,2.45c-0.88,0-1.73-0.29-2.3-0.86l0.59-0.95
		c0.47,0.47,1.04,0.72,1.73,0.72c0.85,0,1.42-0.4,1.96-1.58l0.41-0.92l-4.23-9.45h1.33l3.56,8.05l3.57-8.05H892.44z"/>
	<path class="st1" d="M210.57,603.86c0-4.63,3.76-8.39,8.39-8.39c4.63,0,8.39,3.76,8.39,8.39c0,4.66-3.8,8.39-8.39,8.39
		C214.33,612.25,210.57,608.49,210.57,603.86z M226.78,603.86c0-4.32-3.49-7.81-7.81-7.81c-4.36,0-7.81,3.55-7.81,7.81
		c0,4.32,3.49,7.81,7.81,7.81S226.78,608.18,226.78,603.86z M215.43,607.3l0.72-0.95c0.63,0.59,1.44,1.1,2.68,1.1
		c1.17,0,2-0.63,2-1.58c0-1.04-0.79-1.73-3.24-1.73v-1.1c2.14,0,2.9-0.67,2.9-1.6c0-0.86-0.63-1.39-1.71-1.39
		c-0.85,0-1.57,0.34-2.2,0.94l-0.77-0.92c0.79-0.72,1.78-1.19,3.01-1.19c1.85,0,3.17,0.88,3.17,2.47c0,1.08-0.76,1.75-1.84,2.16
		v0.05c1.22,0.31,2.2,1.08,2.2,2.38c0,1.66-1.55,2.7-3.47,2.7C217.27,608.63,216.14,608.04,215.43,607.3z"/>
	<path class="st1" d="M236.13,599.25h-4.43v-1.15h10.19v1.15h-4.43v11.45h-1.33V599.25z"/>
	<path class="st1" d="M248.34,601.16v1.24c-0.11,0-0.22-0.02-0.31-0.02c-1.98,0-3.19,1.26-3.19,3.49v4.83h-1.28v-9.47h1.22v1.85
		C245.38,601.83,246.59,601.16,248.34,601.16z"/>
	<path class="st1" d="M257.75,604.83v5.87h-1.22v-1.48c-0.58,0.97-1.69,1.57-3.26,1.57c-2.14,0-3.46-1.12-3.46-2.75
		c0-1.46,0.94-2.68,3.66-2.68h3.01v-0.58c0-1.62-0.92-2.5-2.68-2.5c-1.22,0-2.38,0.43-3.15,1.12l-0.58-0.95
		c0.95-0.81,2.36-1.28,3.85-1.28C256.36,601.16,257.75,602.39,257.75,604.83z M256.47,607.86v-1.55h-2.97
		c-1.84,0-2.43,0.72-2.43,1.69c0,1.1,0.88,1.78,2.39,1.78C254.91,609.79,255.97,609.1,256.47,607.86z"/>
	<path class="st1" d="M260.76,598.25c0-0.49,0.41-0.9,0.94-0.9s0.94,0.4,0.94,0.88c0,0.52-0.4,0.94-0.94,0.94
		C261.17,599.16,260.76,598.75,260.76,598.25z M261.04,601.23h1.28v9.47h-1.28V601.23z"/>
	<path class="st1" d="M274.42,605.21v5.49h-1.28v-5.37c0-2-1.04-3.03-2.84-3.03c-2.04,0-3.31,1.26-3.31,3.42v4.97h-1.28v-9.47h1.22
		v1.75c0.68-1.15,1.96-1.82,3.6-1.82C272.84,601.16,274.42,602.5,274.42,605.21z"/>
	<path class="st1" d="M277.42,598.25c0-0.49,0.41-0.9,0.94-0.9s0.94,0.4,0.94,0.88c0,0.52-0.4,0.94-0.94,0.94
		C277.84,599.16,277.42,598.75,277.42,598.25z M277.71,601.23h1.28v9.47h-1.28V601.23z"/>
	<path class="st1" d="M291.09,605.21v5.49h-1.28v-5.37c0-2-1.04-3.03-2.84-3.03c-2.04,0-3.31,1.26-3.31,3.42v4.97h-1.28v-9.47h1.22
		v1.75c0.68-1.15,1.96-1.82,3.6-1.82C289.5,601.16,291.09,602.5,291.09,605.21z"/>
	<path class="st1" d="M303.15,601.23v8.32c0,3.26-1.6,4.74-4.74,4.74c-1.73,0-3.42-0.52-4.41-1.46l0.65-0.97
		c0.9,0.81,2.27,1.3,3.73,1.3c2.4,0,3.49-1.1,3.49-3.44v-1.21c-0.79,1.21-2.14,1.84-3.69,1.84c-2.7,0-4.75-1.89-4.75-4.61
		s2.05-4.57,4.75-4.57c1.58,0,2.95,0.65,3.75,1.89v-1.82H303.15z M301.9,605.74c0-2.05-1.51-3.46-3.6-3.46
		c-2.09,0-3.58,1.4-3.58,3.46s1.49,3.48,3.58,3.48C300.39,609.21,301.9,607.79,301.9,605.74z"/>
	<path class="st1" d="M310.13,605.97c0-2.83,2.05-4.81,4.88-4.81c1.6,0,2.95,0.63,3.71,1.87l-0.95,0.65
		c-0.65-0.95-1.66-1.4-2.75-1.4c-2.07,0-3.58,1.48-3.58,3.69c0,2.23,1.51,3.69,3.58,3.69c1.1,0,2.11-0.43,2.75-1.39l0.95,0.65
		c-0.76,1.22-2.11,1.87-3.71,1.87C312.18,610.79,310.13,608.8,310.13,605.97z"/>
	<path class="st1" d="M329.28,606.37h-7.92c0.14,1.98,1.66,3.29,3.73,3.29c1.15,0,2.18-0.41,2.9-1.24l0.72,0.83
		c-0.85,1.01-2.16,1.55-3.66,1.55c-2.95,0-4.97-2.02-4.97-4.83s1.96-4.81,4.63-4.81c2.66,0,4.59,1.96,4.59,4.81
		C329.3,606.08,329.28,606.22,329.28,606.37z M321.36,605.41h6.72c-0.16-1.85-1.51-3.15-3.37-3.15
		C322.87,602.26,321.52,603.56,321.36,605.41z"/>
	<path class="st1" d="M340.44,605.21v5.49h-1.28v-5.37c0-2-1.04-3.03-2.84-3.03c-2.04,0-3.31,1.26-3.31,3.42v4.97h-1.28v-9.47h1.22
		v1.75c0.68-1.15,1.96-1.82,3.6-1.82C338.86,601.16,340.44,602.5,340.44,605.21z"/>
	<path class="st1" d="M348.72,610.13c-0.5,0.45-1.26,0.67-2,0.67c-1.78,0-2.77-1.01-2.77-2.75v-5.73h-1.69v-1.08h1.69v-2.07h1.28
		v2.07h2.88v1.08h-2.88v5.65c0,1.12,0.58,1.73,1.64,1.73c0.52,0,1.04-0.16,1.41-0.49L348.72,610.13z"/>
	<path class="st1" d="M359.11,606.37h-7.92c0.14,1.98,1.66,3.29,3.73,3.29c1.15,0,2.18-0.41,2.9-1.24l0.72,0.83
		c-0.85,1.01-2.16,1.55-3.66,1.55c-2.95,0-4.97-2.02-4.97-4.83s1.96-4.81,4.63-4.81c2.66,0,4.59,1.96,4.59,4.81
		C359.13,606.08,359.11,606.22,359.11,606.37z M351.19,605.41h6.72c-0.16-1.85-1.51-3.15-3.37-3.15
		C352.7,602.26,351.35,603.56,351.19,605.41z"/>
	<path class="st1" d="M366.32,601.16v1.24c-0.11,0-0.22-0.02-0.31-0.02c-1.98,0-3.19,1.26-3.19,3.49v4.83h-1.28v-9.47h1.22v1.85
		C363.37,601.83,364.58,601.16,366.32,601.16z"/>
	<path class="st1" d="M372.3,602.13c0-0.56,0.43-0.97,0.95-0.97c0.52,0,0.97,0.41,0.97,0.97c0,0.56-0.45,0.99-0.97,0.99
		C372.73,603.12,372.3,602.69,372.3,602.13z M372.3,609.8c0-0.56,0.43-0.97,0.95-0.97c0.52,0,0.97,0.41,0.97,0.97
		c0,0.56-0.45,0.99-0.97,0.99C372.73,610.79,372.3,610.36,372.3,609.8z"/>
	<path class="st1" d="M381.57,598.1h1.33v12.6h-1.33V598.1z"/>
	<path class="st1" d="M395.27,605.21v5.49h-1.28v-5.37c0-2-1.04-3.03-2.84-3.03c-2.04,0-3.31,1.26-3.31,3.42v4.97h-1.28v-9.47h1.22
		v1.75c0.68-1.15,1.96-1.82,3.6-1.82C393.69,601.16,395.27,602.5,395.27,605.21z"/>
	<path class="st1" d="M403.55,610.13c-0.5,0.45-1.26,0.67-2,0.67c-1.78,0-2.77-1.01-2.77-2.75v-5.73h-1.69v-1.08h1.69v-2.07h1.28
		v2.07h2.88v1.08h-2.88v5.65c0,1.12,0.58,1.73,1.64,1.73c0.52,0,1.04-0.16,1.41-0.49L403.55,610.13z"/>
	<path class="st1" d="M413.94,606.37h-7.92c0.14,1.98,1.66,3.29,3.73,3.29c1.15,0,2.18-0.41,2.9-1.24l0.72,0.83
		c-0.85,1.01-2.16,1.55-3.66,1.55c-2.95,0-4.97-2.02-4.97-4.83s1.96-4.81,4.63-4.81c2.66,0,4.59,1.96,4.59,4.81
		C413.95,606.08,413.94,606.22,413.94,606.37z M406.01,605.41h6.72c-0.16-1.85-1.51-3.15-3.37-3.15
		C407.52,602.26,406.17,603.56,406.01,605.41z"/>
	<path class="st1" d="M425.09,605.21v5.49h-1.28v-5.37c0-2-1.04-3.03-2.84-3.03c-2.04,0-3.31,1.26-3.31,3.42v4.97h-1.28v-9.47h1.22
		v1.75c0.68-1.15,1.96-1.82,3.6-1.82C423.51,601.16,425.09,602.5,425.09,605.21z"/>
	<path class="st1" d="M427.07,609.62l0.58-1.01c0.76,0.59,2.04,1.06,3.37,1.06c1.8,0,2.54-0.61,2.54-1.55
		c0-2.47-6.14-0.52-6.14-4.27c0-1.55,1.33-2.7,3.75-2.7c1.22,0,2.56,0.34,3.35,0.88l-0.56,1.03c-0.83-0.58-1.82-0.81-2.79-0.81
		c-1.71,0-2.47,0.67-2.47,1.57c0,2.56,6.14,0.63,6.14,4.27c0,1.64-1.44,2.7-3.91,2.7C429.36,610.79,427.85,610.29,427.07,609.62z"/>
	<path class="st1" d="M436.72,598.25c0-0.49,0.41-0.9,0.94-0.9s0.94,0.4,0.94,0.88c0,0.52-0.4,0.94-0.94,0.94
		C437.13,599.16,436.72,598.75,436.72,598.25z M437.01,601.23h1.28v9.47h-1.28V601.23z"/>
	<path class="st1" d="M449.63,601.23l-4.21,9.47h-1.31l-4.2-9.47h1.33l3.55,8.07l3.58-8.07H449.63z"/>
	<path class="st1" d="M459.49,606.37h-7.92c0.14,1.98,1.66,3.29,3.73,3.29c1.15,0,2.18-0.41,2.9-1.24l0.72,0.83
		c-0.85,1.01-2.16,1.55-3.66,1.55c-2.95,0-4.97-2.02-4.97-4.83s1.96-4.81,4.63-4.81c2.66,0,4.59,1.96,4.59,4.81
		C459.51,606.08,459.49,606.22,459.49,606.37z M451.57,605.41h6.72c-0.16-1.85-1.51-3.15-3.37-3.15
		C453.08,602.26,451.73,603.56,451.57,605.41z"/>
	<path class="st1" d="M471.46,610.13c-0.5,0.45-1.26,0.67-2,0.67c-1.78,0-2.77-1.01-2.77-2.75v-5.73H465v-1.08h1.69v-2.07h1.28v2.07
		h2.88v1.08h-2.88v5.65c0,1.12,0.58,1.73,1.64,1.73c0.52,0,1.04-0.16,1.41-0.49L471.46,610.13z"/>
	<path class="st1" d="M478.37,601.16v1.24c-0.11,0-0.22-0.02-0.31-0.02c-1.98,0-3.19,1.26-3.19,3.49v4.83h-1.28v-9.47h1.22v1.85
		C475.42,601.83,476.63,601.16,478.37,601.16z"/>
	<path class="st1" d="M487.79,604.83v5.87h-1.22v-1.48c-0.58,0.97-1.69,1.57-3.26,1.57c-2.14,0-3.46-1.12-3.46-2.75
		c0-1.46,0.94-2.68,3.66-2.68h3.01v-0.58c0-1.62-0.92-2.5-2.68-2.5c-1.22,0-2.38,0.43-3.15,1.12l-0.58-0.95
		c0.95-0.81,2.36-1.28,3.85-1.28C486.4,601.16,487.79,602.39,487.79,604.83z M486.51,607.86v-1.55h-2.97
		c-1.84,0-2.43,0.72-2.43,1.69c0,1.1,0.88,1.78,2.39,1.78C484.94,609.79,486,609.1,486.51,607.86z"/>
	<path class="st1" d="M490.79,598.25c0-0.49,0.41-0.9,0.94-0.9s0.94,0.4,0.94,0.88c0,0.52-0.4,0.94-0.94,0.94
		C491.2,599.16,490.79,598.75,490.79,598.25z M491.08,601.23h1.28v9.47h-1.28V601.23z"/>
	<path class="st1" d="M504.46,605.21v5.49h-1.28v-5.37c0-2-1.04-3.03-2.84-3.03c-2.04,0-3.31,1.26-3.31,3.42v4.97h-1.28v-9.47h1.22
		v1.75c0.68-1.15,1.96-1.82,3.6-1.82C502.87,601.16,504.46,602.5,504.46,605.21z"/>
	<path class="st1" d="M507.46,598.25c0-0.49,0.41-0.9,0.94-0.9s0.94,0.4,0.94,0.88c0,0.52-0.4,0.94-0.94,0.94
		C507.87,599.16,507.46,598.75,507.46,598.25z M507.75,601.23h1.28v9.47h-1.28V601.23z"/>
	<path class="st1" d="M521.12,605.21v5.49h-1.28v-5.37c0-2-1.04-3.03-2.84-3.03c-2.04,0-3.31,1.26-3.31,3.42v4.97h-1.28v-9.47h1.22
		v1.75c0.68-1.15,1.96-1.82,3.6-1.82C519.54,601.16,521.12,602.5,521.12,605.21z"/>
	<path class="st1" d="M533.18,601.23v8.32c0,3.26-1.6,4.74-4.74,4.74c-1.73,0-3.42-0.52-4.41-1.46l0.65-0.97
		c0.9,0.81,2.27,1.3,3.73,1.3c2.4,0,3.49-1.1,3.49-3.44v-1.21c-0.79,1.21-2.14,1.84-3.69,1.84c-2.7,0-4.75-1.89-4.75-4.61
		s2.05-4.57,4.75-4.57c1.58,0,2.95,0.65,3.75,1.89v-1.82H533.18z M531.94,605.74c0-2.05-1.51-3.46-3.6-3.46
		c-2.09,0-3.58,1.4-3.58,3.46s1.49,3.48,3.58,3.48C530.43,609.21,531.94,607.79,531.94,605.74z"/>
	<path class="st1" d="M546.1,610.13c-0.5,0.45-1.26,0.67-2,0.67c-1.78,0-2.77-1.01-2.77-2.75v-5.73h-1.69v-1.08h1.69v-2.07h1.28
		v2.07h2.88v1.08h-2.88v5.65c0,1.12,0.58,1.73,1.64,1.73c0.52,0,1.04-0.16,1.41-0.49L546.1,610.13z"/>
	<path class="st1" d="M547.29,605.97c0-2.81,2.05-4.81,4.83-4.81c2.77,0,4.81,2,4.81,4.81s-2.03,4.83-4.81,4.83
		C549.34,610.79,547.29,608.78,547.29,605.97z M555.63,605.97c0-2.21-1.5-3.69-3.51-3.69s-3.53,1.48-3.53,3.69s1.51,3.69,3.53,3.69
		S555.63,608.18,555.63,605.97z"/>
	<path class="st1" d="M572.13,606.37h-7.92c0.14,1.98,1.66,3.29,3.73,3.29c1.15,0,2.18-0.41,2.9-1.24l0.72,0.83
		c-0.85,1.01-2.16,1.55-3.66,1.55c-2.95,0-4.97-2.02-4.97-4.83s1.96-4.81,4.63-4.81c2.66,0,4.59,1.96,4.59,4.81
		C572.15,606.08,572.13,606.22,572.13,606.37z M564.21,605.41h6.72c-0.16-1.85-1.51-3.15-3.37-3.15
		C565.72,602.26,564.37,603.56,564.21,605.41z"/>
	<path class="st1" d="M583.29,605.21v5.49h-1.28v-5.37c0-2-1.04-3.03-2.84-3.03c-2.04,0-3.31,1.26-3.31,3.42v4.97h-1.28v-9.47h1.22
		v1.75c0.68-1.15,1.96-1.82,3.6-1.82C581.71,601.16,583.29,602.5,583.29,605.21z"/>
	<path class="st1" d="M595.3,605.21v5.49h-1.28v-5.37c0-2-1.04-3.03-2.84-3.03c-2.04,0-3.31,1.26-3.31,3.42v4.97h-1.28v-13.36h1.28
		v5.55c0.7-1.1,1.95-1.73,3.55-1.73C593.72,601.16,595.3,602.5,595.3,605.21z"/>
	<path class="st1" d="M605.74,604.83v5.87h-1.22v-1.48c-0.58,0.97-1.69,1.57-3.26,1.57c-2.14,0-3.46-1.12-3.46-2.75
		c0-1.46,0.94-2.68,3.66-2.68h3.01v-0.58c0-1.62-0.92-2.5-2.68-2.5c-1.22,0-2.38,0.43-3.15,1.12l-0.58-0.95
		c0.95-0.81,2.36-1.28,3.85-1.28C604.35,601.16,605.74,602.39,605.74,604.83z M604.46,607.86v-1.55h-2.97
		c-1.84,0-2.43,0.72-2.43,1.69c0,1.1,0.88,1.78,2.39,1.78C602.89,609.79,603.96,609.1,604.46,607.86z"/>
	<path class="st1" d="M617.75,605.21v5.49h-1.28v-5.37c0-2-1.04-3.03-2.84-3.03c-2.04,0-3.31,1.26-3.31,3.42v4.97h-1.28v-9.47h1.22
		v1.75c0.68-1.15,1.96-1.82,3.6-1.82C616.16,601.16,617.75,602.5,617.75,605.21z"/>
	<path class="st1" d="M620.08,605.97c0-2.83,2.05-4.81,4.88-4.81c1.6,0,2.95,0.63,3.71,1.87l-0.95,0.65
		c-0.65-0.95-1.66-1.4-2.75-1.4c-2.07,0-3.58,1.48-3.58,3.69c0,2.23,1.51,3.69,3.58,3.69c1.1,0,2.11-0.43,2.75-1.39l0.95,0.65
		c-0.76,1.22-2.11,1.87-3.71,1.87C622.14,610.79,620.08,608.8,620.08,605.97z"/>
	<path class="st1" d="M639.24,606.37h-7.92c0.14,1.98,1.66,3.29,3.73,3.29c1.15,0,2.18-0.41,2.9-1.24l0.72,0.83
		c-0.85,1.01-2.16,1.55-3.66,1.55c-2.95,0-4.97-2.02-4.97-4.83s1.96-4.81,4.63-4.81c2.66,0,4.59,1.96,4.59,4.81
		C639.25,606.08,639.24,606.22,639.24,606.37z M631.31,605.41h6.72c-0.16-1.85-1.51-3.15-3.37-3.15
		C632.83,602.26,631.48,603.56,631.31,605.41z"/>
	<path class="st1" d="M646.22,597.34h1.28v13.36h-1.28V597.34z"/>
	<path class="st1" d="M649.93,605.97c0-2.81,2.05-4.81,4.83-4.81c2.77,0,4.81,2,4.81,4.81s-2.03,4.83-4.81,4.83
		C651.98,610.79,649.93,608.78,649.93,605.97z M658.26,605.97c0-2.21-1.5-3.69-3.51-3.69s-3.53,1.48-3.53,3.69s1.51,3.69,3.53,3.69
		S658.26,608.18,658.26,605.97z"/>
	<path class="st1" d="M661.03,605.97c0-2.83,2.05-4.81,4.88-4.81c1.6,0,2.95,0.63,3.71,1.87l-0.95,0.65
		c-0.65-0.95-1.66-1.4-2.75-1.4c-2.07,0-3.58,1.48-3.58,3.69c0,2.23,1.51,3.69,3.58,3.69c1.1,0,2.11-0.43,2.75-1.39l0.95,0.65
		c-0.76,1.22-2.11,1.87-3.71,1.87C663.08,610.79,661.03,608.8,661.03,605.97z"/>
	<path class="st1" d="M679.09,604.83v5.87h-1.22v-1.48c-0.58,0.97-1.69,1.57-3.26,1.57c-2.14,0-3.46-1.12-3.46-2.75
		c0-1.46,0.94-2.68,3.66-2.68h3.01v-0.58c0-1.62-0.92-2.5-2.68-2.5c-1.22,0-2.38,0.43-3.15,1.12l-0.58-0.95
		c0.95-0.81,2.36-1.28,3.85-1.28C677.7,601.16,679.09,602.39,679.09,604.83z M677.81,607.86v-1.55h-2.97
		c-1.84,0-2.43,0.72-2.43,1.69c0,1.1,0.88,1.78,2.39,1.78C676.24,609.79,677.31,609.1,677.81,607.86z"/>
	<path class="st1" d="M682.38,597.34h1.28v13.36h-1.28V597.34z"/>
	<path class="st1" d="M699.82,606.37h-7.92c0.14,1.98,1.66,3.29,3.73,3.29c1.15,0,2.18-0.41,2.9-1.24l0.72,0.83
		c-0.85,1.01-2.16,1.55-3.66,1.55c-2.95,0-4.97-2.02-4.97-4.83s1.96-4.81,4.63-4.81c2.66,0,4.59,1.96,4.59,4.81
		C699.84,606.08,699.82,606.22,699.82,606.37z M691.9,605.41h6.72c-0.16-1.85-1.51-3.15-3.37-3.15
		C693.41,602.26,692.06,603.56,691.9,605.41z"/>
	<path class="st1" d="M717.9,605.21v5.49h-1.28v-5.37c0-2-1.01-3.03-2.72-3.03c-1.94,0-3.17,1.26-3.17,3.42v4.97h-1.28v-5.37
		c0-2-1.01-3.03-2.74-3.03c-1.93,0-3.17,1.26-3.17,3.42v4.97h-1.28v-9.47h1.22v1.73c0.67-1.13,1.89-1.8,3.47-1.8
		c1.57,0,2.79,0.67,3.37,2c0.68-1.22,2.04-2,3.75-2C716.39,601.16,717.9,602.5,717.9,605.21z"/>
	<path class="st1" d="M730.78,605.97c0,2.88-2.02,4.83-4.72,4.83c-1.51,0-2.81-0.65-3.6-1.87v5.28h-1.28v-12.96h1.22v1.87
		c0.77-1.26,2.09-1.94,3.66-1.94C728.77,601.16,730.78,603.11,730.78,605.97z M729.51,605.97c0-2.2-1.53-3.69-3.53-3.69
		c-2.02,0-3.53,1.5-3.53,3.69c0,2.21,1.51,3.69,3.53,3.69C727.98,609.66,729.51,608.18,729.51,605.97z"/>
	<path class="st1" d="M733.21,597.34h1.28v13.36h-1.28V597.34z"/>
	<path class="st1" d="M736.92,605.97c0-2.81,2.05-4.81,4.83-4.81c2.77,0,4.81,2,4.81,4.81s-2.03,4.83-4.81,4.83
		C738.97,610.79,736.92,608.78,736.92,605.97z M745.26,605.97c0-2.21-1.5-3.69-3.51-3.69s-3.53,1.48-3.53,3.69s1.51,3.69,3.53,3.69
		S745.26,608.18,745.26,605.97z"/>
	<path class="st1" d="M756.94,601.23l-4.74,10.61c-0.79,1.85-1.8,2.45-3.15,2.45c-0.88,0-1.73-0.29-2.3-0.86l0.59-0.95
		c0.47,0.47,1.04,0.72,1.73,0.72c0.85,0,1.42-0.4,1.96-1.58l0.41-0.92l-4.23-9.45h1.33l3.56,8.05l3.57-8.05H756.94z"/>
	<path class="st1" d="M766.8,606.37h-7.92c0.14,1.98,1.66,3.29,3.73,3.29c1.15,0,2.18-0.41,2.9-1.24l0.72,0.83
		c-0.85,1.01-2.16,1.55-3.66,1.55c-2.95,0-4.97-2.02-4.97-4.83s1.96-4.81,4.63-4.81c2.66,0,4.59,1.96,4.59,4.81
		C766.82,606.08,766.8,606.22,766.8,606.37z M758.88,605.41h6.72c-0.16-1.85-1.51-3.15-3.37-3.15
		C760.39,602.26,759.04,603.56,758.88,605.41z"/>
	<path class="st1" d="M777.49,606.37h-7.92c0.14,1.98,1.66,3.29,3.73,3.29c1.15,0,2.18-0.41,2.9-1.24l0.72,0.83
		c-0.85,1.01-2.16,1.55-3.66,1.55c-2.95,0-4.97-2.02-4.97-4.83s1.96-4.81,4.63-4.81c2.66,0,4.59,1.96,4.59,4.81
		C777.51,606.08,777.49,606.22,777.49,606.37z M769.57,605.41h6.72c-0.16-1.85-1.51-3.15-3.37-3.15
		C771.08,602.26,769.73,603.56,769.57,605.41z"/>
	<path class="st1" d="M778.62,609.62l0.58-1.01c0.76,0.59,2.04,1.06,3.37,1.06c1.8,0,2.54-0.61,2.54-1.55
		c0-2.47-6.14-0.52-6.14-4.27c0-1.55,1.33-2.7,3.75-2.7c1.22,0,2.56,0.34,3.35,0.88l-0.56,1.03c-0.83-0.58-1.82-0.81-2.79-0.81
		c-1.71,0-2.47,0.67-2.47,1.57c0,2.56,6.14,0.63,6.14,4.27c0,1.64-1.44,2.7-3.91,2.7C780.91,610.79,779.4,610.29,778.62,609.62z"/>
	<path class="st1" d="M789.66,598.23c0,0.31-0.07,0.52-0.23,1.03l-0.77,2.48h-0.86l0.63-2.59c-0.4-0.13-0.67-0.45-0.67-0.92
		c0-0.58,0.41-0.97,0.95-0.97C789.26,597.25,789.66,597.69,789.66,598.23z"/>
	<path class="st1" d="M806.33,605.97c0,2.88-2.02,4.83-4.72,4.83c-1.51,0-2.81-0.65-3.6-1.87v5.28h-1.28v-12.96h1.22v1.87
		c0.77-1.26,2.09-1.94,3.66-1.94C804.31,601.16,806.33,603.11,806.33,605.97z M805.05,605.97c0-2.2-1.53-3.69-3.53-3.69
		c-2.02,0-3.53,1.5-3.53,3.69c0,2.21,1.51,3.69,3.53,3.69C803.52,609.66,805.05,608.18,805.05,605.97z"/>
	<path class="st1" d="M813.53,601.16v1.24c-0.11,0-0.22-0.02-0.31-0.02c-1.98,0-3.19,1.26-3.19,3.49v4.83h-1.28v-9.47h1.22v1.85
		C810.57,601.83,811.78,601.16,813.53,601.16z"/>
	<path class="st1" d="M814.84,605.97c0-2.81,2.05-4.81,4.83-4.81c2.77,0,4.81,2,4.81,4.81s-2.03,4.83-4.81,4.83
		C816.89,610.79,814.84,608.78,814.84,605.97z M823.18,605.97c0-2.21-1.5-3.69-3.51-3.69s-3.53,1.48-3.53,3.69s1.51,3.69,3.53,3.69
		S823.18,608.18,823.18,605.97z"/>
	<path class="st1" d="M835.54,597.34v13.36h-1.22v-1.87c-0.77,1.28-2.09,1.96-3.66,1.96c-2.7,0-4.72-1.96-4.72-4.83
		s2.02-4.81,4.72-4.81c1.51,0,2.81,0.65,3.6,1.87v-5.69H835.54z M834.28,605.97c0-2.21-1.51-3.69-3.51-3.69
		c-2.02,0-3.53,1.48-3.53,3.69s1.51,3.69,3.53,3.69C832.77,609.66,834.28,608.18,834.28,605.97z"/>
	<path class="st1" d="M847.46,601.23v9.47h-1.22v-1.73c-0.67,1.15-1.89,1.82-3.4,1.82c-2.41,0-4-1.35-4-4.07v-5.49h1.28v5.37
		c0,2.02,1.04,3.04,2.84,3.04c1.98,0,3.22-1.28,3.22-3.44v-4.97H847.46z"/>
	<path class="st1" d="M849.9,605.97c0-2.83,2.05-4.81,4.88-4.81c1.6,0,2.95,0.63,3.71,1.87l-0.95,0.65c-0.65-0.95-1.66-1.4-2.75-1.4
		c-2.07,0-3.58,1.48-3.58,3.69c0,2.23,1.51,3.69,3.58,3.69c1.1,0,2.11-0.43,2.75-1.39l0.95,0.65c-0.76,1.22-2.11,1.87-3.71,1.87
		C851.96,610.79,849.9,608.8,849.9,605.97z"/>
	<path class="st1" d="M865.8,610.13c-0.5,0.45-1.26,0.67-2,0.67c-1.78,0-2.77-1.01-2.77-2.75v-5.73h-1.69v-1.08h1.69v-2.07h1.28
		v2.07h2.88v1.08h-2.88v5.65c0,1.12,0.58,1.73,1.64,1.73c0.52,0,1.04-0.16,1.41-0.49L865.8,610.13z"/>
	<path class="st1" d="M867.65,598.25c0-0.49,0.41-0.9,0.94-0.9s0.94,0.4,0.94,0.88c0,0.52-0.4,0.94-0.94,0.94
		C868.06,599.16,867.65,598.75,867.65,598.25z M867.94,601.23h1.28v9.47h-1.28V601.23z"/>
	<path class="st1" d="M871.65,605.97c0-2.81,2.05-4.81,4.83-4.81c2.77,0,4.81,2,4.81,4.81s-2.03,4.83-4.81,4.83
		C873.7,610.79,871.65,608.78,871.65,605.97z M879.98,605.97c0-2.21-1.5-3.69-3.51-3.69s-3.53,1.48-3.53,3.69s1.51,3.69,3.53,3.69
		S879.98,608.18,879.98,605.97z"/>
	<path class="st1" d="M892.42,605.21v5.49h-1.28v-5.37c0-2-1.04-3.03-2.84-3.03c-2.04,0-3.31,1.26-3.31,3.42v4.97h-1.28v-9.47h1.22
		v1.75c0.68-1.15,1.96-1.82,3.6-1.82C890.84,601.16,892.42,602.5,892.42,605.21z"/>
	<path class="st1" d="M908.5,606.37h-7.92c0.14,1.98,1.66,3.29,3.73,3.29c1.15,0,2.18-0.41,2.9-1.24l0.72,0.83
		c-0.85,1.01-2.16,1.55-3.66,1.55c-2.95,0-4.97-2.02-4.97-4.83s1.96-4.81,4.63-4.81c2.66,0,4.59,1.96,4.59,4.81
		C908.51,606.08,908.5,606.22,908.5,606.37z M900.57,605.41h6.72c-0.16-1.85-1.51-3.15-3.37-3.15
		C902.09,602.26,900.73,603.56,900.57,605.41z"/>
	<path class="st1" d="M916.97,610.71l-3.01-3.96l-3.03,3.96h-1.44l3.75-4.86l-3.56-4.61h1.44l2.84,3.71l2.84-3.71h1.4l-3.57,4.61
		l3.78,4.86H916.97z"/>
	<path class="st1" d="M929.97,605.97c0,2.88-2.02,4.83-4.72,4.83c-1.51,0-2.81-0.65-3.6-1.87v5.28h-1.28v-12.96h1.22v1.87
		c0.77-1.26,2.09-1.94,3.66-1.94C927.95,601.16,929.97,603.11,929.97,605.97z M928.69,605.97c0-2.2-1.53-3.69-3.53-3.69
		c-2.02,0-3.53,1.5-3.53,3.69c0,2.21,1.51,3.69,3.53,3.69C927.16,609.66,928.69,608.18,928.69,605.97z"/>
	<path class="st1" d="M940.64,606.37h-7.92c0.14,1.98,1.66,3.29,3.73,3.29c1.15,0,2.18-0.41,2.9-1.24l0.72,0.83
		c-0.85,1.01-2.16,1.55-3.66,1.55c-2.95,0-4.97-2.02-4.97-4.83s1.96-4.81,4.63-4.81c2.66,0,4.59,1.96,4.59,4.81
		C940.66,606.08,940.64,606.22,940.64,606.37z M932.72,605.41h6.72c-0.16-1.85-1.51-3.15-3.37-3.15
		C934.23,602.26,932.88,603.56,932.72,605.41z"/>
	<path class="st1" d="M947.86,601.16v1.24c-0.11,0-0.22-0.02-0.31-0.02c-1.98,0-3.19,1.26-3.19,3.49v4.83h-1.28v-9.47h1.22v1.85
		C944.91,601.83,946.11,601.16,947.86,601.16z"/>
	<path class="st1" d="M955.11,610.13c-0.5,0.45-1.26,0.67-2,0.67c-1.78,0-2.77-1.01-2.77-2.75v-5.73h-1.69v-1.08h1.69v-2.07h1.28
		v2.07h2.88v1.08h-2.88v5.65c0,1.12,0.58,1.73,1.64,1.73c0.52,0,1.04-0.16,1.41-0.49L955.11,610.13z"/>
	<path class="st1" d="M956.97,598.25c0-0.49,0.41-0.9,0.94-0.9s0.94,0.4,0.94,0.88c0,0.52-0.4,0.94-0.94,0.94
		C957.38,599.16,956.97,598.75,956.97,598.25z M957.25,601.23h1.28v9.47h-1.28V601.23z"/>
	<path class="st1" d="M960.6,609.62l0.58-1.01c0.76,0.59,2.04,1.06,3.37,1.06c1.8,0,2.54-0.61,2.54-1.55c0-2.47-6.14-0.52-6.14-4.27
		c0-1.55,1.33-2.7,3.75-2.7c1.22,0,2.56,0.34,3.35,0.88l-0.56,1.03c-0.83-0.58-1.82-0.81-2.79-0.81c-1.71,0-2.47,0.67-2.47,1.57
		c0,2.56,6.14,0.63,6.14,4.27c0,1.64-1.44,2.7-3.91,2.7C962.89,610.79,961.38,610.29,960.6,609.62z"/>
	<path class="st1" d="M978.79,606.37h-7.92c0.14,1.98,1.66,3.29,3.73,3.29c1.15,0,2.18-0.41,2.9-1.24l0.72,0.83
		c-0.85,1.01-2.16,1.55-3.66,1.55c-2.95,0-4.97-2.02-4.97-4.83s1.96-4.81,4.63-4.81s4.59,1.96,4.59,4.81
		C978.8,606.08,978.79,606.22,978.79,606.37z M970.86,605.41h6.72c-0.16-1.85-1.51-3.15-3.37-3.15
		C972.38,602.26,971.02,603.56,970.86,605.41z"/>
</g>
<path class="st2" d="M369.92,293.2H301.3c-1.66,0-3,1.34-3,3v109.71c0,8.28,6.72,15,15,15h62.55h13.56c1.66,0,3-1.34,3-3V296.2
	c0-1.66-1.34-3-3-3H369.92z"/>
<path class="st2" d="M487.52,293.2h-71.98h-16.13c-1.66,0-3,1.34-3,3v121.71c0,1.66,1.34,3,3,3h29.19h46.69h3.69h8.54
	c1.66,0,3-1.34,3-3V296.2C490.52,294.55,489.18,293.2,487.52,293.2z"/>
<path class="st2" d="M574.75,236.59v42.72c0,1.66,1.34,3,3,3h24.06c1.66,0,3-1.34,3-3v-42.72c0-1.66-1.34-3-3-3h-24.06
	C576.09,233.59,574.75,234.93,574.75,236.59z"/>
<path class="st2" d="M621.06,296.2v121.71c0,1.66,1.34,3,3,3h103.78c8.28,0,15-6.72,15-15V296.2c0-1.66-1.34-3-3-3H624.06
	C622.4,293.2,621.06,294.55,621.06,296.2z"/>
<path class="st2" d="M715.31,259.5v19.81c0,1.66,1.34,3,3,3h21.75c1.66,0,3-1.34,3-3V259.5c0-1.66-1.34-3-3-3h-21.75
	C716.66,256.5,715.31,257.84,715.31,259.5z"/>
<path class="st2" d="M354.62,149.36h-23.38H312.7c-8.28,0-15,6.72-15,15v114.95c0,1.66,1.34,3,3,3h30.53h23.38h63.15
	c1.66,0,3-1.34,3-3V152.36c0-1.66-1.34-3-3-3H354.62z"/>
<path class="st2" d="M501.5,296.2v121.71c0,1.66,1.34,3,3,3h109.56c1.66,0,3-1.34,3-3V296.2c0-1.66-1.34-3-3-3H504.5
	C502.84,293.2,501.5,294.55,501.5,296.2z"/>
<path class="st2" d="M653.27,279.31V152.36c0-1.66-1.34-3-3-3H611.8c-1.66,0-3,1.34-3,3v126.95c0,1.66,1.34,3,3,3h38.46
	C651.92,282.31,653.27,280.96,653.27,279.31z"/>
<path class="st2" d="M463.41,253.02v26.29c0,1.66,1.34,3,3,3h29.3c1.66,0,3-1.34,3-3v-26.29c0-1.66-1.34-3-3-3h-29.3
	C464.75,250.02,463.41,251.36,463.41,253.02z"/>
<rect x="494.8" y="195.51" class="st2" width="3.9" height="8.83"/>
<path class="st2" d="M498.7,208.34h-4.9c-1.66,0-3-1.34-3-3v-3.42h-24.4c-1.66,0-3,1.34-3,3v38.09c0,1.66,1.34,3,3,3h29.3
	c1.66,0,3-1.34,3-3V208.34z"/>
<path class="st2" d="M490.8,197.93v-3.41c0-1.66,1.34-3,3-3h4.9v-39.16c0-1.66-1.34-3-3-3h-29.3c-1.66,0-3,1.34-3,3v42.57
	c0,1.66,1.34,3,3,3H490.8z"/>
<path class="st2" d="M459.41,279.31V152.36c0-1.66-1.34-3-3-3h-28.64c-1.66,0-3,1.34-3,3v126.95c0,1.66,1.34,3,3,3h28.64
	C458.07,282.31,459.41,280.96,459.41,279.31z"/>
<path class="st2" d="M604.8,226.59v-74.23c0-1.66-1.34-3-3-3h-24.06c-1.66,0-3,1.34-3,3v74.23c0,1.66,1.34,3,3,3h24.06
	C603.46,229.59,604.8,228.24,604.8,226.59z"/>
<path class="st2" d="M502.7,209.94v69.36c0,1.66,1.34,3,3,3h62.04c1.66,0,3-1.34,3-3V152.36c0-1.66-1.34-3-3-3H505.7
	c-1.66,0-3,1.34-3,3v39.16V209.94z"/>
<path class="st2" d="M711.31,279.31V255.5c0-1.66,1.34-3,3-3h25.75c1.66,0,3-1.34,3-3v-85.14c0-8.28-6.72-15-15-15h-67.8
	c-1.66,0-3,1.34-3,3v126.95c0,1.66,1.34,3,3,3h48.05C709.97,282.31,711.31,280.96,711.31,279.31z"/>
<path class="st3" d="M792.84,337.63h27.14c1.66,0,3-1.34,3-3V317.7c0-1.66-1.34-3-3-3h-27.14c-1.66,0-3,1.34-3,3v16.93
	C789.84,336.29,791.18,337.63,792.84,337.63z"/>
<path class="st3" d="M792.84,310.7h27.14c1.66,0,3-1.34,3-3v-14.08c0-1.66-1.34-3-3-3h-27.14c-1.66,0-3,1.34-3,3v14.08
	C789.84,309.36,791.18,310.7,792.84,310.7z"/>
<path class="st3" d="M792.84,364.57h27.14c1.66,0,3-1.34,3-3v-16.93c0-1.66-1.34-3-3-3h-27.14c-1.66,0-3,1.34-3,3v16.93
	C789.84,363.23,791.18,364.57,792.84,364.57z"/>
<path class="st3" d="M792.84,393.41h27.14c1.66,0,3-1.34,3-3v-18.84c0-1.66-1.34-3-3-3h-27.14c-1.66,0-3,1.34-3,3v18.84
	C789.84,392.06,791.18,393.41,792.84,393.41z"/>
<path class="st3" d="M792.84,286.62h27.14c1.66,0,3-1.34,3-3v-19.08c0-1.66-1.34-3-3-3h-27.14c-1.66,0-3,1.34-3,3v19.08
	C789.84,285.27,791.18,286.62,792.84,286.62z"/>
<rect x="601.58" y="420.91" class="st0" width="4" height="0"/>
<rect x="420.77" y="149.36" class="st0" width="4" height="132.95"/>
<polygon class="st0" points="463.41,282.31 463.41,250.02 461.41,250.02 461.41,246.02 463.41,246.02 463.41,201.93 461.41,201.93 
	461.41,197.93 463.41,197.93 463.41,149.36 459.41,149.36 459.41,282.31 "/>
<rect x="498.7" y="149.36" class="st0" width="4" height="42.16"/>
<polygon class="st0" points="498.7,209.94 498.7,246.02 500.7,246.02 500.7,250.02 498.7,250.02 498.7,282.31 502.7,282.31 
	502.7,209.94 "/>
<polygon class="st0" points="574.75,282.31 574.75,233.59 572.75,233.59 572.75,229.59 574.75,229.59 574.75,149.36 570.75,149.36 
	570.75,282.31 "/>
<polygon class="st0" points="606.8,229.59 606.8,233.59 604.8,233.59 604.8,282.31 608.8,282.31 608.8,149.36 604.8,149.36 
	604.8,229.59 "/>
<rect x="653.27" y="149.36" class="st0" width="4" height="132.95"/>
<rect x="753.56" y="394.72" class="st0" width="0.11" height="8.69"/>
<rect x="753.56" y="134.06" class="st0" width="0.11" height="87.1"/>
<polygon class="st0" points="746.12,252.5 746.12,256.5 743.07,256.5 743.07,282.31 746.96,282.31 746.96,236.46 746.96,149.36 
	743.07,149.36 743.07,252.5 "/>
<rect x="753.56" y="393.41" class="st0" width="0.11" height="1.31"/>
<polygon class="st0" points="753.56,267.01 753.56,267.01 753.56,293.2 753.56,327.11 753.67,327.11 753.67,221.16 753.56,221.16 
	"/>
<rect x="753.56" y="343.44" class="st0" width="0.11" height="49.96"/>
<polygon class="st0" points="753.56,420.91 727.36,420.91 727.36,426.48 753.56,426.48 753.56,403.4 753.56,403.4 "/>
<rect x="601.58" y="293.2" class="st0" width="4" height="0"/>
<rect x="753.56" y="394.72" class="st0" width="0" height="8.69"/>
<rect x="753.56" y="393.41" class="st0" width="0" height="1.31"/>
<polygon class="st0" points="753.56,327.11 753.56,293.2 753.56,267.01 753.56,267.01 753.56,327.11 "/>
<rect x="753.56" y="343.44" class="st0" width="0" height="49.96"/>
<rect x="753.56" y="327.11" class="st0" width="0.11" height="16.33"/>
<rect x="753.56" y="327.11" class="st0" width="0" height="16.33"/>
<rect x="822.98" y="337.63" class="st0" width="0" height="4"/>
<line class="st0" x1="822.98" y1="314.7" x2="822.98" y2="314.7"/>
<line class="st0" x1="822.98" y1="310.7" x2="822.98" y2="310.7"/>
<path class="st0" d="M743.07,256.5v-4h-28.75c-1.66,0-3,1.34-3,3v26.81h4V256.5H743.07z"/>
<rect x="743.07" y="252.5" class="st0" width="3.06" height="4"/>
<rect x="574.75" y="229.59" class="st0" width="30.06" height="4"/>
<rect x="572.75" y="229.59" class="st0" width="2" height="4"/>
<rect x="604.8" y="229.59" class="st0" width="2" height="4"/>
<rect x="463.41" y="246.02" class="st0" width="35.3" height="4"/>
<rect x="461.41" y="246.02" class="st0" width="2" height="4"/>
<rect x="498.7" y="246.02" class="st0" width="2" height="4"/>
<rect x="461.41" y="197.93" class="st0" width="2" height="4"/>
<path class="st0" d="M498.7,191.51h-4.9c-1.66,0-3,1.34-3,3v3.41h-27.4v4h27.4l1.47,4.72c0,1.66,0.1,1.02,1.76,1.02l4.67,0.27v2h4
	v-18.43H498.7z M498.7,205.94h-3.9v-10.43h3.9V205.94z"/>
<g>
	<g>
		<path class="st0" d="M430.95,357.07c0-6.7,5.46-12.17,12.16-12.17c6.7,0,12.17,5.46,12.17,12.17c0,6.73-5.52,12.16-12.17,12.16
			C436.42,369.23,430.95,363.77,430.95,357.07z M454.33,357.07c0-6.19-5.03-11.21-11.21-11.21c-6.24,0-11.21,5.1-11.21,11.21
			c0,6.18,5.03,11.21,11.21,11.21C449.3,368.28,454.33,363.25,454.33,357.07z M437.71,362.07l1.52-2.06c0.9,0.8,2.01,1.44,3.56,1.44
			c1.31,0,2.24-0.62,2.24-1.65c0-1.16-0.8-1.86-4.07-1.86v-2.29c2.71,0,3.61-0.67,3.61-1.78c0-1-0.62-1.5-1.88-1.5
			c-1.01,0-1.96,0.41-2.89,1.24l-1.62-1.98c1.31-1.11,2.83-1.75,4.59-1.75c3.12,0,5.08,1.31,5.08,3.79c0,1.34-0.83,2.32-2.5,2.96
			v0.08c1.75,0.49,3.02,1.57,3.02,3.35c0,2.53-2.5,3.97-5.52,3.97C440.65,364.03,438.76,363.28,437.71,362.07z"/>
	</g>
</g>
<g>
	<g>
		<path class="st0" d="M332.4,357.07c0-6.7,5.46-12.17,12.16-12.17c6.7,0,12.17,5.46,12.17,12.17c0,6.73-5.52,12.16-12.17,12.16
			C337.86,369.23,332.4,363.77,332.4,357.07z M355.77,357.07c0-6.19-5.03-11.21-11.21-11.21c-6.24,0-11.21,5.1-11.21,11.21
			c0,6.18,5.03,11.21,11.21,11.21C350.75,368.28,355.77,363.25,355.77,357.07z M346.19,354.44c0-1.34-0.67-2.01-2.04-2.01
			c-1.13,0-2.04,0.67-2.78,1.37l-1.8-1.75c1.42-1.44,3.09-2.16,4.97-2.16c2.89,0,4.82,1.7,4.82,4.25c0,2.27-2.37,4.84-4.82,6.96
			c0.75-0.08,1.78-0.13,2.58-0.13h2.76v2.76h-10.03v-1.91C343.63,358.64,346.19,356.35,346.19,354.44z"/>
	</g>
</g>
<path class="st3" d="M756.67,393.41h19.46c1.66,0,3-1.34,3-3v-24.63v-4.45v-20.5c0-1.66-1.34-3-3-3h-19.46c-1.66,0-3,1.34-3,3v49.58
	C753.67,392.06,755.01,393.41,756.67,393.41z"/>
<path class="st3" d="M776.13,327.11c1.65,0,2.99-1.35,2.99-3v-9.41v-4v-20.08v-4v-25.08v-37.38c0-1.66-1.34-3-3-3h-19.46
	c-1.66,0-3,1.34-3,3v99.95c0,1.66,1.34,3,3,3h19.03L776.13,327.11z"/>
<path class="st4" d="M292.33,160.31v113.03c0,8.28,6.72,15,15,15h173.11c8.28,0,15,6.72,15,15v107.03c0,8.28,6.72,15,15,15h222.53
	c8.28,0,15-6.72,15-15V288.35V160.31c0-8.28-6.72-15-15-15H307.33C299.05,145.31,292.33,152.03,292.33,160.31z"/>
<g>
	<path class="st0" d="M524.68,216.32c0-6.7,5.46-12.17,12.16-12.17c6.7,0,12.17,5.46,12.17,12.17c0,6.73-5.52,12.16-12.17,12.16
		C530.14,228.48,524.68,223.02,524.68,216.32z M548.05,216.32c0-6.19-5.03-11.21-11.21-11.21c-6.24,0-11.21,5.1-11.21,11.21
		c0,6.18,5.03,11.21,11.21,11.21C543.03,227.53,548.05,222.5,548.05,216.32z M532.98,210.7c1.55-0.31,2.63-0.67,3.63-1.26h2.47
		v13.53h-3.3v-10.21h-2.81V210.7z"/>
</g>
</svg>
