<?xml version="1.0" encoding="utf-8"?>
<!-- Generator: Adobe Illustrator 26.1.0, SVG Export Plug-In . SVG Version: 6.00 Build 0)  -->
<svg version="1.1" id="Layer_1" xmlns="http://www.w3.org/2000/svg" xmlns:xlink="http://www.w3.org/1999/xlink" x="0px" y="0px"
	 viewBox="0 0 1154 799.76" style="enable-background:new 0 0 1154 799.76;" xml:space="preserve">
<style type="text/css">
	.st0{fill:#ECEEEF;}
	.st1{fill:#303030;}
	.st2{fill:#AFAFAF;}
	.st3{fill:none;}
	.st4{fill:#ADADAD;}
	.st5{fill:#7D7D7D;}
	.st6{fill:none;stroke:#EBEDEE;stroke-width:4;stroke-miterlimit:10;}
	.st7{fill:#EAECED;}
</style>
<rect class="st0" width="1154" height="799.76"/>
<g>
	<path class="st1" d="M210.14,544.86c0-4.63,3.76-8.39,8.39-8.39c4.63,0,8.39,3.76,8.39,8.39c0,4.66-3.8,8.39-8.39,8.39
		C213.9,553.25,210.14,549.48,210.14,544.86z M226.34,544.86c0-4.32-3.49-7.81-7.81-7.81c-4.36,0-7.81,3.55-7.81,7.81
		c0,4.32,3.49,7.81,7.81,7.81S226.34,549.18,226.34,544.86z M216.26,540.82c0.95-0.16,1.62-0.4,2.25-0.74h1.13v9.33h-1.48v-7.63
		h-1.91V540.82z"/>
	<path class="st1" d="M237.05,542.64c-0.7,1.87-2.18,3.31-4.07,4.01l-0.77-1.15c2.39-0.86,4.07-3.01,4.07-5.29v-0.81h-3.6v-1.21
		h8.62v1.21h-3.55v0.79c0,2.09,1.58,4.14,3.93,4.95l-0.74,1.15C239.14,545.65,237.75,544.3,237.05,542.64z M235.12,552.67v-4.99h1.5
		v3.78h9.29v1.21H235.12z M245.46,536.9v11.83h-1.5v-6.18h-3.24v-1.21h3.24v-4.45H245.46z"/>
	<path class="st1" d="M250.37,546.08h-1.15v-4.79h5.47v-2.23h-5.53v-1.21h6.97v4.57h-5.47v2.45c2.99,0,4.56-0.09,6.41-0.38
		l0.14,1.19C255.23,546.03,253.59,546.08,250.37,546.08z M261.82,553.05h-1.48v-4.16h-9.33v-1.21h10.8V553.05z M260.34,546.82v-2.99
		h-3.15v-1.19h3.15v-2.16h-3.15v-1.21h3.15v-2.38h1.48v9.92H260.34z"/>
	<path class="st1" d="M275.26,552.2h-1.39v-7.74h-2.99c-0.92,2-2.45,3.78-5.04,5.22l-0.85-1.06c2.47-1.37,3.94-3.02,4.74-4.92
		l-4.54,0.45l-0.2-1.26l5.13-0.34c0.23-0.85,0.36-1.69,0.41-2.57h-4.75v-1.19h6.18c0,1.51-0.18,3.02-0.63,4.47h2.54v-5.96h1.39
		V552.2z M277.23,553.01v-16.15h1.41v16.15H277.23z"/>
	<path class="st1" d="M290.09,543.76c0,3.44-1.71,5.64-4.11,5.64c-2.39,0-4.1-2.2-4.1-5.64s1.71-5.64,4.1-5.64
		C288.38,538.12,290.09,540.32,290.09,543.76z M283.29,543.76c0,2.63,1.12,4.32,2.7,4.32c1.57,0,2.68-1.69,2.68-4.32
		c0-2.61-1.12-4.3-2.68-4.3C284.41,539.46,283.29,541.15,283.29,543.76z M293.03,553.07v-16.19h1.48v16.19H293.03z"/>
	<path class="st1" d="M297.65,545.04v-1.17h14.62v1.17H297.65z M310.89,552.85h-11.42v-3.8h9.47v-1.42h-9.52v-1.12h10.98v3.6h-9.49
		v1.6h9.97V552.85z M299.6,537.17h1.46v1.53h7.85v-1.53h1.46v5.33H299.6V537.17z M301.05,541.36h7.85v-1.55h-7.85V541.36z"/>
	<path class="st1" d="M319.29,551.7v-1.33h2.93v-9.51c0-0.16,0-0.32,0.02-0.45l-2.4,2.14l-0.88-1.06l3.55-3.06h1.31v11.94h2.59v1.33
		H319.29z"/>
	<path class="st1" d="M329.04,553.05h-1.19l0.65-3.64h1.64L329.04,553.05z"/>
	<path class="st1" d="M335.52,551.7v-1.15l4.56-4.38c1.39-1.48,2.39-2.61,2.39-4.16c-0.05-1.58-1.06-2.32-2.43-2.32
		c-1.51,0-2.63,1.08-2.63,2.59l-1.62-0.27c0.34-2.43,2.09-3.74,4.34-3.74s4,1.37,4,3.71c0,1.96-1.26,3.33-2.75,4.83l-3.69,3.66
		c0.5-0.14,1.04-0.22,1.49-0.22h5.2v1.46H335.52z"/>
	<path class="st1" d="M349.96,545.61v-1.21h5.96v-3.1h1.48v3.1h7.09v1.21H349.96z M362.8,550.06c0,1.82-2.2,2.95-5.64,2.95
		s-5.62-1.13-5.62-2.95c0-1.87,2.18-2.97,5.62-2.97S362.8,548.19,362.8,550.06z M351.67,537.71h11v1.37c0,1.3,0,2.61-0.45,4.27
		l-1.44-0.16c0.43-1.66,0.43-2.86,0.43-4.1v-0.18h-9.54V537.71z M361.32,550.06c0-1.15-1.62-1.84-4.16-1.84
		c-2.52,0-4.14,0.68-4.14,1.84c0,1.13,1.62,1.8,4.14,1.8C359.7,551.86,361.32,551.21,361.32,550.06z"/>
	<path class="st1" d="M371.06,542.37c-0.7,1.87-2.12,3.26-4.07,3.96l-0.76-1.17c2.45-0.86,4.05-2.9,4.05-5.26v-0.63h-3.62v-1.19
		h8.66v1.19h-3.56v0.63c0,2.11,1.51,4.02,3.91,4.79l-0.7,1.15C373.09,545.25,371.76,543.97,371.06,542.37z M379.02,550.02
		c0,1.89-2.05,2.99-5.31,2.99c-3.31,0-5.33-1.1-5.33-2.99c0-1.87,2.02-2.97,5.33-2.97C376.96,547.05,379.02,548.15,379.02,550.02z
		 M377.54,550.02c0-1.15-1.44-1.8-3.83-1.8c-2.47,0-3.85,0.65-3.85,1.8s1.39,1.82,3.85,1.82
		C376.1,551.84,377.54,551.18,377.54,550.02z M378.84,542.21v4.43h-1.48v-9.74h1.48v4.07h2.39v1.24H378.84z"/>
	<path class="st1" d="M388.54,543h-1.64v-1.69h1.64V543z M388.54,550.67h-1.64v-1.69h1.64V550.67z"/>
	<path class="st1" d="M401.23,548.98h-6.18v-10.57h1.4v3.94h3.39v-3.94h1.39V548.98z M396.45,547.79h3.39v-4.27h-3.39V547.79z
		 M406.79,553.03v-8.55h-2.18v7.76h-1.39v-15h1.39v6.03h2.18v-6.39h1.41v16.15H406.79z"/>
	<path class="st1" d="M415.75,542.64c-0.7,1.87-2.18,3.31-4.07,4.01l-0.77-1.15c2.39-0.86,4.07-3.01,4.07-5.29v-0.81h-3.6v-1.21H420
		v1.21h-3.55v0.79c0,2.09,1.58,4.14,3.93,4.95l-0.74,1.15C417.84,545.65,416.45,544.3,415.75,542.64z M413.82,552.67v-4.99h1.5v3.78
		h9.29v1.21H413.82z M424.16,536.9v11.83h-1.5v-6.18h-3.24v-1.21h3.24v-4.45H424.16z"/>
	<path class="st1" d="M427.22,546.06v-1.19h3.62v-2.27c-1.31-0.52-1.98-1.33-1.98-2.43c0-1.87,2.18-3.01,5.67-3.01
		c3.51,0,5.67,1.13,5.67,3.01c0,1.08-0.72,1.91-1.96,2.41v2.29h3.6v1.19H427.22z M440.05,550.15c0,1.85-2.05,2.86-5.53,2.86
		c-3.46,0-5.53-1.01-5.53-2.86s2.07-2.88,5.53-2.88C438,547.27,440.05,548.3,440.05,550.15z M434.53,542.03
		c2.61,0,4.16-0.7,4.16-1.85c0-1.17-1.55-1.85-4.16-1.85c-2.61,0-4.16,0.68-4.16,1.85C430.37,541.33,431.92,542.03,434.53,542.03z
		 M438.56,550.15c0-1.1-1.49-1.73-4.03-1.73c-2.54,0-4.03,0.63-4.03,1.73c0,1.1,1.5,1.73,4.03,1.73
		C437.06,551.88,438.56,551.25,438.56,550.15z M436.78,542.98c-0.63,0.13-1.39,0.18-2.25,0.18c-0.81,0-1.57-0.05-2.23-0.18v1.89
		h4.48V542.98z"/>
	<path class="st1" d="M444.21,553.05h-1.19l0.65-3.64h1.64L444.21,553.05z"/>
	<path class="st1" d="M455.42,542.46c-0.67,1.94-2.09,3.38-4.03,4.1l-0.77-1.17c2.47-0.86,4.03-3.04,4.03-5.55v-2h1.48v2.03
		c0,2.21,1.6,4.25,3.98,5.11l-0.74,1.17C457.55,545.5,456.14,544.19,455.42,542.46z M463.92,552.67h-10.71v-5.01h1.48v3.8h9.24
		V552.67z M463.22,543.06v5.74h-1.48v-11.94h1.48v4.97h2.39v1.22H463.22z"/>
	<path class="st1" d="M478.88,545.56v-3.62h-3.28c-0.29,1.93-1.89,3.17-4.12,3.17c-2.39,0-4.16-1.51-4.16-3.75
		c0-2.21,1.76-3.73,4.16-3.73c2.16,0,3.82,1.24,4.11,3.1h3.29v-3.84h1.49v8.66H478.88z M474.23,541.36c0-1.49-1.15-2.5-2.75-2.5
		s-2.75,1.01-2.75,2.5c0,1.48,1.15,2.52,2.75,2.52S474.23,542.84,474.23,541.36z M480.37,552.82h-10.33v-6.46h1.46v2.03h7.4v-2.03
		h1.48V552.82z M471.5,551.63h7.4v-2.09h-7.4V551.63z"/>
	<path class="st1" d="M483.43,546.06v-1.19h3.62v-2.27c-1.31-0.52-1.98-1.33-1.98-2.43c0-1.87,2.18-3.01,5.67-3.01
		c3.51,0,5.67,1.13,5.67,3.01c0,1.08-0.72,1.91-1.96,2.41v2.29h3.6v1.19H483.43z M496.27,550.15c0,1.85-2.05,2.86-5.53,2.86
		c-3.46,0-5.53-1.01-5.53-2.86s2.07-2.88,5.53-2.88C494.21,547.27,496.27,548.3,496.27,550.15z M490.74,542.03
		c2.61,0,4.16-0.7,4.16-1.85c0-1.17-1.55-1.85-4.16-1.85c-2.61,0-4.16,0.68-4.16,1.85C486.58,541.33,488.13,542.03,490.74,542.03z
		 M494.77,550.15c0-1.1-1.49-1.73-4.03-1.73c-2.54,0-4.03,0.63-4.03,1.73c0,1.1,1.5,1.73,4.03,1.73
		C493.28,551.88,494.77,551.25,494.77,550.15z M492.99,542.98c-0.63,0.13-1.39,0.18-2.25,0.18c-0.81,0-1.57-0.05-2.23-0.18v1.89
		h4.48V542.98z"/>
	<path class="st1" d="M500.42,553.05h-1.19l0.65-3.64h1.64L500.42,553.05z"/>
	<path class="st1" d="M507.82,549.97l-0.81-1.15c4.2-2.11,6.34-5.1,6.68-8.98h-5.92v-1.22h7.38
		C515.15,543.2,513.04,547.38,507.82,549.97z M519.33,553.03h-1.48v-16.15h1.48v6.55h2.59v1.22h-2.59V553.03z"/>
	<path class="st1" d="M528.18,542.26c-0.7,1.87-2.18,3.38-4.07,4.11l-0.77-1.17c2.39-0.86,4.07-3.08,4.07-5.38v-0.56h-3.6v-1.19
		h8.62v1.19h-3.55v0.56c0,2.07,1.58,4.12,3.93,4.93l-0.74,1.15C530.27,545.25,528.88,543.92,528.18,542.26z M536.62,550.02
		c0,1.93-2.05,3.01-5.37,3.01s-5.38-1.08-5.38-3.01c0-1.93,2.07-3.01,5.38-3.01S536.62,548.1,536.62,550.02z M535.17,550.02
		c0-1.17-1.44-1.87-3.91-1.87s-3.91,0.7-3.91,1.87c0,1.17,1.44,1.85,3.91,1.85S535.17,551.2,535.17,550.02z M536.59,536.9v9.61h-1.5
		v-4.23h-3.19v-1.21h3.19v-4.18H536.59z"/>
	<path class="st1" d="M539.64,546.06v-1.19h3.62v-2.27c-1.31-0.52-1.98-1.33-1.98-2.43c0-1.87,2.18-3.01,5.67-3.01
		c3.51,0,5.67,1.13,5.67,3.01c0,1.08-0.72,1.91-1.96,2.41v2.29h3.6v1.19H539.64z M552.48,550.15c0,1.85-2.05,2.86-5.53,2.86
		c-3.46,0-5.53-1.01-5.53-2.86s2.07-2.88,5.53-2.88C550.43,547.27,552.48,548.3,552.48,550.15z M546.95,542.03
		c2.61,0,4.16-0.7,4.16-1.85c0-1.17-1.55-1.85-4.16-1.85c-2.61,0-4.16,0.68-4.16,1.85C542.79,541.33,544.34,542.03,546.95,542.03z
		 M550.99,550.15c0-1.1-1.49-1.73-4.03-1.73c-2.54,0-4.03,0.63-4.03,1.73c0,1.1,1.5,1.73,4.03,1.73
		C549.49,551.88,550.99,551.25,550.99,550.15z M549.2,542.98c-0.63,0.13-1.39,0.18-2.25,0.18c-0.81,0-1.57-0.05-2.23-0.18v1.89h4.48
		V542.98z"/>
	<path class="st1" d="M564.79,542.64c-0.7,1.87-2.18,3.31-4.07,4.01l-0.77-1.15c2.4-0.86,4.07-3.01,4.07-5.29v-0.81h-3.6v-1.21h8.62
		v1.21h-3.55v0.79c0,2.09,1.58,4.14,3.93,4.95l-0.74,1.15C566.88,545.65,565.49,544.3,564.79,542.64z M562.86,552.67v-4.99h1.5v3.78
		h9.29v1.21H562.86z M573.2,536.9v11.83h-1.49v-6.18h-3.24v-1.21h3.24v-4.45H573.2z"/>
	<path class="st1" d="M581.08,542.44c-0.7,1.94-2.12,3.44-4.02,4.21l-0.77-1.17c2.41-0.86,4.03-3.19,4.03-5.64v-2h1.48v2.05
		c0,2.25,1.6,4.38,3.91,5.24l-0.77,1.13C583.13,545.58,581.78,544.19,581.08,542.44z M579.19,552.67v-5.04h1.48v3.83h9.29v1.21
		H579.19z M584.56,540.68h3.53v-3.78h1.5v12.06h-1.5v-7.06h-3.53V540.68z"/>
	<path class="st1" d="M596.5,545.79v-1.22h14.62v1.22H596.5z M609.33,550.1c0,1.87-2.09,2.92-5.53,2.92c-3.44,0-5.53-1.04-5.53-2.92
		c0-1.87,2.09-2.92,5.53-2.92C607.24,547.18,609.33,548.22,609.33,550.1z M598.34,537.53h10.96v1.19h-9.49v3.11h9.6v1.19h-11.07
		V537.53z M607.83,550.1c0-1.15-1.49-1.76-4.03-1.76c-2.54,0-4.03,0.61-4.03,1.76s1.5,1.76,4.03,1.76
		C606.34,551.86,607.83,551.25,607.83,550.1z"/>
	<path class="st1" d="M629.56,550.17c0,1.85-2.05,2.84-5.51,2.84s-5.55-0.99-5.55-2.84c0-1.67,1.71-2.67,4.79-2.81v-1.73h-6.55
		v-1.19h14.6v1.19h-6.55v1.73C627.87,547.5,629.56,548.49,629.56,550.17z M623.09,538.81h-5.01v-1.19h11.94v1.19H625
		c0.14,1.8,2.68,3.15,5.53,3.49l-0.52,1.17c-2.65-0.34-5.04-1.49-5.96-3.29c-0.88,1.8-3.31,2.95-5.96,3.29l-0.52-1.17
		C620.41,541.96,622.95,540.61,623.09,538.81z M624.03,548.48c-2.54,0-4.03,0.61-4.03,1.69s1.5,1.71,4.03,1.71
		c2.54,0,4.03-0.63,4.03-1.71S626.57,548.48,624.03,548.48z"/>
	<path class="st1" d="M642.93,548.35l-0.88,1.15c-1.78-0.92-3.37-2.85-4.09-5.08c-0.72,2.39-2.27,4.45-4.11,5.42l-0.86-1.17
		c2.3-1.15,4.23-4.2,4.23-7.06v-1.87h-3.66v-1.21h8.8v1.21h-3.67v1.87C638.7,544.26,640.59,547.25,642.93,548.35z M644.95,553.05
		v-9.09h-3.49v-1.21h3.49v-5.87h1.48v16.17H644.95z"/>
	<path class="st1" d="M654,545.16c-2.43,0-4.18-1.51-4.18-3.75c0-2.21,1.75-3.71,4.18-3.71c2.45,0,4.21,1.49,4.21,3.71
		C658.21,543.65,656.45,545.16,654,545.16z M654,543.94c1.62,0,2.77-1.04,2.77-2.52c0-1.53-1.13-2.48-2.77-2.48
		c-1.6,0-2.75,0.99-2.75,2.48C651.24,542.89,652.4,543.94,654,543.94z M662.03,552.82h-10.17v-6.41h1.46v2h7.26v-2h1.46V552.82z
		 M653.31,551.61h7.26v-2.05h-7.26V551.61z M662.03,545.63h-1.48v-8.73h1.48v3.67h2.39v1.22h-2.39V545.63z"/>
	<path class="st1" d="M680.08,552.2h-1.39v-7.74h-2.99c-0.92,2-2.45,3.78-5.04,5.22l-0.85-1.06c2.47-1.37,3.94-3.02,4.74-4.92
		l-4.54,0.45l-0.2-1.26l5.13-0.34c0.23-0.85,0.36-1.69,0.41-2.57h-4.75v-1.19h6.18c0,1.51-0.18,3.02-0.63,4.47h2.54v-5.96h1.39
		V552.2z M682.04,553.01v-16.15h1.41v16.15H682.04z"/>
	<path class="st1" d="M694.91,543.76c0,3.44-1.71,5.64-4.11,5.64c-2.39,0-4.1-2.2-4.1-5.64s1.71-5.64,4.1-5.64
		C693.2,538.12,694.91,540.32,694.91,543.76z M688.11,543.76c0,2.63,1.12,4.32,2.7,4.32c1.57,0,2.68-1.69,2.68-4.32
		c0-2.61-1.12-4.3-2.68-4.3C689.22,539.46,688.11,541.15,688.11,543.76z M697.85,553.07v-16.19h1.48v16.19H697.85z"/>
	<path class="st1" d="M702.47,545.04v-1.17h14.62v1.17H702.47z M715.71,552.85h-11.42v-3.8h9.47v-1.42h-9.52v-1.12h10.98v3.6h-9.49
		v1.6h9.97V552.85z M704.42,537.17h1.46v1.53h7.85v-1.53h1.46v5.33h-10.77V537.17z M705.87,541.36h7.85v-1.55h-7.85V541.36z"/>
	<path class="st1" d="M726.83,542.46c-0.58,1.51-1.71,2.88-3.29,3.58l-0.79-1.15c2.09-0.9,3.37-3.04,3.37-4.83v-2.18h1.42v2.18
		c0,1.76,1.21,3.62,3.28,4.39l-0.79,1.13C728.5,544.96,727.4,543.83,726.83,542.46z M736.42,550.11c0,1.82-2.09,2.9-5.4,2.9
		c-3.31,0-5.38-1.08-5.38-2.9c0-1.82,2.07-2.9,5.38-2.9C734.33,547.22,736.42,548.3,736.42,550.11z M734.96,550.11
		c0-1.15-1.48-1.75-3.94-1.75s-3.93,0.59-3.93,1.75s1.46,1.76,3.93,1.76S734.96,551.27,734.96,550.11z M731.47,537.21h1.4v4.01h2.05
		v-4.32h1.42v9.96h-1.42v-4.43h-2.05v3.91h-1.4V537.21z"/>
	<path class="st1" d="M743.84,542.46c-0.67,1.94-2.09,3.38-4.03,4.1l-0.77-1.17c2.47-0.86,4.03-3.04,4.03-5.55v-2h1.48v2.03
		c0,2.21,1.6,4.25,3.98,5.11l-0.74,1.17C745.96,545.5,744.56,544.19,743.84,542.46z M752.33,552.67h-10.71v-5.01h1.48v3.8h9.24
		V552.67z M751.63,543.06v5.74h-1.48v-11.94h1.48v4.97h2.39v1.22H751.63z"/>
	<path class="st1" d="M210.14,576.86c0-4.63,3.76-8.39,8.39-8.39c4.63,0,8.39,3.76,8.39,8.39c0,4.66-3.8,8.39-8.39,8.39
		C213.9,585.25,210.14,581.48,210.14,576.86z M226.34,576.86c0-4.32-3.49-7.81-7.81-7.81c-4.36,0-7.81,3.55-7.81,7.81
		c0,4.32,3.49,7.81,7.81,7.81S226.34,581.18,226.34,576.86z M220.17,574.77c0-1.08-0.59-1.71-1.84-1.71c-0.88,0-1.62,0.5-2.2,1.06
		l-0.85-0.79c0.92-0.95,1.89-1.46,3.19-1.46c1.95,0,3.13,1.12,3.13,2.79c0,1.73-1.75,3.51-4.05,5.56c0.56-0.05,1.21-0.07,1.84-0.07
		h2.65v1.26h-6.63v-0.86C218.44,577.9,220.17,576.25,220.17,574.77z"/>
	<path class="st1" d="M236.62,576.66c-2.4,0-4.16-1.46-4.16-3.62c0-2.11,1.76-3.58,4.16-3.58c2.43,0,4.18,1.48,4.18,3.58
		C240.79,575.2,239.05,576.66,236.62,576.66z M236.62,575.45c1.58,0,2.74-0.99,2.74-2.41c0-1.39-1.15-2.39-2.74-2.39
		c-1.57,0-2.72,1.01-2.72,2.39C233.9,574.46,235.05,575.45,236.62,575.45z M245.28,584.82h-10.8v-4.09h8.75v-1.69h-8.8v-1.17h10.26
		v3.96h-8.77v1.8h9.36V584.82z M244.68,573.58v3.53h-1.48v-8.23h1.48v3.47h2.39v1.22H244.68z"/>
	<path class="st1" d="M256.56,585.05h-1.48v-5.17h-6.57v-1.21h14.66v1.21h-6.61V585.05z M250.26,569.53h11.15v4.21h-9.62v2.07h9.98
		v1.21h-11.45v-4.41h9.6v-1.91h-9.65V569.53z"/>
	<path class="st1" d="M265.85,580.96v-10.5h7.42v10.5H265.85z M271.82,579.79v-8.14h-4.54v8.14H271.82z M276.65,585.07v-16.19h1.48
		v16.19H276.65z"/>
	<path class="st1" d="M294.13,579.38v5.42h-11.02v-5.42h2.12v-2.16h-3.94v-1.19h14.62v1.19h-3.92v2.16H294.13z M283.27,569.26h1.48
		v3.83h9.49v1.19h-10.97V569.26z M284.55,583.61h8.12v-3.04h-8.12V583.61z M286.71,579.38h3.8v-2.16h-3.8V579.38z"/>
	<path class="st1" d="M301.56,577.61v-1.21h5.96v-3.1H309v3.1h7.09v1.21H301.56z M314.4,582.06c0,1.82-2.2,2.95-5.64,2.95
		c-3.44,0-5.62-1.13-5.62-2.95c0-1.87,2.18-2.97,5.62-2.97C312.2,579.09,314.4,580.19,314.4,582.06z M303.27,569.71h11v1.37
		c0,1.3,0,2.61-0.45,4.27l-1.44-0.16c0.43-1.66,0.43-2.86,0.43-4.11v-0.18h-9.54V569.71z M312.92,582.06c0-1.15-1.62-1.84-4.16-1.84
		c-2.52,0-4.14,0.68-4.14,1.84c0,1.13,1.62,1.8,4.14,1.8C311.3,583.86,312.92,583.21,312.92,582.06z"/>
	<path class="st1" d="M322.66,574.37c-0.7,1.87-2.12,3.26-4.07,3.96l-0.76-1.17c2.45-0.86,4.05-2.9,4.05-5.26v-0.63h-3.62v-1.19
		h8.66v1.19h-3.56v0.63c0,2.11,1.51,4.02,3.91,4.79l-0.7,1.15C324.69,577.25,323.36,575.97,322.66,574.37z M330.61,582.02
		c0,1.89-2.05,2.99-5.31,2.99c-3.31,0-5.33-1.1-5.33-2.99c0-1.87,2.02-2.97,5.33-2.97C328.56,579.05,330.61,580.15,330.61,582.02z
		 M329.14,582.02c0-1.15-1.44-1.8-3.83-1.8c-2.47,0-3.85,0.65-3.85,1.8s1.39,1.82,3.85,1.82
		C327.7,583.84,329.14,583.18,329.14,582.02z M330.43,574.21v4.43h-1.48v-9.74h1.48v4.07h2.39v1.24H330.43z"/>
	<path class="st1" d="M340.13,575h-1.64v-1.69h1.64V575z M340.13,582.67h-1.64v-1.69h1.64V582.67z"/>
	<path class="st1" d="M346.07,578.08v-1.19h6.55v-2.38h1.48v2.38h6.57v1.19H346.07z M353.36,571.83c-1.01,1.85-3.38,3.1-5.85,3.53
		l-0.56-1.17c2.88-0.38,5.65-2.2,5.65-4.34v-0.72h1.51v0.72c0,2.14,2.79,3.96,5.67,4.34l-0.56,1.17
		C356.79,574.93,354.37,573.69,353.36,571.83z M358.89,582.22c0,1.8-2.07,2.79-5.53,2.79s-5.53-0.99-5.53-2.79s2.07-2.79,5.53-2.79
		S358.89,580.42,358.89,582.22z M357.4,582.22c0-1.08-1.42-1.66-4.03-1.66c-2.61,0-4.03,0.58-4.03,1.66s1.42,1.66,4.03,1.66
		C355.98,583.88,357.4,583.3,357.4,582.22z"/>
	<path class="st1" d="M367.35,574.64c-0.7,1.87-2.18,3.31-4.07,4.01l-0.77-1.15c2.4-0.86,4.07-3.01,4.07-5.29v-0.81h-3.6v-1.21h8.62
		v1.21h-3.55v0.79c0,2.09,1.58,4.14,3.93,4.95l-0.74,1.15C369.44,577.65,368.05,576.3,367.35,574.64z M365.42,584.67v-4.99h1.5v3.78
		h9.29v1.21H365.42z M375.76,568.9v11.83h-1.49v-6.18h-3.24v-1.21h3.24v-4.45H375.76z"/>
	<path class="st1" d="M383.53,569.92h7.54v6.61h-7.54V569.92z M396.87,583.84l-0.5,1.13c-2.45-0.34-4.59-1.46-5.55-2.95
		c-0.95,1.53-3.21,2.61-5.64,2.95l-0.49-1.13c2.74-0.34,5.35-1.84,5.35-3.46h-4.72v-1.13h4.74v-1.57h1.49v1.57h4.74v1.13h-4.74
		C391.56,581.9,394.1,583.5,396.87,583.84z M384.97,575.34h4.66v-4.25h-4.66V575.34z M394.44,568.88h1.48v9.27h-1.48V568.88z"/>
	<path class="st1" d="M409.67,580.98h-6.18v-10.57h1.4v3.94h3.39v-3.94h1.39V580.98z M404.9,579.79h3.39v-4.27h-3.39V579.79z
		 M415.23,585.03v-8.55h-2.18v7.76h-1.39v-15h1.39v6.03h2.18v-6.39h1.41v16.15H415.23z"/>
	<path class="st1" d="M424.19,574.64c-0.7,1.87-2.18,3.31-4.07,4.01l-0.77-1.15c2.4-0.86,4.07-3.01,4.07-5.29v-0.81h-3.6v-1.21h8.62
		v1.21h-3.55v0.79c0,2.09,1.58,4.14,3.93,4.95l-0.74,1.15C426.28,577.65,424.9,576.3,424.19,574.64z M422.27,584.67v-4.99h1.5v3.78
		h9.29v1.21H422.27z M432.6,568.9v11.83h-1.49v-6.18h-3.24v-1.21h3.24v-4.45H432.6z"/>
	<path class="st1" d="M436.27,585.05h-1.19l0.65-3.64h1.64L436.27,585.05z"/>
	<path class="st1" d="M447.63,573.9c-0.7,1.87-2.16,3.31-4.05,4.03l-0.77-1.17c2.39-0.86,4.07-2.97,4.07-5.29v-0.41h-3.6v-1.21h8.62
		v1.21h-3.55v0.41c0,2.05,1.58,4.11,3.93,4.92l-0.74,1.17C449.74,576.89,448.35,575.56,447.63,573.9z M456.04,584.82H445.7v-6.37
		h1.46v1.98h7.42v-1.98h1.46V584.82z M447.16,583.61h7.42v-2.04h-7.42V583.61z M454.56,577.65v-3.64h-3.19v-1.21h3.19v-3.91h1.48
		v8.75H454.56z"/>
	<path class="st1" d="M469.21,580.35l-0.83,1.19c-1.87-0.86-3.46-2.72-4.23-4.93c-0.72,2.34-2.36,4.43-4.16,5.33l-0.86-1.19
		c2.32-1.12,4.29-4.14,4.29-6.93v-2.05h-3.75v-1.22h9.02v1.22h-3.8v2.05C464.89,576.55,466.84,579.34,469.21,580.35z M470.87,585.03
		V568.9h1.48v16.13H470.87z"/>
	<path class="st1" d="M480.32,574.44c-0.7,1.94-2.12,3.44-4.02,4.21l-0.77-1.17c2.41-0.86,4.03-3.19,4.03-5.64v-2h1.48v2.05
		c0,2.25,1.6,4.38,3.91,5.24l-0.77,1.13C482.37,577.58,481.02,576.19,480.32,574.44z M478.43,584.67v-5.04h1.48v3.83h9.29v1.21
		H478.43z M483.79,572.68h3.53v-3.78h1.5v12.06h-1.5v-7.06h-3.53V572.68z"/>
	<path class="st1" d="M495.74,577.79v-1.22h14.62v1.22H495.74z M508.56,582.1c0,1.87-2.09,2.92-5.53,2.92
		c-3.44,0-5.53-1.04-5.53-2.92c0-1.87,2.09-2.92,5.53-2.92C506.47,579.18,508.56,580.22,508.56,582.1z M497.58,569.53h10.96v1.19
		h-9.49v3.11h9.6v1.19h-11.07V569.53z M507.07,582.1c0-1.15-1.49-1.76-4.03-1.76c-2.54,0-4.03,0.61-4.03,1.76s1.5,1.76,4.03,1.76
		C505.57,583.86,507.07,583.25,507.07,582.1z"/>
	<path class="st1" d="M516.89,581.97l-0.81-1.15c4.2-2.11,6.34-5.1,6.68-8.98h-5.92v-1.22h7.38
		C524.22,575.2,522.11,579.38,516.89,581.97z M528.4,585.03h-1.48v-16.15h1.48v6.55h2.59v1.22h-2.59V585.03z"/>
	<path class="st1" d="M532.39,577.61v-1.21h5.96v-3.1h1.48v3.1h7.09v1.21H532.39z M545.23,582.06c0,1.82-2.2,2.95-5.64,2.95
		s-5.62-1.13-5.62-2.95c0-1.87,2.18-2.97,5.62-2.97S545.23,580.19,545.23,582.06z M534.1,569.71h11v1.37c0,1.3,0,2.61-0.45,4.27
		l-1.44-0.16c0.43-1.66,0.43-2.86,0.43-4.11v-0.18h-9.54V569.71z M543.75,582.06c0-1.15-1.62-1.84-4.16-1.84
		c-2.52,0-4.14,0.68-4.14,1.84c0,1.13,1.62,1.8,4.14,1.8C542.13,583.86,543.75,583.21,543.75,582.06z"/>
	<path class="st1" d="M552.59,578.08v-1.19h6.55v-2.38h1.48v2.38h6.57v1.19H552.59z M559.88,571.83c-1.01,1.85-3.38,3.1-5.85,3.53
		l-0.56-1.17c2.88-0.38,5.65-2.2,5.65-4.34v-0.72h1.51v0.72c0,2.14,2.79,3.96,5.67,4.34l-0.56,1.17
		C563.3,574.93,560.89,573.69,559.88,571.83z M565.41,582.22c0,1.8-2.07,2.79-5.53,2.79s-5.53-0.99-5.53-2.79s2.07-2.79,5.53-2.79
		S565.41,580.42,565.41,582.22z M563.91,582.22c0-1.08-1.42-1.66-4.03-1.66c-2.61,0-4.03,0.58-4.03,1.66s1.42,1.66,4.03,1.66
		C562.49,583.88,563.91,583.3,563.91,582.22z"/>
	<path class="st1" d="M573.86,574.64c-0.7,1.87-2.18,3.31-4.07,4.01l-0.77-1.15c2.4-0.86,4.07-3.01,4.07-5.29v-0.81h-3.6v-1.21h8.62
		v1.21h-3.55v0.79c0,2.09,1.58,4.14,3.93,4.95l-0.74,1.15C575.95,577.65,574.57,576.3,573.86,574.64z M571.94,584.67v-4.99h1.5v3.78
		h9.29v1.21H571.94z M582.27,568.9v11.83h-1.49v-6.18h-3.24v-1.21h3.24v-4.45H582.27z"/>
	<path class="st1" d="M590.15,574.44c-0.7,1.94-2.12,3.44-4.02,4.21l-0.77-1.17c2.41-0.86,4.03-3.19,4.03-5.64v-2h1.48v2.05
		c0,2.25,1.6,4.38,3.91,5.24l-0.77,1.13C592.21,577.58,590.86,576.19,590.15,574.44z M588.26,584.67v-5.04h1.48v3.83h9.29v1.21
		H588.26z M593.63,572.68h3.53v-3.78h1.5v12.06h-1.5v-7.06h-3.53V572.68z"/>
	<path class="st1" d="M609.68,574.46c-0.58,1.51-1.71,2.88-3.29,3.58l-0.79-1.15c2.09-0.9,3.37-3.04,3.37-4.83v-2.18h1.42v2.18
		c0,1.76,1.21,3.62,3.28,4.39l-0.79,1.13C611.36,576.96,610.26,575.83,609.68,574.46z M619.28,582.11c0,1.82-2.09,2.9-5.4,2.9
		c-3.31,0-5.38-1.08-5.38-2.9c0-1.82,2.07-2.9,5.38-2.9C617.19,579.22,619.28,580.3,619.28,582.11z M617.82,582.11
		c0-1.15-1.48-1.75-3.94-1.75s-3.92,0.59-3.92,1.75s1.46,1.76,3.92,1.76S617.82,583.27,617.82,582.11z M614.33,569.21h1.4v4.01h2.05
		v-4.32h1.42v9.96h-1.42v-4.43h-2.05v3.91h-1.4V569.21z"/>
	<path class="st1" d="M626.69,574.46c-0.67,1.94-2.09,3.38-4.03,4.1l-0.77-1.17c2.47-0.86,4.03-3.04,4.03-5.55v-2h1.48v2.03
		c0,2.21,1.6,4.25,3.98,5.11l-0.74,1.17C628.82,577.5,627.41,576.19,626.69,574.46z M635.19,584.67h-10.71v-5.01h1.48v3.8h9.24
		V584.67z M634.49,575.06v5.74h-1.48v-11.94h1.48v4.97h2.39v1.22H634.49z"/>
	<path class="st1" d="M210.14,608.86c0-4.63,3.76-8.39,8.39-8.39c4.63,0,8.39,3.76,8.39,8.39c0,4.66-3.8,8.39-8.39,8.39
		C213.9,617.25,210.14,613.48,210.14,608.86z M226.34,608.86c0-4.32-3.49-7.81-7.81-7.81c-4.36,0-7.81,3.55-7.81,7.81
		c0,4.32,3.49,7.81,7.81,7.81S226.34,613.18,226.34,608.86z M215,612.3l0.72-0.95c0.63,0.59,1.44,1.1,2.68,1.1c1.17,0,2-0.63,2-1.58
		c0-1.04-0.79-1.73-3.24-1.73v-1.1c2.14,0,2.9-0.67,2.9-1.6c0-0.86-0.63-1.39-1.71-1.39c-0.85,0-1.57,0.34-2.2,0.94l-0.77-0.92
		c0.79-0.72,1.78-1.19,3.01-1.19c1.85,0,3.17,0.88,3.17,2.47c0,1.08-0.76,1.75-1.84,2.16v0.05c1.22,0.31,2.2,1.08,2.2,2.38
		c0,1.66-1.55,2.7-3.47,2.7C216.83,613.63,215.7,613.03,215,612.3z"/>
	<path class="st1" d="M232.13,610.62v-1.19h6.57v-1.58h-4.64v-6.5h10.89v1.15h-9.42v1.5h8.99v1.12h-8.99v1.58h9.51v1.15h-4.86v1.58
		h6.57v1.19H232.13z M244.97,614.42c0,1.73-1.95,2.59-5.53,2.59s-5.53-0.86-5.53-2.59c0-1.67,1.94-2.58,5.53-2.58
		S244.97,612.75,244.97,614.42z M243.49,614.42c0-0.95-1.44-1.48-4.05-1.48c-2.61,0-4.05,0.52-4.05,1.48c0,1.01,1.44,1.48,4.05,1.48
		C242.05,615.9,243.49,615.43,243.49,614.42z"/>
	<path class="st1" d="M253.5,606.1c-0.7,1.96-2.14,3.53-4.03,4.32l-0.77-1.21c2.45-0.92,4.05-3.28,4.05-5.8v-1.64h1.48v1.64
		c0,2.43,1.66,4.65,4.03,5.51l-0.77,1.17C255.61,609.4,254.22,607.97,253.5,606.1z M251.39,616.67v-5.04h1.48v3.83h9.4v1.21H251.39z
		 M260.31,600.88h1.48v11.85h-1.48V600.88z"/>
	<path class="st1" d="M268.8,609.61v-1.21h5.96v-3.1h1.48v3.1h7.09v1.21H268.8z M281.64,614.06c0,1.82-2.2,2.95-5.64,2.95
		c-3.44,0-5.62-1.13-5.62-2.95c0-1.87,2.18-2.97,5.62-2.97C279.44,611.09,281.64,612.19,281.64,614.06z M270.51,601.71h11v1.37
		c0,1.3,0,2.61-0.45,4.27l-1.44-0.16c0.43-1.66,0.43-2.86,0.43-4.11v-0.18h-9.54V601.71z M280.16,614.06c0-1.15-1.62-1.84-4.16-1.84
		c-2.52,0-4.14,0.68-4.14,1.84c0,1.13,1.62,1.8,4.14,1.8C278.54,615.86,280.16,615.21,280.16,614.06z"/>
	<path class="st1" d="M289.9,606.37c-0.7,1.87-2.12,3.26-4.07,3.96l-0.76-1.17c2.45-0.86,4.05-2.9,4.05-5.26v-0.63h-3.62v-1.19h8.66
		v1.19h-3.56v0.63c0,2.11,1.51,4.02,3.91,4.79l-0.7,1.15C291.93,609.25,290.6,607.97,289.9,606.37z M297.85,614.02
		c0,1.89-2.05,2.99-5.31,2.99c-3.31,0-5.33-1.1-5.33-2.99c0-1.87,2.02-2.97,5.33-2.97C295.8,611.05,297.85,612.15,297.85,614.02z
		 M296.38,614.02c0-1.15-1.44-1.8-3.83-1.8c-2.47,0-3.85,0.65-3.85,1.8s1.39,1.82,3.85,1.82
		C294.94,615.84,296.38,615.18,296.38,614.02z M297.67,606.21v4.43h-1.48v-9.74h1.48v4.07h2.39v1.24H297.67z"/>
	<path class="st1" d="M307.37,607h-1.64v-1.69h1.64V607z M307.37,614.67h-1.64v-1.69h1.64V614.67z"/>
	<path class="st1" d="M314.1,615.7h-1.69l4.48-13.2h1.85l4.48,13.2h-1.76l-1.26-4.03h-4.83L314.1,615.7z M317.83,603.85h-0.07
		c-0.41,1.58-0.83,2.95-1.31,4.47l-0.65,2.02h4l-0.63-2.02C318.68,606.8,318.26,605.38,317.83,603.85z"/>
	<path class="st1" d="M334.45,609.06c0,4.18-2.2,6.64-6.16,6.64h-3.38v-13.2h3.31C332.38,602.5,334.45,604.75,334.45,609.06z
		 M332.72,609.06c0-3.4-1.46-5.2-4.65-5.2h-1.5v10.48h1.5C331.19,614.33,332.72,612.39,332.72,609.06z"/>
	<path class="st1" d="M336.14,613.97l0.99-1.13c0.95,1.01,2.29,1.64,3.65,1.64c1.73,0,2.77-0.86,2.77-2.16
		c0-1.35-0.95-1.76-2.2-2.34l-1.91-0.83c-1.21-0.52-2.68-1.44-2.68-3.38c0-2.04,1.76-3.51,4.16-3.51c1.58,0,2.95,0.63,3.89,1.64
		l-0.88,1.06c-0.81-0.77-1.78-1.24-3.01-1.24c-1.51,0-2.47,0.72-2.47,1.94c0,1.3,1.15,1.76,2.18,2.2l1.89,0.81
		c1.53,0.67,2.72,1.57,2.72,3.53c0,2.09-1.73,3.75-4.48,3.75C338.89,615.93,337.29,615.2,336.14,613.97z"/>
	<path class="st1" d="M346.7,613.97l0.99-1.13c0.95,1.01,2.29,1.64,3.65,1.64c1.73,0,2.77-0.86,2.77-2.16c0-1.35-0.95-1.76-2.2-2.34
		l-1.91-0.83c-1.21-0.52-2.68-1.44-2.68-3.38c0-2.04,1.76-3.51,4.16-3.51c1.58,0,2.95,0.63,3.89,1.64l-0.88,1.06
		c-0.81-0.77-1.78-1.24-3.01-1.24c-1.51,0-2.47,0.72-2.47,1.94c0,1.3,1.15,1.76,2.18,2.2l1.89,0.81c1.53,0.67,2.72,1.57,2.72,3.53
		c0,2.09-1.73,3.75-4.48,3.75C349.46,615.93,347.85,615.2,346.7,613.97z"/>
	<path class="st1" d="M357.97,617.05h-1.19l0.65-3.64h1.64L357.97,617.05z"/>
	<path class="st1" d="M372.91,603.91h-5.94v4.47h5.04v1.4h-5.04v5.92h-1.67v-13.2h7.62V603.91z"/>
	<path class="st1" d="M373.81,602.5h9.67v1.4h-4v11.79h-1.67v-11.79h-4V602.5z"/>
	<path class="st1" d="M384.41,602.5h9.67v1.4h-4v11.79h-1.67v-11.79h-4V602.5z"/>
	<path class="st1" d="M397.93,608.03h6.16v-5.53h1.66v13.2h-1.66v-6.23h-6.16v6.23h-1.67v-13.2h1.67V608.03z"/>
	<path class="st1" d="M408.93,617.05h-1.19l0.65-3.64h1.64L408.93,617.05z"/>
	<path class="st1" d="M417.93,608.03h6.16v-5.53h1.66v13.2h-1.66v-6.23h-6.16v6.23h-1.67v-13.2h1.67V608.03z"/>
	<path class="st1" d="M438.72,609.06c0,4.18-2.2,6.64-6.16,6.64h-3.38v-13.2h3.31C436.65,602.5,438.72,604.75,438.72,609.06z
		 M436.99,609.06c0-3.4-1.46-5.2-4.65-5.2h-1.5v10.48h1.5C435.46,614.33,436.99,612.39,436.99,609.06z"/>
	<path class="st1" d="M450.91,609.06c0,4.18-2.2,6.64-6.16,6.64h-3.38v-13.2h3.31C448.83,602.5,450.91,604.75,450.91,609.06z
		 M449.18,609.06c0-3.4-1.46-5.2-4.65-5.2h-1.5v10.48h1.5C447.65,614.33,449.18,612.39,449.18,609.06z"/>
	<path class="st1" d="M460.32,614.04c-1.03,1.01-2.36,1.58-4.03,1.66c-2.47,0-3.82-1.31-3.98-3.35v-0.23c0-1.58,0.97-2.86,2.7-3.66
		l-0.11-0.14c-0.65-0.74-1.3-1.64-1.35-2.72c0-1.93,0.97-2.92,2.9-2.99h0.09c1.57,0,2.77,0.99,2.83,2.65c0,1.62-1.12,2.74-2.48,3.46
		l3.37,3.51c0.38-0.45,0.81-1.33,1.12-2.92h1.39c-0.41,1.93-1.1,3.06-1.66,3.8l2.43,2.47h-1.78L460.32,614.04z M453.66,612.35
		c0,1.21,1.12,2.07,2.65,2.07c1.31-0.05,2.29-0.54,3.1-1.33l-3.58-3.69C454.65,610.03,453.66,610.93,453.66,612.35z M454.77,605.45
		c0,0.56,0.25,1.08,1.04,2.11l0.27,0.29c0.92-0.58,1.96-1.35,1.96-2.54c-0.05-0.92-0.63-1.55-1.51-1.55h-0.09
		C455.42,603.85,454.77,604.43,454.77,605.45z"/>
	<path class="st1" d="M464.46,609.11c0-4.27,2.49-6.86,5.85-6.86c1.6,0,2.86,0.79,3.62,1.64l-0.9,1.08c-0.7-0.74-1.55-1.26-2.7-1.26
		c-2.5,0-4.16,2.03-4.16,5.35c0,3.33,1.58,5.42,4.11,5.42c1.3,0,2.21-0.56,3.06-1.48l0.92,1.04c-1.08,1.22-2.32,1.89-4.05,1.89
		C466.94,615.93,464.46,613.38,464.46,609.11z"/>
	<path class="st1" d="M475.56,613.97l0.99-1.13c0.95,1.01,2.29,1.64,3.65,1.64c1.73,0,2.77-0.86,2.77-2.16
		c0-1.35-0.95-1.76-2.2-2.34l-1.91-0.83c-1.21-0.52-2.68-1.44-2.68-3.38c0-2.04,1.76-3.51,4.16-3.51c1.58,0,2.95,0.63,3.89,1.64
		l-0.88,1.06c-0.81-0.77-1.78-1.24-3.01-1.24c-1.51,0-2.47,0.72-2.47,1.94c0,1.3,1.15,1.76,2.18,2.2l1.89,0.81
		c1.53,0.67,2.72,1.57,2.72,3.53c0,2.09-1.73,3.75-4.48,3.75C478.32,615.93,476.72,615.2,475.56,613.97z"/>
	<path class="st1" d="M485.84,602.5h9.67v1.4h-4v11.79h-1.67v-11.79h-4V602.5z"/>
	<path class="st1" d="M497.43,617.05h-1.19l0.65-3.64h1.64L497.43,617.05z"/>
	<path class="st1" d="M509.31,609.56c0.31,0.92,0.59,1.84,0.94,2.75h0.09c0.31-0.92,0.59-1.84,0.9-2.75l2.52-7.06h2.02v13.2h-1.57
		v-7.31c0-1.13,0.13-2.72,0.22-3.89h-0.07l-1.04,3.01l-2.5,6.86h-1.12l-2.5-6.86l-1.04-3.01h-0.07c0.05,1.17,0.2,2.75,0.2,3.89v7.31
		h-1.51v-13.2h2.02L509.31,609.56z"/>
	<path class="st1" d="M528.74,609.06c0,4.18-2.2,6.64-6.16,6.64h-3.38v-13.2h3.31C526.67,602.5,528.74,604.75,528.74,609.06z
		 M527.01,609.06c0-3.4-1.46-5.2-4.65-5.2h-1.5v10.48h1.5C525.48,614.33,527.01,612.39,527.01,609.06z"/>
	<path class="st1" d="M534.39,609.79v-1.22h14.62v1.22H534.39z M547.21,614.1c0,1.87-2.09,2.92-5.53,2.92
		c-3.44,0-5.53-1.04-5.53-2.92c0-1.87,2.09-2.92,5.53-2.92C545.12,611.18,547.21,612.22,547.21,614.1z M536.22,601.53h10.96v1.19
		h-9.49v3.11h9.6v1.19h-11.07V601.53z M545.71,614.1c0-1.15-1.49-1.76-4.03-1.76c-2.54,0-4.03,0.61-4.03,1.76s1.5,1.76,4.03,1.76
		C544.22,615.86,545.71,615.25,545.71,614.1z"/>
	<path class="st1" d="M561.39,611.72l0.13,1.1c-3.65,0.67-7.53,0.7-10.46,0.7l-0.18-1.24C553.84,612.28,557.82,612.24,561.39,611.72
		z M560.33,605.87c0,2.25-1.8,3.8-4.32,3.8c-2.5,0-4.32-1.55-4.32-3.8s1.82-3.8,4.32-3.8C558.53,602.07,560.33,603.62,560.33,605.87
		z M553.12,605.87c0,1.49,1.21,2.54,2.88,2.54c1.67,0,2.88-1.04,2.88-2.54c0-1.51-1.21-2.54-2.88-2.54
		C554.33,603.33,553.12,604.36,553.12,605.87z M562.45,617.07v-16.19h1.48v16.19H562.45z"/>
	<path class="st1" d="M571.05,609.85l-0.16-1.22h1.64c0.58,0,1.15-0.02,1.78-0.04v-3.19h1.46v3.15c1.8-0.07,3.58-0.18,5.24-0.4
		l0.11,1.08C577.75,609.76,573.95,609.85,571.05,609.85z M578.43,603.08h-6.55v-1.19h7.99v0.86c0,1.03,0,2.45-0.41,4.39l-1.44-0.13
		C578.4,605.29,578.43,604.09,578.43,603.08z M583.73,614.06c0,1.87-2.05,2.93-5.37,2.93c-3.31,0-5.37-1.06-5.37-2.93
		c0-1.82,2.05-2.9,5.37-2.9C581.68,611.16,583.73,612.24,583.73,614.06z M582.23,614.06c0-1.1-1.48-1.75-3.87-1.75
		s-3.87,0.65-3.87,1.75c0,1.15,1.48,1.76,3.87,1.76S582.23,615.21,582.23,614.06z M583.57,606.52v4.43h-1.48v-10.08h1.48v4.43h2.3
		v1.22H583.57z"/>
	<path class="st1" d="M587.36,610.62v-1.19h6.57v-1.58h-4.64v-6.5h10.89v1.15h-9.42v1.5h8.99v1.12h-8.99v1.58h9.51v1.15h-4.86v1.58
		h6.57v1.19H587.36z M600.2,614.42c0,1.73-1.95,2.59-5.53,2.59s-5.53-0.86-5.53-2.59c0-1.67,1.94-2.58,5.53-2.58
		S600.2,612.75,600.2,614.42z M598.72,614.42c0-0.95-1.44-1.48-4.05-1.48c-2.61,0-4.05,0.52-4.05,1.48c0,1.01,1.44,1.48,4.05,1.48
		C597.28,615.9,598.72,615.43,598.72,614.42z"/>
	<path class="st1" d="M608.73,606.1c-0.7,1.96-2.14,3.53-4.03,4.32l-0.77-1.21c2.45-0.92,4.05-3.28,4.05-5.8v-1.64h1.48v1.64
		c0,2.43,1.66,4.65,4.03,5.51l-0.77,1.17C610.83,609.4,609.45,607.97,608.73,606.1z M606.62,616.67v-5.04h1.48v3.83h9.4v1.21H606.62
		z M615.53,600.88h1.48v11.85h-1.48V600.88z"/>
	<path class="st1" d="M620.12,610.06v-1.19h3.62v-2.27c-1.31-0.52-1.98-1.33-1.98-2.43c0-1.87,2.18-3.01,5.67-3.01
		c3.51,0,5.67,1.13,5.67,3.01c0,1.08-0.72,1.91-1.96,2.41v2.29h3.6v1.19H620.12z M632.96,614.15c0,1.85-2.05,2.86-5.53,2.86
		c-3.46,0-5.53-1.01-5.53-2.86s2.07-2.88,5.53-2.88C630.91,611.27,632.96,612.3,632.96,614.15z M627.43,606.03
		c2.61,0,4.16-0.7,4.16-1.85c0-1.17-1.55-1.85-4.16-1.85c-2.61,0-4.16,0.68-4.16,1.85C623.27,605.33,624.82,606.03,627.43,606.03z
		 M631.46,614.15c0-1.1-1.49-1.73-4.03-1.73c-2.54,0-4.03,0.63-4.03,1.73c0,1.1,1.5,1.73,4.03,1.73
		C629.97,615.88,631.46,615.25,631.46,614.15z M629.68,606.98c-0.63,0.13-1.39,0.18-2.25,0.18c-0.81,0-1.57-0.05-2.23-0.18v1.89
		h4.48V606.98z"/>
	<path class="st1" d="M650.72,616.2h-1.39v-7.74h-2.99c-0.92,2-2.45,3.78-5.04,5.22l-0.85-1.06c2.47-1.37,3.94-3.02,4.74-4.92
		l-4.54,0.45l-0.2-1.26l5.13-0.34c0.23-0.85,0.36-1.69,0.41-2.58h-4.75v-1.19h6.18c0,1.51-0.18,3.03-0.63,4.47h2.54v-5.96h1.39
		V616.2z M652.69,617.01v-16.15h1.41v16.15H652.69z"/>
	<path class="st1" d="M665.55,607.76c0,3.44-1.71,5.64-4.11,5.64c-2.39,0-4.1-2.2-4.1-5.64s1.71-5.64,4.1-5.64
		C663.84,602.12,665.55,604.32,665.55,607.76z M658.75,607.76c0,2.63,1.12,4.32,2.7,4.32c1.57,0,2.68-1.69,2.68-4.32
		c0-2.61-1.12-4.3-2.68-4.3C659.87,603.46,658.75,605.15,658.75,607.76z M668.49,617.07v-16.19h1.48v16.19H668.49z"/>
	<path class="st1" d="M673.11,609.04v-1.17h14.62v1.17H673.11z M686.35,616.85h-11.42v-3.8h9.47v-1.42h-9.52v-1.12h10.98v3.6h-9.49
		v1.6h9.97V616.85z M675.06,601.17h1.46v1.53h7.85v-1.53h1.46v5.33h-10.77V601.17z M676.51,605.36h7.85v-1.55h-7.85V605.36z"/>
	<path class="st1" d="M697.47,606.46c-0.58,1.51-1.71,2.88-3.29,3.58l-0.79-1.15c2.09-0.9,3.37-3.04,3.37-4.83v-2.18h1.42v2.18
		c0,1.76,1.21,3.62,3.28,4.39l-0.79,1.13C699.14,608.96,698.04,607.83,697.47,606.46z M707.06,614.11c0,1.82-2.09,2.9-5.4,2.9
		c-3.31,0-5.38-1.08-5.38-2.9c0-1.82,2.07-2.9,5.38-2.9C704.97,611.22,707.06,612.3,707.06,614.11z M705.61,614.11
		c0-1.15-1.48-1.75-3.94-1.75s-3.93,0.59-3.93,1.75s1.46,1.76,3.93,1.76S705.61,615.27,705.61,614.11z M702.11,601.21h1.4v4.01h2.05
		v-4.32h1.42v9.96h-1.42v-4.43h-2.05v3.91h-1.4V601.21z"/>
	<path class="st1" d="M714.48,606.46c-0.67,1.94-2.09,3.38-4.03,4.1l-0.77-1.17c2.47-0.86,4.03-3.04,4.03-5.55v-2h1.48v2.03
		c0,2.21,1.6,4.25,3.98,5.11l-0.74,1.17C716.6,609.5,715.2,608.19,714.48,606.46z M722.98,616.67h-10.71v-5.01h1.48v3.8h9.24V616.67
		z M722.27,607.06v5.74h-1.48v-11.94h1.48v4.97h2.39v1.22H722.27z"/>
	<path class="st1" d="M226.92,640.86c0,4.66-3.8,8.39-8.39,8.39c-4.63,0-8.39-3.76-8.39-8.39c0-4.63,3.76-8.39,8.39-8.39
		C223.15,632.47,226.92,636.23,226.92,640.86z M226.34,640.86c0-4.32-3.49-7.81-7.81-7.81c-4.36,0-7.81,3.55-7.81,7.81
		c0,4.32,3.49,7.81,7.81,7.81S226.34,645.18,226.34,640.86z M221.82,642.93h-1.39v2.48h-1.4v-2.48h-4.61v-0.99l4.32-5.85h1.69v5.71
		h1.39V642.93z M219.08,637.54h-0.07c-0.27,0.5-0.47,0.77-0.81,1.28l-2.25,2.97h3.08v-2.38
		C219.03,638.89,219.03,638.1,219.08,637.54z"/>
	<path class="st1" d="M232.15,646.92v-1.21h6.52v-3.92h1.48v3.92h6.66v1.21H232.15z M239.41,637.49c-1.06,2.3-3.56,3.98-6.05,4.5
		l-0.61-1.22c2.83-0.49,5.89-2.88,5.89-5.56v-1.24h1.55v1.24c0,2.68,3.08,5.08,5.91,5.56l-0.63,1.22
		C242.99,641.45,240.47,639.79,239.41,637.49z"/>
	<path class="st1" d="M256.76,644.01l-0.86,1.13c-1.58-0.88-2.7-2.41-3.28-4.36c-0.56,2.25-1.67,3.91-3.35,4.92l-0.9-1.12
		c2.3-1.3,3.51-4.07,3.51-7.33V636h-3.13v-1.21h7.49V636h-2.93v1.26C253.3,640.23,254.45,642.8,256.76,644.01z M260.88,649.03v-8.41
		h-2.12v7.62h-1.39v-15h1.39v6.16h2.12v-6.54h1.42v16.17H260.88z"/>
	<path class="st1" d="M268.8,641.61v-1.21h5.96v-3.1h1.48v3.1h7.09v1.21H268.8z M281.64,646.06c0,1.82-2.2,2.95-5.64,2.95
		c-3.44,0-5.62-1.13-5.62-2.95c0-1.87,2.18-2.97,5.62-2.97C279.44,643.09,281.64,644.19,281.64,646.06z M270.51,633.71h11v1.37
		c0,1.3,0,2.61-0.45,4.27l-1.44-0.16c0.43-1.66,0.43-2.86,0.43-4.11v-0.18h-9.54V633.71z M280.16,646.06c0-1.15-1.62-1.84-4.16-1.84
		c-2.52,0-4.14,0.68-4.14,1.84c0,1.13,1.62,1.8,4.14,1.8C278.54,647.86,280.16,647.21,280.16,646.06z"/>
	<path class="st1" d="M289.9,638.37c-0.7,1.87-2.12,3.26-4.07,3.96l-0.76-1.17c2.45-0.86,4.05-2.9,4.05-5.26v-0.63h-3.62v-1.19h8.66
		v1.19h-3.56v0.63c0,2.11,1.51,4.02,3.91,4.79l-0.7,1.15C291.93,641.25,290.6,639.97,289.9,638.37z M297.85,646.02
		c0,1.89-2.05,2.99-5.31,2.99c-3.31,0-5.33-1.1-5.33-2.99c0-1.87,2.02-2.97,5.33-2.97C295.8,643.05,297.85,644.15,297.85,646.02z
		 M296.38,646.02c0-1.15-1.44-1.8-3.83-1.8c-2.47,0-3.85,0.65-3.85,1.8s1.39,1.82,3.85,1.82
		C294.94,647.84,296.38,647.18,296.38,646.02z M297.67,638.21v4.43h-1.48v-9.74h1.48v4.07h2.39v1.24H297.67z"/>
	<path class="st1" d="M307.37,639h-1.64v-1.69h1.64V639z M307.37,646.67h-1.64v-1.69h1.64V646.67z"/>
	<path class="st1" d="M318.21,638.64c-0.7,1.87-2.18,3.31-4.07,4.01l-0.77-1.15c2.39-0.86,4.07-3.01,4.07-5.29v-0.81h-3.6v-1.21
		h8.62v1.21h-3.55v0.79c0,2.09,1.58,4.14,3.93,4.95l-0.74,1.15C320.3,641.65,318.91,640.3,318.21,638.64z M316.28,648.67v-4.99h1.5
		v3.78h9.29v1.21H316.28z M326.62,632.9v11.83h-1.5v-6.18h-3.24v-1.21h3.24v-4.45H326.62z"/>
	<path class="st1" d="M331.53,642.08h-1.15v-4.79h5.47v-2.23h-5.53v-1.21h6.97v4.57h-5.47v2.45c2.99,0,4.56-0.09,6.41-0.38
		l0.14,1.19C336.39,642.03,334.75,642.08,331.53,642.08z M342.98,649.05h-1.48v-4.16h-9.33v-1.21h10.8V649.05z M341.5,642.82v-2.99
		h-3.15v-1.19h3.15v-2.16h-3.15v-1.21h3.15v-2.38h1.48v9.92H341.5z"/>
	<path class="st1" d="M350.88,638.44c-0.7,1.94-2.12,3.44-4.02,4.21l-0.77-1.17c2.41-0.86,4.03-3.19,4.03-5.64v-2h1.48v2.05
		c0,2.25,1.6,4.38,3.91,5.24l-0.77,1.13C352.93,641.58,351.58,640.19,350.88,638.44z M348.99,648.67v-5.04h1.48v3.83h9.29v1.21
		H348.99z M354.35,636.68h3.53v-3.78h1.5v12.06h-1.5v-7.06h-3.53V636.68z"/>
	<path class="st1" d="M363.05,649.05h-1.19l0.65-3.64h1.64L363.05,649.05z"/>
	<path class="st1" d="M379.14,644.35l-0.85,1.19c-1.8-0.92-3.33-2.79-4.05-4.95c-0.72,2.34-2.32,4.45-4.12,5.35l-0.86-1.17
		c2.3-1.15,4.25-4.21,4.25-6.95v-2.05h-3.69v-1.22h8.73v1.22h-3.58v2.05C374.96,640.39,376.8,643.25,379.14,644.35z M381.95,649.03
		h-1.48V632.9h1.48v6.5h2.67v1.24h-2.67V649.03z"/>
	<path class="st1" d="M385.91,642.05v-1.19h6.57v-1.87h-4.74v-5.37h10.96v1.19h-9.49v2.99h9.6v1.19h-4.86v1.87h6.57v1.19H385.91z
		 M398.73,646.11c0,1.87-2.09,2.92-5.51,2.92c-3.46,0-5.55-1.04-5.55-2.92c0-1.87,2.09-2.92,5.55-2.92
		C396.64,643.2,398.73,644.24,398.73,646.11z M397.23,646.11c0-1.15-1.48-1.76-4.01-1.76c-2.61,0-4.05,0.61-4.05,1.76
		s1.44,1.76,4.05,1.76C395.76,647.88,397.23,647.27,397.23,646.11z"/>
	<path class="st1" d="M411.61,644.48l-0.83,1.15c-1.8-0.86-3.12-2.59-3.82-4.7c-0.7,2.25-2.12,4.07-4,4.99l-0.83-1.12
		c2.36-1.15,4.09-3.87,4.09-6.68v-1.26h-3.66v-1.19h3.64v-2.5h1.48v2.5h3.58v1.19h-3.58v1.26
		C407.69,640.7,409.29,643.36,411.61,644.48z M414.71,649.03h-1.48v-16.15h1.48v6.64h2.67v1.22h-2.67V649.03z"/>
	<path class="st1" d="M418.65,642.06v-1.19h3.62v-2.27c-1.31-0.52-1.98-1.33-1.98-2.43c0-1.87,2.18-3.01,5.67-3.01
		c3.51,0,5.67,1.13,5.67,3.01c0,1.08-0.72,1.91-1.96,2.41v2.29h3.6v1.19H418.65z M431.49,646.15c0,1.85-2.05,2.86-5.53,2.86
		c-3.46,0-5.53-1.01-5.53-2.86s2.07-2.88,5.53-2.88C429.43,643.27,431.49,644.3,431.49,646.15z M425.96,638.03
		c2.61,0,4.16-0.7,4.16-1.85c0-1.17-1.55-1.85-4.16-1.85c-2.61,0-4.16,0.68-4.16,1.85C421.8,637.33,423.35,638.03,425.96,638.03z
		 M429.99,646.15c0-1.1-1.49-1.73-4.03-1.73c-2.54,0-4.03,0.63-4.03,1.73c0,1.1,1.5,1.73,4.03,1.73
		C428.5,647.88,429.99,647.25,429.99,646.15z M428.21,638.98c-0.63,0.13-1.39,0.18-2.25,0.18c-0.81,0-1.57-0.05-2.23-0.18v1.89h4.48
		V638.98z"/>
	<path class="st1" d="M443.79,638.64c-0.7,1.87-2.18,3.31-4.07,4.01l-0.77-1.15c2.4-0.86,4.07-3.01,4.07-5.29v-0.81h-3.6v-1.21h8.62
		v1.21h-3.55v0.79c0,2.09,1.58,4.14,3.93,4.95l-0.74,1.15C445.88,641.65,444.5,640.3,443.79,638.64z M441.87,648.67v-4.99h1.5v3.78
		h9.29v1.21H441.87z M452.2,632.9v11.83h-1.49v-6.18h-3.24v-1.21h3.24v-4.45H452.2z"/>
	<path class="st1" d="M460.09,638.44c-0.7,1.94-2.12,3.44-4.02,4.21l-0.77-1.17c2.41-0.86,4.03-3.19,4.03-5.64v-2h1.48v2.05
		c0,2.25,1.6,4.38,3.91,5.24l-0.77,1.13C462.14,641.58,460.79,640.19,460.09,638.44z M458.2,648.67v-5.04h1.48v3.83h9.29v1.21H458.2
		z M463.56,636.68h3.53v-3.78h1.49v12.06h-1.49v-7.06h-3.53V636.68z"/>
	<path class="st1" d="M472.25,649.05h-1.19l0.65-3.64h1.64L472.25,649.05z"/>
	<path class="st1" d="M483.63,638.64c-0.7,1.87-2.18,3.31-4.07,4.01l-0.77-1.15c2.4-0.86,4.07-3.01,4.07-5.29v-0.81h-3.6v-1.21h8.62
		v1.21h-3.55v0.79c0,2.09,1.58,4.14,3.93,4.95l-0.74,1.15C485.72,641.65,484.33,640.3,483.63,638.64z M481.7,648.67v-4.99h1.5v3.78
		h9.29v1.21H481.7z M492.04,632.9v11.83h-1.49v-6.18h-3.24v-1.21h3.24v-4.45H492.04z"/>
	<path class="st1" d="M504.44,644.48l-0.83,1.15c-1.8-0.86-3.12-2.59-3.82-4.7c-0.7,2.25-2.12,4.07-4,4.99l-0.83-1.12
		c2.36-1.15,4.09-3.87,4.09-6.68v-1.26h-3.66v-1.19h3.64v-2.5h1.48v2.5h3.58v1.19h-3.58v1.26
		C500.51,640.7,502.12,643.36,504.44,644.48z M507.54,649.03h-1.48v-16.15h1.48v6.64h2.67v1.22h-2.67V649.03z"/>
	<path class="st1" d="M516.3,638.44c-0.7,1.94-2.12,3.44-4.02,4.21l-0.77-1.17c2.41-0.86,4.03-3.19,4.03-5.64v-2h1.48v2.05
		c0,2.25,1.6,4.38,3.91,5.24l-0.77,1.13C518.35,641.58,517,640.19,516.3,638.44z M514.41,648.67v-5.04h1.48v3.83h9.29v1.21H514.41z
		 M519.77,636.68h3.53v-3.78h1.5v12.06h-1.5v-7.06h-3.53V636.68z"/>
	<path class="st1" d="M531.72,641.79v-1.22h14.62v1.22H531.72z M544.54,646.1c0,1.87-2.09,2.92-5.53,2.92
		c-3.44,0-5.53-1.04-5.53-2.92c0-1.87,2.09-2.92,5.53-2.92C542.46,643.18,544.54,644.22,544.54,646.1z M533.56,633.53h10.96v1.19
		h-9.49v3.11h9.6v1.19h-11.07V633.53z M543.05,646.1c0-1.15-1.49-1.76-4.03-1.76c-2.54,0-4.03,0.61-4.03,1.76s1.5,1.76,4.03,1.76
		C541.55,647.86,543.05,647.25,543.05,646.1z"/>
	<path class="st1" d="M552.53,642.19l-0.61-1.17c3.98-1.08,6.3-3.15,6.59-5.91h-5.85v-1.21h7.44
		C560.09,637.99,557.23,640.89,552.53,642.19z M564.49,649.03h-1.48v-4.75h-9.02v-1.19h10.5V649.03z M564.49,642.35h-1.48v-9.49
		h1.48v4.11h2.39v1.22h-2.39V642.35z"/>
	<path class="st1" d="M568.34,642.12v-1.19h6.55v-2.32h1.48v2.32h6.57v1.19H568.34z M574.69,634.81h-5.01v-1.19h11.94v1.19h-5.02
		c0.14,1.8,2.72,3.15,5.55,3.44l-0.52,1.17c-2.67-0.29-5.06-1.5-5.98-3.24c-0.92,1.75-3.31,2.95-5.96,3.24l-0.54-1.17
		C571.97,637.96,574.55,636.61,574.69,634.81z M581.16,646.22c0,1.8-2.07,2.79-5.53,2.79s-5.53-0.99-5.53-2.79
		c0-1.78,2.07-2.77,5.53-2.77S581.16,644.44,581.16,646.22z M579.66,646.22c0-1.08-1.49-1.64-4.03-1.64c-2.61,0-4.03,0.56-4.03,1.64
		s1.42,1.66,4.03,1.66C578.17,647.88,579.66,647.3,579.66,646.22z"/>
	<path class="st1" d="M593.3,638.46c-0.67,1.94-2.09,3.38-4.03,4.1l-0.77-1.17c2.47-0.86,4.03-3.04,4.03-5.55v-2H594v2.03
		c0,2.21,1.6,4.25,3.98,5.11l-0.74,1.17C595.43,641.5,594.02,640.19,593.3,638.46z M601.8,648.67h-10.71v-5.01h1.48v3.8h9.24V648.67
		z M601.1,639.06v5.74h-1.48v-11.94h1.48v4.97h2.39v1.22H601.1z"/>
	<path class="st1" d="M616.76,641.56v-3.62h-3.28c-0.29,1.93-1.89,3.17-4.12,3.17c-2.39,0-4.16-1.51-4.16-3.75
		c0-2.21,1.76-3.73,4.16-3.73c2.16,0,3.82,1.24,4.11,3.1h3.29v-3.84h1.5v8.66H616.76z M612.11,637.36c0-1.49-1.15-2.5-2.75-2.5
		s-2.75,1.01-2.75,2.5c0,1.48,1.15,2.52,2.75,2.52S612.11,638.84,612.11,637.36z M618.25,648.82h-10.34v-6.46h1.46v2.03h7.4v-2.03
		h1.48V648.82z M609.38,647.63h7.4v-2.09h-7.4V647.63z"/>
	<path class="st1" d="M631.84,648.24h-1.4v-7.87h-2.04c-0.14,3.17-1.44,5.11-3.42,5.11c-2.11,0-3.46-2.16-3.46-5.65
		c0-3.46,1.35-5.6,3.46-5.6c1.94,0,3.22,1.89,3.42,4.93h2.04v-5.92h1.4V648.24z M627.07,639.83c0-2.59-0.85-4.23-2.09-4.23
		c-1.3,0-2.11,1.64-2.11,4.23c0,2.68,0.81,4.29,2.11,4.29S627.07,642.51,627.07,639.83z M633.64,649.03v-16.15h1.41v16.15H633.64z"
		/>
	<path class="st1" d="M641.65,642.05l-0.16-1.1c1.3,0,2.72,0,4.3-0.05v-0.99c-1.87-0.14-3.04-0.88-3.04-2.11
		c0-1.37,1.46-2.12,3.78-2.12s3.76,0.76,3.76,2.12c0,1.22-1.15,1.95-3.02,2.11v0.94c1.51-0.07,2.99-0.18,4.38-0.38l0.09,0.95
		C648.29,642.03,644.48,642.05,641.65,642.05z M641.88,634.11h3.91v-1.39h1.48v1.39h3.89v1.06h-9.27V634.11z M654.69,648.85h-11.02
		v-3.42h8.95v-1.26h-9v-1.04h10.46v3.29h-8.97v1.37h9.58V648.85z M646.53,638.97c1.44,0,2.36-0.45,2.36-1.17
		c0-0.72-0.92-1.15-2.36-1.15c-1.46,0-2.38,0.43-2.38,1.15C644.15,638.52,645.07,638.97,646.53,638.97z M654.07,638.25v4.18h-1.48
		v-9.54h1.48V637h2.38v1.24H654.07z"/>
	<path class="st1" d="M657.92,642.06v-1.19h3.62v-2.27c-1.31-0.52-1.98-1.33-1.98-2.43c0-1.87,2.18-3.01,5.67-3.01
		c3.51,0,5.67,1.13,5.67,3.01c0,1.08-0.72,1.91-1.96,2.41v2.29h3.6v1.19H657.92z M670.76,646.15c0,1.85-2.05,2.86-5.53,2.86
		c-3.46,0-5.53-1.01-5.53-2.86s2.07-2.88,5.53-2.88C668.71,643.27,670.76,644.3,670.76,646.15z M665.23,638.03
		c2.61,0,4.16-0.7,4.16-1.85c0-1.17-1.55-1.85-4.16-1.85c-2.61,0-4.16,0.68-4.16,1.85C661.07,637.33,662.62,638.03,665.23,638.03z
		 M669.26,646.15c0-1.1-1.49-1.73-4.03-1.73c-2.54,0-4.03,0.63-4.03,1.73c0,1.1,1.5,1.73,4.03,1.73
		C667.77,647.88,669.26,647.25,669.26,646.15z M667.48,638.98c-0.63,0.13-1.39,0.18-2.25,0.18c-0.81,0-1.57-0.05-2.23-0.18v1.89
		h4.48V638.98z"/>
	<path class="st1" d="M684.94,643.86l0.13,1.08c-3.55,0.52-7.38,0.61-10.46,0.61l-0.18-1.24c1.39,0,2.9,0,4.48-0.05v-3.2h-3.29
		v-6.66h8.17v1.22h-6.72v4.23h6.79v1.21h-3.47v3.15C681.97,644.13,683.5,644.06,684.94,643.86z M686,649.07v-16.21h1.48v16.21H686z"
		/>
	<path class="st1" d="M690.68,642.3v-1.19h14.64v1.19H690.68z M703.74,648.64h-11.18v-4.72h1.48v3.51h9.71V648.64z M692.66,633.47
		h1.48v4.27h9.51v1.21h-10.98V633.47z"/>
	<path class="st1" d="M711.02,641.11c0-4.27,2.49-6.86,5.85-6.86c1.6,0,2.86,0.79,3.62,1.64l-0.9,1.08c-0.7-0.74-1.55-1.26-2.7-1.26
		c-2.5,0-4.16,2.03-4.16,5.35c0,3.33,1.58,5.42,4.11,5.42c1.3,0,2.21-0.56,3.06-1.48l0.92,1.04c-1.08,1.22-2.32,1.89-4.05,1.89
		C713.51,647.93,711.02,645.38,711.02,641.11z"/>
	<path class="st1" d="M722.2,642.82c0-3.26,2.14-5.15,4.54-5.15c2.39,0,4.54,1.89,4.54,5.15c0,3.24-2.14,5.11-4.54,5.11
		C724.34,647.93,722.2,646.06,722.2,642.82z M729.58,642.82c0-2.25-1.17-3.78-2.84-3.78c-1.67,0-2.83,1.53-2.83,3.78
		c0,2.25,1.15,3.75,2.83,3.75C728.41,646.56,729.58,645.07,729.58,642.82z"/>
	<path class="st1" d="M735.16,639.04h0.05c0.88-0.72,1.96-1.37,3.12-1.37c2.52,0,3.89,1.98,3.89,4.99c0,3.37-2.02,5.28-4.25,5.28
		c-0.88,0-1.82-0.41-2.7-1.13l0.04,1.71v3.31h-1.64v-13.9h1.35L735.16,639.04z M740.51,642.68c0-2.16-0.72-3.62-2.58-3.62
		c-0.85,0-1.67,0.47-2.63,1.35v5.13c0.88,0.77,1.75,1.03,2.39,1.03C739.34,646.56,740.51,645.11,740.51,642.68z"/>
	<path class="st1" d="M746.14,639.04h0.05c0.88-0.72,1.96-1.37,3.12-1.37c2.52,0,3.89,1.98,3.89,4.99c0,3.37-2.02,5.28-4.25,5.28
		c-0.88,0-1.82-0.41-2.7-1.13l0.04,1.71v3.31h-1.64v-13.9H746L746.14,639.04z M751.49,642.68c0-2.16-0.72-3.62-2.57-3.62
		c-0.85,0-1.67,0.47-2.63,1.35v5.13c0.88,0.77,1.75,1.03,2.39,1.03C750.32,646.56,751.49,645.11,751.49,642.68z"/>
	<path class="st1" d="M754.89,642.82c0-3.17,2.14-5.15,4.41-5.15c2.48,0,3.89,1.8,3.89,4.59c0,0.36-0.02,0.7-0.07,0.94h-6.59
		c0.13,2.11,1.37,3.42,3.24,3.42c0.95,0,1.73-0.29,2.45-0.77l0.59,1.08c-0.86,0.56-1.87,1.01-3.24,1.01
		C756.98,647.93,754.89,646.06,754.89,642.82z M759.32,638.98c-1.39,0-2.61,1.12-2.81,3.04h5.24
		C761.75,639.99,760.85,638.98,759.32,638.98z"/>
	<path class="st1" d="M766.91,639.71h0.05c0.7-1.24,1.67-2.04,2.77-2.04c0.43,0,0.74,0.05,1.04,0.22l-0.31,1.44
		c-0.34-0.13-0.54-0.16-0.95-0.16c-0.79,0-1.84,0.58-2.47,2.25v6.28h-1.64v-9.78h1.35L766.91,639.71z"/>
	<path class="st1" d="M777.89,642.1v5.6h-1.67v-13.2h4.14c2.68,0,4.61,0.96,4.61,3.71c0,2.11-1.19,3.28-2.99,3.71l3.38,5.78h-1.89
		l-3.21-5.6H777.89z M783.31,638.21c0-1.75-1.1-2.36-3.21-2.36h-2.21v4.9h2.21C782.21,640.75,783.31,639.94,783.31,638.21z"/>
	<path class="st1" d="M786.58,642.82c0-3.26,2.14-5.15,4.54-5.15c2.39,0,4.54,1.89,4.54,5.15c0,3.24-2.14,5.11-4.54,5.11
		C788.73,647.93,786.58,646.06,786.58,642.82z M793.97,642.82c0-2.25-1.17-3.78-2.84-3.78c-1.67,0-2.83,1.53-2.83,3.78
		c0,2.25,1.15,3.75,2.83,3.75C792.8,646.56,793.97,645.07,793.97,642.82z"/>
	<path class="st1" d="M797.35,642.82c0-3.17,2-5.15,4.23-5.15c1.15,0,1.89,0.43,2.75,1.15l-0.09-1.69v-3.76h1.64v14.33h-1.33
		l-0.16-1.15h-0.04c-0.77,0.77-1.8,1.39-2.97,1.39C798.93,647.93,797.35,646.08,797.35,642.82z M804.24,645.21v-5.13
		c-0.85-0.74-1.57-1.03-2.38-1.03c-1.58,0-2.83,1.51-2.83,3.75c0,2.39,0.97,3.76,2.7,3.76
		C802.66,646.56,803.43,646.13,804.24,645.21z"/>
	<path class="st1" d="M816.29,638.46c-0.58,1.51-1.71,2.88-3.29,3.58l-0.79-1.15c2.09-0.9,3.37-3.04,3.37-4.83v-2.18h1.42v2.18
		c0,1.76,1.21,3.62,3.28,4.39l-0.79,1.13C817.96,640.96,816.86,639.83,816.29,638.46z M825.88,646.11c0,1.82-2.09,2.9-5.4,2.9
		c-3.31,0-5.38-1.08-5.38-2.9c0-1.82,2.07-2.9,5.38-2.9C823.79,643.22,825.88,644.3,825.88,646.11z M824.42,646.11
		c0-1.15-1.48-1.75-3.94-1.75s-3.93,0.59-3.93,1.75s1.46,1.76,3.93,1.76S824.42,647.27,824.42,646.11z M820.93,633.21h1.4v4.01h2.05
		v-4.32h1.42v9.96h-1.42v-4.43h-2.05v3.91h-1.4V633.21z"/>
	<path class="st1" d="M833.29,638.46c-0.67,1.94-2.09,3.38-4.03,4.1l-0.77-1.17c2.47-0.86,4.03-3.04,4.03-5.55v-2H834v2.03
		c0,2.21,1.6,4.25,3.98,5.11l-0.74,1.17C835.42,641.5,834.02,640.19,833.29,638.46z M841.79,648.67h-10.71v-5.01h1.48v3.8h9.24
		V648.67z M841.09,639.06v5.74h-1.48v-11.94h1.48v4.97h2.39v1.22H841.09z"/>
</g>
<path class="st0" d="M555.41,469.73c0,1.18,0.96,2.14,2.14,2.14h0.87c1.18,0,2.13-0.95,2.14-2.13l0-1.83h-5.14V469.73z"/>
<path class="st2" d="M603.3,467.13"/>
<path class="st3" d="M671.17,235.07l-15.08-17.77c5.01,6.11,9.38,11.38,12.95,15.64C669.68,233.71,670.4,234.41,671.17,235.07z"/>
<path class="st4" d="M589.5,292.88l-1.52-1.67c-2.54-2.79-7.62-3.18-10.79-0.82v0c-3.22,2.39-8.39,1.95-10.89-0.93l0.49,26.74
	l-0.49-26.74l-4.98-5.74c-2.28-2.64-6.86-3.27-10.15-1.42l-8.64,4.88c-3.27,1.85-7.83,1.23-10.12-1.39l-13.81-15.73
	c-1.15-1.31-2.94-2.18-4.93-2.4l-31.81-2.99l5.16,52.55l9.21-0.11l0-0.01l0,0.01l135.03-1.65c-0.05-0.58-0.26-0.42-0.62-1
	l-16.88-27.72l-14.4,7.57C596.12,296,591.77,295.37,589.5,292.88z"/>
<path class="st4" d="M497.41,344.57l17.85-0.27c5.83-0.09,10.64,3.57,10.75,8.18l0.44,19.11c0.11,4.63,4.96,8.3,10.82,8.18
	l21.89-0.43l-0.24-7.17c-0.16-4.78,4.69-8.73,10.74-8.75l49.59-0.17l0.18-15.67c0.04-2.83,2.99-5.09,6.57-5.02
	c3.73,0.07,6.74-2.38,6.56-5.32l-1.29-21.7c0-0.03-0.01-0.05-0.01-0.07l-135.03,1.65L497.41,344.57z"/>
<path class="st5" d="M770.63,383.69l-91.42,1.23c-6.04,0.08-10.99-3.77-10.97-8.54l0.01-4.73c0-0.16-0.02-0.31-0.03-0.46l-0.84,0.01
	l0.84-0.01c-0.3-4.51-5.02-8.1-10.81-8.08l-38.18,0.13l-0.01,0.87l0.01-0.87l-49.59,0.17c-6.05,0.02-10.9,3.97-10.74,8.75l0.24,7.17
	l0.88-0.02l-0.88,0.02l0.78,23.76l3.8-0.01c5.4-0.02,9.86,3.33,10.13,7.59l0.15,2.38l130.19-0.79l0-0.03l0,0.03l80.12-0.49
	l-2.73-20.2C781.14,387.06,776.34,383.61,770.63,383.69z"/>
<path class="st4" d="M537.26,379.75c-5.85,0.12-10.71-3.55-10.82-8.18l-0.44-19.11c-0.11-4.6-4.92-8.27-10.75-8.18l-17.85,0.27
	c0.24,5.59-5.2,10.31-12.27,10.65l-5.53,0.26l1.13,47.85l79.19-0.24l-0.78-23.76L537.26,379.75z"/>
<path class="st4" d="M768.51,341.23l6.55,0.3c3.35,0.15,5.98,2.31,6.05,4.96l0.5,18.59c0.08,2.82-2.78,5.15-6.35,5.18l-107.03,0.92
	c0.01,0.15,0.03,0.31,0.03,0.46l-0.01,4.73c-0.01,4.77,4.94,8.62,10.97,8.54l91.42-1.23c5.71-0.08,10.5,3.37,10.94,7.87l2.73,20.2
	l39.91-0.24l-1.72-34.91c0,0-7.19-2.76-7.12-10.11c0.07-7.35,9.45-12.84,9.45-12.84l1.47-40.58l-64.92,0.79l1.09,22.51
	C762.6,338.98,765.21,341.08,768.51,341.23z"/>
<path class="st5" d="M690.08,257.36l-18.91-22.29c-0.76-0.66-1.48-1.36-2.12-2.12c-3.57-4.26-7.95-9.53-12.95-15.64
	c-9.19-11.23-20.54-25.35-33.21-41.68c-0.82-1.05-1.65-2.06-2.5-3.04h0l-26.05-34.84c-6.03-8.06-17.11-10.39-25.87-5.43
	l-41.26,23.36l-83.03,46.84c-9.35,5.27-12.02,15.33-6.15,23.13l25.95,34.45c0.61,0.81,1.38,1.54,2.08,2.31
	c0.18,0.2,0.25,0.46-0.08,0.76l15.9,1.5l31.81,2.99c2,0.22,3.78,1.09,4.93,2.4l13.81,15.73c2.29,2.61,6.85,3.24,10.12,1.39
	l8.64-4.88c3.29-1.86,7.87-1.22,10.15,1.42l4.98,5.74c2.5,2.89,7.67,3.33,10.89,0.93v0c3.18-2.36,8.25-1.97,10.8,0.82l1.52,1.67
	c2.27,2.49,6.62,3.12,9.85,1.42l14.4-7.57l12.23-6.43c3.37-1.77,7.94-1,10.1,1.7l3.72,4.66c2.26,2.83,7.11,3.52,10.48,1.49
	l38.21-23.06C691.54,263.26,692.23,259.86,690.08,257.36z"/>
<path class="st5" d="M632.56,337.22c0.18,2.94-2.83,5.39-6.56,5.32c-3.58-0.06-6.53,2.19-6.57,5.02l-0.18,15.67l38.18-0.13
	c5.79-0.02,10.51,3.57,10.81,8.08l107.03-0.92c3.57-0.03,6.43-2.36,6.35-5.18l-0.5-18.59c-0.07-2.65-2.71-4.81-6.05-4.96l-6.55-0.3
	c-3.3-0.15-5.92-2.25-6.05-4.86l-1.09-22.51l-130.12,1.59c0,0.03,0.01,0.04,0.01,0.07L632.56,337.22z"/>
<path class="st4" d="M573.85,410.66c-0.27-4.26-4.73-7.6-10.13-7.59l-3.8,0.01l0.01,0.32l-0.01-0.32l-79.19,0.24l0.02,0.87
	l-0.02-0.87l-77.29,0.24c-5.48,0.02-9.95,3.49-10.06,7.82c-0.11,4.2-4.31,7.61-9.62,7.81l-51.89,1.65c0,0.1-0.01,0.19-0.01,0.29
	l0.51,41.24c0.12,9.65,10.12,17.39,22.33,17.28l222.67-1.89L574,413.04L573.85,410.66z"/>
<path class="st4" d="M819.79,233.69l-8.76-1.28c-2.91-0.42-5.92,0.07-8.37,1.39l-42.19,22.61c3.03,3.22,2.16,7.77-1.93,10.14
	l-15.02,8.71l2.61,23.98l84.78,0.26l-1.9-57.3C828.86,238.01,825.02,234.45,819.79,233.69z"/>
<path class="st4" d="M824.83,353.65c0,0-9.37,5.49-9.45,12.84c-0.07,7.35,7.12,10.11,7.12,10.11l1.72,34.91l22.63-0.14
	c0-0.02,0-0.04,0-0.06c2.52-35.61,4.73-76.95,3.37-98.55l-23.93,0.29L824.83,353.65z"/>
<path class="st4" d="M854.54,247.14c0.18-0.69,0.42-1.36,0.71-2.02l18.25-42.15c6.39-14.76-13.07-28.23-30.75-21.27L697.3,238.92
	c-8.94,3.52-19.59,1.82-26.14-3.85l18.91,22.29c2.16,2.5,1.46,5.9-1.58,7.74l-38.21,23.06c-3.37,2.03-8.22,1.34-10.48-1.49
	l-3.72-4.66c-2.16-2.71-6.72-3.48-10.1-1.7l-12.23,6.43l16.88,27.72c0.36,0.58,0.57,0.43,0.62,1l130.12-1.59l-0.05-1.02l0.05,1.02
	l64.92-0.79l0.04-1.06l-0.04,1.06l23.93-0.29c0-0.07-0.01-0.14-0.01-0.2c-0.29-4.55-0.47-8.89-0.55-13.01l-18.77-0.06l0.02,0.57
	l-0.02-0.57l-84.78-0.26l-2.61-23.98l-25.3,14.67c-4.17,2.42-10.04,1.63-12.97-1.74l-0.44-0.51c-2.82-3.26-1.82-7.7,2.25-9.99
	l-30.62-5.32l30.62,5.32l40.77-22.87c4.06-2.28,9.68-1.57,12.65,1.59l42.19-22.61c2.45-1.31,5.46-1.81,8.37-1.39l8.76,1.28
	c5.23,0.76,9.08,4.32,9.21,8.52l1.9,57.3l18.77,0.06C849.08,269.94,853.35,251.66,854.54,247.14z M680.82,314.73l-18.98-33.56
	L680.82,314.73z M835.31,219.87c-8.84-2.39-13.55-9.99-10.53-16.97c3.02-6.98,12.64-10.71,21.48-8.32
	c8.84,2.39,13.55,9.99,10.53,16.97C853.76,218.54,844.15,222.26,835.31,219.87z"/>
<path class="st4" d="M824.26,412.34l-0.04-0.82l-39.91,0.24l0.11,0.83l-0.11-0.83l-80.12,0.49l3.74,64.42l-3.74-64.42L574,413.04
	l3.38,64.73l0.45,0l243.44-2.06c11.53-0.1,21.02-7.18,21.8-16.26c1.02-11.85,2.44-29.15,3.78-48.06l-22.63,0.14L824.26,412.34z"/>
<path class="st5" d="M393.4,411.38c0.11-4.33,4.57-7.8,10.06-7.82l77.29-0.24l-1.13-47.85l5.53-0.26
	c7.07-0.33,12.51-5.05,12.27-10.65l-1.19-27.47l-9.21,0.11l-142.29,1.74l12.55,48.83c0.97,3.78,0.33,7.7-1.82,11.16l-21.32,34.33
	c-1.46,2.36-2.23,4.94-2.25,7.57l51.89-1.65C389.09,418.99,393.29,415.58,393.4,411.38z"/>
<path class="st4" d="M481.85,264.66l-15.9-1.5c-1.52,1.35-11.43,3.35-57.28,3.25c-58.1-0.12-65.42,30.68-66.3,40.2
	c-0.14,1.57-0.01,3.15,0.39,4.69l1.96,7.65l142.29-1.74L481.85,264.66z"/>
<path class="st4" d="M760.47,256.41c-2.97-3.16-8.59-3.86-12.65-1.59l-40.77,22.87c-4.07,2.29-5.08,6.73-2.25,9.99l0.44,0.51
	c2.92,3.37,8.8,4.16,12.97,1.74l25.3-14.67v0v0l15.02-8.71C762.63,264.18,763.5,259.63,760.47,256.41z"/>
<path class="st4" d="M856.79,211.55c3.02-6.98-1.69-14.58-10.53-16.97c-8.84-2.39-18.46,1.34-21.48,8.32
	c-3.02,6.98,1.69,14.58,10.53,16.97C844.15,222.26,853.76,218.54,856.79,211.55z"/>
<path class="st6" d="M457.92,262.41l55.75,5.25c2,0.22,3.78,1.09,4.93,2.4l13.81,15.73c2.29,2.61,6.85,3.24,10.13,1.39l8.64-4.88
	c3.29-1.86,7.87-1.22,10.15,1.42l4.98,5.74c2.5,2.89,7.67,3.33,10.89,0.93l0,0c3.18-2.36,8.25-1.97,10.79,0.82l1.52,1.67
	c2.27,2.49,6.62,3.11,9.85,1.42l26.63-14c3.37-1.77,7.94-1,10.1,1.7l3.72,4.66c2.26,2.83,7.11,3.52,10.48,1.49l38.21-23.06
	c3.04-1.84,3.74-5.23,1.58-7.74l-40.35-55.68"/>
<path class="st6" d="M688.49,265.1"/>
<polyline class="st6" points="866.6,312.57 487.01,317.21 338.6,319.03 "/>
<line class="st6" x1="481.8" y1="264.14" x2="487.01" y2="317.21"/>
<line class="st6" x1="661.85" y1="281.17" x2="680.82" y2="314.73"/>
<path class="st6" d="M704.8,287.68l0.44,0.51c2.92,3.37,8.8,4.16,12.97,1.74l40.32-23.38c4.09-2.37,4.96-6.92,1.93-10.14v0
	c-2.97-3.16-8.59-3.86-12.65-1.59l-40.77,22.87C702.98,279.97,701.98,284.42,704.8,287.68z"/>
<polyline class="st6" points="577.84,486.51 574,413.04 856.14,411.32 "/>
<line class="st6" x1="704.19" y1="412.22" x2="707.93" y2="476.66"/>
<path class="st6" d="M322.72,421.13l61.06-1.94c5.31-0.2,9.51-3.61,9.62-7.81l0,0c0.11-4.33,4.57-7.8,10.06-7.82l160.27-0.49
	c5.4-0.02,9.86,3.33,10.13,7.59l0.15,2.38"/>
<path class="st6" d="M480.76,404.2l-1.15-48.73l5.53-0.26c7.07-0.33,12.51-5.05,12.27-10.65l-1.19-27.47"/>
<path class="st6" d="M559.94,403.4l-1.03-31.25c-0.16-4.78,4.69-8.73,10.74-8.75l87.77-0.29c5.99-0.02,10.85,3.81,10.84,8.54
	l-0.01,4.74c-0.01,4.77,4.94,8.62,10.97,8.54l91.42-1.23c5.71-0.08,10.5,3.37,10.94,7.87l2.85,21.04"/>
<path class="st6" d="M619.23,364.1l0.2-16.54c0.04-2.83,2.99-5.09,6.57-5.02h0c3.73,0.07,6.74-2.38,6.56-5.32l-1.29-21.7
	c-0.04-0.68-0.26-0.47-0.63-1.08l-16.88-27.72"/>
<path class="st6" d="M668.28,363.07"/>
<path class="st6" d="M761.32,312.83l1.14,23.54c0.13,2.61,2.75,4.71,6.05,4.86l6.55,0.3c3.35,0.15,5.98,2.31,6.05,4.96l0.5,18.59
	c0.08,2.82-2.78,5.15-6.35,5.18l-107.88,0.92"/>
<path class="st6" d="M826.33,312l-1.5,41.65c0,0-9.37,5.49-9.45,12.84s7.12,10.11,7.12,10.11l1.76,35.74"/>
<line class="st6" x1="566.29" y1="289.45" x2="566.78" y2="316.19"/>
<ellipse class="st6" cx="840.78" cy="207.23" rx="16.92" ry="13.36"/>
<path class="st6" d="M830.92,300.08L829,242.21c-0.14-4.2-3.98-7.75-9.21-8.52l-8.76-1.28c-2.91-0.42-5.92,0.07-8.37,1.39
	l-42.19,22.61"/>
<polyline class="st6" points="743.51,275.26 746.12,299.24 863.12,299.61 "/>
<line class="st6" x1="676.44" y1="272.37" x2="707.06" y2="277.69"/>
<path class="st6" d="M497.41,344.57l17.85-0.27c5.83-0.09,10.64,3.57,10.75,8.18l0.44,19.11c0.11,4.63,4.96,8.3,10.82,8.18
	l22.77-0.45"/>
<g>
	<g>
		<path class="st7" d="M574.18,222.38c0,6.79-5.56,12.27-12.27,12.27c-6.76,0-12.27-5.51-12.27-12.27s5.51-12.27,12.27-12.27
			C568.66,210.11,574.18,215.62,574.18,222.38z M573.21,222.38c0-6.24-5.07-11.31-11.31-11.31c-6.29,0-11.31,5.15-11.31,11.31
			c0,6.24,5.07,11.31,11.31,11.31S573.21,228.62,573.21,222.38z M567,225.87h-1.74v3.22h-3.09v-3.22h-6.47v-2.29l5.54-8.14h4.03
			v7.98H567V225.87z M562.27,218.25h-0.1c-0.49,0.83-0.68,1.25-1.17,2.05l-2.16,3.12h3.33v-2.13
			C562.16,220.38,562.19,219.16,562.27,218.25z"/>
	</g>
</g>
<g>
	<path class="st7" d="M404.44,362.77c0-6.76,5.51-12.27,12.27-12.27c6.76,0,12.27,5.51,12.27,12.27c0,6.79-5.56,12.27-12.27,12.27
		C409.96,375.04,404.44,369.53,404.44,362.77z M428.03,362.77c0-6.24-5.07-11.31-11.31-11.31c-6.29,0-11.31,5.15-11.31,11.31
		c0,6.24,5.07,11.31,11.31,11.31S428.03,369.01,428.03,362.77z M412.82,357.1c1.56-0.31,2.65-0.68,3.67-1.27h2.5v13.65h-3.33v-10.3
		h-2.83V357.1z"/>
</g>
<g>
	<g>
		<path class="st7" d="M614.48,388.9c0-6.76,5.51-12.27,12.27-12.27c6.76,0,12.27,5.51,12.27,12.27c0,6.79-5.56,12.27-12.27,12.27
			C619.99,401.18,614.48,395.66,614.48,388.9z M638.06,388.9c0-6.24-5.07-11.31-11.31-11.31c-6.29,0-11.31,5.15-11.31,11.31
			c0,6.24,5.07,11.31,11.31,11.31S638.06,395.14,638.06,388.9z M628.39,386.25c0-1.35-0.68-2.03-2.05-2.03
			c-1.14,0-2.05,0.68-2.81,1.38l-1.82-1.77c1.43-1.46,3.12-2.18,5.02-2.18c2.91,0,4.86,1.72,4.86,4.29c0,2.29-2.39,4.89-4.86,7.02
			c0.75-0.08,1.79-0.13,2.6-0.13h2.78v2.78H622v-1.92C625.82,390.49,628.39,388.18,628.39,386.25z"/>
	</g>
</g>
<g>
	<g>
		<path class="st7" d="M692.47,340.84c0-6.76,5.51-12.27,12.27-12.27c6.76,0,12.27,5.51,12.27,12.27c0,6.79-5.56,12.27-12.27,12.27
			C697.99,353.11,692.47,347.6,692.47,340.84z M716.06,340.84c0-6.24-5.07-11.31-11.31-11.31c-6.29,0-11.31,5.15-11.31,11.31
			c0,6.24,5.07,11.31,11.31,11.31S716.06,347.08,716.06,340.84z M699.29,345.88l1.53-2.08c0.91,0.81,2.03,1.46,3.59,1.46
			c1.33,0,2.26-0.62,2.26-1.66c0-1.17-0.81-1.87-4.11-1.87v-2.31c2.73,0,3.64-0.68,3.64-1.79c0-1.01-0.62-1.51-1.9-1.51
			c-1.01,0-1.98,0.42-2.91,1.25l-1.64-2c1.33-1.12,2.86-1.77,4.63-1.77c3.15,0,5.12,1.33,5.12,3.82c0,1.35-0.83,2.34-2.52,2.99v0.08
			c1.77,0.49,3.04,1.59,3.04,3.38c0,2.55-2.52,4-5.56,4C702.25,347.86,700.35,347.1,699.29,345.88z"/>
	</g>
</g>
</svg>
