<?xml version="1.0" encoding="utf-8"?>
<!-- Generator: Adobe Illustrator 26.1.0, SVG Export Plug-In . SVG Version: 6.00 Build 0)  -->
<svg version="1.1" id="Layer_1" xmlns="http://www.w3.org/2000/svg" xmlns:xlink="http://www.w3.org/1999/xlink" x="0px" y="0px"
	 viewBox="0 0 1154 729.33" style="enable-background:new 0 0 1154 729.33;" xml:space="preserve">
<style type="text/css">
	.st0{fill:#ECEEEF;}
	.st1{fill:#303030;}
	.st2{fill:#7D7D7D;}
	.st3{fill:#AFAFAF;}
	.st4{opacity:0.5;fill:#595959;}
</style>
<rect class="st0" width="1154" height="729.33"/>
<g>
	<path class="st1" d="M210.57,507.86c0-4.63,3.76-8.39,8.39-8.39c4.63,0,8.39,3.76,8.39,8.39c0,4.66-3.8,8.39-8.39,8.39
		C214.33,516.25,210.57,512.49,210.57,507.86z M226.78,507.86c0-4.32-3.49-7.81-7.81-7.81c-4.36,0-7.81,3.55-7.81,7.81
		c0,4.32,3.49,7.81,7.81,7.81S226.78,512.18,226.78,507.86z M216.69,503.83c0.95-0.16,1.62-0.4,2.25-0.74h1.13v9.33h-1.48v-7.63
		h-1.91V503.83z"/>
	<path class="st1" d="M237.48,505.65c-0.7,1.87-2.18,3.31-4.07,4.01l-0.77-1.15c2.39-0.86,4.07-3.01,4.07-5.29v-0.81h-3.6v-1.21
		h8.62v1.21h-3.55v0.79c0,2.09,1.58,4.14,3.93,4.95l-0.74,1.15C239.57,508.66,238.18,507.3,237.48,505.65z M235.56,515.68v-4.99h1.5
		v3.78h9.29v1.21H235.56z M245.89,499.9v11.83h-1.5v-6.18h-3.24v-1.21h3.24v-4.45H245.89z"/>
	<path class="st1" d="M250.8,509.09h-1.15v-4.79h5.47v-2.23h-5.53v-1.21h6.97v4.57h-5.47v2.45c2.99,0,4.56-0.09,6.41-0.38l0.14,1.19
		C255.66,509.03,254.02,509.09,250.8,509.09z M262.25,516.06h-1.48v-4.16h-9.33v-1.21h10.8V516.06z M260.78,509.83v-2.99h-3.15
		v-1.19h3.15v-2.16h-3.15v-1.21h3.15v-2.38h1.48v9.92H260.78z"/>
	<path class="st1" d="M266.35,513.03l-0.79-1.21c4.34-2.07,6.5-5.17,6.81-9h-6.07v-1.19h7.56
		C273.86,506.3,271.74,510.38,266.35,513.03z M277.12,516.04v-16.15h1.48v16.15H277.12z"/>
	<path class="st1" d="M282.73,513.03l-0.79-1.21c4.34-2.07,6.5-5.17,6.81-9h-6.07v-1.19h7.56
		C290.24,506.3,288.12,510.38,282.73,513.03z M293.5,516.04v-16.15h1.48v16.15H293.5z"/>
	<path class="st1" d="M301.99,508.62v-1.21h5.96v-3.1h1.48v3.1h7.09v1.21H301.99z M314.83,513.07c0,1.82-2.2,2.95-5.64,2.95
		c-3.44,0-5.62-1.13-5.62-2.95c0-1.87,2.18-2.97,5.62-2.97C312.63,510.1,314.83,511.19,314.83,513.07z M303.7,500.71h11v1.37
		c0,1.3,0,2.61-0.45,4.27l-1.44-0.16c0.43-1.66,0.43-2.86,0.43-4.11v-0.18h-9.54V500.71z M313.35,513.07c0-1.15-1.62-1.84-4.16-1.84
		c-2.52,0-4.14,0.68-4.14,1.84c0,1.13,1.62,1.8,4.14,1.8C311.73,514.87,313.35,514.22,313.35,513.07z"/>
	<path class="st1" d="M323.09,505.38c-0.7,1.87-2.12,3.26-4.07,3.96l-0.76-1.17c2.45-0.86,4.05-2.9,4.05-5.26v-0.63h-3.62v-1.19
		h8.66v1.19h-3.56v0.63c0,2.11,1.51,4.02,3.91,4.79l-0.7,1.15C325.12,508.26,323.79,506.98,323.09,505.38z M331.05,513.03
		c0,1.89-2.05,2.99-5.31,2.99c-3.31,0-5.33-1.1-5.33-2.99c0-1.87,2.02-2.97,5.33-2.97C329,510.06,331.05,511.16,331.05,513.03z
		 M329.57,513.03c0-1.15-1.44-1.8-3.83-1.8c-2.47,0-3.85,0.65-3.85,1.8s1.39,1.82,3.85,1.82
		C328.13,514.85,329.57,514.18,329.57,513.03z M330.87,505.22v4.43h-1.48v-9.74h1.48v4.07h2.39v1.24H330.87z"/>
	<path class="st1" d="M340.57,506.01h-1.64v-1.69h1.64V506.01z M340.57,513.68h-1.64v-1.69h1.64V513.68z"/>
	<path class="st1" d="M354.97,502.91h-5.94v4.14h5.01v1.42h-5.01v4.81h6.14v1.42h-7.81v-13.2h7.62V502.91z"/>
	<path class="st1" d="M366.47,505.38c0,2.81-1.98,4.09-4.86,4.09h-2.18v5.24h-1.67v-13.2h3.76
		C364.47,501.51,366.47,502.5,366.47,505.38z M364.82,505.38c0-1.89-1.17-2.52-3.49-2.52h-1.89v5.26h1.96
		C363.72,508.12,364.82,507.27,364.82,505.38z"/>
	<path class="st1" d="M368.2,508.12c0-4.27,2.49-6.86,5.85-6.86c1.6,0,2.86,0.79,3.62,1.64l-0.9,1.08c-0.7-0.74-1.55-1.26-2.7-1.26
		c-2.5,0-4.16,2.03-4.16,5.35c0,3.33,1.58,5.42,4.11,5.42c1.3,0,2.21-0.56,3.06-1.48l0.92,1.04c-1.08,1.22-2.32,1.89-4.05,1.89
		C370.68,514.94,368.2,512.38,368.2,508.12z"/>
	<path class="st1" d="M380,516.06h-1.19l0.65-3.64h1.64L380,516.06z"/>
	<path class="st1" d="M393.24,511.99h-6.18v-10.57h1.4v3.94h3.39v-3.94h1.39V511.99z M388.46,510.8h3.39v-4.27h-3.39V510.8z
		 M398.8,516.04v-8.55h-2.18v7.76h-1.39v-15h1.39v6.03h2.18v-6.39h1.41v16.15H398.8z"/>
	<path class="st1" d="M407.76,505.65c-0.7,1.87-2.18,3.31-4.07,4.01l-0.77-1.15c2.39-0.86,4.07-3.01,4.07-5.29v-0.81h-3.6v-1.21
		h8.62v1.21h-3.55v0.79c0,2.09,1.58,4.14,3.93,4.95l-0.74,1.15C409.85,508.66,408.46,507.3,407.76,505.65z M405.83,515.68v-4.99h1.5
		v3.78h9.29v1.21H405.83z M416.17,499.9v11.83h-1.5v-6.18h-3.24v-1.21h3.24v-4.45H416.17z"/>
	<path class="st1" d="M419.23,509.07v-1.19h3.62v-2.27c-1.31-0.52-1.98-1.33-1.98-2.43c0-1.87,2.18-3.01,5.67-3.01
		c3.51,0,5.67,1.13,5.67,3.01c0,1.08-0.72,1.91-1.96,2.41v2.29h3.6v1.19H419.23z M432.06,513.16c0,1.85-2.05,2.86-5.53,2.86
		c-3.46,0-5.53-1.01-5.53-2.86s2.07-2.88,5.53-2.88C430.01,510.28,432.06,511.3,432.06,513.16z M426.54,505.04
		c2.61,0,4.16-0.7,4.16-1.85c0-1.17-1.55-1.85-4.16-1.85c-2.61,0-4.16,0.68-4.16,1.85C422.38,504.33,423.93,505.04,426.54,505.04z
		 M430.57,513.16c0-1.1-1.49-1.73-4.03-1.73c-2.54,0-4.03,0.63-4.03,1.73c0,1.1,1.5,1.73,4.03,1.73
		C429.08,514.88,430.57,514.25,430.57,513.16z M428.79,505.99c-0.63,0.13-1.39,0.18-2.25,0.18c-0.81,0-1.57-0.05-2.23-0.18v1.89
		h4.48V505.99z"/>
	<path class="st1" d="M440.29,500.97h1.46v2.84h4.36v-2.84h1.46v1.89h3.73v-2.95h1.49v11.94h-1.49v-4.3h-3.73v1.55h-7.27V500.97z
		 M441.75,507.9h4.36v-2.92h-4.36V507.9z M442.39,515.68v-5.01h1.48v3.8h9.29v1.21H442.39z M451.29,506.33v-2.29h-3.73v2.29H451.29z
		"/>
	<path class="st1" d="M460.36,508.17c-2.43,0-4.18-1.51-4.18-3.75c0-2.21,1.75-3.71,4.18-3.71c2.45,0,4.21,1.49,4.21,3.71
		C464.57,506.66,462.81,508.17,460.36,508.17z M460.36,506.94c1.62,0,2.77-1.04,2.77-2.52c0-1.53-1.13-2.48-2.77-2.48
		c-1.6,0-2.75,0.99-2.75,2.48C457.6,505.9,458.76,506.94,460.36,506.94z M468.39,515.82h-10.17v-6.41h1.46v2h7.26v-2h1.46V515.82z
		 M459.67,514.62h7.26v-2.05h-7.26V514.62z M468.39,508.64h-1.48v-8.73h1.48v3.67h2.39v1.22h-2.39V508.64z"/>
	<path class="st1" d="M473.25,513.03l-0.79-1.21c4.34-2.07,6.5-5.17,6.81-9h-6.07v-1.19h7.56
		C480.75,506.3,478.63,510.38,473.25,513.03z M484.01,516.04v-16.15h1.48v16.15H484.01z"/>
	<path class="st1" d="M489.21,516.06h-1.19l0.65-3.64h1.64L489.21,516.06z"/>
	<path class="st1" d="M503.7,516.06h-1.48v-5.4h-6.55v-1.19h14.66v1.19h-6.63V516.06z M497.53,500.54h1.46v2.21H507v-2.21h1.48v6.99
		h-10.95V500.54z M498.98,506.31H507v-2.38h-8.01V506.31z"/>
	<path class="st1" d="M512.07,513.88v-1.22h14.64v1.22H512.07z M519.33,504.57c-1.01,2.36-3.57,4.09-5.98,4.66l-0.67-1.22
		c2.81-0.58,5.87-2.97,5.87-5.74v-1.24h1.55v1.24c0,2.74,3.06,5.22,5.89,5.74l-0.67,1.22C522.87,508.66,520.33,506.94,519.33,504.57
		z"/>
	<path class="st1" d="M536.61,512.15h-7.51v-10.89h1.46v4.27h4.61v-4.27h1.44V512.15z M530.56,510.94h4.61v-4.25h-4.61V510.94z
		 M540.87,516.02h-1.48V499.9h1.48v6.34h2.67v1.24h-2.67V516.02z"/>
	<path class="st1" d="M545.42,516.06h-1.19l0.65-3.64h1.64L545.42,516.06z"/>
	<path class="st1" d="M562.42,515.25h-1.4v-7.87h-2.04c-0.14,3.17-1.44,5.11-3.42,5.11c-2.11,0-3.46-2.16-3.46-5.65
		c0-3.46,1.35-5.6,3.46-5.6c1.94,0,3.22,1.89,3.42,4.93h2.04v-5.92h1.4V515.25z M557.65,506.84c0-2.59-0.85-4.23-2.09-4.23
		c-1.3,0-2.11,1.64-2.11,4.23c0,2.68,0.81,4.29,2.11,4.29S557.65,509.52,557.65,506.84z M564.22,516.04v-16.15h1.41v16.15H564.22z"
		/>
	<path class="st1" d="M577.72,509.99l0.18,1.22c-2.75,0.56-5.22,0.74-7.69,0.74h-1.28v-10.5h1.46v9.25
		C572.71,510.71,575.11,510.51,577.72,509.99z M580.71,516.04h-1.48v-16.15h1.48v6.45h2.59v1.22h-2.59V516.04z"/>
	<path class="st1" d="M585.37,500.93h6.23v2.54h2.23v-3.22h1.4v7.94h-1.4v-3.51h-2.23v2.68h-6.23V500.93z M586.75,506.22h3.47v-4.16
		h-3.47V506.22z M587.67,515.82v-4.05h9.15v-1.58h-9.18v-1.17h10.66v3.87h-9.16v1.75h9.78v1.19H587.67z M596.87,499.9h1.42v8.37
		h-1.42V499.9z"/>
	<path class="st1" d="M605.85,505.45c-0.7,1.94-2.12,3.44-4.02,4.21l-0.77-1.17c2.41-0.86,4.03-3.19,4.03-5.64v-2h1.48v2.05
		c0,2.25,1.6,4.38,3.91,5.24l-0.77,1.13C607.9,508.58,606.55,507.2,605.85,505.45z M603.96,515.68v-5.04h1.48v3.83h9.29v1.21H603.96
		z M609.33,503.69h3.53v-3.78h1.5v12.06h-1.5v-7.06h-3.53V503.69z"/>
	<path class="st1" d="M621.28,508.8v-1.22h14.62v1.22H621.28z M634.1,513.1c0,1.87-2.09,2.92-5.53,2.92c-3.44,0-5.53-1.04-5.53-2.92
		c0-1.87,2.09-2.92,5.53-2.92C632.01,510.19,634.1,511.23,634.1,513.1z M623.11,500.54h10.96v1.19h-9.49v3.11h9.6v1.19h-11.07
		V500.54z M632.6,513.1c0-1.15-1.49-1.76-4.03-1.76c-2.54,0-4.03,0.61-4.03,1.76s1.5,1.76,4.03,1.76
		C631.11,514.87,632.6,514.25,632.6,513.1z"/>
	<path class="st1" d="M648.28,510.73l0.13,1.1c-3.65,0.67-7.53,0.7-10.46,0.7l-0.18-1.24C640.73,511.28,644.71,511.25,648.28,510.73
		z M647.22,504.87c0,2.25-1.8,3.8-4.32,3.8c-2.5,0-4.32-1.55-4.32-3.8s1.82-3.8,4.32-3.8C645.42,501.08,647.22,502.62,647.22,504.87
		z M640.01,504.87c0,1.49,1.21,2.54,2.88,2.54c1.67,0,2.88-1.04,2.88-2.54c0-1.51-1.21-2.54-2.88-2.54
		C641.22,502.33,640.01,503.36,640.01,504.87z M649.34,516.07v-16.19h1.48v16.19H649.34z"/>
	<path class="st1" d="M668.24,515.21h-1.39v-7.74h-2.99c-0.92,2-2.45,3.78-5.04,5.22l-0.85-1.06c2.47-1.37,3.94-3.02,4.74-4.92
		l-4.54,0.45l-0.2-1.26l5.13-0.34c0.23-0.85,0.36-1.69,0.41-2.58h-4.75v-1.19h6.18c0,1.51-0.18,3.03-0.63,4.47h2.54v-5.96h1.39
		V515.21z M670.2,516.02v-16.15h1.41v16.15H670.2z"/>
	<path class="st1" d="M683.07,506.76c0,3.44-1.71,5.64-4.11,5.64c-2.39,0-4.1-2.2-4.1-5.64s1.71-5.64,4.1-5.64
		C681.36,501.13,683.07,503.33,683.07,506.76z M676.27,506.76c0,2.63,1.12,4.32,2.7,4.32c1.57,0,2.68-1.69,2.68-4.32
		c0-2.61-1.12-4.3-2.68-4.3C677.38,502.46,676.27,504.15,676.27,506.76z M686.01,516.07v-16.19h1.48v16.19H686.01z"/>
	<path class="st1" d="M690.63,508.04v-1.17h14.62v1.17H690.63z M703.86,515.86h-11.42v-3.8h9.47v-1.42h-9.52v-1.12h10.98v3.6h-9.49
		v1.6h9.97V515.86z M692.57,500.17h1.46v1.53h7.85v-1.53h1.46v5.33h-10.77V500.17z M694.03,504.37h7.85v-1.55h-7.85V504.37z"/>
	<path class="st1" d="M715.76,504.91c-0.7,1.87-2.16,3.31-4.05,4.03l-0.77-1.17c2.4-0.86,4.07-2.97,4.07-5.29v-0.41h-3.6v-1.21h8.62
		v1.21h-3.55v0.41c0,2.05,1.58,4.11,3.93,4.92l-0.74,1.17C717.87,507.9,716.48,506.57,715.76,504.91z M724.17,515.82h-10.33v-6.37
		h1.46v1.98h7.42v-1.98h1.46V515.82z M715.29,514.62h7.42v-2.04h-7.42V514.62z M722.69,508.66v-3.64h-3.19v-1.21h3.19v-3.91h1.48
		v8.75H722.69z"/>
	<path class="st1" d="M727.26,509.2v-1.21h6.55v-2.45h1.48v2.45h6.63v1.21H727.26z M734.55,502.84c-1.01,1.87-3.38,3.11-5.85,3.55
		l-0.56-1.19c2.88-0.38,5.65-2.2,5.65-4.34v-0.72h1.51v0.72c0,2.14,2.79,3.96,5.67,4.34l-0.56,1.19
		C737.97,505.95,735.56,504.71,734.55,502.84z M740.06,516.06h-1.48v-4.09h-9.7v-1.21h11.18V516.06z"/>
	<path class="st1" d="M744.65,513.03l-0.79-1.21c4.34-2.07,6.5-5.17,6.81-9h-6.07v-1.19h7.56
		C752.16,506.3,750.03,510.38,744.65,513.03z M755.42,516.04v-16.15h1.48v16.15H755.42z"/>
	<path class="st1" d="M761.03,513.03l-0.79-1.21c4.34-2.07,6.5-5.17,6.81-9h-6.07v-1.19h7.56
		C768.54,506.3,766.41,510.38,761.03,513.03z M771.79,516.04v-16.15h1.48v16.15H771.79z"/>
	<path class="st1" d="M784.36,505.47c-0.58,1.51-1.71,2.88-3.29,3.58l-0.79-1.15c2.09-0.9,3.37-3.04,3.37-4.83v-2.18h1.42v2.18
		c0,1.76,1.21,3.62,3.28,4.39l-0.79,1.13C786.03,507.97,784.93,506.84,784.36,505.47z M793.95,513.12c0,1.82-2.09,2.9-5.4,2.9
		c-3.31,0-5.38-1.08-5.38-2.9c0-1.82,2.07-2.9,5.38-2.9C791.86,510.22,793.95,511.3,793.95,513.12z M792.5,513.12
		c0-1.15-1.48-1.75-3.94-1.75s-3.93,0.59-3.93,1.75s1.46,1.76,3.93,1.76S792.5,514.27,792.5,513.12z M789,500.21h1.4v4.01h2.05
		v-4.32h1.42v9.96h-1.42v-4.43h-2.05v3.91H789V500.21z"/>
	<path class="st1" d="M801.37,505.47c-0.67,1.94-2.09,3.38-4.03,4.1l-0.77-1.17c2.47-0.86,4.03-3.04,4.03-5.55v-2h1.48v2.03
		c0,2.21,1.6,4.25,3.98,5.11l-0.74,1.17C803.49,508.51,802.09,507.2,801.37,505.47z M809.87,515.68h-10.71v-5.01h1.48v3.8h9.24
		V515.68z M809.16,506.06v5.74h-1.48v-11.94h1.48v4.97h2.39v1.22H809.16z"/>
	<path class="st1" d="M210.57,539.86c0-4.63,3.76-8.39,8.39-8.39c4.63,0,8.39,3.76,8.39,8.39c0,4.66-3.8,8.39-8.39,8.39
		C214.33,548.25,210.57,544.49,210.57,539.86z M226.78,539.86c0-4.32-3.49-7.81-7.81-7.81c-4.36,0-7.81,3.55-7.81,7.81
		c0,4.32,3.49,7.81,7.81,7.81S226.78,544.18,226.78,539.86z M220.6,537.77c0-1.08-0.59-1.71-1.84-1.71c-0.88,0-1.62,0.5-2.2,1.06
		l-0.85-0.79c0.92-0.95,1.89-1.46,3.19-1.46c1.95,0,3.13,1.12,3.13,2.79c0,1.73-1.75,3.51-4.05,5.56c0.56-0.05,1.21-0.07,1.84-0.07
		h2.65v1.26h-6.63v-0.86C218.87,540.91,220.6,539.25,220.6,537.77z"/>
	<path class="st1" d="M237.48,537.65c-0.7,1.87-2.18,3.31-4.07,4.01l-0.77-1.15c2.39-0.86,4.07-3.01,4.07-5.29v-0.81h-3.6v-1.21
		h8.62v1.21h-3.55v0.79c0,2.09,1.58,4.14,3.93,4.95l-0.74,1.15C239.57,540.66,238.18,539.3,237.48,537.65z M235.56,547.68v-4.99h1.5
		v3.78h9.29v1.21H235.56z M245.89,531.9v11.83h-1.5v-6.18h-3.24v-1.21h3.24v-4.45H245.89z"/>
	<path class="st1" d="M249.97,545.03l-0.79-1.21c4.34-2.07,6.5-5.17,6.81-9h-6.07v-1.19h7.56
		C257.48,538.3,255.36,542.38,249.97,545.03z M260.74,548.04v-16.15h1.48v16.15H260.74z"/>
	<path class="st1" d="M279.24,543.19l-0.88,1.19c-1.87-0.92-3.38-2.79-4.16-5.11c-0.74,2.47-2.29,4.41-4.18,5.42l-0.9-1.21
		c2.36-1.15,4.34-4.2,4.34-7.29v-2.9h1.46v2.9C274.92,539.14,276.87,542.13,279.24,543.19z M280.94,548.07v-16.19h1.48v16.19H280.94
		z"/>
	<path class="st1" d="M285.6,533.58h3.94v-1.85h1.48v1.85h3.94v1.19h-9.36V533.58z M290.28,541.34c-2.2,0-3.75-1.13-3.75-2.86
		s1.55-2.88,3.75-2.88c2.16,0,3.73,1.15,3.73,2.88S292.44,541.34,290.28,541.34z M290.28,540.24c1.37,0,2.34-0.68,2.34-1.76
		s-0.97-1.76-2.34-1.76c-1.37,0-2.34,0.68-2.34,1.76S288.91,540.24,290.28,540.24z M298.88,547.82h-10.5v-5.29h10.5V547.82z
		 M297.44,543.7h-7.62v2.93h7.62V543.7z M297.39,541.66v-3.65h-2.68v-1.21h2.68v-4.9h1.5v9.76H297.39z"/>
	<path class="st1" d="M306.71,537.38c-0.7,1.87-2.12,3.26-4.07,3.96l-0.76-1.17c2.45-0.86,4.05-2.9,4.05-5.26v-0.63h-3.62v-1.19
		h8.66v1.19h-3.56v0.63c0,2.11,1.51,4.02,3.91,4.79l-0.7,1.15C308.75,540.26,307.41,538.98,306.71,537.38z M314.67,545.03
		c0,1.89-2.05,2.99-5.31,2.99c-3.31,0-5.33-1.1-5.33-2.99c0-1.87,2.02-2.97,5.33-2.97C312.62,542.06,314.67,543.16,314.67,545.03z
		 M313.19,545.03c0-1.15-1.44-1.8-3.83-1.8c-2.47,0-3.85,0.65-3.85,1.8s1.39,1.82,3.85,1.82
		C311.75,546.85,313.19,546.18,313.19,545.03z M314.49,537.22v4.43h-1.48v-9.74h1.48v4.07h2.39v1.24H314.49z"/>
	<path class="st1" d="M324.19,538.01h-1.64v-1.69h1.64V538.01z M324.19,545.68h-1.64v-1.69h1.64V545.68z"/>
	<path class="st1" d="M332.18,539.54h-1.26v-6.9h1.46v5.65c2.32-0.02,4.56-0.18,7.17-0.68l0.18,1.21
		C336.97,539.38,334.63,539.54,332.18,539.54z M342.66,547.82h-10.19v-6.66h1.46v2.14h7.27v-2.14h1.46V547.82z M333.93,546.63h7.27
		v-2.14h-7.27V546.63z M342.68,540.29h-1.49v-8.39h1.49v3.6h2.39v1.22h-2.39V540.29z"/>
	<path class="st1" d="M359.33,542.78v5.04h-11.02v-5.04h4.77v-1.89h-6.57v-1.19h14.6v1.19h-6.55v1.89H359.33z M347.88,532.41h11.85
		v1.19h-2.45v3.39h2.38v1.19h-11.72v-1.19h2.38v-3.39h-2.43V532.41z M349.75,546.63h8.14v-2.68h-8.14V546.63z M351.78,536.98h4.02
		v-3.39h-4.02V536.98z"/>
	<path class="st1" d="M371.64,537.65c-0.7,1.87-2.18,3.31-4.07,4.01l-0.77-1.15c2.4-0.86,4.07-3.01,4.07-5.29v-0.81h-3.6v-1.21h8.62
		v1.21h-3.55v0.79c0,2.09,1.58,4.14,3.93,4.95l-0.74,1.15C373.72,540.66,372.34,539.3,371.64,537.65z M369.71,547.68v-4.99h1.5v3.78
		h9.29v1.21H369.71z M380.04,531.9v11.83h-1.49v-6.18h-3.24v-1.21h3.24v-4.45H380.04z"/>
	<path class="st1" d="M391.87,537.65c-0.7,1.87-2.18,3.31-4.07,4.01l-0.77-1.15c2.4-0.86,4.07-3.01,4.07-5.29v-0.81h-3.6v-1.21h8.62
		v1.21h-3.55v0.79c0,2.09,1.58,4.14,3.93,4.95l-0.74,1.15C393.96,540.66,392.57,539.3,391.87,537.65z M389.94,547.68v-4.99h1.5v3.78
		h9.29v1.21H389.94z M400.28,531.9v11.83h-1.49v-6.18h-3.24v-1.21h3.24v-4.45H400.28z"/>
	<path class="st1" d="M411.36,548.06h-1.48v-5.85h-6.52v-1.22h14.58l0.02,1.22h-6.61V548.06z M410.66,535.45
		c-1.01,1.96-3.46,3.35-5.96,3.78l-0.59-1.19c2.95-0.43,5.78-2.36,5.78-4.68v-0.9h1.55v0.9c0,2.25,2.88,4.25,5.82,4.68l-0.61,1.19
		C414.12,538.8,411.72,537.41,410.66,535.45z"/>
	<path class="st1" d="M424.38,541.21l-0.61-1.15c3.91-1.1,6.23-3.19,6.54-5.94h-5.73v-1.21h7.29
		C431.87,537,428.98,539.92,424.38,541.21z M436.87,547.8h-10.42v-6.01h10.42V547.8z M435.43,542.96h-7.53v3.66h7.53V542.96z
		 M435.39,541.11v-3.85h-3.51v-1.21h3.51v-4.16h1.48v9.22H435.39z"/>
	<path class="st1" d="M449.49,543.1l-0.92,1.17c-1.73-0.92-3.19-2.79-3.91-5.02c-0.7,2.39-2.2,4.34-4.01,5.35l-0.88-1.19
		c2.32-1.21,4.16-4.29,4.16-7.22v-2.9h1.46v2.9C445.38,539.02,447.24,541.95,449.49,543.1z M452.39,548.04h-1.48V531.9h1.48v6.54
		h2.67v1.22h-2.67V548.04z"/>
	<path class="st1" d="M456.34,540.51v-1.12h14.64v1.12H456.34z M469.67,547.82h-11.54v-3.58h9.58v-1.35h-9.61v-1.06h11.07v3.44
		h-9.58v1.49h10.08V547.82z M458.18,532.35h10.93v3.37h-9.43v1.39h9.72v1.06h-11.18v-3.46h9.43v-1.31h-9.47V532.35z"/>
	<path class="st1" d="M476.56,541.63v-1.19h6.57v-1.58h-4.64v-6.5h10.89v1.15h-9.42v1.5h8.99v1.12h-8.99v1.58h9.51v1.15h-4.86v1.58
		h6.57v1.19H476.56z M489.39,545.43c0,1.73-1.95,2.59-5.53,2.59s-5.53-0.86-5.53-2.59c0-1.67,1.94-2.58,5.53-2.58
		S489.39,543.75,489.39,545.43z M487.92,545.43c0-0.95-1.44-1.48-4.05-1.48c-2.61,0-4.05,0.52-4.05,1.48c0,1.01,1.44,1.48,4.05,1.48
		C486.48,546.9,487.92,546.43,487.92,545.43z"/>
	<path class="st1" d="M493.01,533.87h4.01v-1.96h1.48v1.96h4.03v1.19h-9.52V533.87z M497.76,541.95c-2.29,0-3.85-1.19-3.85-3.01
		c0-1.8,1.57-2.99,3.85-2.99c2.3,0,3.87,1.19,3.87,2.99C501.63,540.76,500.07,541.95,497.76,541.95z M497.76,540.8
		c1.46,0,2.47-0.7,2.47-1.86s-1.01-1.84-2.47-1.84c-1.51,0-2.45,0.68-2.45,1.84S496.25,540.8,497.76,540.8z M506.21,547.68h-10.77
		v-4.63h1.48v3.42h9.29V547.68z M505.49,538.46V544h-1.48v-12.1h1.48v5.31h2.39v1.24H505.49z"/>
	<path class="st1" d="M523.81,542.92l0.13,1.1c-3.62,0.67-7.58,0.7-10.46,0.7l-0.2-1.24c1.37,0,2.88,0,4.54-0.05v-3.01h1.48v2.94
		C520.8,543.27,522.37,543.16,523.81,542.92z M517.81,535.18h-3.67v-1.19h3.67v-1.98h1.48v1.98h3.73v1.19h-3.73
		c0.05,2.07,1.71,3.75,4.09,4.47l-0.68,1.13c-1.94-0.58-3.38-1.8-4.12-3.4c-0.7,1.73-2.18,2.95-4.12,3.58l-0.68-1.15
		C516.16,539.09,517.76,537.29,517.81,535.18z M524.87,548.06v-16.17h1.48v16.17H524.87z"/>
	<path class="st1" d="M529.57,541.12v-1.19h6.55v-2.32h1.48v2.32h6.57v1.19H529.57z M535.92,533.81h-5.01v-1.19h11.94v1.19h-5.02
		c0.14,1.8,2.72,3.15,5.55,3.44l-0.52,1.17c-2.67-0.29-5.06-1.5-5.98-3.24c-0.92,1.75-3.31,2.95-5.96,3.24l-0.54-1.17
		C533.2,536.96,535.78,535.61,535.92,533.81z M542.39,545.23c0,1.8-2.07,2.79-5.53,2.79s-5.53-0.99-5.53-2.79
		c0-1.78,2.07-2.77,5.53-2.77S542.39,543.45,542.39,545.23z M540.89,545.23c0-1.08-1.49-1.64-4.03-1.64c-2.61,0-4.03,0.56-4.03,1.64
		s1.42,1.66,4.03,1.66C539.4,546.88,540.89,546.31,540.89,545.23z"/>
	<path class="st1" d="M562.62,542.78v5.04H551.6v-5.04h4.77v-1.89h-6.57v-1.19h14.6v1.19h-6.55v1.89H562.62z M551.17,532.41h11.85
		v1.19h-2.45v3.39h2.38v1.19h-11.72v-1.19h2.38v-3.39h-2.43V532.41z M553.04,546.63h8.14v-2.68h-8.14V546.63z M555.07,536.98h4.02
		v-3.39h-4.02V536.98z"/>
	<path class="st1" d="M571.26,536.44c-0.7,1.8-2.2,3.19-4.16,3.85l-0.7-1.17c2.43-0.76,4.09-2.75,4.09-4.95v-0.18h-3.69v-1.19h8.86
		v1.19H572v0.18c0,2.07,1.67,3.91,4.07,4.63l-0.68,1.15C573.49,539.38,572,538.1,571.26,536.44z M569.01,547.86v-4.03h8.97v-1.62h-9
		v-1.15h10.46v3.87h-8.97v1.76h9.51v1.17H569.01z M577.94,531.9h1.48v8.37h-1.48V531.9z"/>
	<path class="st1" d="M591.31,537.16c-0.7,1.87-2.18,3.31-4.07,4.02l-0.77-1.15c2.4-0.86,4.07-3.01,4.07-5.29v-0.61h-3.6v-1.21h8.62
		v1.21h-3.55v0.59c0,2.09,1.58,4.14,3.93,4.95l-0.74,1.15C593.4,540.17,592.01,538.82,591.31,537.16z M599.72,547.82h-10.5v-5.69
		h10.5V547.82z M598.28,543.3h-7.62v3.33h7.62V543.3z M598.22,541.34v-4.18h-3.19v-1.22h3.19v-4.05h1.49v9.45H598.22z"/>
	<path class="st1" d="M603.58,541.21l-0.61-1.15c3.91-1.1,6.23-3.19,6.54-5.94h-5.73v-1.21h7.29
		C611.07,537,608.19,539.92,603.58,541.21z M616.08,547.8h-10.42v-6.01h10.42V547.8z M614.64,542.96h-7.53v3.66h7.53V542.96z
		 M614.6,541.11v-3.85h-3.51v-1.21h3.51v-4.16h1.48v9.22H614.6z"/>
	<path class="st1" d="M210.57,571.86c0-4.63,3.76-8.39,8.39-8.39c4.63,0,8.39,3.76,8.39,8.39c0,4.66-3.8,8.39-8.39,8.39
		C214.33,580.25,210.57,576.49,210.57,571.86z M226.78,571.86c0-4.32-3.49-7.81-7.81-7.81c-4.36,0-7.81,3.55-7.81,7.81
		c0,4.32,3.49,7.81,7.81,7.81S226.78,576.18,226.78,571.86z M215.43,575.3l0.72-0.95c0.63,0.59,1.44,1.1,2.68,1.1
		c1.17,0,2-0.63,2-1.58c0-1.04-0.79-1.73-3.24-1.73v-1.1c2.14,0,2.9-0.67,2.9-1.6c0-0.86-0.63-1.39-1.71-1.39
		c-0.85,0-1.57,0.34-2.2,0.94l-0.77-0.92c0.79-0.72,1.78-1.19,3.01-1.19c1.85,0,3.17,0.88,3.17,2.47c0,1.08-0.76,1.75-1.84,2.16
		v0.05c1.22,0.31,2.2,1.08,2.2,2.38c0,1.66-1.55,2.7-3.47,2.7C217.27,576.63,216.13,576.04,215.43,575.3z"/>
	<path class="st1" d="M240.74,574.31v2.41h-1.48v-2.41h-6.7v-1.17h14.6v1.17H240.74z M233.34,565.38h5.82v-1.67h1.48v1.67h5.69v1.15
		h-12.98V565.38z M245.58,579.68h-11.16v-4.02h1.48v2.84h9.69V579.68z M239.9,567.24c3.33,0,5.2,0.86,5.2,2.45
		c0,1.6-1.87,2.47-5.2,2.47c-3.38,0-5.22-0.86-5.22-2.47C234.67,568.1,236.51,567.24,239.9,567.24z M239.9,568.32
		c-2.39,0-3.73,0.49-3.73,1.37c0,0.88,1.33,1.37,3.73,1.37s3.71-0.49,3.71-1.37C243.6,568.8,242.29,568.32,239.9,568.32z"/>
	<path class="st1" d="M250.8,573.61h-1.17v-5h5.46v-2.38h-5.49v-1.19h6.97v4.72h-5.47v2.65c2.86,0,4.5-0.07,6.43-0.41l0.14,1.21
		C255.59,573.57,253.92,573.61,250.8,573.61z M251.81,579.61v-4.7h1.48v3.51h9.47v1.19H251.81z M257.64,570.22h3.13v-2.41h-3.13
		v-1.19h3.13v-2.72h1.49v11.87h-1.49v-4.34h-3.13V570.22z"/>
	<path class="st1" d="M269.41,569.94c-0.58,1.58-1.69,2.97-3.21,3.75l-0.83-1.13c2.09-1.01,3.31-3.26,3.31-5.15v-2.38h1.42v2.38
		c0,1.93,1.13,3.82,3.17,4.74l-0.81,1.13C271.02,572.57,269.97,571.38,269.41,569.94z M268.44,579.68v-5.15h1.48v3.94h9.53v1.21
		H268.44z M271.88,567.96h2.52v-3.75h1.39v11.33h-1.39v-6.37h-2.52V567.96z M277.55,563.89h1.42V576h-1.42V563.89z"/>
	<path class="st1" d="M290.93,574.46l0.16,1.21c-2.34,0.43-4.3,0.5-7.38,0.5h-1.24v-10.82h7.47v1.22h-6v3.33h5.29v1.19h-5.29v3.87
		C286.87,574.96,288.71,574.83,290.93,574.46z M293.55,580.06v-8.86h-3.33v-1.22h3.33v-6.1h1.48v16.19H293.55z"/>
	<path class="st1" d="M303.96,570.01h-1.64v-1.69h1.64V570.01z M303.96,577.68h-1.64v-1.69h1.64V577.68z"/>
	<path class="st1" d="M309.93,565.87h3.85v-1.98h1.48v1.98h3.71v1.19h-9.04V565.87z M314.5,574.11c-2.14,0-3.66-1.24-3.66-3.1
		c0-1.84,1.51-3.06,3.66-3.06s3.66,1.22,3.66,3.06C318.16,572.87,316.65,574.11,314.5,574.11z M314.5,572.96
		c1.37,0,2.25-0.79,2.25-1.94s-0.88-1.91-2.25-1.91s-2.25,0.76-2.25,1.91S313.14,572.96,314.5,572.96z M312.81,579.68v-4.52h1.48
		v3.31h9.29v1.21H312.81z M323.2,563.9v12.3h-1.49v-3.42h-2.74v-1.21h2.74v-2.18h-2.74v-1.21h2.74v-4.29H323.2z"/>
	<path class="st1" d="M336.36,575.36l-0.83,1.19c-1.87-0.86-3.46-2.72-4.23-4.93c-0.72,2.34-2.36,4.43-4.16,5.33l-0.86-1.19
		c2.32-1.12,4.29-4.14,4.29-6.93v-2.05h-3.75v-1.22h9.02v1.22h-3.8v2.05C332.04,571.56,333.98,574.35,336.36,575.36z M338.01,580.04
		V563.9h1.48v16.13H338.01z"/>
	<path class="st1" d="M351.58,569.27c-0.7,1.87-2.14,3.28-4.09,3.98l-0.77-1.15c2.45-0.86,4.09-2.99,4.09-5.24v-0.65h-3.69v-1.19
		h8.86v1.19h-3.65v0.65c0,2.14,1.67,4.14,4.05,4.92l-0.72,1.17C353.78,572.29,352.32,571,351.58,569.27z M359.76,580.04h-1.48v-4.34
		h-9.33v-1.19h10.8V580.04z M358.28,573.66v-9.78h1.48v9.78H358.28z"/>
	<path class="st1" d="M363,572.58l-0.2-1.22c2.99,0,6.99-0.04,10.41-0.47l0.13,1.06c-1.44,0.22-2.92,0.38-4.38,0.47v3.19h-1.48
		v-3.12C365.88,572.57,364.36,572.58,363,572.58z M364.08,567.34c0-1.69,1.62-2.81,3.98-2.81c2.36,0,3.98,1.12,3.98,2.81
		c0,1.73-1.62,2.83-3.98,2.83C365.7,570.17,364.08,569.07,364.08,567.34z M365.1,579.68v-4.7h1.48v3.49h9.94v1.21H365.1z
		 M365.48,567.34c0,1.08,1.04,1.73,2.58,1.73s2.57-0.65,2.57-1.73c0-1.03-1.04-1.71-2.57-1.71S365.48,566.32,365.48,567.34z
		 M376.1,563.89v12.3h-1.48v-1.66h-3.28v-1.1h3.28v-9.54H376.1z"/>
	<path class="st1" d="M389.89,574.73l0.13,1.1c-3.65,0.67-7.53,0.7-10.46,0.7l-0.18-1.24C382.35,575.28,386.33,575.25,389.89,574.73
		z M388.83,568.87c0,2.25-1.8,3.8-4.32,3.8c-2.5,0-4.32-1.55-4.32-3.8s1.82-3.8,4.32-3.8C387.03,565.08,388.83,566.62,388.83,568.87
		z M381.63,568.87c0,1.49,1.21,2.54,2.88,2.54c1.67,0,2.88-1.04,2.88-2.54c0-1.51-1.21-2.54-2.88-2.54
		C382.83,566.33,381.63,567.36,381.63,568.87z M390.95,580.07v-16.19h1.48v16.19H390.95z"/>
	<path class="st1" d="M403.6,569.47c-0.58,1.51-1.71,2.88-3.29,3.58l-0.79-1.15c2.09-0.9,3.37-3.04,3.37-4.83v-2.18h1.42v2.18
		c0,1.76,1.21,3.62,3.28,4.39l-0.79,1.13C405.28,571.97,404.18,570.84,403.6,569.47z M413.2,577.12c0,1.82-2.09,2.9-5.4,2.9
		c-3.31,0-5.38-1.08-5.38-2.9c0-1.82,2.07-2.9,5.38-2.9C411.11,574.22,413.2,575.3,413.2,577.12z M411.74,577.12
		c0-1.15-1.48-1.75-3.94-1.75s-3.93,0.59-3.93,1.75s1.46,1.76,3.93,1.76S411.74,578.27,411.74,577.12z M408.25,564.21h1.4v4.01h2.05
		v-4.32h1.42v9.96h-1.42v-4.43h-2.05v3.91h-1.4V564.21z"/>
	<path class="st1" d="M420.61,569.47c-0.67,1.94-2.09,3.38-4.03,4.1l-0.77-1.17c2.47-0.86,4.03-3.04,4.03-5.55v-2h1.48v2.03
		c0,2.21,1.6,4.25,3.98,5.11l-0.74,1.17C422.74,572.51,421.33,571.2,420.61,569.47z M429.11,579.68H418.4v-5.01h1.48v3.8h9.24
		V579.68z M428.41,570.06v5.74h-1.48v-11.94h1.48v4.97h2.39v1.22H428.41z"/>
	<path class="st1" d="M441.01,569.65c-0.7,1.87-2.18,3.31-4.07,4.01l-0.77-1.15c2.39-0.86,4.07-3.01,4.07-5.29v-0.81h-3.6v-1.21
		h8.62v1.21h-3.55v0.79c0,2.09,1.58,4.14,3.93,4.95l-0.74,1.15C443.1,572.66,441.71,571.3,441.01,569.65z M439.08,579.68v-4.99h1.5
		v3.78h9.29v1.21H439.08z M449.42,563.9v11.83h-1.5v-6.18h-3.24v-1.21h3.24v-4.45H449.42z"/>
	<path class="st1" d="M460.65,573.34v3.26h-1.48v-3.26h-6.72v-1.19h14.67v1.19H460.65z M465.49,579.68h-11.16v-4.61h1.48v3.4h9.69
		V579.68z M454.36,564.64h10.86v5.67h-10.86V564.64z M455.8,569.13h7.96v-3.29h-7.96V569.13z"/>
	<path class="st1" d="M473.71,569.07c-0.7,1.94-2.14,3.37-4.09,4.11l-0.77-1.21c2.5-0.86,4.09-3.06,4.09-5.51v-1.66h1.48v1.6
		c0,2.29,1.55,4.3,3.92,5.13l-0.79,1.15C475.75,572.03,474.42,570.75,473.71,569.07z M482.21,576.98c0,1.93-2.05,3.04-5.37,3.04
		s-5.38-1.12-5.38-3.04c0-1.94,2.07-3.04,5.38-3.04S482.21,575.03,482.21,576.98z M480.75,576.98c0-1.22-1.44-1.89-3.91-1.89
		s-3.91,0.67-3.91,1.89c0,1.17,1.44,1.87,3.91,1.87S480.75,578.15,480.75,576.98z M477.17,567.33h3.51v-3.42h1.5v9.54h-1.5v-4.92
		h-3.51V567.33z"/>
	<path class="st1" d="M485.23,572.04v-1.19h14.62v1.19H485.23z M486.87,566.97c0-1.82,2.12-2.81,5.67-2.81
		c3.55,0,5.67,0.99,5.67,2.81s-2.12,2.79-5.67,2.79C489,569.76,486.87,568.78,486.87,566.97z M498.47,579.86h-11.42v-3.87h9.47
		v-1.44H487v-1.12h10.98v3.64h-9.49v1.64h9.97V579.86z M488.38,566.97c0,1.08,1.48,1.69,4.16,1.69c2.68,0,4.16-0.61,4.16-1.69
		s-1.48-1.69-4.16-1.69C489.86,565.27,488.38,565.89,488.38,566.97z"/>
	<path class="st1" d="M505.5,572.44v-1.19h6.55v-2.05h-4.59v-4.95h1.48v3.76h9.51v1.19h-4.92v2.05h6.57v1.19H505.5z M518.63,579.82
		h-11.67v-1.19h2.61v-3.4h-2.47v-1.19h11.38v1.19h-2.47v3.4h2.61V579.82z M514.56,575.23h-3.53v3.4h3.53V575.23z"/>
	<path class="st1" d="M530.67,570.76c0,3.44-1.71,5.64-4.11,5.64c-2.39,0-4.1-2.2-4.1-5.64s1.71-5.64,4.1-5.64
		C528.96,565.13,530.67,567.33,530.67,570.76z M523.86,570.76c0,2.63,1.12,4.32,2.7,4.32c1.57,0,2.68-1.69,2.68-4.32
		c0-2.61-1.12-4.3-2.68-4.3C524.98,566.46,523.86,568.15,523.86,570.76z M533.6,580.07v-16.19h1.48v16.19H533.6z"/>
	<path class="st1" d="M539.25,577.03l-0.79-1.21c4.34-2.07,6.5-5.17,6.81-9h-6.07v-1.19h7.56
		C546.76,570.3,544.63,574.38,539.25,577.03z M550.02,580.04v-16.15h1.48v16.15H550.02z"/>
	<path class="st1" d="M564.58,573.72v5.82h-1.48v-5.73c-1.6,0.07-3.1,0.09-4.47,0.09l-0.2-1.24c3.03,0,7.09-0.05,10.64-0.58
		l0.13,1.1C567.68,573.45,566.15,573.63,564.58,573.72z M559.65,567.97c0-1.96,1.73-3.33,4.12-3.33s4.11,1.37,4.11,3.33
		c0,1.96-1.71,3.31-4.11,3.31S559.65,569.94,559.65,567.97z M561.07,567.97c0,1.24,1.12,2.11,2.7,2.11c1.58,0,2.68-0.81,2.68-2.11
		c0-1.3-1.1-2.11-2.68-2.11C562.18,565.87,561.07,566.73,561.07,567.97z M570.25,580.06V563.9h1.48v16.15H570.25z"/>
	<path class="st1" d="M574.91,565.87h4.01v-1.96h1.48v1.96h4.03v1.19h-9.52V565.87z M579.66,573.95c-2.29,0-3.85-1.19-3.85-3.01
		c0-1.8,1.57-2.99,3.85-2.99c2.3,0,3.87,1.19,3.87,2.99C583.53,572.76,581.97,573.95,579.66,573.95z M579.66,572.8
		c1.46,0,2.47-0.7,2.47-1.86s-1.01-1.84-2.47-1.84c-1.51,0-2.45,0.68-2.45,1.84S578.15,572.8,579.66,572.8z M588.11,579.68h-10.77
		v-4.63h1.48v3.42h9.29V579.68z M587.39,570.46V576h-1.48v-12.1h1.48v5.31h2.39v1.24H587.39z"/>
	<path class="st1" d="M600.16,568.82c-0.7,1.8-2.18,3.19-4.12,3.85l-0.76-1.17c2.45-0.77,4.11-2.81,4.11-5.01v-0.36h-3.69v-1.21
		h8.86v1.21h-3.66v0.36c0,2.09,1.67,4.03,4.07,4.75l-0.72,1.13C602.38,571.79,600.9,570.5,600.16,568.82z M608.34,579.82h-10.41
		v-6.41h1.46v1.96h7.49v-1.96h1.46V579.82z M599.39,578.62h7.49v-2.09h-7.49V578.62z M606.86,572.64v-8.75h1.48v8.75H606.86z"/>
	<path class="st1" d="M624.29,577.17c0,1.85-2.05,2.84-5.51,2.84s-5.55-0.99-5.55-2.84c0-1.67,1.71-2.67,4.79-2.81v-1.73h-6.55
		v-1.19h14.6v1.19h-6.55v1.73C622.59,574.51,624.29,575.5,624.29,577.17z M617.82,565.81h-5.01v-1.19h11.94v1.19h-5.02
		c0.14,1.8,2.68,3.15,5.53,3.49l-0.52,1.17c-2.65-0.34-5.04-1.49-5.96-3.29c-0.88,1.8-3.31,2.95-5.96,3.29l-0.52-1.17
		C615.14,568.96,617.68,567.61,617.82,565.81z M618.76,575.48c-2.54,0-4.03,0.61-4.03,1.69s1.5,1.71,4.03,1.71
		c2.54,0,4.03-0.63,4.03-1.71S621.3,575.48,618.76,575.48z"/>
	<path class="st1" d="M631.7,577.77v-1.21h3.58v-5.35h1.46v5.35h2.54v-5.35h1.46v5.35h5.56v1.21H631.7z M633.21,565.51h11.38v1.78
		c0,2.05,0,4.16-0.58,7.18l-1.46-0.18c0.45-2.43,0.56-4.56,0.56-7v-0.58h-9.9V565.51z"/>
	<path class="st1" d="M660.88,574.91v5.15h-1.48v-3.96h-9.7v-1.19h2.23v-2.05h-3.85v-1.19h14.6v1.19h-3.85v2.05H660.88z
		 M649.7,567.36c0-1.94,2.2-3.1,5.67-3.1c3.49,0,5.67,1.15,5.67,3.1c0,1.95-2.18,3.08-5.67,3.08
		C651.9,570.44,649.7,569.31,649.7,567.36z M651.21,567.36c0,1.22,1.55,1.93,4.16,1.93c2.61,0,4.16-0.7,4.16-1.93
		c0-1.22-1.55-1.93-4.16-1.93C652.76,565.44,651.21,566.14,651.21,567.36z M653.41,574.91h3.94v-2.05h-3.94V574.91z"/>
</g>
<path class="st2" d="M369.92,293.2H301.3c-1.66,0-3,1.34-3,3v109.71c0,8.28,6.72,15,15,15h62.55h13.56c1.66,0,3-1.34,3-3V296.2
	c0-1.66-1.34-3-3-3H369.92z"/>
<path class="st2" d="M487.52,293.2h-71.98h-16.13c-1.66,0-3,1.34-3,3v121.71c0,1.66,1.34,3,3,3h29.19h46.69h3.69h8.54
	c1.66,0,3-1.34,3-3V296.2C490.52,294.55,489.18,293.2,487.52,293.2z"/>
<path class="st2" d="M574.75,236.59v42.72c0,1.66,1.34,3,3,3h24.06c1.66,0,3-1.34,3-3v-42.72c0-1.66-1.34-3-3-3h-24.06
	C576.09,233.59,574.75,234.93,574.75,236.59z"/>
<path class="st2" d="M621.06,296.2v121.71c0,1.66,1.34,3,3,3h103.78c8.28,0,15-6.72,15-15V296.2c0-1.66-1.34-3-3-3H624.06
	C622.4,293.2,621.06,294.55,621.06,296.2z"/>
<path class="st2" d="M715.31,259.5v19.81c0,1.66,1.34,3,3,3h21.75c1.66,0,3-1.34,3-3V259.5c0-1.66-1.34-3-3-3h-21.75
	C716.66,256.5,715.31,257.84,715.31,259.5z"/>
<path class="st2" d="M354.62,149.36h-23.38H312.7c-8.28,0-15,6.72-15,15v114.95c0,1.66,1.34,3,3,3h30.53h23.38h63.15
	c1.66,0,3-1.34,3-3V152.36c0-1.66-1.34-3-3-3H354.62z"/>
<path class="st2" d="M501.5,296.2v121.71c0,1.66,1.34,3,3,3h109.56c1.66,0,3-1.34,3-3V296.2c0-1.66-1.34-3-3-3H504.5
	C502.84,293.2,501.5,294.55,501.5,296.2z"/>
<path class="st2" d="M653.27,279.31V152.36c0-1.66-1.34-3-3-3H611.8c-1.66,0-3,1.34-3,3v126.95c0,1.66,1.34,3,3,3h38.46
	C651.92,282.31,653.27,280.96,653.27,279.31z"/>
<path class="st2" d="M463.41,253.02v26.29c0,1.66,1.34,3,3,3h29.3c1.66,0,3-1.34,3-3v-26.29c0-1.66-1.34-3-3-3h-29.3
	C464.75,250.02,463.41,251.36,463.41,253.02z"/>
<rect x="494.8" y="195.51" class="st2" width="3.9" height="8.83"/>
<path class="st2" d="M498.7,208.34h-4.9c-1.66,0-3-1.34-3-3v-3.42h-24.4c-1.66,0-3,1.34-3,3v38.09c0,1.66,1.34,3,3,3h29.3
	c1.66,0,3-1.34,3-3V208.34z"/>
<path class="st2" d="M490.8,197.93v-3.41c0-1.66,1.34-3,3-3h4.9v-39.16c0-1.66-1.34-3-3-3h-29.3c-1.66,0-3,1.34-3,3v42.57
	c0,1.66,1.34,3,3,3H490.8z"/>
<path class="st2" d="M459.41,279.31V152.36c0-1.66-1.34-3-3-3h-28.64c-1.66,0-3,1.34-3,3v126.95c0,1.66,1.34,3,3,3h28.64
	C458.07,282.31,459.41,280.96,459.41,279.31z"/>
<path class="st2" d="M604.8,226.59v-74.23c0-1.66-1.34-3-3-3h-24.06c-1.66,0-3,1.34-3,3v74.23c0,1.66,1.34,3,3,3h24.06
	C603.46,229.59,604.8,228.24,604.8,226.59z"/>
<path class="st2" d="M502.7,209.94v69.36c0,1.66,1.34,3,3,3h62.04c1.66,0,3-1.34,3-3V152.36c0-1.66-1.34-3-3-3H505.7
	c-1.66,0-3,1.34-3,3v39.16V209.94z"/>
<path class="st2" d="M711.31,279.31V255.5c0-1.66,1.34-3,3-3h25.75c1.66,0,3-1.34,3-3v-85.14c0-8.28-6.72-15-15-15h-67.8
	c-1.66,0-3,1.34-3,3v126.95c0,1.66,1.34,3,3,3h48.05C709.97,282.31,711.31,280.96,711.31,279.31z"/>
<path class="st3" d="M792.84,337.63h27.14c1.66,0,3-1.34,3-3V317.7c0-1.66-1.34-3-3-3h-27.14c-1.66,0-3,1.34-3,3v16.93
	C789.84,336.29,791.18,337.63,792.84,337.63z"/>
<path class="st3" d="M792.84,310.7h27.14c1.66,0,3-1.34,3-3v-14.08c0-1.66-1.34-3-3-3h-27.14c-1.66,0-3,1.34-3,3v14.08
	C789.84,309.36,791.18,310.7,792.84,310.7z"/>
<path class="st3" d="M792.84,364.57h27.14c1.66,0,3-1.34,3-3v-16.93c0-1.66-1.34-3-3-3h-27.14c-1.66,0-3,1.34-3,3v16.93
	C789.84,363.23,791.18,364.57,792.84,364.57z"/>
<path class="st3" d="M792.84,393.41h27.14c1.66,0,3-1.34,3-3v-18.84c0-1.66-1.34-3-3-3h-27.14c-1.66,0-3,1.34-3,3v18.84
	C789.84,392.06,791.18,393.41,792.84,393.41z"/>
<path class="st3" d="M792.84,286.62h27.14c1.66,0,3-1.34,3-3v-19.08c0-1.66-1.34-3-3-3h-27.14c-1.66,0-3,1.34-3,3v19.08
	C789.84,285.27,791.18,286.62,792.84,286.62z"/>
<rect x="601.58" y="420.91" class="st0" width="4" height="0"/>
<rect x="420.77" y="149.36" class="st0" width="4" height="132.95"/>
<polygon class="st0" points="463.41,282.31 463.41,250.02 461.41,250.02 461.41,246.02 463.41,246.02 463.41,201.93 461.41,201.93 
	461.41,197.93 463.41,197.93 463.41,149.36 459.41,149.36 459.41,282.31 "/>
<rect x="498.7" y="149.36" class="st0" width="4" height="42.16"/>
<polygon class="st0" points="498.7,209.94 498.7,246.02 500.7,246.02 500.7,250.02 498.7,250.02 498.7,282.31 502.7,282.31 
	502.7,209.94 "/>
<polygon class="st0" points="574.75,282.31 574.75,233.59 572.75,233.59 572.75,229.59 574.75,229.59 574.75,149.36 570.75,149.36 
	570.75,282.31 "/>
<polygon class="st0" points="606.8,229.59 606.8,233.59 604.8,233.59 604.8,282.31 608.8,282.31 608.8,149.36 604.8,149.36 
	604.8,229.59 "/>
<rect x="653.27" y="149.36" class="st0" width="4" height="132.95"/>
<rect x="753.56" y="394.72" class="st0" width="0.11" height="8.69"/>
<rect x="753.56" y="134.06" class="st0" width="0.11" height="87.1"/>
<polygon class="st0" points="746.12,252.5 746.12,256.5 743.07,256.5 743.07,282.31 746.96,282.31 746.96,236.46 746.96,149.36 
	743.07,149.36 743.07,252.5 "/>
<rect x="753.56" y="393.41" class="st0" width="0.11" height="1.31"/>
<polygon class="st0" points="753.56,267.01 753.56,267.01 753.56,293.2 753.56,327.11 753.67,327.11 753.67,221.16 753.56,221.16 
	"/>
<rect x="753.56" y="343.44" class="st0" width="0.11" height="49.96"/>
<polygon class="st0" points="753.56,420.91 727.36,420.91 727.36,426.48 753.56,426.48 753.56,403.4 753.56,403.4 "/>
<rect x="601.58" y="293.2" class="st0" width="4" height="0"/>
<rect x="753.56" y="394.72" class="st0" width="0" height="8.69"/>
<rect x="753.56" y="393.41" class="st0" width="0" height="1.31"/>
<polygon class="st0" points="753.56,327.11 753.56,293.2 753.56,267.01 753.56,267.01 753.56,327.11 "/>
<rect x="753.56" y="343.44" class="st0" width="0" height="49.96"/>
<rect x="753.56" y="327.11" class="st0" width="0.11" height="16.33"/>
<rect x="753.56" y="327.11" class="st0" width="0" height="16.33"/>
<rect x="822.98" y="337.63" class="st0" width="0" height="4"/>
<line class="st0" x1="822.98" y1="314.7" x2="822.98" y2="314.7"/>
<line class="st0" x1="822.98" y1="310.7" x2="822.98" y2="310.7"/>
<path class="st0" d="M743.07,256.5v-4h-28.75c-1.66,0-3,1.34-3,3v26.81h4V256.5H743.07z"/>
<rect x="743.07" y="252.5" class="st0" width="3.06" height="4"/>
<rect x="574.75" y="229.59" class="st0" width="30.06" height="4"/>
<rect x="572.75" y="229.59" class="st0" width="2" height="4"/>
<rect x="604.8" y="229.59" class="st0" width="2" height="4"/>
<rect x="463.41" y="246.02" class="st0" width="35.3" height="4"/>
<rect x="461.41" y="246.02" class="st0" width="2" height="4"/>
<rect x="498.7" y="246.02" class="st0" width="2" height="4"/>
<rect x="461.41" y="197.93" class="st0" width="2" height="4"/>
<path class="st0" d="M498.7,191.51h-4.9c-1.66,0-3,1.34-3,3v3.41h-27.4v4h27.4l1.47,4.72c0,1.66,0.1,1.02,1.76,1.02l4.67,0.27v2h4
	v-18.43H498.7z M498.7,205.94h-3.9v-10.43h3.9V205.94z"/>
<g>
	<g>
		<path class="st0" d="M430.95,357.07c0-6.7,5.46-12.17,12.16-12.17c6.7,0,12.17,5.46,12.17,12.17c0,6.73-5.52,12.16-12.17,12.16
			C436.42,369.23,430.95,363.77,430.95,357.07z M454.33,357.07c0-6.19-5.03-11.21-11.21-11.21c-6.24,0-11.21,5.1-11.21,11.21
			c0,6.18,5.03,11.21,11.21,11.21C449.3,368.28,454.33,363.25,454.33,357.07z M437.71,362.07l1.52-2.06c0.9,0.8,2.01,1.44,3.56,1.44
			c1.31,0,2.24-0.62,2.24-1.65c0-1.16-0.8-1.86-4.07-1.86v-2.29c2.71,0,3.61-0.67,3.61-1.78c0-1-0.62-1.5-1.88-1.5
			c-1.01,0-1.96,0.41-2.89,1.24l-1.62-1.98c1.31-1.11,2.83-1.75,4.59-1.75c3.12,0,5.08,1.31,5.08,3.79c0,1.34-0.83,2.32-2.5,2.96
			v0.08c1.75,0.49,3.02,1.57,3.02,3.35c0,2.53-2.5,3.97-5.52,3.97C440.64,364.03,438.76,363.28,437.71,362.07z"/>
	</g>
</g>
<g>
	<g>
		<path class="st0" d="M332.4,357.07c0-6.7,5.46-12.17,12.16-12.17c6.7,0,12.17,5.46,12.17,12.17c0,6.73-5.52,12.16-12.17,12.16
			C337.86,369.23,332.4,363.77,332.4,357.07z M355.77,357.07c0-6.19-5.03-11.21-11.21-11.21c-6.24,0-11.21,5.1-11.21,11.21
			c0,6.18,5.03,11.21,11.21,11.21C350.75,368.28,355.77,363.25,355.77,357.07z M346.19,354.44c0-1.34-0.67-2.01-2.04-2.01
			c-1.13,0-2.04,0.67-2.78,1.37l-1.8-1.75c1.42-1.44,3.09-2.16,4.97-2.16c2.89,0,4.82,1.7,4.82,4.25c0,2.27-2.37,4.84-4.82,6.96
			c0.75-0.08,1.78-0.13,2.58-0.13h2.76v2.76h-10.03v-1.91C343.63,358.64,346.19,356.35,346.19,354.44z"/>
	</g>
</g>
<path class="st3" d="M756.67,393.41h19.46c1.66,0,3-1.34,3-3v-24.63v-4.45v-20.5c0-1.66-1.34-3-3-3h-19.46c-1.66,0-3,1.34-3,3v49.58
	C753.67,392.06,755.01,393.41,756.67,393.41z"/>
<path class="st3" d="M776.13,327.11c1.65,0,2.99-1.35,2.99-3v-9.41v-4v-20.08v-4v-25.08v-37.38c0-1.66-1.34-3-3-3h-19.46
	c-1.66,0-3,1.34-3,3v99.95c0,1.66,1.34,3,3,3h19.03L776.13,327.11z"/>
<path class="st4" d="M292.33,160.31v113.03c0,8.28,6.72,15,15,15h173.11c8.28,0,15,6.72,15,15v107.03c0,8.28,6.72,15,15,15h222.53
	c8.28,0,15-6.72,15-15V288.35V160.31c0-8.28-6.72-15-15-15H307.33C299.05,145.31,292.33,152.03,292.33,160.31z"/>
<g>
	<path class="st0" d="M524.68,216.32c0-6.7,5.46-12.17,12.16-12.17c6.7,0,12.17,5.46,12.17,12.17c0,6.73-5.52,12.16-12.17,12.16
		C530.14,228.48,524.68,223.02,524.68,216.32z M548.05,216.32c0-6.19-5.03-11.21-11.21-11.21c-6.24,0-11.21,5.1-11.21,11.21
		c0,6.18,5.03,11.21,11.21,11.21C543.03,227.53,548.05,222.5,548.05,216.32z M532.98,210.7c1.55-0.31,2.63-0.67,3.63-1.26h2.47
		v13.53h-3.3v-10.21h-2.81V210.7z"/>
</g>
</svg>
