<?xml version="1.0" encoding="utf-8"?>
<!-- Generator: Adobe Illustrator 26.1.0, SVG Export Plug-In . SVG Version: 6.00 Build 0)  -->
<svg version="1.1" id="Layer_1" xmlns="http://www.w3.org/2000/svg" xmlns:xlink="http://www.w3.org/1999/xlink" x="0px" y="0px"
	 viewBox="0 0 1154 764.7" style="enable-background:new 0 0 1154 764.7;" xml:space="preserve">
<style type="text/css">
	.st0{fill:#ECEEEF;}
	.st1{fill:#303030;}
	.st2{fill:#AFAFAF;}
	.st3{fill:none;}
	.st4{fill:#7D7D7D;}
	.st5{fill:#7D7D7D;stroke:#ECEEEF;stroke-width:3.65;stroke-miterlimit:10;}
</style>
<rect y="0.42" class="st0" width="1154" height="764.27"/>
<g>
	<path class="st1" d="M210.02,414.64c0-4.63,3.76-8.39,8.39-8.39c4.63,0,8.39,3.76,8.39,8.39c0,4.66-3.8,8.39-8.39,8.39
		C213.78,423.03,210.02,419.27,210.02,414.64z M226.22,414.64c0-4.32-3.49-7.81-7.81-7.81c-4.36,0-7.81,3.55-7.81,7.81
		c0,4.32,3.49,7.81,7.81,7.81S226.22,418.96,226.22,414.64z M216.14,410.61c0.95-0.16,1.62-0.4,2.25-0.74h1.13v9.33h-1.48v-7.63
		h-1.91V410.61z"/>
	<path class="st1" d="M232.03,420.78v-1.22h6.57v-3.67h1.49v3.67h6.59v1.22H232.03z M238.6,410.41h-5.2v-1.19h5.2v-2.2h1.49v2.2
		h5.19v1.19h-5.19c0,2.48,2.63,4.39,5.76,4.88l-0.58,1.17c-2.59-0.49-4.92-1.76-5.92-3.75c-1.01,1.98-3.35,3.26-5.94,3.75
		l-0.58-1.17C235.98,414.8,238.6,412.89,238.6,410.41z"/>
	<path class="st1" d="M248.43,420.55v-1.21h5.67v-5.78h1.48v5.78h7.45v1.21H248.43z M249.96,408.28h11.33v1.6
		c0,2.02,0.02,4.21-0.61,7.47l-1.48-0.16c0.63-3.08,0.61-5.38,0.61-7.31v-0.4h-9.85V408.28z"/>
	<path class="st1" d="M269.29,414.95c-2.43,0-4.18-1.51-4.18-3.75c0-2.21,1.75-3.71,4.18-3.71c2.45,0,4.21,1.49,4.21,3.71
		C273.51,413.43,271.74,414.95,269.29,414.95z M269.29,413.72c1.62,0,2.77-1.04,2.77-2.52c0-1.53-1.13-2.48-2.77-2.48
		c-1.6,0-2.75,0.99-2.75,2.48C266.54,412.68,267.69,413.72,269.29,413.72z M277.32,422.6h-10.17v-6.41h1.46v2h7.26v-2h1.46V422.6z
		 M268.61,421.39h7.26v-2.05h-7.26V421.39z M277.32,415.42h-1.48v-8.73h1.48v3.67h2.39v1.22h-2.39V415.42z"/>
	<path class="st1" d="M285.06,415.4v-1.21h5.96v-3.1h1.48v3.1h7.09v1.21H285.06z M297.9,419.84c0,1.82-2.2,2.95-5.64,2.95
		s-5.62-1.13-5.62-2.95c0-1.87,2.18-2.97,5.62-2.97S297.9,417.97,297.9,419.84z M286.77,407.49h11v1.37c0,1.3,0,2.61-0.45,4.27
		l-1.44-0.16c0.43-1.66,0.43-2.86,0.43-4.11v-0.18h-9.54V407.49z M296.42,419.84c0-1.15-1.62-1.84-4.16-1.84
		c-2.52,0-4.14,0.68-4.14,1.84c0,1.13,1.62,1.8,4.14,1.8C294.8,421.64,296.42,421,296.42,419.84z"/>
	<path class="st1" d="M306.16,412.16c-0.7,1.87-2.12,3.26-4.07,3.96l-0.76-1.17c2.45-0.86,4.05-2.9,4.05-5.26v-0.63h-3.62v-1.19
		h8.66v1.19h-3.56v0.63c0,2.11,1.51,4.02,3.91,4.79l-0.7,1.15C308.19,415.04,306.86,413.76,306.16,412.16z M314.12,419.81
		c0,1.89-2.05,2.99-5.31,2.99c-3.31,0-5.33-1.1-5.33-2.99c0-1.87,2.02-2.97,5.33-2.97C312.06,416.84,314.12,417.94,314.12,419.81z
		 M312.64,419.81c0-1.15-1.44-1.8-3.83-1.8c-2.47,0-3.85,0.65-3.85,1.8s1.39,1.82,3.85,1.82
		C311.2,421.63,312.64,420.96,312.64,419.81z M313.94,411.99v4.43h-1.48v-9.74h1.48v4.07h2.39v1.24H313.94z"/>
	<path class="st1" d="M323.64,412.79H322v-1.69h1.64V412.79z M323.64,420.46H322v-1.69h1.64V420.46z"/>
	<path class="st1" d="M331.01,408.28l1.8,3.37c0.34,0.63,0.61,1.15,1.04,1.93h0.07c0.36-0.77,0.59-1.3,0.94-1.93l1.76-3.37h1.75
		l-3.6,6.46l3.85,6.73h-1.84l-1.95-3.57c-0.34-0.65-0.7-1.33-1.13-2.12h-0.07c-0.38,0.77-0.72,1.49-1.06,2.12l-1.91,3.57h-1.75
		l3.85-6.82l-3.6-6.37H331.01z"/>
	<path class="st1" d="M342.23,420.06h5.76v1.42h-7.44v-13.2h1.67V420.06z"/>
	<path class="st1" d="M358.84,412.16c0,2.81-1.98,4.09-4.86,4.09h-2.18v5.24h-1.67v-13.2h3.76
		C356.85,408.28,358.84,409.27,358.84,412.16z M357.19,412.16c0-1.89-1.17-2.52-3.49-2.52h-1.89v5.26h1.96
		C356.09,414.89,357.19,414.05,357.19,412.16z"/>
	<path class="st1" d="M368.94,409.69H363v4.14h5.01v1.42H363v4.81h6.14v1.42h-7.81v-13.2h7.62V409.69z"/>
	<path class="st1" d="M381.24,421.99h-1.39v-7.74h-2.99c-0.92,2-2.45,3.78-5.04,5.22l-0.85-1.06c2.47-1.37,3.94-3.02,4.74-4.92
		l-4.54,0.45l-0.2-1.26l5.13-0.34c0.23-0.85,0.36-1.69,0.41-2.58h-4.75v-1.19h6.18c0,1.51-0.18,3.03-0.63,4.47h2.54v-5.96h1.39
		V421.99z M383.2,422.8v-16.15h1.41v16.15H383.2z"/>
	<path class="st1" d="M396.07,413.54c0,3.44-1.71,5.64-4.11,5.64c-2.39,0-4.1-2.2-4.1-5.64s1.71-5.64,4.1-5.64
		C394.36,407.91,396.07,410.1,396.07,413.54z M389.26,413.54c0,2.63,1.12,4.32,2.7,4.32c1.57,0,2.68-1.69,2.68-4.32
		c0-2.61-1.12-4.3-2.68-4.3C390.38,409.24,389.26,410.93,389.26,413.54z M399,422.85v-16.19h1.48v16.19H399z"/>
	<path class="st1" d="M403.63,414.82v-1.17h14.62v1.17H403.63z M416.86,422.63h-11.42v-3.8h9.47v-1.42h-9.52v-1.12h10.98v3.6h-9.49
		v1.6h9.97V422.63z M405.57,406.95h1.46v1.53h7.85v-1.53h1.46v5.33h-10.77V406.95z M407.03,411.15h7.85v-1.55h-7.85V411.15z"/>
	<path class="st1" d="M420.62,422.83h-1.19l0.65-3.64h1.64L420.62,422.83z"/>
	<path class="st1" d="M427.19,414.84c0-4.23,2.32-6.81,5.64-6.81c3.31,0,5.64,2.58,5.64,6.81c0,4.25-2.32,6.88-5.64,6.88
		C429.51,421.72,427.19,419.09,427.19,414.84z M436.75,414.84c0-3.31-1.55-5.35-3.93-5.35c-2.38,0-3.92,2.03-3.92,5.35
		c0,3.29,1.55,5.42,3.92,5.42C435.2,420.26,436.75,418.13,436.75,414.84z"/>
	<path class="st1" d="M448.74,409.69h-5.94v4.47h5.04v1.4h-5.04v5.92h-1.67v-13.2h7.62V409.69z"/>
	<path class="st1" d="M460.38,421.99H459v-7.74h-2.99c-0.92,2-2.45,3.78-5.04,5.22l-0.85-1.06c2.47-1.37,3.94-3.02,4.74-4.92
		l-4.54,0.45l-0.2-1.26l5.13-0.34c0.23-0.85,0.36-1.69,0.41-2.58h-4.75v-1.19h6.18c0,1.51-0.18,3.03-0.63,4.47H459v-5.96h1.39
		V421.99z M462.35,422.8v-16.15h1.41v16.15H462.35z"/>
	<path class="st1" d="M475.21,413.54c0,3.44-1.71,5.64-4.11,5.64c-2.39,0-4.1-2.2-4.1-5.64s1.71-5.64,4.1-5.64
		C473.5,407.91,475.21,410.1,475.21,413.54z M468.41,413.54c0,2.63,1.12,4.32,2.7,4.32c1.57,0,2.68-1.69,2.68-4.32
		c0-2.61-1.12-4.3-2.68-4.3C469.52,409.24,468.41,410.93,468.41,413.54z M478.15,422.85v-16.19h1.48v16.19H478.15z"/>
	<path class="st1" d="M482.77,414.82v-1.17h14.62v1.17H482.77z M496.01,422.63h-11.42v-3.8h9.47v-1.42h-9.52v-1.12h10.98v3.6h-9.49
		v1.6h9.97V422.63z M484.72,406.95h1.46v1.53h7.85v-1.53h1.46v5.33h-10.77V406.95z M486.17,411.15h7.85v-1.55h-7.85V411.15z"/>
	<path class="st1" d="M503.72,414.91c0-3.53,0.99-6.45,2.65-9.13l1.03,0.47c-1.58,2.61-2.3,5.51-2.3,8.66c0,3.15,0.72,6.05,2.3,8.66
		l-1.03,0.49C504.71,421.37,503.72,418.46,503.72,414.91z"/>
	<path class="st1" d="M511.16,414.6c-0.58,0-1.06,0.36-1.55,1.22l-0.92-0.65c0.74-1.3,1.64-1.8,2.52-1.8c1.58,0,2.41,1.69,3.56,1.69
		c0.58,0,1.08-0.36,1.53-1.22l0.94,0.67c-0.74,1.3-1.64,1.8-2.5,1.8C513.14,416.31,512.31,414.6,511.16,414.6z"/>
	<path class="st1" d="M523.11,412.97c2.79,0,4.29,1.73,4.29,4.03c0,2.81-2.11,4.65-4.79,4.65c-1.58,0-2.92-0.65-3.73-1.42l0.88-1.21
		c0.79,0.67,1.84,1.15,2.92,1.15c1.82,0,3.13-1.13,3.13-3.08c0-1.73-1.12-2.74-3.01-2.74c-0.7,0-1.39,0.16-2.16,0.43l-1.06-0.31
		l1.08-6.25h6.32v1.51h-5.17l-0.59,3.46C521.83,413.04,522.46,412.97,523.11,412.97z"/>
	<path class="st1" d="M533.73,421.73c-2.74,0-4.84-2.14-4.84-6.82c0-4.7,2.11-6.84,4.84-6.84c2.72,0,4.84,2.14,4.84,6.84
		C538.57,419.59,536.45,421.73,533.73,421.73z M533.73,409.42c-1.67,0-3.17,1.37-3.17,5.49c0,4.11,1.5,5.49,3.17,5.49
		c1.67,0,3.19-1.39,3.19-5.49C536.92,410.79,535.41,409.42,533.73,409.42z"/>
	<path class="st1" d="M544.28,421.73c-2.74,0-4.84-2.14-4.84-6.82c0-4.7,2.11-6.84,4.84-6.84c2.72,0,4.84,2.14,4.84,6.84
		C549.12,419.59,547,421.73,544.28,421.73z M544.28,409.42c-1.67,0-3.17,1.37-3.17,5.49c0,4.11,1.5,5.49,3.17,5.49
		c1.67,0,3.19-1.39,3.19-5.49C547.47,410.79,545.95,409.42,544.28,409.42z"/>
	<path class="st1" d="M552.7,416.87h0.04l4.19-5.17h1.82l-3.28,3.93l3.71,5.85h-1.78l-2.86-4.72l-1.84,2.14v2.58h-1.62v-14.33h1.62
		V416.87z"/>
	<path class="st1" d="M563.09,415.43c0.49,1.55,0.76,2.81,1.28,4.36h0.07c0.49-1.57,0.79-2.79,1.28-4.36l2.12-7.15h1.69l-4.2,13.2
		h-1.93l-4.21-13.2h1.75L563.09,415.43z"/>
	<path class="st1" d="M572.43,414.8c0-3.15-0.72-6.05-2.3-8.66l1.01-0.47c1.67,2.68,2.67,5.6,2.67,9.13c0,3.55-0.99,6.46-2.67,9.15
		l-1.01-0.49C571.71,420.85,572.43,417.95,572.43,414.8z"/>
	<path class="st1" d="M210.02,446.64c0-4.63,3.76-8.39,8.39-8.39c4.63,0,8.39,3.76,8.39,8.39c0,4.66-3.8,8.39-8.39,8.39
		C213.78,455.03,210.02,451.27,210.02,446.64z M226.22,446.64c0-4.32-3.49-7.81-7.81-7.81c-4.36,0-7.81,3.55-7.81,7.81
		c0,4.32,3.49,7.81,7.81,7.81S226.22,450.96,226.22,446.64z M220.05,444.55c0-1.08-0.59-1.71-1.84-1.71c-0.88,0-1.62,0.5-2.2,1.06
		l-0.85-0.79c0.92-0.95,1.89-1.46,3.19-1.46c1.95,0,3.13,1.12,3.13,2.79c0,1.73-1.75,3.51-4.05,5.56c0.56-0.05,1.21-0.07,1.84-0.07
		h2.65v1.26h-6.63v-0.86C218.32,447.68,220.05,446.03,220.05,444.55z"/>
	<path class="st1" d="M236.77,444.25c-0.67,1.94-2.09,3.38-4.03,4.1l-0.77-1.17c2.47-0.86,4.03-3.04,4.03-5.55v-2h1.48v2.03
		c0,2.21,1.6,4.25,3.98,5.11l-0.74,1.17C238.89,447.29,237.49,445.97,236.77,444.25z M245.27,454.46h-10.71v-5.01h1.48v3.8h9.24
		V454.46z M244.56,444.84v5.74h-1.48v-11.94h1.48v4.97h2.39v1.22H244.56z"/>
	<path class="st1" d="M260.22,447.34v-3.62h-3.28c-0.29,1.93-1.89,3.17-4.12,3.17c-2.39,0-4.16-1.51-4.16-3.75
		c0-2.21,1.76-3.73,4.16-3.73c2.16,0,3.82,1.24,4.11,3.1h3.29v-3.84h1.49v8.66H260.22z M255.58,443.15c0-1.49-1.15-2.5-2.75-2.5
		s-2.75,1.01-2.75,2.5c0,1.48,1.15,2.52,2.75,2.52S255.58,444.62,255.58,443.15z M261.72,454.6h-10.33v-6.46h1.46v2.03h7.4v-2.03
		h1.48V454.6z M252.84,453.41h7.4v-2.09h-7.4V453.41z"/>
	<path class="st1" d="M269.69,444.43c-0.7,1.87-2.18,3.31-4.07,4.01l-0.77-1.15c2.39-0.86,4.07-3.01,4.07-5.29v-0.81h-3.6v-1.21
		h8.62v1.21h-3.55v0.79c0,2.09,1.58,4.14,3.93,4.95l-0.74,1.15C271.78,447.43,270.39,446.08,269.69,444.43z M267.76,454.46v-4.99
		h1.5v3.78h9.29v1.21H267.76z M278.1,438.68v11.83h-1.5v-6.18h-3.24v-1.21h3.24v-4.45H278.1z"/>
	<path class="st1" d="M285.98,444.23c-0.7,1.94-2.12,3.44-4.02,4.21l-0.77-1.17c2.41-0.86,4.03-3.19,4.03-5.64v-2h1.48v2.05
		c0,2.25,1.6,4.38,3.91,5.24l-0.77,1.13C288.03,447.36,286.68,445.97,285.98,444.23z M284.09,454.46v-5.04h1.48v3.83h9.29v1.21
		H284.09z M289.45,442.46h3.53v-3.78h1.49v12.06h-1.49v-7.06h-3.53V442.46z"/>
	<path class="st1" d="M301.44,447.4v-1.21h5.96v-3.1h1.48v3.1h7.09v1.21H301.44z M314.28,451.84c0,1.82-2.2,2.95-5.64,2.95
		c-3.44,0-5.62-1.13-5.62-2.95c0-1.87,2.18-2.97,5.62-2.97C312.08,448.87,314.28,449.97,314.28,451.84z M303.15,439.49h11v1.37
		c0,1.3,0,2.61-0.45,4.27l-1.44-0.16c0.43-1.66,0.43-2.86,0.43-4.11v-0.18h-9.54V439.49z M312.8,451.84c0-1.15-1.62-1.84-4.16-1.84
		c-2.52,0-4.14,0.68-4.14,1.84c0,1.13,1.62,1.8,4.14,1.8C311.18,453.64,312.8,453,312.8,451.84z"/>
	<path class="st1" d="M322.54,444.16c-0.7,1.87-2.12,3.26-4.07,3.96l-0.76-1.17c2.45-0.86,4.05-2.9,4.05-5.26v-0.63h-3.62v-1.19
		h8.66v1.19h-3.56v0.63c0,2.11,1.51,4.02,3.91,4.79l-0.7,1.15C324.57,447.04,323.24,445.76,322.54,444.16z M330.5,451.81
		c0,1.89-2.05,2.99-5.31,2.99c-3.31,0-5.33-1.1-5.33-2.99c0-1.87,2.02-2.97,5.33-2.97C328.44,448.84,330.5,449.94,330.5,451.81z
		 M329.02,451.81c0-1.15-1.44-1.8-3.83-1.8c-2.47,0-3.85,0.65-3.85,1.8s1.39,1.82,3.85,1.82
		C327.58,453.63,329.02,452.96,329.02,451.81z M330.32,443.99v4.43h-1.48v-9.74h1.48v4.07h2.39v1.24H330.32z"/>
	<path class="st1" d="M340.01,444.79h-1.64v-1.69h1.64V444.79z M340.01,452.46h-1.64v-1.69h1.64V452.46z"/>
	<path class="st1" d="M345.97,452.55v-1.21h5.67v-5.78h1.48v5.78h7.45v1.21H345.97z M347.5,440.28h11.33v1.6
		c0,2.02,0.02,4.21-0.61,7.47l-1.48-0.16c0.63-3.08,0.61-5.38,0.61-7.31v-0.4h-9.85V440.28z"/>
	<path class="st1" d="M366.84,446.95c-2.43,0-4.18-1.51-4.18-3.75c0-2.21,1.75-3.71,4.18-3.71c2.45,0,4.21,1.49,4.21,3.71
		C371.05,445.43,369.28,446.95,366.84,446.95z M366.84,445.72c1.62,0,2.77-1.04,2.77-2.52c0-1.53-1.13-2.48-2.77-2.48
		c-1.6,0-2.75,0.99-2.75,2.48C364.08,444.68,365.23,445.72,366.84,445.72z M374.87,454.6h-10.17v-6.41h1.46v2h7.26v-2h1.46V454.6z
		 M366.15,453.39h7.26v-2.05h-7.26V453.39z M374.87,447.42h-1.48v-8.73h1.48v3.67h2.39v1.22h-2.39V447.42z"/>
	<path class="st1" d="M387.09,445.67c0.67,0,1.15,0.58,1.15,1.15c0,0.59-0.49,1.17-1.15,1.17c-0.63,0-1.12-0.58-1.13-1.17
		C385.95,446.24,386.46,445.67,387.09,445.67z"/>
	<path class="st1" d="M407.91,451.95c0,1.85-2.05,2.84-5.51,2.84s-5.55-0.99-5.55-2.84c0-1.67,1.71-2.67,4.79-2.81v-1.73h-6.55
		v-1.19h14.6v1.19h-6.55v1.73C406.22,449.29,407.91,450.28,407.91,451.95z M401.45,440.59h-5.01v-1.19h11.94v1.19h-5.02
		c0.14,1.8,2.68,3.15,5.53,3.49l-0.52,1.17c-2.65-0.34-5.04-1.49-5.96-3.29c-0.88,1.8-3.31,2.95-5.96,3.29l-0.52-1.17
		C398.77,443.74,401.31,442.39,401.45,440.59z M402.39,450.26c-2.54,0-4.03,0.61-4.03,1.69s1.5,1.71,4.03,1.71
		c2.54,0,4.03-0.63,4.03-1.71S404.92,450.26,402.39,450.26z"/>
	<path class="st1" d="M421.29,450.13l-0.88,1.15c-1.78-0.92-3.37-2.85-4.09-5.08c-0.72,2.39-2.27,4.45-4.11,5.42l-0.86-1.17
		c2.3-1.15,4.23-4.2,4.23-7.06v-1.87h-3.66v-1.21h8.8v1.21h-3.67v1.87C417.06,446.05,418.95,449.04,421.29,450.13z M423.3,454.83
		v-9.09h-3.49v-1.21h3.49v-5.87h1.48v16.17H423.3z"/>
	<path class="st1" d="M432.35,446.95c-2.43,0-4.18-1.51-4.18-3.75c0-2.21,1.75-3.71,4.18-3.71c2.45,0,4.21,1.49,4.21,3.71
		C436.57,445.43,434.8,446.95,432.35,446.95z M432.35,445.72c1.62,0,2.77-1.04,2.77-2.52c0-1.53-1.13-2.48-2.77-2.48
		c-1.6,0-2.75,0.99-2.75,2.48C429.6,444.68,430.75,445.72,432.35,445.72z M440.39,454.6h-10.17v-6.41h1.46v2h7.26v-2h1.46V454.6z
		 M431.67,453.39h7.26v-2.05h-7.26V453.39z M440.39,447.42h-1.48v-8.73h1.48v3.67h2.39v1.22h-2.39V447.42z"/>
	<path class="st1" d="M454.59,453.99h-1.39v-7.74h-2.99c-0.92,2-2.45,3.78-5.04,5.22l-0.85-1.06c2.47-1.37,3.94-3.02,4.74-4.92
		l-4.54,0.45l-0.2-1.26l5.13-0.34c0.23-0.85,0.36-1.69,0.41-2.58h-4.75v-1.19h6.18c0,1.51-0.18,3.03-0.63,4.47h2.54v-5.96h1.39
		V453.99z M456.55,454.8v-16.15h1.41v16.15H456.55z"/>
	<path class="st1" d="M469.42,445.54c0,3.44-1.71,5.64-4.11,5.64c-2.39,0-4.1-2.2-4.1-5.64s1.71-5.64,4.1-5.64
		C467.71,439.91,469.42,442.1,469.42,445.54z M462.61,445.54c0,2.63,1.12,4.32,2.7,4.32c1.57,0,2.68-1.69,2.68-4.32
		c0-2.61-1.12-4.3-2.68-4.3C463.73,441.24,462.61,442.93,462.61,445.54z M472.35,454.85v-16.19h1.48v16.19H472.35z"/>
	<path class="st1" d="M476.98,446.82v-1.17h14.62v1.17H476.98z M490.21,454.63h-11.42v-3.8h9.47v-1.42h-9.52v-1.12h10.98v3.6h-9.49
		v1.6h9.97V454.63z M478.92,438.95h1.46v1.53h7.85v-1.53h1.46v5.33h-10.77V438.95z M480.38,443.15h7.85v-1.55h-7.85V443.15z"/>
	<path class="st1" d="M493.97,454.83h-1.19l0.65-3.64h1.64L493.97,454.83z"/>
	<path class="st1" d="M507.2,450.76h-6.18v-10.57h1.4v3.94h3.39v-3.94h1.39V450.76z M502.43,449.58h3.39v-4.27h-3.39V449.58z
		 M512.76,454.81v-8.55h-2.18v7.76h-1.39v-15h1.39v6.03h2.18v-6.39h1.41v16.15H512.76z"/>
	<path class="st1" d="M521.73,444.43c-0.7,1.87-2.18,3.31-4.07,4.01l-0.77-1.15c2.4-0.86,4.07-3.01,4.07-5.29v-0.81h-3.6v-1.21h8.62
		v1.21h-3.55v0.79c0,2.09,1.58,4.14,3.93,4.95l-0.74,1.15C523.81,447.43,522.43,446.08,521.73,444.43z M519.8,454.46v-4.99h1.5v3.78
		h9.29v1.21H519.8z M530.13,438.68v11.83h-1.49v-6.18h-3.24v-1.21h3.24v-4.45H530.13z"/>
	<path class="st1" d="M533.19,447.85v-1.19h3.62v-2.27c-1.31-0.52-1.98-1.33-1.98-2.43c0-1.87,2.18-3.01,5.67-3.01
		c3.51,0,5.67,1.13,5.67,3.01c0,1.08-0.72,1.91-1.96,2.41v2.29h3.6v1.19H533.19z M546.03,451.93c0,1.85-2.05,2.86-5.53,2.86
		c-3.46,0-5.53-1.01-5.53-2.86s2.07-2.88,5.53-2.88C543.98,449.05,546.03,450.08,546.03,451.93z M540.5,443.81
		c2.61,0,4.16-0.7,4.16-1.85c0-1.17-1.55-1.85-4.16-1.85c-2.61,0-4.16,0.68-4.16,1.85C536.34,443.11,537.89,443.81,540.5,443.81z
		 M544.53,451.93c0-1.1-1.49-1.73-4.03-1.73c-2.54,0-4.03,0.63-4.03,1.73c0,1.1,1.5,1.73,4.03,1.73
		C543.04,453.66,544.53,453.03,544.53,451.93z M542.75,444.77c-0.63,0.13-1.39,0.18-2.25,0.18c-0.81,0-1.57-0.05-2.23-0.18v1.89
		h4.48V444.77z"/>
	<path class="st1" d="M561.43,442.62h-8.01v-1.21h3.28v-2.29h1.46v2.29h3.28V442.62z M560.89,447.38c0,2.2-1.46,3.69-3.46,3.69
		c-2,0-3.46-1.49-3.46-3.69c0-2.16,1.46-3.67,3.46-3.67C559.44,443.71,560.89,445.22,560.89,447.38z M559.58,447.38
		c0-1.4-0.9-2.43-2.14-2.43c-1.3,0-2.14,0.99-2.14,2.43s0.9,2.47,2.14,2.47S559.58,448.82,559.58,447.38z M565.7,454.8v-8.12h-2.07
		v7.35h-1.39v-15h1.39v6.45h2.07v-6.82h1.42v16.15H565.7z"/>
	<path class="st1" d="M579.63,450.13l-0.88,1.15c-1.78-0.92-3.37-2.85-4.09-5.08c-0.72,2.39-2.27,4.45-4.11,5.42l-0.86-1.17
		c2.3-1.15,4.23-4.2,4.23-7.06v-1.87h-3.66v-1.21h8.8v1.21h-3.67v1.87C575.4,446.05,577.29,449.04,579.63,450.13z M581.65,454.83
		v-9.09h-3.49v-1.21h3.49v-5.87h1.48v16.17H581.65z"/>
	<path class="st1" d="M596.55,453.99h-1.39v-7.74h-2.99c-0.92,2-2.45,3.78-5.04,5.22l-0.85-1.06c2.47-1.37,3.94-3.02,4.74-4.92
		l-4.54,0.45l-0.2-1.26l5.13-0.34c0.23-0.85,0.36-1.69,0.41-2.58h-4.75v-1.19h6.18c0,1.51-0.18,3.03-0.63,4.47h2.54v-5.96h1.39
		V453.99z M598.51,454.8v-16.15h1.41v16.15H598.51z"/>
	<path class="st1" d="M611.38,445.54c0,3.44-1.71,5.64-4.11,5.64c-2.39,0-4.1-2.2-4.1-5.64s1.71-5.64,4.1-5.64
		C609.67,439.91,611.38,442.1,611.38,445.54z M604.58,445.54c0,2.63,1.12,4.32,2.7,4.32c1.57,0,2.68-1.69,2.68-4.32
		c0-2.61-1.12-4.3-2.68-4.3C605.69,441.24,604.58,442.93,604.58,445.54z M614.32,454.85v-16.19h1.48v16.19H614.32z"/>
	<path class="st1" d="M618.94,446.82v-1.17h14.62v1.17H618.94z M632.17,454.63h-11.42v-3.8h9.47v-1.42h-9.52v-1.12h10.98v3.6h-9.49
		v1.6h9.97V454.63z M620.89,438.95h1.46v1.53h7.85v-1.53h1.46v5.33h-10.77V438.95z M622.34,443.15h7.85v-1.55h-7.85V443.15z"/>
	<path class="st1" d="M635.93,454.83h-1.19l0.65-3.64h1.64L635.93,454.83z"/>
	<path class="st1" d="M642.41,447.54v-1.19h14.6v1.19H642.41z M648.77,440.68h-5.01v-1.19h11.94v1.19h-5.02
		c0.05,1.78,2.7,3.22,5.53,3.51l-0.52,1.17c-2.65-0.34-5.1-1.48-5.96-3.26c-0.9,1.76-3.33,2.92-5.96,3.26l-0.52-1.17
		C646.14,443.9,648.68,442.46,648.77,440.68z M655.23,451.86c0,1.89-2.09,2.93-5.53,2.93c-3.46,0-5.53-1.04-5.53-2.93
		c0-1.87,2.07-2.92,5.53-2.92C653.14,448.95,655.23,449.99,655.23,451.86z M653.74,451.86c0-1.15-1.49-1.76-4.03-1.76
		c-2.54,0-4.03,0.61-4.03,1.76s1.5,1.76,4.03,1.76C652.24,453.63,653.74,453.01,653.74,451.86z"/>
	<path class="st1" d="M658.77,447.85v-1.19h3.62v-2.27c-1.31-0.52-1.98-1.33-1.98-2.43c0-1.87,2.18-3.01,5.67-3.01
		c3.51,0,5.67,1.13,5.67,3.01c0,1.08-0.72,1.91-1.96,2.41v2.29h3.6v1.19H658.77z M671.61,451.93c0,1.85-2.05,2.86-5.53,2.86
		c-3.46,0-5.53-1.01-5.53-2.86s2.07-2.88,5.53-2.88C669.56,449.05,671.61,450.08,671.61,451.93z M666.08,443.81
		c2.61,0,4.16-0.7,4.16-1.85c0-1.17-1.55-1.85-4.16-1.85c-2.61,0-4.16,0.68-4.16,1.85C661.93,443.11,663.47,443.81,666.08,443.81z
		 M670.12,451.93c0-1.1-1.49-1.73-4.03-1.73c-2.54,0-4.03,0.63-4.03,1.73c0,1.1,1.5,1.73,4.03,1.73
		C668.62,453.66,670.12,453.03,670.12,451.93z M668.34,444.77c-0.63,0.13-1.39,0.18-2.25,0.18c-0.81,0-1.57-0.05-2.23-0.18v1.89
		h4.48V444.77z"/>
	<path class="st1" d="M677.15,447.49h-1.28v-4.57h5.78v-2.03h-5.82v-1.21h7.27v4.38h-5.78v2.23c2.83,0,4.9-0.09,7.35-0.52l0.14,1.21
		C682.28,447.4,680.14,447.49,677.15,447.49z M687.87,451.86c0,1.87-2.05,2.93-5.31,2.93c-3.29,0-5.31-1.06-5.31-2.93
		c0-1.87,2.02-2.95,5.31-2.95C685.81,448.91,687.87,449.99,687.87,451.86z M686.41,451.86c0-1.15-1.39-1.8-3.85-1.8
		s-3.87,0.65-3.87,1.8s1.4,1.8,3.87,1.8S686.41,453.01,686.41,451.86z M690.1,444.59v1.22h-2.39v2.63h-1.48v-9.76h1.48v2.5h2.39
		v1.22h-2.39v2.18H690.1z"/>
	<path class="st1" d="M692.47,451.75l-0.81-1.15c4.2-2.11,6.34-5.1,6.68-8.98h-5.92v-1.22h7.38
		C699.8,444.98,697.69,449.16,692.47,451.75z M703.98,454.81h-1.48v-16.15h1.48v6.55h2.59v1.22h-2.59V454.81z"/>
	<path class="st1" d="M707.97,447.4v-1.21h5.96v-3.1h1.48v3.1h7.09v1.21H707.97z M720.81,451.84c0,1.82-2.2,2.95-5.64,2.95
		c-3.44,0-5.62-1.13-5.62-2.95c0-1.87,2.18-2.97,5.62-2.97C718.61,448.87,720.81,449.97,720.81,451.84z M709.68,439.49h11v1.37
		c0,1.3,0,2.61-0.45,4.27l-1.44-0.16c0.43-1.66,0.43-2.86,0.43-4.11v-0.18h-9.54V439.49z M719.33,451.84c0-1.15-1.62-1.84-4.16-1.84
		c-2.52,0-4.14,0.68-4.14,1.84c0,1.13,1.62,1.8,4.14,1.8C717.71,453.64,719.33,453,719.33,451.84z"/>
	<path class="st1" d="M729.12,444.23c-0.7,1.94-2.12,3.44-4.02,4.21l-0.77-1.17c2.41-0.86,4.03-3.19,4.03-5.64v-2h1.48v2.05
		c0,2.25,1.6,4.38,3.91,5.24l-0.77,1.13C731.17,447.36,729.82,445.97,729.12,444.23z M727.23,454.46v-5.04h1.48v3.83H738v1.21
		H727.23z M732.6,442.46h3.53v-3.78h1.5v12.06h-1.5v-7.06h-3.53V442.46z"/>
	<path class="st1" d="M744.54,447.58v-1.22h14.62v1.22H744.54z M757.36,451.88c0,1.87-2.09,2.92-5.53,2.92
		c-3.44,0-5.53-1.04-5.53-2.92c0-1.87,2.09-2.92,5.53-2.92C755.28,448.96,757.36,450.01,757.36,451.88z M746.38,439.31h10.96v1.19
		h-9.49v3.11h9.6v1.19h-11.07V439.31z M755.87,451.88c0-1.15-1.49-1.76-4.03-1.76c-2.54,0-4.03,0.61-4.03,1.76s1.5,1.76,4.03,1.76
		C754.38,453.64,755.87,453.03,755.87,451.88z"/>
	<path class="st1" d="M210.02,478.64c0-4.63,3.76-8.39,8.39-8.39c4.63,0,8.39,3.76,8.39,8.39c0,4.66-3.8,8.39-8.39,8.39
		C213.78,487.03,210.02,483.27,210.02,478.64z M226.22,478.64c0-4.32-3.49-7.81-7.81-7.81c-4.36,0-7.81,3.55-7.81,7.81
		c0,4.32,3.49,7.81,7.81,7.81S226.22,482.96,226.22,478.64z M214.88,482.08l0.72-0.95c0.63,0.59,1.44,1.1,2.68,1.1
		c1.17,0,2-0.63,2-1.58c0-1.04-0.79-1.73-3.24-1.73v-1.1c2.14,0,2.9-0.67,2.9-1.6c0-0.86-0.63-1.39-1.71-1.39
		c-0.85,0-1.57,0.34-2.2,0.94l-0.77-0.92c0.79-0.72,1.78-1.19,3.01-1.19c1.85,0,3.17,0.88,3.17,2.47c0,1.08-0.76,1.75-1.84,2.16
		v0.05c1.22,0.31,2.2,1.08,2.2,2.38c0,1.66-1.55,2.7-3.47,2.7C216.72,483.41,215.58,482.82,214.88,482.08z"/>
	<path class="st1" d="M232.03,484.71v-1.21h6.52v-3.92h1.48v3.92h6.66v1.21H232.03z M239.29,475.27c-1.06,2.3-3.56,3.98-6.05,4.5
		l-0.61-1.22c2.83-0.49,5.89-2.88,5.89-5.56v-1.24h1.55v1.24c0,2.68,3.08,5.08,5.91,5.56l-0.63,1.22
		C242.87,479.23,240.35,477.58,239.29,475.27z"/>
	<path class="st1" d="M256.64,481.79l-0.86,1.13c-1.58-0.88-2.7-2.41-3.28-4.36c-0.56,2.25-1.67,3.91-3.35,4.92l-0.9-1.12
		c2.3-1.3,3.51-4.07,3.51-7.33v-1.26h-3.13v-1.21h7.49v1.21h-2.93v1.26C253.18,478.01,254.34,480.58,256.64,481.79z M260.76,486.81
		v-8.41h-2.12v7.62h-1.39v-15h1.39v6.16h2.12v-6.54h1.42v16.17H260.76z"/>
	<path class="st1" d="M268.68,479.4v-1.21h5.96v-3.1h1.48v3.1h7.09v1.21H268.68z M281.52,483.84c0,1.82-2.2,2.95-5.64,2.95
		c-3.44,0-5.62-1.13-5.62-2.95c0-1.87,2.18-2.97,5.62-2.97C279.32,480.87,281.52,481.97,281.52,483.84z M270.39,471.49h11v1.37
		c0,1.3,0,2.61-0.45,4.27l-1.44-0.16c0.43-1.66,0.43-2.86,0.43-4.11v-0.18h-9.54V471.49z M280.04,483.84c0-1.15-1.62-1.84-4.16-1.84
		c-2.52,0-4.14,0.68-4.14,1.84c0,1.13,1.62,1.8,4.14,1.8C278.42,485.64,280.04,485,280.04,483.84z"/>
	<path class="st1" d="M289.78,476.16c-0.7,1.87-2.12,3.26-4.07,3.96l-0.76-1.17c2.45-0.86,4.05-2.9,4.05-5.26v-0.63h-3.62v-1.19
		h8.66v1.19h-3.56v0.63c0,2.11,1.51,4.02,3.91,4.79l-0.7,1.15C291.81,479.04,290.48,477.76,289.78,476.16z M297.74,483.81
		c0,1.89-2.05,2.99-5.31,2.99c-3.31,0-5.33-1.1-5.33-2.99c0-1.87,2.02-2.97,5.33-2.97C295.68,480.84,297.74,481.94,297.74,483.81z
		 M296.26,483.81c0-1.15-1.44-1.8-3.83-1.8c-2.47,0-3.85,0.65-3.85,1.8s1.39,1.82,3.85,1.82
		C294.82,485.63,296.26,484.96,296.26,483.81z M297.56,475.99v4.43h-1.48v-9.74h1.48v4.07h2.39v1.24H297.56z"/>
	<path class="st1" d="M307.25,476.79h-1.64v-1.69h1.64V476.79z M307.25,484.46h-1.64v-1.69h1.64V484.46z"/>
	<path class="st1" d="M321.35,480.08v3.26h-1.49v-3.26h-6.7v-1.19h14.66v1.19H321.35z M320.5,473.85c-1.01,1.93-3.37,3.24-5.87,3.67
		l-0.58-1.15c2.86-0.43,5.69-2.34,5.69-4.5v-0.79h1.51v0.79c0,2.12,2.84,4.03,5.65,4.47l-0.56,1.15
		C323.93,477.06,321.51,475.72,320.5,473.85z M326.21,486.46h-11.18v-4.65h1.48v3.44h9.7V486.46z"/>
	<path class="st1" d="M329.56,484.78v-1.22h6.57v-4.14h-4.7v-7.46h10.95v1.21h-9.47v5.06h9.63v1.19h-4.92v4.14h6.61v1.22H329.56z"/>
	<path class="st1" d="M356.14,479.23c-0.7,0.56-1.55,0.85-2.54,0.85c-2.07,0-3.8-1.37-3.8-3.87c0-2.36,1.85-4.25,4.48-4.25
		c2.59,0,4.3,1.8,4.3,4.38c0,1.57-0.58,2.77-1.58,4.16l-3.62,4.99h-2.07l4.11-5.24C355.8,479.74,356.02,479.4,356.14,479.23z
		 M354.15,478.78c1.8,0,2.84-1.26,2.84-2.65c0-1.73-1.17-2.75-2.72-2.75c-1.67,0-2.79,1.1-2.79,2.7
		C351.48,477.83,352.49,478.78,354.15,478.78z"/>
	<path class="st1" d="M366.69,479.23c-0.7,0.56-1.55,0.85-2.54,0.85c-2.07,0-3.8-1.37-3.8-3.87c0-2.36,1.85-4.25,4.48-4.25
		c2.59,0,4.3,1.8,4.3,4.38c0,1.57-0.58,2.77-1.58,4.16l-3.62,4.99h-2.07l4.11-5.24C366.35,479.74,366.57,479.4,366.69,479.23z
		 M364.69,478.78c1.8,0,2.84-1.26,2.84-2.65c0-1.73-1.17-2.75-2.72-2.75c-1.67,0-2.79,1.1-2.79,2.7
		C362.03,477.83,363.04,478.78,364.69,478.78z"/>
	<path class="st1" d="M372.34,485.73h-1.64v-1.69h1.64V485.73z"/>
	<path class="st1" d="M381.2,479.23c-0.7,0.56-1.55,0.85-2.54,0.85c-2.07,0-3.8-1.37-3.8-3.87c0-2.36,1.85-4.25,4.48-4.25
		c2.59,0,4.3,1.8,4.3,4.38c0,1.57-0.58,2.77-1.58,4.16l-3.62,4.99h-2.07l4.11-5.24C380.86,479.74,381.07,479.4,381.2,479.23z
		 M379.2,478.78c1.8,0,2.84-1.26,2.84-2.65c0-1.73-1.17-2.75-2.72-2.75c-1.67,0-2.79,1.1-2.79,2.7
		C376.54,477.83,377.54,478.78,379.2,478.78z"/>
	<path class="st1" d="M388.42,485.48h-1.82l5.38-10.79l0.61-1.01h-6.9v-1.4h8.68v1.06L388.42,485.48z"/>
	<path class="st1" d="M395.69,475.99c0-2.68,1.19-3.98,3.01-3.98c1.87,0,3.04,1.3,3.04,3.98c0,2.68-1.17,4.03-3.04,4.03
		C396.88,480.03,395.69,478.68,395.69,475.99z M400.39,475.99c0-2.07-0.68-2.86-1.69-2.86c-1.01,0-1.67,0.83-1.67,2.86
		c0,2.07,0.68,2.92,1.67,2.92C399.7,478.91,400.39,478.08,400.39,475.99z M400.37,485.7h-1.44l7.29-13.68h1.42L400.37,485.7z
		 M404.8,481.65c0-2.68,1.22-3.98,3.04-3.98s3.02,1.3,3.02,3.98s-1.21,4.01-3.02,4.01S404.8,484.33,404.8,481.65z M409.52,481.65
		c0-2.07-0.67-2.88-1.67-2.88c-1.01,0-1.69,0.81-1.69,2.88s0.68,2.9,1.69,2.9C408.85,484.55,409.52,483.74,409.52,481.65z"/>
	<path class="st1" d="M416.23,484.55v-1.21h5.67v-5.78h1.48v5.78h7.45v1.21H416.23z M417.76,472.28h11.33v1.6
		c0,2.02,0.02,4.21-0.61,7.47l-1.48-0.16c0.63-3.08,0.61-5.38,0.61-7.31v-0.4h-9.85V472.28z"/>
	<path class="st1" d="M445.41,481.56v5.04h-11.02v-5.04h4.77v-1.89h-6.57v-1.19h14.6v1.19h-6.55v1.89H445.41z M433.96,471.19h11.85
		v1.19h-2.45v3.39h2.38v1.19h-11.72v-1.19h2.38v-3.39h-2.43V471.19z M435.83,485.41h8.14v-2.68h-8.14V485.41z M437.86,475.76h4.02
		v-3.39h-4.02V475.76z"/>
	<path class="st1" d="M454.05,475.22c-0.7,1.8-2.2,3.19-4.16,3.85l-0.7-1.17c2.43-0.76,4.09-2.75,4.09-4.95v-0.18h-3.69v-1.19h8.86
		v1.19h-3.65v0.18c0,2.07,1.67,3.91,4.07,4.63l-0.68,1.15C456.28,478.15,454.78,476.88,454.05,475.22z M451.79,486.63v-4.03h8.97
		v-1.62h-9v-1.15h10.46v3.87h-8.97v1.76h9.51v1.17H451.79z M460.73,470.68h1.48v8.37h-1.48V470.68z"/>
	<path class="st1" d="M469.29,478.89c0-4.27,2.49-6.86,5.85-6.86c1.6,0,2.86,0.79,3.62,1.64l-0.9,1.08c-0.7-0.74-1.55-1.26-2.7-1.26
		c-2.5,0-4.16,2.03-4.16,5.35c0,3.33,1.58,5.42,4.11,5.42c1.3,0,2.21-0.56,3.06-1.48l0.92,1.04c-1.08,1.22-2.32,1.89-4.05,1.89
		C471.77,485.72,469.29,483.16,469.29,478.89z"/>
	<path class="st1" d="M480.47,480.6c0-3.26,2.14-5.15,4.54-5.15c2.39,0,4.54,1.89,4.54,5.15c0,3.24-2.14,5.11-4.54,5.11
		C482.61,485.72,480.47,483.84,480.47,480.6z M487.85,480.6c0-2.25-1.17-3.78-2.84-3.78c-1.67,0-2.83,1.53-2.83,3.78
		c0,2.25,1.15,3.75,2.83,3.75C486.68,484.35,487.85,482.85,487.85,480.6z"/>
	<path class="st1" d="M493.43,476.82h0.05c0.88-0.72,1.96-1.37,3.12-1.37c2.52,0,3.89,1.98,3.89,4.99c0,3.37-2.02,5.28-4.25,5.28
		c-0.88,0-1.82-0.41-2.7-1.13l0.04,1.71v3.31h-1.64v-13.9h1.35L493.43,476.82z M498.78,480.46c0-2.16-0.72-3.62-2.57-3.62
		c-0.85,0-1.67,0.47-2.63,1.35v5.13c0.88,0.77,1.75,1.03,2.39,1.03C497.61,484.35,498.78,482.89,498.78,480.46z"/>
	<path class="st1" d="M504.41,476.82h0.05c0.88-0.72,1.96-1.37,3.12-1.37c2.52,0,3.89,1.98,3.89,4.99c0,3.37-2.02,5.28-4.25,5.28
		c-0.88,0-1.82-0.41-2.7-1.13l0.04,1.71v3.31h-1.64v-13.9h1.35L504.41,476.82z M509.76,480.46c0-2.16-0.72-3.62-2.58-3.62
		c-0.85,0-1.67,0.47-2.63,1.35v5.13c0.88,0.77,1.75,1.03,2.39,1.03C508.59,484.35,509.76,482.89,509.76,480.46z"/>
	<path class="st1" d="M513.16,480.6c0-3.17,2.14-5.15,4.41-5.15c2.49,0,3.89,1.8,3.89,4.59c0,0.36-0.02,0.7-0.07,0.94h-6.59
		c0.13,2.11,1.37,3.42,3.24,3.42c0.95,0,1.73-0.29,2.45-0.77l0.59,1.08c-0.86,0.56-1.87,1.01-3.24,1.01
		C515.24,485.72,513.16,483.84,513.16,480.6z M517.59,476.77c-1.39,0-2.61,1.12-2.81,3.04h5.24
		C520.02,477.78,519.12,476.77,517.59,476.77z"/>
	<path class="st1" d="M525.18,477.49h0.05c0.7-1.24,1.67-2.04,2.77-2.04c0.43,0,0.74,0.05,1.04,0.22l-0.31,1.44
		c-0.34-0.13-0.54-0.16-0.95-0.16c-0.79,0-1.84,0.58-2.47,2.25v6.28h-1.64v-9.78h1.35L525.18,477.49z"/>
	<path class="st1" d="M536.16,479.88v5.6h-1.67v-13.2h4.14c2.68,0,4.61,0.96,4.61,3.71c0,2.11-1.19,3.28-2.99,3.71l3.38,5.78h-1.89
		l-3.21-5.6H536.16z M541.58,475.99c0-1.75-1.1-2.36-3.21-2.36h-2.21v4.9h2.21C540.48,478.53,541.58,477.72,541.58,475.99z"/>
	<path class="st1" d="M544.85,480.6c0-3.26,2.14-5.15,4.54-5.15c2.39,0,4.54,1.89,4.54,5.15c0,3.24-2.14,5.11-4.54,5.11
		C547,485.72,544.85,483.84,544.85,480.6z M552.24,480.6c0-2.25-1.17-3.78-2.84-3.78c-1.67,0-2.83,1.53-2.83,3.78
		c0,2.25,1.15,3.75,2.83,3.75C551.07,484.35,552.24,482.85,552.24,480.6z"/>
	<path class="st1" d="M555.62,480.6c0-3.17,2-5.15,4.23-5.15c1.15,0,1.89,0.43,2.75,1.15l-0.09-1.69v-3.76h1.64v14.33h-1.33
		l-0.16-1.15h-0.04c-0.77,0.77-1.8,1.39-2.97,1.39C557.2,485.72,555.62,483.86,555.62,480.6z M562.51,483v-5.13
		c-0.85-0.74-1.57-1.03-2.38-1.03c-1.58,0-2.83,1.51-2.83,3.75c0,2.39,0.97,3.76,2.7,3.76C560.93,484.35,561.7,483.92,562.51,483z"
		/>
	<path class="st1" d="M574.56,476.25c-0.58,1.51-1.71,2.88-3.29,3.58l-0.79-1.15c2.09-0.9,3.37-3.04,3.37-4.83v-2.18h1.42v2.18
		c0,1.76,1.21,3.62,3.28,4.39l-0.79,1.13C576.23,478.75,575.13,477.61,574.56,476.25z M584.15,483.9c0,1.82-2.09,2.9-5.4,2.9
		c-3.31,0-5.38-1.08-5.38-2.9c0-1.82,2.07-2.9,5.38-2.9C582.06,481,584.15,482.08,584.15,483.9z M582.69,483.9
		c0-1.15-1.48-1.75-3.94-1.75s-3.93,0.59-3.93,1.75s1.46,1.76,3.93,1.76S582.69,485.05,582.69,483.9z M579.2,470.99h1.4V475h2.05
		v-4.32h1.42v9.96h-1.42v-4.43h-2.05v3.91h-1.4V470.99z"/>
	<path class="st1" d="M591.56,476.25c-0.67,1.94-2.09,3.38-4.03,4.1l-0.77-1.17c2.47-0.86,4.03-3.04,4.03-5.55v-2h1.48v2.03
		c0,2.21,1.6,4.25,3.98,5.11l-0.74,1.17C593.69,479.29,592.29,477.97,591.56,476.25z M600.06,486.46h-10.71v-5.01h1.48v3.8h9.24
		V486.46z M599.36,476.84v5.74h-1.48v-11.94h1.48v4.97h2.39v1.22H599.36z"/>
	<path class="st1" d="M226.8,510.64c0,4.66-3.8,8.39-8.39,8.39c-4.63,0-8.39-3.76-8.39-8.39c0-4.63,3.76-8.39,8.39-8.39
		C223.04,502.25,226.8,506.01,226.8,510.64z M226.22,510.64c0-4.32-3.49-7.81-7.81-7.81c-4.36,0-7.81,3.55-7.81,7.81
		c0,4.32,3.49,7.81,7.81,7.81S226.22,514.96,226.22,510.64z M221.7,512.71h-1.39v2.48h-1.4v-2.48h-4.61v-0.99l4.32-5.85h1.69v5.71
		h1.39V512.71z M218.97,507.33h-0.07c-0.27,0.5-0.47,0.77-0.81,1.28l-2.25,2.97h3.08v-2.38
		C218.91,508.68,218.91,507.89,218.97,507.33z"/>
	<path class="st1" d="M232.01,512.41v-1.19h6.57v-1.58h-4.64v-6.5h10.89v1.15h-9.42v1.5h8.99v1.12h-8.99v1.58h9.51v1.15h-4.86v1.58
		h6.57v1.19H232.01z M244.85,516.2c0,1.73-1.95,2.59-5.53,2.59s-5.53-0.86-5.53-2.59c0-1.67,1.94-2.58,5.53-2.58
		S244.85,514.53,244.85,516.2z M243.38,516.2c0-0.95-1.44-1.48-4.05-1.48c-2.61,0-4.05,0.52-4.05,1.48c0,1.01,1.44,1.48,4.05,1.48
		C241.94,517.68,243.38,517.21,243.38,516.2z"/>
	<path class="st1" d="M253.38,507.89c-0.7,1.96-2.14,3.53-4.03,4.32l-0.77-1.21c2.45-0.92,4.05-3.28,4.05-5.8v-1.64h1.48v1.64
		c0,2.43,1.66,4.65,4.03,5.51l-0.77,1.17C255.49,511.18,254.1,509.76,253.38,507.89z M251.27,518.46v-5.04h1.48v3.83h9.4v1.21
		H251.27z M260.19,502.66h1.48v11.85h-1.48V502.66z"/>
	<path class="st1" d="M268.68,511.4v-1.21h5.96v-3.1h1.48v3.1h7.09v1.21H268.68z M281.52,515.84c0,1.82-2.2,2.95-5.64,2.95
		c-3.44,0-5.62-1.13-5.62-2.95c0-1.87,2.18-2.97,5.62-2.97C279.32,512.87,281.52,513.97,281.52,515.84z M270.39,503.49h11v1.37
		c0,1.3,0,2.61-0.45,4.27l-1.44-0.16c0.43-1.66,0.43-2.86,0.43-4.11v-0.18h-9.54V503.49z M280.04,515.84c0-1.15-1.62-1.84-4.16-1.84
		c-2.52,0-4.14,0.68-4.14,1.84c0,1.13,1.62,1.8,4.14,1.8C278.42,517.64,280.04,517,280.04,515.84z"/>
	<path class="st1" d="M289.78,508.16c-0.7,1.87-2.12,3.26-4.07,3.96l-0.76-1.17c2.45-0.86,4.05-2.9,4.05-5.26v-0.63h-3.62v-1.19
		h8.66v1.19h-3.56v0.63c0,2.11,1.51,4.02,3.91,4.79l-0.7,1.15C291.81,511.04,290.48,509.76,289.78,508.16z M297.74,515.81
		c0,1.89-2.05,2.99-5.31,2.99c-3.31,0-5.33-1.1-5.33-2.99c0-1.87,2.02-2.97,5.33-2.97C295.68,512.84,297.74,513.94,297.74,515.81z
		 M296.26,515.81c0-1.15-1.44-1.8-3.83-1.8c-2.47,0-3.85,0.65-3.85,1.8s1.39,1.82,3.85,1.82
		C294.82,517.63,296.26,516.96,296.26,515.81z M297.56,507.99v4.43h-1.48v-9.74h1.48v4.07h2.39v1.24H297.56z"/>
	<path class="st1" d="M307.25,508.79h-1.64v-1.69h1.64V508.79z M307.25,516.46h-1.64v-1.69h1.64V516.46z"/>
	<path class="st1" d="M323.58,510.84c0,4.18-2.2,6.64-6.16,6.64h-3.38v-13.2h3.31C321.51,504.28,323.58,506.54,323.58,510.84z
		 M321.85,510.84c0-3.4-1.46-5.2-4.65-5.2h-1.5v10.48h1.5C320.32,516.11,321.85,514.17,321.85,510.84z"/>
	<path class="st1" d="M326.17,517.48h-1.69l4.48-13.2h1.85l4.48,13.2h-1.76l-1.26-4.03h-4.83L326.17,517.48z M329.9,505.63h-0.07
		c-0.41,1.58-0.83,2.95-1.31,4.47l-0.65,2.02h4l-0.63-2.02C330.75,508.59,330.33,507.17,329.9,505.63z"/>
	<path class="st1" d="M335.73,504.28h9.67v1.4h-4v11.79h-1.67v-11.79h-4V504.28z"/>
	<path class="st1" d="M347.52,517.48h-1.69l4.48-13.2h1.85l4.48,13.2h-1.76l-1.26-4.03h-4.83L347.52,517.48z M351.25,505.63h-0.07
		c-0.41,1.58-0.83,2.95-1.31,4.47l-0.65,2.02h4l-0.63-2.02C352.09,508.59,351.68,507.17,351.25,505.63z"/>
	<path class="st1" d="M371.68,517.99h-1.39v-7.74h-2.99c-0.92,2-2.45,3.78-5.04,5.22l-0.85-1.06c2.47-1.37,3.94-3.02,4.74-4.92
		l-4.54,0.45l-0.2-1.26l5.13-0.34c0.23-0.85,0.36-1.69,0.41-2.58h-4.75v-1.19h6.18c0,1.51-0.18,3.03-0.63,4.47h2.54v-5.96h1.39
		V517.99z M373.64,518.8v-16.15h1.41v16.15H373.64z"/>
	<path class="st1" d="M386.51,509.54c0,3.44-1.71,5.64-4.11,5.64c-2.39,0-4.1-2.2-4.1-5.64s1.71-5.64,4.1-5.64
		C384.8,503.91,386.51,506.1,386.51,509.54z M379.7,509.54c0,2.63,1.12,4.32,2.7,4.32c1.57,0,2.68-1.69,2.68-4.32
		c0-2.61-1.12-4.3-2.68-4.3C380.82,505.24,379.7,506.93,379.7,509.54z M389.44,518.85v-16.19h1.48v16.19H389.44z"/>
	<path class="st1" d="M394.07,510.82v-1.17h14.62v1.17H394.07z M407.3,518.63h-11.42v-3.8h9.47v-1.42h-9.52v-1.12h10.98v3.6h-9.49
		v1.6h9.97V518.63z M396.01,502.95h1.46v1.53h7.85v-1.53h1.46v5.33h-10.77V502.95z M397.47,507.15h7.85v-1.55h-7.85V507.15z"/>
	<path class="st1" d="M411.06,518.83h-1.19l0.65-3.64h1.64L411.06,518.83z"/>
	<path class="st1" d="M425.55,518.8h-1.48v-5.55h-6.55v-1.21h14.66v1.21h-6.63V518.8z M419.39,503.56h10.91v6.28h-10.91V503.56z
		 M420.83,508.68h8.01v-3.92h-8.01V508.68z"/>
	<path class="st1" d="M438.73,508.23c-0.7,1.94-2.12,3.44-4.02,4.21l-0.77-1.17c2.41-0.86,4.03-3.19,4.03-5.64v-2h1.48v2.05
		c0,2.25,1.6,4.38,3.91,5.24l-0.77,1.13C440.78,511.36,439.43,509.97,438.73,508.23z M436.84,518.46v-5.04h1.48v3.83h9.29v1.21
		H436.84z M442.2,506.46h3.53v-3.78h1.49v12.06h-1.49v-7.06h-3.53V506.46z"/>
	<path class="st1" d="M450.28,512.41v-1.19h6.57v-1.58h-4.64v-6.5h10.89v1.15h-9.42v1.5h8.99v1.12h-8.99v1.58h9.51v1.15h-4.86v1.58
		h6.57v1.19H450.28z M463.12,516.2c0,1.73-1.95,2.59-5.53,2.59s-5.53-0.86-5.53-2.59c0-1.67,1.94-2.58,5.53-2.58
		S463.12,514.53,463.12,516.2z M461.64,516.2c0-0.95-1.44-1.48-4.05-1.48c-2.61,0-4.05,0.52-4.05,1.48c0,1.01,1.44,1.48,4.05,1.48
		C460.2,517.68,461.64,517.21,461.64,516.2z"/>
	<path class="st1" d="M471.65,507.89c-0.7,1.96-2.14,3.53-4.03,4.32l-0.77-1.21c2.45-0.92,4.05-3.28,4.05-5.8v-1.64h1.48v1.64
		c0,2.43,1.66,4.65,4.03,5.51l-0.77,1.17C473.76,511.18,472.37,509.76,471.65,507.89z M469.54,518.46v-5.04h1.48v3.83h9.4v1.21
		H469.54z M478.46,502.66h1.48v11.85h-1.48V502.66z"/>
	<path class="st1" d="M483.04,511.85v-1.19h3.62v-2.27c-1.31-0.52-1.98-1.33-1.98-2.43c0-1.87,2.18-3.01,5.67-3.01
		c3.51,0,5.67,1.13,5.67,3.01c0,1.08-0.72,1.91-1.96,2.41v2.29h3.6v1.19H483.04z M495.88,515.93c0,1.85-2.05,2.86-5.53,2.86
		c-3.46,0-5.53-1.01-5.53-2.86s2.07-2.88,5.53-2.88C493.83,513.05,495.88,514.08,495.88,515.93z M490.35,507.81
		c2.61,0,4.16-0.7,4.16-1.85c0-1.17-1.55-1.85-4.16-1.85c-2.61,0-4.16,0.68-4.16,1.85C486.19,507.11,487.74,507.81,490.35,507.81z
		 M494.39,515.93c0-1.1-1.49-1.73-4.03-1.73c-2.54,0-4.03,0.63-4.03,1.73c0,1.1,1.5,1.73,4.03,1.73
		C492.89,517.66,494.39,517.03,494.39,515.93z M492.6,508.77c-0.63,0.13-1.39,0.18-2.25,0.18c-0.81,0-1.57-0.05-2.23-0.18v1.89h4.48
		V508.77z"/>
	<path class="st1" d="M513.65,517.99h-1.39v-7.74h-2.99c-0.92,2-2.45,3.78-5.04,5.22l-0.85-1.06c2.47-1.37,3.94-3.02,4.74-4.92
		l-4.54,0.45l-0.2-1.26l5.13-0.34c0.23-0.85,0.36-1.69,0.41-2.58h-4.75v-1.19h6.18c0,1.51-0.18,3.03-0.63,4.47h2.54v-5.96h1.39
		V517.99z M515.61,518.8v-16.15h1.41v16.15H515.61z"/>
	<path class="st1" d="M528.48,509.54c0,3.44-1.71,5.64-4.11,5.64c-2.39,0-4.1-2.2-4.1-5.64s1.71-5.64,4.1-5.64
		C526.77,503.91,528.48,506.1,528.48,509.54z M521.67,509.54c0,2.63,1.12,4.32,2.7,4.32c1.57,0,2.68-1.69,2.68-4.32
		c0-2.61-1.12-4.3-2.68-4.3C522.79,505.24,521.67,506.93,521.67,509.54z M531.41,518.85v-16.19h1.48v16.19H531.41z"/>
	<path class="st1" d="M536.03,510.82v-1.17h14.62v1.17H536.03z M549.27,518.63h-11.42v-3.8h9.47v-1.42h-9.52v-1.12h10.98v3.6h-9.49
		v1.6h9.97V518.63z M537.98,502.95h1.46v1.53h7.85v-1.53h1.46v5.33h-10.77V502.95z M539.44,507.15h7.85v-1.55h-7.85V507.15z"/>
	<path class="st1" d="M553.03,518.83h-1.19l0.65-3.64h1.64L553.03,518.83z"/>
	<path class="st1" d="M559.56,511.63l-0.16-1.22h1.64c0.58,0,1.15-0.02,1.78-0.04v-3.19h1.46v3.15c1.8-0.07,3.58-0.18,5.24-0.4
		l0.11,1.08C566.26,511.54,562.46,511.63,559.56,511.63z M566.94,504.86h-6.55v-1.19h7.99v0.86c0,1.03,0,2.45-0.41,4.39l-1.44-0.13
		C566.91,507.08,566.94,505.87,566.94,504.86z M572.23,515.84c0,1.87-2.05,2.93-5.37,2.93c-3.31,0-5.37-1.06-5.37-2.93
		c0-1.82,2.05-2.9,5.37-2.9C570.18,512.95,572.23,514.03,572.23,515.84z M570.74,515.84c0-1.1-1.48-1.75-3.87-1.75
		s-3.87,0.65-3.87,1.75c0,1.15,1.48,1.76,3.87,1.76S570.74,517,570.74,515.84z M572.07,508.3v4.43h-1.48v-10.08h1.48v4.43h2.3v1.22
		H572.07z"/>
	<path class="st1" d="M586.24,517.99h-1.39v-7.74h-2.99c-0.92,2-2.45,3.78-5.04,5.22l-0.85-1.06c2.47-1.37,3.94-3.02,4.74-4.92
		l-4.54,0.45l-0.2-1.26l5.13-0.34c0.23-0.85,0.36-1.69,0.41-2.58h-4.75v-1.19h6.18c0,1.51-0.18,3.03-0.63,4.47h2.54v-5.96h1.39
		V517.99z M588.2,518.8v-16.15h1.41v16.15H588.2z"/>
	<path class="st1" d="M601.07,509.54c0,3.44-1.71,5.64-4.11,5.64c-2.39,0-4.1-2.2-4.1-5.64s1.71-5.64,4.1-5.64
		C599.36,503.91,601.07,506.1,601.07,509.54z M594.27,509.54c0,2.63,1.12,4.32,2.7,4.32c1.57,0,2.68-1.69,2.68-4.32
		c0-2.61-1.12-4.3-2.68-4.3C595.38,505.24,594.27,506.93,594.27,509.54z M604.01,518.85v-16.19h1.48v16.19H604.01z"/>
	<path class="st1" d="M608.63,510.82v-1.17h14.62v1.17H608.63z M621.86,518.63h-11.42v-3.8h9.47v-1.42h-9.52v-1.12h10.98v3.6h-9.49
		v1.6h9.97V518.63z M610.57,502.95h1.46v1.53h7.85v-1.53h1.46v5.33h-10.77V502.95z M612.03,507.15h7.85v-1.55h-7.85V507.15z"/>
	<path class="st1" d="M628.88,511.58v-1.22h14.62v1.22H628.88z M641.7,515.88c0,1.87-2.09,2.92-5.53,2.92
		c-3.44,0-5.53-1.04-5.53-2.92c0-1.87,2.09-2.92,5.53-2.92C639.61,512.96,641.7,514.01,641.7,515.88z M630.71,503.31h10.96v1.19
		h-9.49v3.11h9.6v1.19h-11.07V503.31z M640.2,515.88c0-1.15-1.49-1.76-4.03-1.76c-2.54,0-4.03,0.61-4.03,1.76s1.5,1.76,4.03,1.76
		C638.71,517.64,640.2,517.03,640.2,515.88z"/>
	<path class="st1" d="M655.88,513.5l0.13,1.1c-3.65,0.67-7.53,0.7-10.46,0.7l-0.18-1.24C648.34,514.06,652.32,514.03,655.88,513.5z
		 M654.82,507.65c0,2.25-1.8,3.8-4.32,3.8c-2.5,0-4.32-1.55-4.32-3.8s1.82-3.8,4.32-3.8C653.02,503.85,654.82,505.4,654.82,507.65z
		 M647.62,507.65c0,1.49,1.21,2.54,2.88,2.54c1.67,0,2.88-1.04,2.88-2.54c0-1.51-1.21-2.54-2.88-2.54
		C648.82,505.11,647.62,506.14,647.62,507.65z M656.94,518.85v-16.19h1.48v16.19H656.94z"/>
	<path class="st1" d="M665.47,512.41v-1.19h6.57v-1.58h-4.64v-6.5h10.89v1.15h-9.42v1.5h8.99v1.12h-8.99v1.58h9.51v1.15h-4.86v1.58
		h6.57v1.19H665.47z M678.31,516.2c0,1.73-1.95,2.59-5.53,2.59s-5.53-0.86-5.53-2.59c0-1.67,1.94-2.58,5.53-2.58
		S678.31,514.53,678.31,516.2z M676.83,516.2c0-0.95-1.44-1.48-4.05-1.48c-2.61,0-4.05,0.52-4.05,1.48c0,1.01,1.44,1.48,4.05,1.48
		C675.39,517.68,676.83,517.21,676.83,516.2z"/>
	<path class="st1" d="M686.84,507.89c-0.7,1.96-2.14,3.53-4.03,4.32l-0.77-1.21c2.45-0.92,4.05-3.28,4.05-5.8v-1.64h1.48v1.64
		c0,2.43,1.66,4.65,4.03,5.51l-0.77,1.17C688.95,511.18,687.56,509.76,686.84,507.89z M684.73,518.46v-5.04h1.48v3.83h9.4v1.21
		H684.73z M693.65,502.66h1.48v11.85h-1.48V502.66z"/>
	<path class="st1" d="M712.46,517.99h-1.39v-7.74h-2.99c-0.92,2-2.45,3.78-5.04,5.22l-0.85-1.06c2.47-1.37,3.94-3.02,4.74-4.92
		l-4.54,0.45l-0.2-1.26l5.13-0.34c0.23-0.85,0.36-1.69,0.41-2.58h-4.75v-1.19h6.18c0,1.51-0.18,3.03-0.63,4.47h2.54v-5.96h1.39
		V517.99z M714.42,518.8v-16.15h1.41v16.15H714.42z"/>
	<path class="st1" d="M727.29,509.54c0,3.44-1.71,5.64-4.11,5.64c-2.39,0-4.1-2.2-4.1-5.64s1.71-5.64,4.1-5.64
		C725.58,503.91,727.29,506.1,727.29,509.54z M720.48,509.54c0,2.63,1.12,4.32,2.7,4.32c1.57,0,2.68-1.69,2.68-4.32
		c0-2.61-1.12-4.3-2.68-4.3C721.6,505.24,720.48,506.93,720.48,509.54z M730.22,518.85v-16.19h1.48v16.19H730.22z"/>
	<path class="st1" d="M734.84,510.82v-1.17h14.62v1.17H734.84z M748.08,518.63h-11.42v-3.8h9.47v-1.42h-9.52v-1.12h10.98v3.6h-9.49
		v1.6h9.97V518.63z M736.79,502.95h1.46v1.53h7.85v-1.53h1.46v5.33h-10.77V502.95z M738.25,507.15h7.85v-1.55h-7.85V507.15z"/>
	<path class="st1" d="M210.02,542.64c0-4.63,3.76-8.39,8.39-8.39c4.63,0,8.39,3.76,8.39,8.39c0,4.66-3.8,8.39-8.39,8.39
		C213.78,551.03,210.02,547.27,210.02,542.64z M226.22,542.64c0-4.32-3.49-7.81-7.81-7.81c-4.36,0-7.81,3.55-7.81,7.81
		c0,4.32,3.49,7.81,7.81,7.81S226.22,546.96,226.22,542.64z M215.01,546.13l0.7-0.97c0.59,0.52,1.37,1.06,2.59,1.06
		s2.11-0.76,2.11-1.98c0-1.17-0.85-1.93-2.07-1.93c-0.72,0-1.17,0.23-1.76,0.61l-0.76-0.47l0.32-4.59h5.26v1.26h-4l-0.23,2.52
		c0.45-0.2,0.95-0.38,1.53-0.38c1.78,0,3.21,0.94,3.21,2.93c0,2.03-1.71,3.21-3.53,3.21C216.73,547.41,215.73,546.8,215.01,546.13z"
		/>
	<path class="st1" d="M240.04,550.83h-1.48v-5.4h-6.55v-1.19h14.66v1.19h-6.63V550.83z M233.87,535.31h1.46v2.21h8.01v-2.21h1.48
		v6.99h-10.95V535.31z M235.33,541.09h8.01v-2.38h-8.01V541.09z"/>
	<path class="st1" d="M248.41,548.65v-1.22h14.64v1.22H248.41z M255.67,539.35c-1.01,2.36-3.57,4.09-5.98,4.66l-0.67-1.22
		c2.81-0.58,5.87-2.97,5.87-5.74v-1.24h1.55v1.24c0,2.74,3.06,5.22,5.89,5.74l-0.67,1.22C259.22,543.43,256.68,541.72,255.67,539.35
		z"/>
	<path class="st1" d="M266.9,543.56h-1.22v-7.78h7.35v1.21h-5.89v5.37c2.99,0,4.77-0.09,6.79-0.52l0.16,1.19
		C271.92,543.45,270.1,543.56,266.9,543.56z M278.08,550.83h-1.48v-4.47h-9.29v-1.21h10.77V550.83z M276.6,544.33v-4.29h-4.52v-1.21
		h4.52v-4.18h1.48v9.67H276.6z"/>
	<path class="st1" d="M281.15,548.73v-1.21h14.66v1.21H281.15z M283.04,536.07h10.93v1.19h-9.43v2.39h9.08v1.17h-9.08v2.56h9.6v1.19
		h-11.09V536.07z"/>
	<path class="st1" d="M301.44,543.4v-1.21h5.96v-3.1h1.48v3.1h7.09v1.21H301.44z M314.28,547.84c0,1.82-2.2,2.95-5.64,2.95
		c-3.44,0-5.62-1.13-5.62-2.95c0-1.87,2.18-2.97,5.62-2.97C312.08,544.87,314.28,545.97,314.28,547.84z M303.15,535.49h11v1.37
		c0,1.3,0,2.61-0.45,4.27l-1.44-0.16c0.43-1.66,0.43-2.86,0.43-4.11v-0.18h-9.54V535.49z M312.8,547.84c0-1.15-1.62-1.84-4.16-1.84
		c-2.52,0-4.14,0.68-4.14,1.84c0,1.13,1.62,1.8,4.14,1.8C311.18,549.64,312.8,549,312.8,547.84z"/>
	<path class="st1" d="M322.54,540.16c-0.7,1.87-2.12,3.26-4.07,3.96l-0.76-1.17c2.45-0.86,4.05-2.9,4.05-5.26v-0.63h-3.62v-1.19
		h8.66v1.19h-3.56v0.63c0,2.11,1.51,4.02,3.91,4.79l-0.7,1.15C324.57,543.04,323.24,541.76,322.54,540.16z M330.5,547.81
		c0,1.89-2.05,2.99-5.31,2.99c-3.31,0-5.33-1.1-5.33-2.99c0-1.87,2.02-2.97,5.33-2.97C328.44,544.84,330.5,545.94,330.5,547.81z
		 M329.02,547.81c0-1.15-1.44-1.8-3.83-1.8c-2.47,0-3.85,0.65-3.85,1.8s1.39,1.82,3.85,1.82
		C327.58,549.63,329.02,548.96,329.02,547.81z M330.32,539.99v4.43h-1.48v-9.74h1.48v4.07h2.39v1.24H330.32z"/>
	<path class="st1" d="M340.02,540.79h-1.64v-1.69h1.64V540.79z M340.02,548.46h-1.64v-1.69h1.64V548.46z"/>
	<path class="st1" d="M345.56,536.28h9.67v1.4h-4v11.79h-1.67v-11.79h-4V536.28z"/>
	<path class="st1" d="M357.35,549.48h-1.69l4.48-13.2h1.85l4.48,13.2h-1.76l-1.26-4.03h-4.83L357.35,549.48z M361.08,537.63H361
		c-0.41,1.58-0.83,2.95-1.31,4.47l-0.65,2.02h4l-0.63-2.02C361.92,540.59,361.51,539.17,361.08,537.63z"/>
	<path class="st1" d="M380.46,539.51c0,1.31-0.7,2.45-1.94,2.86v0.09c1.58,0.31,2.7,1.35,2.7,3.15c0,2.59-2.05,3.87-5.01,3.87H372
		v-13.2h3.92C378.61,536.28,380.46,537.2,380.46,539.51z M378.82,539.72c0-1.58-1.01-2.12-3.12-2.12h-2.04v4.3h1.96
		C377.92,541.9,378.82,541.07,378.82,539.72z M379.58,545.56c0-1.66-1.28-2.38-3.6-2.38h-2.3v4.97h2.3
		C378.3,548.15,379.58,547.36,379.58,545.56z"/>
	<path class="st1" d="M383.38,545.9v-6.19h1.64v6c0,1.82,0.54,2.59,1.84,2.59c1.01,0,1.71-0.49,2.65-1.66v-6.93h1.64v9.78h-1.37
		l-0.13-1.53h-0.05c-0.92,1.06-1.89,1.76-3.24,1.76C384.24,549.72,383.38,548.44,383.38,545.9z"/>
	<path class="st1" d="M393.15,548.37l0.81-1.08c0.85,0.7,1.73,1.15,2.9,1.15c1.3,0,1.93-0.68,1.93-1.53c0-0.99-1.15-1.42-2.23-1.85
		c-1.37-0.49-2.92-1.19-2.92-2.83c0-1.53,1.24-2.77,3.37-2.77c1.22,0,2.27,0.5,3.04,1.1l-0.79,1.06c-0.7-0.5-1.37-0.86-2.25-0.86
		c-1.22,0-1.78,0.63-1.78,1.4c0,0.94,1.06,1.26,2.16,1.69c1.42,0.52,2.99,1.13,2.99,2.97c0,1.58-1.26,2.9-3.57,2.9
		C395.42,549.72,394.09,549.14,393.15,548.37z"/>
	<path class="st1" d="M404.45,545.36c0.2,0.94,0.38,1.82,0.58,2.74h0.09c0.22-0.92,0.4-1.82,0.67-2.74l1.51-5.65h1.6l1.53,5.65
		c0.23,0.94,0.45,1.82,0.68,2.74h0.07c0.22-0.92,0.4-1.8,0.61-2.74l1.44-5.65h1.55l-2.63,9.78h-1.98l-1.42-5.28
		c-0.27-0.92-0.43-1.8-0.67-2.81H408c-0.22,1.01-0.4,1.91-0.67,2.84l-1.37,5.24h-1.93l-2.72-9.78H403L404.45,545.36z"/>
	<path class="st1" d="M416.14,546.85c0-2.52,2.14-3.51,6.01-3.57c0-1.26-0.41-2.47-2.02-2.47c-1.15,0-2.25,0.43-3.03,0.95
		l-0.65-1.17c0.92-0.58,2.36-1.15,3.94-1.15c2.38,0,3.38,1.62,3.38,4.02v6.01h-1.35l-0.14-1.04h-0.05
		c-0.94,0.77-2.04,1.28-3.26,1.28C417.34,549.72,416.14,548.64,416.14,546.85z M422.15,547.27v-2.9c-3.47,0.23-4.41,0.86-4.41,2.38
		c0,1.15,0.7,1.66,1.71,1.66C420.4,548.4,421.19,548.11,422.15,547.27z"/>
	<path class="st1" d="M425.32,539.71h1.71l2,5.33c0.29,0.85,0.63,1.85,0.94,2.74h0.09c0.27-0.88,0.56-1.87,0.83-2.74l1.75-5.33h1.6
		l-4.99,13.99h-1.53l1.53-4.3L425.32,539.71z"/>
	<path class="st1" d="M435.81,550.83h-1.19l0.65-3.64h1.64L435.81,550.83z"/>
	<path class="st1" d="M441.89,536.28h9.67v1.4h-4v11.79h-1.67v-11.79h-4V536.28z"/>
	<path class="st1" d="M461.35,537.69h-5.94v4.47h5.04v1.4h-5.04v5.92h-1.67v-13.2h7.62V537.69z"/>
	<path class="st1" d="M475.81,539.51c0,1.31-0.7,2.45-1.94,2.86v0.09c1.58,0.31,2.7,1.35,2.7,3.15c0,2.59-2.05,3.87-5.01,3.87h-4.21
		v-13.2h3.92C473.95,536.28,475.81,537.2,475.81,539.51z M474.17,539.72c0-1.58-1.01-2.12-3.12-2.12h-2.04v4.3h1.96
		C473.27,541.9,474.17,541.07,474.17,539.72z M474.93,545.56c0-1.66-1.28-2.38-3.6-2.38h-2.3v4.97h2.3
		C473.65,548.15,474.93,547.36,474.93,545.56z"/>
	<path class="st1" d="M478.72,545.9v-6.19h1.64v6c0,1.82,0.54,2.59,1.84,2.59c1.01,0,1.71-0.49,2.65-1.66v-6.93h1.64v9.78h-1.37
		l-0.13-1.53h-0.05c-0.92,1.06-1.89,1.76-3.24,1.76C479.59,549.72,478.72,548.44,478.72,545.9z"/>
	<path class="st1" d="M488.5,548.37l0.81-1.08c0.85,0.7,1.73,1.15,2.9,1.15c1.3,0,1.93-0.68,1.93-1.53c0-0.99-1.15-1.42-2.23-1.85
		c-1.37-0.49-2.92-1.19-2.92-2.83c0-1.53,1.24-2.77,3.37-2.77c1.22,0,2.27,0.5,3.04,1.1l-0.79,1.06c-0.7-0.5-1.37-0.86-2.25-0.86
		c-1.22,0-1.78,0.63-1.78,1.4c0,0.94,1.06,1.26,2.16,1.69c1.42,0.52,2.99,1.13,2.99,2.97c0,1.58-1.26,2.9-3.57,2.9
		C490.77,549.72,489.43,549.14,488.5,548.37z"/>
	<path class="st1" d="M499.8,545.36c0.2,0.94,0.38,1.82,0.58,2.74h0.09c0.22-0.92,0.4-1.82,0.67-2.74l1.51-5.65h1.6l1.53,5.65
		c0.23,0.94,0.45,1.82,0.68,2.74h0.07c0.22-0.92,0.4-1.8,0.61-2.74l1.44-5.65h1.55l-2.63,9.78h-1.98l-1.42-5.28
		c-0.27-0.92-0.43-1.8-0.67-2.81h-0.09c-0.22,1.01-0.4,1.91-0.67,2.84l-1.37,5.24h-1.93l-2.72-9.78h1.67L499.8,545.36z"/>
	<path class="st1" d="M511.48,546.85c0-2.52,2.14-3.51,6.01-3.57c0-1.26-0.42-2.47-2.02-2.47c-1.15,0-2.25,0.43-3.02,0.95
		l-0.65-1.17c0.92-0.58,2.36-1.15,3.94-1.15c2.38,0,3.38,1.62,3.38,4.02v6.01h-1.35l-0.14-1.04h-0.05
		c-0.94,0.77-2.04,1.28-3.26,1.28C512.69,549.72,511.48,548.64,511.48,546.85z M517.5,547.27v-2.9c-3.48,0.23-4.41,0.86-4.41,2.38
		c0,1.15,0.7,1.66,1.71,1.66C515.75,548.4,516.54,548.11,517.5,547.27z"/>
	<path class="st1" d="M520.66,539.71h1.71l2,5.33c0.29,0.85,0.63,1.85,0.94,2.74h0.09c0.27-0.88,0.56-1.87,0.83-2.74l1.75-5.33h1.6
		l-4.99,13.99h-1.53l1.53-4.3L520.66,539.71z"/>
	<path class="st1" d="M531.16,550.83h-1.19l0.65-3.64h1.64L531.16,550.83z"/>
	<path class="st1" d="M545.02,544.6l1.4,2.72h0.09c-0.09-1.37-0.22-2.81-0.22-4.18v-6.86h1.58v13.2h-1.71l-4.81-8.34l-1.42-2.72
		h-0.07c0.07,1.37,0.2,2.74,0.2,4.12v6.93h-1.58v-13.2h1.73L545.02,544.6z"/>
	<path class="st1" d="M550.34,547.75l0.99-1.13c0.95,1.01,2.29,1.64,3.65,1.64c1.73,0,2.77-0.86,2.77-2.16
		c0-1.35-0.95-1.76-2.2-2.34l-1.91-0.83c-1.21-0.52-2.68-1.44-2.68-3.38c0-2.04,1.76-3.51,4.16-3.51c1.58,0,2.95,0.63,3.89,1.64
		l-0.88,1.06c-0.81-0.77-1.78-1.24-3.01-1.24c-1.51,0-2.47,0.72-2.47,1.94c0,1.3,1.15,1.76,2.18,2.2l1.89,0.81
		c1.53,0.67,2.72,1.57,2.72,3.53c0,2.09-1.73,3.75-4.48,3.75C553.1,549.72,551.5,548.98,550.34,547.75z"/>
	<path class="st1" d="M570.58,540.16c0,2.81-1.98,4.09-4.86,4.09h-2.18v5.24h-1.67v-13.2h3.76
		C568.58,536.28,570.58,537.27,570.58,540.16z M568.92,540.16c0-1.89-1.17-2.52-3.49-2.52h-1.89v5.26h1.96
		C567.82,542.89,568.92,542.05,568.92,540.16z"/>
	<path class="st1" d="M581.52,539.51c0,1.31-0.7,2.45-1.94,2.86v0.09c1.58,0.31,2.7,1.35,2.7,3.15c0,2.59-2.05,3.87-5.01,3.87h-4.21
		v-13.2h3.92C579.67,536.28,581.52,537.2,581.52,539.51z M579.88,539.72c0-1.58-1.01-2.12-3.12-2.12h-2.04v4.3h1.96
		C578.98,541.9,579.88,541.07,579.88,539.72z M580.64,545.56c0-1.66-1.28-2.38-3.6-2.38h-2.3v4.97h2.3
		C579.36,548.15,580.64,547.36,580.64,545.56z"/>
	<path class="st1" d="M597.02,539.51c0,1.31-0.7,2.45-1.94,2.86v0.09c1.58,0.31,2.7,1.35,2.7,3.15c0,2.59-2.05,3.87-5.01,3.87h-4.21
		v-13.2h3.92C595.17,536.28,597.02,537.2,597.02,539.51z M595.38,539.72c0-1.58-1.01-2.12-3.12-2.12h-2.04v4.3h1.96
		C594.48,541.9,595.38,541.07,595.38,539.72z M596.14,545.56c0-1.66-1.28-2.38-3.6-2.38h-2.3v4.97h2.3
		C594.86,548.15,596.14,547.36,596.14,545.56z"/>
	<path class="st1" d="M599.93,545.9v-6.19h1.64v6c0,1.82,0.54,2.59,1.84,2.59c1.01,0,1.71-0.49,2.65-1.66v-6.93h1.64v9.78h-1.37
		l-0.13-1.53h-0.05c-0.92,1.06-1.89,1.76-3.24,1.76C600.8,549.72,599.93,548.44,599.93,545.9z"/>
	<path class="st1" d="M609.71,548.37l0.81-1.08c0.85,0.7,1.73,1.15,2.9,1.15c1.3,0,1.93-0.68,1.93-1.53c0-0.99-1.15-1.42-2.23-1.85
		c-1.37-0.49-2.92-1.19-2.92-2.83c0-1.53,1.24-2.77,3.37-2.77c1.22,0,2.27,0.5,3.04,1.1l-0.79,1.06c-0.7-0.5-1.37-0.86-2.25-0.86
		c-1.22,0-1.78,0.63-1.78,1.4c0,0.94,1.06,1.26,2.16,1.69c1.42,0.52,2.99,1.13,2.99,2.97c0,1.58-1.26,2.9-3.57,2.9
		C611.98,549.72,610.64,549.14,609.71,548.37z"/>
	<path class="st1" d="M621.01,545.36c0.2,0.94,0.38,1.82,0.58,2.74h0.09c0.22-0.92,0.4-1.82,0.67-2.74l1.51-5.65h1.6l1.53,5.65
		c0.23,0.94,0.45,1.82,0.68,2.74h0.07c0.22-0.92,0.4-1.8,0.61-2.74l1.44-5.65h1.55l-2.63,9.78h-1.98l-1.42-5.28
		c-0.27-0.92-0.43-1.8-0.67-2.81h-0.09c-0.22,1.01-0.4,1.91-0.67,2.84l-1.37,5.24h-1.93l-2.72-9.78h1.67L621.01,545.36z"/>
	<path class="st1" d="M632.69,546.85c0-2.52,2.14-3.51,6.01-3.57c0-1.26-0.41-2.47-2.02-2.47c-1.15,0-2.25,0.43-3.03,0.95
		l-0.65-1.17c0.92-0.58,2.36-1.15,3.94-1.15c2.38,0,3.38,1.62,3.38,4.02v6.01H639l-0.14-1.04h-0.05c-0.94,0.77-2.04,1.28-3.26,1.28
		C633.9,549.72,632.69,548.64,632.69,546.85z M638.71,547.27v-2.9c-3.47,0.23-4.41,0.86-4.41,2.38c0,1.15,0.7,1.66,1.71,1.66
		C636.96,548.4,637.75,548.11,638.71,547.27z"/>
	<path class="st1" d="M641.87,539.71h1.71l2,5.33c0.29,0.85,0.63,1.85,0.94,2.74h0.09c0.27-0.88,0.56-1.87,0.83-2.74l1.75-5.33h1.6
		l-4.99,13.99h-1.53l1.53-4.3L641.87,539.71z"/>
	<path class="st1" d="M655.63,543.58v-1.22h14.62v1.22H655.63z M668.45,547.88c0,1.87-2.09,2.92-5.53,2.92
		c-3.44,0-5.53-1.04-5.53-2.92c0-1.87,2.09-2.92,5.53-2.92C666.36,544.96,668.45,546.01,668.45,547.88z M657.46,535.31h10.96v1.19
		h-9.49v3.11h9.6v1.19h-11.07V535.31z M666.95,547.88c0-1.15-1.49-1.76-4.03-1.76c-2.54,0-4.03,0.61-4.03,1.76s1.5,1.76,4.03,1.76
		C665.46,549.64,666.95,549.03,666.95,547.88z"/>
	<path class="st1" d="M685.29,545.02l0.16,1.22c-2.45,0.49-4.61,0.58-7.63,0.58h-1.28v-10.6h7.51v1.22h-6.03v8.12
		C680.9,545.56,682.97,545.45,685.29,545.02z M688.28,550.85h-1.48v-16.19h1.48v6.37h2.67v1.22h-2.67V550.85z"/>
	<path class="st1" d="M696.76,543.23c-2.45,0-4.21-1.57-4.21-3.82c0-2.23,1.76-3.78,4.21-3.78c2.43,0,4.21,1.55,4.21,3.78
		C700.97,541.67,699.19,543.23,696.76,543.23z M696.76,541.99c1.6,0,2.77-1.06,2.77-2.58c0-1.51-1.17-2.56-2.77-2.56
		c-1.62,0-2.77,1.04-2.77,2.56C693.98,540.93,695.14,541.99,696.76,541.99z M704.95,547.77c0,1.91-2.05,3.03-5.31,3.03
		c-3.28,0-5.33-1.12-5.33-3.03c0-1.94,2.05-3.02,5.33-3.02C702.9,544.75,704.95,545.83,704.95,547.77z M703.47,547.77
		c0-1.17-1.44-1.85-3.83-1.85s-3.85,0.68-3.85,1.85c0,1.15,1.46,1.85,3.85,1.85S703.47,548.92,703.47,547.77z M707.13,540.52v1.22
		h-2.36v2.5h-1.48v-9.56h1.48v2.4h2.36v1.21h-2.36v2.23H707.13z"/>
	<path class="st1" d="M708.67,536.64h4.01v-1.96h1.48v1.96h4.03v1.19h-9.52V536.64z M713.43,544.73c-2.29,0-3.85-1.19-3.85-3.01
		c0-1.8,1.57-2.99,3.85-2.99c2.3,0,3.87,1.19,3.87,2.99C717.3,543.54,715.73,544.73,713.43,544.73z M713.43,543.58
		c1.46,0,2.47-0.7,2.47-1.86s-1.01-1.84-2.47-1.84c-1.51,0-2.45,0.68-2.45,1.84S711.91,543.58,713.43,543.58z M721.87,550.46H711.1
		v-4.63h1.48v3.42h9.29V550.46z M721.15,541.24v5.54h-1.48v-12.1h1.48v5.31h2.39v1.24H721.15z"/>
	<path class="st1" d="M736.86,550.83h-1.48v-5.4h-6.55v-1.19h14.66v1.19h-6.63V550.83z M730.69,535.31h1.46v2.21h8.01v-2.21h1.48
		v6.99h-10.95V535.31z M732.15,541.09h8.01v-2.38h-8.01V541.09z"/>
	<path class="st1" d="M745.23,548.65v-1.22h14.64v1.22H745.23z M752.49,539.35c-1.01,2.36-3.57,4.09-5.98,4.66l-0.67-1.22
		c2.81-0.58,5.87-2.97,5.87-5.74v-1.24h1.55v1.24c0,2.74,3.06,5.22,5.89,5.74l-0.67,1.22C756.03,543.43,753.49,541.72,752.49,539.35
		z"/>
	<path class="st1" d="M763.72,543.56h-1.22v-7.78h7.35v1.21h-5.89v5.37c2.99,0,4.77-0.09,6.79-0.52l0.16,1.19
		C768.74,543.45,766.92,543.56,763.72,543.56z M774.9,550.83h-1.48v-4.47h-9.29v-1.21h10.77V550.83z M773.42,544.33v-4.29h-4.52
		v-1.21h4.52v-4.18h1.48v9.67H773.42z"/>
	<path class="st1" d="M777.97,548.73v-1.21h14.66v1.21H777.97z M779.86,536.07h10.93v1.19h-9.43v2.39h9.08v1.17h-9.08v2.56h9.6v1.19
		h-11.09V536.07z"/>
	<path class="st1" d="M802.33,540.25c-0.58,1.51-1.71,2.88-3.29,3.58l-0.79-1.15c2.09-0.9,3.37-3.04,3.37-4.83v-2.18h1.42v2.18
		c0,1.76,1.21,3.62,3.28,4.39l-0.79,1.13C804,542.75,802.9,541.61,802.33,540.25z M811.92,547.9c0,1.82-2.09,2.9-5.4,2.9
		c-3.31,0-5.38-1.08-5.38-2.9c0-1.82,2.07-2.9,5.38-2.9C809.83,545,811.92,546.08,811.92,547.9z M810.47,547.9
		c0-1.15-1.48-1.75-3.94-1.75s-3.93,0.59-3.93,1.75s1.46,1.76,3.93,1.76S810.47,549.05,810.47,547.9z M806.97,534.99h1.4V539h2.05
		v-4.32h1.42v9.96h-1.42v-4.43h-2.05v3.91h-1.4V534.99z"/>
	<path class="st1" d="M819.34,540.25c-0.67,1.94-2.09,3.38-4.03,4.1l-0.77-1.17c2.47-0.86,4.03-3.04,4.03-5.55v-2h1.48v2.03
		c0,2.21,1.6,4.25,3.98,5.11l-0.74,1.17C821.46,543.29,820.06,541.97,819.34,540.25z M827.84,550.46h-10.71v-5.01h1.48v3.8h9.24
		V550.46z M827.13,540.84v5.74h-1.48v-11.94h1.48v4.97h2.39v1.22H827.13z"/>
	<path class="st1" d="M226.8,574.64c0,4.66-3.8,8.39-8.39,8.39c-4.63,0-8.39-3.76-8.39-8.39c0-4.63,3.76-8.39,8.39-8.39
		C223.04,566.25,226.8,570.01,226.8,574.64z M226.22,574.64c0-4.32-3.49-7.81-7.81-7.81c-4.36,0-7.81,3.55-7.81,7.81
		c0,4.32,3.49,7.81,7.81,7.81S226.22,578.96,226.22,574.64z M218.82,570.88c-1.39,0-2.63,0.94-2.68,3.73
		c0.65-0.7,1.58-1.15,2.5-1.15c1.8,0,2.95,0.97,2.95,2.92c0,1.85-1.44,3.04-3.17,3.04c-2.09,0-3.69-1.46-3.69-4.56
		c0-3.67,1.93-5.2,4.05-5.2c1.17,0,2,0.45,2.59,1.03l-0.81,0.92C220.15,571.17,219.49,570.88,218.82,570.88z M220.19,576.41
		c0-1.15-0.65-1.85-1.89-1.85c-0.63,0-1.42,0.31-2.12,1.15c0.2,1.75,0.97,2.56,2.27,2.56C219.4,578.26,220.19,577.5,220.19,576.41z"
		/>
	<path class="st1" d="M234.98,575.43c0.49,1.55,0.76,2.81,1.28,4.36h0.07c0.49-1.57,0.79-2.79,1.28-4.36l2.12-7.15h1.69l-4.2,13.2
		h-1.93l-4.21-13.2h1.75L234.98,575.43z"/>
	<path class="st1" d="M242.29,574.89c0-4.27,2.49-6.86,5.85-6.86c1.6,0,2.86,0.79,3.62,1.64l-0.9,1.08c-0.7-0.74-1.55-1.26-2.7-1.26
		c-2.5,0-4.16,2.03-4.16,5.35c0,3.33,1.58,5.42,4.11,5.42c1.3,0,2.21-0.56,3.06-1.48l0.92,1.04c-1.08,1.22-2.32,1.89-4.05,1.89
		C244.78,581.72,242.29,579.16,242.29,574.89z"/>
	<path class="st1" d="M256.46,575.43c0.49,1.55,0.76,2.81,1.28,4.36h0.07c0.49-1.57,0.79-2.79,1.28-4.36l2.12-7.15h1.69l-4.2,13.2
		h-1.93l-4.21-13.2h1.75L256.46,575.43z"/>
	<path class="st1" d="M276.96,577.2l0.14,1.19c-2.48,0.43-4.57,0.54-7.62,0.54h-1.26v-10.8h7.53v1.21h-6.05v3.33h5.69v1.19h-5.69
		v3.87C272.59,577.72,274.55,577.58,276.96,577.2z M279.95,582.8h-1.48v-16.13h1.48v6.48h2.67v1.24h-2.67V582.8z"/>
	<path class="st1" d="M289.78,576.26v6.07h-1.48v-6c-1.53,0.05-2.97,0.07-4.27,0.07l-0.18-1.24c3.04,0,7.13,0,10.62-0.52l0.09,1.12
		C292.98,576.03,291.36,576.17,289.78,576.26z M285.06,570.64c0-1.89,1.66-3.17,4.05-3.17c2.39,0,4.05,1.28,4.05,3.17
		c0,1.93-1.66,3.19-4.05,3.19C286.72,573.83,285.06,572.57,285.06,570.64z M286.45,570.64c0,1.24,1.08,2.05,2.67,2.05
		c1.58,0,2.66-0.81,2.66-2.05c0-1.22-1.08-2.04-2.66-2.04C287.53,568.61,286.45,569.42,286.45,570.64z M295.7,582.83v-3.98h-3.66
		v-1.15h3.66v-11.02h1.48v16.15H295.7z"/>
	<path class="st1" d="M210.02,606.64c0-4.63,3.76-8.39,8.39-8.39c4.63,0,8.39,3.76,8.39,8.39c0,4.66-3.8,8.39-8.39,8.39
		C213.78,615.03,210.02,611.27,210.02,606.64z M226.22,606.64c0-4.32-3.49-7.81-7.81-7.81c-4.36,0-7.81,3.55-7.81,7.81
		c0,4.32,3.49,7.81,7.81,7.81S226.22,610.96,226.22,606.64z M220.01,603.13h-4.86v-1.26h6.55v0.9c-2.41,2.79-2.86,4.77-3.06,8.43
		h-1.53C217.31,607.79,217.99,605.67,220.01,603.13z"/>
	<path class="st1" d="M236.6,607.76c-2.39,0-4.2-1.66-4.2-4c0-2.32,1.8-3.96,4.2-3.96c2.4,0,4.23,1.64,4.23,3.96
		C240.84,606.1,239,607.76,236.6,607.76z M236.6,606.48c1.6,0,2.79-1.12,2.79-2.72c0-1.57-1.19-2.68-2.79-2.68
		c-1.58,0-2.75,1.12-2.75,2.68C233.85,605.36,235.02,606.48,236.6,606.48z M234.9,614.46v-5.19h1.48v3.98h9.4v1.21H234.9z
		 M243.81,598.68h1.48v11.79h-1.48V598.68z"/>
	<path class="st1" d="M256.64,609.79l-0.86,1.13c-1.58-0.88-2.7-2.41-3.28-4.36c-0.56,2.25-1.67,3.91-3.35,4.92l-0.9-1.12
		c2.3-1.3,3.51-4.07,3.51-7.33v-1.26h-3.13v-1.21h7.49v1.21h-2.93v1.26C253.18,606.01,254.34,608.58,256.64,609.79z M260.76,614.81
		v-8.41h-2.12v7.62h-1.39v-15h1.39v6.16h2.12v-6.54h1.42v16.17H260.76z"/>
	<path class="st1" d="M269.51,611.36l-0.86-1.06c3.73-2.11,5.22-4.97,5.46-8.34h-4.84v-1.21h6.3
		C275.56,604.91,274.12,608.76,269.51,611.36z M280.92,614.81v-8.44h-2.2V614h-1.39V599.1h1.39v6.07h2.2v-6.5h1.42v16.15H280.92z"/>
	<path class="st1" d="M285.69,599.33h1.46v2.32h4.57v-2.32h1.44v7.06h-7.47V599.33z M287.15,605.2h4.57v-2.41h-4.57V605.2z
		 M298.15,614.63h-10.8v-4.03h8.75v-1.66h-8.8v-1.17h10.26v3.93h-8.77v1.76h9.36V614.63z M297.56,603.36v3.66h-1.48v-8.34h1.48v3.46
		h2.39v1.22H297.56z"/>
	<path class="st1" d="M301.51,607.36l-0.2-1.22c2.99,0,6.99-0.04,10.41-0.47l0.13,1.06c-1.44,0.22-2.92,0.38-4.38,0.47v3.19H306
		v-3.12C304.39,607.34,302.88,607.36,301.51,607.36z M302.59,602.12c0-1.69,1.62-2.81,3.98-2.81c2.36,0,3.98,1.12,3.98,2.81
		c0,1.73-1.62,2.83-3.98,2.83C304.21,604.95,302.59,603.85,302.59,602.12z M303.62,614.46v-4.7h1.48v3.49h9.94v1.21H303.62z
		 M304,602.12c0,1.08,1.04,1.73,2.58,1.73s2.57-0.65,2.57-1.73c0-1.03-1.04-1.71-2.57-1.71S304,601.09,304,602.12z M314.62,598.66
		v12.3h-1.48v-1.66h-3.28v-1.1h3.28v-9.54H314.62z"/>
</g>
<path class="st2" d="M872.71,308.11"/>
<rect x="417.54" y="220.14" class="st3" width="118.16" height="63.37"/>
<polygon class="st3" points="294.25,223.72 320.42,223.72 337.92,223.72 358.46,223.72 358.46,199.09 294.25,199.09 "/>
<polygon class="st3" points="337.92,259.45 279.31,259.45 279.31,283.52 358.46,283.52 358.46,239.54 337.92,239.54 "/>
<rect x="369.61" y="294.75" class="st2" width="36.76" height="3.74"/>
<rect x="405.36" y="199.23" class="st2" width="1.01" height="10.37"/>
<path class="st0" d="M545.47,331.84c-0.23,0-0.44-0.04-0.65-0.09c-0.21,0.05-0.43,0.09-0.65,0.09H545.47z"/>
<rect x="292.74" y="140.56" class="st0" width="4.07" height="28.21"/>
<path class="st2" d="M869.04,241.77c-10.57-5.92-19.47-9.34-19.47-9.34l-130.78-65.56c-25.57-11.42-53.27-17.33-81.28-17.33H350.61
	h-29.4h-84.35c-11.05,0-20,8.95-20,20v136.64c0,11.05,8.95,20,20,20h49.82h63.94h333.63c49.2,0,98.19,5.64,146.28,16.03l59.64,18.58
	c11.19,3.49,22.97-3.36,25.48-14.81l-2.83-52.09c-0.32-5.98-0.57-11.98-0.33-17.97c0.31-7.86-4.05-15.33-11.34-18.82L869.04,241.77z
	"/>
<rect x="609.99" y="139.3" class="st0" width="4.07" height="28.21"/>
<g>
	<g>
		<path class="st0" d="M349.17,285.23c-9.71,10.85-23,18.08-31.22,30.33c-8.24,12.29-10.81,28-6.88,42.26
			c2.18,7.93,6.25,15.26,11.78,21.34c1.76,1.94,4.63-0.94,2.87-2.87c-9.27-10.2-13.79-24.26-12.07-37.95
			c0.87-6.91,3.31-13.62,7.01-19.51c3.68-5.86,8.72-10.62,13.95-15.07c5.95-5.06,12.2-9.82,17.43-15.66
			C353.78,286.16,350.92,283.28,349.17,285.23L349.17,285.23z"/>
	</g>
</g>
<g>
	<g>
		<path class="st0" d="M245.71,216.06c-1.93,3.47-4.44,6.52-7.49,9.06c-3.02,2.52-6.51,4.46-9.96,6.32
			c-7.26,3.91-14.64,7.67-22.36,10.58c-4.4,1.66-8.9,3.03-13.5,4.03c-2.55,0.55-1.47,4.47,1.08,3.91c8.49-1.84,16.62-5,24.46-8.71
			c3.85-1.82,7.64-3.78,11.4-5.78c3.72-1.99,7.39-4.05,10.72-6.65c3.74-2.92,6.84-6.56,9.15-10.71
			C250.49,215.83,246.98,213.78,245.71,216.06L245.71,216.06z"/>
	</g>
</g>
<path class="st0" d="M542.79,217.37v21.89c0,1.48-1.2,2.68-2.68,2.68H422.95c-1.48,0-2.68,1.2-2.68,2.68v65.07
	c0,1.48,1.2,2.68,2.68,2.68H540.1c1.48,0,2.68,1.2,2.68,2.68v14.09c0,1.26,0.87,2.3,2.03,2.6c1.17-0.29,2.03-1.34,2.03-2.6v-14.09
	c0-1.48,1.2-2.68,2.68-2.68l173.65,0.05c1.68,0,3.04,1.36,3.04,3.04v24.38h4.08v-55.23v-3.78v-12.06v-43.11v-8.3
	c0-1.68-1.36-3.04-3.04-3.04H617.2h-0.57h-70.8C544.15,214.33,542.79,215.69,542.79,217.37z"/>
<path class="st0" d="M248.22,323.06c-0.18,0-0.36-0.02-0.53-0.05c-0.17,0.03-0.35,0.05-0.53,0.05H248.22z"/>
<path class="st0" d="M261.93,190.13c0-0.07,0.01-0.13,0.02-0.19c0-0.06-0.02-0.13-0.02-0.19V190.13z"/>
<path class="st0" d="M245.07,138.26c1.59-1.96,4.77-0.83,4.77,1.69v119.97c0,1.48,1.2,2.68,2.68,2.68h19.72
	c1.48,0,2.68-1.2,2.68-2.68v-1.76c0-1.48,1.2-2.68,2.68-2.68h0.81h3h56.53c1.48,0,2.68-1.2,2.68-2.68v-18.74
	c0-1.68,1.36-3.04,3.04-3.04h18.74c1.68,0,3.04-1.36,3.04-3.04v-3.33c0-1.68-1.36-3.04-3.04-3.04h-24.78c-0.01,0-0.03,0-0.04,0
	l-68.11,0.07c-1.48,0-2.68-1.2-2.68-2.68v-23.86c0-1.48-1.2-2.68-2.68-2.68h-15.74c-1.42,0-2.56-1.1-2.67-2.49
	c0.1-1.39,1.25-2.49,2.67-2.49l22.8-0.07h18.92c1.48,0,2.68-1.2,2.68-2.68v-15.18l-0.01-2.68l-0.02-5.8c0-1.68,1.36-3.05,3.04-3.05
	h134.16c1.68,0,3.04,1.36,3.04,3.04v28.01c0,1.68-1.36,3.04-3.04,3.04h-60.36v3.02c0,0.03-0.01,0.06-0.01,0.1v89.75
	c0,1.48-1.2,2.68-2.68,2.68H277.6c-1.48,0-2.68-1.2-2.68-2.68v-1.38h0v-14.2c0-1.48-1.2-2.68-2.68-2.68h-19.72
	c-1.48,0-2.68,1.2-2.68,2.68v60.15c0,1.3-0.92,2.38-2.15,2.63c-1.23-0.25-2.15-1.33-2.15-2.63V147.5L245.07,138.26z"/>
<path class="st0" d="M610.9,192.07c1.75,0,3.17-1.36,3.17-3.04v-28.37c0-1.48-1.25-2.68-2.8-2.68H465.44
	c-1.68,0-3.04,1.36-3.04,3.04v28.01c0,1.68,1.36,3.04,3.04,3.04H610.9z"/>
<path class="st4" d="M606.9,188.42c1.71,0,3.09-1.36,3.09-3.04v-20.29c0-1.68-1.38-3.04-3.09-3.04H468.99
	c-1.68,0-3.04,1.36-3.04,3.04v20.29c0,1.68,1.36,3.04,3.04,3.04H606.9z"/>
<g>
	<g>
		<path class="st0" d="M528.11,175.25c0-6.07,4.95-11.02,11.02-11.02c6.07,0,11.02,4.95,11.02,11.02c0,6.09-5,11.02-11.02,11.02
			C533.06,186.26,528.11,181.31,528.11,175.25z M549.28,175.25c0-5.6-4.55-10.16-10.16-10.16c-5.65,0-10.16,4.62-10.16,10.16
			c0,5.6,4.55,10.16,10.16,10.16S549.28,180.85,549.28,175.25z M540.53,171.46h-5.81v-2.45h9.03v1.8c-3.1,3.43-3.5,5.67-3.76,10.46
			h-3.01C537.23,177.25,537.98,174.64,540.53,171.46z"/>
	</g>
</g>
<path class="st4" d="M362.46,217.71h-89.04c-1.66,0-3-1.34-3-3v-19.27c0-1.66,1.34-3,3-3h89.04c1.66,0,3,1.34,3,3v19.27
	C365.46,216.37,364.12,217.71,362.46,217.71z"/>
<g>
	<g>
		<path class="st0" d="M328.5,204.96c0,6.09-5,11.02-11.02,11.02c-6.07,0-11.02-4.95-11.02-11.02c0-6.07,4.95-11.02,11.02-11.02
			C323.55,193.94,328.5,198.89,328.5,204.96z M327.64,204.96c0-5.6-4.55-10.16-10.16-10.16c-5.65,0-10.16,4.62-10.16,10.16
			c0,5.6,4.55,10.16,10.16,10.16S327.64,210.56,327.64,204.96z M322.06,208.09h-1.56v2.89h-2.78v-2.89h-5.81v-2.05l4.97-7.31h3.62
			v7.17h1.56V208.09z M317.81,201.25h-0.09c-0.44,0.75-0.61,1.12-1.05,1.84l-1.94,2.8h2.99v-1.91
			C317.72,203.16,317.74,202.06,317.81,201.25z"/>
	</g>
</g>
<path class="st4" d="M344.82,237.55v19.23c0,1.48-1.2,2.68-2.68,2.68h-60.47c-1.48,0-2.68,1.2-2.68,2.68v18.75
	c0,1.48,1.2,2.68,2.68,2.68h81.08c1.48,0,2.68-1.2,2.68-2.68v-1.08v-20.35v-21.92c0-1.48-1.2-2.68-2.68-2.68h-15.25
	C346.02,234.87,344.82,236.07,344.82,237.55z"/>
<g>
	<g>
		<path class="st0" d="M311.49,271.82c0-6.07,4.95-11.02,11.02-11.02s11.02,4.95,11.02,11.02c0,6.09-5,11.02-11.02,11.02
			C316.44,282.84,311.49,277.89,311.49,271.82z M332.66,271.82c0-5.6-4.55-10.16-10.16-10.16c-5.65,0-10.16,4.62-10.16,10.16
			c0,5.6,4.55,10.16,10.16,10.16S332.66,277.42,332.66,271.82z M317.6,276.35l1.38-1.87c0.82,0.72,1.82,1.31,3.22,1.31
			c1.19,0,2.03-0.56,2.03-1.49c0-1.05-0.72-1.68-3.69-1.68v-2.08c2.45,0,3.27-0.61,3.27-1.61c0-0.91-0.56-1.35-1.7-1.35
			c-0.91,0-1.77,0.37-2.61,1.12l-1.47-1.8c1.19-1,2.57-1.59,4.16-1.59c2.82,0,4.6,1.19,4.6,3.43c0,1.21-0.75,2.1-2.26,2.68v0.07
			c1.59,0.44,2.73,1.42,2.73,3.04c0,2.29-2.26,3.59-5,3.59C320.27,278.12,318.56,277.44,317.6,276.35z"/>
	</g>
</g>
<path class="st4" d="M539.79,308.86H427.64c-1.66,0-3-1.34-3-3v-57.37c0-1.66,1.34-3,3-3h112.16c1.66,0,3,1.34,3,3v57.37
	C542.79,307.51,541.45,308.86,539.79,308.86z"/>
<g>
	<g>
		<path class="st0" d="M472.39,277.79c0-6.07,4.95-11.02,11.02-11.02c6.07,0,11.02,4.95,11.02,11.02c0,6.09-5,11.02-11.02,11.02
			C477.34,288.81,472.39,283.86,472.39,277.79z M493.56,277.79c0-5.6-4.55-10.16-10.16-10.16c-5.65,0-10.16,4.62-10.16,10.16
			c0,5.6,4.55,10.16,10.16,10.16S493.56,283.39,493.56,277.79z M484.88,275.41c0-1.21-0.61-1.82-1.84-1.82
			c-1.03,0-1.84,0.61-2.52,1.24l-1.63-1.59c1.28-1.31,2.8-1.96,4.51-1.96c2.61,0,4.37,1.54,4.37,3.85c0,2.05-2.15,4.39-4.37,6.3
			c0.68-0.07,1.61-0.12,2.33-0.12h2.5v2.5h-9.08v-1.73C482.57,279.22,484.88,277.14,484.88,275.41z"/>
	</g>
</g>
<path class="st4" d="M723.03,308.96H549.94c-1.66,0-3-1.34-3-3v-85.03c0-1.66,1.34-3,3-3h173.08c1.66,0,3,1.34,3,3v85.03
	C726.03,307.61,724.68,308.96,723.03,308.96z"/>
<g>
	<path class="st0" d="M623.24,265.68c0-6.07,4.95-11.02,11.02-11.02c6.07,0,11.02,4.95,11.02,11.02c0,6.09-5,11.02-11.02,11.02
		C628.19,276.7,623.24,271.75,623.24,265.68z M644.41,265.68c0-5.6-4.55-10.16-10.16-10.16c-5.65,0-10.16,4.62-10.16,10.16
		c0,5.6,4.55,10.16,10.16,10.16S644.41,271.28,644.41,265.68z M630.76,260.59c1.4-0.28,2.38-0.61,3.29-1.14h2.24v12.26h-2.99v-9.24
		h-2.54V260.59z"/>
</g>
<path class="st4" d="M299.77,188.42h126.61c1.68,0,3.04-1.36,3.04-3.04v-20.29c0-1.68-1.36-3.04-3.04-3.04H299.77
	c-1.64,0-2.96,1.36-2.96,3.04v20.29C296.81,187.06,298.13,188.42,299.77,188.42z"/>
<g>
	<g>
		<path class="st0" d="M349.83,175.25c0-6.07,4.95-11.02,11.02-11.02c6.07,0,11.02,4.95,11.02,11.02c0,6.09-5,11.02-11.02,11.02
			C354.78,186.26,349.83,181.31,349.83,175.25z M371.01,175.25c0-5.6-4.55-10.16-10.16-10.16c-5.65,0-10.16,4.62-10.16,10.16
			c0,5.6,4.55,10.16,10.16,10.16S371.01,180.85,371.01,175.25z M356.11,179.8l1.33-1.89c0.82,0.65,1.77,1.31,3.08,1.31
			c1.33,0,2.19-0.72,2.19-1.94c0-1.19-0.89-1.89-2.1-1.89c-0.86,0-1.28,0.23-2.1,0.72l-1.33-0.86l0.37-6.23h7.52v2.45h-5.07
			l-0.19,2.26c0.65-0.21,1.19-0.33,1.61-0.33c2.31,0,4.25,1.21,4.25,3.83c0,2.71-2.29,4.29-4.93,4.29
			C358.61,181.52,357.16,180.8,356.11,179.8z"/>
	</g>
</g>
<path class="st2" d="M672.58,152.63"/>
<g>
	<g>
		<path class="st0" d="M920.05,347.97c-9.22-3.54-18.48-7.1-27.4-11.34c-1.84-0.88-3.7-1.78-5.43-2.86c-2.66-1.67-5-3.93-7.15-6.2
			c-5.27-5.56-9.48-12.01-14.3-17.96c-9.69-11.98-22.07-21.5-35.25-29.34c-13.72-8.17-28.42-14.92-43.26-20.78
			c-15.75-6.22-32.26-10.98-49.25-11.92c-2.14-0.12-4.28-0.17-6.42-0.16c-2.61,0.01-2.62,4.07,0,4.06
			c16.97-0.05,33.57,4.11,49.41,9.96c14.99,5.54,29.75,12.26,43.66,20.14c13.32,7.54,25.89,16.6,35.97,28.21
			c8.66,9.98,15.25,22.85,27.41,29.1c9.23,4.74,19.06,8.42,28.72,12.16c0.73,0.28,1.47,0.57,2.2,0.85c1.02,0.39,2.23-0.43,2.5-1.42
			C921.79,349.32,921.08,348.36,920.05,347.97L920.05,347.97z"/>
	</g>
</g>
<g>
	<g>
		<path class="st0" d="M845.69,291.83c-13.2-2.42-25.79,4.77-36.46,11.71c-10.17,6.62-19.67,14.24-30.13,20.42
			c-5.74,3.39-11.74,6.28-18.13,8.21c-2.49,0.75-1.43,4.67,1.08,3.91c23.22-6.99,39.99-25.57,61.37-36.09
			c6.49-3.19,13.9-5.59,21.18-4.25c1.08,0.2,2.19-0.3,2.5-1.42C847.38,293.34,846.78,292.03,845.69,291.83L845.69,291.83z"/>
	</g>
</g>
<g>
	<g>
		<path class="st0" d="M775.57,255.23c-5.81-6.82-11.63-13.65-17.44-20.47c-2.71-3.18-5.35-6.41-8.16-9.5
			c-2.44-2.69-5.16-5.27-8.38-7c-2.03-1.1-4.2-1.79-6.46-2.19c-2.38-0.43-4.76-0.71-7.02-1.6c-1.02-0.4-2.23,0.44-2.5,1.42
			c-0.32,1.15,0.39,2.09,1.42,2.5c3.75,1.48,7.96,1.22,11.63,2.94c3.14,1.47,5.7,3.85,8.03,6.37c5.67,6.13,10.91,12.7,16.32,19.05
			c3.23,3.79,6.46,7.58,9.69,11.37C774.4,260.09,777.26,257.2,775.57,255.23L775.57,255.23z"/>
	</g>
</g>
<g>
	<g>
		<path class="st0" d="M517.97,157.75c-13.75-5.74-26.92-12.95-39.07-21.59c-3.48-2.48-6.87-5.07-10.16-7.79
			c-2-1.65-4.89,1.21-2.87,2.87c11.96,9.85,25.07,18.22,38.99,25.01c3.95,1.93,7.97,3.72,12.03,5.41c1.01,0.42,2.23-0.46,2.5-1.42
			C519.71,159.07,518.98,158.17,517.97,157.75L517.97,157.75z"/>
	</g>
</g>
<g>
	<g>
		<path class="st0" d="M752.29,227.94c-11.8-15.45-26.6-28.8-43.81-37.97c-18.35-9.78-39.02-14.66-59.64-16.3
			c-5.83-0.46-11.68-0.67-17.54-0.65c-3,0.01-6,0.08-9,0.21c-1.5,0.06-2.99,0.14-4.49,0.23c-0.67,0.04-1.34,0.08-2.02,0.13
			c-0.37,0.03-0.75,0.05-1.12,0.08c-0.19,0.01-0.88-0.07-0.65,0.07c0.24,0.24,0.49,0.49,0.73,0.73c-0.06-0.08-0.12-0.16-0.17-0.24
			c0.09,0.34,0.18,0.68,0.28,1.02c-0.01-0.06-0.02-0.12-0.02-0.17c-0.09,0.34-0.18,0.68-0.28,1.02c-0.23,0.18-0.46,0.36-0.69,0.54
			c-0.36,0-0.72,0-1.08,0c0.05,0.01,0.1,0.01,0.14,0.02c-0.3-0.17-0.6-0.35-0.9-0.52c0.03,0.03,0.06,0.06,0.09,0.08
			c-0.2-0.48-0.4-0.96-0.59-1.44c0,0.05,0.01,0.1,0.01,0.16c0.2,2.59,4.26,2.61,4.06,0c-0.24-3.08-4.79-2.85-4.83,0.13
			c-0.05,3.29,4.07,2.63,6.14,2.5c5.54-0.35,11.08-0.52,16.63-0.49c11.12,0.07,22.25,0.96,33.19,2.98c21,3.89,41,11.98,57.82,25.28
			c9.05,7.15,17.21,15.47,24.21,24.64c0.66,0.87,1.75,1.33,2.78,0.73C752.42,230.22,752.96,228.82,752.29,227.94L752.29,227.94z"/>
	</g>
</g>
<g>
	<g>
		<path class="st0" d="M525.42,191.58c-0.51,10.02-11.2,14.68-19.49,16.96c-10.46,2.87-21.21,4.75-31.98,6.01
			c-21.75,2.54-43.7,2.51-65.57,2.13c-12.67-0.22-25.34-0.5-38.01-0.75c-2.61-0.05-2.61,4.01,0,4.06
			c23.02,0.46,46.08,1.29,69.1,0.82c22.52-0.46,45.29-2.35,67.11-8.23c5.61-1.51,11.21-3.54,15.71-7.33
			c4.07-3.43,6.91-8.29,7.18-13.66C529.62,188.97,525.56,188.98,525.42,191.58L525.42,191.58z"/>
	</g>
</g>
<path class="st5" d="M601.75,310.65h-33.69c-3.31,0-6-2.69-6-6v-33.69c0-3.31,2.69-6,6-6h33.69c3.31,0,6,2.69,6,6v33.69
	C607.75,307.96,605.07,310.65,601.75,310.65z"/>
<g>
	<path class="st0" d="M596.09,287.67c0,6.09-5,11.02-11.02,11.02c-6.07,0-11.02-4.95-11.02-11.02c0-6.07,4.95-11.02,11.02-11.02
		C591.14,276.65,596.09,281.6,596.09,287.67z M595.23,287.67c0-5.6-4.55-10.16-10.16-10.16c-5.65,0-10.16,4.62-10.16,10.16
		c0,5.6,4.55,10.16,10.16,10.16S595.23,293.27,595.23,287.67z M585.63,283.53c-1.47,0-2.8,0.91-2.92,3.78
		c0.77-0.84,1.96-1.33,3.01-1.33c2.15,0,3.88,1.19,3.88,3.81c0,2.62-2.01,4.18-4.51,4.18c-2.68,0-5.09-1.8-5.09-6.16
		c0-4.58,2.61-6.65,5.49-6.65c1.77,0,3.01,0.65,3.88,1.47l-1.56,1.77C587.31,283.93,586.45,283.53,585.63,283.53z M586.87,289.91
		c0-1.19-0.79-1.84-1.91-1.84c-0.72,0-1.47,0.33-2.15,1.19c0.3,1.94,1.21,2.5,2.31,2.5C586.05,291.75,586.87,291.1,586.87,289.91z"
		/>
</g>
</svg>
