<?xml version="1.0" encoding="utf-8"?>
<!-- Generator: Adobe Illustrator 23.0.5, SVG Export Plug-In . SVG Version: 6.00 Build 0)  -->
<svg version="1.1" id="Layer_1" xmlns="http://www.w3.org/2000/svg" xmlns:xlink="http://www.w3.org/1999/xlink" x="0px" y="0px"
	 viewBox="0 0 1154 764.7" style="enable-background:new 0 0 1154 764.7;" xml:space="preserve">
<style type="text/css">
	.st0{fill:#ECEEEF;}
	.st1{fill:#303030;}
	.st2{fill:#AFAFAF;}
	.st3{fill:none;}
	.st4{fill:#7D7D7D;}
	.st5{fill:#7D7D7D;stroke:#ECEEEF;stroke-width:3.65;stroke-miterlimit:10;}
</style>
<rect y="0.4" class="st0" width="1154" height="764.3"/>
<g>
	<path class="st1" d="M210,414.6c0-4.6,3.8-8.4,8.4-8.4s8.4,3.8,8.4,8.4c0,4.7-3.8,8.4-8.4,8.4C213.8,423,210,419.3,210,414.6z
		 M226.2,414.6c0-4.3-3.5-7.8-7.8-7.8c-4.4,0-7.8,3.5-7.8,7.8c0,4.3,3.5,7.8,7.8,7.8S226.2,419,226.2,414.6z M216.1,410.6
		c0.9-0.2,1.6-0.4,2.3-0.7h1.1v9.3H218v-7.6h-1.9L216.1,410.6L216.1,410.6z"/>
	<path class="st1" d="M232,420.8v-1.2h6.6v-3.7h1.5v3.7h6.6v1.2H232z M238.6,410.4h-5.2v-1.2h5.2V407h1.5v2.2h5.2v1.2h-5.2
		c0,2.5,2.6,4.4,5.8,4.9l-0.6,1.2c-2.6-0.5-4.9-1.8-5.9-3.8c-1,2-3.4,3.3-5.9,3.8l-0.6-1.2C236,414.8,238.6,412.9,238.6,410.4z"/>
	<path class="st1" d="M248.4,420.5v-1.2h5.7v-5.8h1.5v5.8h7.5v1.2H248.4z M250,408.3h11.3v1.6c0,2,0,4.2-0.6,7.5l-1.5-0.2
		c0.6-3.1,0.6-5.4,0.6-7.3v-0.4H250L250,408.3L250,408.3z"/>
	<path class="st1" d="M269.3,415c-2.4,0-4.2-1.5-4.2-3.8c0-2.2,1.8-3.7,4.2-3.7c2.5,0,4.2,1.5,4.2,3.7
		C273.5,413.4,271.7,415,269.3,415z M269.3,413.7c1.6,0,2.8-1,2.8-2.5c0-1.5-1.1-2.5-2.8-2.5c-1.6,0-2.8,1-2.8,2.5
		C266.5,412.7,267.7,413.7,269.3,413.7z M277.3,422.6h-10.2v-6.4h1.5v2h7.3v-2h1.5L277.3,422.6L277.3,422.6z M268.6,421.4h7.3v-2
		h-7.3V421.4z M277.3,415.4h-1.5v-8.7h1.5v3.7h2.4v1.2h-2.4V415.4z"/>
	<path class="st1" d="M286.6,412.8H285v-1.7h1.6V412.8z M286.6,420.5H285v-1.7h1.6V420.5z"/>
	<path class="st1" d="M294,408.3l1.8,3.4c0.3,0.6,0.6,1.1,1,1.9h0.1c0.4-0.8,0.6-1.3,0.9-1.9l1.8-3.4h1.8l-3.6,6.5l3.9,6.7h-1.8
		l-2-3.6c-0.3-0.6-0.7-1.3-1.1-2.1h-0.1c-0.4,0.8-0.7,1.5-1.1,2.1l-1.9,3.6h-1.8l3.9-6.8l-3.6-6.4H294z"/>
	<path class="st1" d="M305.2,420.1h5.8v1.4h-7.4v-13.2h1.7L305.2,420.1L305.2,420.1z"/>
	<path class="st1" d="M321.8,412.2c0,2.8-2,4.1-4.9,4.1h-2.2v5.2h-1.7v-13.2h3.8C319.9,408.3,321.8,409.3,321.8,412.2z M320.2,412.2
		c0-1.9-1.2-2.5-3.5-2.5h-1.9v5.3h2C319.1,414.9,320.2,414,320.2,412.2z"/>
	<path class="st1" d="M331.9,409.7H326v4.1h5v1.4h-5v4.8h6.1v1.4h-7.8v-13.2h7.6L331.9,409.7L331.9,409.7z"/>
	<path class="st1" d="M344.2,422h-1.4v-7.7h-3c-0.9,2-2.5,3.8-5,5.2l-0.9-1.1c2.5-1.4,3.9-3,4.7-4.9l-4.5,0.5l-0.2-1.3l5.1-0.3
		c0.2-0.9,0.4-1.7,0.4-2.6h-4.8v-1.2h6.2c0,1.5-0.2,3-0.6,4.5h2.5v-6h1.4L344.2,422L344.2,422z M346.2,422.8v-16.1h1.4v16.1H346.2z"
		/>
	<path class="st1" d="M359.1,413.5c0,3.4-1.7,5.6-4.1,5.6c-2.4,0-4.1-2.2-4.1-5.6s1.7-5.6,4.1-5.6
		C357.4,407.9,359.1,410.1,359.1,413.5z M352.3,413.5c0,2.6,1.1,4.3,2.7,4.3c1.6,0,2.7-1.7,2.7-4.3c0-2.6-1.1-4.3-2.7-4.3
		C353.4,409.2,352.3,410.9,352.3,413.5z M362,422.9v-16.2h1.5v16.2H362z"/>
	<path class="st1" d="M366.6,414.8v-1.2h14.6v1.2H366.6z M379.9,422.6h-11.4v-3.8h9.5v-1.4h-9.5v-1.1h11v3.6h-9.5v1.6h10
		L379.9,422.6L379.9,422.6z M368.6,407h1.5v1.5h7.9V407h1.5v5.3h-10.8V407z M370,411.1h7.9v-1.5H370V411.1z"/>
	<path class="st1" d="M383.6,422.8h-1.2l0.6-3.6h1.6L383.6,422.8z"/>
	<path class="st1" d="M390.2,414.8c0-4.2,2.3-6.8,5.6-6.8c3.3,0,5.6,2.6,5.6,6.8c0,4.3-2.3,6.9-5.6,6.9S390.2,419.1,390.2,414.8z
		 M399.8,414.8c0-3.3-1.5-5.4-3.9-5.4s-3.9,2-3.9,5.4c0,3.3,1.5,5.4,3.9,5.4C398.2,420.3,399.8,418.1,399.8,414.8z"/>
	<path class="st1" d="M411.7,409.7h-5.9v4.5h5v1.4h-5v5.9h-1.7v-13.2h7.6L411.7,409.7L411.7,409.7z"/>
	<path class="st1" d="M423.4,422H422v-7.7h-3c-0.9,2-2.5,3.8-5,5.2l-0.9-1.1c2.5-1.4,3.9-3,4.7-4.9l-4.5,0.5l-0.2-1.3l5.1-0.3
		c0.2-0.9,0.4-1.7,0.4-2.6h-4.8v-1.2h6.2c0,1.5-0.2,3-0.6,4.5h2.5v-6h1.4L423.4,422L423.4,422z M425.4,422.8v-16.1h1.4v16.1H425.4z"
		/>
	<path class="st1" d="M438.2,413.5c0,3.4-1.7,5.6-4.1,5.6c-2.4,0-4.1-2.2-4.1-5.6s1.7-5.6,4.1-5.6
		C436.5,407.9,438.2,410.1,438.2,413.5z M431.4,413.5c0,2.6,1.1,4.3,2.7,4.3c1.6,0,2.7-1.7,2.7-4.3c0-2.6-1.1-4.3-2.7-4.3
		C432.5,409.2,431.4,410.9,431.4,413.5z M441.1,422.9v-16.2h1.5v16.2H441.1z"/>
	<path class="st1" d="M445.8,414.8v-1.2h14.6v1.2H445.8z M459,422.6h-11.4v-3.8h9.5v-1.4h-9.5v-1.1h11v3.6H449v1.6h10L459,422.6
		L459,422.6z M447.7,407h1.5v1.5h7.9V407h1.5v5.3h-10.8V407z M449.2,411.1h7.9v-1.5h-7.9V411.1z"/>
	<path class="st1" d="M466.7,414.9c0-3.5,1-6.5,2.6-9.1l1,0.5c-1.6,2.6-2.3,5.5-2.3,8.7s0.7,6,2.3,8.7l-1,0.5
		C467.7,421.4,466.7,418.5,466.7,414.9z"/>
	<path class="st1" d="M474.2,414.6c-0.6,0-1.1,0.4-1.5,1.2l-0.9-0.6c0.7-1.3,1.6-1.8,2.5-1.8c1.6,0,2.4,1.7,3.6,1.7
		c0.6,0,1.1-0.4,1.5-1.2l0.9,0.7c-0.7,1.3-1.6,1.8-2.5,1.8C476.1,416.3,475.3,414.6,474.2,414.6z"/>
	<path class="st1" d="M486.1,413c2.8,0,4.3,1.7,4.3,4c0,2.8-2.1,4.6-4.8,4.6c-1.6,0-2.9-0.6-3.7-1.4l0.9-1.2
		c0.8,0.7,1.8,1.1,2.9,1.1c1.8,0,3.1-1.1,3.1-3.1c0-1.7-1.1-2.7-3-2.7c-0.7,0-1.4,0.2-2.2,0.4l-1.1-0.3l1.1-6.3h6.3v1.5h-5.2
		l-0.6,3.5C484.8,413,485.5,413,486.1,413z"/>
	<path class="st1" d="M496.7,421.7c-2.7,0-4.8-2.1-4.8-6.8c0-4.7,2.1-6.8,4.8-6.8c2.7,0,4.8,2.1,4.8,6.8
		C501.6,419.6,499.5,421.7,496.7,421.7z M496.7,409.4c-1.7,0-3.2,1.4-3.2,5.5c0,4.1,1.5,5.5,3.2,5.5s3.2-1.4,3.2-5.5
		C499.9,410.8,498.4,409.4,496.7,409.4z"/>
	<path class="st1" d="M507.3,421.7c-2.7,0-4.8-2.1-4.8-6.8c0-4.7,2.1-6.8,4.8-6.8c2.7,0,4.8,2.1,4.8,6.8
		C512.1,419.6,510,421.7,507.3,421.7z M507.3,409.4c-1.7,0-3.2,1.4-3.2,5.5c0,4.1,1.5,5.5,3.2,5.5s3.2-1.4,3.2-5.5
		C510.5,410.8,509,409.4,507.3,409.4z"/>
	<path class="st1" d="M515.7,416.9L515.7,416.9l4.2-5.2h1.8l-3.3,3.9l3.7,5.9h-1.8l-2.9-4.7l-1.8,2.1v2.6h-1.6v-14.3h1.6
		L515.7,416.9L515.7,416.9z"/>
	<path class="st1" d="M526.1,415.4c0.5,1.5,0.8,2.8,1.3,4.4h0.1c0.5-1.6,0.8-2.8,1.3-4.4l2.1-7.1h1.7l-4.2,13.2h-1.9l-4.2-13.2h1.8
		L526.1,415.4z"/>
	<path class="st1" d="M535.4,414.8c0-3.1-0.7-6-2.3-8.7l1-0.5c1.7,2.7,2.7,5.6,2.7,9.1c0,3.5-1,6.5-2.7,9.1l-1-0.5
		C534.7,420.9,535.4,418,535.4,414.8z"/>
	<path class="st1" d="M210,446.6c0-4.6,3.8-8.4,8.4-8.4s8.4,3.8,8.4,8.4c0,4.7-3.8,8.4-8.4,8.4C213.8,455,210,451.3,210,446.6z
		 M226.2,446.6c0-4.3-3.5-7.8-7.8-7.8c-4.4,0-7.8,3.5-7.8,7.8c0,4.3,3.5,7.8,7.8,7.8S226.2,451,226.2,446.6z M220.1,444.5
		c0-1.1-0.6-1.7-1.8-1.7c-0.9,0-1.6,0.5-2.2,1.1l-0.9-0.8c0.9-1,1.9-1.5,3.2-1.5c1.9,0,3.1,1.1,3.1,2.8c0,1.7-1.8,3.5-4.1,5.6
		c0.6,0,1.2-0.1,1.8-0.1h2.6v1.3h-6.6v-0.9C218.3,447.7,220.1,446,220.1,444.5z"/>
	<path class="st1" d="M236.8,444.3c-0.7,1.9-2.1,3.4-4,4.1l-0.8-1.2c2.5-0.9,4-3,4-5.5v-2h1.5v2c0,2.2,1.6,4.3,4,5.1l-0.7,1.2
		C238.9,447.3,237.5,446,236.8,444.3z M245.3,454.5h-10.7v-5h1.5v3.8h9.2L245.3,454.5L245.3,454.5z M244.6,444.8v5.7h-1.5v-11.9h1.5
		v5h2.4v1.2L244.6,444.8L244.6,444.8z"/>
	<path class="st1" d="M260.2,447.3v-3.6h-3.3c-0.3,1.9-1.9,3.2-4.1,3.2c-2.4,0-4.2-1.5-4.2-3.8c0-2.2,1.8-3.7,4.2-3.7
		c2.2,0,3.8,1.2,4.1,3.1h3.3v-3.8h1.5v8.7L260.2,447.3L260.2,447.3z M255.6,443.1c0-1.5-1.1-2.5-2.8-2.5s-2.8,1-2.8,2.5
		c0,1.5,1.1,2.5,2.8,2.5S255.6,444.6,255.6,443.1z M261.7,454.6h-10.3v-6.5h1.5v2h7.4v-2h1.5L261.7,454.6L261.7,454.6z M252.8,453.4
		h7.4v-2.1h-7.4V453.4z"/>
	<path class="st1" d="M269.7,444.4c-0.7,1.9-2.2,3.3-4.1,4l-0.8-1.1c2.4-0.9,4.1-3,4.1-5.3v-0.8h-3.6V440h8.6v1.2h-3.5v0.8
		c0,2.1,1.6,4.1,3.9,5l-0.7,1.1C271.8,447.4,270.4,446.1,269.7,444.4z M267.8,454.5v-5h1.5v3.8h9.3v1.2H267.8z M278.1,438.7v11.8
		h-1.5v-6.2h-3.2v-1.2h3.2v-4.5L278.1,438.7L278.1,438.7z"/>
	<path class="st1" d="M286,444.2c-0.7,1.9-2.1,3.4-4,4.2l-0.8-1.2c2.4-0.9,4-3.2,4-5.6v-2h1.5v2c0,2.3,1.6,4.4,3.9,5.2l-0.8,1.1
		C288,447.4,286.7,446,286,444.2z M284.1,454.5v-5h1.5v3.8h9.3v1.2L284.1,454.5L284.1,454.5z M289.5,442.5h3.5v-3.8h1.5v12.1H293
		v-7.1h-3.5V442.5z"/>
	<path class="st1" d="M303,444.8h-1.6v-1.7h1.6V444.8z M303,452.5h-1.6v-1.7h1.6V452.5z"/>
	<path class="st1" d="M309,452.5v-1.2h5.7v-5.8h1.5v5.8h7.5v1.2H309z M310.5,440.3h11.3v1.6c0,2,0,4.2-0.6,7.5l-1.5-0.2
		c0.6-3.1,0.6-5.4,0.6-7.3v-0.4h-9.9L310.5,440.3L310.5,440.3z"/>
	<path class="st1" d="M329.8,447c-2.4,0-4.2-1.5-4.2-3.8c0-2.2,1.8-3.7,4.2-3.7c2.5,0,4.2,1.5,4.2,3.7
		C334,445.4,332.3,447,329.8,447z M329.8,445.7c1.6,0,2.8-1,2.8-2.5c0-1.5-1.1-2.5-2.8-2.5c-1.6,0-2.8,1-2.8,2.5
		C327.1,444.7,328.2,445.7,329.8,445.7z M337.9,454.6h-10.2v-6.4h1.5v2h7.3v-2h1.5L337.9,454.6L337.9,454.6z M329.1,453.4h7.3v-2
		h-7.3V453.4z M337.9,447.4h-1.5v-8.7h1.5v3.7h2.4v1.2h-2.4V447.4z"/>
	<path class="st1" d="M350.1,445.7c0.7,0,1.1,0.6,1.1,1.1c0,0.6-0.5,1.2-1.1,1.2c-0.6,0-1.1-0.6-1.1-1.2
		C349,446.2,349.5,445.7,350.1,445.7z"/>
	<path class="st1" d="M370.9,452c0,1.9-2,2.8-5.5,2.8s-5.5-1-5.5-2.8c0-1.7,1.7-2.7,4.8-2.8v-1.7h-6.5v-1.2h14.6v1.2h-6.5v1.7
		C369.2,449.3,370.9,450.3,370.9,452z M364.5,440.6h-5v-1.2h11.9v1.2h-5c0.1,1.8,2.7,3.1,5.5,3.5l-0.5,1.2c-2.6-0.3-5-1.5-6-3.3
		c-0.9,1.8-3.3,3-6,3.3l-0.5-1.2C361.8,443.7,364.3,442.4,364.5,440.6z M365.4,450.3c-2.5,0-4,0.6-4,1.7s1.5,1.7,4,1.7
		c2.5,0,4-0.6,4-1.7S367.9,450.3,365.4,450.3z"/>
	<path class="st1" d="M384.3,450.1l-0.9,1.1c-1.8-0.9-3.4-2.9-4.1-5.1c-0.7,2.4-2.3,4.5-4.1,5.4l-0.9-1.2c2.3-1.1,4.2-4.2,4.2-7.1
		v-1.9h-3.7v-1.2h8.8v1.2h-3.7v1.9C380.1,446,382,449,384.3,450.1z M386.3,454.8v-9.1h-3.5v-1.2h3.5v-5.9h1.5v16.2L386.3,454.8
		L386.3,454.8z"/>
	<path class="st1" d="M395.4,447c-2.4,0-4.2-1.5-4.2-3.8c0-2.2,1.8-3.7,4.2-3.7c2.5,0,4.2,1.5,4.2,3.7
		C399.6,445.4,397.8,447,395.4,447z M395.4,445.7c1.6,0,2.8-1,2.8-2.5c0-1.5-1.1-2.5-2.8-2.5c-1.6,0-2.8,1-2.8,2.5
		C392.6,444.7,393.8,445.7,395.4,445.7z M403.4,454.6h-10.2v-6.4h1.5v2h7.3v-2h1.5L403.4,454.6L403.4,454.6z M394.7,453.4h7.3v-2
		h-7.3V453.4z M403.4,447.4h-1.5v-8.7h1.5v3.7h2.4v1.2h-2.4V447.4z"/>
	<path class="st1" d="M417.6,454h-1.4v-7.7h-3c-0.9,2-2.5,3.8-5,5.2l-0.9-1.1c2.5-1.4,3.9-3,4.7-4.9l-4.5,0.5l-0.2-1.3l5.1-0.3
		c0.2-0.9,0.4-1.7,0.4-2.6h-4.8v-1.2h6.2c0,1.5-0.2,3-0.6,4.5h2.5v-6h1.4L417.6,454L417.6,454z M419.5,454.8v-16.1h1.4v16.1H419.5z"
		/>
	<path class="st1" d="M432.4,445.5c0,3.4-1.7,5.6-4.1,5.6c-2.4,0-4.1-2.2-4.1-5.6s1.7-5.6,4.1-5.6
		C430.7,439.9,432.4,442.1,432.4,445.5z M425.6,445.5c0,2.6,1.1,4.3,2.7,4.3c1.6,0,2.7-1.7,2.7-4.3c0-2.6-1.1-4.3-2.7-4.3
		C426.7,441.2,425.6,442.9,425.6,445.5z M435.4,454.9v-16.2h1.5v16.2H435.4z"/>
	<path class="st1" d="M440,446.8v-1.2h14.6v1.2H440z M453.2,454.6h-11.4v-3.8h9.5v-1.4h-9.5v-1.1h11v3.6h-9.5v1.6h10L453.2,454.6
		L453.2,454.6z M441.9,439h1.5v1.5h7.9V439h1.5v5.3h-10.8V439z M443.4,443.1h7.9v-1.5h-7.9V443.1z"/>
	<path class="st1" d="M457,454.8h-1.2l0.6-3.6h1.6L457,454.8z"/>
	<path class="st1" d="M470.2,450.8H464v-10.6h1.4v3.9h3.4v-3.9h1.4L470.2,450.8L470.2,450.8z M465.4,449.6h3.4v-4.3h-3.4V449.6z
		 M475.8,454.8v-8.5h-2.2v7.8h-1.4v-15h1.4v6h2.2v-6.4h1.4v16.1H475.8z"/>
	<path class="st1" d="M484.7,444.4c-0.7,1.9-2.2,3.3-4.1,4l-0.8-1.1c2.4-0.9,4.1-3,4.1-5.3v-0.8h-3.6V440h8.6v1.2h-3.5v0.8
		c0,2.1,1.6,4.1,3.9,5l-0.7,1.1C486.8,447.4,485.4,446.1,484.7,444.4z M482.8,454.5v-5h1.5v3.8h9.3v1.2H482.8z M493.1,438.7v11.8
		h-1.5v-6.2h-3.2v-1.2h3.2v-4.5L493.1,438.7L493.1,438.7z"/>
	<path class="st1" d="M496.2,447.9v-1.2h3.6v-2.3c-1.3-0.5-2-1.3-2-2.4c0-1.9,2.2-3,5.7-3c3.5,0,5.7,1.1,5.7,3c0,1.1-0.7,1.9-2,2.4
		v2.3h3.6v1.2L496.2,447.9L496.2,447.9z M509,451.9c0,1.9-2,2.9-5.5,2.9c-3.5,0-5.5-1-5.5-2.9s2.1-2.9,5.5-2.9
		C507,449,509,450.1,509,451.9z M503.5,443.8c2.6,0,4.2-0.7,4.2-1.9c0-1.2-1.5-1.9-4.2-1.9s-4.2,0.7-4.2,1.9
		C499.3,443.1,500.9,443.8,503.5,443.8z M507.5,451.9c0-1.1-1.5-1.7-4-1.7c-2.5,0-4,0.6-4,1.7s1.5,1.7,4,1.7
		C506,453.7,507.5,453,507.5,451.9z M505.8,444.8c-0.6,0.1-1.4,0.2-2.3,0.2c-0.8,0-1.6,0-2.2-0.2v1.9h4.5V444.8z"/>
	<path class="st1" d="M524.4,442.6h-8v-1.2h3.3v-2.3h1.5v2.3h3.3L524.4,442.6L524.4,442.6z M523.9,447.4c0,2.2-1.5,3.7-3.5,3.7
		s-3.5-1.5-3.5-3.7c0-2.2,1.5-3.7,3.5-3.7C522.4,443.7,523.9,445.2,523.9,447.4z M522.6,447.4c0-1.4-0.9-2.4-2.1-2.4
		c-1.3,0-2.1,1-2.1,2.4s0.9,2.5,2.1,2.5S522.6,448.8,522.6,447.4z M528.7,454.8v-8.1h-2.1v7.4h-1.4v-15h1.4v6.5h2.1v-6.8h1.4v16.1
		L528.7,454.8L528.7,454.8z"/>
	<path class="st1" d="M542.6,450.1l-0.9,1.1c-1.8-0.9-3.4-2.9-4.1-5.1c-0.7,2.4-2.3,4.5-4.1,5.4l-0.9-1.2c2.3-1.1,4.2-4.2,4.2-7.1
		v-1.9h-3.7v-1.2h8.8v1.2h-3.7v1.9C538.4,446,540.3,449,542.6,450.1z M544.7,454.8v-9.1h-3.5v-1.2h3.5v-5.9h1.5v16.2L544.7,454.8
		L544.7,454.8z"/>
	<path class="st1" d="M559.5,454h-1.4v-7.7h-3c-0.9,2-2.5,3.8-5,5.2l-0.8-1.1c2.5-1.4,3.9-3,4.7-4.9l-4.5,0.5l-0.2-1.3l5.1-0.3
		c0.2-0.9,0.4-1.7,0.4-2.6h-4.8v-1.2h6.2c0,1.5-0.2,3-0.6,4.5h2.5v-6h1.4V454z M561.5,454.8v-16.1h1.4v16.1H561.5z"/>
	<path class="st1" d="M574.4,445.5c0,3.4-1.7,5.6-4.1,5.6c-2.4,0-4.1-2.2-4.1-5.6s1.7-5.6,4.1-5.6
		C572.7,439.9,574.4,442.1,574.4,445.5z M567.6,445.5c0,2.6,1.1,4.3,2.7,4.3c1.6,0,2.7-1.7,2.7-4.3c0-2.6-1.1-4.3-2.7-4.3
		C568.7,441.2,567.6,442.9,567.6,445.5z M577.3,454.9v-16.2h1.5v16.2H577.3z"/>
	<path class="st1" d="M581.9,446.8v-1.2h14.6v1.2H581.9z M595.2,454.6h-11.4v-3.8h9.5v-1.4h-9.5v-1.1h11v3.6h-9.5v1.6h10
		L595.2,454.6L595.2,454.6z M583.9,439h1.5v1.5h7.8V439h1.5v5.3h-10.8V439z M585.3,443.1h7.8v-1.5h-7.8V443.1z"/>
	<path class="st1" d="M598.9,454.8h-1.2l0.7-3.6h1.6L598.9,454.8z"/>
	<path class="st1" d="M605.4,447.5v-1.2H620v1.2H605.4z M611.8,440.7h-5v-1.2h11.9v1.2h-5c0,1.8,2.7,3.2,5.5,3.5l-0.5,1.2
		c-2.7-0.3-5.1-1.5-6-3.3c-0.9,1.8-3.3,2.9-6,3.3l-0.5-1.2C609.1,443.9,611.7,442.5,611.8,440.7z M618.2,451.9
		c0,1.9-2.1,2.9-5.5,2.9c-3.5,0-5.5-1-5.5-2.9c0-1.9,2.1-2.9,5.5-2.9C616.1,449,618.2,450,618.2,451.9z M616.7,451.9
		c0-1.1-1.5-1.8-4-1.8c-2.5,0-4,0.6-4,1.8s1.5,1.8,4,1.8C615.2,453.6,616.7,453,616.7,451.9z"/>
	<path class="st1" d="M621.8,447.9v-1.2h3.6v-2.3c-1.3-0.5-2-1.3-2-2.4c0-1.9,2.2-3,5.7-3c3.5,0,5.7,1.1,5.7,3c0,1.1-0.7,1.9-2,2.4
		v2.3h3.6v1.2L621.8,447.9L621.8,447.9z M634.6,451.9c0,1.9-2,2.9-5.5,2.9c-3.5,0-5.5-1-5.5-2.9s2.1-2.9,5.5-2.9
		C632.6,449,634.6,450.1,634.6,451.9z M629.1,443.8c2.6,0,4.2-0.7,4.2-1.9c0-1.2-1.5-1.9-4.2-1.9s-4.2,0.7-4.2,1.9
		C624.9,443.1,626.5,443.8,629.1,443.8z M633.1,451.9c0-1.1-1.5-1.7-4-1.7c-2.5,0-4,0.6-4,1.7s1.5,1.7,4,1.7S633.1,453,633.1,451.9z
		 M631.3,444.8c-0.6,0.1-1.4,0.2-2.3,0.2c-0.8,0-1.6,0-2.2-0.2v1.9h4.5V444.8z"/>
	<path class="st1" d="M640.2,447.5h-1.3v-4.6h5.8v-2h-5.8v-1.2h7.3v4.4h-5.8v2.2c2.8,0,4.9-0.1,7.3-0.5l0.1,1.2
		C645.3,447.4,643.1,447.5,640.2,447.5z M650.9,451.9c0,1.9-2,2.9-5.3,2.9c-3.3,0-5.3-1.1-5.3-2.9s2-3,5.3-3
		C648.8,448.9,650.9,450,650.9,451.9z M649.4,451.9c0-1.1-1.4-1.8-3.8-1.8s-3.9,0.6-3.9,1.8s1.4,1.8,3.9,1.8S649.4,453,649.4,451.9z
		 M653.1,444.6v1.2h-2.4v2.6h-1.5v-9.8h1.5v2.5h2.4v1.2h-2.4v2.2L653.1,444.6L653.1,444.6z"/>
	<path class="st1" d="M655.5,451.8l-0.8-1.1c4.2-2.1,6.3-5.1,6.7-9h-5.9v-1.2h7.4C662.8,445,660.7,449.2,655.5,451.8z M667,454.8
		h-1.5v-16.1h1.5v6.5h2.6v1.2H667V454.8z"/>
	<path class="st1" d="M671,447.4v-1.2h6v-3.1h1.5v3.1h7.1v1.2H671z M683.8,451.8c0,1.8-2.2,3-5.6,3s-5.6-1.1-5.6-3
		c0-1.9,2.2-3,5.6-3S683.8,450,683.8,451.8z M672.7,439.5h11v1.4c0,1.3,0,2.6-0.5,4.3l-1.4-0.2c0.4-1.7,0.4-2.9,0.4-4.1v-0.2h-9.5
		V439.5z M682.3,451.8c0-1.1-1.6-1.8-4.2-1.8c-2.5,0-4.1,0.7-4.1,1.8c0,1.1,1.6,1.8,4.1,1.8C680.7,453.6,682.3,453,682.3,451.8z"/>
	<path class="st1" d="M692.1,444.2c-0.7,1.9-2.1,3.4-4,4.2l-0.8-1.2c2.4-0.9,4-3.2,4-5.6v-2h1.5v2c0,2.3,1.6,4.4,3.9,5.2L696,448
		C694.2,447.4,692.8,446,692.1,444.2z M690.2,454.5v-5h1.5v3.8h9.3v1.2L690.2,454.5L690.2,454.5z M695.6,442.5h3.5v-3.8h1.5v12.1
		h-1.5v-7.1h-3.5V442.5z"/>
	<path class="st1" d="M707.5,447.6v-1.2h14.6v1.2H707.5z M720.4,451.9c0,1.9-2.1,2.9-5.5,2.9s-5.5-1-5.5-2.9c0-1.9,2.1-2.9,5.5-2.9
		C718.3,449,720.4,450,720.4,451.9z M709.4,439.3h11v1.2h-9.5v3.1h9.6v1.2h-11.1V439.3z M718.9,451.9c0-1.1-1.5-1.8-4-1.8
		c-2.5,0-4,0.6-4,1.8s1.5,1.8,4,1.8C717.4,453.6,718.9,453,718.9,451.9z"/>
	<path class="st1" d="M210,478.6c0-4.6,3.8-8.4,8.4-8.4s8.4,3.8,8.4,8.4c0,4.7-3.8,8.4-8.4,8.4C213.8,487,210,483.3,210,478.6z
		 M226.2,478.6c0-4.3-3.5-7.8-7.8-7.8c-4.4,0-7.8,3.5-7.8,7.8c0,4.3,3.5,7.8,7.8,7.8S226.2,483,226.2,478.6z M214.9,482.1l0.7-1
		c0.6,0.6,1.4,1.1,2.7,1.1c1.2,0,2-0.6,2-1.6c0-1-0.8-1.7-3.2-1.7v-1.1c2.1,0,2.9-0.7,2.9-1.6c0-0.9-0.6-1.4-1.7-1.4
		c-0.9,0-1.6,0.3-2.2,0.9l-0.8-0.9c0.8-0.7,1.8-1.2,3-1.2c1.9,0,3.2,0.9,3.2,2.5c0,1.1-0.8,1.8-1.8,2.2v0c1.2,0.3,2.2,1.1,2.2,2.4
		c0,1.7-1.6,2.7-3.5,2.7C216.7,483.4,215.6,482.8,214.9,482.1z"/>
	<path class="st1" d="M232,484.7v-1.2h6.5v-3.9h1.5v3.9h6.7v1.2H232z M239.3,475.3c-1.1,2.3-3.6,4-6.1,4.5l-0.6-1.2
		c2.8-0.5,5.9-2.9,5.9-5.6v-1.2h1.6v1.2c0,2.7,3.1,5.1,5.9,5.6l-0.6,1.2C242.9,479.2,240.4,477.6,239.3,475.3z"/>
	<path class="st1" d="M256.6,481.8l-0.9,1.1c-1.6-0.9-2.7-2.4-3.3-4.4c-0.6,2.3-1.7,3.9-3.4,4.9l-0.9-1.1c2.3-1.3,3.5-4.1,3.5-7.3
		v-1.3h-3.1v-1.2h7.5v1.2h-2.9v1.3C253.2,478,254.3,480.6,256.6,481.8z M260.8,486.8v-8.4h-2.1v7.6h-1.4v-15h1.4v6.2h2.1v-6.5h1.4
		v16.2H260.8z"/>
	<path class="st1" d="M270.3,476.8h-1.6v-1.7h1.6V476.8z M270.3,484.5h-1.6v-1.7h1.6V484.5z"/>
	<path class="st1" d="M284.4,480.1v3.3h-1.5v-3.3h-6.7v-1.2h14.7v1.2H284.4z M283.5,473.9c-1,1.9-3.4,3.2-5.9,3.7l-0.6-1.1
		c2.9-0.4,5.7-2.3,5.7-4.5v-0.8h1.5v0.8c0,2.1,2.8,4,5.6,4.5l-0.6,1.1C286.9,477.1,284.5,475.7,283.5,473.9z M289.2,486.5H278v-4.6
		h1.5v3.4h9.7L289.2,486.5L289.2,486.5z"/>
	<path class="st1" d="M292.6,484.8v-1.2h6.6v-4.1h-4.7V472h11v1.2h-9.5v5.1h9.6v1.2h-4.9v4.1h6.6v1.2H292.6z"/>
	<path class="st1" d="M319.1,479.2c-0.7,0.6-1.5,0.9-2.5,0.9c-2.1,0-3.8-1.4-3.8-3.9c0-2.4,1.9-4.3,4.5-4.3c2.6,0,4.3,1.8,4.3,4.4
		c0,1.6-0.6,2.8-1.6,4.2l-3.6,5h-2.1l4.1-5.2C318.8,479.7,319,479.4,319.1,479.2z M317.1,478.8c1.8,0,2.8-1.3,2.8-2.6
		c0-1.7-1.2-2.8-2.7-2.8c-1.7,0-2.8,1.1-2.8,2.7C314.5,477.8,315.5,478.8,317.1,478.8z"/>
	<path class="st1" d="M329.7,479.2c-0.7,0.6-1.5,0.9-2.5,0.9c-2.1,0-3.8-1.4-3.8-3.9c0-2.4,1.9-4.3,4.5-4.3c2.6,0,4.3,1.8,4.3,4.4
		c0,1.6-0.6,2.8-1.6,4.2l-3.6,5h-2.1l4.1-5.2C329.4,479.7,329.6,479.4,329.7,479.2z M327.7,478.8c1.8,0,2.8-1.3,2.8-2.6
		c0-1.7-1.2-2.8-2.7-2.8c-1.7,0-2.8,1.1-2.8,2.7C325,477.8,326,478.8,327.7,478.8z"/>
	<path class="st1" d="M335.3,485.7h-1.6V484h1.6V485.7z"/>
	<path class="st1" d="M344.2,479.2c-0.7,0.6-1.5,0.9-2.5,0.9c-2.1,0-3.8-1.4-3.8-3.9c0-2.4,1.9-4.3,4.5-4.3c2.6,0,4.3,1.8,4.3,4.4
		c0,1.6-0.6,2.8-1.6,4.2l-3.6,5h-2.1l4.1-5.2C343.9,479.7,344.1,479.4,344.2,479.2z M342.2,478.8c1.8,0,2.8-1.3,2.8-2.6
		c0-1.7-1.2-2.8-2.7-2.8c-1.7,0-2.8,1.1-2.8,2.7C339.5,477.8,340.5,478.8,342.2,478.8z"/>
	<path class="st1" d="M351.4,485.5h-1.8l5.4-10.8l0.6-1h-6.9v-1.4h8.7v1.1L351.4,485.5z"/>
	<path class="st1" d="M358.7,476c0-2.7,1.2-4,3-4c1.9,0,3,1.3,3,4c0,2.7-1.2,4-3,4C359.9,480,358.7,478.7,358.7,476z M363.4,476
		c0-2.1-0.7-2.9-1.7-2.9S360,474,360,476c0,2.1,0.7,2.9,1.7,2.9C362.7,478.9,363.4,478.1,363.4,476z M363.4,485.7h-1.4l7.3-13.7h1.4
		L363.4,485.7z M367.8,481.6c0-2.7,1.2-4,3-4s3,1.3,3,4s-1.2,4-3,4S367.8,484.3,367.8,481.6z M372.5,481.6c0-2.1-0.7-2.9-1.7-2.9
		c-1,0-1.7,0.8-1.7,2.9s0.7,2.9,1.7,2.9C371.9,484.5,372.5,483.7,372.5,481.6z"/>
	<path class="st1" d="M379.2,484.5v-1.2h5.7v-5.8h1.5v5.8h7.5v1.2H379.2z M380.8,472.3h11.3v1.6c0,2,0,4.2-0.6,7.5l-1.5-0.2
		c0.6-3.1,0.6-5.4,0.6-7.3v-0.4h-9.9L380.8,472.3L380.8,472.3z"/>
	<path class="st1" d="M408.4,481.6v5h-11v-5h4.8v-1.9h-6.6v-1.2h14.6v1.2h-6.5v1.9H408.4z M397,471.2h11.9v1.2h-2.5v3.4h2.4v1.2H397
		v-1.2h2.4v-3.4H397L397,471.2L397,471.2z M398.8,485.4h8.1v-2.7h-8.1V485.4z M400.9,475.8h4v-3.4h-4V475.8z"/>
	<path class="st1" d="M417,475.2c-0.7,1.8-2.2,3.2-4.2,3.9l-0.7-1.2c2.4-0.8,4.1-2.8,4.1-5v-0.2h-3.7v-1.2h8.9v1.2h-3.6v0.2
		c0,2.1,1.7,3.9,4.1,4.6l-0.7,1.1C419.3,478.1,417.8,476.9,417,475.2z M414.8,486.6v-4h9V481h-9v-1.1h10.5v3.9h-9v1.8h9.5v1.2
		L414.8,486.6L414.8,486.6z M423.7,470.7h1.5v8.4h-1.5V470.7z"/>
	<path class="st1" d="M432.3,478.9c0-4.3,2.5-6.9,5.9-6.9c1.6,0,2.9,0.8,3.6,1.6l-0.9,1.1c-0.7-0.7-1.5-1.3-2.7-1.3
		c-2.5,0-4.2,2-4.2,5.4c0,3.3,1.6,5.4,4.1,5.4c1.3,0,2.2-0.6,3.1-1.5l0.9,1c-1.1,1.2-2.3,1.9-4,1.9
		C434.8,485.7,432.3,483.2,432.3,478.9z"/>
	<path class="st1" d="M443.5,480.6c0-3.3,2.1-5.1,4.5-5.1c2.4,0,4.5,1.9,4.5,5.1c0,3.2-2.1,5.1-4.5,5.1
		C445.6,485.7,443.5,483.8,443.5,480.6z M450.9,480.6c0-2.3-1.2-3.8-2.8-3.8c-1.7,0-2.8,1.5-2.8,3.8s1.1,3.8,2.8,3.8
		C449.7,484.4,450.9,482.9,450.9,480.6z"/>
	<path class="st1" d="M456.4,476.8L456.4,476.8c0.9-0.7,2-1.4,3.2-1.4c2.5,0,3.9,2,3.9,5c0,3.4-2,5.3-4.3,5.3
		c-0.9,0-1.8-0.4-2.7-1.1l0,1.7v3.3h-1.6v-13.9h1.4L456.4,476.8z M461.8,480.5c0-2.2-0.7-3.6-2.6-3.6c-0.9,0-1.7,0.5-2.6,1.4v5.1
		c0.9,0.8,1.8,1,2.4,1C460.6,484.4,461.8,482.9,461.8,480.5z"/>
	<path class="st1" d="M467.4,476.8L467.4,476.8c0.9-0.7,2-1.4,3.2-1.4c2.5,0,3.9,2,3.9,5c0,3.4-2,5.3-4.3,5.3
		c-0.9,0-1.8-0.4-2.7-1.1l0,1.7v3.3h-1.6v-13.9h1.4L467.4,476.8z M472.8,480.5c0-2.2-0.7-3.6-2.6-3.6c-0.9,0-1.7,0.5-2.6,1.4v5.1
		c0.9,0.8,1.8,1,2.4,1C471.6,484.4,472.8,482.9,472.8,480.5z"/>
	<path class="st1" d="M476.2,480.6c0-3.2,2.1-5.1,4.4-5.1c2.5,0,3.9,1.8,3.9,4.6c0,0.4,0,0.7-0.1,0.9h-6.6c0.1,2.1,1.4,3.4,3.2,3.4
		c1,0,1.7-0.3,2.5-0.8l0.6,1.1c-0.9,0.6-1.9,1-3.2,1C478.2,485.7,476.2,483.8,476.2,480.6z M480.6,476.8c-1.4,0-2.6,1.1-2.8,3h5.2
		C483,477.8,482.1,476.8,480.6,476.8z"/>
	<path class="st1" d="M488.2,477.5L488.2,477.5c0.8-1.2,1.7-2,2.8-2c0.4,0,0.7,0,1,0.2l-0.3,1.4c-0.3-0.1-0.5-0.2-1-0.2
		c-0.8,0-1.8,0.6-2.5,2.3v6.3h-1.6v-9.8h1.3L488.2,477.5z"/>
	<path class="st1" d="M499.2,479.9v5.6h-1.7v-13.2h4.1c2.7,0,4.6,1,4.6,3.7c0,2.1-1.2,3.3-3,3.7l3.4,5.8h-1.9l-3.2-5.6L499.2,479.9
		L499.2,479.9z M504.6,476c0-1.8-1.1-2.4-3.2-2.4h-2.2v4.9h2.2C503.5,478.5,504.6,477.7,504.6,476z"/>
	<path class="st1" d="M507.8,480.6c0-3.3,2.1-5.1,4.5-5.1c2.4,0,4.5,1.9,4.5,5.1c0,3.2-2.1,5.1-4.5,5.1
		C510,485.7,507.8,483.8,507.8,480.6z M515.2,480.6c0-2.3-1.2-3.8-2.8-3.8c-1.7,0-2.8,1.5-2.8,3.8s1.2,3.8,2.8,3.8
		C514.1,484.4,515.2,482.9,515.2,480.6z"/>
	<path class="st1" d="M518.6,480.6c0-3.2,2-5.1,4.2-5.1c1.2,0,1.9,0.4,2.8,1.1l-0.1-1.7v-3.8h1.6v14.3h-1.3l-0.2-1.1h0
		c-0.8,0.8-1.8,1.4-3,1.4C520.2,485.7,518.6,483.9,518.6,480.6z M525.5,483v-5.1c-0.8-0.7-1.6-1-2.4-1c-1.6,0-2.8,1.5-2.8,3.8
		c0,2.4,1,3.8,2.7,3.8C523.9,484.4,524.7,483.9,525.5,483z"/>
	<path class="st1" d="M537.6,476.3c-0.6,1.5-1.7,2.9-3.3,3.6l-0.8-1.1c2.1-0.9,3.4-3,3.4-4.8v-2.2h1.4v2.2c0,1.8,1.2,3.6,3.3,4.4
		l-0.8,1.1C539.2,478.8,538.1,477.6,537.6,476.3z M547.2,483.9c0,1.8-2.1,2.9-5.4,2.9s-5.4-1.1-5.4-2.9s2.1-2.9,5.4-2.9
		S547.2,482.1,547.2,483.9z M545.7,483.9c0-1.1-1.5-1.8-3.9-1.8s-3.9,0.6-3.9,1.8s1.5,1.8,3.9,1.8S545.7,485,545.7,483.9z
		 M542.2,471h1.4v4h2v-4.3h1.4v10h-1.4v-4.4h-2v3.9h-1.4V471z"/>
	<path class="st1" d="M554.6,476.3c-0.7,1.9-2.1,3.4-4,4.1l-0.8-1.2c2.5-0.9,4-3,4-5.5v-2h1.5v2c0,2.2,1.6,4.3,4,5.1l-0.7,1.2
		C556.7,479.3,555.3,478,554.6,476.3z M563.1,486.5h-10.7v-5h1.5v3.8h9.2L563.1,486.5L563.1,486.5z M562.4,476.8v5.7h-1.5v-11.9h1.5
		v5h2.4v1.2L562.4,476.8L562.4,476.8z"/>
	<path class="st1" d="M226.8,510.6c0,4.7-3.8,8.4-8.4,8.4c-4.6,0-8.4-3.8-8.4-8.4s3.8-8.4,8.4-8.4C223,502.3,226.8,506,226.8,510.6z
		 M226.2,510.6c0-4.3-3.5-7.8-7.8-7.8c-4.4,0-7.8,3.5-7.8,7.8c0,4.3,3.5,7.8,7.8,7.8S226.2,515,226.2,510.6z M221.7,512.7h-1.4v2.5
		h-1.4v-2.5h-4.6v-1l4.3-5.9h1.7v5.7h1.4L221.7,512.7L221.7,512.7z M219,507.3L219,507.3c-0.3,0.5-0.5,0.8-0.9,1.3l-2.3,3h3.1v-2.4
		C218.9,508.7,218.9,507.9,219,507.3z"/>
	<path class="st1" d="M232,512.4v-1.2h6.6v-1.6h-4.6v-6.5h10.9v1.1h-9.4v1.5h9v1.1h-9v1.6h9.5v1.1h-4.9v1.6h6.6v1.2L232,512.4
		L232,512.4z M244.9,516.2c0,1.7-1.9,2.6-5.5,2.6s-5.5-0.9-5.5-2.6c0-1.7,1.9-2.6,5.5-2.6S244.9,514.5,244.9,516.2z M243.4,516.2
		c0-1-1.4-1.5-4.1-1.5s-4.1,0.5-4.1,1.5c0,1,1.4,1.5,4.1,1.5S243.4,517.2,243.4,516.2z"/>
	<path class="st1" d="M253.4,507.9c-0.7,2-2.1,3.5-4,4.3l-0.8-1.2c2.4-0.9,4.1-3.3,4.1-5.8v-1.6h1.5v1.6c0,2.4,1.7,4.6,4,5.5
		l-0.8,1.2C255.5,511.2,254.1,509.8,253.4,507.9z M251.3,518.5v-5h1.5v3.8h9.4v1.2L251.3,518.5L251.3,518.5z M260.2,502.7h1.5v11.9
		h-1.5V502.7z"/>
	<path class="st1" d="M270.3,508.8h-1.6v-1.7h1.6V508.8z M270.3,516.5h-1.6v-1.7h1.6V516.5z"/>
	<path class="st1" d="M286.6,510.8c0,4.2-2.2,6.6-6.2,6.6H277v-13.2h3.3C284.5,504.3,286.6,506.5,286.6,510.8z M284.9,510.8
		c0-3.4-1.5-5.2-4.6-5.2h-1.5v10.5h1.5C283.3,516.1,284.9,514.2,284.9,510.8z"/>
	<path class="st1" d="M289.2,517.5h-1.7l4.5-13.2h1.9l4.5,13.2h-1.8l-1.3-4h-4.8L289.2,517.5z M292.9,505.6L292.9,505.6
		c-0.5,1.6-0.9,3-1.4,4.5l-0.6,2h4l-0.6-2C293.8,508.6,293.3,507.2,292.9,505.6z"/>
	<path class="st1" d="M298.7,504.3h9.7v1.4h-4v11.8h-1.7v-11.8h-4V504.3z"/>
	<path class="st1" d="M310.5,517.5h-1.7l4.5-13.2h1.9l4.5,13.2h-1.8l-1.3-4h-4.8L310.5,517.5z M314.3,505.6L314.3,505.6
		c-0.5,1.6-0.9,3-1.4,4.5l-0.6,2h4l-0.6-2C315.1,508.6,314.7,507.2,314.3,505.6z"/>
	<path class="st1" d="M334.7,518h-1.4v-7.7h-3c-0.9,2-2.5,3.8-5,5.2l-0.9-1.1c2.5-1.4,3.9-3,4.7-4.9l-4.5,0.5l-0.2-1.3l5.1-0.3
		c0.2-0.9,0.4-1.7,0.4-2.6h-4.8v-1.2h6.2c0,1.5-0.2,3-0.6,4.5h2.5v-6h1.4L334.7,518L334.7,518z M336.6,518.8v-16.1h1.4v16.1H336.6z"
		/>
	<path class="st1" d="M349.5,509.5c0,3.4-1.7,5.6-4.1,5.6c-2.4,0-4.1-2.2-4.1-5.6s1.7-5.6,4.1-5.6
		C347.8,503.9,349.5,506.1,349.5,509.5z M342.7,509.5c0,2.6,1.1,4.3,2.7,4.3c1.6,0,2.7-1.7,2.7-4.3c0-2.6-1.1-4.3-2.7-4.3
		C343.8,505.2,342.7,506.9,342.7,509.5z M352.4,518.8v-16.2h1.5v16.2H352.4z"/>
	<path class="st1" d="M357.1,510.8v-1.2h14.6v1.2H357.1z M370.3,518.6h-11.4v-3.8h9.5v-1.4h-9.5v-1.1h11v3.6h-9.5v1.6h10
		L370.3,518.6L370.3,518.6z M359,503h1.5v1.5h7.9V503h1.5v5.3H359V503z M360.5,507.1h7.9v-1.5h-7.9V507.1z"/>
	<path class="st1" d="M374.1,518.8h-1.2l0.6-3.6h1.6L374.1,518.8z"/>
	<path class="st1" d="M388.5,518.8h-1.5v-5.5h-6.5V512h14.7v1.2h-6.6V518.8z M382.4,503.6h10.9v6.3h-10.9V503.6z M383.8,508.7h8
		v-3.9h-8V508.7z"/>
	<path class="st1" d="M401.7,508.2c-0.7,1.9-2.1,3.4-4,4.2l-0.8-1.2c2.4-0.9,4-3.2,4-5.6v-2h1.5v2c0,2.3,1.6,4.4,3.9,5.2l-0.8,1.1
		C403.8,511.4,402.4,510,401.7,508.2z M399.8,518.5v-5h1.5v3.8h9.3v1.2L399.8,518.5L399.8,518.5z M405.2,506.5h3.5v-3.8h1.5v12.1
		h-1.5v-7.1h-3.5V506.5z"/>
	<path class="st1" d="M413.3,512.4v-1.2h6.6v-1.6h-4.6v-6.5h10.9v1.1h-9.4v1.5h9v1.1h-9v1.6h9.5v1.1h-4.9v1.6h6.6v1.2L413.3,512.4
		L413.3,512.4z M426.1,516.2c0,1.7-2,2.6-5.5,2.6s-5.5-0.9-5.5-2.6c0-1.7,1.9-2.6,5.5-2.6S426.1,514.5,426.1,516.2z M424.6,516.2
		c0-1-1.4-1.5-4-1.5s-4,0.5-4,1.5c0,1,1.4,1.5,4,1.5S424.6,517.2,424.6,516.2z"/>
	<path class="st1" d="M434.6,507.9c-0.7,2-2.1,3.5-4,4.3l-0.8-1.2c2.5-0.9,4-3.3,4-5.8v-1.6h1.5v1.6c0,2.4,1.7,4.6,4,5.5l-0.8,1.2
		C436.8,511.2,435.4,509.8,434.6,507.9z M432.5,518.5v-5h1.5v3.8h9.4v1.2L432.5,518.5L432.5,518.5z M441.5,502.7h1.5v11.9h-1.5
		V502.7z"/>
	<path class="st1" d="M446,511.9v-1.2h3.6v-2.3c-1.3-0.5-2-1.3-2-2.4c0-1.9,2.2-3,5.7-3c3.5,0,5.7,1.1,5.7,3c0,1.1-0.7,1.9-2,2.4
		v2.3h3.6v1.2L446,511.9L446,511.9z M458.9,515.9c0,1.8-2,2.9-5.5,2.9c-3.5,0-5.5-1-5.5-2.9s2.1-2.9,5.5-2.9
		C456.8,513,458.9,514.1,458.9,515.9z M453.4,507.8c2.6,0,4.2-0.7,4.2-1.9c0-1.2-1.5-1.9-4.2-1.9c-2.6,0-4.2,0.7-4.2,1.9
		C449.2,507.1,450.7,507.8,453.4,507.8z M457.4,515.9c0-1.1-1.5-1.7-4-1.7s-4,0.6-4,1.7s1.5,1.7,4,1.7S457.4,517,457.4,515.9z
		 M455.6,508.8c-0.6,0.1-1.4,0.2-2.3,0.2c-0.8,0-1.6,0-2.2-0.2v1.9h4.5V508.8z"/>
	<path class="st1" d="M476.7,518h-1.4v-7.7h-3c-0.9,2-2.5,3.8-5,5.2l-0.9-1.1c2.5-1.4,3.9-3,4.7-4.9l-4.5,0.5l-0.2-1.3l5.1-0.3
		c0.2-0.9,0.4-1.7,0.4-2.6h-4.8v-1.2h6.2c0,1.5-0.2,3-0.6,4.5h2.5v-6h1.4L476.7,518L476.7,518z M478.6,518.8v-16.1h1.4v16.1H478.6z"
		/>
	<path class="st1" d="M491.5,509.5c0,3.4-1.7,5.6-4.1,5.6c-2.4,0-4.1-2.2-4.1-5.6s1.7-5.6,4.1-5.6
		C489.8,503.9,491.5,506.1,491.5,509.5z M484.7,509.5c0,2.6,1.1,4.3,2.7,4.3c1.6,0,2.7-1.7,2.7-4.3c0-2.6-1.1-4.3-2.7-4.3
		C485.8,505.2,484.7,506.9,484.7,509.5z M494.4,518.8v-16.2h1.5v16.2H494.4z"/>
	<path class="st1" d="M499,510.8v-1.2h14.6v1.2H499z M512.3,518.6h-11.4v-3.8h9.5v-1.4h-9.5v-1.1h11v3.6h-9.5v1.6h10L512.3,518.6
		L512.3,518.6z M501,503h1.5v1.5h7.8V503h1.5v5.3H501V503z M502.4,507.1h7.8v-1.5h-7.8V507.1z"/>
	<path class="st1" d="M516,518.8h-1.2l0.7-3.6h1.6L516,518.8z"/>
	<path class="st1" d="M522.6,511.6l-0.2-1.2h1.6c0.6,0,1.2,0,1.8,0v-3.2h1.5v3.1c1.8-0.1,3.6-0.2,5.2-0.4l0.1,1.1
		C529.3,511.5,525.5,511.6,522.6,511.6z M529.9,504.9h-6.5v-1.2h8v0.9c0,1,0,2.5-0.4,4.4l-1.4-0.1
		C529.9,507.1,529.9,505.9,529.9,504.9z M535.2,515.8c0,1.9-2,2.9-5.4,2.9c-3.3,0-5.4-1.1-5.4-2.9c0-1.8,2-2.9,5.4-2.9
		C533.2,513,535.2,514,535.2,515.8z M533.7,515.8c0-1.1-1.5-1.8-3.9-1.8s-3.9,0.7-3.9,1.8c0,1.2,1.5,1.8,3.9,1.8
		S533.7,517,533.7,515.8z M535.1,508.3v4.4h-1.5v-10.1h1.5v4.4h2.3v1.2H535.1z"/>
	<path class="st1" d="M549.2,518h-1.4v-7.7h-3c-0.9,2-2.5,3.8-5,5.2l-0.8-1.1c2.5-1.4,3.9-3,4.7-4.9l-4.5,0.5l-0.2-1.3l5.1-0.3
		c0.2-0.9,0.4-1.7,0.4-2.6h-4.8v-1.2h6.2c0,1.5-0.2,3-0.6,4.5h2.5v-6h1.4V518z M551.2,518.8v-16.1h1.4v16.1H551.2z"/>
	<path class="st1" d="M564.1,509.5c0,3.4-1.7,5.6-4.1,5.6c-2.4,0-4.1-2.2-4.1-5.6s1.7-5.6,4.1-5.6
		C562.4,503.9,564.1,506.1,564.1,509.5z M557.3,509.5c0,2.6,1.1,4.3,2.7,4.3c1.6,0,2.7-1.7,2.7-4.3c0-2.6-1.1-4.3-2.7-4.3
		C558.4,505.2,557.3,506.9,557.3,509.5z M567,518.8v-16.2h1.5v16.2H567z"/>
	<path class="st1" d="M571.6,510.8v-1.2h14.6v1.2H571.6z M584.9,518.6h-11.4v-3.8h9.5v-1.4h-9.5v-1.1h11v3.6h-9.5v1.6h10
		L584.9,518.6L584.9,518.6z M573.6,503h1.5v1.5h7.8V503h1.5v5.3h-10.8V503z M575,507.1h7.8v-1.5H575V507.1z"/>
	<path class="st1" d="M591.9,511.6v-1.2h14.6v1.2H591.9z M604.7,515.9c0,1.9-2.1,2.9-5.5,2.9s-5.5-1-5.5-2.9c0-1.9,2.1-2.9,5.5-2.9
		S604.7,514,604.7,515.9z M593.7,503.3h11v1.2h-9.5v3.1h9.6v1.2h-11.1V503.3z M603.2,515.9c0-1.2-1.5-1.8-4-1.8c-2.5,0-4,0.6-4,1.8
		s1.5,1.8,4,1.8C601.7,517.6,603.2,517,603.2,515.9z"/>
	<path class="st1" d="M618.9,513.5l0.1,1.1c-3.7,0.7-7.5,0.7-10.5,0.7l-0.2-1.2C611.3,514.1,615.3,514,618.9,513.5z M617.8,507.6
		c0,2.3-1.8,3.8-4.3,3.8c-2.5,0-4.3-1.5-4.3-3.8s1.8-3.8,4.3-3.8C616,503.9,617.8,505.4,617.8,507.6z M610.6,507.6
		c0,1.5,1.2,2.5,2.9,2.5s2.9-1,2.9-2.5c0-1.5-1.2-2.5-2.9-2.5C611.8,505.1,610.6,506.1,610.6,507.6z M619.9,518.8v-16.2h1.5v16.2
		H619.9z"/>
	<path class="st1" d="M628.5,512.4v-1.2h6.6v-1.6h-4.6v-6.5h10.9v1.1h-9.4v1.5h9v1.1h-9v1.6h9.5v1.1h-4.9v1.6h6.6v1.2L628.5,512.4
		L628.5,512.4z M641.3,516.2c0,1.7-2,2.6-5.5,2.6s-5.5-0.9-5.5-2.6c0-1.7,1.9-2.6,5.5-2.6S641.3,514.5,641.3,516.2z M639.8,516.2
		c0-1-1.4-1.5-4-1.5s-4,0.5-4,1.5c0,1,1.4,1.5,4,1.5S639.8,517.2,639.8,516.2z"/>
	<path class="st1" d="M649.8,507.9c-0.7,2-2.1,3.5-4,4.3L645,511c2.5-0.9,4-3.3,4-5.8v-1.6h1.5v1.6c0,2.4,1.7,4.6,4,5.5l-0.8,1.2
		C652,511.2,650.6,509.8,649.8,507.9z M647.7,518.5v-5h1.5v3.8h9.4v1.2L647.7,518.5L647.7,518.5z M656.7,502.7h1.5v11.9h-1.5V502.7z
		"/>
	<path class="st1" d="M675.5,518h-1.4v-7.7h-3c-0.9,2-2.5,3.8-5,5.2l-0.8-1.1c2.5-1.4,3.9-3,4.7-4.9l-4.5,0.5l-0.2-1.3l5.1-0.3
		c0.2-0.9,0.4-1.7,0.4-2.6H666v-1.2h6.2c0,1.5-0.2,3-0.6,4.5h2.5v-6h1.4V518z M677.4,518.8v-16.1h1.4v16.1H677.4z"/>
	<path class="st1" d="M690.3,509.5c0,3.4-1.7,5.6-4.1,5.6c-2.4,0-4.1-2.2-4.1-5.6s1.7-5.6,4.1-5.6
		C688.6,503.9,690.3,506.1,690.3,509.5z M683.5,509.5c0,2.6,1.1,4.3,2.7,4.3c1.6,0,2.7-1.7,2.7-4.3c0-2.6-1.1-4.3-2.7-4.3
		C684.6,505.2,683.5,506.9,683.5,509.5z M693.2,518.8v-16.2h1.5v16.2H693.2z"/>
	<path class="st1" d="M697.8,510.8v-1.2h14.6v1.2H697.8z M711.1,518.6h-11.4v-3.8h9.5v-1.4h-9.5v-1.1h11v3.6h-9.5v1.6h10
		L711.1,518.6L711.1,518.6z M699.8,503h1.5v1.5h7.8V503h1.5v5.3h-10.8V503z M701.3,507.1h7.8v-1.5h-7.8V507.1z"/>
	<path class="st1" d="M210,542.6c0-4.6,3.8-8.4,8.4-8.4s8.4,3.8,8.4,8.4c0,4.7-3.8,8.4-8.4,8.4C213.8,551,210,547.3,210,542.6z
		 M226.2,542.6c0-4.3-3.5-7.8-7.8-7.8c-4.4,0-7.8,3.5-7.8,7.8c0,4.3,3.5,7.8,7.8,7.8S226.2,547,226.2,542.6z M215,546.1l0.7-1
		c0.6,0.5,1.4,1.1,2.6,1.1s2.1-0.8,2.1-2c0-1.2-0.9-1.9-2.1-1.9c-0.7,0-1.2,0.2-1.8,0.6l-0.8-0.5l0.3-4.6h5.3v1.3h-4l-0.2,2.5
		c0.4-0.2,0.9-0.4,1.5-0.4c1.8,0,3.2,0.9,3.2,2.9c0,2-1.7,3.2-3.5,3.2C216.7,547.4,215.7,546.8,215,546.1z"/>
	<path class="st1" d="M240,550.8h-1.5v-5.4H232v-1.2h14.7v1.2H240V550.8z M233.9,535.3h1.5v2.2h8v-2.2h1.5v7h-10.9V535.3z
		 M235.3,541.1h8v-2.4h-8V541.1z"/>
	<path class="st1" d="M248.4,548.7v-1.2h14.6v1.2H248.4z M255.7,539.3c-1,2.4-3.6,4.1-6,4.7l-0.7-1.2c2.8-0.6,5.9-3,5.9-5.7v-1.2
		h1.6v1.2c0,2.7,3.1,5.2,5.9,5.7l-0.7,1.2C259.2,543.4,256.7,541.7,255.7,539.3z"/>
	<path class="st1" d="M266.9,543.6h-1.2v-7.8h7.4v1.2h-5.9v5.4c3,0,4.8-0.1,6.8-0.5l0.2,1.2C271.9,543.5,270.1,543.6,266.9,543.6z
		 M278.1,550.8h-1.5v-4.5h-9.3v-1.2h10.8L278.1,550.8L278.1,550.8z M276.6,544.3V540h-4.5v-1.2h4.5v-4.2h1.5v9.7L276.6,544.3
		L276.6,544.3z"/>
	<path class="st1" d="M281.1,548.7v-1.2h14.7v1.2H281.1z M283,536.1H294v1.2h-9.4v2.4h9.1v1.2h-9.1v2.6h9.6v1.2h-11.1L283,536.1
		L283,536.1z"/>
	<path class="st1" d="M303,540.8h-1.6v-1.7h1.6V540.8z M303,548.5h-1.6v-1.7h1.6V548.5z"/>
	<path class="st1" d="M308.6,536.3h9.7v1.4h-4v11.8h-1.7v-11.8h-4V536.3z"/>
	<path class="st1" d="M320.4,549.5h-1.7l4.5-13.2h1.9l4.5,13.2h-1.8l-1.3-4h-4.8L320.4,549.5z M324.1,537.6L324.1,537.6
		c-0.5,1.6-0.9,3-1.4,4.5l-0.6,2h4l-0.6-2C324.9,540.6,324.5,539.2,324.1,537.6z"/>
	<path class="st1" d="M343.5,539.5c0,1.3-0.7,2.5-1.9,2.9v0.1c1.6,0.3,2.7,1.3,2.7,3.2c0,2.6-2,3.9-5,3.9H335v-13.2h3.9
		C341.6,536.3,343.5,537.2,343.5,539.5z M341.8,539.7c0-1.6-1-2.1-3.1-2.1h-2v4.3h2C340.9,541.9,341.8,541.1,341.8,539.7z
		 M342.6,545.6c0-1.7-1.3-2.4-3.6-2.4h-2.3v5h2.3C341.3,548.2,342.6,547.4,342.6,545.6z"/>
	<path class="st1" d="M346.4,545.9v-6.2h1.6v6c0,1.8,0.5,2.6,1.8,2.6c1,0,1.7-0.5,2.6-1.7v-6.9h1.6v9.8h-1.4l-0.1-1.5h0
		c-0.9,1.1-1.9,1.8-3.2,1.8C347.2,549.7,346.4,548.4,346.4,545.9z"/>
	<path class="st1" d="M356.1,548.4l0.8-1.1c0.9,0.7,1.7,1.2,2.9,1.2c1.3,0,1.9-0.7,1.9-1.5c0-1-1.1-1.4-2.2-1.8
		c-1.4-0.5-2.9-1.2-2.9-2.8c0-1.5,1.2-2.8,3.4-2.8c1.2,0,2.3,0.5,3,1.1l-0.8,1.1c-0.7-0.5-1.4-0.9-2.3-0.9c-1.2,0-1.8,0.6-1.8,1.4
		c0,0.9,1.1,1.3,2.2,1.7c1.4,0.5,3,1.1,3,3c0,1.6-1.3,2.9-3.6,2.9C358.4,549.7,357.1,549.1,356.1,548.4z"/>
	<path class="st1" d="M367.5,545.4c0.2,0.9,0.4,1.8,0.6,2.7h0.1c0.2-0.9,0.4-1.8,0.7-2.7l1.5-5.7h1.6l1.5,5.7
		c0.2,0.9,0.5,1.8,0.7,2.7h0.1c0.2-0.9,0.4-1.8,0.6-2.7l1.4-5.7h1.5l-2.6,9.8h-2l-1.4-5.3c-0.3-0.9-0.4-1.8-0.7-2.8H371
		c-0.2,1-0.4,1.9-0.7,2.8l-1.4,5.2H367l-2.7-9.8h1.7L367.5,545.4z"/>
	<path class="st1" d="M379.1,546.8c0-2.5,2.1-3.5,6-3.6c0-1.3-0.4-2.5-2-2.5c-1.1,0-2.3,0.4-3,1l-0.6-1.2c0.9-0.6,2.4-1.2,3.9-1.2
		c2.4,0,3.4,1.6,3.4,4v6h-1.4l-0.1-1h0c-0.9,0.8-2,1.3-3.3,1.3C380.3,549.7,379.1,548.6,379.1,546.8z M385.1,547.3v-2.9
		c-3.5,0.2-4.4,0.9-4.4,2.4c0,1.2,0.7,1.7,1.7,1.7C383.4,548.4,384.2,548.1,385.1,547.3z"/>
	<path class="st1" d="M388.3,539.7h1.7l2,5.3c0.3,0.8,0.6,1.8,0.9,2.7h0.1c0.3-0.9,0.6-1.9,0.8-2.7l1.8-5.3h1.6l-5,14h-1.5l1.5-4.3
		L388.3,539.7z"/>
	<path class="st1" d="M398.8,550.8h-1.2l0.6-3.6h1.6L398.8,550.8z"/>
	<path class="st1" d="M404.9,536.3h9.7v1.4h-4v11.8h-1.7v-11.8h-4V536.3z"/>
	<path class="st1" d="M424.4,537.7h-5.9v4.5h5v1.4h-5v5.9h-1.7v-13.2h7.6L424.4,537.7L424.4,537.7z"/>
	<path class="st1" d="M438.8,539.5c0,1.3-0.7,2.5-1.9,2.9v0.1c1.6,0.3,2.7,1.3,2.7,3.2c0,2.6-2,3.9-5,3.9h-4.2v-13.2h3.9
		C437,536.3,438.8,537.2,438.8,539.5z M437.2,539.7c0-1.6-1-2.1-3.1-2.1h-2v4.3h2C436.3,541.9,437.2,541.1,437.2,539.7z
		 M437.9,545.6c0-1.7-1.3-2.4-3.6-2.4H432v5h2.3C436.6,548.2,437.9,547.4,437.9,545.6z"/>
	<path class="st1" d="M441.7,545.9v-6.2h1.6v6c0,1.8,0.5,2.6,1.8,2.6c1,0,1.7-0.5,2.6-1.7v-6.9h1.6v9.8h-1.4L448,548h0
		c-0.9,1.1-1.9,1.8-3.2,1.8C442.6,549.7,441.7,548.4,441.7,545.9z"/>
	<path class="st1" d="M451.5,548.4l0.8-1.1c0.9,0.7,1.7,1.2,2.9,1.2c1.3,0,1.9-0.7,1.9-1.5c0-1-1.1-1.4-2.2-1.8
		c-1.4-0.5-2.9-1.2-2.9-2.8c0-1.5,1.2-2.8,3.4-2.8c1.2,0,2.3,0.5,3,1.1l-0.8,1.1c-0.7-0.5-1.4-0.9-2.3-0.9c-1.2,0-1.8,0.6-1.8,1.4
		c0,0.9,1.1,1.3,2.2,1.7c1.4,0.5,3,1.1,3,3c0,1.6-1.3,2.9-3.6,2.9C453.8,549.7,452.4,549.1,451.5,548.4z"/>
	<path class="st1" d="M462.8,545.4c0.2,0.9,0.4,1.8,0.6,2.7h0.1c0.2-0.9,0.4-1.8,0.7-2.7l1.5-5.7h1.6l1.5,5.7
		c0.2,0.9,0.5,1.8,0.7,2.7h0.1c0.2-0.9,0.4-1.8,0.6-2.7l1.4-5.7h1.5l-2.6,9.8h-2l-1.4-5.3c-0.3-0.9-0.4-1.8-0.7-2.8h-0.1
		c-0.2,1-0.4,1.9-0.7,2.8l-1.4,5.2h-1.9l-2.7-9.8h1.7L462.8,545.4z"/>
	<path class="st1" d="M474.5,546.8c0-2.5,2.1-3.5,6-3.6c0-1.3-0.4-2.5-2-2.5c-1.2,0-2.3,0.4-3,1l-0.6-1.2c0.9-0.6,2.4-1.2,3.9-1.2
		c2.4,0,3.4,1.6,3.4,4v6h-1.3l-0.1-1h0c-0.9,0.8-2,1.3-3.3,1.3C475.7,549.7,474.5,548.6,474.5,546.8z M480.5,547.3v-2.9
		c-3.5,0.2-4.4,0.9-4.4,2.4c0,1.2,0.7,1.7,1.7,1.7C478.8,548.4,479.5,548.1,480.5,547.3z"/>
	<path class="st1" d="M483.7,539.7h1.7l2,5.3c0.3,0.8,0.6,1.8,0.9,2.7h0.1c0.3-0.9,0.6-1.9,0.8-2.7l1.8-5.3h1.6l-5,14h-1.5l1.5-4.3
		L483.7,539.7z"/>
	<path class="st1" d="M494.2,550.8H493l0.7-3.6h1.6L494.2,550.8z"/>
	<path class="st1" d="M508,544.6l1.4,2.7h0.1c-0.1-1.4-0.2-2.8-0.2-4.2v-6.9h1.6v13.2h-1.7l-4.8-8.3l-1.4-2.7h-0.1
		c0.1,1.4,0.2,2.7,0.2,4.1v6.9h-1.6v-13.2h1.7L508,544.6z"/>
	<path class="st1" d="M513.3,547.8l1-1.1c1,1,2.3,1.6,3.7,1.6c1.7,0,2.8-0.9,2.8-2.2c0-1.3-1-1.8-2.2-2.3l-1.9-0.8
		c-1.2-0.5-2.7-1.4-2.7-3.4c0-2,1.8-3.5,4.2-3.5c1.6,0,3,0.6,3.9,1.6l-0.9,1.1c-0.8-0.8-1.8-1.2-3-1.2c-1.5,0-2.5,0.7-2.5,1.9
		c0,1.3,1.2,1.8,2.2,2.2l1.9,0.8c1.5,0.7,2.7,1.6,2.7,3.5c0,2.1-1.7,3.8-4.5,3.8C516.1,549.7,514.5,549,513.3,547.8z"/>
	<path class="st1" d="M533.6,540.2c0,2.8-2,4.1-4.9,4.1h-2.2v5.2h-1.7v-13.2h3.8C531.6,536.3,533.6,537.3,533.6,540.2z M531.9,540.2
		c0-1.9-1.2-2.5-3.5-2.5h-1.9v5.3h2C530.8,542.9,531.9,542,531.9,540.2z"/>
	<path class="st1" d="M544.5,539.5c0,1.3-0.7,2.5-1.9,2.9v0.1c1.6,0.3,2.7,1.3,2.7,3.2c0,2.6-2,3.9-5,3.9h-4.2v-13.2h3.9
		C542.7,536.3,544.5,537.2,544.5,539.5z M542.9,539.7c0-1.6-1-2.1-3.1-2.1h-2v4.3h2C542,541.9,542.9,541.1,542.9,539.7z
		 M543.6,545.6c0-1.7-1.3-2.4-3.6-2.4h-2.3v5h2.3C542.4,548.2,543.6,547.4,543.6,545.6z"/>
	<path class="st1" d="M560,539.5c0,1.3-0.7,2.5-1.9,2.9v0.1c1.6,0.3,2.7,1.3,2.7,3.2c0,2.6-2,3.9-5,3.9h-4.2v-13.2h3.9
		C558.2,536.3,560,537.2,560,539.5z M558.4,539.7c0-1.6-1-2.1-3.1-2.1h-2v4.3h2C557.5,541.9,558.4,541.1,558.4,539.7z M559.1,545.6
		c0-1.7-1.3-2.4-3.6-2.4h-2.3v5h2.3C557.9,548.2,559.1,547.4,559.1,545.6z"/>
	<path class="st1" d="M562.9,545.9v-6.2h1.6v6c0,1.8,0.5,2.6,1.8,2.6c1,0,1.7-0.5,2.7-1.7v-6.9h1.6v9.8h-1.4l-0.1-1.5h0
		c-0.9,1.1-1.9,1.8-3.2,1.8C563.8,549.7,562.9,548.4,562.9,545.9z"/>
	<path class="st1" d="M572.7,548.4l0.8-1.1c0.8,0.7,1.7,1.2,2.9,1.2c1.3,0,1.9-0.7,1.9-1.5c0-1-1.2-1.4-2.2-1.8
		c-1.4-0.5-2.9-1.2-2.9-2.8c0-1.5,1.2-2.8,3.4-2.8c1.2,0,2.3,0.5,3,1.1l-0.8,1.1c-0.7-0.5-1.4-0.9-2.3-0.9c-1.2,0-1.8,0.6-1.8,1.4
		c0,0.9,1.1,1.3,2.2,1.7c1.4,0.5,3,1.1,3,3c0,1.6-1.3,2.9-3.6,2.9C575,549.7,573.6,549.1,572.7,548.4z"/>
	<path class="st1" d="M584,545.4c0.2,0.9,0.4,1.8,0.6,2.7h0.1c0.2-0.9,0.4-1.8,0.7-2.7l1.5-5.7h1.6l1.5,5.7c0.2,0.9,0.5,1.8,0.7,2.7
		h0.1c0.2-0.9,0.4-1.8,0.6-2.7l1.4-5.7h1.5l-2.6,9.8h-2l-1.4-5.3c-0.3-0.9-0.4-1.8-0.7-2.8h-0.1c-0.2,1-0.4,1.9-0.7,2.8l-1.4,5.2
		h-1.9l-2.7-9.8h1.7L584,545.4z"/>
	<path class="st1" d="M595.7,546.8c0-2.5,2.1-3.5,6-3.6c0-1.3-0.4-2.5-2-2.5c-1.2,0-2.3,0.4-3,1l-0.7-1.2c0.9-0.6,2.4-1.2,3.9-1.2
		c2.4,0,3.4,1.6,3.4,4v6H602l-0.1-1h0c-0.9,0.8-2,1.3-3.3,1.3C596.9,549.7,595.7,548.6,595.7,546.8z M601.7,547.3v-2.9
		c-3.5,0.2-4.4,0.9-4.4,2.4c0,1.2,0.7,1.7,1.7,1.7C600,548.4,600.8,548.1,601.7,547.3z"/>
	<path class="st1" d="M604.9,539.7h1.7l2,5.3c0.3,0.8,0.6,1.8,0.9,2.7h0.1c0.3-0.9,0.6-1.9,0.8-2.7l1.8-5.3h1.6l-5,14h-1.5l1.5-4.3
		L604.9,539.7z"/>
	<path class="st1" d="M618.6,543.6v-1.2h14.6v1.2H618.6z M631.5,547.9c0,1.9-2.1,2.9-5.5,2.9s-5.5-1-5.5-2.9c0-1.9,2.1-2.9,5.5-2.9
		S631.5,546,631.5,547.9z M620.5,535.3h11v1.2h-9.5v3.1h9.6v1.2h-11.1V535.3z M630,547.9c0-1.2-1.5-1.8-4-1.8c-2.5,0-4,0.6-4,1.8
		s1.5,1.8,4,1.8C628.5,549.6,630,549,630,547.9z"/>
	<path class="st1" d="M648.3,545l0.2,1.2c-2.5,0.5-4.6,0.6-7.6,0.6h-1.3v-10.6h7.5v1.2h-6v8.1C643.9,545.6,646,545.5,648.3,545z
		 M651.3,550.8h-1.5v-16.2h1.5v6.4h2.7v1.2h-2.7V550.8z"/>
	<path class="st1" d="M659.8,543.2c-2.5,0-4.2-1.6-4.2-3.8c0-2.2,1.8-3.8,4.2-3.8c2.4,0,4.2,1.5,4.2,3.8
		C664,541.7,662.2,543.2,659.8,543.2z M659.8,542c1.6,0,2.8-1.1,2.8-2.6c0-1.5-1.2-2.6-2.8-2.6c-1.6,0-2.8,1-2.8,2.6
		C657,540.9,658.1,542,659.8,542z M668,547.8c0,1.9-2,3-5.3,3c-3.3,0-5.3-1.1-5.3-3c0-1.9,2-3,5.3-3
		C665.9,544.8,668,545.8,668,547.8z M666.5,547.8c0-1.2-1.4-1.8-3.8-1.8s-3.8,0.7-3.8,1.8c0,1.2,1.5,1.8,3.8,1.8
		S666.5,548.9,666.5,547.8z M670.1,540.5v1.2h-2.4v2.5h-1.5v-9.6h1.5v2.4h2.4v1.2h-2.4v2.2H670.1z"/>
	<path class="st1" d="M671.7,536.6h4v-2h1.5v2h4v1.2h-9.5V536.6z M676.4,544.7c-2.3,0-3.8-1.2-3.8-3c0-1.8,1.6-3,3.8-3
		c2.3,0,3.9,1.2,3.9,3C680.3,543.5,678.7,544.7,676.4,544.7z M676.4,543.6c1.5,0,2.5-0.7,2.5-1.9s-1-1.8-2.5-1.8
		c-1.5,0-2.5,0.7-2.5,1.8S674.9,543.6,676.4,543.6z M684.9,550.5h-10.8v-4.6h1.5v3.4h9.3L684.9,550.5L684.9,550.5z M684.2,541.2v5.5
		h-1.5v-12.1h1.5v5.3h2.4v1.2L684.2,541.2L684.2,541.2z"/>
	<path class="st1" d="M699.9,550.8h-1.5v-5.4h-6.5v-1.2h14.7v1.2h-6.6V550.8z M693.7,535.3h1.5v2.2h8v-2.2h1.5v7h-11V535.3z
		 M695.2,541.1h8v-2.4h-8V541.1z"/>
	<path class="st1" d="M708.2,548.7v-1.2h14.6v1.2H708.2z M715.5,539.3c-1,2.4-3.6,4.1-6,4.7l-0.7-1.2c2.8-0.6,5.9-3,5.9-5.7v-1.2
		h1.5v1.2c0,2.7,3.1,5.2,5.9,5.7l-0.7,1.2C719,543.4,716.5,541.7,715.5,539.3z"/>
	<path class="st1" d="M726.7,543.6h-1.2v-7.8h7.3v1.2H727v5.4c3,0,4.8-0.1,6.8-0.5l0.2,1.2C731.7,543.5,729.9,543.6,726.7,543.6z
		 M737.9,550.8h-1.5v-4.5h-9.3v-1.2h10.8L737.9,550.8L737.9,550.8z M736.4,544.3V540h-4.5v-1.2h4.5v-4.2h1.5v9.7L736.4,544.3
		L736.4,544.3z"/>
	<path class="st1" d="M741,548.7v-1.2h14.7v1.2H741z M742.9,536.1h10.9v1.2h-9.4v2.4h9.1v1.2h-9.1v2.6h9.6v1.2h-11.1L742.9,536.1
		L742.9,536.1z"/>
	<path class="st1" d="M765.3,540.3c-0.6,1.5-1.7,2.9-3.3,3.6l-0.8-1.2c2.1-0.9,3.4-3,3.4-4.8v-2.2h1.4v2.2c0,1.8,1.2,3.6,3.3,4.4
		l-0.8,1.1C767,542.8,765.9,541.6,765.3,540.3z M774.9,547.9c0,1.8-2.1,2.9-5.4,2.9s-5.4-1.1-5.4-2.9s2.1-2.9,5.4-2.9
		C772.8,545,774.9,546.1,774.9,547.9z M773.5,547.9c0-1.2-1.5-1.8-3.9-1.8s-3.9,0.6-3.9,1.8s1.5,1.8,3.9,1.8S773.5,549,773.5,547.9z
		 M770,535h1.4v4h2v-4.3h1.4v10h-1.4v-4.4h-2v3.9H770V535z"/>
	<path class="st1" d="M782.3,540.3c-0.7,1.9-2.1,3.4-4,4.1l-0.8-1.2c2.5-0.9,4-3,4-5.5v-2h1.5v2c0,2.2,1.6,4.3,4,5.1l-0.7,1.2
		C784.5,543.3,783.1,542,782.3,540.3z M790.8,550.5h-10.7v-5h1.5v3.8h9.2L790.8,550.5L790.8,550.5z M790.1,540.8v5.7h-1.5v-11.9h1.5
		v5h2.4v1.2L790.1,540.8L790.1,540.8z"/>
	<path class="st1" d="M226.8,574.6c0,4.7-3.8,8.4-8.4,8.4c-4.6,0-8.4-3.8-8.4-8.4s3.8-8.4,8.4-8.4C223,566.3,226.8,570,226.8,574.6z
		 M226.2,574.6c0-4.3-3.5-7.8-7.8-7.8c-4.4,0-7.8,3.5-7.8,7.8c0,4.3,3.5,7.8,7.8,7.8S226.2,579,226.2,574.6z M218.8,570.9
		c-1.4,0-2.6,0.9-2.7,3.7c0.6-0.7,1.6-1.2,2.5-1.2c1.8,0,2.9,1,2.9,2.9c0,1.8-1.4,3-3.2,3c-2.1,0-3.7-1.5-3.7-4.6
		c0-3.7,1.9-5.2,4.1-5.2c1.2,0,2,0.5,2.6,1l-0.8,0.9C220.1,571.2,219.5,570.9,218.8,570.9z M220.2,576.4c0-1.2-0.6-1.8-1.9-1.8
		c-0.6,0-1.4,0.3-2.1,1.2c0.2,1.8,1,2.6,2.3,2.6C219.4,578.3,220.2,577.5,220.2,576.4z"/>
	<path class="st1" d="M235,575.4c0.5,1.5,0.8,2.8,1.3,4.4h0.1c0.5-1.6,0.8-2.8,1.3-4.4l2.1-7.2h1.7l-4.2,13.2h-1.9l-4.2-13.2h1.8
		L235,575.4z"/>
	<path class="st1" d="M242.3,574.9c0-4.3,2.5-6.9,5.9-6.9c1.6,0,2.9,0.8,3.6,1.6l-0.9,1.1c-0.7-0.7-1.6-1.3-2.7-1.3
		c-2.5,0-4.2,2-4.2,5.3c0,3.3,1.6,5.4,4.1,5.4c1.3,0,2.2-0.6,3.1-1.5l0.9,1c-1.1,1.2-2.3,1.9-4.1,1.9
		C244.8,581.7,242.3,579.2,242.3,574.9z"/>
	<path class="st1" d="M256.5,575.4c0.5,1.5,0.8,2.8,1.3,4.4h0.1c0.5-1.6,0.8-2.8,1.3-4.4l2.1-7.2h1.7l-4.2,13.2h-1.9l-4.2-13.2h1.8
		L256.5,575.4z"/>
	<path class="st1" d="M277,577.2l0.1,1.2c-2.5,0.4-4.6,0.5-7.6,0.5h-1.3v-10.8h7.5v1.2h-6v3.3h5.7v1.2h-5.7v3.9
		C272.6,577.7,274.5,577.6,277,577.2z M280,582.8h-1.5v-16.1h1.5v6.5h2.7v1.2H280V582.8z"/>
	<path class="st1" d="M289.8,576.3v6.1h-1.5v-6c-1.5,0-3,0.1-4.3,0.1l-0.2-1.2c3,0,7.1,0,10.6-0.5l0.1,1.1
		C293,576,291.4,576.2,289.8,576.3z M285.1,570.6c0-1.9,1.7-3.2,4-3.2c2.4,0,4,1.3,4,3.2c0,1.9-1.7,3.2-4,3.2
		S285.1,572.6,285.1,570.6z M286.5,570.6c0,1.2,1.1,2,2.7,2c1.6,0,2.7-0.8,2.7-2c0-1.2-1.1-2-2.7-2
		C287.5,568.6,286.5,569.4,286.5,570.6z M295.7,582.8v-4H292v-1.2h3.7v-11h1.5v16.2H295.7z"/>
	<path class="st1" d="M210,606.6c0-4.6,3.8-8.4,8.4-8.4s8.4,3.8,8.4,8.4c0,4.7-3.8,8.4-8.4,8.4C213.8,615,210,611.3,210,606.6z
		 M226.2,606.6c0-4.3-3.5-7.8-7.8-7.8c-4.4,0-7.8,3.5-7.8,7.8c0,4.3,3.5,7.8,7.8,7.8S226.2,611,226.2,606.6z M220,603.1h-4.9v-1.3
		h6.6v0.9c-2.4,2.8-2.9,4.8-3.1,8.4h-1.5C217.3,607.8,218,605.7,220,603.1z"/>
	<path class="st1" d="M236.6,607.8c-2.4,0-4.2-1.7-4.2-4c0-2.3,1.8-4,4.2-4s4.2,1.6,4.2,4C240.8,606.1,239,607.8,236.6,607.8z
		 M236.6,606.5c1.6,0,2.8-1.1,2.8-2.7c0-1.6-1.2-2.7-2.8-2.7c-1.6,0-2.8,1.1-2.8,2.7C233.9,605.4,235,606.5,236.6,606.5z
		 M234.9,614.5v-5.2h1.5v4h9.4v1.2H234.9z M243.8,598.7h1.5v11.8h-1.5V598.7z"/>
	<path class="st1" d="M256.6,609.8l-0.9,1.1c-1.6-0.9-2.7-2.4-3.3-4.4c-0.6,2.3-1.7,3.9-3.4,4.9l-0.9-1.1c2.3-1.3,3.5-4.1,3.5-7.3
		v-1.3h-3.1v-1.2h7.5v1.2h-2.9v1.3C253.2,606,254.3,608.6,256.6,609.8z M260.8,614.8v-8.4h-2.1v7.6h-1.4v-15h1.4v6.2h2.1v-6.5h1.4
		v16.2H260.8z"/>
	<path class="st1" d="M269.5,611.4l-0.9-1.1c3.7-2.1,5.2-5,5.5-8.3h-4.8v-1.2h6.3C275.6,604.9,274.1,608.8,269.5,611.4z
		 M280.9,614.8v-8.4h-2.2v7.6h-1.4v-14.9h1.4v6.1h2.2v-6.5h1.4v16.2L280.9,614.8L280.9,614.8z"/>
	<path class="st1" d="M285.7,599.3h1.5v2.3h4.6v-2.3h1.4v7.1h-7.5V599.3z M287.1,605.2h4.6v-2.4h-4.6V605.2z M298.1,614.6h-10.8v-4
		h8.8v-1.7h-8.8v-1.2h10.3v3.9h-8.8v1.8h9.4L298.1,614.6L298.1,614.6z M297.6,603.4v3.7h-1.5v-8.3h1.5v3.5h2.4v1.2L297.6,603.4
		L297.6,603.4z"/>
	<path class="st1" d="M301.5,607.4l-0.2-1.2c3,0,7,0,10.4-0.5l0.1,1.1c-1.4,0.2-2.9,0.4-4.4,0.5v3.2H306v-3.1
		C304.4,607.3,302.9,607.4,301.5,607.4z M302.6,602.1c0-1.7,1.6-2.8,4-2.8c2.4,0,4,1.1,4,2.8c0,1.7-1.6,2.8-4,2.8
		S302.6,603.8,302.6,602.1z M303.6,614.5v-4.7h1.5v3.5h9.9v1.2H303.6z M304,602.1c0,1.1,1,1.7,2.6,1.7s2.6-0.7,2.6-1.7
		c0-1-1-1.7-2.6-1.7S304,601.1,304,602.1z M314.6,598.7V611h-1.5v-1.7h-3.3v-1.1h3.3v-9.5L314.6,598.7L314.6,598.7z"/>
</g>
<path class="st2" d="M872.7,308.1"/>
<rect x="417.5" y="220.1" class="st3" width="118.2" height="63.4"/>
<polygon class="st3" points="294.3,223.7 320.4,223.7 337.9,223.7 358.5,223.7 358.5,199.1 294.3,199.1 "/>
<polygon class="st3" points="337.9,259.5 279.3,259.5 279.3,283.5 358.5,283.5 358.5,239.5 337.9,239.5 "/>
<rect x="369.6" y="294.8" class="st2" width="36.8" height="3.7"/>
<rect x="405.4" y="199.2" class="st2" width="1" height="10.4"/>
<path class="st0" d="M545.5,331.8c-0.2,0-0.4,0-0.7-0.1c-0.2,0-0.4,0.1-0.7,0.1H545.5z"/>
<rect x="292.7" y="140.6" class="st0" width="4.1" height="28.2"/>
<path class="st2" d="M869,241.8c-10.6-5.9-19.5-9.3-19.5-9.3l-130.8-65.6c-25.6-11.4-53.3-17.3-81.3-17.3H350.6h-29.4h-84.4
	c-11.1,0-20,8.9-20,20v136.6c0,11,8.9,20,20,20h49.8h63.9h333.6c49.2,0,98.2,5.6,146.3,16l59.6,18.6c11.2,3.5,23-3.4,25.5-14.8
	l-2.8-52.1c-0.3-6-0.6-12-0.3-18c0.3-7.9-4-15.3-11.3-18.8L869,241.8z"/>
<rect x="610" y="139.3" class="st0" width="4.1" height="28.2"/>
<g>
	<g>
		<path class="st0" d="M349.2,285.2c-9.7,10.9-23,18.1-31.2,30.3c-8.2,12.3-10.8,28-6.9,42.3c2.2,7.9,6.3,15.3,11.8,21.3
			c1.8,1.9,4.6-0.9,2.9-2.9c-9.3-10.2-13.8-24.3-12.1-38c0.9-6.9,3.3-13.6,7-19.5c3.7-5.9,8.7-10.6,14-15.1
			c6-5.1,12.2-9.8,17.4-15.7C353.8,286.2,350.9,283.3,349.2,285.2L349.2,285.2z"/>
	</g>
</g>
<g>
	<g>
		<path class="st0" d="M245.7,216.1c-1.9,3.5-4.4,6.5-7.5,9.1c-3,2.5-6.5,4.5-10,6.3c-7.3,3.9-14.6,7.7-22.4,10.6
			c-4.4,1.7-8.9,3-13.5,4c-2.6,0.6-1.5,4.5,1.1,3.9c8.5-1.8,16.6-5,24.5-8.7c3.9-1.8,7.6-3.8,11.4-5.8c3.7-2,7.4-4.1,10.7-6.6
			c3.7-2.9,6.8-6.6,9.1-10.7C250.5,215.8,247,213.8,245.7,216.1L245.7,216.1z"/>
	</g>
</g>
<path class="st0" d="M542.8,217.4v21.9c0,1.5-1.2,2.7-2.7,2.7H423c-1.5,0-2.7,1.2-2.7,2.7v65.1c0,1.5,1.2,2.7,2.7,2.7h117.1
	c1.5,0,2.7,1.2,2.7,2.7v14.1c0,1.3,0.9,2.3,2,2.6c1.2-0.3,2-1.3,2-2.6V315c0-1.5,1.2-2.7,2.7-2.7l173.7,0c1.7,0,3,1.4,3,3v24.4h4.1
	v-55.2v-3.8v-12.1v-43.1v-8.3c0-1.7-1.4-3-3-3H617.2h-0.6h-70.8C544.2,214.3,542.8,215.7,542.8,217.4z"/>
<path class="st0" d="M248.2,323.1c-0.2,0-0.4,0-0.5,0c-0.2,0-0.4,0-0.5,0H248.2z"/>
<path class="st0" d="M261.9,190.1c0-0.1,0-0.1,0-0.2c0-0.1,0-0.1,0-0.2V190.1z"/>
<path class="st0" d="M245.1,138.3c1.6-2,4.8-0.8,4.8,1.7v120c0,1.5,1.2,2.7,2.7,2.7h19.7c1.5,0,2.7-1.2,2.7-2.7v-1.8
	c0-1.5,1.2-2.7,2.7-2.7h0.8h3h56.5c1.5,0,2.7-1.2,2.7-2.7v-18.7c0-1.7,1.4-3,3-3h18.7c1.7,0,3-1.4,3-3v-3.3c0-1.7-1.4-3-3-3h-24.8
	c0,0,0,0,0,0l-68.1,0.1c-1.5,0-2.7-1.2-2.7-2.7v-23.9c0-1.5-1.2-2.7-2.7-2.7h-15.7c-1.4,0-2.6-1.1-2.7-2.5c0.1-1.4,1.3-2.5,2.7-2.5
	l22.8-0.1h18.9c1.5,0,2.7-1.2,2.7-2.7v-15.2l0-2.7l0-5.8c0-1.7,1.4-3.1,3-3.1h134.2c1.7,0,3,1.4,3,3v28c0,1.7-1.4,3-3,3h-60.4v3
	c0,0,0,0.1,0,0.1V285c0,1.5-1.2,2.7-2.7,2.7h-89.3c-1.5,0-2.7-1.2-2.7-2.7v-1.4l0,0v-14.2c0-1.5-1.2-2.7-2.7-2.7h-19.7
	c-1.5,0-2.7,1.2-2.7,2.7v60.1c0,1.3-0.9,2.4-2.1,2.6c-1.2-0.3-2.1-1.3-2.1-2.6v-182L245.1,138.3z"/>
<path class="st0" d="M610.9,192.1c1.8,0,3.2-1.4,3.2-3v-28.4c0-1.5-1.3-2.7-2.8-2.7H465.4c-1.7,0-3,1.4-3,3v28c0,1.7,1.4,3,3,3
	H610.9z"/>
<path class="st4" d="M606.9,188.4c1.7,0,3.1-1.4,3.1-3v-20.3c0-1.7-1.4-3-3.1-3H469c-1.7,0-3,1.4-3,3v20.3c0,1.7,1.4,3,3,3H606.9z"
	/>
<g>
	<g>
		<path class="st0" d="M528.1,175.3c0-6.1,5-11,11-11s11,4.9,11,11c0,6.1-5,11-11,11C533.1,186.3,528.1,181.3,528.1,175.3z
			 M549.3,175.3c0-5.6-4.5-10.2-10.2-10.2c-5.7,0-10.2,4.6-10.2,10.2c0,5.6,4.5,10.2,10.2,10.2S549.3,180.9,549.3,175.3z
			 M540.5,171.5h-5.8V169h9v1.8c-3.1,3.4-3.5,5.7-3.8,10.5h-3C537.2,177.3,538,174.6,540.5,171.5z"/>
	</g>
</g>
<path class="st4" d="M362.5,217.7h-89c-1.7,0-3-1.3-3-3v-19.3c0-1.7,1.3-3,3-3h89c1.7,0,3,1.3,3,3v19.3
	C365.5,216.4,364.1,217.7,362.5,217.7z"/>
<g>
	<g>
		<path class="st0" d="M328.5,205c0,6.1-5,11-11,11c-6.1,0-11-4.9-11-11s5-11,11-11S328.5,198.9,328.5,205z M327.6,205
			c0-5.6-4.5-10.2-10.2-10.2c-5.6,0-10.2,4.6-10.2,10.2c0,5.6,4.5,10.2,10.2,10.2S327.6,210.6,327.6,205z M322.1,208.1h-1.6v2.9
			h-2.8v-2.9h-5.8V206l5-7.3h3.6v7.2h1.6V208.1z M317.8,201.3L317.8,201.3c-0.5,0.8-0.7,1.1-1.1,1.8l-1.9,2.8h3V204
			C317.7,203.2,317.7,202.1,317.8,201.3z"/>
	</g>
</g>
<path class="st4" d="M344.8,237.6v19.2c0,1.5-1.2,2.7-2.7,2.7h-60.5c-1.5,0-2.7,1.2-2.7,2.7v18.8c0,1.5,1.2,2.7,2.7,2.7h81.1
	c1.5,0,2.7-1.2,2.7-2.7v-1.1v-20.4v-21.9c0-1.5-1.2-2.7-2.7-2.7h-15.3C346,234.9,344.8,236.1,344.8,237.6z"/>
<g>
	<g>
		<path class="st0" d="M311.5,271.8c0-6.1,5-11,11-11s11,5,11,11c0,6.1-5,11-11,11C316.4,282.8,311.5,277.9,311.5,271.8z
			 M332.7,271.8c0-5.6-4.5-10.2-10.2-10.2c-5.6,0-10.2,4.6-10.2,10.2c0,5.6,4.5,10.2,10.2,10.2S332.7,277.4,332.7,271.8z
			 M317.6,276.4l1.4-1.9c0.8,0.7,1.8,1.3,3.2,1.3c1.2,0,2-0.6,2-1.5c0-1-0.7-1.7-3.7-1.7v-2.1c2.5,0,3.3-0.6,3.3-1.6
			c0-0.9-0.6-1.4-1.7-1.4c-0.9,0-1.8,0.4-2.6,1.1l-1.5-1.8c1.2-1,2.6-1.6,4.2-1.6c2.8,0,4.6,1.2,4.6,3.4c0,1.2-0.8,2.1-2.3,2.7v0.1
			c1.6,0.4,2.7,1.4,2.7,3c0,2.3-2.3,3.6-5,3.6C320.3,278.1,318.6,277.4,317.6,276.4z"/>
	</g>
</g>
<path class="st4" d="M539.8,308.9H427.6c-1.7,0-3-1.3-3-3v-57.4c0-1.7,1.3-3,3-3h112.2c1.7,0,3,1.3,3,3v57.4
	C542.8,307.5,541.5,308.9,539.8,308.9z"/>
<g>
	<g>
		<path class="st0" d="M472.4,277.8c0-6.1,5-11,11-11c6.1,0,11,5,11,11c0,6.1-5,11-11,11C477.3,288.8,472.4,283.9,472.4,277.8z
			 M493.6,277.8c0-5.6-4.5-10.2-10.2-10.2c-5.6,0-10.2,4.6-10.2,10.2c0,5.6,4.5,10.2,10.2,10.2S493.6,283.4,493.6,277.8z
			 M484.9,275.4c0-1.2-0.6-1.8-1.8-1.8c-1,0-1.8,0.6-2.5,1.2l-1.6-1.6c1.3-1.3,2.8-2,4.5-2c2.6,0,4.4,1.5,4.4,3.9
			c0,2-2.1,4.4-4.4,6.3c0.7-0.1,1.6-0.1,2.3-0.1h2.5v2.5h-9.1v-1.7C482.6,279.2,484.9,277.1,484.9,275.4z"/>
	</g>
</g>
<path class="st4" d="M723,309H549.9c-1.7,0-3-1.3-3-3v-85c0-1.7,1.3-3,3-3H723c1.7,0,3,1.3,3,3v85C726,307.6,724.7,309,723,309z"/>
<g>
	<path class="st0" d="M623.2,265.7c0-6.1,5-11,11-11s11,4.9,11,11c0,6.1-5,11-11,11C628.2,276.7,623.2,271.8,623.2,265.7z
		 M644.4,265.7c0-5.6-4.5-10.2-10.2-10.2c-5.7,0-10.2,4.6-10.2,10.2c0,5.6,4.5,10.2,10.2,10.2S644.4,271.3,644.4,265.7z
		 M630.8,260.6c1.4-0.3,2.4-0.6,3.3-1.1h2.2v12.3h-3v-9.2h-2.5V260.6z"/>
</g>
<path class="st4" d="M299.8,188.4h126.6c1.7,0,3-1.4,3-3v-20.3c0-1.7-1.4-3-3-3H299.8c-1.6,0-3,1.4-3,3v20.3
	C296.8,187.1,298.1,188.4,299.8,188.4z"/>
<g>
	<g>
		<path class="st0" d="M349.8,175.3c0-6.1,5-11,11-11c6.1,0,11,4.9,11,11c0,6.1-5,11-11,11C354.8,186.3,349.8,181.3,349.8,175.3z
			 M371,175.3c0-5.6-4.5-10.2-10.2-10.2c-5.6,0-10.2,4.6-10.2,10.2c0,5.6,4.5,10.2,10.2,10.2S371,180.9,371,175.3z M356.1,179.8
			l1.3-1.9c0.8,0.6,1.8,1.3,3.1,1.3c1.3,0,2.2-0.7,2.2-1.9c0-1.2-0.9-1.9-2.1-1.9c-0.9,0-1.3,0.2-2.1,0.7l-1.3-0.9l0.4-6.2h7.5v2.4
			H360l-0.2,2.3c0.6-0.2,1.2-0.3,1.6-0.3c2.3,0,4.3,1.2,4.3,3.8c0,2.7-2.3,4.3-4.9,4.3C358.6,181.5,357.2,180.8,356.1,179.8z"/>
	</g>
</g>
<path class="st2" d="M672.6,152.6"/>
<g>
	<g>
		<path class="st0" d="M920,348c-9.2-3.5-18.5-7.1-27.4-11.3c-1.8-0.9-3.7-1.8-5.4-2.9c-2.7-1.7-5-3.9-7.2-6.2
			c-5.3-5.6-9.5-12-14.3-18c-9.7-12-22.1-21.5-35.3-29.3c-13.7-8.2-28.4-14.9-43.3-20.8c-15.8-6.2-32.3-11-49.3-11.9
			c-2.1-0.1-4.3-0.2-6.4-0.2c-2.6,0-2.6,4.1,0,4.1c17-0.1,33.6,4.1,49.4,10c15,5.5,29.8,12.3,43.7,20.1c13.3,7.5,25.9,16.6,36,28.2
			c8.7,10,15.3,22.9,27.4,29.1c9.2,4.7,19.1,8.4,28.7,12.2c0.7,0.3,1.5,0.6,2.2,0.9c1,0.4,2.2-0.4,2.5-1.4
			C921.8,349.3,921.1,348.4,920,348L920,348z"/>
	</g>
</g>
<g>
	<g>
		<path class="st0" d="M845.7,291.8c-13.2-2.4-25.8,4.8-36.5,11.7c-10.2,6.6-19.7,14.2-30.1,20.4c-5.7,3.4-11.7,6.3-18.1,8.2
			c-2.5,0.8-1.4,4.7,1.1,3.9c23.2-7,40-25.6,61.4-36.1c6.5-3.2,13.9-5.6,21.2-4.3c1.1,0.2,2.2-0.3,2.5-1.4
			C847.4,293.3,846.8,292,845.7,291.8L845.7,291.8z"/>
	</g>
</g>
<g>
	<g>
		<path class="st0" d="M775.6,255.2c-5.8-6.8-11.6-13.6-17.4-20.5c-2.7-3.2-5.3-6.4-8.2-9.5c-2.4-2.7-5.2-5.3-8.4-7
			c-2-1.1-4.2-1.8-6.5-2.2c-2.4-0.4-4.8-0.7-7-1.6c-1-0.4-2.2,0.4-2.5,1.4c-0.3,1.1,0.4,2.1,1.4,2.5c3.8,1.5,8,1.2,11.6,2.9
			c3.1,1.5,5.7,3.9,8,6.4c5.7,6.1,10.9,12.7,16.3,19.1c3.2,3.8,6.5,7.6,9.7,11.4C774.4,260.1,777.3,257.2,775.6,255.2L775.6,255.2z"
			/>
	</g>
</g>
<g>
	<g>
		<path class="st0" d="M518,157.8c-13.8-5.7-26.9-12.9-39.1-21.6c-3.5-2.5-6.9-5.1-10.2-7.8c-2-1.7-4.9,1.2-2.9,2.9
			c12,9.9,25.1,18.2,39,25c4,1.9,8,3.7,12,5.4c1,0.4,2.2-0.5,2.5-1.4C519.7,159.1,519,158.2,518,157.8L518,157.8z"/>
	</g>
</g>
<g>
	<g>
		<path class="st0" d="M752.3,227.9c-11.8-15.4-26.6-28.8-43.8-38c-18.3-9.8-39-14.7-59.6-16.3c-5.8-0.5-11.7-0.7-17.5-0.6
			c-3,0-6,0.1-9,0.2c-1.5,0.1-3,0.1-4.5,0.2c-0.7,0-1.3,0.1-2,0.1c-0.4,0-0.8,0.1-1.1,0.1c-0.2,0-0.9-0.1-0.7,0.1
			c0.2,0.2,0.5,0.5,0.7,0.7c-0.1-0.1-0.1-0.2-0.2-0.2c0.1,0.3,0.2,0.7,0.3,1c0-0.1,0-0.1,0-0.2c-0.1,0.3-0.2,0.7-0.3,1
			c-0.2,0.2-0.5,0.4-0.7,0.5c-0.4,0-0.7,0-1.1,0c0,0,0.1,0,0.1,0c-0.3-0.2-0.6-0.4-0.9-0.5c0,0,0.1,0.1,0.1,0.1
			c-0.2-0.5-0.4-1-0.6-1.4c0,0.1,0,0.1,0,0.2c0.2,2.6,4.3,2.6,4.1,0c-0.2-3.1-4.8-2.9-4.8,0.1c0,3.3,4.1,2.6,6.1,2.5
			c5.5-0.4,11.1-0.5,16.6-0.5c11.1,0.1,22.3,1,33.2,3c21,3.9,41,12,57.8,25.3c9,7.1,17.2,15.5,24.2,24.6c0.7,0.9,1.8,1.3,2.8,0.7
			C752.4,230.2,753,228.8,752.3,227.9L752.3,227.9z"/>
	</g>
</g>
<g>
	<g>
		<path class="st0" d="M525.4,191.6c-0.5,10-11.2,14.7-19.5,17c-10.5,2.9-21.2,4.8-32,6c-21.8,2.5-43.7,2.5-65.6,2.1
			c-12.7-0.2-25.3-0.5-38-0.8c-2.6-0.1-2.6,4,0,4.1c23,0.5,46.1,1.3,69.1,0.8c22.5-0.5,45.3-2.4,67.1-8.2c5.6-1.5,11.2-3.5,15.7-7.3
			c4.1-3.4,6.9-8.3,7.2-13.7C529.6,189,525.6,189,525.4,191.6L525.4,191.6z"/>
	</g>
</g>
<path class="st5" d="M601.8,310.6h-33.7c-3.3,0-6-2.7-6-6V271c0-3.3,2.7-6,6-6h33.7c3.3,0,6,2.7,6,6v33.7
	C607.8,308,605.1,310.6,601.8,310.6z"/>
<g>
	<path class="st0" d="M596.1,287.7c0,6.1-5,11-11,11c-6.1,0-11-5-11-11c0-6.1,5-11,11-11C591.1,276.6,596.1,281.6,596.1,287.7z
		 M595.2,287.7c0-5.6-4.5-10.2-10.2-10.2c-5.7,0-10.2,4.6-10.2,10.2c0,5.6,4.5,10.2,10.2,10.2S595.2,293.3,595.2,287.7z
		 M585.6,283.5c-1.5,0-2.8,0.9-2.9,3.8c0.8-0.8,2-1.3,3-1.3c2.2,0,3.9,1.2,3.9,3.8s-2,4.2-4.5,4.2c-2.7,0-5.1-1.8-5.1-6.2
		c0-4.6,2.6-6.6,5.5-6.6c1.8,0,3,0.6,3.9,1.5l-1.6,1.8C587.3,283.9,586.5,283.5,585.6,283.5z M586.9,289.9c0-1.2-0.8-1.8-1.9-1.8
		c-0.7,0-1.5,0.3-2.2,1.2c0.3,1.9,1.2,2.5,2.3,2.5C586,291.8,586.9,291.1,586.9,289.9z"/>
</g>
</svg>
