<?xml version="1.0" encoding="utf-8"?>
<!-- Generator: Adobe Illustrator 26.1.0, SVG Export Plug-In . SVG Version: 6.00 Build 0)  -->
<svg version="1.1" id="Layer_1" xmlns="http://www.w3.org/2000/svg" xmlns:xlink="http://www.w3.org/1999/xlink" x="0px" y="0px"
	 viewBox="0 0 1154 669.57" style="enable-background:new 0 0 1154 669.57;" xml:space="preserve">
<style type="text/css">
	.st0{fill:#ECEEEF;}
	.st1{fill:#303030;}
	.st2{fill:#EBEDEF;}
	.st3{fill:#7D7D7D;}
	.st4{fill:#F6F2F1;}
	.st5{fill:#AFAFAF;}
	.st6{fill:none;stroke:#ECEEEF;stroke-width:4;stroke-miterlimit:10;}
</style>
<rect class="st0" width="1154" height="669.57"/>
<g>
	<path class="st1" d="M210.06,447.35c0-4.63,3.76-8.39,8.39-8.39c4.63,0,8.39,3.76,8.39,8.39c0,4.66-3.8,8.39-8.39,8.39
		C213.82,455.74,210.06,451.98,210.06,447.35z M226.26,447.35c0-4.32-3.49-7.81-7.81-7.81c-4.36,0-7.81,3.55-7.81,7.81
		c0,4.32,3.49,7.81,7.81,7.81S226.26,451.67,226.26,447.35z M216.18,443.32c0.95-0.16,1.62-0.4,2.25-0.74h1.13v9.33h-1.48v-7.63
		h-1.91V443.32z"/>
	<path class="st1" d="M236.97,445.14c-0.7,1.87-2.18,3.31-4.07,4.01l-0.77-1.15c2.39-0.86,4.07-3.01,4.07-5.29v-0.81h-3.6v-1.21
		h8.62v1.21h-3.55v0.79c0,2.09,1.58,4.14,3.93,4.95l-0.74,1.15C239.06,448.14,237.67,446.79,236.97,445.14z M235.04,455.17v-4.99
		h1.5v3.78h9.29v1.21H235.04z M245.38,439.39v11.83h-1.5v-6.18h-3.24v-1.21h3.24v-4.45H245.38z"/>
	<path class="st1" d="M250.29,448.57h-1.15v-4.79h5.47v-2.23h-5.53v-1.21h6.97v4.57h-5.47v2.45c2.99,0,4.56-0.09,6.41-0.38
		l0.14,1.19C255.15,448.52,253.51,448.57,250.29,448.57z M261.74,455.54h-1.48v-4.16h-9.33v-1.21h10.8V455.54z M260.26,449.31v-2.99
		h-3.15v-1.19h3.15v-2.16h-3.15v-1.21h3.15v-2.38h1.48v9.92H260.26z"/>
	<path class="st1" d="M279.04,454.7h-1.39v-7.74h-2.99c-0.92,2-2.45,3.78-5.04,5.22l-0.85-1.06c2.47-1.37,3.94-3.02,4.74-4.92
		l-4.54,0.45l-0.2-1.26l5.13-0.34c0.23-0.85,0.36-1.69,0.41-2.58h-4.75v-1.19h6.18c0,1.51-0.18,3.03-0.63,4.47h2.54v-5.96h1.39
		V454.7z M281,455.51v-16.15h1.41v16.15H281z"/>
	<path class="st1" d="M293.87,446.25c0,3.44-1.71,5.64-4.11,5.64c-2.39,0-4.1-2.2-4.1-5.64s1.71-5.64,4.1-5.64
		C292.16,440.62,293.87,442.81,293.87,446.25z M287.06,446.25c0,2.63,1.12,4.32,2.7,4.32c1.57,0,2.68-1.69,2.68-4.32
		c0-2.61-1.12-4.3-2.68-4.3C288.18,441.95,287.06,443.64,287.06,446.25z M296.8,455.56v-16.19h1.48v16.19H296.8z"/>
	<path class="st1" d="M301.42,447.53v-1.17h14.62v1.17H301.42z M314.66,455.34h-11.42v-3.8h9.47v-1.42h-9.52v-1.12h10.98v3.6h-9.49
		v1.6h9.97V455.34z M303.37,439.66h1.46v1.53h7.85v-1.53h1.46v5.33h-10.77V439.66z M304.83,443.86h7.85v-1.55h-7.85V443.86z"/>
	<path class="st1" d="M323.06,454.19v-1.33h2.93v-9.51c0-0.16,0-0.32,0.02-0.45l-2.4,2.14l-0.88-1.06l3.55-3.06h1.31v11.94h2.59
		v1.33H323.06z"/>
	<path class="st1" d="M332.82,455.54h-1.19l0.65-3.64h1.64L332.82,455.54z"/>
	<path class="st1" d="M339.3,454.19v-1.15l4.56-4.38c1.39-1.48,2.39-2.61,2.39-4.16c-0.05-1.58-1.06-2.32-2.43-2.32
		c-1.51,0-2.63,1.08-2.63,2.59l-1.62-0.27c0.34-2.43,2.09-3.75,4.34-3.75s4,1.37,4,3.71c0,1.96-1.26,3.33-2.75,4.83l-3.69,3.66
		c0.5-0.14,1.04-0.22,1.49-0.22h5.2v1.46H339.3z"/>
	<path class="st1" d="M353.73,448.11v-1.21h5.96v-3.1h1.48v3.1h7.09v1.21H353.73z M366.57,452.55c0,1.82-2.2,2.95-5.64,2.95
		c-3.44,0-5.62-1.13-5.62-2.95c0-1.87,2.18-2.97,5.62-2.97C364.37,449.58,366.57,450.68,366.57,452.55z M355.44,440.2h11v1.37
		c0,1.3,0,2.61-0.45,4.27l-1.44-0.16c0.43-1.66,0.43-2.86,0.43-4.11v-0.18h-9.54V440.2z M365.09,452.55c0-1.15-1.62-1.84-4.16-1.84
		c-2.52,0-4.14,0.68-4.14,1.84c0,1.13,1.62,1.8,4.14,1.8C363.47,454.35,365.09,453.71,365.09,452.55z"/>
	<path class="st1" d="M374.83,444.87c-0.7,1.87-2.12,3.26-4.07,3.96l-0.76-1.17c2.45-0.86,4.05-2.9,4.05-5.26v-0.63h-3.62v-1.19
		h8.66v1.19h-3.56v0.63c0,2.11,1.51,4.02,3.91,4.79l-0.7,1.15C376.86,447.75,375.53,446.47,374.83,444.87z M382.79,452.52
		c0,1.89-2.05,2.99-5.31,2.99c-3.31,0-5.33-1.1-5.33-2.99c0-1.87,2.02-2.97,5.33-2.97C380.73,449.55,382.79,450.65,382.79,452.52z
		 M381.31,452.52c0-1.15-1.44-1.8-3.83-1.8c-2.47,0-3.85,0.65-3.85,1.8s1.39,1.82,3.85,1.82
		C379.87,454.34,381.31,453.67,381.31,452.52z M382.61,444.7v4.43h-1.48v-9.74h1.48v4.07H385v1.24H382.61z"/>
	<path class="st1" d="M392.31,445.5h-1.64v-1.69h1.64V445.5z M392.31,453.17h-1.64v-1.69h1.64V453.17z"/>
	<path class="st1" d="M398.26,453.26v-1.21h5.67v-5.78h1.48v5.78h7.45v1.21H398.26z M399.79,440.99h11.33v1.6
		c0,2.02,0.02,4.21-0.61,7.47l-1.48-0.16c0.63-3.08,0.61-5.38,0.61-7.31v-0.4h-9.85V440.99z"/>
	<path class="st1" d="M419.13,447.66c-2.43,0-4.18-1.51-4.18-3.75c0-2.21,1.75-3.71,4.18-3.71c2.45,0,4.21,1.49,4.21,3.71
		C423.34,446.14,421.58,447.66,419.13,447.66z M419.13,446.43c1.62,0,2.77-1.04,2.77-2.52c0-1.53-1.13-2.48-2.77-2.48
		c-1.6,0-2.75,0.99-2.75,2.48C416.37,445.39,417.52,446.43,419.13,446.43z M427.16,455.31h-10.17v-6.41h1.46v2h7.26v-2h1.46V455.31z
		 M418.44,454.1h7.26v-2.05h-7.26V454.1z M427.16,448.12h-1.48v-8.73h1.48v3.67h2.39v1.22h-2.39V448.12z"/>
	<path class="st1" d="M435.7,440.42h7.54v6.61h-7.54V440.42z M449.05,454.34l-0.5,1.13c-2.45-0.34-4.59-1.46-5.55-2.95
		c-0.95,1.53-3.21,2.61-5.64,2.95l-0.49-1.13c2.74-0.34,5.35-1.84,5.35-3.46h-4.72v-1.13h4.74v-1.57h1.49v1.57h4.74v1.13h-4.74
		C443.73,452.39,446.27,453.99,449.05,454.34z M437.14,445.84h4.66v-4.25h-4.66V445.84z M446.61,439.37h1.48v9.27h-1.48V439.37z"/>
	<path class="st1" d="M467.91,452.66c0,1.85-2.05,2.84-5.51,2.84s-5.55-0.99-5.55-2.84c0-1.67,1.71-2.67,4.79-2.81v-1.73h-6.55
		v-1.19h14.6v1.19h-6.55v1.73C466.22,450,467.91,450.99,467.91,452.66z M461.45,441.3h-5.01v-1.19h11.94v1.19h-5.02
		c0.14,1.8,2.68,3.15,5.53,3.49l-0.52,1.17c-2.65-0.34-5.04-1.49-5.96-3.29c-0.88,1.8-3.31,2.95-5.96,3.29l-0.52-1.17
		C458.76,444.45,461.3,443.1,461.45,441.3z M462.38,450.97c-2.54,0-4.03,0.61-4.03,1.69s1.5,1.71,4.03,1.71
		c2.54,0,4.03-0.63,4.03-1.71S464.92,450.97,462.38,450.97z"/>
	<path class="st1" d="M481.28,450.84L480.4,452c-1.78-0.92-3.37-2.85-4.09-5.08c-0.72,2.39-2.27,4.45-4.11,5.42l-0.86-1.17
		c2.3-1.15,4.23-4.2,4.23-7.06v-1.87h-3.66v-1.21h8.8v1.21h-3.67v1.87C477.05,446.76,478.94,449.75,481.28,450.84z M483.3,455.54
		v-9.09h-3.49v-1.21h3.49v-5.87h1.48v16.17H483.3z"/>
	<path class="st1" d="M492.35,447.66c-2.43,0-4.18-1.51-4.18-3.75c0-2.21,1.75-3.71,4.18-3.71c2.45,0,4.21,1.49,4.21,3.71
		C496.56,446.14,494.8,447.66,492.35,447.66z M492.35,446.43c1.62,0,2.77-1.04,2.77-2.52c0-1.53-1.13-2.48-2.77-2.48
		c-1.6,0-2.75,0.99-2.75,2.48C489.6,445.39,490.75,446.43,492.35,446.43z M500.38,455.31h-10.17v-6.41h1.46v2h7.26v-2h1.46V455.31z
		 M491.67,454.1h7.26v-2.05h-7.26V454.1z M500.38,448.12h-1.48v-8.73h1.48v3.67h2.39v1.22h-2.39V448.12z"/>
	<path class="st1" d="M518.43,454.7h-1.39v-7.74h-2.99c-0.92,2-2.45,3.78-5.04,5.22l-0.85-1.06c2.47-1.37,3.94-3.02,4.74-4.92
		l-4.54,0.45l-0.2-1.26l5.13-0.34c0.23-0.85,0.36-1.69,0.41-2.58h-4.75v-1.19h6.18c0,1.51-0.18,3.03-0.63,4.47h2.54v-5.96h1.39
		V454.7z M520.4,455.51v-16.15h1.41v16.15H520.4z"/>
	<path class="st1" d="M533.27,446.25c0,3.44-1.71,5.64-4.11,5.64c-2.39,0-4.1-2.2-4.1-5.64s1.71-5.64,4.1-5.64
		C531.56,440.62,533.27,442.81,533.27,446.25z M526.46,446.25c0,2.63,1.12,4.32,2.7,4.32c1.57,0,2.68-1.69,2.68-4.32
		c0-2.61-1.12-4.3-2.68-4.3C527.58,441.95,526.46,443.64,526.46,446.25z M536.2,455.56v-16.19h1.48v16.19H536.2z"/>
	<path class="st1" d="M540.82,447.53v-1.17h14.62v1.17H540.82z M554.06,455.34h-11.42v-3.8h9.47v-1.42h-9.52v-1.12h10.98v3.6h-9.49
		v1.6h9.97V455.34z M542.77,439.66h1.46v1.53h7.85v-1.53h1.46v5.33h-10.77V439.66z M544.23,443.86h7.85v-1.55h-7.85V443.86z"/>
	<path class="st1" d="M557.82,455.54h-1.19l0.65-3.64h1.64L557.82,455.54z"/>
	<path class="st1" d="M569.14,444.11c-0.7,1.73-2.16,3.15-4.05,3.8l-0.74-1.15c2.36-0.81,4.03-2.83,4.03-4.92v-0.43h-3.58v-1.19
		h8.64v1.19h-3.56v0.43c0,1.94,1.57,3.82,3.89,4.54l-0.7,1.15C571.24,446.95,569.84,445.69,569.14,444.11z M567.21,455.34v-4.05
		h8.91v-1.6h-8.95v-1.15h10.41v3.87h-8.91v1.76h9.53v1.17H567.21z M577.58,439.39v8.34h-1.48v-3.55h-3.19v-1.19h3.19v-3.6H577.58z"
		/>
	<path class="st1" d="M585.09,448.5c-2.38,0-4.16-1.67-4.16-4.05c0-2.38,1.78-4.05,4.16-4.05c1.39,0,2.52,0.58,3.29,1.51h4.11v-2.52
		h1.49v11.92h-1.49v-4.34h-4.09C587.62,447.93,586.47,448.5,585.09,448.5z M585.09,447.21c1.57,0,2.74-1.15,2.74-2.75
		s-1.17-2.75-2.74-2.75c-1.58,0-2.75,1.15-2.75,2.75S583.5,447.21,585.09,447.21z M583.65,455.17v-5.08h1.5v3.87h9.29v1.21H583.65z
		 M589.23,444.45c0,0.47-0.07,0.92-0.22,1.33h3.47v-2.68h-3.47C589.15,443.52,589.23,443.96,589.23,444.45z"/>
	<path class="st1" d="M601.95,445.14c-0.7,1.87-2.18,3.31-4.07,4.01l-0.77-1.15c2.4-0.86,4.07-3.01,4.07-5.29v-0.81h-3.6v-1.21h8.62
		v1.21h-3.55v0.79c0,2.09,1.58,4.14,3.93,4.95l-0.74,1.15C604.04,448.14,602.65,446.79,601.95,445.14z M600.03,455.17v-4.99h1.5
		v3.78h9.29v1.21H600.03z M610.36,439.39v11.83h-1.49v-6.18h-3.24v-1.21h3.24v-4.45H610.36z"/>
	<path class="st1" d="M618.24,444.94c-0.7,1.94-2.12,3.44-4.02,4.21l-0.77-1.17c2.41-0.86,4.03-3.19,4.03-5.64v-2h1.48v2.05
		c0,2.25,1.6,4.38,3.91,5.24l-0.77,1.13C620.3,448.07,618.94,446.68,618.24,444.94z M616.35,455.17v-5.04h1.48v3.83h9.29v1.21
		H616.35z M621.72,443.17h3.53v-3.78h1.5v12.06h-1.5v-7.06h-3.53V443.17z"/>
	<path class="st1" d="M630.41,455.54h-1.19l0.65-3.64h1.64L630.41,455.54z"/>
	<path class="st1" d="M644.34,449.55l0.14,1.28c-2.18,0.41-4.03,0.5-5.78,0.5h-1.03v-9.99h1.48v8.71
		C640.74,450.03,642.4,449.92,644.34,449.55z M649.17,455.51v-8.34h-2.29v7.53h-1.39v-14.96h1.39v6.21h2.29v-6.57h1.42v16.13H649.17
		z"/>
	<path class="st1" d="M663.28,450.72l0.09,1.1c-3.48,0.63-7.24,0.65-10.08,0.65l-0.2-1.24c1.3,0,2.79,0,4.38-0.05v-1.76
		c-1.87-0.23-3.08-1.35-3.08-2.95c0-1.82,1.57-2.99,3.82-2.99s3.82,1.17,3.82,2.99c0,1.6-1.21,2.72-3.08,2.95v1.71
		C660.4,451.04,661.89,450.93,663.28,450.72z M653.36,441.34h4.11v-1.95h1.48v1.95h4.07v1.17h-9.65V441.34z M658.2,448.29
		c1.44,0,2.41-0.68,2.41-1.84s-0.97-1.85-2.41-1.85s-2.41,0.7-2.41,1.85S656.76,448.29,658.2,448.29z M665.71,455.52h-1.48v-16.15
		h1.48v6.86h2.52v1.24h-2.52V455.52z"/>
	<path class="st1" d="M674.55,445.14c-0.7,1.87-2.18,3.31-4.07,4.01L669.7,448c2.4-0.86,4.07-3.01,4.07-5.29v-0.81h-3.6v-1.21h8.62
		v1.21h-3.55v0.79c0,2.09,1.58,4.14,3.93,4.95l-0.74,1.15C676.64,448.14,675.25,446.79,674.55,445.14z M672.62,455.17v-4.99h1.5
		v3.78h9.29v1.21H672.62z M682.95,439.39v11.83h-1.49v-6.18h-3.24v-1.21h3.24v-4.45H682.95z"/>
	<path class="st1" d="M690.84,444.94c-0.7,1.94-2.12,3.44-4.02,4.21l-0.77-1.17c2.41-0.86,4.03-3.19,4.03-5.64v-2h1.48v2.05
		c0,2.25,1.6,4.38,3.91,5.24l-0.77,1.13C692.89,448.07,691.54,446.68,690.84,444.94z M688.95,455.17v-5.04h1.48v3.83h9.29v1.21
		H688.95z M694.31,443.17h3.53v-3.78h1.5v12.06h-1.5v-7.06h-3.53V443.17z"/>
	<path class="st1" d="M703,455.54h-1.19l0.65-3.64h1.64L703,455.54z"/>
	<path class="st1" d="M717.66,450.81l-0.9,1.08c-1.58-0.94-2.68-2.61-3.24-4.72c-0.56,2.25-1.73,4.11-3.33,5.11l-0.9-1.1
		c2.27-1.35,3.51-4.29,3.51-7.26v-1.46h-3.06v-1.21h7.36v1.21h-2.88v1.46C714.22,446.74,715.42,449.55,717.66,450.81z
		 M719.94,454.68h-1.4v-8.3h-2.66v-1.21h2.66v-5.44h1.4V454.68z M721.78,455.51v-16.15h1.42v16.15H721.78z"/>
	<path class="st1" d="M737.69,455.56v-8.82h-3.51c-0.14,3.17-1.75,5.15-4,5.15c-2.36,0-4.03-2.2-4.03-5.64s1.67-5.64,4.03-5.64
		c2.18,0,3.76,1.89,4,4.92h3.51v-6.16h1.48v16.19H737.69z M732.79,446.25c0-2.61-1.08-4.3-2.61-4.3c-1.55,0-2.63,1.69-2.63,4.3
		c0,2.63,1.08,4.32,2.63,4.32C731.71,450.57,732.79,448.88,732.79,446.25z"/>
	<path class="st1" d="M742.23,448.56v-1.19h3.62v-2.27c-1.31-0.52-1.98-1.33-1.98-2.43c0-1.87,2.18-3.01,5.67-3.01
		c3.51,0,5.67,1.13,5.67,3.01c0,1.08-0.72,1.91-1.96,2.41v2.29h3.6v1.19H742.23z M755.06,452.64c0,1.85-2.05,2.86-5.53,2.86
		c-3.46,0-5.53-1.01-5.53-2.86s2.07-2.88,5.53-2.88C753.01,449.76,755.06,450.79,755.06,452.64z M749.53,444.52
		c2.61,0,4.16-0.7,4.16-1.85c0-1.17-1.55-1.85-4.16-1.85c-2.61,0-4.16,0.68-4.16,1.85C745.38,443.82,746.92,444.52,749.53,444.52z
		 M753.57,452.64c0-1.1-1.49-1.73-4.03-1.73c-2.54,0-4.03,0.63-4.03,1.73c0,1.1,1.5,1.73,4.03,1.73
		C752.07,454.37,753.57,453.74,753.57,452.64z M751.79,445.48c-0.63,0.13-1.39,0.18-2.25,0.18c-0.81,0-1.57-0.05-2.23-0.18v1.89
		h4.48V445.48z"/>
	<path class="st1" d="M763.52,445.14c-0.7,1.87-2.18,3.31-4.07,4.01l-0.77-1.15c2.39-0.86,4.07-3.01,4.07-5.29v-0.81h-3.6v-1.21
		h8.62v1.21h-3.55v0.79c0,2.09,1.58,4.14,3.93,4.95l-0.74,1.15C765.61,448.14,764.22,446.79,763.52,445.14z M761.59,455.17v-4.99
		h1.5v3.78h9.29v1.21H761.59z M771.93,439.39v11.83h-1.5v-6.18h-3.24v-1.21h3.24v-4.45H771.93z"/>
	<path class="st1" d="M779.81,444.94c-0.7,1.94-2.12,3.44-4.02,4.21l-0.77-1.17c2.41-0.86,4.03-3.19,4.03-5.64v-2h1.48v2.05
		c0,2.25,1.6,4.38,3.91,5.24l-0.77,1.13C781.86,448.07,780.51,446.68,779.81,444.94z M777.92,455.17v-5.04h1.48v3.83h9.29v1.21
		H777.92z M783.28,443.17h3.53v-3.78h1.49v12.06h-1.49v-7.06h-3.53V443.17z"/>
	<path class="st1" d="M799.34,444.96c-0.58,1.51-1.71,2.88-3.29,3.58l-0.79-1.15c2.09-0.9,3.37-3.04,3.37-4.83v-2.18h1.42v2.18
		c0,1.76,1.21,3.62,3.28,4.39l-0.79,1.13C801.01,447.46,799.92,446.32,799.34,444.96z M808.94,452.61c0,1.82-2.09,2.9-5.4,2.9
		c-3.31,0-5.38-1.08-5.38-2.9c0-1.82,2.07-2.9,5.38-2.9C806.85,449.71,808.94,450.79,808.94,452.61z M807.48,452.61
		c0-1.15-1.48-1.75-3.94-1.75s-3.93,0.59-3.93,1.75s1.46,1.76,3.93,1.76S807.48,453.76,807.48,452.61z M803.98,439.7h1.4v4.01h2.05
		v-4.32h1.42v9.96h-1.42v-4.43h-2.05v3.91h-1.4V439.7z"/>
	<path class="st1" d="M816.35,444.96c-0.67,1.94-2.09,3.38-4.03,4.1l-0.77-1.17c2.47-0.86,4.03-3.04,4.03-5.55v-2h1.48v2.03
		c0,2.21,1.6,4.25,3.98,5.11l-0.74,1.17C818.47,448,817.07,446.68,816.35,444.96z M824.85,455.17h-10.71v-5.01h1.48v3.8h9.24V455.17
		z M824.15,445.55v5.74h-1.48v-11.94h1.48v4.97h2.39v1.22H824.15z"/>
	<path class="st1" d="M210.06,479.35c0-4.63,3.76-8.39,8.39-8.39c4.63,0,8.39,3.76,8.39,8.39c0,4.66-3.8,8.39-8.39,8.39
		C213.82,487.74,210.06,483.98,210.06,479.35z M226.26,479.35c0-4.32-3.49-7.81-7.81-7.81c-4.36,0-7.81,3.55-7.81,7.81
		c0,4.32,3.49,7.81,7.81,7.81S226.26,483.67,226.26,479.35z M220.09,477.26c0-1.08-0.59-1.71-1.84-1.71c-0.88,0-1.62,0.5-2.2,1.06
		l-0.85-0.79c0.92-0.95,1.89-1.46,3.19-1.46c1.95,0,3.13,1.12,3.13,2.79c0,1.73-1.75,3.51-4.05,5.56c0.56-0.05,1.21-0.07,1.84-0.07
		h2.65v1.26h-6.63v-0.86C218.36,480.39,220.09,478.74,220.09,477.26z"/>
	<path class="st1" d="M232.07,485.42v-1.21h6.52v-3.92h1.48v3.92h6.66v1.21H232.07z M239.33,475.98c-1.06,2.3-3.56,3.98-6.05,4.5
		l-0.61-1.22c2.83-0.49,5.89-2.88,5.89-5.56v-1.24h1.55v1.24c0,2.68,3.08,5.08,5.91,5.56l-0.63,1.22
		C242.91,479.94,240.39,478.29,239.33,475.98z"/>
	<path class="st1" d="M256.68,482.5l-0.86,1.13c-1.58-0.88-2.7-2.41-3.28-4.36c-0.56,2.25-1.67,3.91-3.35,4.92l-0.9-1.12
		c2.3-1.3,3.51-4.07,3.51-7.33v-1.26h-3.13v-1.21h7.49v1.21h-2.93v1.26C253.22,478.72,254.37,481.29,256.68,482.5z M260.8,487.52
		v-8.41h-2.12v7.62h-1.39v-15h1.39v6.16h2.12v-6.54h1.42v16.17H260.8z"/>
	<path class="st1" d="M265.53,479.62c0-3.53,0.99-6.45,2.65-9.13l1.03,0.47c-1.58,2.61-2.3,5.51-2.3,8.66c0,3.15,0.72,6.05,2.3,8.66
		l-1.03,0.49C266.52,486.08,265.53,483.17,265.53,479.62z"/>
	<path class="st1" d="M271.53,480.74v-7.74h1.67v7.8c0,3.17,1.33,4.18,3.06,4.18c1.78,0,3.15-1.01,3.15-4.18v-7.8h1.6v7.74
		c0,4.25-2.05,5.69-4.75,5.69C273.58,486.43,271.53,484.99,271.53,480.74z"/>
	<path class="st1" d="M285.73,477.53h0.05c0.88-0.72,1.96-1.37,3.12-1.37c2.52,0,3.89,1.98,3.89,4.99c0,3.37-2.02,5.28-4.25,5.28
		c-0.88,0-1.82-0.41-2.7-1.13l0.04,1.71v3.31h-1.64v-13.9h1.35L285.73,477.53z M291.08,481.17c0-2.16-0.72-3.62-2.57-3.62
		c-0.85,0-1.67,0.47-2.63,1.35v5.13c0.88,0.77,1.75,1.03,2.39,1.03C289.91,485.06,291.08,483.6,291.08,481.17z"/>
	<path class="st1" d="M300.4,480.2h-5.94v-1.26h5.94V480.2z"/>
	<path class="st1" d="M302.04,481.31c0-3.26,2.21-5.15,4.72-5.15c1.3,0,2.16,0.52,2.86,1.15l-0.85,1.1
		c-0.58-0.52-1.17-0.88-1.96-0.88c-1.76,0-3.06,1.53-3.06,3.78c0,2.25,1.22,3.75,3.02,3.75c0.92,0,1.67-0.41,2.3-0.97l0.7,1.1
		c-0.86,0.79-1.98,1.24-3.15,1.24C304.03,486.43,302.04,484.55,302.04,481.31z"/>
	<path class="st1" d="M311.14,483.56c0-2.52,2.14-3.51,6.01-3.57c0-1.26-0.42-2.47-2.02-2.47c-1.15,0-2.25,0.43-3.02,0.95
		l-0.65-1.17c0.92-0.58,2.36-1.15,3.94-1.15c2.38,0,3.38,1.62,3.38,4.02v6.01h-1.35l-0.14-1.04h-0.05
		c-0.94,0.77-2.04,1.28-3.26,1.28C312.35,486.43,311.14,485.35,311.14,483.56z M317.16,483.98v-2.9c-3.48,0.23-4.41,0.86-4.41,2.38
		c0,1.15,0.7,1.66,1.71,1.66C315.41,485.11,316.2,484.82,317.16,483.98z"/>
	<path class="st1" d="M320.63,485.08l0.81-1.08c0.85,0.7,1.73,1.15,2.9,1.15c1.3,0,1.93-0.68,1.93-1.53c0-0.99-1.15-1.42-2.23-1.85
		c-1.37-0.49-2.92-1.19-2.92-2.83c0-1.53,1.24-2.77,3.37-2.77c1.22,0,2.27,0.5,3.04,1.1l-0.79,1.06c-0.7-0.5-1.37-0.86-2.25-0.86
		c-1.22,0-1.78,0.63-1.78,1.4c0,0.94,1.06,1.26,2.16,1.69c1.42,0.52,2.99,1.13,2.99,2.97c0,1.58-1.26,2.9-3.57,2.9
		C322.9,486.43,321.56,485.85,320.63,485.08z"/>
	<path class="st1" d="M330.26,483.17v-5.42h-1.46v-1.24l1.53-0.09l0.2-2.74h1.37v2.74h2.65v1.33h-2.65v5.46
		c0,1.22,0.36,1.89,1.51,1.89c0.34,0,0.77-0.13,1.12-0.25l0.32,1.22c-0.56,0.2-1.21,0.36-1.8,0.36
		C330.96,486.43,330.26,485.13,330.26,483.17z"/>
	<path class="st1" d="M337.91,476.42v9.78h-1.64v-9.78H337.91z M336.29,472.71h1.64v1.69h-1.64V472.71z"/>
	<path class="st1" d="M342.23,477.82h0.05c0.94-0.92,1.93-1.66,3.28-1.66c2.11,0,2.99,1.3,2.99,3.83v6.19h-1.64v-5.98
		c0-1.87-0.56-2.61-1.85-2.61c-1.01,0-1.69,0.5-2.68,1.5v7.09h-1.64v-9.78h1.35L342.23,477.82z"/>
	<path class="st1" d="M350.8,488.06c0-0.85,0.54-1.62,1.46-2.21v-0.07c-0.52-0.31-0.9-0.83-0.9-1.6c0-0.81,0.59-1.46,1.1-1.82v-0.07
		c-0.65-0.52-1.28-1.46-1.28-2.63c0-2.14,1.71-3.49,3.67-3.49c0.56,0,1.03,0.13,1.37,0.25h3.4v1.26h-2
		c0.49,0.45,0.79,1.17,0.79,2.02c0,2.09-1.6,3.4-3.57,3.4c-0.52,0-1.01-0.11-1.46-0.34c-0.36,0.31-0.63,0.61-0.63,1.17
		c0,0.63,0.4,1.06,1.71,1.06h1.91c2.32,0,3.4,0.72,3.4,2.32c0,1.82-1.91,3.38-4.93,3.38C352.45,490.69,350.8,489.76,350.8,488.06z
		 M358.2,487.56c0-0.92-0.7-1.21-2-1.21h-1.69c-0.36,0-0.83-0.04-1.26-0.16c-0.7,0.5-1.01,1.08-1.01,1.66
		c0,1.08,1.04,1.73,2.84,1.73C356.95,489.58,358.2,488.59,358.2,487.56z M356.92,479.66c0-1.44-0.92-2.29-2.07-2.29
		s-2.09,0.85-2.09,2.29c0,1.42,0.95,2.32,2.09,2.32C355.95,481.98,356.92,481.08,356.92,479.66z"/>
	<path class="st1" d="M362.93,479.51c0-3.15-0.72-6.05-2.3-8.66l1.01-0.47c1.67,2.68,2.67,5.6,2.67,9.13c0,3.55-0.99,6.46-2.67,9.15
		l-1.01-0.49C362.21,485.56,362.93,482.66,362.93,479.51z"/>
	<path class="st1" d="M370.6,480.11v-1.21h5.96v-3.1h1.48v3.1h7.09v1.21H370.6z M383.43,484.55c0,1.82-2.2,2.95-5.64,2.95
		s-5.62-1.13-5.62-2.95c0-1.87,2.18-2.97,5.62-2.97S383.43,482.68,383.43,484.55z M372.31,472.2h11v1.37c0,1.3,0,2.61-0.45,4.27
		l-1.44-0.16c0.43-1.66,0.43-2.86,0.43-4.11v-0.18h-9.54V472.2z M381.96,484.55c0-1.15-1.62-1.84-4.16-1.84
		c-2.52,0-4.14,0.68-4.14,1.84c0,1.13,1.62,1.8,4.14,1.8C380.34,486.35,381.96,485.71,381.96,484.55z"/>
	<path class="st1" d="M391.69,476.87c-0.7,1.87-2.12,3.26-4.07,3.96l-0.76-1.17c2.45-0.86,4.05-2.9,4.05-5.26v-0.63h-3.62v-1.19
		h8.66v1.19h-3.56v0.63c0,2.11,1.51,4.02,3.91,4.79l-0.7,1.15C393.73,479.75,392.4,478.47,391.69,476.87z M399.65,484.52
		c0,1.89-2.05,2.99-5.31,2.99c-3.31,0-5.33-1.1-5.33-2.99c0-1.87,2.02-2.97,5.33-2.97C397.6,481.55,399.65,482.65,399.65,484.52z
		 M398.18,484.52c0-1.15-1.44-1.8-3.83-1.8c-2.47,0-3.85,0.65-3.85,1.8s1.39,1.82,3.85,1.82
		C396.73,486.34,398.18,485.67,398.18,484.52z M399.47,476.7v4.43H398v-9.74h1.48v4.07h2.39v1.24H399.47z"/>
	<path class="st1" d="M409.17,477.5h-1.64v-1.69h1.64V477.5z M409.17,485.17h-1.64v-1.69h1.64V485.17z"/>
	<path class="st1" d="M415.13,485.26v-1.21h5.67v-5.78h1.48v5.78h7.45v1.21H415.13z M416.66,472.99h11.33v1.6
		c0,2.02,0.02,4.21-0.61,7.47l-1.48-0.16c0.63-3.08,0.61-5.38,0.61-7.31v-0.4h-9.85V472.99z"/>
	<path class="st1" d="M439.65,480.79v3.26h-1.49v-3.26h-6.7v-1.19h14.66v1.19H439.65z M438.8,474.56c-1.01,1.93-3.37,3.24-5.87,3.67
		l-0.58-1.15c2.86-0.43,5.69-2.34,5.69-4.5v-0.79h1.51v0.79c0,2.12,2.84,4.03,5.65,4.47l-0.56,1.15
		C442.22,477.77,439.81,476.43,438.8,474.56z M444.51,487.17h-11.18v-4.65h1.48v3.44h9.71V487.17z"/>
	<path class="st1" d="M447.85,485.49v-1.22h6.57v-4.14h-4.7v-7.46h10.95v1.21h-9.47v5.06h9.63v1.19h-4.92v4.14h6.61v1.22H447.85z"/>
	<path class="st1" d="M468.19,479.6c0-4.27,2.49-6.86,5.85-6.86c1.6,0,2.86,0.79,3.62,1.64l-0.9,1.08c-0.7-0.74-1.55-1.26-2.7-1.26
		c-2.5,0-4.16,2.03-4.16,5.35c0,3.33,1.58,5.42,4.11,5.42c1.3,0,2.21-0.56,3.06-1.48l0.92,1.04c-1.08,1.22-2.32,1.89-4.05,1.89
		C470.68,486.43,468.19,483.87,468.19,479.6z"/>
	<path class="st1" d="M479.37,481.31c0-3.26,2.14-5.15,4.54-5.15c2.39,0,4.54,1.89,4.54,5.15c0,3.24-2.14,5.11-4.54,5.11
		C481.51,486.43,479.37,484.55,479.37,481.31z M486.75,481.31c0-2.25-1.17-3.78-2.84-3.78c-1.67,0-2.83,1.53-2.83,3.78
		c0,2.25,1.15,3.75,2.83,3.75C485.58,485.06,486.75,483.56,486.75,481.31z"/>
	<path class="st1" d="M492.33,477.53h0.05c0.88-0.72,1.96-1.37,3.12-1.37c2.52,0,3.89,1.98,3.89,4.99c0,3.37-2.02,5.28-4.25,5.28
		c-0.88,0-1.82-0.41-2.7-1.13l0.04,1.71v3.31h-1.64v-13.9h1.35L492.33,477.53z M497.68,481.17c0-2.16-0.72-3.62-2.57-3.62
		c-0.85,0-1.67,0.47-2.63,1.35v5.13c0.88,0.77,1.75,1.03,2.39,1.03C496.51,485.06,497.68,483.6,497.68,481.17z"/>
	<path class="st1" d="M503.31,477.53h0.05c0.88-0.72,1.96-1.37,3.12-1.37c2.52,0,3.89,1.98,3.89,4.99c0,3.37-2.02,5.28-4.25,5.28
		c-0.88,0-1.82-0.41-2.7-1.13l0.04,1.71v3.31h-1.64v-13.9h1.35L503.31,477.53z M508.66,481.17c0-2.16-0.72-3.62-2.57-3.62
		c-0.85,0-1.67,0.47-2.63,1.35v5.13c0.88,0.77,1.75,1.03,2.39,1.03C507.49,485.06,508.66,483.6,508.66,481.17z"/>
	<path class="st1" d="M512.06,481.31c0-3.17,2.14-5.15,4.41-5.15c2.49,0,3.89,1.8,3.89,4.59c0,0.36-0.02,0.7-0.07,0.94h-6.59
		c0.13,2.11,1.37,3.42,3.24,3.42c0.95,0,1.73-0.29,2.45-0.77l0.59,1.08c-0.86,0.56-1.87,1.01-3.24,1.01
		C514.15,486.43,512.06,484.55,512.06,481.31z M516.49,477.48c-1.39,0-2.61,1.12-2.81,3.04h5.24
		C518.92,478.49,518.02,477.48,516.49,477.48z"/>
	<path class="st1" d="M524.08,478.2h0.05c0.7-1.24,1.67-2.04,2.77-2.04c0.43,0,0.74,0.05,1.04,0.22l-0.31,1.44
		c-0.34-0.13-0.54-0.16-0.95-0.16c-0.79,0-1.84,0.58-2.47,2.25v6.28h-1.64v-9.78h1.35L524.08,478.2z"/>
	<path class="st1" d="M535.06,480.59v5.6h-1.67v-13.2h4.14c2.68,0,4.61,0.96,4.61,3.71c0,2.11-1.19,3.28-2.99,3.71l3.38,5.78h-1.89
		l-3.21-5.6H535.06z M540.48,476.7c0-1.75-1.1-2.36-3.21-2.36h-2.21v4.9h2.21C539.38,479.24,540.48,478.43,540.48,476.7z"/>
	<path class="st1" d="M543.75,481.31c0-3.26,2.14-5.15,4.54-5.15c2.39,0,4.54,1.89,4.54,5.15c0,3.24-2.14,5.11-4.54,5.11
		C545.9,486.43,543.75,484.55,543.75,481.31z M551.14,481.31c0-2.25-1.17-3.78-2.84-3.78c-1.67,0-2.83,1.53-2.83,3.78
		c0,2.25,1.15,3.75,2.83,3.75C549.97,485.06,551.14,483.56,551.14,481.31z"/>
	<path class="st1" d="M554.52,481.31c0-3.17,2-5.15,4.23-5.15c1.15,0,1.89,0.43,2.75,1.15l-0.09-1.69v-3.76h1.64v14.33h-1.33
		l-0.16-1.15h-0.04c-0.77,0.77-1.8,1.39-2.97,1.39C556.1,486.43,554.52,484.57,554.52,481.31z M561.42,483.71v-5.13
		c-0.85-0.74-1.57-1.03-2.38-1.03c-1.58,0-2.83,1.51-2.83,3.75c0,2.39,0.97,3.76,2.7,3.76C559.83,485.06,560.6,484.63,561.42,483.71
		z"/>
	<path class="st1" d="M573.46,476.96c-0.58,1.51-1.71,2.88-3.29,3.58l-0.79-1.15c2.09-0.9,3.37-3.04,3.37-4.83v-2.18h1.42v2.18
		c0,1.76,1.21,3.62,3.28,4.39l-0.79,1.13C575.13,479.46,574.03,478.32,573.46,476.96z M583.05,484.61c0,1.82-2.09,2.9-5.4,2.9
		c-3.31,0-5.38-1.08-5.38-2.9c0-1.82,2.07-2.9,5.38-2.9C580.96,481.71,583.05,482.79,583.05,484.61z M581.59,484.61
		c0-1.15-1.48-1.75-3.94-1.75s-3.92,0.59-3.92,1.75s1.46,1.76,3.92,1.76S581.59,485.76,581.59,484.61z M578.1,471.7h1.4v4.01h2.05
		v-4.32h1.42v9.96h-1.42v-4.43h-2.05v3.91h-1.4V471.7z"/>
	<path class="st1" d="M590.47,476.96c-0.67,1.94-2.09,3.38-4.03,4.1l-0.77-1.17c2.47-0.86,4.03-3.04,4.03-5.55v-2h1.48v2.03
		c0,2.21,1.6,4.25,3.98,5.11l-0.74,1.17C592.59,480,591.19,478.68,590.47,476.96z M598.97,487.17h-10.71v-5.01h1.48v3.8h9.24V487.17
		z M598.26,477.55v5.74h-1.48v-11.94h1.48v4.97h2.39v1.22H598.26z"/>
	<path class="st1" d="M210.06,511.35c0-4.63,3.76-8.39,8.39-8.39c4.63,0,8.39,3.76,8.39,8.39c0,4.66-3.8,8.39-8.39,8.39
		C213.82,519.74,210.06,515.98,210.06,511.35z M226.26,511.35c0-4.32-3.49-7.81-7.81-7.81c-4.36,0-7.81,3.55-7.81,7.81
		c0,4.32,3.49,7.81,7.81,7.81S226.26,515.67,226.26,511.35z M214.92,514.79l0.72-0.95c0.63,0.59,1.44,1.1,2.68,1.1
		c1.17,0,2-0.63,2-1.58c0-1.04-0.79-1.73-3.24-1.73v-1.1c2.14,0,2.9-0.67,2.9-1.6c0-0.86-0.63-1.39-1.71-1.39
		c-0.85,0-1.57,0.34-2.2,0.94l-0.77-0.92c0.79-0.72,1.78-1.19,3.01-1.19c1.85,0,3.17,0.88,3.17,2.47c0,1.08-0.76,1.75-1.84,2.16
		v0.05c1.22,0.31,2.2,1.08,2.2,2.38c0,1.66-1.55,2.7-3.47,2.7C216.75,516.12,215.62,515.53,214.92,514.79z"/>
	<path class="st1" d="M232.99,516.46l-0.81-1.15c4.2-2.11,6.34-5.1,6.68-8.98h-5.92v-1.22h7.38
		C240.32,509.69,238.21,513.87,232.99,516.46z M244.49,519.52h-1.48v-16.15h1.48v6.55h2.59v1.22h-2.59V519.52z"/>
	<path class="st1" d="M248.49,512.11v-1.21h5.96v-3.1h1.48v3.1h7.09v1.21H248.49z M261.32,516.55c0,1.82-2.2,2.95-5.64,2.95
		c-3.44,0-5.62-1.13-5.62-2.95c0-1.87,2.18-2.97,5.62-2.97C259.13,513.58,261.32,514.68,261.32,516.55z M250.2,504.2h11v1.37
		c0,1.3,0,2.61-0.45,4.27l-1.44-0.16c0.43-1.66,0.43-2.86,0.43-4.11v-0.18h-9.54V504.2z M259.85,516.55c0-1.15-1.62-1.84-4.16-1.84
		c-2.52,0-4.14,0.68-4.14,1.84c0,1.13,1.62,1.8,4.14,1.8C258.23,518.35,259.85,517.71,259.85,516.55z"/>
	<path class="st1" d="M269.64,508.94c-0.7,1.94-2.12,3.44-4.02,4.21l-0.77-1.17c2.41-0.86,4.03-3.19,4.03-5.64v-2h1.48v2.05
		c0,2.25,1.6,4.38,3.91,5.24l-0.77,1.13C271.69,512.07,270.34,510.68,269.64,508.94z M267.75,519.17v-5.04h1.48v3.83h9.29v1.21
		H267.75z M273.11,507.17h3.53v-3.78h1.5v12.06h-1.5v-7.06h-3.53V507.17z"/>
	<path class="st1" d="M281.91,511.62c0-3.53,0.99-6.45,2.65-9.13l1.03,0.47c-1.58,2.61-2.3,5.51-2.3,8.66c0,3.15,0.72,6.05,2.3,8.66
		l-1.03,0.49C282.9,518.08,281.91,515.17,281.91,511.62z"/>
	<path class="st1" d="M287.91,518.19h-1.69l4.48-13.2h1.85l4.48,13.2h-1.76l-1.26-4.03h-4.83L287.91,518.19z M291.63,506.34h-0.07
		c-0.41,1.58-0.83,2.95-1.31,4.47l-0.65,2.02h4l-0.63-2.02C292.48,509.3,292.07,507.88,291.63,506.34z"/>
	<path class="st1" d="M300.38,516.77h5.76v1.42h-7.44v-13.2h1.67V516.77z"/>
	<path class="st1" d="M309.56,511.51c0-3.15-0.72-6.05-2.3-8.66l1.01-0.47c1.67,2.68,2.67,5.6,2.67,9.13c0,3.55-0.99,6.46-2.67,9.15
		l-1.01-0.49C308.84,517.56,309.56,514.66,309.56,511.51z"/>
	<path class="st1" d="M317.23,512.11v-1.21h5.96v-3.1h1.48v3.1h7.09v1.21H317.23z M330.07,516.55c0,1.82-2.2,2.95-5.64,2.95
		c-3.44,0-5.62-1.13-5.62-2.95c0-1.87,2.18-2.97,5.62-2.97C327.87,513.58,330.07,514.68,330.07,516.55z M318.94,504.2h11v1.37
		c0,1.3,0,2.61-0.45,4.27l-1.44-0.16c0.43-1.66,0.43-2.86,0.43-4.11v-0.18h-9.54V504.2z M328.59,516.55c0-1.15-1.62-1.84-4.16-1.84
		c-2.52,0-4.14,0.68-4.14,1.84c0,1.13,1.62,1.8,4.14,1.8C326.97,518.35,328.59,517.71,328.59,516.55z"/>
	<path class="st1" d="M338.33,508.87c-0.7,1.87-2.12,3.26-4.07,3.96l-0.76-1.17c2.45-0.86,4.05-2.9,4.05-5.26v-0.63h-3.62v-1.19
		h8.66v1.19h-3.56v0.63c0,2.11,1.51,4.02,3.91,4.79l-0.7,1.15C340.36,511.75,339.03,510.47,338.33,508.87z M346.28,516.52
		c0,1.89-2.05,2.99-5.31,2.99c-3.31,0-5.33-1.1-5.33-2.99c0-1.87,2.02-2.97,5.33-2.97C344.23,513.55,346.28,514.65,346.28,516.52z
		 M344.81,516.52c0-1.15-1.44-1.8-3.83-1.8c-2.47,0-3.85,0.65-3.85,1.8s1.39,1.82,3.85,1.82
		C343.37,518.34,344.81,517.67,344.81,516.52z M346.1,508.7v4.43h-1.48v-9.74h1.48v4.07h2.39v1.24H346.1z"/>
	<path class="st1" d="M355.8,509.5h-1.64v-1.69h1.64V509.5z M355.8,517.17h-1.64v-1.69h1.64V517.17z"/>
	<path class="st1" d="M362.53,518.19h-1.69l4.48-13.2h1.85l4.48,13.2h-1.76l-1.26-4.03h-4.83L362.53,518.19z M366.26,506.34h-0.07
		c-0.41,1.58-0.83,2.95-1.31,4.47l-0.65,2.02h4l-0.63-2.02C367.11,509.3,366.69,507.88,366.26,506.34z"/>
	<path class="st1" d="M372.58,511.6c0-4.27,2.49-6.86,5.85-6.86c1.6,0,2.86,0.79,3.62,1.64l-0.9,1.08c-0.7-0.74-1.55-1.26-2.7-1.26
		c-2.5,0-4.16,2.03-4.16,5.35c0,3.33,1.58,5.42,4.11,5.42c1.3,0,2.21-0.56,3.06-1.48l0.92,1.04c-1.08,1.22-2.32,1.89-4.05,1.89
		C375.06,518.43,372.58,515.87,372.58,511.6z"/>
	<path class="st1" d="M383.88,511.6c0-4.27,2.49-6.86,5.85-6.86c1.6,0,2.86,0.79,3.62,1.64l-0.9,1.08c-0.7-0.74-1.55-1.26-2.7-1.26
		c-2.5,0-4.16,2.03-4.16,5.35c0,3.33,1.58,5.42,4.11,5.42c1.3,0,2.21-0.56,3.06-1.48l0.92,1.04c-1.08,1.22-2.32,1.89-4.05,1.89
		C386.37,518.43,383.88,515.87,383.88,511.6z"/>
	<path class="st1" d="M395.19,511.6c0-4.27,2.49-6.86,5.85-6.86c1.6,0,2.86,0.79,3.62,1.64l-0.9,1.08c-0.7-0.74-1.55-1.26-2.7-1.26
		c-2.5,0-4.16,2.03-4.16,5.35c0,3.33,1.58,5.42,4.11,5.42c1.3,0,2.21-0.56,3.06-1.48l0.92,1.04c-1.08,1.22-2.32,1.89-4.05,1.89
		C397.67,518.43,395.19,515.87,395.19,511.6z"/>
	<path class="st1" d="M410.25,512.25v-1.19h14.6v1.19H410.25z M416.61,505.39h-5.01v-1.19h11.94v1.19h-5.02
		c0.05,1.78,2.7,3.22,5.53,3.51l-0.52,1.17c-2.65-0.34-5.1-1.48-5.96-3.26c-0.9,1.76-3.33,2.92-5.96,3.26l-0.52-1.17
		C413.98,508.61,416.52,507.17,416.61,505.39z M423.07,516.57c0,1.89-2.09,2.93-5.53,2.93c-3.46,0-5.53-1.04-5.53-2.93
		c0-1.87,2.07-2.92,5.53-2.92C420.98,513.66,423.07,514.7,423.07,516.57z M421.58,516.57c0-1.15-1.49-1.76-4.03-1.76
		c-2.54,0-4.03,0.61-4.03,1.76s1.5,1.76,4.03,1.76C420.08,518.34,421.58,517.72,421.58,516.57z"/>
	<path class="st1" d="M426.61,512.56v-1.19h3.62v-2.27c-1.31-0.52-1.98-1.33-1.98-2.43c0-1.87,2.18-3.01,5.67-3.01
		c3.51,0,5.67,1.13,5.67,3.01c0,1.08-0.72,1.91-1.96,2.41v2.29h3.6v1.19H426.61z M439.45,516.64c0,1.85-2.05,2.86-5.53,2.86
		c-3.46,0-5.53-1.01-5.53-2.86s2.07-2.88,5.53-2.88C437.4,513.76,439.45,514.79,439.45,516.64z M433.92,508.52
		c2.61,0,4.16-0.7,4.16-1.85c0-1.17-1.55-1.85-4.16-1.85c-2.61,0-4.16,0.68-4.16,1.85C429.76,507.82,431.31,508.52,433.92,508.52z
		 M437.96,516.64c0-1.1-1.49-1.73-4.03-1.73c-2.54,0-4.03,0.63-4.03,1.73c0,1.1,1.5,1.73,4.03,1.73
		C436.46,518.37,437.96,517.74,437.96,516.64z M436.17,509.48c-0.63,0.13-1.39,0.18-2.25,0.18c-0.81,0-1.57-0.05-2.23-0.18v1.89
		h4.48V509.48z"/>
	<path class="st1" d="M444.99,512.2h-1.28v-4.57h5.78v-2.03h-5.82v-1.21h7.27v4.38h-5.78v2.23c2.83,0,4.9-0.09,7.35-0.52l0.14,1.21
		C450.12,512.11,447.98,512.2,444.99,512.2z M455.7,516.57c0,1.87-2.05,2.93-5.31,2.93c-3.3,0-5.31-1.06-5.31-2.93
		c0-1.87,2.02-2.95,5.31-2.95C453.65,513.62,455.7,514.7,455.7,516.57z M454.25,516.57c0-1.15-1.39-1.8-3.85-1.8
		c-2.47,0-3.87,0.65-3.87,1.8s1.41,1.8,3.87,1.8C452.86,518.37,454.25,517.72,454.25,516.57z M457.94,509.3v1.22h-2.39v2.63h-1.48
		v-9.76h1.48v2.5h2.39v1.22h-2.39v2.18H457.94z"/>
	<path class="st1" d="M460.31,516.46l-0.81-1.15c4.2-2.11,6.34-5.1,6.68-8.98h-5.92v-1.22h7.38
		C467.64,509.69,465.53,513.87,460.31,516.46z M471.81,519.52h-1.48v-16.15h1.48v6.55h2.59v1.22h-2.59V519.52z"/>
	<path class="st1" d="M475.81,512.11v-1.21h5.96v-3.1h1.48v3.1h7.09v1.21H475.81z M488.64,516.55c0,1.82-2.2,2.95-5.64,2.95
		c-3.44,0-5.62-1.13-5.62-2.95c0-1.87,2.18-2.97,5.62-2.97C486.45,513.58,488.64,514.68,488.64,516.55z M477.52,504.2h11v1.37
		c0,1.3,0,2.61-0.45,4.27l-1.44-0.16c0.43-1.66,0.43-2.86,0.43-4.11v-0.18h-9.54V504.2z M487.17,516.55c0-1.15-1.62-1.84-4.16-1.84
		c-2.52,0-4.14,0.68-4.14,1.84c0,1.13,1.62,1.8,4.14,1.8C485.55,518.35,487.17,517.71,487.17,516.55z"/>
	<path class="st1" d="M496.96,508.94c-0.7,1.94-2.12,3.44-4.02,4.21l-0.77-1.17c2.41-0.86,4.03-3.19,4.03-5.64v-2h1.48v2.05
		c0,2.25,1.6,4.38,3.91,5.24l-0.77,1.13C499.01,512.07,497.66,510.68,496.96,508.94z M495.07,519.17v-5.04h1.48v3.83h9.29v1.21
		H495.07z M500.43,507.17h3.53v-3.78h1.5v12.06h-1.5v-7.06h-3.53V507.17z"/>
	<path class="st1" d="M516.49,508.96c-0.58,1.51-1.71,2.88-3.29,3.58l-0.79-1.15c2.09-0.9,3.37-3.04,3.37-4.83v-2.18h1.42v2.18
		c0,1.76,1.21,3.62,3.28,4.39l-0.79,1.13C518.16,511.46,517.06,510.32,516.49,508.96z M526.08,516.61c0,1.82-2.09,2.9-5.4,2.9
		c-3.31,0-5.38-1.08-5.38-2.9c0-1.82,2.07-2.9,5.38-2.9C524,513.71,526.08,514.79,526.08,516.61z M524.63,516.61
		c0-1.15-1.48-1.75-3.94-1.75s-3.93,0.59-3.93,1.75s1.46,1.76,3.93,1.76S524.63,517.76,524.63,516.61z M521.13,503.7h1.4v4.01h2.05
		v-4.32h1.42v9.96h-1.42v-4.43h-2.05v3.91h-1.4V503.7z"/>
	<path class="st1" d="M533.5,508.96c-0.67,1.94-2.09,3.38-4.03,4.1l-0.77-1.17c2.47-0.86,4.03-3.04,4.03-5.55v-2h1.48v2.03
		c0,2.21,1.6,4.25,3.98,5.11l-0.74,1.17C535.62,512,534.22,510.68,533.5,508.96z M542,519.17h-10.71v-5.01h1.48v3.8H542V519.17z
		 M541.29,509.55v5.74h-1.48v-11.94h1.48v4.97h2.39v1.22H541.29z"/>
</g>
<path class="st2" d="M895.92,282.24h-21.53c2.7,2.31,4.15,3.62,4.15,3.62l-4.82,6.2h22.2V282.24z"/>
<path class="st3" d="M561.24,308.43h-224.8c-1.66,0-3-1.34-3-3v-30.65c0-1.66,1.34-3,3-3h224.8c1.66,0,3,1.34,3,3v30.65
	C564.24,307.09,562.9,308.43,561.24,308.43z"/>
<rect x="803.98" y="177.36" class="st4" width="0.95" height="0.89"/>
<path class="st5" d="M326.38,172.16h-24.06c-1.66,0-3,1.34-3,3v106.21c0,14.94,12.11,27.06,27.06,27.06h0c1.66,0,3-1.34,3-3V175.16
	C329.38,173.5,328.04,172.16,326.38,172.16z"/>
<path class="st5" d="M326.38,149.58h-11.51c-8.59,0-15.55,6.96-15.55,15.55v0c0,1.66,1.34,3,3,3h24.06c1.66,0,3-1.34,3-3v-12.55
	C329.38,150.92,328.04,149.58,326.38,149.58z"/>
<path class="st5" d="M618.13,180.58v-27.92c0-1.83-1.34-3.32-3-3.32H336.35c-1.66,0-3,1.49-3,3.32v27.92c0,1.83,1.34,3.32,3,3.32
	h278.78C616.79,183.9,618.13,182.41,618.13,180.58z"/>
<rect x="315.3" y="141.19" class="st2" width="18.15" height="2.55"/>
<path class="st3" d="M615.19,237.24H336.45c-1.66,0-3-1.34-3-3V191.3c0-1.66,1.34-3,3-3h278.74c1.66,0,3,1.34,3,3v42.94
	C618.19,235.89,616.85,237.24,615.19,237.24z"/>
<g>
	<path class="st0" d="M459.52,213.82c0-6.76,5.51-12.27,12.27-12.27c6.76,0,12.27,5.51,12.27,12.27c0,6.79-5.56,12.27-12.27,12.27
		C465.03,226.1,459.52,220.59,459.52,213.82z M483.1,213.82c0-6.24-5.07-11.31-11.31-11.31c-6.29,0-11.31,5.15-11.31,11.31
		c0,6.24,5.07,11.31,11.31,11.31S483.1,220.06,483.1,213.82z M467.89,208.16c1.56-0.31,2.65-0.68,3.67-1.27h2.5v13.65h-3.33v-10.3
		h-2.83V208.16z"/>
</g>
<g>
	<path class="st0" d="M436.23,289.93c0-6.76,5.51-12.27,12.27-12.27c6.76,0,12.27,5.51,12.27,12.27c0,6.79-5.56,12.27-12.27,12.27
		C441.75,302.2,436.23,296.69,436.23,289.93z M459.82,289.93c0-6.24-5.07-11.31-11.31-11.31c-6.29,0-11.31,5.15-11.31,11.31
		c0,6.24,5.07,11.31,11.31,11.31S459.82,296.17,459.82,289.93z M444.61,284.26c1.56-0.31,2.65-0.68,3.67-1.27h2.5v13.65h-3.33v-10.3
		h-2.83V284.26z"/>
</g>
<path class="st3" d="M674.3,228.59h-49.05c-1.66,0-3-1.34-3-3V196.9c0-1.66,1.34-3,3-3h49.05c1.66,0,3,1.34,3,3v28.69
	C677.3,227.25,675.95,228.59,674.3,228.59z"/>
<path class="st3" d="M674.3,246.48h-49.05c-1.66,0-3-1.34-3-3v-7.83c0-1.66,1.34-3,3-3h49.05c1.66,0,3,1.34,3,3v7.83
	C677.3,245.14,675.95,246.48,674.3,246.48z"/>
<g>
	<g>
		<path class="st0" d="M637.34,211.58c0-6.76,5.51-12.27,12.27-12.27c6.76,0,12.27,5.51,12.27,12.27c0,6.79-5.56,12.27-12.27,12.27
			C642.86,223.86,637.34,218.34,637.34,211.58z M660.93,211.58c0-6.24-5.07-11.31-11.31-11.31c-6.29,0-11.31,5.15-11.31,11.31
			c0,6.24,5.07,11.31,11.31,11.31S660.93,217.82,660.93,211.58z M651.25,208.93c0-1.35-0.68-2.03-2.05-2.03
			c-1.14,0-2.05,0.68-2.81,1.38l-1.82-1.77c1.43-1.46,3.12-2.18,5.02-2.18c2.91,0,4.86,1.72,4.86,4.29c0,2.29-2.39,4.89-4.86,7.02
			c0.75-0.08,1.79-0.13,2.6-0.13h2.78v2.78h-10.11v-1.92C648.68,213.17,651.25,210.86,651.25,208.93z"/>
	</g>
</g>
<path class="st3" d="M748.22,228.59h-63.86c-1.66,0-3-1.34-3-3V196.9c0-1.66,1.34-3,3-3h63.86c1.66,0,3,1.34,3,3v28.69
	C751.22,227.25,749.87,228.59,748.22,228.59z"/>
<g>
	<g>
		<path class="st0" d="M702.88,211.38c0-6.76,5.51-12.27,12.27-12.27c6.76,0,12.27,5.51,12.27,12.27c0,6.79-5.56,12.27-12.27,12.27
			C708.39,223.66,702.88,218.14,702.88,211.38z M726.46,211.38c0-6.24-5.07-11.31-11.31-11.31c-6.29,0-11.31,5.15-11.31,11.31
			c0,6.24,5.07,11.31,11.31,11.31S726.46,217.62,726.46,211.38z M709.69,216.43l1.53-2.08c0.91,0.81,2.03,1.46,3.59,1.46
			c1.33,0,2.26-0.62,2.26-1.66c0-1.17-0.81-1.87-4.11-1.87v-2.31c2.73,0,3.64-0.68,3.64-1.79c0-1.01-0.62-1.51-1.9-1.51
			c-1.01,0-1.98,0.42-2.91,1.25l-1.64-2c1.33-1.12,2.86-1.77,4.63-1.77c3.15,0,5.12,1.33,5.12,3.82c0,1.35-0.83,2.34-2.52,2.99v0.08
			c1.77,0.49,3.04,1.59,3.04,3.38c0,2.55-2.52,4-5.56,4C712.66,218.4,710.76,217.65,709.69,216.43z"/>
	</g>
</g>
<path class="st5" d="M618.19,244.31c0-1.66-1.34-3-3-3H336.45c-1.66,0-3,1.34-3,3v20.41c0,1.66,1.34,3,3,3h228.86c1.66,0,3,1.34,3,3
	v34.52c0,1.66,1.34,3,3,3h43.88c1.66,0,3-1.34,3-3V244.31z"/>
<path class="st5" d="M838.97,250.58H625.3c-1.66,0-3,1.34-3,3v55.82c0,1.66-1.34,3-3,3H310.12c-2.77,0-4.77,2.16-4.97,4.6
	l-0.03-0.01v19.95c0,8.28,6.72,15,15,15h43.78c0.02,0,0.04,0,0.06,0l249.99-0.05c0,0,49.33,0.94,99.86,21.23l0,0l30.51,13.51
	c8.04,3.56,17.47,1.45,23.22-5.2l20.22-23.36c0.77-0.85,1.53-1.72,2.27-2.62l60.91-80.85C858.39,264.72,851.34,250.58,838.97,250.58
	z"/>
<path class="st5" d="M622.14,152.58c0-1.79,1.45-3.24,3.24-3.24h29.96c75.19,0,146.99,42.59,188.39,72.33
	c9.02,6.48,4.8,24.26-6.29,24.8l-73.51,0.08c0,0-0.01,0-0.01,0H684.6c-1.79,0-3.24-1.45-3.24-3.24v-7.31c0-1.79,1.45-3.24,3.24-3.24
	h67.36c1.79,0,3.24-1.46,3.24-3.25l-0.07-23.4l-0.04-6.83c-0.03-5.26,0.89-9.52-4.37-9.52h-5.2H625.38c-1.79,0-3.24-1.45-3.24-3.24
	V152.58z"/>
<g>
	<g>
		<path class="st0" d="M725.23,250.6c7.23,9.57,8.56,21.81,10.7,33.25c1.08,5.75,2.44,11.42,4.56,16.88
			c2.11,5.42,4.77,10.61,7.93,15.5c13.3,20.6,33.82,35.05,55.59,45.62c13.47,6.54,27.51,11.81,41.53,17.06
			c2.41,0.9,3.46-2.96,1.06-3.86c-24.09-9.02-48.71-18.23-69.37-33.96c-8.99-6.85-17.16-14.98-23.62-24.28
			c-6.54-9.42-10.95-19.8-13.24-31.03c-2.59-12.69-3.6-26.5-11.69-37.2c-0.65-0.86-1.73-1.31-2.74-0.72
			C725.1,248.36,724.57,249.74,725.23,250.6L725.23,250.6z"/>
	</g>
</g>
<g>
	<g>
		<path class="st0" d="M481.63,362.99c-0.02-7.42,0.29-18.17,7.87-22.12c2.32-1.21,5.02-1.42,7.59-1.56
			c3.11-0.17,6.22-0.3,9.34-0.43c6.48-0.28,12.96-0.51,19.44-0.69c25.76-0.74,51.54-0.75,77.3-0.01c6.16,0.18,12.8,0.31,18.43,3.15
			c4.56,2.3,8.65,6.56,8.89,11.89c0.12,2.56,4.12,2.58,4,0c-0.25-5.35-3.23-9.95-7.41-13.15c-4.69-3.58-10.51-4.93-16.28-5.49
			c-6.57-0.63-13.25-0.56-19.85-0.69c-6.82-0.13-13.63-0.21-20.45-0.24c-13.63-0.06-27.27,0.09-40.9,0.44
			c-6.81,0.18-13.63,0.4-20.44,0.68c-3.41,0.14-6.81,0.29-10.21,0.46c-3.01,0.15-6.12,0.22-9.01,1.17
			c-10.99,3.59-12.34,16.76-12.31,26.6C477.63,365.56,481.63,365.57,481.63,362.99L481.63,362.99z"/>
	</g>
</g>
<g>
	<g>
		<path class="st0" d="M510.6,149.22c1.61,5.23,6.6,8.41,10.86,11.37c4.68,3.26,9.58,6.2,14.65,8.8c5.09,2.61,10.37,4.89,15.76,6.82
			c5.28,1.89,10.69,3.28,16.1,4.71c5.89,1.57,11.73,3.4,16.73,7c0.88,0.63,2.23,0.15,2.74-0.72c0.59-1.01,0.16-2.1-0.72-2.74
			c-8.79-6.33-19.99-7.59-30.05-10.85c-10.41-3.36-20.36-8.11-29.55-14.05c-2.56-1.66-5.09-3.39-7.51-5.25
			c-2.13-1.63-4.34-3.53-5.15-6.18C513.7,145.7,509.83,146.75,510.6,149.22L510.6,149.22z"/>
	</g>
</g>
<g>
	<g>
		<path class="st0" d="M330.29,185.49c-0.62,4.67-2.59,9.22-5.49,12.94c-3.23,4.15-7.52,6.61-11.98,9.22
			c-4.62,2.71-8.52,6.05-11.58,10.48c-2.9,4.21-4.89,9.05-6.13,13.99c-1.63,6.49-2.06,13.21-2.16,19.88c-0.04,2.57,3.96,2.58,4,0
			c0.17-10.88,1.28-22.26,7.52-31.53c1.37-2.03,2.98-3.89,4.81-5.52c2.03-1.81,4.37-3.18,6.71-4.52c4.58-2.63,8.76-5.46,12.02-9.68
			c3.44-4.46,5.53-9.69,6.26-15.26c0.14-1.07-1.02-2-2-2C331.09,183.49,330.43,184.42,330.29,185.49L330.29,185.49z"/>
	</g>
</g>
<g>
	<g>
		<path class="st0" d="M289.55,243.29c1.66,3.36,3.39,6.7,5.81,9.59c2.45,2.92,5.63,4.82,9.06,6.37c3.44,1.56,6.83,3.06,9.86,5.37
			c2.83,2.16,5.31,4.79,7.57,7.53c2.65,3.2,4.99,6.65,7.32,10.08c1.44,2.12,4.9,0.12,3.45-2.02c-4.12-6.06-8.34-12.26-13.91-17.1
			c-2.85-2.47-5.97-4.47-9.4-6.03c-3.34-1.52-6.92-2.84-9.62-5.42c-3.01-2.87-4.86-6.7-6.69-10.38
			C291.86,238.97,288.41,240.99,289.55,243.29L289.55,243.29z"/>
	</g>
</g>
<g>
	<g>
		<path class="st0" d="M754.15,214.5c6.77-0.82,15.15,1.78,18.61,8.11c0.9,1.66,1.18,3.59,1.41,5.44c0.28,2.26,0.42,4.54,0.51,6.82
			c0.17,4.39,0.18,8.78,0.7,13.14c0.13,1.07,0.83,2,2,2c0.98,0,2.13-0.92,2-2c-0.59-4.85-0.53-9.73-0.77-14.6
			c-0.22-4.46-0.34-9.64-2.81-13.52c-4.44-6.96-13.67-10.36-21.65-9.39c-1.07,0.13-2,0.83-2,2
			C752.15,213.48,753.07,214.63,754.15,214.5L754.15,214.5z"/>
	</g>
</g>
<g>
	<g>
		<path class="st0" d="M739.69,298.01c-0.17,6.55-1.48,13-3.85,19.11c-2.29,5.9-5.75,11.18-9.51,16.24
			c-3.61,4.87-7.46,9.6-10.54,14.84c-3.27,5.56-5.36,11.62-6.33,17.99c-1.14,7.51-1.02,15.09-0.74,22.66c0.09,2.57,4.09,2.58,4,0
			c-0.47-13.14-0.46-26.56,6.32-38.27c3.04-5.26,6.87-10,10.5-14.86c3.76-5.05,7.14-10.27,9.58-16.1c2.86-6.84,4.38-14.2,4.57-21.61
			C743.75,295.44,739.75,295.44,739.69,298.01L739.69,298.01z"/>
	</g>
</g>
<g>
	<g>
		<path class="st0" d="M426.63,242.47c13.2,9.13,25.52,19.45,38.72,28.58c2.12,1.47,4.12-2,2.02-3.45
			c-13.2-9.13-25.52-19.45-38.72-28.58C426.53,237.55,424.52,241.01,426.63,242.47L426.63,242.47z"/>
	</g>
</g>
<g>
	<g>
		<path class="st0" d="M598.79,239.86c1.33,9.66,0.56,19.35-3.18,28.43c-3.37,8.19-9.14,15.41-16.45,20.42
			c-4.09,2.8-8.57,4.91-13.35,6.2c-2.48,0.67-1.43,4.53,1.06,3.86c19.37-5.26,33.24-22.51,36-42.14c0.84-6,0.59-11.86-0.23-17.84
			c-0.15-1.07-1.52-1.66-2.46-1.4C599.03,237.72,598.64,238.79,598.79,239.86L598.79,239.86z"/>
	</g>
</g>
<g>
	<g>
		<path class="st0" d="M417.54,309.94c-4.62,7.91-12.59,12.9-19.67,18.37c-3.69,2.85-7.3,5.87-10.25,9.52
			c-3.19,3.96-5.62,8.44-7.2,13.28c-1.77,5.42-2.39,11.24-1.78,16.91c0.12,1.07,0.84,2,2,2c0.99,0,2.12-0.92,2-2
			c-1.04-9.68,1.67-19.74,7.81-27.36c5.7-7.09,13.72-11.73,20.63-17.48c3.85-3.21,7.37-6.85,9.91-11.21
			C422.3,309.74,418.84,307.72,417.54,309.94L417.54,309.94z"/>
	</g>
</g>
<path class="st6" d="M697.82,248.01v11.08c0,8.66-7.02,15.68-15.68,15.68h-60"/>
</svg>
