<?xml version="1.0" encoding="utf-8"?>
<!-- Generator: Adobe Illustrator 26.1.0, SVG Export Plug-In . SVG Version: 6.00 Build 0)  -->
<svg version="1.1" id="Layer_1" xmlns="http://www.w3.org/2000/svg" xmlns:xlink="http://www.w3.org/1999/xlink" x="0px" y="0px"
	 viewBox="0 0 1154 737.08" style="enable-background:new 0 0 1154 737.08;" xml:space="preserve">
<style type="text/css">
	.st0{fill:#ECEEEF;}
	.st1{fill:#EBEDEF;}
	.st2{fill:#7D7D7D;}
	.st3{fill:#F6F2F1;}
	.st4{fill:#AFAFAF;}
	.st5{fill:none;stroke:#ECEEEF;stroke-width:4;stroke-miterlimit:10;}
	.st6{fill:#303030;}
</style>
<rect x="0" y="0.98" class="st0" width="1154" height="736.1"/>
<path class="st1" d="M895.92,283.22h-21.53c2.7,2.31,4.15,3.62,4.15,3.62l-4.82,6.2h22.2V283.22z"/>
<path class="st2" d="M561.24,309.41h-224.8c-1.66,0-3-1.34-3-3v-30.65c0-1.66,1.34-3,3-3h224.8c1.66,0,3,1.34,3,3v30.65
	C564.24,308.07,562.9,309.41,561.24,309.41z"/>
<rect x="803.98" y="178.34" class="st3" width="0.95" height="0.89"/>
<path class="st4" d="M326.38,173.14h-24.06c-1.66,0-3,1.34-3,3v106.21c0,14.94,12.11,27.06,27.06,27.06h0c1.66,0,3-1.34,3-3V176.14
	C329.38,174.48,328.04,173.14,326.38,173.14z"/>
<path class="st4" d="M326.38,150.56h-11.51c-8.59,0-15.55,6.96-15.55,15.55v0c0,1.66,1.34,3,3,3h24.06c1.66,0,3-1.34,3-3v-12.55
	C329.38,151.9,328.04,150.56,326.38,150.56z"/>
<path class="st4" d="M618.13,181.56v-27.92c0-1.83-1.34-3.32-3-3.32H336.35c-1.66,0-3,1.49-3,3.32v27.92c0,1.83,1.34,3.32,3,3.32
	h278.78C616.79,184.87,618.13,183.39,618.13,181.56z"/>
<rect x="315.3" y="142.17" class="st1" width="18.15" height="2.55"/>
<path class="st2" d="M615.19,238.21H336.45c-1.66,0-3-1.34-3-3v-42.94c0-1.66,1.34-3,3-3h278.74c1.66,0,3,1.34,3,3v42.94
	C618.19,236.87,616.85,238.21,615.19,238.21z"/>
<g>
	<path class="st0" d="M459.52,214.8c0-6.76,5.51-12.27,12.27-12.27c6.76,0,12.27,5.51,12.27,12.27c0,6.79-5.56,12.27-12.27,12.27
		C465.03,227.07,459.52,221.56,459.52,214.8z M483.1,214.8c0-6.24-5.07-11.31-11.31-11.31c-6.29,0-11.31,5.15-11.31,11.31
		c0,6.24,5.07,11.31,11.31,11.31S483.1,221.04,483.1,214.8z M467.89,209.13c1.56-0.31,2.65-0.68,3.67-1.27h2.5v13.65h-3.33v-10.3
		h-2.83V209.13z"/>
</g>
<g>
	<path class="st0" d="M436.23,290.9c0-6.76,5.51-12.27,12.27-12.27c6.76,0,12.27,5.51,12.27,12.27c0,6.79-5.56,12.27-12.27,12.27
		C441.75,303.18,436.23,297.66,436.23,290.9z M459.82,290.9c0-6.24-5.07-11.31-11.31-11.31c-6.29,0-11.31,5.15-11.31,11.31
		c0,6.24,5.07,11.31,11.31,11.31S459.82,297.14,459.82,290.9z M444.61,285.24c1.56-0.31,2.65-0.68,3.67-1.27h2.5v13.65h-3.33v-10.3
		h-2.83V285.24z"/>
</g>
<path class="st2" d="M674.3,229.57h-49.05c-1.66,0-3-1.34-3-3v-28.69c0-1.66,1.34-3,3-3h49.05c1.66,0,3,1.34,3,3v28.69
	C677.3,228.23,675.95,229.57,674.3,229.57z"/>
<path class="st2" d="M674.3,247.45h-49.05c-1.66,0-3-1.34-3-3v-7.83c0-1.66,1.34-3,3-3h49.05c1.66,0,3,1.34,3,3v7.83
	C677.3,246.11,675.95,247.45,674.3,247.45z"/>
<g>
	<g>
		<path class="st0" d="M637.34,212.56c0-6.76,5.51-12.27,12.27-12.27c6.76,0,12.27,5.51,12.27,12.27c0,6.79-5.56,12.27-12.27,12.27
			C642.86,224.83,637.34,219.32,637.34,212.56z M660.93,212.56c0-6.24-5.07-11.31-11.31-11.31c-6.29,0-11.31,5.15-11.31,11.31
			c0,6.24,5.07,11.31,11.31,11.31S660.93,218.8,660.93,212.56z M651.25,209.91c0-1.35-0.68-2.03-2.05-2.03
			c-1.14,0-2.05,0.68-2.81,1.38l-1.82-1.77c1.43-1.46,3.12-2.18,5.02-2.18c2.91,0,4.86,1.72,4.86,4.29c0,2.29-2.39,4.89-4.86,7.02
			c0.75-0.08,1.79-0.13,2.6-0.13h2.78v2.78h-10.11v-1.92C648.68,214.15,651.25,211.83,651.25,209.91z"/>
	</g>
</g>
<path class="st2" d="M748.22,229.57h-63.86c-1.66,0-3-1.34-3-3v-28.69c0-1.66,1.34-3,3-3h63.86c1.66,0,3,1.34,3,3v28.69
	C751.22,228.23,749.87,229.57,748.22,229.57z"/>
<g>
	<g>
		<path class="st0" d="M702.88,212.36c0-6.76,5.51-12.27,12.27-12.27c6.76,0,12.27,5.51,12.27,12.27c0,6.79-5.56,12.27-12.27,12.27
			C708.39,224.63,702.88,219.12,702.88,212.36z M726.46,212.36c0-6.24-5.07-11.31-11.31-11.31c-6.29,0-11.31,5.15-11.31,11.31
			c0,6.24,5.07,11.31,11.31,11.31S726.46,218.6,726.46,212.36z M709.69,217.4l1.53-2.08c0.91,0.81,2.03,1.46,3.59,1.46
			c1.33,0,2.26-0.62,2.26-1.66c0-1.17-0.81-1.87-4.11-1.87v-2.31c2.73,0,3.64-0.68,3.64-1.79c0-1.01-0.62-1.51-1.9-1.51
			c-1.01,0-1.98,0.42-2.91,1.25l-1.64-2c1.33-1.12,2.86-1.77,4.63-1.77c3.15,0,5.12,1.33,5.12,3.82c0,1.35-0.83,2.34-2.52,2.99V212
			c1.77,0.49,3.04,1.59,3.04,3.38c0,2.55-2.52,4-5.56,4C712.66,219.38,710.76,218.63,709.69,217.4z"/>
	</g>
</g>
<path class="st4" d="M618.19,245.29c0-1.66-1.34-3-3-3H336.45c-1.66,0-3,1.34-3,3v20.41c0,1.66,1.34,3,3,3h228.86c1.66,0,3,1.34,3,3
	v34.52c0,1.66,1.34,3,3,3h43.88c1.66,0,3-1.34,3-3V245.29z"/>
<path class="st4" d="M838.97,251.55H625.3c-1.66,0-3,1.34-3,3v55.82c0,1.66-1.34,3-3,3H310.12c-2.77,0-4.77,2.16-4.97,4.6
	l-0.03-0.01v19.95c0,8.28,6.72,15,15,15h43.78c0.02,0,0.04,0,0.06,0l249.99-0.05c0,0,49.33,0.94,99.86,21.23l0,0l30.51,13.51
	c8.04,3.56,17.47,1.45,23.22-5.2l20.22-23.36c0.77-0.85,1.53-1.72,2.27-2.62l60.91-80.85C858.39,265.69,851.34,251.55,838.97,251.55
	z"/>
<path class="st4" d="M622.14,153.56c0-1.79,1.45-3.24,3.24-3.24h29.96c75.19,0,146.99,42.59,188.39,72.33
	c9.02,6.48,4.8,24.26-6.29,24.8l-73.51,0.08c0,0-0.01,0-0.01,0H684.6c-1.79,0-3.24-1.45-3.24-3.24v-7.31c0-1.79,1.45-3.24,3.24-3.24
	h67.36c1.79,0,3.24-1.46,3.24-3.25l-0.07-23.4l-0.04-6.83c-0.03-5.26,0.89-9.52-4.37-9.52h-5.2H625.38c-1.79,0-3.24-1.45-3.24-3.24
	V153.56z"/>
<g>
	<g>
		<path class="st0" d="M725.23,251.58c7.23,9.57,8.56,21.81,10.7,33.25c1.08,5.75,2.44,11.42,4.56,16.88
			c2.11,5.42,4.77,10.61,7.93,15.5c13.3,20.6,33.82,35.05,55.59,45.62c13.47,6.54,27.51,11.81,41.53,17.06
			c2.41,0.9,3.46-2.96,1.06-3.86c-24.09-9.02-48.71-18.23-69.37-33.96c-8.99-6.85-17.16-14.98-23.62-24.28
			c-6.54-9.42-10.95-19.8-13.24-31.03c-2.59-12.69-3.6-26.5-11.69-37.2c-0.65-0.86-1.73-1.31-2.74-0.72
			C725.1,249.34,724.57,250.71,725.23,251.58L725.23,251.58z"/>
	</g>
</g>
<g>
	<g>
		<path class="st0" d="M481.63,363.96c-0.02-7.42,0.29-18.17,7.87-22.12c2.32-1.21,5.02-1.42,7.59-1.56
			c3.11-0.17,6.22-0.3,9.34-0.43c6.48-0.28,12.96-0.51,19.44-0.69c25.76-0.74,51.54-0.75,77.3-0.01c6.16,0.18,12.8,0.31,18.43,3.15
			c4.56,2.3,8.65,6.56,8.89,11.89c0.12,2.56,4.12,2.58,4,0c-0.25-5.35-3.23-9.95-7.41-13.15c-4.69-3.58-10.51-4.93-16.28-5.49
			c-6.57-0.63-13.25-0.56-19.85-0.69c-6.82-0.13-13.63-0.21-20.45-0.24c-13.63-0.06-27.27,0.09-40.9,0.44
			c-6.81,0.18-13.63,0.4-20.44,0.68c-3.41,0.14-6.81,0.29-10.21,0.46c-3.01,0.15-6.12,0.22-9.01,1.17
			c-10.99,3.59-12.34,16.76-12.31,26.6C477.63,366.54,481.63,366.54,481.63,363.96L481.63,363.96z"/>
	</g>
</g>
<g>
	<g>
		<path class="st0" d="M510.6,150.2c1.61,5.23,6.6,8.41,10.86,11.37c4.68,3.26,9.58,6.2,14.65,8.8c5.09,2.61,10.37,4.89,15.76,6.82
			c5.28,1.89,10.69,3.28,16.1,4.71c5.89,1.57,11.73,3.4,16.73,7c0.88,0.63,2.23,0.15,2.74-0.72c0.59-1.01,0.16-2.1-0.72-2.74
			c-8.79-6.33-19.99-7.59-30.05-10.85c-10.41-3.36-20.36-8.11-29.55-14.05c-2.56-1.66-5.09-3.39-7.51-5.25
			c-2.13-1.63-4.34-3.53-5.15-6.18C513.7,146.68,509.83,147.73,510.6,150.2L510.6,150.2z"/>
	</g>
</g>
<g>
	<g>
		<path class="st0" d="M330.29,186.47c-0.62,4.67-2.59,9.22-5.49,12.94c-3.23,4.15-7.52,6.61-11.98,9.22
			c-4.62,2.71-8.52,6.05-11.58,10.48c-2.9,4.21-4.89,9.05-6.13,13.99c-1.63,6.49-2.06,13.21-2.16,19.88c-0.04,2.57,3.96,2.58,4,0
			c0.17-10.88,1.28-22.26,7.52-31.53c1.37-2.03,2.98-3.89,4.81-5.52c2.03-1.81,4.37-3.18,6.71-4.52c4.58-2.63,8.76-5.46,12.02-9.68
			c3.44-4.46,5.53-9.69,6.26-15.26c0.14-1.07-1.02-2-2-2C331.09,184.47,330.43,185.39,330.29,186.47L330.29,186.47z"/>
	</g>
</g>
<g>
	<g>
		<path class="st0" d="M289.55,244.27c1.66,3.36,3.39,6.7,5.81,9.59c2.45,2.92,5.63,4.82,9.06,6.37c3.44,1.56,6.83,3.06,9.86,5.37
			c2.83,2.16,5.31,4.79,7.57,7.53c2.65,3.2,4.99,6.65,7.32,10.08c1.44,2.12,4.9,0.12,3.45-2.02c-4.12-6.06-8.34-12.26-13.91-17.1
			c-2.85-2.47-5.97-4.47-9.4-6.03c-3.34-1.52-6.92-2.84-9.62-5.42c-3.01-2.87-4.86-6.7-6.69-10.38
			C291.86,239.95,288.41,241.97,289.55,244.27L289.55,244.27z"/>
	</g>
</g>
<g>
	<g>
		<path class="st0" d="M754.15,215.47c6.77-0.82,15.15,1.78,18.61,8.11c0.9,1.66,1.18,3.59,1.41,5.44c0.28,2.26,0.42,4.54,0.51,6.82
			c0.17,4.39,0.18,8.78,0.7,13.14c0.13,1.07,0.83,2,2,2c0.98,0,2.13-0.92,2-2c-0.59-4.85-0.53-9.73-0.77-14.6
			c-0.22-4.46-0.34-9.64-2.81-13.52c-4.44-6.96-13.67-10.36-21.65-9.39c-1.07,0.13-2,0.83-2,2
			C752.15,214.45,753.07,215.6,754.15,215.47L754.15,215.47z"/>
	</g>
</g>
<g>
	<g>
		<path class="st0" d="M739.69,298.99c-0.17,6.55-1.48,13-3.85,19.11c-2.29,5.9-5.75,11.18-9.51,16.24
			c-3.61,4.87-7.46,9.6-10.54,14.84c-3.27,5.56-5.36,11.62-6.33,17.99c-1.14,7.51-1.02,15.09-0.74,22.66c0.09,2.57,4.09,2.58,4,0
			c-0.47-13.14-0.46-26.56,6.32-38.27c3.04-5.26,6.87-10,10.5-14.86c3.76-5.05,7.14-10.27,9.58-16.1c2.86-6.84,4.38-14.2,4.57-21.61
			C743.75,296.41,739.75,296.41,739.69,298.99L739.69,298.99z"/>
	</g>
</g>
<g>
	<g>
		<path class="st0" d="M426.63,243.45c13.2,9.13,25.52,19.45,38.72,28.58c2.12,1.47,4.12-2,2.02-3.45
			c-13.2-9.13-25.52-19.45-38.72-28.58C426.53,238.53,424.52,241.99,426.63,243.45L426.63,243.45z"/>
	</g>
</g>
<g>
	<g>
		<path class="st0" d="M598.79,240.84c1.33,9.66,0.56,19.35-3.18,28.43c-3.37,8.19-9.14,15.41-16.45,20.42
			c-4.09,2.8-8.57,4.91-13.35,6.2c-2.48,0.67-1.43,4.53,1.06,3.86c19.37-5.26,33.24-22.51,36-42.14c0.84-6,0.59-11.86-0.23-17.84
			c-0.15-1.07-1.52-1.66-2.46-1.4C599.03,238.69,598.64,239.76,598.79,240.84L598.79,240.84z"/>
	</g>
</g>
<g>
	<g>
		<path class="st0" d="M417.54,310.92c-4.62,7.91-12.59,12.9-19.67,18.37c-3.69,2.85-7.3,5.87-10.25,9.52
			c-3.19,3.96-5.62,8.44-7.2,13.28c-1.77,5.42-2.39,11.24-1.78,16.91c0.12,1.07,0.84,2,2,2c0.99,0,2.12-0.92,2-2
			c-1.04-9.68,1.67-19.74,7.81-27.36c5.7-7.09,13.72-11.73,20.63-17.48c3.85-3.21,7.37-6.85,9.91-11.21
			C422.3,310.71,418.84,308.7,417.54,310.92L417.54,310.92z"/>
	</g>
</g>
<path class="st5" d="M697.82,248.99v11.08c0,8.66-7.02,15.68-15.68,15.68h-60"/>
<g>
	<path class="st6" d="M210.06,448.33c0-4.63,3.76-8.39,8.39-8.39c4.63,0,8.39,3.76,8.39,8.39c0,4.66-3.8,8.39-8.39,8.39
		C213.82,456.72,210.06,452.95,210.06,448.33z M226.26,448.33c0-4.32-3.49-7.81-7.81-7.81c-4.36,0-7.81,3.55-7.81,7.81
		c0,4.32,3.49,7.81,7.81,7.81S226.26,452.65,226.26,448.33z M216.18,444.29c0.95-0.16,1.62-0.4,2.25-0.74h1.13v9.33h-1.48v-7.63
		h-1.91V444.29z"/>
	<path class="st6" d="M243.04,446.89c0,2.68-1.95,4.3-5.15,4.3h-3.39v3.98h-1.33v-12.6h4.72
		C241.09,442.57,243.04,444.19,243.04,446.89z M241.7,446.89c0-2.02-1.33-3.17-3.85-3.17h-3.35v6.3h3.35
		C240.37,450.02,241.7,448.87,241.7,446.89z"/>
	<path class="st6" d="M244.69,450.43c0-2.81,2.05-4.81,4.83-4.81c2.77,0,4.81,2,4.81,4.81s-2.03,4.83-4.81,4.83
		C246.74,455.26,244.69,453.24,244.69,450.43z M253.02,450.43c0-2.21-1.5-3.69-3.51-3.69s-3.53,1.48-3.53,3.69s1.51,3.69,3.53,3.69
		S253.02,452.65,253.02,450.43z"/>
	<path class="st6" d="M270.65,445.7l-3.58,9.47h-1.21l-2.99-7.76l-2.99,7.76h-1.21l-3.57-9.47h1.22l2.97,8.05l3.04-8.05h1.1
		l3.03,8.05l3.01-8.05H270.65z"/>
	<path class="st6" d="M280.64,450.83h-7.92c0.14,1.98,1.66,3.29,3.73,3.29c1.15,0,2.18-0.41,2.9-1.24l0.72,0.83
		c-0.85,1.01-2.16,1.55-3.66,1.55c-2.95,0-4.97-2.02-4.97-4.83s1.96-4.81,4.63-4.81c2.66,0,4.59,1.96,4.59,4.81
		C280.65,450.54,280.64,450.69,280.64,450.83z M272.71,449.88h6.72c-0.16-1.85-1.51-3.15-3.37-3.15
		C274.23,446.72,272.88,448.02,272.71,449.88z"/>
	<path class="st6" d="M287.85,445.63v1.24c-0.11,0-0.22-0.02-0.31-0.02c-1.98,0-3.19,1.26-3.19,3.49v4.83h-1.28v-9.47h1.22v1.85
		C284.9,446.29,286.11,445.63,287.85,445.63z"/>
	<path class="st6" d="M293.7,450.43c0-2.83,2.05-4.81,4.88-4.81c1.6,0,2.95,0.63,3.71,1.87l-0.95,0.65c-0.65-0.95-1.66-1.4-2.75-1.4
		c-2.07,0-3.58,1.48-3.58,3.69c0,2.23,1.51,3.69,3.58,3.69c1.1,0,2.11-0.43,2.75-1.39l0.95,0.65c-0.76,1.22-2.11,1.87-3.71,1.87
		C295.75,455.26,293.7,453.26,293.7,450.43z"/>
	<path class="st6" d="M311.76,449.3v5.87h-1.22v-1.48c-0.58,0.97-1.69,1.57-3.26,1.57c-2.14,0-3.46-1.12-3.46-2.75
		c0-1.46,0.94-2.68,3.66-2.68h3.01v-0.58c0-1.62-0.92-2.5-2.68-2.5c-1.22,0-2.38,0.43-3.15,1.12l-0.58-0.95
		c0.95-0.81,2.36-1.28,3.85-1.28C310.37,445.63,311.76,446.85,311.76,449.3z M310.48,452.32v-1.55h-2.97
		c-1.84,0-2.43,0.72-2.43,1.69c0,1.1,0.88,1.78,2.39,1.78C308.91,454.25,309.98,453.57,310.48,452.32z"/>
	<path class="st6" d="M324.65,450.43c0,2.86-2.02,4.83-4.72,4.83c-1.57,0-2.88-0.68-3.66-1.96v1.87h-1.22v-13.36h1.28v5.69
		c0.79-1.22,2.09-1.87,3.6-1.87C322.63,445.63,324.65,447.57,324.65,450.43z M323.37,450.43c0-2.21-1.53-3.69-3.53-3.69
		c-2.02,0-3.53,1.48-3.53,3.69s1.51,3.69,3.53,3.69C321.84,454.12,323.37,452.65,323.37,450.43z"/>
	<path class="st6" d="M327.07,441.81h1.28v13.36h-1.28V441.81z"/>
	<path class="st6" d="M339.98,450.83h-7.92c0.14,1.98,1.66,3.29,3.73,3.29c1.15,0,2.18-0.41,2.9-1.24l0.72,0.83
		c-0.85,1.01-2.16,1.55-3.66,1.55c-2.95,0-4.97-2.02-4.97-4.83s1.96-4.81,4.63-4.81c2.66,0,4.59,1.96,4.59,4.81
		C340,450.54,339.98,450.69,339.98,450.83z M332.06,449.88h6.72c-0.16-1.85-1.51-3.15-3.37-3.15
		C333.57,446.72,332.22,448.02,332.06,449.88z"/>
	<path class="st6" d="M356.56,450.43c0,2.88-2.02,4.83-4.72,4.83c-1.51,0-2.81-0.65-3.6-1.87v5.28h-1.28V445.7h1.22v1.87
		c0.77-1.26,2.09-1.94,3.66-1.94C354.54,445.63,356.56,447.57,356.56,450.43z M355.28,450.43c0-2.2-1.53-3.69-3.53-3.69
		c-2.02,0-3.53,1.5-3.53,3.69c0,2.21,1.51,3.69,3.53,3.69C353.75,454.12,355.28,452.65,355.28,450.43z"/>
	<path class="st6" d="M363.76,445.63v1.24c-0.11,0-0.22-0.02-0.31-0.02c-1.98,0-3.19,1.26-3.19,3.49v4.83h-1.28v-9.47h1.22v1.85
		C360.8,446.29,362.01,445.63,363.76,445.63z"/>
	<path class="st6" d="M365.07,450.43c0-2.81,2.05-4.81,4.83-4.81c2.77,0,4.81,2,4.81,4.81s-2.03,4.83-4.81,4.83
		C367.12,455.26,365.07,453.24,365.07,450.43z M373.41,450.43c0-2.21-1.5-3.69-3.51-3.69s-3.53,1.48-3.53,3.69s1.51,3.69,3.53,3.69
		S373.41,452.65,373.41,450.43z"/>
	<path class="st6" d="M385.77,441.81v13.36h-1.22v-1.87c-0.77,1.28-2.09,1.96-3.66,1.96c-2.7,0-4.72-1.96-4.72-4.83
		s2.02-4.81,4.72-4.81c1.51,0,2.81,0.65,3.6,1.87v-5.69H385.77z M384.51,450.43c0-2.21-1.51-3.69-3.51-3.69
		c-2.02,0-3.53,1.48-3.53,3.69s1.51,3.69,3.53,3.69C383,454.12,384.51,452.65,384.51,450.43z"/>
	<path class="st6" d="M397.69,445.7v9.47h-1.22v-1.73c-0.67,1.15-1.89,1.82-3.4,1.82c-2.41,0-4-1.35-4-4.07v-5.49h1.28v5.37
		c0,2.02,1.04,3.04,2.84,3.04c1.98,0,3.22-1.28,3.22-3.44v-4.97H397.69z"/>
	<path class="st6" d="M400.13,450.43c0-2.83,2.05-4.81,4.88-4.81c1.6,0,2.95,0.63,3.71,1.87l-0.95,0.65
		c-0.65-0.95-1.66-1.4-2.75-1.4c-2.07,0-3.58,1.48-3.58,3.69c0,2.23,1.51,3.69,3.58,3.69c1.1,0,2.11-0.43,2.75-1.39l0.95,0.65
		c-0.76,1.22-2.11,1.87-3.71,1.87C402.19,455.26,400.13,453.26,400.13,450.43z"/>
	<path class="st6" d="M416.03,454.59c-0.5,0.45-1.26,0.67-2,0.67c-1.78,0-2.77-1.01-2.77-2.75v-5.73h-1.69v-1.08h1.69v-2.07h1.28
		v2.07h2.88v1.08h-2.88v5.65c0,1.12,0.58,1.73,1.64,1.73c0.52,0,1.04-0.16,1.41-0.49L416.03,454.59z"/>
	<path class="st6" d="M417.88,442.71c0-0.49,0.41-0.9,0.94-0.9s0.94,0.4,0.94,0.88c0,0.52-0.4,0.94-0.94,0.94
		C418.3,443.63,417.88,443.21,417.88,442.71z M418.17,445.7h1.28v9.47h-1.28V445.7z"/>
	<path class="st6" d="M421.88,450.43c0-2.81,2.05-4.81,4.83-4.81c2.77,0,4.81,2,4.81,4.81s-2.03,4.83-4.81,4.83
		C423.93,455.26,421.88,453.24,421.88,450.43z M430.21,450.43c0-2.21-1.5-3.69-3.51-3.69s-3.53,1.48-3.53,3.69s1.51,3.69,3.53,3.69
		S430.21,452.65,430.21,450.43z"/>
	<path class="st6" d="M442.65,449.68v5.49h-1.28v-5.37c0-2-1.04-3.03-2.84-3.03c-2.04,0-3.31,1.26-3.31,3.42v4.97h-1.28v-9.47h1.22
		v1.75c0.68-1.15,1.96-1.82,3.6-1.82C441.07,445.63,442.65,446.96,442.65,449.68z"/>
	<path class="st6" d="M451.94,444.58v1.12h2.92v1.08h-2.88v8.39h-1.28v-8.39H449v-1.08h1.69v-1.17c0-1.69,1.01-2.81,2.86-2.81
		c0.7,0,1.42,0.2,1.89,0.59l-0.43,0.95c-0.36-0.31-0.86-0.47-1.41-0.47C452.51,442.8,451.94,443.41,451.94,444.58z"/>
	<path class="st6" d="M463.55,449.3v5.87h-1.22v-1.48c-0.58,0.97-1.69,1.57-3.26,1.57c-2.14,0-3.46-1.12-3.46-2.75
		c0-1.46,0.94-2.68,3.66-2.68h3.01v-0.58c0-1.62-0.92-2.5-2.68-2.5c-1.22,0-2.38,0.43-3.15,1.12l-0.58-0.95
		c0.95-0.81,2.36-1.28,3.85-1.28C462.16,445.63,463.55,446.85,463.55,449.3z M462.27,452.32v-1.55h-2.97
		c-1.84,0-2.43,0.72-2.43,1.69c0,1.1,0.88,1.78,2.39,1.78C460.7,454.25,461.77,453.57,462.27,452.32z"/>
	<path class="st6" d="M465.89,450.43c0-2.83,2.05-4.81,4.88-4.81c1.6,0,2.95,0.63,3.71,1.87l-0.95,0.65
		c-0.65-0.95-1.66-1.4-2.75-1.4c-2.07,0-3.58,1.48-3.58,3.69c0,2.23,1.51,3.69,3.58,3.69c1.1,0,2.11-0.43,2.75-1.39l0.95,0.65
		c-0.76,1.22-2.11,1.87-3.71,1.87C467.94,455.26,465.89,453.26,465.89,450.43z"/>
	<path class="st6" d="M481.78,454.59c-0.5,0.45-1.26,0.67-2,0.67c-1.78,0-2.77-1.01-2.77-2.75v-5.73h-1.69v-1.08h1.69v-2.07h1.28
		v2.07h2.88v1.08h-2.88v5.65c0,1.12,0.58,1.73,1.64,1.73c0.52,0,1.04-0.16,1.41-0.49L481.78,454.59z"/>
	<path class="st6" d="M482.97,450.43c0-2.81,2.05-4.81,4.83-4.81c2.77,0,4.81,2,4.81,4.81s-2.03,4.83-4.81,4.83
		C485.02,455.26,482.97,453.24,482.97,450.43z M491.31,450.43c0-2.21-1.5-3.69-3.51-3.69s-3.53,1.48-3.53,3.69s1.51,3.69,3.53,3.69
		S491.31,452.65,491.31,450.43z"/>
	<path class="st6" d="M499.8,445.63v1.24c-0.11,0-0.22-0.02-0.31-0.02c-1.98,0-3.19,1.26-3.19,3.49v4.83h-1.28v-9.47h1.22v1.85
		C496.85,446.29,498.05,445.63,499.8,445.63z"/>
	<path class="st6" d="M501.78,442.71c0-0.49,0.41-0.9,0.94-0.9s0.94,0.4,0.94,0.88c0,0.52-0.4,0.94-0.94,0.94
		C502.19,443.63,501.78,443.21,501.78,442.71z M502.07,445.7h1.28v9.47h-1.28V445.7z"/>
	<path class="st6" d="M514.98,450.83h-7.92c0.14,1.98,1.66,3.29,3.73,3.29c1.15,0,2.18-0.41,2.9-1.24l0.72,0.83
		c-0.85,1.01-2.16,1.55-3.66,1.55c-2.95,0-4.97-2.02-4.97-4.83s1.96-4.81,4.63-4.81c2.66,0,4.59,1.96,4.59,4.81
		C514.99,450.54,514.98,450.69,514.98,450.83z M507.05,449.88h6.72c-0.16-1.85-1.51-3.15-3.37-3.15
		C508.56,446.72,507.21,448.02,507.05,449.88z"/>
	<path class="st6" d="M516.1,454.09l0.58-1.01c0.76,0.59,2.04,1.06,3.37,1.06c1.8,0,2.54-0.61,2.54-1.55c0-2.47-6.14-0.52-6.14-4.27
		c0-1.55,1.33-2.7,3.75-2.7c1.22,0,2.56,0.34,3.35,0.88l-0.56,1.03c-0.83-0.58-1.82-0.81-2.79-0.81c-1.71,0-2.47,0.67-2.47,1.57
		c0,2.56,6.14,0.63,6.14,4.27c0,1.64-1.44,2.7-3.91,2.7C518.39,455.26,516.88,454.75,516.1,454.09z"/>
	<path class="st6" d="M533.23,442.57v12.6h-1.3v-11.45h-2.97v-1.15H533.23z"/>
	<path class="st6" d="M548.58,449.3v5.87h-1.22v-1.48c-0.58,0.97-1.69,1.57-3.26,1.57c-2.14,0-3.46-1.12-3.46-2.75
		c0-1.46,0.94-2.68,3.66-2.68h3.01v-0.58c0-1.62-0.92-2.5-2.68-2.5c-1.22,0-2.38,0.43-3.15,1.12l-0.58-0.95
		c0.95-0.81,2.36-1.28,3.85-1.28C547.19,445.63,548.58,446.85,548.58,449.3z M547.3,452.32v-1.55h-2.97c-1.84,0-2.43,0.72-2.43,1.69
		c0,1.1,0.88,1.78,2.39,1.78C545.73,454.25,546.8,453.57,547.3,452.32z"/>
	<path class="st6" d="M560.59,449.68v5.49h-1.28v-5.37c0-2-1.04-3.03-2.84-3.03c-2.04,0-3.31,1.26-3.31,3.42v4.97h-1.28v-9.47h1.22
		v1.75c0.68-1.15,1.96-1.82,3.6-1.82C559,445.63,560.59,446.96,560.59,449.68z"/>
	<path class="st6" d="M572.52,441.81v13.36h-1.22v-1.87c-0.77,1.28-2.09,1.96-3.66,1.96c-2.7,0-4.72-1.96-4.72-4.83
		s2.02-4.81,4.72-4.81c1.51,0,2.81,0.65,3.6,1.87v-5.69H572.52z M571.26,450.43c0-2.21-1.51-3.69-3.51-3.69
		c-2.02,0-3.53,1.48-3.53,3.69s1.51,3.69,3.53,3.69C569.75,454.12,571.26,452.65,571.26,450.43z"/>
	<path class="st6" d="M588.2,454.02v1.15h-8.84v-0.92l5.24-5.13c1.42-1.4,1.69-2.25,1.69-3.12c0-1.46-1.03-2.36-2.95-2.36
		c-1.48,0-2.61,0.45-3.44,1.4l-0.92-0.79c0.97-1.15,2.54-1.8,4.46-1.8c2.56,0,4.18,1.3,4.18,3.4c0,1.21-0.38,2.29-2.07,3.94
		l-4.29,4.21H588.2z"/>
	<path class="st6" d="M594.19,446.6c0-0.56,0.43-0.97,0.95-0.97c0.52,0,0.97,0.41,0.97,0.97c0,0.56-0.45,0.99-0.97,0.99
		C594.62,447.59,594.19,447.16,594.19,446.6z M594.19,454.27c0-0.56,0.43-0.97,0.95-0.97c0.52,0,0.97,0.41,0.97,0.97
		c0,0.56-0.45,0.99-0.97,0.99C594.62,455.26,594.19,454.83,594.19,454.27z"/>
	<path class="st6" d="M613.33,446.89c0,2.68-1.95,4.3-5.15,4.3h-3.38v3.98h-1.33v-12.6h4.72
		C611.38,442.57,613.33,444.19,613.33,446.89z M611.99,446.89c0-2.02-1.33-3.17-3.85-3.17h-3.35v6.3h3.35
		C610.66,450.02,611.99,448.87,611.99,446.89z"/>
	<path class="st6" d="M620.7,445.63v1.24c-0.11,0-0.22-0.02-0.31-0.02c-1.98,0-3.19,1.26-3.19,3.49v4.83h-1.28v-9.47h1.22v1.85
		C617.75,446.29,618.96,445.63,620.7,445.63z"/>
	<path class="st6" d="M622.02,450.43c0-2.81,2.05-4.81,4.83-4.81c2.77,0,4.81,2,4.81,4.81s-2.03,4.83-4.81,4.83
		C624.07,455.26,622.02,453.24,622.02,450.43z M630.35,450.43c0-2.21-1.5-3.69-3.51-3.69s-3.53,1.48-3.53,3.69s1.51,3.69,3.53,3.69
		S630.35,452.65,630.35,450.43z"/>
	<path class="st6" d="M642.72,441.81v13.36h-1.22v-1.87c-0.77,1.28-2.09,1.96-3.66,1.96c-2.7,0-4.72-1.96-4.72-4.83
		s2.02-4.81,4.72-4.81c1.51,0,2.81,0.65,3.6,1.87v-5.69H642.72z M641.46,450.43c0-2.21-1.51-3.69-3.51-3.69
		c-2.02,0-3.53,1.48-3.53,3.69s1.51,3.69,3.53,3.69C639.95,454.12,641.46,452.65,641.46,450.43z"/>
	<path class="st6" d="M654.64,445.7v9.47h-1.22v-1.73c-0.67,1.15-1.89,1.82-3.4,1.82c-2.41,0-4-1.35-4-4.07v-5.49h1.28v5.37
		c0,2.02,1.04,3.04,2.84,3.04c1.98,0,3.22-1.28,3.22-3.44v-4.97H654.64z"/>
	<path class="st6" d="M657.08,450.43c0-2.83,2.05-4.81,4.88-4.81c1.6,0,2.95,0.63,3.71,1.87l-0.95,0.65
		c-0.65-0.95-1.66-1.4-2.75-1.4c-2.07,0-3.58,1.48-3.58,3.69c0,2.23,1.51,3.69,3.58,3.69c1.1,0,2.11-0.43,2.75-1.39l0.95,0.65
		c-0.76,1.22-2.11,1.87-3.71,1.87C659.13,455.26,657.08,453.26,657.08,450.43z"/>
	<path class="st6" d="M672.97,454.59c-0.5,0.45-1.26,0.67-2,0.67c-1.78,0-2.77-1.01-2.77-2.75v-5.73h-1.69v-1.08h1.69v-2.07h1.28
		v2.07h2.88v1.08h-2.88v5.65c0,1.12,0.58,1.73,1.64,1.73c0.52,0,1.04-0.16,1.41-0.49L672.97,454.59z"/>
	<path class="st6" d="M674.83,442.71c0-0.49,0.41-0.9,0.94-0.9s0.94,0.4,0.94,0.88c0,0.52-0.4,0.94-0.94,0.94
		C675.24,443.63,674.83,443.21,674.83,442.71z M675.11,445.7h1.28v9.47h-1.28V445.7z"/>
	<path class="st6" d="M678.82,450.43c0-2.81,2.05-4.81,4.83-4.81c2.77,0,4.81,2,4.81,4.81s-2.03,4.83-4.81,4.83
		C680.88,455.26,678.82,453.24,678.82,450.43z M687.16,450.43c0-2.21-1.5-3.69-3.51-3.69s-3.53,1.48-3.53,3.69s1.51,3.69,3.53,3.69
		S687.16,452.65,687.16,450.43z"/>
	<path class="st6" d="M699.6,449.68v5.49h-1.28v-5.37c0-2-1.04-3.03-2.84-3.03c-2.04,0-3.31,1.26-3.31,3.42v4.97h-1.28v-9.47h1.22
		v1.75c0.68-1.15,1.96-1.82,3.6-1.82C698.01,445.63,699.6,446.96,699.6,449.68z"/>
	<path class="st6" d="M706.47,450.43c0-2.81,2.05-4.81,4.83-4.81c2.77,0,4.81,2,4.81,4.81s-2.03,4.83-4.81,4.83
		C708.52,455.26,706.47,453.24,706.47,450.43z M714.81,450.43c0-2.21-1.5-3.69-3.51-3.69s-3.53,1.48-3.53,3.69s1.51,3.69,3.53,3.69
		S714.81,452.65,714.81,450.43z"/>
	<path class="st6" d="M719.99,444.58v1.12h2.92v1.08h-2.88v8.39h-1.28v-8.39h-1.69v-1.08h1.69v-1.17c0-1.69,1.01-2.81,2.86-2.81
		c0.7,0,1.42,0.2,1.89,0.59l-0.43,0.95c-0.36-0.31-0.86-0.47-1.41-0.47C720.57,442.8,719.99,443.41,719.99,444.58z"/>
	<path class="st6" d="M739.79,442.57v12.6h-1.31v-5.82h-7.89v5.82h-1.33v-12.6h1.33v5.62h7.89v-5.62H739.79z"/>
	<path class="st6" d="M754.19,442.57l-5.58,12.6h-1.31l-5.58-12.6h1.44l4.83,10.95l4.86-10.95H754.19z"/>
	<path class="st6" d="M767.51,449.3v5.87h-1.22v-1.48c-0.58,0.97-1.69,1.57-3.26,1.57c-2.14,0-3.46-1.12-3.46-2.75
		c0-1.46,0.94-2.68,3.66-2.68h3.01v-0.58c0-1.62-0.92-2.5-2.68-2.5c-1.22,0-2.38,0.43-3.15,1.12l-0.58-0.95
		c0.95-0.81,2.36-1.28,3.85-1.28C766.12,445.63,767.51,446.85,767.51,449.3z M766.23,452.32v-1.55h-2.97
		c-1.84,0-2.43,0.72-2.43,1.69c0,1.1,0.88,1.78,2.39,1.78C764.67,454.25,765.73,453.57,766.23,452.32z"/>
	<path class="st6" d="M779.52,449.68v5.49h-1.28v-5.37c0-2-1.04-3.03-2.84-3.03c-2.04,0-3.31,1.26-3.31,3.42v4.97h-1.28v-9.47h1.22
		v1.75c0.68-1.15,1.96-1.82,3.6-1.82C777.93,445.63,779.52,446.96,779.52,449.68z"/>
	<path class="st6" d="M791.45,441.81v13.36h-1.22v-1.87c-0.77,1.28-2.09,1.96-3.66,1.96c-2.7,0-4.72-1.96-4.72-4.83
		s2.02-4.81,4.72-4.81c1.51,0,2.81,0.65,3.6,1.87v-5.69H791.45z M790.19,450.43c0-2.21-1.51-3.69-3.51-3.69
		c-2.02,0-3.53,1.48-3.53,3.69s1.51,3.69,3.53,3.69C788.68,454.12,790.19,452.65,790.19,450.43z"/>
	<path class="st6" d="M812.73,442.57v12.6h-1.28v-10.08l-4.95,8.48h-0.63l-4.95-8.43v10.03h-1.28v-12.6h1.1l5.47,9.34l5.42-9.34
		H812.73z"/>
	<path class="st6" d="M827.13,442.57l-5.58,12.6h-1.31l-5.58-12.6h1.44l4.83,10.95l4.86-10.95H827.13z"/>
	<path class="st6" d="M832.47,440.01h1.17l-5.94,16.96h-1.17L832.47,440.01z"/>
	<path class="st6" d="M834.88,442.57h1.33v11.45h7.06v1.15h-8.39V442.57z"/>
	<path class="st6" d="M855.78,442.57l-5.58,12.6h-1.31l-5.58-12.6h1.44l4.83,10.95l4.86-10.95H855.78z"/>
	<path class="st6" d="M861,450.43c0-2.83,2.05-4.81,4.88-4.81c1.6,0,2.95,0.63,3.71,1.87l-0.95,0.65c-0.65-0.95-1.66-1.4-2.75-1.4
		c-2.07,0-3.58,1.48-3.58,3.69c0,2.23,1.51,3.69,3.58,3.69c1.1,0,2.11-0.43,2.75-1.39l0.95,0.65c-0.76,1.22-2.11,1.87-3.71,1.87
		C863.05,455.26,861,453.26,861,450.43z"/>
	<path class="st6" d="M879.06,449.3v5.87h-1.22v-1.48c-0.58,0.97-1.69,1.57-3.26,1.57c-2.14,0-3.46-1.12-3.46-2.75
		c0-1.46,0.94-2.68,3.66-2.68h3.01v-0.58c0-1.62-0.92-2.5-2.68-2.5c-1.22,0-2.38,0.43-3.15,1.12l-0.58-0.95
		c0.95-0.81,2.36-1.28,3.85-1.28C877.67,445.63,879.06,446.85,879.06,449.3z M877.78,452.32v-1.55h-2.97
		c-1.84,0-2.43,0.72-2.43,1.69c0,1.1,0.88,1.78,2.39,1.78C876.21,454.25,877.27,453.57,877.78,452.32z"/>
	<path class="st6" d="M891.94,450.43c0,2.86-2.02,4.83-4.72,4.83c-1.57,0-2.88-0.68-3.66-1.96v1.87h-1.22v-13.36h1.28v5.69
		c0.79-1.22,2.09-1.87,3.6-1.87C889.93,445.63,891.94,447.57,891.94,450.43z M890.66,450.43c0-2.21-1.53-3.69-3.53-3.69
		c-2.02,0-3.53,1.48-3.53,3.69s1.51,3.69,3.53,3.69C889.13,454.12,890.66,452.65,890.66,450.43z"/>
	<path class="st6" d="M894.37,441.81h1.28v13.36h-1.28V441.81z"/>
	<path class="st6" d="M907.28,450.83h-7.92c0.14,1.98,1.66,3.29,3.73,3.29c1.15,0,2.18-0.41,2.9-1.24l0.72,0.83
		c-0.85,1.01-2.16,1.55-3.66,1.55c-2.95,0-4.97-2.02-4.97-4.83s1.96-4.81,4.63-4.81c2.66,0,4.59,1.96,4.59,4.81
		C907.3,450.54,907.28,450.69,907.28,450.83z M899.36,449.88h6.72c-0.16-1.85-1.51-3.15-3.37-3.15
		C900.87,446.72,899.52,448.02,899.36,449.88z"/>
	<path class="st6" d="M908.41,454.09l0.58-1.01c0.76,0.59,2.04,1.06,3.37,1.06c1.8,0,2.54-0.61,2.54-1.55
		c0-2.47-6.14-0.52-6.14-4.27c0-1.55,1.33-2.7,3.75-2.7c1.22,0,2.56,0.34,3.35,0.88l-0.56,1.03c-0.83-0.58-1.82-0.81-2.79-0.81
		c-1.71,0-2.47,0.67-2.47,1.57c0,2.56,6.14,0.63,6.14,4.27c0,1.64-1.44,2.7-3.91,2.7C910.7,455.26,909.18,454.75,908.41,454.09z"/>
	<path class="st6" d="M919.44,454.27c0,0.31-0.07,0.54-0.25,1.04l-0.76,2.49h-0.87l0.61-2.61c-0.38-0.11-0.65-0.45-0.65-0.92
		c0-0.56,0.41-0.97,0.95-0.97C919.05,453.3,919.44,453.73,919.44,454.27z"/>
	<path class="st6" d="M605.56,474.71c0-0.49,0.41-0.9,0.94-0.9s0.94,0.4,0.94,0.88c0,0.52-0.4,0.94-0.94,0.94
		C605.97,475.63,605.56,475.21,605.56,474.71z M605.85,477.7h1.28v9.47h-1.28V477.7z"/>
	<path class="st6" d="M619.22,481.68v5.49h-1.28v-5.37c0-2-1.04-3.03-2.84-3.03c-2.04,0-3.31,1.26-3.31,3.42v4.97h-1.28v-9.47h1.22
		v1.75c0.68-1.15,1.96-1.82,3.6-1.82C617.64,477.63,619.22,478.96,619.22,481.68z"/>
	<path class="st6" d="M621.2,486.09l0.58-1.01c0.76,0.59,2.04,1.06,3.37,1.06c1.8,0,2.54-0.61,2.54-1.55c0-2.47-6.14-0.52-6.14-4.27
		c0-1.55,1.33-2.7,3.75-2.7c1.22,0,2.56,0.34,3.35,0.88l-0.56,1.03c-0.83-0.58-1.82-0.81-2.79-0.81c-1.71,0-2.47,0.67-2.47,1.57
		c0,2.56,6.14,0.63,6.14,4.27c0,1.64-1.44,2.7-3.91,2.7C623.49,487.26,621.98,486.75,621.2,486.09z"/>
	<path class="st6" d="M639.67,477.7v9.47h-1.22v-1.73c-0.67,1.15-1.89,1.82-3.4,1.82c-2.41,0-4-1.35-4-4.07v-5.49h1.28v5.37
		c0,2.02,1.04,3.04,2.84,3.04c1.98,0,3.22-1.28,3.22-3.44v-4.97H639.67z"/>
	<path class="st6" d="M643.07,473.81h1.28v13.36h-1.28V473.81z"/>
	<path class="st6" d="M654.88,481.3v5.87h-1.22v-1.48c-0.58,0.97-1.69,1.57-3.26,1.57c-2.14,0-3.46-1.12-3.46-2.75
		c0-1.46,0.94-2.68,3.66-2.68h3.01v-0.58c0-1.62-0.92-2.5-2.68-2.5c-1.22,0-2.38,0.43-3.15,1.12l-0.58-0.95
		c0.95-0.81,2.36-1.28,3.85-1.28C653.49,477.63,654.88,478.85,654.88,481.3z M653.6,484.32v-1.55h-2.97c-1.84,0-2.43,0.72-2.43,1.69
		c0,1.1,0.88,1.78,2.39,1.78C652.04,486.25,653.1,485.57,653.6,484.32z"/>
	<path class="st6" d="M663.16,486.59c-0.5,0.45-1.26,0.67-2,0.67c-1.78,0-2.77-1.01-2.77-2.75v-5.73h-1.69v-1.08h1.69v-2.07h1.28
		v2.07h2.88v1.08h-2.88v5.65c0,1.12,0.58,1.73,1.64,1.73c0.52,0,1.04-0.16,1.41-0.49L663.16,486.59z"/>
	<path class="st6" d="M673.55,482.83h-7.92c0.14,1.98,1.66,3.29,3.73,3.29c1.15,0,2.18-0.41,2.9-1.24l0.72,0.83
		c-0.85,1.01-2.16,1.55-3.66,1.55c-2.95,0-4.97-2.02-4.97-4.83s1.96-4.81,4.63-4.81c2.66,0,4.59,1.96,4.59,4.81
		C673.57,482.54,673.55,482.69,673.55,482.83z M665.63,481.88h6.72c-0.16-1.85-1.51-3.15-3.37-3.15
		C667.14,478.72,665.79,480.02,665.63,481.88z"/>
	<path class="st6" d="M684.64,473.81v13.36h-1.22v-1.87c-0.77,1.28-2.09,1.96-3.66,1.96c-2.7,0-4.72-1.96-4.72-4.83
		s2.02-4.81,4.72-4.81c1.51,0,2.81,0.65,3.6,1.87v-5.69H684.64z M683.38,482.43c0-2.21-1.51-3.69-3.51-3.69
		c-2.02,0-3.53,1.48-3.53,3.69s1.51,3.69,3.53,3.69C681.86,486.12,683.38,484.65,683.38,482.43z"/>
	<path class="st6" d="M699.7,481.3v5.87h-1.22v-1.48c-0.58,0.97-1.69,1.57-3.26,1.57c-2.14,0-3.46-1.12-3.46-2.75
		c0-1.46,0.94-2.68,3.66-2.68h3.01v-0.58c0-1.62-0.92-2.5-2.68-2.5c-1.22,0-2.38,0.43-3.15,1.12l-0.58-0.95
		c0.95-0.81,2.36-1.28,3.85-1.28C698.31,477.63,699.7,478.85,699.7,481.3z M698.42,484.32v-1.55h-2.97c-1.84,0-2.43,0.72-2.43,1.69
		c0,1.1,0.88,1.78,2.39,1.78C696.86,486.25,697.92,485.57,698.42,484.32z"/>
	<path class="st6" d="M711.71,481.68v5.49h-1.28v-5.37c0-2-1.04-3.03-2.84-3.03c-2.04,0-3.31,1.26-3.31,3.42v4.97h-1.28v-9.47h1.22
		v1.75c0.68-1.15,1.96-1.82,3.6-1.82C710.12,477.63,711.71,478.96,711.71,481.68z"/>
	<path class="st6" d="M723.64,473.81v13.36h-1.22v-1.87c-0.77,1.28-2.09,1.96-3.66,1.96c-2.7,0-4.72-1.96-4.72-4.83
		s2.02-4.81,4.72-4.81c1.51,0,2.81,0.65,3.6,1.87v-5.69H723.64z M722.38,482.43c0-2.21-1.51-3.69-3.51-3.69
		c-2.02,0-3.53,1.48-3.53,3.69s1.51,3.69,3.53,3.69C720.87,486.12,722.38,484.65,722.38,482.43z"/>
	<path class="st6" d="M734.64,473.72c0.7,0,1.42,0.2,1.89,0.59l-0.43,0.95c-0.36-0.31-0.86-0.47-1.41-0.47
		c-1.1,0-1.67,0.61-1.67,1.78v1.12h2.92v1.08h-2.88v8.39h-1.28v-8.39h-1.69v-1.08h1.69v-1.17
		C731.77,474.83,732.78,473.72,734.64,473.72z M738.94,473.81v13.36h-1.28v-13.36H738.94z"/>
	<path class="st6" d="M749.47,481.3v5.87h-1.22v-1.48c-0.58,0.97-1.69,1.57-3.26,1.57c-2.14,0-3.46-1.12-3.46-2.75
		c0-1.46,0.94-2.68,3.66-2.68h3.01v-0.58c0-1.62-0.92-2.5-2.68-2.5c-1.22,0-2.38,0.43-3.15,1.12l-0.58-0.95
		c0.95-0.81,2.36-1.28,3.85-1.28C748.08,477.63,749.47,478.85,749.47,481.3z M748.19,484.32v-1.55h-2.97
		c-1.84,0-2.43,0.72-2.43,1.69c0,1.1,0.88,1.78,2.39,1.78C746.63,486.25,747.69,485.57,748.19,484.32z"/>
	<path class="st6" d="M768.39,481.68v5.49h-1.28v-5.37c0-2-1.01-3.03-2.72-3.03c-1.94,0-3.17,1.26-3.17,3.42v4.97h-1.28v-5.37
		c0-2-1.01-3.03-2.74-3.03c-1.93,0-3.17,1.26-3.17,3.42v4.97h-1.28v-9.47h1.22v1.73c0.67-1.13,1.89-1.8,3.47-1.8
		c1.57,0,2.79,0.67,3.37,2c0.68-1.22,2.04-2,3.75-2C766.88,477.63,768.39,478.96,768.39,481.68z"/>
	<path class="st6" d="M779.93,482.83H772c0.14,1.98,1.66,3.29,3.73,3.29c1.15,0,2.18-0.41,2.9-1.24l0.72,0.83
		c-0.85,1.01-2.16,1.55-3.66,1.55c-2.95,0-4.97-2.02-4.97-4.83s1.96-4.81,4.63-4.81c2.66,0,4.59,1.96,4.59,4.81
		C779.94,482.54,779.93,482.69,779.93,482.83z M772,481.88h6.72c-0.16-1.85-1.51-3.15-3.37-3.15
		C773.52,478.72,772.17,480.02,772,481.88z"/>
	<path class="st6" d="M781.67,481.73h4.72v1.12h-4.72V481.73z"/>
	<path class="st6" d="M793.84,477.63v1.24c-0.11,0-0.22-0.02-0.31-0.02c-1.98,0-3.19,1.26-3.19,3.49v4.83h-1.28v-9.47h1.22v1.85
		C790.89,478.29,792.09,477.63,793.84,477.63z"/>
	<path class="st6" d="M804.35,482.83h-7.92c0.14,1.98,1.66,3.29,3.73,3.29c1.15,0,2.18-0.41,2.9-1.24l0.72,0.83
		c-0.85,1.01-2.16,1.55-3.66,1.55c-2.95,0-4.97-2.02-4.97-4.83s1.96-4.81,4.63-4.81c2.66,0,4.59,1.96,4.59,4.81
		C804.37,482.54,804.35,482.69,804.35,482.83z M796.43,481.88h6.72c-0.16-1.85-1.51-3.15-3.37-3.15
		C797.94,478.72,796.59,480.02,796.43,481.88z"/>
	<path class="st6" d="M805.48,486.09l0.58-1.01c0.76,0.59,2.04,1.06,3.37,1.06c1.8,0,2.54-0.61,2.54-1.55
		c0-2.47-6.14-0.52-6.14-4.27c0-1.55,1.33-2.7,3.75-2.7c1.22,0,2.56,0.34,3.35,0.88l-0.56,1.03c-0.83-0.58-1.82-0.81-2.79-0.81
		c-1.71,0-2.47,0.67-2.47,1.57c0,2.56,6.14,0.63,6.14,4.27c0,1.64-1.44,2.7-3.91,2.7C807.77,487.26,806.26,486.75,805.48,486.09z"/>
	<path class="st6" d="M815.13,474.71c0-0.49,0.41-0.9,0.94-0.9s0.94,0.4,0.94,0.88c0,0.52-0.4,0.94-0.94,0.94
		C815.54,475.63,815.13,475.21,815.13,474.71z M815.42,477.7h1.28v9.47h-1.28V477.7z"/>
	<path class="st6" d="M818.77,486.09l0.58-1.01c0.76,0.59,2.04,1.06,3.37,1.06c1.8,0,2.54-0.61,2.54-1.55
		c0-2.47-6.14-0.52-6.14-4.27c0-1.55,1.33-2.7,3.75-2.7c1.22,0,2.56,0.34,3.35,0.88l-0.56,1.03c-0.83-0.58-1.82-0.81-2.79-0.81
		c-1.71,0-2.47,0.67-2.47,1.57c0,2.56,6.14,0.63,6.14,4.27c0,1.64-1.44,2.7-3.91,2.7C821.05,487.26,819.54,486.75,818.77,486.09z"/>
	<path class="st6" d="M833.69,486.59c-0.5,0.45-1.26,0.67-2,0.67c-1.78,0-2.77-1.01-2.77-2.75v-5.73h-1.69v-1.08h1.69v-2.07h1.28
		v2.07h2.88v1.08h-2.88v5.65c0,1.12,0.58,1.73,1.64,1.73c0.52,0,1.04-0.16,1.41-0.49L833.69,486.59z"/>
	<path class="st6" d="M842.98,481.3v5.87h-1.22v-1.48c-0.58,0.97-1.69,1.57-3.26,1.57c-2.14,0-3.46-1.12-3.46-2.75
		c0-1.46,0.94-2.68,3.66-2.68h3.01v-0.58c0-1.62-0.92-2.5-2.68-2.5c-1.22,0-2.38,0.43-3.15,1.12l-0.58-0.95
		c0.95-0.81,2.36-1.28,3.85-1.28C841.59,477.63,842.98,478.85,842.98,481.3z M841.7,484.32v-1.55h-2.97c-1.84,0-2.43,0.72-2.43,1.69
		c0,1.1,0.88,1.78,2.39,1.78C840.13,486.25,841.2,485.57,841.7,484.32z"/>
	<path class="st6" d="M854.98,481.68v5.49h-1.28v-5.37c0-2-1.04-3.03-2.84-3.03c-2.04,0-3.31,1.26-3.31,3.42v4.97h-1.28v-9.47h1.22
		v1.75c0.68-1.15,1.96-1.82,3.6-1.82C853.4,477.63,854.98,478.96,854.98,481.68z"/>
	<path class="st6" d="M863.26,486.59c-0.5,0.45-1.26,0.67-2,0.67c-1.78,0-2.77-1.01-2.77-2.75v-5.73h-1.69v-1.08h1.69v-2.07h1.28
		v2.07h2.88v1.08h-2.88v5.65c0,1.12,0.58,1.73,1.64,1.73c0.52,0,1.04-0.16,1.41-0.49L863.26,486.59z"/>
	<path class="st6" d="M883.84,477.7l-3.58,9.47h-1.21l-2.99-7.76l-2.99,7.76h-1.21l-3.56-9.47h1.22l2.97,8.05l3.04-8.05h1.1
		l3.03,8.05l3.01-8.05H883.84z"/>
	<path class="st6" d="M885.29,474.71c0-0.49,0.41-0.9,0.94-0.9s0.94,0.4,0.94,0.88c0,0.52-0.4,0.94-0.94,0.94
		C885.71,475.63,885.29,475.21,885.29,474.71z M885.58,477.7h1.28v9.47h-1.28V477.7z"/>
	<path class="st6" d="M895.02,477.63v1.24c-0.11,0-0.22-0.02-0.31-0.02c-1.98,0-3.19,1.26-3.19,3.49v4.83h-1.28v-9.47h1.22v1.85
		C892.06,478.29,893.27,477.63,895.02,477.63z"/>
	<path class="st6" d="M905.53,482.83h-7.92c0.14,1.98,1.66,3.29,3.73,3.29c1.15,0,2.18-0.41,2.9-1.24l0.72,0.83
		c-0.85,1.01-2.16,1.55-3.66,1.55c-2.95,0-4.97-2.02-4.97-4.83s1.96-4.81,4.63-4.81c2.66,0,4.59,1.96,4.59,4.81
		C905.55,482.54,905.53,482.69,905.53,482.83z M897.61,481.88h6.72c-0.16-1.85-1.51-3.15-3.37-3.15
		C899.12,478.72,897.77,480.02,897.61,481.88z"/>
	<path class="st6" d="M906.66,486.09l0.58-1.01c0.76,0.59,2.04,1.06,3.37,1.06c1.8,0,2.54-0.61,2.54-1.55
		c0-2.47-6.14-0.52-6.14-4.27c0-1.55,1.33-2.7,3.75-2.7c1.22,0,2.56,0.34,3.35,0.88l-0.56,1.03c-0.83-0.58-1.82-0.81-2.79-0.81
		c-1.71,0-2.47,0.67-2.47,1.57c0,2.56,6.14,0.63,6.14,4.27c0,1.64-1.44,2.7-3.91,2.7C908.95,487.26,907.43,486.75,906.66,486.09z"/>
	<path class="st6" d="M917.69,486.27c0,0.31-0.07,0.54-0.25,1.04l-0.76,2.49h-0.86l0.61-2.61c-0.38-0.11-0.65-0.45-0.65-0.92
		c0-0.56,0.41-0.97,0.95-0.97C917.3,485.3,917.69,485.73,917.69,486.27z"/>
	<path class="st6" d="M613,513.3v5.87h-1.22v-1.48c-0.58,0.97-1.69,1.57-3.26,1.57c-2.14,0-3.46-1.12-3.46-2.75
		c0-1.46,0.94-2.68,3.66-2.68h3.01v-0.58c0-1.62-0.92-2.5-2.68-2.5c-1.22,0-2.38,0.43-3.15,1.12l-0.58-0.95
		c0.95-0.81,2.36-1.28,3.85-1.28C611.61,509.63,613,510.85,613,513.3z M611.72,516.32v-1.55h-2.97c-1.84,0-2.43,0.72-2.43,1.69
		c0,1.1,0.88,1.78,2.39,1.78C610.15,518.25,611.21,517.57,611.72,516.32z"/>
	<path class="st6" d="M625,513.68v5.49h-1.28v-5.37c0-2-1.04-3.03-2.84-3.03c-2.04,0-3.31,1.26-3.31,3.42v4.97h-1.28v-9.47h1.22
		v1.75c0.68-1.15,1.96-1.82,3.6-1.82C623.42,509.63,625,510.96,625,513.68z"/>
	<path class="st6" d="M636.94,505.81v13.36h-1.22v-1.87c-0.77,1.28-2.09,1.96-3.66,1.96c-2.7,0-4.72-1.96-4.72-4.83
		s2.02-4.81,4.72-4.81c1.51,0,2.81,0.65,3.6,1.87v-5.69H636.94z M635.68,514.43c0-2.21-1.51-3.69-3.51-3.69
		c-2.02,0-3.53,1.48-3.53,3.69s1.51,3.69,3.53,3.69C634.16,518.12,635.68,516.65,635.68,514.43z"/>
	<path class="st6" d="M643.9,514.43c0-2.83,2.05-4.81,4.88-4.81c1.6,0,2.95,0.63,3.71,1.87l-0.95,0.65c-0.65-0.95-1.66-1.4-2.75-1.4
		c-2.07,0-3.58,1.48-3.58,3.69c0,2.23,1.51,3.69,3.58,3.69c1.1,0,2.11-0.43,2.75-1.39l0.95,0.65c-0.76,1.22-2.11,1.87-3.71,1.87
		C645.95,519.26,643.9,517.26,643.9,514.43z"/>
	<path class="st6" d="M653.85,514.43c0-2.81,2.05-4.81,4.83-4.81c2.77,0,4.81,2,4.81,4.81s-2.03,4.83-4.81,4.83
		C655.91,519.26,653.85,517.24,653.85,514.43z M662.19,514.43c0-2.21-1.5-3.69-3.51-3.69s-3.53,1.48-3.53,3.69s1.51,3.69,3.53,3.69
		S662.19,516.65,662.19,514.43z"/>
	<path class="st6" d="M674.63,513.68v5.49h-1.28v-5.37c0-2-1.04-3.03-2.84-3.03c-2.04,0-3.31,1.26-3.31,3.42v4.97h-1.28v-9.47h1.22
		v1.75c0.68-1.15,1.96-1.82,3.6-1.82C673.04,509.63,674.63,510.96,674.63,513.68z"/>
	<path class="st6" d="M682.91,518.59c-0.5,0.45-1.26,0.67-2,0.67c-1.78,0-2.77-1.01-2.77-2.75v-5.73h-1.69v-1.08h1.69v-2.07h1.28
		v2.07h2.88v1.08h-2.88v5.65c0,1.12,0.58,1.73,1.64,1.73c0.52,0,1.04-0.16,1.41-0.49L682.91,518.59z"/>
	<path class="st6" d="M689.82,509.63v1.24c-0.11,0-0.22-0.02-0.31-0.02c-1.98,0-3.19,1.26-3.19,3.49v4.83h-1.28v-9.47h1.22v1.85
		C686.86,510.29,688.07,509.63,689.82,509.63z"/>
	<path class="st6" d="M691.13,514.43c0-2.81,2.05-4.81,4.83-4.81c2.77,0,4.81,2,4.81,4.81s-2.03,4.83-4.81,4.83
		C693.18,519.26,691.13,517.24,691.13,514.43z M699.47,514.43c0-2.21-1.5-3.69-3.51-3.69s-3.53,1.48-3.53,3.69s1.51,3.69,3.53,3.69
		S699.47,516.65,699.47,514.43z"/>
	<path class="st6" d="M703.19,505.81h1.28v13.36h-1.28V505.81z"/>
	<path class="st6" d="M711.43,514.43c0-2.83,2.05-4.81,4.88-4.81c1.6,0,2.95,0.63,3.71,1.87l-0.95,0.65
		c-0.65-0.95-1.66-1.4-2.75-1.4c-2.07,0-3.58,1.48-3.58,3.69c0,2.23,1.51,3.69,3.58,3.69c1.1,0,2.11-0.43,2.75-1.39l0.95,0.65
		c-0.76,1.22-2.11,1.87-3.71,1.87C713.49,519.26,711.43,517.26,711.43,514.43z"/>
	<path class="st6" d="M729.49,513.3v5.87h-1.22v-1.48c-0.58,0.97-1.69,1.57-3.26,1.57c-2.14,0-3.46-1.12-3.46-2.75
		c0-1.46,0.94-2.68,3.66-2.68h3.01v-0.58c0-1.62-0.92-2.5-2.68-2.5c-1.22,0-2.38,0.43-3.15,1.12l-0.58-0.95
		c0.95-0.81,2.36-1.28,3.85-1.28C728.1,509.63,729.49,510.85,729.49,513.3z M728.21,516.32v-1.55h-2.97c-1.84,0-2.43,0.72-2.43,1.69
		c0,1.1,0.88,1.78,2.39,1.78C726.65,518.25,727.71,517.57,728.21,516.32z"/>
	<path class="st6" d="M742.38,514.43c0,2.86-2.02,4.83-4.72,4.83c-1.57,0-2.88-0.68-3.66-1.96v1.87h-1.22v-13.36h1.28v5.69
		c0.79-1.22,2.09-1.87,3.6-1.87C740.36,509.63,742.38,511.57,742.38,514.43z M741.1,514.43c0-2.21-1.53-3.69-3.53-3.69
		c-2.02,0-3.53,1.48-3.53,3.69s1.51,3.69,3.53,3.69C739.57,518.12,741.1,516.65,741.1,514.43z"/>
	<path class="st6" d="M744.81,505.81h1.28v13.36h-1.28V505.81z"/>
	<path class="st6" d="M757.71,514.83h-7.92c0.14,1.98,1.66,3.29,3.73,3.29c1.15,0,2.18-0.41,2.9-1.24l0.72,0.83
		c-0.85,1.01-2.16,1.55-3.66,1.55c-2.95,0-4.97-2.02-4.97-4.83s1.96-4.81,4.63-4.81c2.66,0,4.59,1.96,4.59,4.81
		C757.73,514.54,757.71,514.69,757.71,514.83z M749.79,513.88h6.72c-0.16-1.85-1.51-3.15-3.37-3.15
		C751.3,510.72,749.95,512.02,749.79,513.88z"/>
	<path class="st6" d="M758.85,518.09l0.58-1.01c0.76,0.59,2.04,1.06,3.37,1.06c1.8,0,2.54-0.61,2.54-1.55
		c0-2.47-6.14-0.52-6.14-4.27c0-1.55,1.33-2.7,3.75-2.7c1.22,0,2.56,0.34,3.35,0.88l-0.56,1.03c-0.83-0.58-1.82-0.81-2.79-0.81
		c-1.71,0-2.47,0.67-2.47,1.57c0,2.56,6.14,0.63,6.14,4.27c0,1.64-1.44,2.7-3.91,2.7C761.13,519.26,759.62,518.75,758.85,518.09z"/>
	<path class="st6" d="M210.06,544.33c0-4.63,3.76-8.39,8.39-8.39c4.63,0,8.39,3.76,8.39,8.39c0,4.66-3.8,8.39-8.39,8.39
		C213.82,552.72,210.06,548.95,210.06,544.33z M226.26,544.33c0-4.32-3.49-7.81-7.81-7.81c-4.36,0-7.81,3.55-7.81,7.81
		c0,4.32,3.49,7.81,7.81,7.81S226.26,548.65,226.26,544.33z M220.09,542.24c0-1.08-0.59-1.71-1.84-1.71c-0.88,0-1.62,0.5-2.2,1.06
		l-0.85-0.79c0.92-0.95,1.89-1.46,3.19-1.46c1.95,0,3.13,1.12,3.13,2.79c0,1.73-1.75,3.51-4.05,5.56c0.56-0.05,1.21-0.07,1.84-0.07
		h2.65v1.26h-6.63v-0.86C218.36,545.37,220.09,543.71,220.09,542.24z"/>
	<path class="st6" d="M243.7,547.8c0,2.14-1.58,3.37-4.74,3.37h-5.8v-12.6h5.44c2.81,0,4.43,1.19,4.43,3.24
		c0,1.44-0.77,2.39-1.93,2.86C242.73,545.03,243.7,546.09,243.7,547.8z M234.5,539.66v4.57h4.02c2.02,0,3.19-0.77,3.19-2.29
		s-1.17-2.29-3.19-2.29H234.5z M242.37,547.69c0-1.64-1.21-2.36-3.42-2.36h-4.45v4.74h4.45
		C241.16,550.07,242.37,549.35,242.37,547.69z"/>
	<path class="st6" d="M253.44,545.3v5.87h-1.22v-1.48c-0.58,0.97-1.69,1.57-3.26,1.57c-2.14,0-3.46-1.12-3.46-2.75
		c0-1.46,0.94-2.68,3.66-2.68h3.01v-0.58c0-1.62-0.92-2.5-2.68-2.5c-1.22,0-2.38,0.43-3.15,1.12l-0.58-0.95
		c0.95-0.81,2.36-1.28,3.85-1.28C252.05,541.63,253.44,542.85,253.44,545.3z M252.16,548.32v-1.55h-2.97
		c-1.84,0-2.43,0.72-2.43,1.69c0,1.1,0.88,1.78,2.39,1.78C250.59,550.25,251.66,549.57,252.16,548.32z"/>
	<path class="st6" d="M255.42,550.09l0.58-1.01c0.76,0.59,2.04,1.06,3.37,1.06c1.8,0,2.54-0.61,2.54-1.55
		c0-2.47-6.14-0.52-6.14-4.27c0-1.55,1.33-2.7,3.75-2.7c1.22,0,2.56,0.34,3.35,0.88l-0.56,1.03c-0.83-0.58-1.82-0.81-2.79-0.81
		c-1.71,0-2.47,0.67-2.47,1.57c0,2.56,6.14,0.63,6.14,4.27c0,1.64-1.44,2.7-3.91,2.7C257.7,551.26,256.19,550.75,255.42,550.09z"/>
	<path class="st6" d="M273.6,546.83h-7.92c0.14,1.98,1.66,3.29,3.73,3.29c1.15,0,2.18-0.41,2.9-1.24l0.72,0.83
		c-0.85,1.01-2.16,1.55-3.66,1.55c-2.95,0-4.97-2.02-4.97-4.83s1.96-4.81,4.63-4.81c2.66,0,4.59,1.96,4.59,4.81
		C273.62,546.54,273.6,546.69,273.6,546.83z M265.68,545.88h6.72c-0.16-1.85-1.51-3.15-3.37-3.15
		C267.19,542.72,265.84,544.02,265.68,545.88z"/>
	<path class="st6" d="M296.21,545.68v5.49h-1.28v-5.37c0-2-1.01-3.03-2.72-3.03c-1.94,0-3.17,1.26-3.17,3.42v4.97h-1.28v-5.37
		c0-2-1.01-3.03-2.74-3.03c-1.93,0-3.17,1.26-3.17,3.42v4.97h-1.28v-9.47h1.22v1.73c0.67-1.13,1.89-1.8,3.47-1.8
		c1.57,0,2.79,0.67,3.37,2c0.68-1.22,2.04-2,3.75-2C294.7,541.63,296.21,542.96,296.21,545.68z"/>
	<path class="st6" d="M307.74,546.83h-7.92c0.14,1.98,1.66,3.29,3.73,3.29c1.15,0,2.18-0.41,2.9-1.24l0.72,0.83
		c-0.85,1.01-2.16,1.55-3.66,1.55c-2.95,0-4.97-2.02-4.97-4.83s1.96-4.81,4.63-4.81c2.66,0,4.59,1.96,4.59,4.81
		C307.76,546.54,307.74,546.69,307.74,546.83z M299.82,545.88h6.72c-0.16-1.85-1.51-3.15-3.37-3.15
		C301.33,542.72,299.98,544.02,299.82,545.88z"/>
	<path class="st6" d="M315.18,550.59c-0.5,0.45-1.26,0.67-2,0.67c-1.78,0-2.77-1.01-2.77-2.75v-5.73h-1.69v-1.08h1.69v-2.07h1.28
		v2.07h2.88v1.08h-2.88v5.65c0,1.12,0.58,1.73,1.64,1.73c0.52,0,1.04-0.16,1.41-0.49L315.18,550.59z"/>
	<path class="st6" d="M324.47,545.3v5.87h-1.22v-1.48c-0.58,0.97-1.69,1.57-3.26,1.57c-2.14,0-3.46-1.12-3.46-2.75
		c0-1.46,0.94-2.68,3.66-2.68h3.01v-0.58c0-1.62-0.92-2.5-2.68-2.5c-1.22,0-2.38,0.43-3.15,1.12l-0.58-0.95
		c0.95-0.81,2.36-1.28,3.85-1.28C323.08,541.63,324.47,542.85,324.47,545.3z M323.19,548.32v-1.55h-2.97
		c-1.84,0-2.43,0.72-2.43,1.69c0,1.1,0.88,1.78,2.39,1.78C321.62,550.25,322.68,549.57,323.19,548.32z"/>
	<path class="st6" d="M327.76,537.81h1.28v13.36h-1.28V537.81z"/>
	<path class="st6" d="M337.04,546.24c0-3.31,0.76-6.28,2.09-8.43h1.22c-1.42,2.47-2.05,5.22-2.05,8.43s0.63,5.96,2.05,8.43h-1.22
		C337.8,552.48,337.04,549.55,337.04,546.24z"/>
	<path class="st6" d="M351.23,541.7v9.47h-1.22v-1.73c-0.67,1.15-1.89,1.82-3.4,1.82c-2.41,0-4-1.35-4-4.07v-5.49h1.28v5.37
		c0,2.02,1.04,3.04,2.84,3.04c1.98,0,3.22-1.28,3.22-3.44v-4.97H351.23z"/>
	<path class="st6" d="M364.23,546.43c0,2.88-2.02,4.83-4.72,4.83c-1.51,0-2.81-0.65-3.6-1.87v5.28h-1.28V541.7h1.22v1.87
		c0.77-1.26,2.09-1.94,3.66-1.94C362.21,541.63,364.23,543.57,364.23,546.43z M362.95,546.43c0-2.2-1.53-3.69-3.53-3.69
		c-2.02,0-3.53,1.5-3.53,3.69c0,2.21,1.51,3.69,3.53,3.69C361.42,550.12,362.95,548.65,362.95,546.43z"/>
	<path class="st6" d="M365.95,545.73h4.72v1.12h-4.72V545.73z"/>
	<path class="st6" d="M372.4,546.43c0-2.83,2.05-4.81,4.88-4.81c1.6,0,2.95,0.63,3.71,1.87l-0.95,0.65c-0.65-0.95-1.66-1.4-2.75-1.4
		c-2.07,0-3.58,1.48-3.58,3.69c0,2.23,1.51,3.69,3.58,3.69c1.1,0,2.11-0.43,2.75-1.39l0.95,0.65c-0.76,1.22-2.11,1.87-3.71,1.87
		C374.45,551.26,372.4,549.26,372.4,546.43z"/>
	<path class="st6" d="M390.45,545.3v5.87h-1.22v-1.48c-0.58,0.97-1.69,1.57-3.26,1.57c-2.14,0-3.46-1.12-3.46-2.75
		c0-1.46,0.94-2.68,3.66-2.68h3.01v-0.58c0-1.62-0.92-2.5-2.68-2.5c-1.22,0-2.38,0.43-3.15,1.12l-0.58-0.95
		c0.95-0.81,2.36-1.28,3.85-1.28C389.07,541.63,390.45,542.85,390.45,545.3z M389.17,548.32v-1.55h-2.97
		c-1.84,0-2.43,0.72-2.43,1.69c0,1.1,0.88,1.78,2.39,1.78C387.61,550.25,388.67,549.57,389.17,548.32z"/>
	<path class="st6" d="M392.43,550.09l0.58-1.01c0.76,0.59,2.04,1.06,3.37,1.06c1.8,0,2.54-0.61,2.54-1.55
		c0-2.47-6.14-0.52-6.14-4.27c0-1.55,1.33-2.7,3.75-2.7c1.22,0,2.56,0.34,3.35,0.88l-0.56,1.03c-0.83-0.58-1.82-0.81-2.79-0.81
		c-1.71,0-2.47,0.67-2.47,1.57c0,2.56,6.14,0.63,6.14,4.27c0,1.64-1.44,2.7-3.91,2.7C394.72,551.26,393.2,550.75,392.43,550.09z"/>
	<path class="st6" d="M407.35,550.59c-0.5,0.45-1.26,0.67-2,0.67c-1.78,0-2.77-1.01-2.77-2.75v-5.73h-1.69v-1.08h1.69v-2.07h1.28
		v2.07h2.88v1.08h-2.88v5.65c0,1.12,0.58,1.73,1.64,1.73c0.52,0,1.04-0.16,1.41-0.49L407.35,550.59z"/>
	<path class="st6" d="M409.21,538.71c0-0.49,0.41-0.9,0.94-0.9s0.94,0.4,0.94,0.88c0,0.52-0.4,0.94-0.94,0.94
		C409.62,539.63,409.21,539.21,409.21,538.71z M409.49,541.7h1.28v9.47h-1.28V541.7z"/>
	<path class="st6" d="M422.87,545.68v5.49h-1.28v-5.37c0-2-1.04-3.03-2.84-3.03c-2.04,0-3.31,1.26-3.31,3.42v4.97h-1.28v-9.47h1.22
		v1.75c0.68-1.15,1.96-1.82,3.6-1.82C421.29,541.63,422.87,542.96,422.87,545.68z"/>
	<path class="st6" d="M434.93,541.7v8.32c0,3.26-1.6,4.74-4.74,4.74c-1.73,0-3.42-0.52-4.41-1.46l0.65-0.97
		c0.9,0.81,2.27,1.3,3.73,1.3c2.4,0,3.49-1.1,3.49-3.44v-1.21c-0.79,1.21-2.14,1.84-3.69,1.84c-2.7,0-4.75-1.89-4.75-4.61
		s2.05-4.57,4.75-4.57c1.58,0,2.95,0.65,3.75,1.89v-1.82H434.93z M433.69,546.2c0-2.05-1.51-3.46-3.6-3.46
		c-2.09,0-3.58,1.4-3.58,3.46s1.49,3.48,3.58,3.48C432.18,549.67,433.69,548.25,433.69,546.2z"/>
	<path class="st6" d="M437.27,554.66c1.44-2.47,2.07-5.22,2.07-8.43s-0.63-5.96-2.07-8.43h1.22c1.35,2.14,2.11,5.11,2.11,8.43
		c0,3.31-0.76,6.25-2.11,8.43H437.27z"/>
	<path class="st6" d="M458.2,546.43c0,2.88-2.02,4.83-4.72,4.83c-1.51,0-2.81-0.65-3.6-1.87v5.28h-1.28V541.7h1.22v1.87
		c0.77-1.26,2.09-1.94,3.66-1.94C456.19,541.63,458.2,543.57,458.2,546.43z M456.93,546.43c0-2.2-1.53-3.69-3.53-3.69
		c-2.02,0-3.53,1.5-3.53,3.69c0,2.21,1.51,3.69,3.53,3.69C455.4,550.12,456.93,548.65,456.93,546.43z"/>
	<path class="st6" d="M465.4,541.63v1.24c-0.11,0-0.22-0.02-0.31-0.02c-1.98,0-3.19,1.26-3.19,3.49v4.83h-1.28v-9.47h1.22v1.85
		C462.45,542.29,463.66,541.63,465.4,541.63z"/>
	<path class="st6" d="M466.71,546.43c0-2.81,2.05-4.81,4.83-4.81c2.77,0,4.81,2,4.81,4.81s-2.03,4.83-4.81,4.83
		C468.77,551.26,466.71,549.24,466.71,546.43z M475.05,546.43c0-2.21-1.5-3.69-3.51-3.69s-3.53,1.48-3.53,3.69s1.51,3.69,3.53,3.69
		S475.05,548.65,475.05,546.43z"/>
	<path class="st6" d="M487.42,537.81v13.36h-1.22v-1.87c-0.77,1.28-2.09,1.96-3.66,1.96c-2.7,0-4.72-1.96-4.72-4.83
		s2.02-4.81,4.72-4.81c1.51,0,2.81,0.65,3.6,1.87v-5.69H487.42z M486.16,546.43c0-2.21-1.51-3.69-3.51-3.69
		c-2.02,0-3.53,1.48-3.53,3.69s1.51,3.69,3.53,3.69C484.65,550.12,486.16,548.65,486.16,546.43z"/>
	<path class="st6" d="M499.33,541.7v9.47h-1.22v-1.73c-0.67,1.15-1.89,1.82-3.4,1.82c-2.41,0-4-1.35-4-4.07v-5.49h1.28v5.37
		c0,2.02,1.04,3.04,2.84,3.04c1.98,0,3.22-1.28,3.22-3.44v-4.97H499.33z"/>
	<path class="st6" d="M501.78,546.43c0-2.83,2.05-4.81,4.88-4.81c1.6,0,2.95,0.63,3.71,1.87l-0.95,0.65
		c-0.65-0.95-1.66-1.4-2.75-1.4c-2.07,0-3.58,1.48-3.58,3.69c0,2.23,1.51,3.69,3.58,3.69c1.1,0,2.11-0.43,2.75-1.39l0.95,0.65
		c-0.76,1.22-2.11,1.87-3.71,1.87C503.83,551.26,501.78,549.26,501.78,546.43z"/>
	<path class="st6" d="M517.67,550.59c-0.5,0.45-1.26,0.67-2,0.67c-1.78,0-2.77-1.01-2.77-2.75v-5.73h-1.69v-1.08h1.69v-2.07h1.28
		v2.07h2.88v1.08h-2.88v5.65c0,1.12,0.58,1.73,1.64,1.73c0.52,0,1.04-0.16,1.41-0.49L517.67,550.59z"/>
	<path class="st6" d="M519.53,538.71c0-0.49,0.41-0.9,0.94-0.9s0.94,0.4,0.94,0.88c0,0.52-0.4,0.94-0.94,0.94
		C519.94,539.63,519.53,539.21,519.53,538.71z M519.81,541.7h1.28v9.47h-1.28V541.7z"/>
	<path class="st6" d="M523.52,546.43c0-2.81,2.05-4.81,4.83-4.81c2.77,0,4.81,2,4.81,4.81s-2.03,4.83-4.81,4.83
		C525.57,551.26,523.52,549.24,523.52,546.43z M531.86,546.43c0-2.21-1.5-3.69-3.51-3.69s-3.53,1.48-3.53,3.69s1.51,3.69,3.53,3.69
		S531.86,548.65,531.86,546.43z"/>
	<path class="st6" d="M544.3,545.68v5.49h-1.28v-5.37c0-2-1.04-3.03-2.84-3.03c-2.04,0-3.31,1.26-3.31,3.42v4.97h-1.28v-9.47h1.22
		v1.75c0.68-1.15,1.96-1.82,3.6-1.82C542.71,541.63,544.3,542.96,544.3,545.68z"/>
	<path class="st6" d="M553.58,540.58v1.12h2.92v1.08h-2.88v8.39h-1.28v-8.39h-1.69v-1.08h1.69v-1.17c0-1.69,1.01-2.81,2.86-2.81
		c0.7,0,1.42,0.2,1.89,0.59l-0.43,0.95c-0.36-0.31-0.86-0.47-1.41-0.47C554.16,538.8,553.58,539.41,553.58,540.58z"/>
	<path class="st6" d="M565.19,545.3v5.87h-1.22v-1.48c-0.58,0.97-1.69,1.57-3.26,1.57c-2.14,0-3.46-1.12-3.46-2.75
		c0-1.46,0.94-2.68,3.66-2.68h3.01v-0.58c0-1.62-0.92-2.5-2.68-2.5c-1.22,0-2.38,0.43-3.15,1.12l-0.58-0.95
		c0.95-0.81,2.36-1.28,3.85-1.28C563.81,541.63,565.19,542.85,565.19,545.3z M563.92,548.32v-1.55h-2.97
		c-1.84,0-2.43,0.72-2.43,1.69c0,1.1,0.88,1.78,2.39,1.78C562.35,550.25,563.41,549.57,563.92,548.32z"/>
	<path class="st6" d="M567.53,546.43c0-2.83,2.05-4.81,4.88-4.81c1.6,0,2.95,0.63,3.71,1.87l-0.95,0.65
		c-0.65-0.95-1.66-1.4-2.75-1.4c-2.07,0-3.58,1.48-3.58,3.69c0,2.23,1.51,3.69,3.58,3.69c1.1,0,2.11-0.43,2.75-1.39l0.95,0.65
		c-0.76,1.22-2.11,1.87-3.71,1.87C569.58,551.26,567.53,549.26,567.53,546.43z"/>
	<path class="st6" d="M583.43,550.59c-0.5,0.45-1.26,0.67-2,0.67c-1.78,0-2.77-1.01-2.77-2.75v-5.73h-1.69v-1.08h1.69v-2.07h1.28
		v2.07h2.88v1.08h-2.88v5.65c0,1.12,0.58,1.73,1.64,1.73c0.52,0,1.04-0.16,1.41-0.49L583.43,550.59z"/>
	<path class="st6" d="M584.61,546.43c0-2.81,2.05-4.81,4.83-4.81c2.77,0,4.81,2,4.81,4.81s-2.03,4.83-4.81,4.83
		C586.67,551.26,584.61,549.24,584.61,546.43z M592.95,546.43c0-2.21-1.5-3.69-3.51-3.69s-3.53,1.48-3.53,3.69s1.51,3.69,3.53,3.69
		S592.95,548.65,592.95,546.43z"/>
	<path class="st6" d="M601.44,541.63v1.24c-0.11,0-0.22-0.02-0.31-0.02c-1.98,0-3.19,1.26-3.19,3.49v4.83h-1.28v-9.47h1.22v1.85
		C598.49,542.29,599.7,541.63,601.44,541.63z"/>
	<path class="st6" d="M611.67,541.7l-4.74,10.61c-0.79,1.85-1.8,2.45-3.15,2.45c-0.88,0-1.73-0.29-2.3-0.86l0.59-0.95
		c0.47,0.47,1.04,0.72,1.73,0.72c0.85,0,1.42-0.4,1.96-1.58l0.41-0.92l-4.23-9.45h1.33l3.56,8.05l3.57-8.05H611.67z"/>
	<path class="st6" d="M616.99,542.6c0-0.56,0.43-0.97,0.95-0.97c0.52,0,0.97,0.41,0.97,0.97c0,0.56-0.45,0.99-0.97,0.99
		C617.43,543.59,616.99,543.16,616.99,542.6z M616.99,550.27c0-0.56,0.43-0.97,0.95-0.97c0.52,0,0.97,0.41,0.97,0.97
		c0,0.56-0.45,0.99-0.97,0.99C617.43,551.26,616.99,550.83,616.99,550.27z"/>
	<path class="st6" d="M636.13,542.89c0,2.68-1.95,4.3-5.15,4.3h-3.39v3.98h-1.33v-12.6h4.72
		C634.19,538.57,636.13,540.19,636.13,542.89z M634.8,542.89c0-2.02-1.33-3.17-3.85-3.17h-3.35v6.3h3.35
		C633.47,546.02,634.8,544.87,634.8,542.89z"/>
	<path class="st6" d="M643.51,541.63v1.24c-0.11,0-0.22-0.02-0.31-0.02c-1.98,0-3.19,1.26-3.19,3.49v4.83h-1.28v-9.47h1.22v1.85
		C640.56,542.29,641.76,541.63,643.51,541.63z"/>
	<path class="st6" d="M644.82,546.43c0-2.81,2.05-4.81,4.83-4.81c2.77,0,4.81,2,4.81,4.81s-2.03,4.83-4.81,4.83
		C646.87,551.26,644.82,549.24,644.82,546.43z M653.16,546.43c0-2.21-1.5-3.69-3.51-3.69s-3.53,1.48-3.53,3.69s1.51,3.69,3.53,3.69
		S653.16,548.65,653.16,546.43z"/>
	<path class="st6" d="M665.52,537.81v13.36h-1.22v-1.87c-0.77,1.28-2.09,1.96-3.66,1.96c-2.7,0-4.72-1.96-4.72-4.83
		s2.02-4.81,4.72-4.81c1.51,0,2.81,0.65,3.6,1.87v-5.69H665.52z M664.26,546.43c0-2.21-1.51-3.69-3.51-3.69
		c-2.02,0-3.53,1.48-3.53,3.69s1.51,3.69,3.53,3.69C662.75,550.12,664.26,548.65,664.26,546.43z"/>
	<path class="st6" d="M677.44,541.7v9.47h-1.22v-1.73c-0.67,1.15-1.89,1.82-3.4,1.82c-2.41,0-4-1.35-4-4.07v-5.49h1.28v5.37
		c0,2.02,1.04,3.04,2.84,3.04c1.98,0,3.22-1.28,3.22-3.44v-4.97H677.44z"/>
	<path class="st6" d="M679.89,546.43c0-2.83,2.05-4.81,4.88-4.81c1.6,0,2.95,0.63,3.71,1.87l-0.95,0.65
		c-0.65-0.95-1.66-1.4-2.75-1.4c-2.07,0-3.58,1.48-3.58,3.69c0,2.23,1.51,3.69,3.58,3.69c1.1,0,2.11-0.43,2.75-1.39l0.95,0.65
		c-0.76,1.22-2.11,1.87-3.71,1.87C681.94,551.26,679.89,549.26,679.89,546.43z"/>
	<path class="st6" d="M695.78,550.59c-0.5,0.45-1.26,0.67-2,0.67c-1.78,0-2.77-1.01-2.77-2.75v-5.73h-1.69v-1.08h1.69v-2.07h1.28
		v2.07h2.88v1.08h-2.88v5.65c0,1.12,0.58,1.73,1.64,1.73c0.52,0,1.04-0.16,1.41-0.49L695.78,550.59z"/>
	<path class="st6" d="M697.63,538.71c0-0.49,0.41-0.9,0.94-0.9s0.94,0.4,0.94,0.88c0,0.52-0.4,0.94-0.94,0.94
		C698.05,539.63,697.63,539.21,697.63,538.71z M697.92,541.7h1.28v9.47h-1.28V541.7z"/>
	<path class="st6" d="M701.63,546.43c0-2.81,2.05-4.81,4.83-4.81c2.77,0,4.81,2,4.81,4.81s-2.03,4.83-4.81,4.83
		C703.68,551.26,701.63,549.24,701.63,546.43z M709.97,546.43c0-2.21-1.5-3.69-3.51-3.69s-3.53,1.48-3.53,3.69s1.51,3.69,3.53,3.69
		S709.97,548.65,709.97,546.43z"/>
	<path class="st6" d="M722.4,545.68v5.49h-1.28v-5.37c0-2-1.04-3.03-2.84-3.03c-2.04,0-3.31,1.26-3.31,3.42v4.97h-1.28v-9.47h1.22
		v1.75c0.68-1.15,1.96-1.82,3.6-1.82C720.82,541.63,722.4,542.96,722.4,545.68z"/>
	<path class="st6" d="M729.28,546.43c0-2.81,2.05-4.81,4.83-4.81c2.77,0,4.81,2,4.81,4.81s-2.03,4.83-4.81,4.83
		C731.33,551.26,729.28,549.24,729.28,546.43z M737.61,546.43c0-2.21-1.5-3.69-3.51-3.69s-3.53,1.48-3.53,3.69s1.51,3.69,3.53,3.69
		S737.61,548.65,737.61,546.43z"/>
	<path class="st6" d="M742.8,540.58v1.12h2.92v1.08h-2.88v8.39h-1.28v-8.39h-1.69v-1.08h1.69v-1.17c0-1.69,1.01-2.81,2.86-2.81
		c0.7,0,1.42,0.2,1.89,0.59l-0.43,0.95c-0.36-0.31-0.86-0.47-1.41-0.47C743.37,538.8,742.8,539.41,742.8,540.58z"/>
	<path class="st6" d="M760.51,545.68v5.49h-1.28v-5.37c0-2-1.04-3.03-2.84-3.03c-2.04,0-3.31,1.26-3.31,3.42v4.97h-1.28v-13.36h1.28
		v5.55c0.7-1.1,1.95-1.73,3.55-1.73C758.93,541.63,760.51,542.96,760.51,545.68z"/>
	<path class="st6" d="M763.51,538.71c0-0.49,0.41-0.9,0.94-0.9s0.94,0.4,0.94,0.88c0,0.52-0.4,0.94-0.94,0.94
		C763.93,539.63,763.51,539.21,763.51,538.71z M763.8,541.7h1.28v9.47h-1.28V541.7z"/>
	<path class="st6" d="M777.23,541.7v8.32c0,3.26-1.6,4.74-4.74,4.74c-1.73,0-3.42-0.52-4.41-1.46l0.65-0.97
		c0.9,0.81,2.27,1.3,3.73,1.3c2.4,0,3.49-1.1,3.49-3.44v-1.21c-0.79,1.21-2.14,1.84-3.69,1.84c-2.7,0-4.75-1.89-4.75-4.61
		s2.05-4.57,4.75-4.57c1.58,0,2.95,0.65,3.75,1.89v-1.82H777.23z M775.99,546.2c0-2.05-1.51-3.46-3.6-3.46
		c-2.09,0-3.58,1.4-3.58,3.46s1.49,3.48,3.58,3.48C774.48,549.67,775.99,548.25,775.99,546.2z"/>
	<path class="st6" d="M789.34,545.68v5.49h-1.28v-5.37c0-2-1.04-3.03-2.84-3.03c-2.04,0-3.31,1.26-3.31,3.42v4.97h-1.28v-13.36h1.28
		v5.55c0.7-1.1,1.95-1.73,3.55-1.73C787.76,541.63,789.34,542.96,789.34,545.68z"/>
	<path class="st6" d="M791.93,545.73h4.72v1.12h-4.72V545.73z"/>
	<path class="st6" d="M808.93,546.43c0,2.88-2.02,4.83-4.72,4.83c-1.51,0-2.81-0.65-3.6-1.87v5.28h-1.28V541.7h1.22v1.87
		c0.77-1.26,2.09-1.94,3.66-1.94C806.91,541.63,808.93,543.57,808.93,546.43z M807.65,546.43c0-2.2-1.53-3.69-3.53-3.69
		c-2.02,0-3.53,1.5-3.53,3.69c0,2.21,1.51,3.69,3.53,3.69C806.12,550.12,807.65,548.65,807.65,546.43z"/>
	<path class="st6" d="M819.89,541.7v9.47h-1.22v-1.73c-0.67,1.15-1.89,1.82-3.4,1.82c-2.41,0-4-1.35-4-4.07v-5.49h1.28v5.37
		c0,2.02,1.04,3.04,2.84,3.04c1.98,0,3.22-1.28,3.22-3.44v-4.97H819.89z"/>
	<path class="st6" d="M828.06,541.63v1.24c-0.11,0-0.22-0.02-0.31-0.02c-1.98,0-3.19,1.26-3.19,3.49v4.83h-1.28v-9.47h1.22v1.85
		C825.11,542.29,826.31,541.63,828.06,541.63z"/>
	<path class="st6" d="M830.04,538.71c0-0.49,0.41-0.9,0.94-0.9s0.94,0.4,0.94,0.88c0,0.52-0.4,0.94-0.94,0.94
		C830.45,539.63,830.04,539.21,830.04,538.71z M830.33,541.7h1.28v9.47h-1.28V541.7z"/>
	<path class="st6" d="M839.98,550.59c-0.5,0.45-1.26,0.67-2,0.67c-1.78,0-2.77-1.01-2.77-2.75v-5.73h-1.69v-1.08h1.69v-2.07h1.28
		v2.07h2.88v1.08h-2.88v5.65c0,1.12,0.58,1.73,1.64,1.73c0.52,0,1.04-0.16,1.41-0.49L839.98,550.59z"/>
	<path class="st6" d="M850.08,541.7l-4.74,10.61c-0.79,1.85-1.8,2.45-3.15,2.45c-0.88,0-1.73-0.29-2.3-0.86l0.59-0.95
		c0.47,0.47,1.04,0.72,1.73,0.72c0.85,0,1.42-0.4,1.96-1.58l0.41-0.92l-4.23-9.45h1.33l3.56,8.05l3.57-8.05H850.08z"/>
	<path class="st6" d="M855.27,546.43c0-2.83,2.05-4.81,4.88-4.81c1.6,0,2.95,0.63,3.71,1.87l-0.95,0.65
		c-0.65-0.95-1.66-1.4-2.75-1.4c-2.07,0-3.58,1.48-3.58,3.69c0,2.23,1.51,3.69,3.58,3.69c1.1,0,2.11-0.43,2.75-1.39l0.95,0.65
		c-0.76,1.22-2.11,1.87-3.71,1.87C857.33,551.26,855.27,549.26,855.27,546.43z"/>
	<path class="st6" d="M865.23,546.43c0-2.81,2.05-4.81,4.83-4.81c2.77,0,4.81,2,4.81,4.81s-2.03,4.83-4.81,4.83
		C867.28,551.26,865.23,549.24,865.23,546.43z M873.56,546.43c0-2.21-1.5-3.69-3.51-3.69s-3.53,1.48-3.53,3.69s1.51,3.69,3.53,3.69
		S873.56,548.65,873.56,546.43z"/>
	<path class="st6" d="M886.88,546.43c0,2.88-2.02,4.83-4.72,4.83c-1.51,0-2.81-0.65-3.6-1.87v5.28h-1.28V541.7h1.22v1.87
		c0.77-1.26,2.09-1.94,3.66-1.94C884.87,541.63,886.88,543.57,886.88,546.43z M885.61,546.43c0-2.2-1.53-3.69-3.53-3.69
		c-2.02,0-3.53,1.5-3.53,3.69c0,2.21,1.51,3.69,3.53,3.69C884.08,550.12,885.61,548.65,885.61,546.43z"/>
	<path class="st6" d="M898.91,546.43c0,2.88-2.02,4.83-4.72,4.83c-1.51,0-2.81-0.65-3.6-1.87v5.28h-1.28V541.7h1.22v1.87
		c0.77-1.26,2.09-1.94,3.66-1.94C896.89,541.63,898.91,543.57,898.91,546.43z M897.63,546.43c0-2.2-1.53-3.69-3.53-3.69
		c-2.02,0-3.53,1.5-3.53,3.69c0,2.21,1.51,3.69,3.53,3.69C896.1,550.12,897.63,548.65,897.63,546.43z"/>
	<path class="st6" d="M909.58,546.83h-7.92c0.14,1.98,1.66,3.29,3.73,3.29c1.15,0,2.18-0.41,2.9-1.24l0.72,0.83
		c-0.85,1.01-2.16,1.55-3.66,1.55c-2.95,0-4.97-2.02-4.97-4.83s1.96-4.81,4.63-4.81c2.66,0,4.59,1.96,4.59,4.81
		C909.6,546.54,909.58,546.69,909.58,546.83z M901.66,545.88h6.72c-0.16-1.85-1.51-3.15-3.37-3.15
		C903.17,542.72,901.82,544.02,901.66,545.88z"/>
	<path class="st6" d="M916.8,541.63v1.24c-0.11,0-0.22-0.02-0.31-0.02c-1.98,0-3.19,1.26-3.19,3.49v4.83h-1.28v-9.47h1.22v1.85
		C913.85,542.29,915.05,541.63,916.8,541.63z"/>
	<path class="st6" d="M928.37,541.63v1.24c-0.11,0-0.22-0.02-0.31-0.02c-1.98,0-3.19,1.26-3.19,3.49v4.83h-1.28v-9.47h1.22v1.85
		C925.42,542.29,926.63,541.63,928.37,541.63z"/>
	<path class="st6" d="M929.68,546.43c0-2.81,2.05-4.81,4.83-4.81c2.77,0,4.81,2,4.81,4.81s-2.03,4.83-4.81,4.83
		C931.74,551.26,929.68,549.24,929.68,546.43z M938.02,546.43c0-2.21-1.5-3.69-3.51-3.69s-3.53,1.48-3.53,3.69s1.51,3.69,3.53,3.69
		S938.02,548.65,938.02,546.43z"/>
	<path class="st6" d="M950.39,537.81v13.36h-1.22v-1.87c-0.77,1.28-2.09,1.96-3.66,1.96c-2.7,0-4.72-1.96-4.72-4.83
		s2.02-4.81,4.72-4.81c1.51,0,2.81,0.65,3.6,1.87v-5.69H950.39z M949.13,546.43c0-2.21-1.51-3.69-3.51-3.69
		c-2.02,0-3.53,1.48-3.53,3.69s1.51,3.69,3.53,3.69C947.61,550.12,949.13,548.65,949.13,546.43z"/>
	<path class="st6" d="M952.45,550.09l0.58-1.01c0.76,0.59,2.04,1.06,3.37,1.06c1.8,0,2.54-0.61,2.54-1.55
		c0-2.47-6.14-0.52-6.14-4.27c0-1.55,1.33-2.7,3.75-2.7c1.22,0,2.56,0.34,3.35,0.88l-0.56,1.03c-0.83-0.58-1.82-0.81-2.79-0.81
		c-1.71,0-2.47,0.67-2.47,1.57c0,2.56,6.14,0.63,6.14,4.27c0,1.64-1.44,2.7-3.91,2.7C954.74,551.26,953.23,550.75,952.45,550.09z"/>
	<path class="st6" d="M210.06,576.33c0-4.63,3.76-8.39,8.39-8.39c4.63,0,8.39,3.76,8.39,8.39c0,4.66-3.8,8.39-8.39,8.39
		C213.82,584.72,210.06,580.95,210.06,576.33z M226.26,576.33c0-4.32-3.49-7.81-7.81-7.81c-4.36,0-7.81,3.55-7.81,7.81
		c0,4.32,3.49,7.81,7.81,7.81S226.26,580.65,226.26,576.33z M214.92,579.77l0.72-0.95c0.63,0.59,1.44,1.1,2.68,1.1
		c1.17,0,2-0.63,2-1.58c0-1.04-0.79-1.73-3.24-1.73v-1.1c2.14,0,2.9-0.67,2.9-1.6c0-0.86-0.63-1.39-1.71-1.39
		c-0.85,0-1.57,0.34-2.2,0.94l-0.77-0.92c0.79-0.72,1.78-1.19,3.01-1.19c1.85,0,3.17,0.88,3.17,2.47c0,1.08-0.76,1.75-1.84,2.16
		v0.05c1.22,0.31,2.2,1.08,2.2,2.38c0,1.66-1.55,2.7-3.47,2.7C216.75,581.1,215.62,580.5,214.92,579.77z"/>
	<path class="st6" d="M241.07,579.8h-7.02l-1.51,3.37h-1.39l5.76-12.6h1.31l5.76,12.6h-1.4L241.07,579.8z M240.59,578.72l-3.02-6.77
		l-3.03,6.77H240.59z"/>
	<path class="st6" d="M253.87,578.83h-7.92c0.14,1.98,1.66,3.29,3.73,3.29c1.15,0,2.18-0.41,2.9-1.24l0.72,0.83
		c-0.85,1.01-2.16,1.55-3.66,1.55c-2.95,0-4.97-2.02-4.97-4.83s1.96-4.81,4.63-4.81c2.66,0,4.59,1.96,4.59,4.81
		C253.89,578.54,253.87,578.69,253.87,578.83z M245.95,577.88h6.72c-0.16-1.85-1.51-3.15-3.37-3.15
		C247.46,574.72,246.11,576.02,245.95,577.88z"/>
	<path class="st6" d="M261.09,573.63v1.24c-0.11,0-0.22-0.02-0.31-0.02c-1.98,0-3.19,1.26-3.19,3.49v4.83h-1.28v-9.47h1.22v1.85
		C258.13,574.29,259.34,573.63,261.09,573.63z"/>
	<path class="st6" d="M263.06,570.71c0-0.49,0.41-0.9,0.94-0.9s0.94,0.4,0.94,0.88c0,0.52-0.4,0.94-0.94,0.94
		C263.48,571.63,263.06,571.21,263.06,570.71z M263.35,573.7h1.28v9.47h-1.28V573.7z"/>
	<path class="st6" d="M275.16,577.3v5.87h-1.22v-1.48c-0.58,0.97-1.69,1.57-3.26,1.57c-2.14,0-3.46-1.12-3.46-2.75
		c0-1.46,0.94-2.68,3.66-2.68h3.01v-0.58c0-1.62-0.92-2.5-2.68-2.5c-1.22,0-2.38,0.43-3.15,1.12l-0.58-0.95
		c0.95-0.81,2.36-1.28,3.85-1.28C273.78,573.63,275.16,574.85,275.16,577.3z M273.89,580.32v-1.55h-2.97
		c-1.84,0-2.43,0.72-2.43,1.69c0,1.1,0.88,1.78,2.39,1.78C272.32,582.25,273.38,581.57,273.89,580.32z"/>
	<path class="st6" d="M278.46,569.81h1.28v13.36h-1.28V569.81z"/>
	<path class="st6" d="M287.65,569.81h1.28v13.36h-1.28V569.81z"/>
	<path class="st6" d="M292.03,570.71c0-0.49,0.41-0.9,0.94-0.9s0.94,0.4,0.94,0.88c0,0.52-0.4,0.94-0.94,0.94
		C292.44,571.63,292.03,571.21,292.03,570.71z M292.31,573.7h1.28v9.47h-1.28V573.7z"/>
	<path class="st6" d="M305.69,577.68v5.49h-1.28v-5.37c0-2-1.04-3.03-2.84-3.03c-2.04,0-3.31,1.26-3.31,3.42v4.97h-1.28v-9.47h1.22
		v1.75c0.68-1.15,1.96-1.82,3.6-1.82C304.11,573.63,305.69,574.96,305.69,577.68z"/>
	<path class="st6" d="M317.23,578.83h-7.92c0.14,1.98,1.66,3.29,3.73,3.29c1.15,0,2.18-0.41,2.9-1.24l0.72,0.83
		c-0.85,1.01-2.16,1.55-3.66,1.55c-2.95,0-4.97-2.02-4.97-4.83s1.96-4.81,4.63-4.81c2.66,0,4.59,1.96,4.59,4.81
		C317.25,578.54,317.23,578.69,317.23,578.83z M309.31,577.88h6.72c-0.16-1.85-1.51-3.15-3.37-3.15
		C310.82,574.72,309.47,576.02,309.31,577.88z"/>
	<path class="st6" d="M324.3,578.24c0-3.31,0.76-6.28,2.09-8.43h1.22c-1.42,2.47-2.05,5.22-2.05,8.43s0.63,5.96,2.05,8.43h-1.22
		C325.06,584.48,324.3,581.55,324.3,578.24z"/>
	<path class="st6" d="M338.13,579.8h-7.02l-1.51,3.37h-1.39l5.76-12.6h1.31l5.76,12.6h-1.4L338.13,579.8z M337.64,578.72l-3.02-6.77
		l-3.03,6.77H337.64z"/>
	<path class="st6" d="M342.95,570.57h1.33v11.45h7.06v1.15h-8.39V570.57z"/>
	<path class="st6" d="M352.04,586.66c1.44-2.47,2.07-5.22,2.07-8.43s-0.63-5.96-2.07-8.43h1.22c1.35,2.14,2.11,5.11,2.11,8.43
		c0,3.31-0.76,6.25-2.11,8.43H352.04z"/>
	<path class="st6" d="M372.98,578.43c0,2.88-2.02,4.83-4.72,4.83c-1.51,0-2.81-0.65-3.6-1.87v5.28h-1.28V573.7h1.22v1.87
		c0.77-1.26,2.09-1.94,3.66-1.94C370.96,573.63,372.98,575.57,372.98,578.43z M371.7,578.43c0-2.2-1.53-3.69-3.53-3.69
		c-2.02,0-3.53,1.5-3.53,3.69c0,2.21,1.51,3.69,3.53,3.69C370.17,582.12,371.7,580.65,371.7,578.43z"/>
	<path class="st6" d="M380.17,573.63v1.24c-0.11,0-0.22-0.02-0.31-0.02c-1.98,0-3.19,1.26-3.19,3.49v4.83h-1.28v-9.47h1.22v1.85
		C377.22,574.29,378.43,573.63,380.17,573.63z"/>
	<path class="st6" d="M381.49,578.43c0-2.81,2.05-4.81,4.83-4.81c2.77,0,4.81,2,4.81,4.81s-2.03,4.83-4.81,4.83
		C383.54,583.26,381.49,581.24,381.49,578.43z M389.82,578.43c0-2.21-1.5-3.69-3.51-3.69s-3.53,1.48-3.53,3.69s1.51,3.69,3.53,3.69
		S389.82,580.65,389.82,578.43z"/>
	<path class="st6" d="M402.19,569.81v13.36h-1.22v-1.87c-0.77,1.28-2.09,1.96-3.66,1.96c-2.7,0-4.72-1.96-4.72-4.83
		s2.02-4.81,4.72-4.81c1.51,0,2.81,0.65,3.6,1.87v-5.69H402.19z M400.93,578.43c0-2.21-1.51-3.69-3.51-3.69
		c-2.02,0-3.53,1.48-3.53,3.69s1.51,3.69,3.53,3.69C399.42,582.12,400.93,580.65,400.93,578.43z"/>
	<path class="st6" d="M414.1,573.7v9.47h-1.22v-1.73c-0.67,1.15-1.89,1.82-3.4,1.82c-2.41,0-4-1.35-4-4.07v-5.49h1.28v5.37
		c0,2.02,1.04,3.04,2.84,3.04c1.98,0,3.22-1.28,3.22-3.44v-4.97H414.1z"/>
	<path class="st6" d="M416.55,578.43c0-2.83,2.05-4.81,4.88-4.81c1.6,0,2.95,0.63,3.71,1.87l-0.95,0.65
		c-0.65-0.95-1.66-1.4-2.75-1.4c-2.07,0-3.58,1.48-3.58,3.69c0,2.23,1.51,3.69,3.58,3.69c1.1,0,2.11-0.43,2.75-1.39l0.95,0.65
		c-0.76,1.22-2.11,1.87-3.71,1.87C418.6,583.26,416.55,581.26,416.55,578.43z"/>
	<path class="st6" d="M432.44,582.59c-0.5,0.45-1.26,0.67-2,0.67c-1.78,0-2.77-1.01-2.77-2.75v-5.73h-1.69v-1.08h1.69v-2.07h1.28
		v2.07h2.88v1.08h-2.88v5.65c0,1.12,0.58,1.73,1.64,1.73c0.52,0,1.04-0.16,1.41-0.49L432.44,582.59z"/>
	<path class="st6" d="M434.3,570.71c0-0.49,0.41-0.9,0.94-0.9s0.94,0.4,0.94,0.88c0,0.52-0.4,0.94-0.94,0.94
		C434.71,571.63,434.3,571.21,434.3,570.71z M434.58,573.7h1.28v9.47h-1.28V573.7z"/>
	<path class="st6" d="M438.29,578.43c0-2.81,2.05-4.81,4.83-4.81c2.77,0,4.81,2,4.81,4.81s-2.03,4.83-4.81,4.83
		C440.35,583.26,438.29,581.24,438.29,578.43z M446.63,578.43c0-2.21-1.5-3.69-3.51-3.69s-3.53,1.48-3.53,3.69s1.51,3.69,3.53,3.69
		S446.63,580.65,446.63,578.43z"/>
	<path class="st6" d="M459.07,577.68v5.49h-1.28v-5.37c0-2-1.04-3.03-2.84-3.03c-2.04,0-3.31,1.26-3.31,3.42v4.97h-1.28v-9.47h1.22
		v1.75c0.68-1.15,1.96-1.82,3.6-1.82C457.48,573.63,459.07,574.96,459.07,577.68z"/>
	<path class="st6" d="M468.35,572.58v1.12h2.92v1.08h-2.88v8.39h-1.28v-8.39h-1.69v-1.08h1.69v-1.17c0-1.69,1.01-2.81,2.86-2.81
		c0.7,0,1.42,0.2,1.89,0.59l-0.43,0.95c-0.36-0.31-0.86-0.47-1.41-0.47C468.93,570.8,468.35,571.41,468.35,572.58z"/>
	<path class="st6" d="M479.96,577.3v5.87h-1.22v-1.48c-0.58,0.97-1.69,1.57-3.26,1.57c-2.14,0-3.46-1.12-3.46-2.75
		c0-1.46,0.94-2.68,3.66-2.68h3.01v-0.58c0-1.62-0.92-2.5-2.68-2.5c-1.22,0-2.38,0.43-3.15,1.12l-0.58-0.95
		c0.95-0.81,2.36-1.28,3.85-1.28C478.58,573.63,479.96,574.85,479.96,577.3z M478.69,580.32v-1.55h-2.97
		c-1.84,0-2.43,0.72-2.43,1.69c0,1.1,0.88,1.78,2.39,1.78C477.12,582.25,478.18,581.57,478.69,580.32z"/>
	<path class="st6" d="M482.3,578.43c0-2.83,2.05-4.81,4.88-4.81c1.6,0,2.95,0.63,3.71,1.87l-0.95,0.65c-0.65-0.95-1.66-1.4-2.75-1.4
		c-2.07,0-3.58,1.48-3.58,3.69c0,2.23,1.51,3.69,3.58,3.69c1.1,0,2.11-0.43,2.75-1.39l0.95,0.65c-0.76,1.22-2.11,1.87-3.71,1.87
		C484.35,583.26,482.3,581.26,482.3,578.43z"/>
	<path class="st6" d="M498.2,582.59c-0.5,0.45-1.26,0.67-2,0.67c-1.78,0-2.77-1.01-2.77-2.75v-5.73h-1.69v-1.08h1.69v-2.07h1.28
		v2.07h2.88v1.08h-2.88v5.65c0,1.12,0.58,1.73,1.64,1.73c0.52,0,1.04-0.16,1.41-0.49L498.2,582.59z"/>
	<path class="st6" d="M499.38,578.43c0-2.81,2.05-4.81,4.83-4.81c2.77,0,4.81,2,4.81,4.81s-2.03,4.83-4.81,4.83
		C501.44,583.26,499.38,581.24,499.38,578.43z M507.72,578.43c0-2.21-1.5-3.69-3.51-3.69s-3.53,1.48-3.53,3.69s1.51,3.69,3.53,3.69
		S507.72,580.65,507.72,578.43z"/>
	<path class="st6" d="M516.22,573.63v1.24c-0.11,0-0.22-0.02-0.31-0.02c-1.98,0-3.19,1.26-3.19,3.49v4.83h-1.28v-9.47h1.22v1.85
		C513.26,574.29,514.47,573.63,516.22,573.63z"/>
	<path class="st6" d="M526.44,573.7l-4.74,10.61c-0.79,1.85-1.8,2.45-3.15,2.45c-0.88,0-1.73-0.29-2.3-0.86l0.59-0.95
		c0.47,0.47,1.04,0.72,1.73,0.72c0.85,0,1.42-0.4,1.96-1.58l0.41-0.92l-4.23-9.45h1.33l3.56,8.05l3.57-8.05H526.44z"/>
	<path class="st6" d="M531.77,574.6c0-0.56,0.43-0.97,0.95-0.97c0.52,0,0.97,0.41,0.97,0.97c0,0.56-0.45,0.99-0.97,0.99
		C532.2,575.59,531.77,575.16,531.77,574.6z M531.77,582.27c0-0.56,0.43-0.97,0.95-0.97c0.52,0,0.97,0.41,0.97,0.97
		c0,0.56-0.45,0.99-0.97,0.99C532.2,583.26,531.77,582.83,531.77,582.27z"/>
	<path class="st6" d="M550.9,574.89c0,2.68-1.95,4.3-5.15,4.3h-3.39v3.98h-1.33v-12.6h4.72C548.96,570.57,550.9,572.19,550.9,574.89
		z M549.57,574.89c0-2.02-1.33-3.17-3.85-3.17h-3.35v6.3h3.35C548.24,578.02,549.57,576.87,549.57,574.89z"/>
	<path class="st6" d="M558.28,573.63v1.24c-0.11,0-0.22-0.02-0.31-0.02c-1.98,0-3.19,1.26-3.19,3.49v4.83h-1.28v-9.47h1.22v1.85
		C555.33,574.29,556.53,573.63,558.28,573.63z"/>
	<path class="st6" d="M559.59,578.43c0-2.81,2.05-4.81,4.83-4.81c2.77,0,4.81,2,4.81,4.81s-2.03,4.83-4.81,4.83
		C561.65,583.26,559.59,581.24,559.59,578.43z M567.93,578.43c0-2.21-1.5-3.69-3.51-3.69s-3.53,1.48-3.53,3.69s1.51,3.69,3.53,3.69
		S567.93,580.65,567.93,578.43z"/>
	<path class="st6" d="M580.3,569.81v13.36h-1.22v-1.87c-0.77,1.28-2.09,1.96-3.66,1.96c-2.7,0-4.72-1.96-4.72-4.83
		s2.02-4.81,4.72-4.81c1.51,0,2.81,0.65,3.6,1.87v-5.69H580.3z M579.04,578.43c0-2.21-1.51-3.69-3.51-3.69
		c-2.02,0-3.53,1.48-3.53,3.69s1.51,3.69,3.53,3.69C577.52,582.12,579.04,580.65,579.04,578.43z"/>
	<path class="st6" d="M592.21,573.7v9.47h-1.22v-1.73c-0.67,1.15-1.89,1.82-3.4,1.82c-2.41,0-4-1.35-4-4.07v-5.49h1.28v5.37
		c0,2.02,1.04,3.04,2.84,3.04c1.98,0,3.22-1.28,3.22-3.44v-4.97H592.21z"/>
	<path class="st6" d="M594.66,578.43c0-2.83,2.05-4.81,4.88-4.81c1.6,0,2.95,0.63,3.71,1.87l-0.95,0.65
		c-0.65-0.95-1.66-1.4-2.75-1.4c-2.07,0-3.58,1.48-3.58,3.69c0,2.23,1.51,3.69,3.58,3.69c1.1,0,2.11-0.43,2.75-1.39l0.95,0.65
		c-0.76,1.22-2.11,1.87-3.71,1.87C596.71,583.26,594.66,581.26,594.66,578.43z"/>
	<path class="st6" d="M610.55,582.59c-0.5,0.45-1.26,0.67-2,0.67c-1.78,0-2.77-1.01-2.77-2.75v-5.73h-1.69v-1.08h1.69v-2.07h1.28
		v2.07h2.88v1.08h-2.88v5.65c0,1.12,0.58,1.73,1.64,1.73c0.52,0,1.04-0.16,1.41-0.49L610.55,582.59z"/>
	<path class="st6" d="M612.4,570.71c0-0.49,0.41-0.9,0.94-0.9s0.94,0.4,0.94,0.88c0,0.52-0.4,0.94-0.94,0.94
		C612.82,571.63,612.4,571.21,612.4,570.71z M612.69,573.7h1.28v9.47h-1.28V573.7z"/>
	<path class="st6" d="M616.4,578.43c0-2.81,2.05-4.81,4.83-4.81c2.77,0,4.81,2,4.81,4.81s-2.03,4.83-4.81,4.83
		C618.45,583.26,616.4,581.24,616.4,578.43z M624.74,578.43c0-2.21-1.5-3.69-3.51-3.69s-3.53,1.48-3.53,3.69s1.51,3.69,3.53,3.69
		S624.74,580.65,624.74,578.43z"/>
	<path class="st6" d="M637.17,577.68v5.49h-1.28v-5.37c0-2-1.04-3.03-2.84-3.03c-2.04,0-3.31,1.26-3.31,3.42v4.97h-1.28v-9.47h1.22
		v1.75c0.68-1.15,1.96-1.82,3.6-1.82C635.59,573.63,637.17,574.96,637.17,577.68z"/>
	<path class="st6" d="M644.05,578.43c0-2.81,2.05-4.81,4.83-4.81c2.77,0,4.81,2,4.81,4.81s-2.03,4.83-4.81,4.83
		C646.1,583.26,644.05,581.24,644.05,578.43z M652.38,578.43c0-2.21-1.5-3.69-3.51-3.69s-3.53,1.48-3.53,3.69s1.51,3.69,3.53,3.69
		S652.38,580.65,652.38,578.43z"/>
	<path class="st6" d="M657.57,572.58v1.12h2.92v1.08h-2.88v8.39h-1.28v-8.39h-1.69v-1.08h1.69v-1.17c0-1.69,1.01-2.81,2.86-2.81
		c0.7,0,1.42,0.2,1.89,0.59l-0.43,0.95c-0.36-0.31-0.86-0.47-1.41-0.47C658.14,570.8,657.57,571.41,657.57,572.58z"/>
	<path class="st6" d="M674.74,579.8h-7.02l-1.51,3.37h-1.39l5.76-12.6h1.31l5.76,12.6h-1.4L674.74,579.8z M674.25,578.72l-3.02-6.77
		l-3.03,6.77H674.25z"/>
	<path class="st6" d="M678.44,576.87c0-3.69,2.81-6.41,6.61-6.41c1.84,0,3.49,0.61,4.61,1.84l-0.85,0.85
		c-1.03-1.04-2.29-1.49-3.73-1.49c-3.04,0-5.33,2.23-5.33,5.22c0,2.99,2.29,5.22,5.33,5.22c1.44,0,2.7-0.45,3.73-1.51l0.85,0.85
		c-1.12,1.22-2.77,1.85-4.63,1.85C681.25,583.28,678.44,580.56,678.44,576.87z"/>
	<path class="st6" d="M691.21,576.87c0-3.69,2.81-6.41,6.61-6.41c1.84,0,3.49,0.61,4.61,1.84l-0.85,0.85
		c-1.03-1.04-2.29-1.49-3.73-1.49c-3.04,0-5.33,2.23-5.33,5.22c0,2.99,2.29,5.22,5.33,5.22c1.44,0,2.7-0.45,3.73-1.51l0.85,0.85
		c-1.12,1.22-2.77,1.85-4.63,1.85C694.02,583.28,691.21,580.56,691.21,576.87z"/>
	<path class="st6" d="M703.97,576.87c0-3.69,2.81-6.41,6.61-6.41c1.84,0,3.49,0.61,4.61,1.84l-0.85,0.85
		c-1.03-1.04-2.29-1.49-3.73-1.49c-3.04,0-5.33,2.23-5.33,5.22c0,2.99,2.29,5.22,5.33,5.22c1.44,0,2.7-0.45,3.73-1.51l0.85,0.85
		c-1.12,1.22-2.77,1.85-4.63,1.85C706.78,583.28,703.97,580.56,703.97,576.87z"/>
	<path class="st6" d="M730.83,577.68v5.49h-1.28v-5.37c0-2-1.04-3.03-2.84-3.03c-2.04,0-3.31,1.26-3.31,3.42v4.97h-1.28v-13.36h1.28
		v5.55c0.7-1.1,1.95-1.73,3.55-1.73C729.24,573.63,730.83,574.96,730.83,577.68z"/>
	<path class="st6" d="M733.83,570.71c0-0.49,0.41-0.9,0.94-0.9s0.94,0.4,0.94,0.88c0,0.52-0.4,0.94-0.94,0.94
		C734.24,571.63,733.83,571.21,733.83,570.71z M734.12,573.7h1.28v9.47h-1.28V573.7z"/>
	<path class="st6" d="M747.55,573.7v8.32c0,3.26-1.6,4.74-4.74,4.74c-1.73,0-3.42-0.52-4.41-1.46l0.65-0.97
		c0.9,0.81,2.27,1.3,3.73,1.3c2.4,0,3.49-1.1,3.49-3.44v-1.21c-0.79,1.21-2.14,1.84-3.69,1.84c-2.7,0-4.75-1.89-4.75-4.61
		s2.05-4.57,4.75-4.57c1.58,0,2.95,0.65,3.75,1.89v-1.82H747.55z M746.31,578.2c0-2.05-1.51-3.46-3.6-3.46
		c-2.09,0-3.58,1.4-3.58,3.46s1.49,3.48,3.58,3.48C744.79,581.67,746.31,580.25,746.31,578.2z"/>
	<path class="st6" d="M759.66,577.68v5.49h-1.28v-5.37c0-2-1.04-3.03-2.84-3.03c-2.04,0-3.31,1.26-3.31,3.42v4.97h-1.28v-13.36h1.28
		v5.55c0.7-1.1,1.95-1.73,3.55-1.73C758.08,573.63,759.66,574.96,759.66,577.68z"/>
	<path class="st6" d="M762.25,577.73h4.72v1.12h-4.72V577.73z"/>
	<path class="st6" d="M768.7,578.43c0-2.83,2.05-4.81,4.88-4.81c1.6,0,2.95,0.63,3.71,1.87l-0.95,0.65c-0.65-0.95-1.66-1.4-2.75-1.4
		c-2.07,0-3.58,1.48-3.58,3.69c0,2.23,1.51,3.69,3.58,3.69c1.1,0,2.11-0.43,2.75-1.39l0.95,0.65c-0.76,1.22-2.11,1.87-3.71,1.87
		C770.75,583.26,768.7,581.26,768.7,578.43z"/>
	<path class="st6" d="M786.75,577.3v5.87h-1.22v-1.48c-0.58,0.97-1.69,1.57-3.26,1.57c-2.14,0-3.46-1.12-3.46-2.75
		c0-1.46,0.94-2.68,3.66-2.68h3.01v-0.58c0-1.62-0.92-2.5-2.68-2.5c-1.22,0-2.38,0.43-3.15,1.12l-0.58-0.95
		c0.95-0.81,2.36-1.28,3.85-1.28C785.36,573.63,786.75,574.85,786.75,577.3z M785.47,580.32v-1.55h-2.97
		c-1.84,0-2.43,0.72-2.43,1.69c0,1.1,0.88,1.78,2.39,1.78C783.91,582.25,784.97,581.57,785.47,580.32z"/>
	<path class="st6" d="M799.64,578.43c0,2.88-2.02,4.83-4.72,4.83c-1.51,0-2.81-0.65-3.6-1.87v5.28h-1.28V573.7h1.22v1.87
		c0.77-1.26,2.09-1.94,3.66-1.94C797.62,573.63,799.64,575.57,799.64,578.43z M798.36,578.43c0-2.2-1.53-3.69-3.53-3.69
		c-2.02,0-3.53,1.5-3.53,3.69c0,2.21,1.51,3.69,3.53,3.69C796.83,582.12,798.36,580.65,798.36,578.43z"/>
	<path class="st6" d="M809.22,577.3v5.87h-1.22v-1.48c-0.58,0.97-1.69,1.57-3.26,1.57c-2.14,0-3.46-1.12-3.46-2.75
		c0-1.46,0.94-2.68,3.66-2.68h3.01v-0.58c0-1.62-0.92-2.5-2.68-2.5c-1.22,0-2.38,0.43-3.15,1.12l-0.58-0.95
		c0.95-0.81,2.36-1.28,3.85-1.28C807.83,573.63,809.22,574.85,809.22,577.3z M807.94,580.32v-1.55h-2.97
		c-1.84,0-2.43,0.72-2.43,1.69c0,1.1,0.88,1.78,2.39,1.78C806.37,582.25,807.43,581.57,807.94,580.32z"/>
	<path class="st6" d="M811.55,578.43c0-2.83,2.05-4.81,4.88-4.81c1.6,0,2.95,0.63,3.71,1.87l-0.95,0.65
		c-0.65-0.95-1.66-1.4-2.75-1.4c-2.07,0-3.58,1.48-3.58,3.69c0,2.23,1.51,3.69,3.58,3.69c1.1,0,2.11-0.43,2.75-1.39l0.95,0.65
		c-0.76,1.22-2.11,1.87-3.71,1.87C813.61,583.26,811.55,581.26,811.55,578.43z"/>
	<path class="st6" d="M822.17,570.71c0-0.49,0.41-0.9,0.94-0.9s0.94,0.4,0.94,0.88c0,0.52-0.4,0.94-0.94,0.94
		C822.59,571.63,822.17,571.21,822.17,570.71z M822.46,573.7h1.28v9.47h-1.28V573.7z"/>
	<path class="st6" d="M832.11,582.59c-0.5,0.45-1.26,0.67-2,0.67c-1.78,0-2.77-1.01-2.77-2.75v-5.73h-1.69v-1.08h1.69v-2.07h1.28
		v2.07h2.88v1.08h-2.88v5.65c0,1.12,0.58,1.73,1.64,1.73c0.52,0,1.04-0.16,1.41-0.49L832.11,582.59z"/>
	<path class="st6" d="M842.21,573.7l-4.74,10.61c-0.79,1.85-1.8,2.45-3.15,2.45c-0.88,0-1.73-0.29-2.3-0.86l0.59-0.95
		c0.47,0.47,1.04,0.72,1.73,0.72c0.85,0,1.42-0.4,1.96-1.58l0.41-0.92l-4.23-9.45h1.33l3.56,8.05l3.57-8.05H842.21z"/>
	<path class="st6" d="M855.51,577.3v5.87h-1.22v-1.48c-0.58,0.97-1.69,1.57-3.26,1.57c-2.14,0-3.46-1.12-3.46-2.75
		c0-1.46,0.94-2.68,3.66-2.68h3.01v-0.58c0-1.62-0.92-2.5-2.68-2.5c-1.22,0-2.38,0.43-3.15,1.12l-0.58-0.95
		c0.95-0.81,2.36-1.28,3.85-1.28C854.12,573.63,855.51,574.85,855.51,577.3z M854.23,580.32v-1.55h-2.97
		c-1.84,0-2.43,0.72-2.43,1.69c0,1.1,0.88,1.78,2.39,1.78C852.67,582.25,853.73,581.57,854.23,580.32z"/>
	<path class="st6" d="M867.05,578.83h-7.92c0.14,1.98,1.66,3.29,3.73,3.29c1.15,0,2.18-0.41,2.9-1.24l0.72,0.83
		c-0.85,1.01-2.16,1.55-3.66,1.55c-2.95,0-4.97-2.02-4.97-4.83s1.96-4.81,4.63-4.81c2.66,0,4.59,1.96,4.59,4.81
		C867.07,578.54,867.05,578.69,867.05,578.83z M859.13,577.88h6.72c-0.16-1.85-1.51-3.15-3.37-3.15
		C860.64,574.72,859.29,576.02,859.13,577.88z"/>
	<path class="st6" d="M874.27,573.63v1.24c-0.11,0-0.22-0.02-0.31-0.02c-1.98,0-3.19,1.26-3.19,3.49v4.83h-1.28v-9.47h1.22v1.85
		C871.31,574.29,872.52,573.63,874.27,573.63z"/>
	<path class="st6" d="M876.24,570.71c0-0.49,0.41-0.9,0.94-0.9s0.94,0.4,0.94,0.88c0,0.52-0.4,0.94-0.94,0.94
		C876.66,571.63,876.24,571.21,876.24,570.71z M876.53,573.7h1.28v9.47h-1.28V573.7z"/>
	<path class="st6" d="M888.34,577.3v5.87h-1.22v-1.48c-0.58,0.97-1.69,1.57-3.26,1.57c-2.14,0-3.46-1.12-3.46-2.75
		c0-1.46,0.94-2.68,3.66-2.68h3.01v-0.58c0-1.62-0.92-2.5-2.68-2.5c-1.22,0-2.38,0.43-3.15,1.12l-0.58-0.95
		c0.95-0.81,2.36-1.28,3.85-1.28C886.96,573.63,888.34,574.85,888.34,577.3z M887.06,580.32v-1.55h-2.97
		c-1.84,0-2.43,0.72-2.43,1.69c0,1.1,0.88,1.78,2.39,1.78C885.5,582.25,886.56,581.57,887.06,580.32z"/>
	<path class="st6" d="M891.63,569.81h1.28v13.36h-1.28V569.81z"/>
	<path class="st6" d="M900.83,569.81h1.28v13.36h-1.28V569.81z"/>
	<path class="st6" d="M905.21,570.71c0-0.49,0.41-0.9,0.94-0.9s0.94,0.4,0.94,0.88c0,0.52-0.4,0.94-0.94,0.94
		C905.62,571.63,905.21,571.21,905.21,570.71z M905.49,573.7h1.28v9.47h-1.28V573.7z"/>
	<path class="st6" d="M918.87,577.68v5.49h-1.28v-5.37c0-2-1.04-3.03-2.84-3.03c-2.04,0-3.31,1.26-3.31,3.42v4.97h-1.28v-9.47h1.22
		v1.75c0.68-1.15,1.96-1.82,3.6-1.82C917.29,573.63,918.87,574.96,918.87,577.68z"/>
	<path class="st6" d="M930.41,578.83h-7.92c0.14,1.98,1.66,3.29,3.73,3.29c1.15,0,2.18-0.41,2.9-1.24l0.72,0.83
		c-0.85,1.01-2.16,1.55-3.66,1.55c-2.95,0-4.97-2.02-4.97-4.83s1.96-4.81,4.63-4.81c2.66,0,4.59,1.96,4.59,4.81
		C930.43,578.54,930.41,578.69,930.41,578.83z M922.49,577.88h6.72c-0.16-1.85-1.51-3.15-3.37-3.15
		C924,574.72,922.65,576.02,922.49,577.88z"/>
	<path class="st6" d="M931.54,582.09l0.58-1.01c0.76,0.59,2.04,1.06,3.37,1.06c1.8,0,2.54-0.61,2.54-1.55
		c0-2.47-6.14-0.52-6.14-4.27c0-1.55,1.33-2.7,3.75-2.7c1.22,0,2.56,0.34,3.35,0.88l-0.56,1.03c-0.83-0.58-1.82-0.81-2.79-0.81
		c-1.71,0-2.47,0.67-2.47,1.57c0,2.56,6.14,0.63,6.14,4.27c0,1.64-1.44,2.7-3.91,2.7C933.83,583.26,932.31,582.75,931.54,582.09z"/>
</g>
</svg>
