<svg xmlns="http://www.w3.org/2000/svg" viewBox="0 0 73.7 73.7" style="enable-background:new 0 0 73.7 73.7" xml:space="preserve">
    <path d="M62 48c6-.8 10.7-6 10.7-12.2 0-4.3-2.2-8.1-5.6-10.3-1.9-1.3-4.2-2-6.7-2-.3 0-.6 0-1 .1.2-.9.3-1.8.3-2.8v-.5c-.2-4.9-2.6-9.1-6.4-11.8-2.5-1.7-5.4-2.8-8.7-2.8-1.4 0-2.7.2-4 .5-5.2 1.4-9.3 5.6-10.6 10.9-1.9-1.4-4.2-2.2-6.7-2.2h-.4c-1.2 0-2.4.3-3.5.7 0 0 0 0 0 0-4.4 1.6-7.5 5.8-7.5 10.8 0 .8.1 1.5.2 2.3-.4-.1-.9-.1-1.3-.1C5.3 28.6 1 33 1 38.4c0 1.8.5 3.4 1.3 4.8 1.7 2.9 4.8 4.9 8.4 4.9h28.8M71.6 66.4c-2.1-2.1-5.6-2.1-7.7 0h0c-2.1 2.1-5.6 2.1-7.7 0h0c-2.1-2.1-5.6-2.1-7.7 0h0c-2.1 2.1-5.6 2.1-7.7 0h0c-2.1-2.1-5.6-2.1-7.7 0h0c-2.1 2.1-5.6 2.1-7.7 0h0c-2.1-2.1-5.6-2.1-7.7 0h0c-2.1 2.1-5.6 2.1-7.7 0h0c-2.1-2.1-5.6-2.1-7.7 0h0" style="fill:none;stroke:#fff;stroke-width:1.7;stroke-linecap:round;stroke-linejoin:round;stroke-miterlimit:10"/>
    <path d="M62.1 46.5c0 6.2-5.1 11.3-11.3 11.3s-11.3-5.1-11.3-11.3 11.3-19.1 11.3-19.1 11.3 12.9 11.3 19.1z" style="fill:none;stroke:#fff;stroke-width:1.7;stroke-linecap:round;stroke-linejoin:round;stroke-miterlimit:10"/>
    <path d="M56.6 50c-1.5 2.9-3.9 3.9-7.4 3.9" style="fill:none;stroke:#fff;stroke-width:1.7;stroke-linecap:round;stroke-linejoin:round;stroke-miterlimit:10"/>
    <path d="M58.2 45.4c-.1.4-.3 1.2-.7 1.6" style="fill:#fff;stroke:#fff;stroke-width:1.7;stroke-linecap:round;stroke-linejoin:round;stroke-miterlimit:10"/>
</svg>
