<svg xmlns="http://www.w3.org/2000/svg" viewBox="0 0 73.7 73.7" style="enable-background:new 0 0 73.7 73.7" xml:space="preserve">
    <path d="M26.8 60 49 66.1l21.6-13.5c1.2-.8 1.6-2.4.7-3.6v0c-.7-.9-2-1.3-3-.8L51 56l-8.1-4.1" style="fill:none;stroke:#fff;stroke-width:1.5;stroke-linecap:round;stroke-linejoin:round;stroke-miterlimit:10"/>
    <path d="M32.2 51.9h20.5c1.2 0 2.1-1 2.1-2.2v0c0-1.1-.8-2.1-1.8-2.2L32.2 43l-4.8 1.2M16.8 63h7.3V41.9h-7.3M2 65.6h12.6V39.3H2" style="fill:none;stroke:#fff;stroke-width:1.5;stroke-linecap:round;stroke-linejoin:round;stroke-miterlimit:10"/>
    <circle cx="8.3" cy="58.2" r="2" style="fill:none;stroke:#fff;stroke-width:1.5;stroke-linecap:round;stroke-linejoin:round;stroke-miterlimit:10"/>
    <circle cx="50.1" cy="23.6" r="16" style="fill:none;stroke:#fff;stroke-width:1.5;stroke-linecap:round;stroke-linejoin:round;stroke-miterlimit:10"/>
    <path d="M51 14.7c.9.1 1.7.3 2.5.7.8.4 1.5.9 1.9 1.5l-.9.7c-.4-.4-.9-.8-1.5-1.2-.6-.3-1.3-.5-2-.6v6.3c.7.2 1.4.4 2 .7.6.3 1.2.6 1.7 1.1.5.4.9.9 1.1 1.5.3.5.4 1.2.3 1.8-.1.6-.3 1.1-.6 1.5-.3.5-.7.9-1.2 1.2-.5.3-1 .6-1.6.8-.6.2-1.2.4-1.8.5v2.7h-1.3v-2.6c-.5 0-1.1-.1-1.6-.2s-1.1-.3-1.6-.5-1-.5-1.4-.8c-.4-.3-.8-.7-1.1-1.1l1-.7c.2.3.5.6.9.9.3.3.7.5 1.2.7.4.2.9.3 1.3.4.5.1.9.2 1.4.2V23c-.7-.1-1.3-.3-1.9-.5-.6-.2-1.1-.5-1.5-.8-.4-.3-.7-.8-1-1.3-.2-.5-.4-1.2-.4-1.9 0-.6.1-1.1.4-1.5.3-.4.6-.8 1.1-1.2.4-.3.9-.6 1.5-.8.6-.2 1.2-.3 1.8-.4v-1.4H51v1.5zm-4.6 3.9c0 .5.1 1 .3 1.4.2.4.4.7.7.9.3.3.6.5 1.1.6.4.2.9.3 1.4.4v-6.1c-.4 0-.8.1-1.2.3-.4.1-.8.3-1.1.6-.3.2-.6.5-.8.9-.4.2-.4.6-.4 1zm8.4 8.4c0-.5 0-.9-.2-1.3s-.5-.8-.8-1.1c-.4-.3-.8-.6-1.3-.8-.5-.2-1-.4-1.5-.5V30c.4-.1.9-.2 1.3-.3l1.2-.6c.3-.2.6-.5.9-.9.2-.4.4-.8.4-1.2z" style="fill:#fff"/>
</svg>
