<svg xmlns="http://www.w3.org/2000/svg" viewBox="0 0 73.7 73.7" style="enable-background:new 0 0 73.7 73.7" xml:space="preserve">
    <path d="M38.4 70.7c-.1 0-.2 0-.3-.1-.2-.1-.3-.2-.4-.4-.1-.2-.1-.4 0-.5l1.7-3.4-6.6-2.4c-.3-.1-.5-.4-.5-.7 0-.3.2-.6.5-.7l7-2.3-9.9-2.2c-.3-.1-.6-.4-.6-.7 0-.3.2-.6.5-.7l13.4-3.7v-5c0-.3.2-.6.5-.7 9-3 15-11.4 15-20.8 0-12.1-9.8-21.9-22-21.9-12.1 0-21.9 9.8-21.9 21.9 0 9.3 5.9 17.7 14.8 20.7.2.1.3.2.4.4.1.2.1.4 0 .5-.1.3-.4.5-.7.5h-.2c-9.4-3.3-15.7-12.1-15.7-22.1C13.5 13.5 24 3.1 36.8 3.1c12.9 0 23.4 10.5 23.4 23.4 0 9.7-6.1 18.6-15.3 21.9l-.2.1v5c0 .3-.2.6-.5.7L34.1 57v.5l8.5 1.9c.3.1.5.3.6.7s-.2.6-.5.7l-7.5 2.5 5.4 1.9c.2.1.3.2.4.4.1.2.1.4 0 .6l-2 4.1c-.1.2-.4.4-.6.4z" style="fill:#fff"/>
    <path d="M36.8 40.1c-.4 0-.7-.3-.7-.7v-9.1l-.4.2c-1.4.5-3.4 1.2-5.6 1.2-1.4 0-2.7-.3-3.8-.8-4.5-2.3-5.4-9.1-5.5-9.3 0-.3.1-.6.4-.7.1-.1 3.5-1.8 7-1.8 1.4 0 2.7.3 3.8.8 2.4 1.2 3.8 3.8 4.5 5.7l.3.7.3-.7c.7-1.9 2.1-4.5 4.5-5.7 1.1-.6 2.4-.8 3.8-.8 3.5 0 6.9 1.7 7 1.8.3.1.4.4.4.7 0 .3-1 7-5.5 9.3-1.1.6-2.4.8-3.8.8-2.1 0-4.2-.6-5.6-1.2l-.4-.2v9.1c.1.4-.3.7-.7.7zm-8.5-19.8c-2.3 0-4.5.8-5.7 1.3l-.2.1v.2c.4 1.7 1.5 6 4.6 7.5.9.5 1.9.7 3.1.7 2.3 0 4.5-.8 5.7-1.3l.2-.1v-.2c-.4-1.7-1.5-6-4.6-7.5-.8-.4-1.9-.7-3.1-.7zm17.1 0c-1.2 0-2.2.2-3.1.7-3 1.6-4.2 5.8-4.6 7.5v.2l.2.1c1.1.5 3.4 1.3 5.7 1.3 1.2 0 2.2-.2 3.1-.7 3-1.6 4.2-5.8 4.6-7.5v-.2H51c-1.1-.5-3.3-1.4-5.6-1.4z" style="fill:#fff"/>
</svg>
