<svg xmlns="http://www.w3.org/2000/svg" viewBox="0 0 197 76" style="enable-background:new 0 0 197 76" xml:space="preserve">
    <path style="fill:#ed1b23" d="M72.6 14.3h7.2V-.4l-7.2 4.1z"/>
    <path d="M55 17.1H40.8c-3.4 0-6.2 2.8-6.2 6.2v.2h19c3.3 0 4.5 1.2 4.5 4.6v2.3H43c-6 0-10.3 4.4-10.3 10.4S37 51.1 43 51.1h12c5.7 0 10.3-4.6 10.3-10.3V27.4c0-5.7-4.6-10.3-10.3-10.3zm3.1 23c0 3.4-1.2 4.6-4.5 4.6h-9.2c-1.8 0-2.9-.2-3.5-.7-.7-.5-1-1.5-1-3.1 0-3.2.9-4 4.5-4h13.7v3.2zM147.6 17.1h-14.2c-3.4 0-6.2 2.8-6.2 6.2v.2h19c3.3 0 4.5 1.2 4.5 4.6v2.3h-15.1c-6 0-10.3 4.4-10.3 10.4s4.3 10.3 10.3 10.3h12c5.7 0 10.3-4.6 10.3-10.3V27.4c0-5.7-4.6-10.3-10.3-10.3zm3.1 23c0 3.4-1.2 4.6-4.5 4.6h-9.3c-1.8 0-2.9-.2-3.5-.7-.7-.5-1-1.5-1-3.1 0-3.2.9-4 4.5-4h13.7v3.2h.1zM186.7 17.1h-11.2c-5.7 0-10.3 4.6-10.3 10.3v23.5h7.2V28.2c0-3.4 1.2-4.6 4.5-4.6h8.4c3.3 0 4.5 1.2 4.5 4.6v22.7h7.2V27.4c0-5.7-4.6-10.3-10.3-10.3zM108.6 17.1H94.3V.4h-7.2v50.5h7.2V23.6h12.9c3.3 0 4.5 1.2 4.5 4.6v22.7h7.2V27.4c0-5.7-4.6-10.3-10.3-10.3zM15.5-.4 8.3 3.9v13.2H6.2c-3.4 0-6.2 2.8-6.2 6.2v.2h8.4v17.3c0 5.7 4.6 10.3 10.3 10.3h8.8v-6.4H20c-3.3 0-4.5-1.2-4.5-4.6V23.5h11.9v-6.4H15.5V-.4zM72.6 50.9h7.2V15.7l-7.2 4.1z" style="fill:#01499a"/>
    <g>
        <path d="M17.4 66.4v6.2c0 2.1 1.4 3.4 3.7 3.4h5.4v-1.8h-5.9c-.7 0-.9-.3-.9-1.1v-7c0-.8.2-1.1.9-1.1h5.9v-2h-5.4c-2.4 0-3.7 1.3-3.7 3.4zM35 63h-2.8l-4.7 12.9h2.2l1-2.8h5.6l1 2.8v.1h2.3L35 63zm.8 8.3h-4.3l2.2-6.1 2.1 6.1zM49.8 69.3c.8-.2 1.5-1.1 1.5-2.3v-1.2c0-1.9-1.1-2.8-3.7-2.8h-6.5v12.9h6.5c2.5 0 3.7-.9 3.7-2.8v-1.5c0-1.3-.7-2-1.5-2.3zm-1.7-.9h-4.8v-3.5h4.8c.8 0 .9.1.9.7v2.1c.1.5-.1.7-.9.7zm-4.8 1.9h4.9c.8 0 .9.1.9.7v2.3c0 .6-.2.7-.9.7h-4.9v-3.7zM55.9 63h-2.2v12.9h9v-1.8h-6.8zM64.6 75.9h9v-1.8h-6.8v-4H73v-1.8h-6.2v-3.5h6.8V63h-9zM105.4 68.8l-5.6-.8v-2.6c0-.4.1-.6 1-.6h6.3V63h-5.6c-2.5 0-4 1.3-4 3.6v.5c0 1.3.7 2.7 2.3 2.9l5.6.7v2.8c0 .4-.2.6-1 .6h-6.7v1.8h6c2.5 0 4-1.3 4-3.6v-.5c0-1.8-.7-2.7-2.3-3zM116.8 63h-3.4c-2.4 0-3.7 1.2-3.7 3.4v6.2c0 2.1 1.4 3.4 3.7 3.4h3.4c2.4 0 3.7-1.2 3.7-3.4v-6.2c.1-2.1-1.3-3.4-3.7-3.4zm-4.8 3c0-.8.2-1.1.9-1.1h4.5c.7 0 .9.3.9 1.1v7c0 .8-.2 1.1-.9 1.1h-4.5c-.7 0-.9-.3-.9-1.1v-7zM125.3 63h-2.2v12.9h9v-1.8h-6.8zM141.7 73c0 .8-.4 1.1-1.1 1.1h-3.9c-.8 0-1.1-.4-1.1-1.1V63h-2.2v9.3c0 2.1 1.6 3.6 3.9 3.6h2.8c2.3 0 3.9-1.4 3.9-3.6V63h-2.2v10h-.1zM145.8 64.8h4.2v11.1h2.2V64.8h4.2V63h-10.6zM158.2 63h2.2v12.9h-2.2zM170.1 63h-3.4c-2.4 0-3.7 1.2-3.7 3.4v6.2c0 2.1 1.4 3.4 3.7 3.4h3.4c2.4 0 3.7-1.2 3.7-3.4v-6.2c0-2.1-1.3-3.4-3.7-3.4zm-4.8 3c0-.8.2-1.1.9-1.1h4.5c.7 0 .9.3.9 1.1v7c0 .8-.2 1.1-.9 1.1h-4.5c-.7 0-.9-.3-.9-1.1v-7zM185.7 63v11.1L179.9 63h-3.5v12.9h2.2v-11l5.8 11h3.5V63zM90.7 72v-2.6h-1.8v2.2l-.1.7-2.8-2.8 1.6-.9c.1 0 .2-.1.4-.3.6-.5.8-1 .8-1.6v-1.3c0-.4-.1-.8-.4-1.2-.5-.8-1.3-1.2-2.4-1.2h-1.5c-1.1 0-1.9.3-2.4 1-.4.5-.6 1-.6 1.4v1.3c0 .5.2.9.4 1.2 0 .1.1.1.2.2l.9 1-1.3.7c-.3.1-.5.4-.6.7-.3.5-.4.9-.4 1.2v1.4c0 1 .5 1.8 1.4 2.3.6.3 1.1.5 1.6.5H87c.9 0 1.6-.2 2.3-.7l.6.7h2.6l-2-2.1c.1-.5.2-1.1.2-1.8zm-7.3-6.1c0-.5.3-.8.8-1H86c.4 0 .7.1.8.4.1.2.2.4.2.5v.4c0 .3-.1.5-.3.6l-2 1.3c-.7-.7-1-1.1-1.1-1.2l-.2-.4c0-.1-.1-.2-.1-.3l.1-.3zm3.5 8.2h-3.2c-.3 0-.6-.1-.8-.3s-.4-.4-.4-.7v-.9c0-.1.1-.3.2-.5s.2-.3.3-.4l1.4-.8 3.4 3.4v.1s-.3.1-.9.1z" style="fill:#01499a"/>
    </g>
</svg>
