<?xml version="1.0" encoding="utf-8"?>
<!-- Generator: Adobe Illustrator 26.5.0, SVG Export Plug-In . SVG Version: 6.00 Build 0)  -->
<svg version="1.1" id="Layer_1" xmlns="http://www.w3.org/2000/svg" xmlns:xlink="http://www.w3.org/1999/xlink" x="0px" y="0px"
	 viewBox="0 0 85.4 22.6" style="enable-background:new 0 0 85.4 22.6;" xml:space="preserve">
<style type="text/css">
	.st0{fill:#01499A;}
</style>
<g>
	<path class="st0" d="M28,19.9v-4.1h-2.9v4.7c0,1.4,0.8,2.1,2.1,2.1h12.9v-2.3H28.3C28,20.3,28,20.3,28,19.9z"/>
	<path class="st0" d="M33.9,9.9C33.9,7.5,32,5,28.3,5c-3.7,0-5.7,2.5-5.7,4.9s1.9,4.9,5.7,4.9C32,14.8,33.9,12.3,33.9,9.9z
		 M25.5,9.9c0-1.3,0.7-2.6,2.7-2.6c2,0,2.7,1.3,2.7,2.6c0,1.2-0.7,2.6-2.7,2.6C26.3,12.4,25.5,11.1,25.5,9.9z"/>
	<polygon class="st0" points="34.9,2.1 29.7,2.1 29.7,-0.1 26.8,-0.1 26.8,2.1 21.6,2.1 21.6,4.4 34.9,4.4 	"/>
	<path class="st0" d="M39.4,0.4h-2.9v17h1.6c0.9,0,1.4-0.3,1.4-1.1V8.9h3.4V6.6h-3.4V0.4H39.4z"/>
	<path class="st0" d="M51.4,19.9v-4.1h-2.9v4.7c0,1.4,0.8,2.1,2.1,2.1h12.9v-2.3H51.7C51.4,20.3,51.4,20.3,51.4,19.9z"/>
	<path class="st0" d="M51,9.3c1,1.5,2.6,3,4.5,4.2c0.2,0.1,0.4,0.3,0.8,0.3s0.7-0.2,0.9-0.7l0.7-1.2l-0.1-0.1
		c-3.2-1.8-4.9-4.4-5.3-5.7V3.8h4.3V1.5H45.2v2.3h4.3v2.3c-0.6,1.9-2.6,4.1-5.6,6.2l-0.1,0.1l0.9,1.3c0.2,0.3,0.5,0.4,0.8,0.4
		c0.2,0,0.5-0.1,0.8-0.2C48.3,12.5,49.9,10.9,51,9.3z"/>
	<path class="st0" d="M55.8,8.8H60v8.5h1.6c0.9,0,1.3-0.3,1.3-1.1V0.3H60v6.1h-4.2V8.8z"/>
	<path class="st0" d="M73.3,19.9v-4.1h-2.9v4.7c0,1.4,0.8,2.1,2.1,2.1h12.9v-2.3H73.6C73.3,20.3,73.3,20.3,73.3,19.9z"/>
	<path class="st0" d="M72.9,8.9c0.9,1.3,2.5,3.1,4.6,4.5c0.2,0.1,0.4,0.3,0.8,0.3s0.7-0.2,0.9-0.7l0.7-1.2l-0.1-0.1
		c-3.2-1.8-5-4.6-5.4-6V1.1h-3v4.6c-0.2,0.8-1.3,3.5-5.6,6.4l-0.1,0.1l0.9,1.3c0.2,0.3,0.5,0.4,0.8,0.4c0.2,0,0.5-0.1,0.8-0.2
		C70.4,12.2,71.9,10.4,72.9,8.9z"/>
	<path class="st0" d="M81.9,17.4h1.6c0.9,0,1.4-0.3,1.4-1.1V0.4H82v6.1h-4.2v2.3H82L81.9,17.4z"/>
	<path class="st0" d="M16.1,6.5h-1.8V0.4h-2.9v12.7c-2.7,0.7-6.6,1.2-7.8,1.2c-0.6,0-0.7-0.1-0.7-0.6v-10h6.7V1.4H0V14
		c0,1.8,0.9,2.7,2.6,2.7c2.7,0,6.1-0.5,8.8-1.2v7.4H13c0.9,0,1.3-0.3,1.3-1.1v-13h1.8v14.1h1.6c0.9,0,1.3-0.3,1.3-1.1V0.4h-2.9
		L16.1,6.5L16.1,6.5z"/>
</g>
</svg>
