<?xml version="1.0" encoding="utf-8"?>
<!-- Generator: Adobe Illustrator 26.5.0, SVG Export Plug-In . SVG Version: 6.00 Build 0)  -->
<svg version="1.1" id="Layer_1" xmlns="http://www.w3.org/2000/svg" xmlns:xlink="http://www.w3.org/1999/xlink" x="0px" y="0px"
	 viewBox="0 0 197.6 85.6" style="enable-background:new 0 0 197.6 85.6;" xml:space="preserve">
<style type="text/css">
	.st0{fill:#ED1B23;}
	.st1{fill:#01499A;}
</style>
<g>
	<g>
		<polygon class="st0" points="72.6,14.7 79.8,14.7 79.8,0 72.6,4.1 		"/>
		<g>
			<path class="st1" d="M55,17.5H40.8c-3.4,0-6.2,2.8-6.2,6.2v0.2h19c3.3,0,4.5,1.2,4.5,4.6v2.3H43c-6,0-10.3,4.4-10.3,10.4
				S37,51.5,43,51.5h12c5.7,0,10.3-4.6,10.3-10.3V27.8C65.3,22.2,60.7,17.5,55,17.5z M58.1,40.5c0,3.4-1.2,4.6-4.5,4.6h-9.2
				c-1.8,0-2.9-0.2-3.5-0.7c-0.7-0.5-1-1.5-1-3.1c0-3.2,0.9-4,4.5-4h13.7V40.5z"/>
			<path class="st1" d="M147.6,17.5h-14.2c-3.4,0-6.2,2.8-6.2,6.2v0.2h19c3.3,0,4.5,1.2,4.5,4.6v2.3h-15.1c-6,0-10.3,4.4-10.3,10.4
				s4.3,10.3,10.3,10.3h12c5.7,0,10.3-4.6,10.3-10.3V27.8C157.9,22.2,153.3,17.5,147.6,17.5z M150.7,40.5c0,3.4-1.2,4.6-4.5,4.6
				h-9.3c-1.8,0-2.9-0.2-3.5-0.7c-0.7-0.5-1-1.5-1-3.1c0-3.2,0.9-4,4.5-4h13.7v3.2H150.7z"/>
			<path class="st1" d="M186.7,17.5h-11.2c-5.7,0-10.3,4.6-10.3,10.3v23.5h7.2V28.6c0-3.4,1.2-4.6,4.5-4.6h8.4
				c3.3,0,4.5,1.2,4.5,4.6v22.7h7.2V27.8C197,22.2,192.4,17.5,186.7,17.5z"/>
			<path class="st1" d="M108.6,17.5H94.3V0.8h-7.2v50.5h7.2V24h12.9c3.3,0,4.5,1.2,4.5,4.6v22.7h7.2V27.8
				C118.9,22.2,114.3,17.5,108.6,17.5z"/>
			<path class="st1" d="M15.5,0L8.3,4.3v13.2H6.2c-3.4,0-6.2,2.8-6.2,6.2v0.2h8.4v17.3c0,5.7,4.6,10.3,10.3,10.3h8.8v-6.4H20
				c-3.3,0-4.5-1.2-4.5-4.6V23.9h11.9v-6.4H15.5V0z"/>
			<polygon class="st1" points="72.6,51.3 79.8,51.3 79.8,16.1 72.6,20.2 			"/>
		</g>
	</g>
	<g>
		<path class="st1" d="M140.2,82.9v-4.1h-2.9v4.7c0,1.4,0.8,2.1,2.1,2.1h12.9v-2.3h-11.8C140.2,83.3,140.2,83.3,140.2,82.9z"/>
		<path class="st1" d="M146.1,72.9c0-2.4-1.9-4.9-5.6-4.9c-3.7,0-5.7,2.5-5.7,4.9s1.9,4.9,5.7,4.9C144.2,77.8,146.1,75.3,146.1,72.9
			z M137.7,72.9c0-1.3,0.7-2.6,2.7-2.6c2,0,2.7,1.3,2.7,2.6c0,1.2-0.7,2.6-2.7,2.6C138.5,75.4,137.7,74.1,137.7,72.9z"/>
		<polygon class="st1" points="147.1,65.1 141.9,65.1 141.9,62.9 139,62.9 139,65.1 133.8,65.1 133.8,67.4 147.1,67.4 		"/>
		<path class="st1" d="M151.6,63.4h-2.9v17h1.6c0.9,0,1.4-0.3,1.4-1.1v-7.4h3.4v-2.3h-3.4v-6.2H151.6z"/>
		<path class="st1" d="M163.6,82.9v-4.1h-2.9v4.7c0,1.4,0.8,2.1,2.1,2.1h12.9v-2.3h-11.8C163.6,83.3,163.6,83.3,163.6,82.9z"/>
		<path class="st1" d="M163.2,72.3c1,1.5,2.6,3,4.5,4.2c0.2,0.1,0.4,0.3,0.8,0.3s0.7-0.2,0.9-0.7l0.7-1.2l-0.1-0.1
			c-3.2-1.8-4.9-4.4-5.3-5.7v-2.3h4.3v-2.3h-11.6v2.3h4.3v2.3c-0.6,1.9-2.6,4.1-5.6,6.2l-0.1,0.1l0.9,1.3c0.2,0.3,0.5,0.4,0.8,0.4
			c0.2,0,0.5-0.1,0.8-0.2C160.5,75.5,162.1,73.9,163.2,72.3z"/>
		<path class="st1" d="M168,71.8h4.2v8.5h1.6c0.9,0,1.3-0.3,1.3-1.1V63.3h-2.9v6.1H168V71.8z"/>
		<path class="st1" d="M185.5,82.9v-4.1h-2.9v4.7c0,1.4,0.8,2.1,2.1,2.1h12.9v-2.3h-11.8C185.5,83.3,185.5,83.3,185.5,82.9z"/>
		<path class="st1" d="M185.1,71.9c0.9,1.3,2.5,3.1,4.6,4.5c0.2,0.1,0.4,0.3,0.8,0.3s0.7-0.2,0.9-0.7l0.7-1.2l-0.1-0.1
			c-3.2-1.8-5-4.6-5.4-6v-4.6h-3v4.6c-0.2,0.8-1.3,3.5-5.6,6.4l-0.1,0.1l0.9,1.3c0.2,0.3,0.5,0.4,0.8,0.4c0.2,0,0.5-0.1,0.8-0.2
			C182.6,75.2,184.1,73.4,185.1,71.9z"/>
		<path class="st1" d="M194.1,80.4h1.6c0.9,0,1.4-0.3,1.4-1.1V63.4h-2.9v6.1H190v2.3h4.2L194.1,80.4z"/>
		<path class="st1" d="M128.3,69.5h-1.8v-6.1h-2.9v12.7c-2.7,0.7-6.6,1.2-7.8,1.2c-0.6,0-0.7-0.1-0.7-0.6v-10h6.7v-2.3h-9.6V77
			c0,1.8,0.9,2.7,2.6,2.7c2.7,0,6.1-0.5,8.8-1.2v7.4h1.6c0.9,0,1.3-0.3,1.3-1.1v-13h1.8v14.1h1.6c0.9,0,1.3-0.3,1.3-1.1V63.4h-2.9
			L128.3,69.5L128.3,69.5z"/>
	</g>
</g>
</svg>
