<?xml version="1.0" encoding="UTF-8"?>
<svg width="60px" height="60px" viewBox="0 0 60 60" version="1.1" xmlns="http://www.w3.org/2000/svg" xmlns:xlink="http://www.w3.org/1999/xlink">
    <title>btn_more</title>
    <g id="btn_more" stroke="none" stroke-width="1" fill="none" fill-rule="evenodd">
        <path d="M32.9497475,21.5355339 L39.9849314,28.5703607 L40.0208153,28.5355339 L41.4350288,29.9497475 L41.399145,29.9845743 L41.4350288,30.0208153 L40.0208153,31.4350288 L39.9849314,31.3987878 L32.9497475,38.4350288 L31.5355339,37.0208153 L37.555,30.9995339 L18,31 L18,29 L37.585,28.9995339 L31.5355339,22.9497475 L32.9497475,21.5355339 Z" id="Combined-Shape" fill="#FFFFFF"></path>
        <path d="M30,0 C46.5685425,0 60,13.4314575 60,30 C60,46.5685425 46.5685425,60 30,60 C13.4314575,60 0,46.5685425 0,30 C0,13.4314575 13.4314575,0 30,0 Z M30,1.5 C14.2598846,1.5 1.5,14.2598846 1.5,30 C1.5,45.7401154 14.2598846,58.5 30,58.5 C45.7401154,58.5 58.5,45.7401154 58.5,30 C58.5,14.2598846 45.7401154,1.5 30,1.5 Z" id="Combined-Shape" fill="#FFFFFF"></path>
    </g>
</svg>