<svg xmlns="http://www.w3.org/2000/svg" viewBox="0 0 73.7 73.7" style="enable-background:new 0 0 73.7 73.7" xml:space="preserve">
    <path d="M20.3 9.2c-4.6 0-8.4 3.8-8.4 8.4v2.6c0 4.6 3.8 8.4 8.4 8.4M41.2 45.2v8.9h-9v-8.9" style="fill:none;stroke:#070707;stroke-miterlimit:10"/>
    <path d="M36.7 45.5c-8.9 0-16.2-7.2-16.2-16.2V9.2h32.4v20.1c0 8.9-7.3 16.2-16.2 16.2zM53.4 9.2c4.6 0 8.4 3.8 8.4 8.4v2.6c0 4.6-3.8 8.4-8.4 8.4M23.8 54.1h25.8v10.5H23.8z" style="fill:none;stroke:#070707;stroke-miterlimit:10"/>
    <path style="fill:#e62f1f" d="m36.8 19.1 2.2 4.4 4.7.6-3.4 3.3.8 4.8-4.3-2.2-4.2 2.2.8-4.8-3.4-3.3 4.7-.6z"/>
</svg>
