<svg xmlns="http://www.w3.org/2000/svg" viewBox="0 0 73.7 73.7" style="enable-background:new 0 0 73.7 73.7" xml:space="preserve">
    <path d="M56.3 15.1h-3.5v-5c0-.5-.4-.9-.9-.9H22.7c-.5 0-.9.4-.9.9v5h-4.3c-2.4 0-4.3 1.9-4.3 4.3v34c0 2.1 1.5 3.9 3.5 4.3v3.4c0 1.9 1.5 3.4 3.4 3.4h.9c1.9 0 3.4-1.5 3.4-3.4v-3.4h25.1v3.4c0 1.9 1.5 3.4 3.4 3.4h.9c1.9 0 3.4-1.5 3.4-3.4v-3.4c2-.4 3.5-2.1 3.5-4.3v-34c0-2.3-2-4.3-4.4-4.3zM19 19.2h35.7c1.3 0 2.4 1 2.4 2.3V45H16.7V21.5c0-1.3 1-2.3 2.3-2.3zM12.4 28.8h-3c-.4 0-.7.4-.7.9v12.2c0 .5.3.9.7.9h3c.4 0 .7-.4.7-.9V29.7c0-.5-.3-.9-.7-.9zM64.4 28.8h-3c-.4 0-.7.4-.7.9v12.2c0 .5.3.9.7.9h3c.4 0 .7-.4.7-.9V29.7c0-.5-.3-.9-.7-.9z" style="fill:none;stroke:#070707;stroke-miterlimit:10"/>
    <circle cx="50.2" cy="50.8" r="2.8" style="fill:#fb0000"/>
    <circle cx="24.2" cy="50.8" r="2.8" style="fill:#fb0000"/>
</svg>
