<svg xmlns="http://www.w3.org/2000/svg" viewBox="0 0 73.7 73.7" style="enable-background:new 0 0 73.7 73.7" xml:space="preserve">
    <path style="fill:none;stroke:#070707;stroke-linecap:round;stroke-linejoin:round;stroke-miterlimit:10" d="m19.6 23.6 17.3-12.5 17.3 12.5M60.5 27.3l5.4 4.1-29 18.5L7.8 31.4l5.4-3"/>
    <path style="fill:none;stroke:#070707;stroke-linecap:round;stroke-linejoin:round;stroke-miterlimit:10" d="M13.3 34.2V23.7H60.5v10.9"/>
    <path style="fill:none;stroke:#070707;stroke-linecap:round;stroke-linejoin:round;stroke-miterlimit:10" d="M7.8 31.4v31.3h58.1V31.4l-29 18.5z"/>
    <path d="M39.3 30.9c-1 0-1.9.6-2.4 1.5-.6-.9-1.4-1.5-2.4-1.5-1.7 0-3 1.4-3 3 0 .9.2 1.2.6 1.7l.1.2 4.4 4.6c.1.1.1.1.2.1s.1 0 .2-.1c.8-.8 4.5-4.4 4.9-4.9.1-.1.5-.6.5-1.6-.1-1.6-1.4-3-3.1-3z" style="fill:#e62f1f"/>
</svg>
