<?xml version="1.0" encoding="utf-8"?>
<!-- Generator: Adobe Illustrator 26.5.0, SVG Export Plug-In . SVG Version: 6.00 Build 0)  -->
<svg version="1.1" id="레이어_1" xmlns="http://www.w3.org/2000/svg" xmlns:xlink="http://www.w3.org/1999/xlink" x="0px"
	 y="0px" viewBox="0 0 73.7 73.7" style="enable-background:new 0 0 73.7 73.7;" xml:space="preserve">
<style type="text/css">
	.st0{fill:none;stroke:#070707;stroke-miterlimit:10;}
	.st1{fill:#E63021;}
</style>
<g>
	<path class="st0" d="M40.5,10.8v8.4c0,3.1-2.5,5.6-5.6,5.6l0,0c-3.1,0-5.6-2.5-5.6-5.6v-8.4"/>
	<path class="st0" d="M34.9,10.8c0,0-0.4,50.6,0,50.3"/>
	<path class="st0" d="M54.7,28c0,0,0,33.4,0.3,33"/>
	<path class="st0" d="M21.2,40.3h-6.8V10.8l0,0c4.3,3.8,6.8,9.2,6.8,15V40.3z"/>
	<line class="st0" x1="14.4" y1="36.9" x2="14.4" y2="61.1"/>
	<ellipse class="st0" cx="54.7" cy="19.5" rx="6.3" ry="8.6"/>
	<g>
		<path class="st1" d="M14.7,62.9L14.7,62.9c-1.1,0-2-0.9-2-2V46.6c0-1.1,0.9-2,2-2l0,0c1.1,0,2,0.9,2,2v14.4
			C16.6,62,15.8,62.9,14.7,62.9z"/>
		<path class="st1" d="M34.9,62.9L34.9,62.9c-1.1,0-2-0.9-2-2V46.6c0-1.1,0.9-2,2-2l0,0c1.1,0,2,0.9,2,2v14.4
			C36.9,62,36.1,62.9,34.9,62.9z"/>
		<path class="st1" d="M55,62.9L55,62.9c-1.1,0-2-0.9-2-2V46.6c0-1.1,0.9-2,2-2l0,0c1.1,0,2,0.9,2,2v14.4C57.1,62,56.2,62.9,55,62.9
			z"/>
	</g>
</g>
</svg>
