<svg xmlns="http://www.w3.org/2000/svg" viewBox="0 0 73.7 73.7" style="enable-background:new 0 0 73.7 73.7" xml:space="preserve">
    <path style="fill:none;stroke:#070707;stroke-miterlimit:10" d="M31.8 63.9 37 34.6M40.5 15.8l.7-4.4M40.5 15.8C27.1 13.2 13.9 18.6 6 28.7l61.7 11.8c-3.6-12.2-13.8-22.1-27.2-24.7z"/>
    <path d="M40.5 15.8c-8.2-1.6-16.7 4.7-22.4 15.3l37.5 7.2c-1.4-11.9-7-20.9-15.1-22.5z" style="fill:none;stroke:#070707;stroke-miterlimit:10"/>
    <path d="M40.5 15.8c-2.9-.6-7 6.6-10.4 17.6L43.6 36c.9-11.5-.2-19.6-3.1-20.2z" style="fill:none;stroke:#070707;stroke-miterlimit:10"/>
    <path d="M40.5 15.8c-2.9-.6-7 6.6-10.4 17.6L43.6 36c.9-11.5-.2-19.6-3.1-20.2z" style="fill:none;stroke:#070707;stroke-miterlimit:10"/>
    <circle cx="41.2" cy="12.7" r="2.9" style="fill:#e63021"/>
</svg>
