<svg xmlns="http://www.w3.org/2000/svg" viewBox="0 0 73.7 73.7" style="enable-background:new 0 0 73.7 73.7" xml:space="preserve">
    <path d="M18.4 32.3c-2.4 0-4.3-1.9-4.3-4.3 0-2.3 3.3-5.6 5.6-5.6 2 0 3 1.9 3 5.6 0 2.4-1.9 4.3-4.3 4.3zm1.4-8.4c-1.6 0-4.2 2.6-4.2 4.1 0 1.6 1.3 2.9 2.9 2.9s2.9-1.3 2.9-2.9c-.1-1.9-.4-4.1-1.6-4.1z" style="fill:#fff"/>
    <path d="M32 64.9c-10.2 0-19.1-13.5-19.5-14.1 0 0 0-.1-.1-.1l-3.5-7.9c-.7-1-.8-2.3-.2-3.3.4-.8 1.2-1.5 2.1-1.7l.3-.1-.1-.2c-.8-2.3-1.1-4.6-1.1-6.9 0-8.4 4.9-16.1 12.5-19.7l.1-.1v-.1c.1-.3.4-.5.7-.5.1 0 .2 0 .3.1l.1.1h.1c2.5-1 5.2-1.5 8-1.5 12 0 21.8 9.8 21.8 21.8 0 4.2-1.2 8.3-3.6 11.9l-.4.6 9.8-2.7h.2c.1 0 .2 0 .4.1s.3.2.3.4l5.2 18.6c.1.2 0 .4-.1.5-.1.2-.2.3-.4.3L55.7 63h-.2c-.1 0-.2 0-.4-.1s-.3-.2-.3-.4l-.6-2.2-.3.2c-.6.5-1.3.7-2.1 1l-5.4 1.8h-.1L33.9 65c-.8-.1-1.3-.1-1.9-.1zM11.6 39.1h-.4c-.6.1-1 .5-1.3 1-.3.6-.2 1.3.2 1.9l.1.1 3.5 7.9c1 1.5 9.3 13.5 18.3 13.5.5 0 1 0 1.5-.1l12.3-1.6 5.4-1.7c1.1-.4 1.6-.6 2.3-1.4l.1-.1-2.8-10.2c-1.8-2.1-4-3.5-6.8-4.5l-6.2-2.1c-2.3-1-3.6-1.2-4.2-1.2-.3 0-.7.1-.9.3-.3.5-.3 1-.2 1.6.1.5.5 1.1 1.1 1.4l7.7 5.1c.2.2.4.5.3.7-.1.3-.3.5-.6.6l-11 2.2c-.3 0-.5.1-.8.1-.8 0-1.5-.2-2.2-.6l-7.7-3.4c-.1-.1-.2-.1-.3-.2l-6.3-8.7c-.3-.5-.6-.6-1.1-.6zm39.5 5 4.8 17.2 1.7-.5-5-17.2-1.5.5zm3-.8 5 17.2 4.7-1.3L59 42l-4.9 1.3zM26 38c-.6 0-1.2.1-1.9.2-1.9.4-3.6 1.2-4.8 2.3-.8.7-1.5 1.6-1.9 2.6l-.1.2 2.9 4.1 7.6 3.4s.1 0 .1.1c.4.3.9.4 1.4.4.2 0 .3 0 .5-.1l9.2-1.9-6.3-4.3c-.9-.6-1.5-1.4-1.7-2.4-.1-.4-.1-.8 0-1.3v-.1l-.3-.2-.3-.3c-.2-.2-.4-.5-.6-.7-.3-.4-.7-.9-1.1-1.2-.7-.6-1.6-.8-2.7-.8zm23.1 5.6-.3.3-.4.5.3.2c.2.2.5.3.7.5l.7.5-.5-1.8-.1-.6-.4.4zm-5.2-1.3.6.2c.2.1.4.1.5.2l.2.1.2-.5c-.4-.3-.9-.5-1.4-.5l-.1.5zm-.6-2.1c1.7 0 3.3.8 4.4 2.2l.2.3.2-.3c2.5-3.5 3.8-7.6 3.8-11.8 0-2.9-.6-5.7-1.8-8.3l-.1-.5-.3.3c-.2.3-.5.5-.8.7-.4.2-1 .4-1.5.4-.7 0-1.3-.2-1.8-.6-.5-.4-.9-.9-1.2-1.4-.2-.3-.4-.5-.6-.7-.3-.4-.7-.5-1-.5h-.1l-.2.1c-.1.1-.2.3-.2 1.2v.4c.1 2.5.1 5.1-.9 7.4-.8 1.8-2.3 3.3-4 4.1-.9.4-1.8.6-2.6.6-.3 0-.5 0-.8-.1-1.3-.2-2.5-1.1-2.9-2.2-.2-.6-.3-1.2-.2-1.8 0-1.2.2-2.4.5-3.6.1-.4.3-.9.4-1.3.3-1 .6-2 .7-3 0-1.2-.6-2.6-1.7-2.8h-.4c-.5 0-1.1.2-1.7.4l-.9.3c-.6.2-1.1.3-1.7.3-.4 0-.7 0-1-.1-1-.3-1.9-.9-2.3-1.8-.3-.7-.3-1.4-.3-1.9v-3.6H22C15.4 16.2 11.3 23 11.3 30.5c0 2.5.4 4.9 1.3 7.2v.1h.1c.4.2.8.3 1 .6l.1.1 2.3 3.3.2-.4c.5-.8 1.1-1.5 1.8-2.1 1.4-1.2 3.3-2.2 5.5-2.6.8-.2 1.5-.3 2.2-.3 1.5 0 2.7.4 3.6 1.1.5.4 1 .9 1.4 1.4.1.2.3.4.4.5l.2.2.2-.2c.4-.4 1-.6 1.8-.6 1.7 0 3.8.9 4.7 1.3l2 .7h.1c.6-.3 1.3-.6 2.2-.7.4.2.6.1.9.1zM30.2 17.5c.2 0 .4 0 .7.1 1.9.4 2.9 2.5 2.9 4.3 0 1.2-.4 2.3-.7 3.4-.1.4-.3.8-.4 1.2-.3 1.1-.4 2.2-.5 3.3 0 .4 0 .9.2 1.3.2.7 1 1.2 1.8 1.3h.5c.8 0 1.5-.3 2-.5 1.5-.7 2.7-1.9 3.4-3.4.9-2 .9-4.4.8-6.8v-.4c0-.5 0-1.6.7-2.2.3-.3.8-.5 1.2-.5.7 0 1.5.4 2.1 1 .3.3.5.6.7.9.3.4.5.8.9 1 .3.2.6.3 1 .3.3 0 .6-.1.8-.2.5-.3.8-.8.9-1.4V20c-3.7-6.1-10.2-9.8-17.4-9.8-2.6 0-5.2.5-7.6 1.5l-.2.1v4.3c0 .5 0 1 .2 1.4.2.5.7.9 1.3 1 .2.1.4.1.7.1.4 0 .8-.1 1.3-.2.2-.1.5-.2.8-.3.4-.3 1.1-.6 1.9-.6z" style="fill:#fff"/>
</svg>
