<?xml version="1.0" encoding="UTF-8"?>
<svg width="85px" height="85px" viewBox="0 0 85 85" version="1.1" xmlns="http://www.w3.org/2000/svg" xmlns:xlink="http://www.w3.org/1999/xlink">
    <title>ico_ESG_Environment</title>
    <g id="ico_ESG_Environment" stroke="none" stroke-width="1" fill="none" fill-rule="evenodd">
        <g id="Group-27" transform="translate(1.000000, 11.000000)">
            <path d="M75.2357,54.1 C64.0357,65.3 42.0357,61.5 42.0357,61.5 C42.0357,61.5 38.2357,39.5 49.5357,28.3 C60.8357,17.1 82.7357,20.8 82.7357,20.8 C82.7357,20.8 86.5357,42.8 75.2357,54.1 Z" id="Stroke-1" stroke="#FFFFFF" stroke-width="1.5" stroke-linecap="round" stroke-linejoin="round"></path>
            <line x1="82.7357" y1="20.9" x2="42.0357" y2="61.5" id="Stroke-3" stroke="#FFFFFF" stroke-width="1.5" stroke-linecap="round" stroke-linejoin="round"></line>
            <line x1="69.4357" y1="34.2" x2="83.1357" y2="34.2" id="Stroke-5" stroke="#FFFFFF" stroke-width="1.5" stroke-linecap="round" stroke-linejoin="round"></line>
            <line x1="61.7357" y1="41.8" x2="61.7357" y2="21.8" id="Stroke-7" stroke="#FFFFFF" stroke-width="1.5" stroke-linecap="round" stroke-linejoin="round"></line>
            <line x1="53.0357" y1="50.5" x2="76.2357" y2="53.1" id="Stroke-9" stroke="#FFFFFF" stroke-width="1.5" stroke-linecap="round" stroke-linejoin="round"></line>
            <path d="M8.8356,54.1 C20.0356,65.3 42.0356,61.5 42.0356,61.5 C42.0356,61.5 45.8356,39.5 34.5356,28.3 C23.2356,17.1 1.3356,20.9 1.3356,20.9 C1.3356,20.9 -2.3644,42.8 8.8356,54.1 Z" id="Stroke-11" stroke="#FFFFFF" stroke-width="1.5" stroke-linecap="round" stroke-linejoin="round"></path>
            <line x1="1.3356" y1="20.9" x2="42.0356" y2="61.5" id="Stroke-13" stroke="#FFFFFF" stroke-width="1.5" stroke-linecap="round" stroke-linejoin="round"></line>
            <line x1="14.7357" y1="34.2" x2="0.9357" y2="34.2" id="Stroke-15" stroke="#FFFFFF" stroke-width="1.5" stroke-linecap="round" stroke-linejoin="round"></line>
            <line x1="22.3356" y1="41.8" x2="22.3356" y2="21.8" id="Stroke-17" stroke="#FFFFFF" stroke-width="1.5" stroke-linecap="round" stroke-linejoin="round"></line>
            <line x1="31.0357" y1="50.5" x2="7.8357" y2="53.1" id="Stroke-19" stroke="#FFFFFF" stroke-width="1.5" stroke-linecap="round" stroke-linejoin="round"></line>
            <polygon id="Fill-21" fill="#FFFFFF" points="31.9357 1.4 23.6357 1.4 23.6357 6.8 31.3357 6.8 31.3357 8.2 23.6357 8.2 23.6357 13.6 31.9357 13.6 31.9357 15 22.0357 15 22.0357 0 31.9357 0"></polygon>
            <path d="M46.0357,13 C45.4357,13.6 44.6357,14.2 43.8357,14.6 C42.9357,15 42.0357,15.2 41.0357,15.2 C39.9357,15.2 39.0357,15 38.1357,14.6 C37.2357,14.2 36.5357,13.6 35.9357,12.9 C35.3357,12.2 34.8357,11.4 34.5357,10.5 C34.2357,9.6 34.0357,8.6 34.0357,7.6 C34.0357,6.6 34.2357,5.6 34.5357,4.7 C34.8357,3.8 35.3357,3 35.9357,2.3 C36.5357,1.6 37.2357,1 38.1357,0.6 C39.0357,0.2 40.0357,0 41.1357,0 C42.1357,0 43.0357,0.2 43.9357,0.6 C44.7357,1 45.5357,1.5 46.2357,2.2 L45.1357,3.3 C44.6357,2.7 43.9357,2.3 43.3357,2 C42.6357,1.7 41.9357,1.5 41.1357,1.5 C40.3357,1.5 39.6357,1.7 38.9357,2 C38.2357,2.3 37.6357,2.8 37.2357,3.3 C36.7357,3.9 36.3357,4.5 36.0357,5.3 C35.7357,6.1 35.6357,6.9 35.6357,7.7 C35.6357,8.6 35.7357,9.4 36.0357,10.1 C36.3357,10.8 36.6357,11.5 37.1357,12.1 C37.6357,12.7 38.2357,13.1 38.8357,13.4 C39.5357,13.7 40.2357,13.9 41.0357,13.9 C41.8357,13.9 42.5357,13.7 43.2357,13.4 C43.9357,13.1 44.5357,12.6 45.0357,12.1 L46.0357,13 Z" id="Fill-23" fill="#FFFFFF"></path>
            <path d="M55.1357,1.3 C54.4357,1.3 53.6357,1.5 53.0357,1.8 C52.3357,2.1 51.8357,2.6 51.3357,3.1 C50.8357,3.7 50.4357,4.3 50.1357,5.1 C49.8357,5.9 49.7357,6.7 49.7357,7.5 C49.7357,8.4 49.8357,9.2 50.1357,9.9 C50.4357,10.7 50.8357,11.3 51.3357,11.9 C51.8357,12.5 52.4357,12.9 53.0357,13.3 C53.7357,13.6 54.4357,13.8 55.1357,13.8 C55.8357,13.8 56.5357,13.6 57.2357,13.3 C57.9357,13 58.4357,12.5 58.9357,11.9 C59.4357,11.3 59.8357,10.7 60.1357,9.9 C60.4357,9.1 60.5357,8.3 60.5357,7.5 C60.5357,6.6 60.4357,5.8 60.1357,5.1 C59.8357,4.3 59.4357,3.7 58.9357,3.1 C58.4357,2.5 57.8357,2.1 57.2357,1.8 C56.5357,1.4 55.8357,1.3 55.1357,1.3 M55.1357,15.2 C54.1357,15.2 53.1357,15 52.3357,14.6 C51.4357,14.2 50.7357,13.6 50.1357,12.9 C49.5357,12.2 49.0357,11.4 48.6357,10.5 C48.3357,9.6 48.1357,8.6 48.1357,7.6 C48.1357,6.6 48.3357,5.7 48.6357,4.7 C48.9357,3.8 49.4357,3 50.0357,2.3 C50.6357,1.6 51.3357,1 52.2357,0.6 C53.1357,0.2 54.0357,7.10542736e-15 55.1357,7.10542736e-15 C56.1357,7.10542736e-15 57.0357,0.2 57.9357,0.6 C58.8357,1 59.5357,1.6 60.1357,2.3 C60.7357,3 61.2357,3.8 61.6357,4.7 C62.0357,5.6 62.1357,6.6 62.1357,7.6 C62.1357,8.6 61.9357,9.5 61.6357,10.4 C61.3357,11.3 60.8357,12.1 60.2357,12.8 C59.5357,13.5 58.8357,14.1 57.9357,14.5 C57.0357,15 56.1357,15.2 55.1357,15.2" id="Fill-25" fill="#FFFFFF"></path>
        </g>
    </g>
</svg>