<svg xmlns="http://www.w3.org/2000/svg" viewBox="0 0 50 50" style="enable-background:new 0 0 50 50" xml:space="preserve">
    <path d="m30.1 18.7 18.6 18.6c1 1 1 2.6 0 3.5h0c-1 1-2.6 1-3.5 0L26.6 22.3" style="fill:none;stroke:#000;stroke-width:.7;stroke-linecap:round;stroke-linejoin:round;stroke-miterlimit:10"/>
    <path d="M29 16.1c1.4 1.4 1.4 3.7 0 5.1-1.4 1.4-3.7 1.4-5.1 0M31.4 12.6l-10.9 11M14 17.1 25 6.2M20.5 27l.4-.4c.5-.5.5-1.5 0-2l-7.8-7.8c-.5-.5-1.5-.5-2 0l-.4.4c-.5.5-.5 1.5 0 2l7.8 7.8c.6.6 1.4.6 2 0zM34.9 12.7l-.4.4c-.5.5-1.5.5-2 0l-7.8-7.8c-.5-.5-.5-1.5 0-2l.3-.5c.5-.5 1.5-.5 2 0l7.8 7.8c.6.6.6 1.5.1 2.1zM8.9 42.3v-2.6h20.3v2.6M6.1 47.7v-4.8H32v4.8M.7 47.7h36.7" style="fill:none;stroke:#000;stroke-width:.7;stroke-linecap:round;stroke-linejoin:round;stroke-miterlimit:10"/>
    <circle cx="23" cy="14.5" r="1.9" style="fill:#fb0000"/>
</svg>
