<svg xmlns="http://www.w3.org/2000/svg" viewBox="0 0 50 50" style="enable-background:new 0 0 50 50" xml:space="preserve">
    <path d="M33.6 25c0 2.9-1.4 5.4-3.5 7-1.4 1-3.1 1.6-5 1.6S21.5 33 20 32c-2.2-1.6-3.5-4.1-3.5-7 0-4.7 3.9-8.6 8.6-8.6s8.5 3.9 8.5 8.6z" style="fill:none;stroke:#000;stroke-width:.7;stroke-linecap:round;stroke-linejoin:round;stroke-miterlimit:10"/>
    <circle cx="25" cy="5.5" r="3.3" style="fill:none;stroke:#000;stroke-width:.7;stroke-linecap:round;stroke-linejoin:round;stroke-miterlimit:10"/>
    <path style="fill:none;stroke:#000;stroke-width:.7;stroke-linecap:round;stroke-linejoin:round;stroke-miterlimit:10" d="M25 10.7v3.9"/>
    <circle cx="8.1" cy="15.3" r="3.3" style="fill:none;stroke:#000;stroke-width:.7;stroke-linecap:round;stroke-linejoin:round;stroke-miterlimit:10"/>
    <path style="fill:none;stroke:#000;stroke-width:.7;stroke-linecap:round;stroke-linejoin:round;stroke-miterlimit:10" d="m12.7 17.8 3.3 2"/>
    <circle cx="8.1" cy="34.7" r="3.3" style="fill:none;stroke:#000;stroke-width:.7;stroke-linecap:round;stroke-linejoin:round;stroke-miterlimit:10"/>
    <path style="fill:none;stroke:#000;stroke-width:.7;stroke-linecap:round;stroke-linejoin:round;stroke-miterlimit:10" d="m12.7 32.2 3.3-2"/>
    <circle cx="25" cy="44.5" r="3.3" style="fill:none;stroke:#000;stroke-width:.7;stroke-linecap:round;stroke-linejoin:round;stroke-miterlimit:10"/>
    <path style="fill:none;stroke:#000;stroke-width:.7;stroke-linecap:round;stroke-linejoin:round;stroke-miterlimit:10" d="M25 39.3v-3.9"/>
    <circle cx="41.9" cy="34.7" r="3.3" style="fill:none;stroke:#000;stroke-width:.7;stroke-linecap:round;stroke-linejoin:round;stroke-miterlimit:10"/>
    <path style="fill:none;stroke:#000;stroke-width:.7;stroke-linecap:round;stroke-linejoin:round;stroke-miterlimit:10" d="m37.3 32.2-3.3-2"/>
    <circle cx="41.9" cy="15.3" r="3.3" style="fill:none;stroke:#000;stroke-width:.7;stroke-linecap:round;stroke-linejoin:round;stroke-miterlimit:10"/>
    <path style="fill:none;stroke:#000;stroke-width:.7;stroke-linecap:round;stroke-linejoin:round;stroke-miterlimit:10" d="m37.3 17.8-3.3 2"/>
    <g>
        <path d="M26.4 22.1c-.6 0-1.1.3-1.4.8-.3-.6-.8-.8-1.4-.8-1 0-1.8.8-1.8 1.8 0 .6.1.7.3 1l.1.1 2.6 2.7H25.1l2.9-2.9s.2-.3.2-.9c0-1-.8-1.8-1.8-1.8z" style="fill:#fb0000"/>
    </g>
</svg>
