<svg width="46" height="46" viewBox="0 0 46 46" xmlns="http://www.w3.org/2000/svg">
    <g fill="none" fill-rule="evenodd">
        <path d="M46 23C46 10.296 35.704 0 23 0S0 10.296 0 23c0 11.481 8.406 20.996 19.408 22.723V29.654h-5.835V23h5.835v-5.066c0-5.76 3.428-8.948 8.684-8.948 2.52 0 5.154.453 5.154.453v5.66h-2.899c-2.86 0-3.743 1.776-3.743 3.59V23h6.377l-1.02 6.654h-5.357v16.069C37.594 43.996 46 34.48 46 23" fill="#1877F2"/>
        <path d="M31.948 29.654 32.968 23h-6.376v-4.31c0-1.815.895-3.592 3.743-3.592h2.898V9.44s-2.634-.453-5.154-.453c-5.255 0-8.683 3.188-8.683 8.948V23H13.56v6.654h5.835v16.069c1.172.189 2.369.277 3.591.277 1.223 0 2.42-.1 3.592-.277V29.654h5.369z" fill="#FFF"/>
    </g>
</svg>
