<?xml version="1.0" encoding="UTF-8"?>
<svg width="74px" height="80px" viewBox="0 0 74 80" version="1.1" xmlns="http://www.w3.org/2000/svg" xmlns:xlink="http://www.w3.org/1999/xlink">
    <title>ico_Quick_02</title>
    <defs>
        <polygon id="path-1" points="0 0.235456481 29.7721667 0.235456481 29.7721667 31 0 31"></polygon>
        <polygon id="path-3" points="0.208960656 0.235456481 16.8408131 0.235456481 16.8408131 31 0.208960656 31"></polygon>
    </defs>
    <g id="ico_Quick_02" stroke="none" stroke-width="1" fill="none" fill-rule="evenodd">
        <g id="Group-13" transform="translate(22.000000, 24.000000)">
            <g id="Group-3">
                <mask id="mask-2" fill="white">
                    <use xlink:href="#path-1"></use>
                </mask>
                <g id="Clip-2"></g>
                <path d="M14.8860556,1.67064167 C7.44355556,1.67064167 1.38883333,7.92718796 1.38883333,15.6177713 C1.38883333,23.3080676 7.44355556,29.5649009 14.8860556,29.5649009 C22.3285556,29.5649009 28.3832778,23.3080676 28.3832778,15.6177713 C28.3832778,7.92718796 22.3285556,1.67064167 14.8860556,1.67064167 M14.8860556,31.0000861 C6.67772222,31.0000861 -5.55555556e-05,24.0994287 -5.55555556e-05,15.6177713 C-5.55555556e-05,7.13582685 6.67772222,0.235456481 14.8860556,0.235456481 C23.0943889,0.235456481 29.7721667,7.13582685 29.7721667,15.6177713 C29.7721667,24.0994287 23.0943889,31.0000861 14.8860556,31.0000861" id="Fill-1" fill="#FFFFFF" mask="url(#mask-2)"></path>
            </g>
            <g id="Group-6" transform="translate(6.000000, 0.000000)">
                <mask id="mask-4" fill="white">
                    <use xlink:href="#path-3"></use>
                </mask>
                <g id="Clip-5"></g>
                <path d="M8.52502623,1.67064167 C4.77248525,1.67064167 1.60240328,8.05750278 1.60240328,15.6177713 C1.60240328,23.1777528 4.77248525,29.5649009 8.52502623,29.5649009 C12.2772885,29.5649009 15.4473705,23.1777528 15.4473705,15.6177713 C15.4473705,8.05750278 12.2772885,1.67064167 8.52502623,1.67064167 M8.52502623,31.0000861 C3.86200984,31.0000861 0.208960656,24.2432343 0.208960656,15.6177713 C0.208960656,6.99230833 3.86200984,0.235456481 8.52502623,0.235456481 C13.1880426,0.235456481 16.8408131,6.99230833 16.8408131,15.6177713 C16.8408131,24.2432343 13.1880426,31.0000861 8.52502623,31.0000861" id="Fill-4" fill="#FFFFFF" mask="url(#mask-4)"></path>
            </g>
            <path d="M14.75,31 C14.3357,31 14,30.6867886 14,30.3002426 L14,1.69975742 C14,1.31321142 14.3357,1 14.75,1 C15.1643,1 15.5,1.31321142 15.5,1.69975742 L15.5,30.3002426 C15.5,30.6867886 15.1643,31 14.75,31" id="Fill-7" fill="#FFFFFF"></path>
            <path d="M27.3701482,11.5 L1.62985182,11.5 C1.28200247,11.5 1,11.1643 1,10.75 C1,10.3357 1.28200247,10 1.62985182,10 L27.3701482,10 C27.7179975,10 28,10.3357 28,10.75 C28,11.1643 27.7179975,11.5 27.3701482,11.5" id="Fill-9" fill="#FFFFFF"></path>
            <path d="M27.3701482,21.5 L1.62985182,21.5 C1.28200247,21.5 1,21.1643 1,20.75 C1,20.3357 1.28200247,20 1.62985182,20 L27.3701482,20 C27.7179975,20 28,20.3357 28,20.75 C28,21.1643 27.7179975,21.5 27.3701482,21.5" id="Fill-11" fill="#FFFFFF"></path>
        </g>
    </g>
</svg>