<?xml version="1.0" encoding="UTF-8"?>
<svg width="85px" height="85px" viewBox="0 0 85 85" version="1.1" xmlns="http://www.w3.org/2000/svg" xmlns:xlink="http://www.w3.org/1999/xlink">
    <title>ico_ESG_Governance</title>
    <g id="ico_ESG_Governance" stroke="none" stroke-width="1" fill="none" fill-rule="evenodd" stroke-linecap="round" stroke-linejoin="round">
        <g id="Group-16" transform="translate(7.000000, 7.000000)" stroke="#FFFFFF" stroke-width="1.5">
            <g id="Group-4" transform="translate(0.000000, 19.700000)">
                <polygon id="Stroke-1" points="0.75 51.25 71.45 51.25 71.45 45.05 0.75 45.05"></polygon>
                <polygon id="Stroke-3" points="0.75 6.65 71.45 6.65 71.45 0.45 0.75 0.45"></polygon>
            </g>
            <polyline id="Stroke-5" points="17.85 28.65 17.85 31.95 5.35 31.95 5.35 28.65"></polyline>
            <polyline id="Stroke-6" points="17.85 62.35 17.85 58.95 5.35 58.95 5.35 62.35"></polyline>
            <polygon id="Stroke-7" points="7.35 58.95 15.85 58.95 15.85 31.95 7.35 31.95"></polygon>
            <polyline id="Stroke-8" points="42.45 28.65 42.45 31.95 29.85 31.95 29.85 28.65"></polyline>
            <polyline id="Stroke-9" points="42.45 62.35 42.45 58.95 29.85 58.95 29.85 62.35"></polyline>
            <polygon id="Stroke-10" points="31.95 58.95 40.45 58.95 40.45 31.95 31.95 31.95"></polygon>
            <polyline id="Stroke-11" points="66.95 28.65 66.95 31.95 54.45 31.95 54.45 28.65"></polyline>
            <polyline id="Stroke-12" points="66.95 62.35 66.95 58.95 54.45 58.95 54.45 62.35"></polyline>
            <polygon id="Stroke-13" points="56.45 58.95 64.95 58.95 64.95 31.95 56.45 31.95"></polygon>
            <polygon id="Stroke-14" points="67.25 20.15 5.15 20.15 36.15 0.75"></polygon>
        </g>
    </g>
</svg>