<svg xmlns="http://www.w3.org/2000/svg" viewBox="0 0 70.9 70.9" style="enable-background:new 0 0 70.9 70.9" xml:space="preserve">
    <path d="M22.6 14.1c0-7 5.7-12.7 12.7-12.7h0c7 0 12.7 5.7 12.7 12.7v7.3" style="fill:none;stroke:#fb0000;stroke-width:2;stroke-linecap:round;stroke-linejoin:round;stroke-miterlimit:10"/>
    <path d="M47 21.9c-4.7 0-8.9 4-11.7 8.4-2.8-4.3-7-8.4-11.7-8.4-8 0-14.5 6.5-14.5 14.5 0 4.4 1 5.7 3.1 8.4l.6.7s0 .1.1.1l21.2 23.5c.2.3.6.4 1 .4s.7-.1.9-.4c3.7-3.8 21.8-22.7 23.4-24.8.3-.4 2.3-3.1 2.3-7.9-.2-8-6.7-14.5-14.7-14.5z" style="fill:none;stroke:#070707;stroke-miterlimit:10"/>
    <path d="M35.3 39.6c-2.4 0-4.4 2-4.4 4.4 0 1.6.8 2.9 2 3.7v4.8c0 1.3 1.1 2.4 2.4 2.4 1.3 0 2.4-1.1 2.4-2.4v-4.8c1.2-.8 2-2.2 2-3.7 0-2.4-2-4.4-4.4-4.4z" style="fill:none;stroke:#070707;stroke-miterlimit:10"/>
</svg>
