<svg xmlns="http://www.w3.org/2000/svg" viewBox="0 0 73.7 73.7" style="enable-background:new 0 0 73.7 73.7" xml:space="preserve">
    <path d="M52.5 13c-4.7 0-8.9 4-11.7 8.4-2.8-4.3-7-8.4-11.7-8.4-8 0-14.5 6.5-14.5 14.5 0 4.4 1 5.7 3.1 8.4l.6.7s0 .1.1.1l21.2 23.5c.2.3.6.4 1 .4s.7-.1.9-.4c3.7-3.8 21.8-22.7 23.4-24.8.3-.4 2.3-3.1 2.3-7.9C67 19.6 60.5 13 52.5 13z" style="fill:none;stroke:#070707;stroke-miterlimit:10"/>
    <path style="fill:none;stroke:#e63223;stroke-width:2;stroke-linejoin:round;stroke-miterlimit:10" d="M6.4 32.3h12.3l4.4-8.5 6 19.4L35 27.6l5.1 9.6 3.2-4.9h12.8"/>
</svg>
