<svg xmlns="http://www.w3.org/2000/svg" viewBox="0 0 70.9 70.9" style="enable-background:new 0 0 70.9 70.9" xml:space="preserve">
    <path style="fill:none;stroke:#070707;stroke-linecap:round;stroke-linejoin:round;stroke-miterlimit:10" d="m28 27.7-3.3 9.2 4-2.2 2.8 3.6 3.1-8M36.3 30.3l3.1 8 2.8-3.6 4 2.2-3.3-9.2"/>
    <path d="M38.1 7.8c.7.9 1.9 1.4 3 1.3 2.2-.3 4 1.6 3.7 3.7-.1 1.2.3 2.3 1.3 3 1.7 1.3 1.7 3.9 0 5.2-.9.7-1.4 1.9-1.3 3 .3 2.2-1.6 4-3.7 3.7-1.2-.1-2.3.3-3 1.3-1.3 1.7-3.9 1.7-5.2 0-.7-.9-1.9-1.4-3-1.3-2.2.3-4-1.6-3.7-3.7.1-1.2-.3-2.3-1.3-3-1.7-1.3-1.7-3.9 0-5.2.9-.7 1.4-1.9 1.3-3-.3-2.2 1.6-4 3.7-3.7 1.2.1 2.3-.3 3-1.3 1.2-1.7 3.8-1.7 5.2 0z" style="fill:none;stroke:#070707;stroke-miterlimit:10"/>
    <circle cx="35.4" cy="18.4" r="7.8" style="fill:none;stroke:#070707;stroke-linecap:round;stroke-linejoin:round;stroke-miterlimit:10"/>
    <path style="fill:none;stroke:#070707;stroke-width:1.0022;stroke-miterlimit:10" d="M46.5 18.6h17.3v45.7H7.1V18.6h15.5"/>
    <path style="fill:none;stroke:#fb0000;stroke-width:2;stroke-miterlimit:10" d="M21.8 45.7h27.3M18.4 52.9h34.1"/>
</svg>
