<?xml version="1.0" encoding="UTF-8"?>
<svg width="74px" height="80px" viewBox="0 0 74 80" version="1.1" xmlns="http://www.w3.org/2000/svg" xmlns:xlink="http://www.w3.org/1999/xlink">
    <title>ico_Quick_03</title>
    <defs>
        <polygon id="path-1" points="0 0.0853218182 34 0.0853218182 34 26.0853218 0 26.0853218"></polygon>
    </defs>
    <g id="ico_Quick_03" stroke="none" stroke-width="1" fill="none" fill-rule="evenodd">
        <g id="Group-16" transform="translate(20.000000, 26.000000)">
            <path d="M4.5434303,7.60907818 L13.0016562,7.60907818 C14.017535,7.60907818 14.0207196,6.07598727 13.0016562,6.07598727 L4.5434303,6.07598727 C3.52755152,6.07598727 3.52436694,7.60907818 4.5434303,7.60907818" id="Fill-1" fill="#FFFFFF"></path>
            <path d="M4.5434303,12.9922964 L13.0016562,12.9922964 C14.017535,12.9922964 14.0207196,11.4592055 13.0016562,11.4592055 L4.5434303,11.4592055 C3.52755152,11.4592055 3.52436694,12.9922964 4.5434303,12.9922964" id="Fill-3" fill="#FFFFFF"></path>
            <path d="M13.0013377,16.8414964 L4.54311185,16.8414964 C3.52723306,16.8414964 3.52404848,18.3745873 4.54311185,18.3745873 L13.0013377,18.3745873 C14.0172165,18.3745873 14.0204011,16.8414964 13.0013377,16.8414964" id="Fill-5" fill="#FFFFFF"></path>
            <g id="Group-9" transform="translate(0.000000, 0.914678)">
                <mask id="mask-2" fill="white">
                    <use xlink:href="#path-1"></use>
                </mask>
                <g id="Clip-8"></g>
                <path d="M1.55801922,1.75860585 L12.8976349,1.75860585 C14.7100887,1.75860585 16.1832964,3.34080385 16.1832964,5.28734595 L16.1832964,23.5382867 L15.9068736,23.2414137 C14.8200296,22.0741631 13.3719512,21.4298138 11.832779,21.4298138 L1.55801922,21.4298138 L1.55801922,1.75860585 Z M17.8167036,5.28734595 C17.8167036,3.34080385 19.2899113,1.75860585 21.1023651,1.75860585 L32.4419808,1.75860585 L32.4419808,21.4298138 L22.1640798,21.4298138 C20.6280488,21.4298138 19.1799704,22.0741631 18.0931264,23.2414137 L17.8167036,23.5382867 L17.8167036,5.28734595 Z M11.832779,23.1030979 C12.9573171,23.1030979 14.0127494,23.5720222 14.8043237,24.425532 L16.063932,25.7749546 C16.2524021,25.977368 16.5005543,26.0853218 16.7581301,26.0853218 C16.8398004,26.0853218 16.9183296,26.0718276 17,26.0482127 C17.0785292,26.0718276 17.1601996,26.0853218 17.2418699,26.0853218 C17.4963045,26.0853218 17.7475979,25.977368 17.936068,25.7749546 L19.1925351,24.425532 C19.9872506,23.5720222 21.0426829,23.1030979 22.1640798,23.1030979 L32.5707687,23.1030979 C33.3592018,23.1030979 34,22.4148923 34,21.5681297 L34,1.61691647 C34,0.773527346 33.3592018,0.0853218182 32.5707687,0.0853218182 L21.1023651,0.0853218182 C19.3747228,0.0853218182 17.8575388,1.06027965 17,2.52440317 C16.1424612,1.06027965 14.6252772,0.0853218182 12.8976349,0.0853218182 L1.42609017,0.0853218182 C0.640798226,0.0853218182 0,0.773527346 0,1.61691647 L0,21.5681297 C0,22.4148923 0.640798226,23.1030979 1.42609017,23.1030979 L11.832779,23.1030979 Z" id="Fill-7" fill="#FFFFFF" mask="url(#mask-2)"></path>
            </g>
            <path d="M21.4697543,7.60907818 L29.9279802,7.60907818 C30.943859,7.60907818 30.9470435,6.07598727 29.9279802,6.07598727 L21.4697543,6.07598727 C20.4538755,6.07598727 20.4506909,7.60907818 21.4697543,7.60907818" id="Fill-10" fill="#FFFFFF"></path>
            <path d="M21.4697543,12.9922964 L29.9279802,12.9922964 C30.943859,12.9922964 30.9470435,11.4592055 29.9279802,11.4592055 L21.4697543,11.4592055 C20.4538755,11.4592055 20.4506909,12.9922964 21.4697543,12.9922964" id="Fill-12" fill="#FFFFFF"></path>
            <path d="M21.4697543,18.3755145 L29.9279802,18.3755145 C30.943859,18.3755145 30.9470435,16.8424236 29.9279802,16.8424236 L21.4697543,16.8424236 C20.4538755,16.8424236 20.4506909,18.3755145 21.4697543,18.3755145" id="Fill-14" fill="#FFFFFF"></path>
        </g>
    </g>
</svg>