<?xml version="1.0" encoding="UTF-8"?>
<svg width="74px" height="80px" viewBox="0 0 74 80" version="1.1" xmlns="http://www.w3.org/2000/svg" xmlns:xlink="http://www.w3.org/1999/xlink">
    <title>ico_Quick_04</title>
    <g id="ico_Quick_04" stroke="none" stroke-width="1" fill="none" fill-rule="evenodd">
        <g id="Group" transform="translate(20.000000, 25.000000)">
            <circle id="Oval" stroke="#FFFFFF" stroke-width="1.4" cx="24.6" cy="11.5" r="9.8"></circle>
            <text id="?" font-family="SpoqaHanSansNeo-Bold, Spoqa Han Sans Neo" font-size="14" font-weight="bold" letter-spacing="-0.233333333" fill="#FFFFFF">
                <tspan x="21.1373333" y="17">?</tspan>
            </text>
            <path d="M21.6,2 C20.6,1 18.1,0 14.6,0 C11.1,0 8.6,1 6.6,3 C4.6,5 3.1,8 3.1,9.5 C3.1,11 3.1,13 2.6,14 C2.58554481,14.0289104 1.75221148,15.3622437 0.1,18 C-0.233333333,19.3333333 0.266666667,20 1.6,20 C3.6,20 3.1,20.5 3.1,23 C3.1,25.5 4.6,26.5 5.6,26.5 C6.26666667,26.5 7.1,26.5 8.1,26.5 C8.43333333,26.5 8.6,26.8333333 8.6,27.5 C8.6,28.5 8.1,30 11.6,30 C13.9333333,30 15.6,30 16.6,30 L20.6,30 C21.9333333,29.6666667 22.6,29 22.6,28 C22.6,27 22.6,25.3333333 22.6,23 C22.6,22.3333333 22.7666667,21.8333333 23.1,21.5" id="Path-6" stroke="#FFFFFF" stroke-width="1.4"></path>
        </g>
    </g>
</svg>