<?xml version="1.0" encoding="UTF-8"?>
<svg width="74px" height="80px" viewBox="0 0 74 80" version="1.1" xmlns="http://www.w3.org/2000/svg" xmlns:xlink="http://www.w3.org/1999/xlink">
    <title>ico_Quick_04</title>
    <defs>
        <polygon id="path-1" points="0 0 30 0 30 27 0 27"></polygon>
    </defs>
    <g id="ico_Quick_04" stroke="none" stroke-width="1" fill="none" fill-rule="evenodd">
        <g id="Group-3" transform="translate(22.000000, 27.000000)">
            <mask id="mask-2" fill="white">
                <use xlink:href="#path-1"></use>
            </mask>
            <g id="Clip-2"></g>
            <path d="M25.0261412,20.5927549 L25.0261412,11.0969048 C29.7225015,11.9250313 29.7225015,19.7615613 25.0261412,20.5927549 L25.0261412,20.5927549 Z M13.6396541,24.2549141 C14.5777197,24.0739532 15.7359743,24.2549141 16.6891213,24.2549141 C17.2380857,24.2549141 17.7991152,24.2211757 18.3450633,24.2549141 C18.5652524,24.2702498 18.7070179,24.2181085 18.9332395,24.3499953 C19.5636437,24.7180515 19.2439172,25.5799165 18.5803338,25.638192 L15.4343455,25.638192 C14.8944299,25.638192 14.3334004,25.6811319 13.7934848,25.638192 C12.8674844,25.5645808 12.5960185,24.4573451 13.6396541,24.2549141 L13.6396541,24.2549141 Z M4.97687513,20.5927549 C0.28051478,19.7615613 0.28051478,11.9250313 4.97687513,11.0969048 L4.97687513,20.5927549 Z M25.0080434,9.72282831 C24.7908707,5.70488141 22.489443,2.14087049 18.5773175,0.644108588 C14.466117,-0.929331688 9.67625176,0.463147621 7.01588578,3.91367454 C5.69475166,5.62820303 5.09149407,7.61570654 4.99195657,9.72282831 C2.03297808,10.1614286 0,12.8850445 0,15.8448299 C0,18.7954138 2.02091293,21.5128954 4.97084255,21.9606971 C4.9587774,22.6293326 4.93766338,23.3010351 4.97687513,23.9635363 C5.03720088,25.0401007 5.79730545,25.4909696 6.79871305,25.5093724 C8.41544339,25.5369766 10.0321737,25.5155066 11.6489041,25.5093724 C11.7725719,25.9295699 12.0259401,26.3129618 12.3969435,26.5828696 C12.9278102,26.9723958 13.5159863,27 14.1433742,27 L18.5803338,27 C18.6466921,27 18.7040016,26.9907986 18.7613111,26.9754629 C20.7249145,26.6503466 21.4608888,23.9727377 19.4128293,23.071 C18.9060929,22.8470992 18.3480796,22.8931062 17.8051478,22.8931062 L15.3408405,22.8931062 C14.0166901,22.8931062 12.360748,22.6753396 11.7363764,24.1444973 L7.5618339,24.1444973 C6.9857229,24.1444973 6.41564448,24.3561296 6.35531872,23.7120312 C6.28292781,22.9360461 6.35531872,22.1232553 6.35531872,21.344203 L6.35531872,10.3454567 C6.35531872,8.07884393 6.97969033,5.93798367 8.53609491,4.22345518 C10.1799718,2.41384551 12.5356927,1.35568392 15,1.35568392 C17.4220792,1.35568392 19.7416047,2.37397275 21.379449,4.13144113 C22.9931631,5.85823816 23.6476976,8.0328369 23.6476976,10.3454567 L23.6476976,21.344203 C23.6476976,21.7061249 23.9613915,22.0373755 24.3354112,22.025107 C27.6593605,21.9330929 30,19.0223818 30,15.8448299 C30,12.8850445 27.9700382,10.1583615 25.0080434,9.72282831 L25.0080434,9.72282831 Z" id="Fill-1" fill="#FFFFFF" mask="url(#mask-2)"></path>
        </g>
    </g>
</svg>