<svg width="22" height="22" viewBox="0 0 22 22" xmlns="http://www.w3.org/2000/svg" xmlns:xlink="http://www.w3.org/1999/xlink">
    <defs>
        <path id="34yla2jwba" d="M0 0h22v22H0z"/>
    </defs>
    <g fill="none" fill-rule="evenodd">
        <mask id="1udbo0k30b" fill="#fff">
            <use xlink:href="#34yla2jwba"/>
        </mask>
        <path d="M11 .75c2.28 0 4.344.907 5.838 2.374A7.987 7.987 0 0 1 19.25 8.84c0 5.813-6.51 10.966-8.25 12.24-1.741-1.274-8.25-6.427-8.25-12.24 0-2.233.922-4.253 2.412-5.716A8.306 8.306 0 0 1 11 .75z" stroke="#444" stroke-width="1.5" mask="url(#1udbo0k30b)"/>
        <path d="M11 5.75c.898 0 1.71.364 2.298.952.588.588.952 1.4.952 2.298a3.24 3.24 0 0 1-.952 2.298A3.24 3.24 0 0 1 11 12.25a3.24 3.24 0 0 1-2.298-.952A3.24 3.24 0 0 1 7.75 9c0-.898.364-1.71.952-2.298A3.24 3.24 0 0 1 11 5.75z" stroke="#444" stroke-width="1.5" mask="url(#1udbo0k30b)"/>
    </g>
</svg>
