<?xml version="1.0" encoding="utf-8"?>
<!-- Generator: Adobe Illustrator 26.5.0, SVG Export Plug-In . SVG Version: 6.00 Build 0)  -->
<svg version="1.1" id="Layer_1" xmlns="http://www.w3.org/2000/svg" xmlns:xlink="http://www.w3.org/1999/xlink" x="0px" y="0px"
	 viewBox="0 0 557.97 145.43" style="enable-background:new 0 0 557.97 145.43;" xml:space="preserve">
<style type="text/css">
	.st0{fill:#E60012;}
	.st1{fill:#093389;}
</style>
<g>
	<polygon class="st0" points="205.69,41.77 226.06,41.77 226.06,0.15 205.69,11.74 	"/>
	<g>
		<path class="st1" d="M155.85,49.79H115.6c-9.69,0-17.57,7.89-17.57,17.6v0.64h53.91c9.36,0.02,12.68,3.42,12.7,13.01v6.47h-42.82
			c-16.87,0.03-29.12,12.35-29.12,29.33c0,16.97,12.25,29.3,29.12,29.3h34.04c16.07,0,29.14-13.07,29.14-29.14V78.93
			C185,62.86,171.92,49.79,155.85,49.79z M164.63,114.89c-0.02,9.59-3.34,13-12.7,13h-26.2c-5.23,0-8.1-0.59-9.9-2.06
			c-1.89-1.54-2.74-4.26-2.77-8.83c0-8.92,2.61-11.23,12.67-11.23h38.9V114.89z"/>
		<path class="st1" d="M418.09,49.79h-40.25c-9.69,0-17.57,7.89-17.57,17.6v0.64h53.9c9.37,0.02,12.68,3.42,12.7,13.01v6.47h-42.82
			c-16.87,0.03-29.12,12.35-29.12,29.33c0,16.97,12.25,29.3,29.12,29.3h34.04c16.07,0,29.14-13.07,29.14-29.14V78.93
			C447.24,62.86,434.16,49.79,418.09,49.79z M426.87,114.89c-0.02,9.59-3.34,13-12.7,13h-26.2c-5.23,0-8.1-0.59-9.9-2.06
			c-1.89-1.54-2.74-4.26-2.77-8.83c0-8.92,2.61-11.23,12.67-11.23h38.9V114.89z"/>
		<path class="st1" d="M528.84,49.79h-31.76c-16.07,0-29.14,13.07-29.14,29.14v66.5h20.37V81.04c0.01-9.6,3.33-13.01,12.7-13.01
			h23.91c9.37,0,12.68,3.41,12.68,13.01v64.39h20.38v-66.5C557.97,62.86,544.9,49.79,528.84,49.79z"/>
		<path class="st1" d="M307.65,49.79h-40.54V2.49h-20.36v142.96h20.36V68.03h36.62c9.36,0,12.68,3.41,12.7,13.01v64.39h20.36v-66.5
			C336.8,62.86,323.72,49.79,307.65,49.79z"/>
		<path class="st1" d="M44.02,0L23.66,12.31V49.8h-6.08C7.88,49.8,0,57.69,0,67.39v0.64h23.66v48.99
			c0,16.06,13.07,29.12,29.12,29.12h25.05v-18.23H56.7c-9.36,0-12.68-3.4-12.68-13V68.03h33.81V49.8H44.02V0z"/>
		<polygon class="st1" points="205.69,145.43 226.06,145.43 226.06,45.69 205.69,57.28 		"/>
	</g>
</g>
</svg>
