<svg xmlns="http://www.w3.org/2000/svg" viewBox="0 0 113.4 113.4" style="enable-background:new 0 0 113.4 113.4" xml:space="preserve">
    <path d="M7.5 62.4c0-34.9 25.3-57.9 55.1-57.9 26.6 0 43.4 17.9 43.4 43.7 0 22.8-14.5 34.5-26.9 34.5-7.3 0-12.8-3.3-13.7-9.7h-.3c-4 5-10.1 8.7-15.6 8.7-9.2 0-16-6.6-16-18.5 0-14.2 10.2-30.3 25.2-30.3 4.5 0 7.9 1.8 10.2 6.3h.2l1.6-5.3H79l-5.4 26.4c-2.3 9.6-.2 13.9 6.6 13.9 7.9 0 16.7-9.6 16.7-25.4C97 28.6 85.5 13 61.5 13c-22.7 0-44.6 19.3-44.6 49.1 0 25.2 16.6 38.7 38.1 38.7 7.4 0 14.8-2.3 20.4-5.5l3.3 7.6c-7.7 4.2-15.9 6.4-24.7 6.4-25.5 0-46.5-16.1-46.5-46.9zM62.9 66l3.4-19.6c-2.2-3.5-4.4-4.8-7.6-4.8-9.3 0-15.1 11.7-15.1 20.8C43.6 69.8 47 73 52 73c3.3.1 6.8-2 10.9-7z" style="fill:#444"/>
</svg>
