<svg xmlns="http://www.w3.org/2000/svg" viewBox="0 0 85 85" style="enable-background:new 0 0 85 85" xml:space="preserve">
    <path style="fill:#fff;stroke:#000;stroke-linecap:round;stroke-linejoin:round;stroke-miterlimit:10" d="M1.2 77.7h82.6M76 74.2V38.5L53.7 51.7V38.5L31.3 51.7V38.5L9 51.7v22.5"/>
    <path style="fill:#e30011" d="M17.7 60.8h6.1v6.1h-6.1zM39.5 60.8h6.1v6.1h-6.1zM61.3 60.8h6.1v6.1h-6.1z"/>
    <path style="fill:#fff;stroke:#000;stroke-linecap:round;stroke-linejoin:round;stroke-miterlimit:10" d="M15.8 43.8V24H9v23.8M26.9 37.1V24h-6.7v17.1"/>
    <path d="M12.4 20.2h0c-1.8-1.8-1.8-4.7 0-6.4h0c1.8-1.8 1.8-4.7 0-6.4M23.6 20.2h0c-1.8-1.8-1.8-4.7 0-6.4h0c1.8-1.8 1.8-4.7 0-6.4" style="fill:none;stroke:#000;stroke-linecap:round;stroke-linejoin:round;stroke-miterlimit:10"/>
</svg>
