<svg xmlns="http://www.w3.org/2000/svg" viewBox="0 0 85 85" style="enable-background:new 0 0 85 85" xml:space="preserve">
    <path style="fill:#fff;stroke:#e30011;stroke-width:5;stroke-linecap:square;stroke-linejoin:round;stroke-miterlimit:10" d="M29.8 15.1V4.8"/>
    <path style="fill:#fff;stroke:#000;stroke-linecap:round;stroke-linejoin:round;stroke-miterlimit:10" d="M14.3 76.8V24.4h31v52.4M18.3 17.5h23v6.9h-23zM22.2 12.2h15.1v5.3H22.2zM7.7 80.2h69.6M20.2 33.1H24M27.9 33.1h3.8M35.7 33.1h3.8M20.2 43.1H24M27.9 43.1h3.8M35.7 43.1h3.8M20.2 52.2H24M27.9 52.2h3.8M35.7 52.2h3.8M20.2 61.3H24M27.9 61.3h3.8M35.7 61.3h3.8M20.2 70.2H24M27.9 70.2h3.8M35.7 70.2h3.8M45.3 76.8V31.1h25.5v45.7M50.2 43.1h2.7M56.7 43.1h2.7M63.2 43.1h2.7M50.2 52.2h2.7M56.7 52.2h2.7M63.2 52.2h2.7M50.2 61.3h2.7M56.7 61.3h2.7M63.2 61.3h2.7M50.2 70.2h2.7M56.7 70.2h2.7M63.2 70.2h2.7"/>
</svg>
