<svg xmlns="http://www.w3.org/2000/svg" viewBox="0 0 1000 1090" style="enable-background:new 0 0 1000 1090" xml:space="preserve">
    <path style="fill:none;stroke:#fff;stroke-width:1.5;stroke-linecap:round;stroke-linejoin:round;stroke-miterlimit:10" d="M-2557.6-286h-24.5M-2542.6-318.5c5.7 2.8 9.7 8.6 9.7 15.4 0 8.3-5.5 15.1-13.4 16.7"/>
    <path transform="rotate(45.001 -2550.381 -325.542)" style="fill:none;stroke:#fff;stroke-width:1.5;stroke-linecap:round;stroke-linejoin:round;stroke-miterlimit:10" d="M-2560.6-346.3h20.5v41.5h-20.5z"/>
    <path transform="rotate(45.001 -2567.486 -308.437)" style="fill:none;stroke:#fff;stroke-width:1.5;stroke-linecap:round;stroke-linejoin:round;stroke-miterlimit:10" d="M-2574.5-311.9h14v6.9h-14z"/>
    <path transform="rotate(45.001 -2532.866 -343.058)" style="fill:none;stroke:#fff;stroke-width:1.5;stroke-linecap:round;stroke-linejoin:round;stroke-miterlimit:10" d="M-2536.9-347.1h8.1v8.1h-8.1z"/>
    <path style="fill:none;stroke:#fff;stroke-width:1.5;stroke-linecap:round;stroke-linejoin:round;stroke-miterlimit:10" d="m-2534.9-350.9 9.8 9.9M-2554.8-290.9l-8.7 15c-1.3 2.2.3 5 2.9 5h17.3c2.6 0 4.2-2.8 2.9-5l-8.7-15c-1.2-2.3-4.4-2.3-5.7 0z"/>
</svg>
