<svg xmlns="http://www.w3.org/2000/svg" viewBox="0 0 107.7 107.7" style="enable-background:new 0 0 107.7 107.7" xml:space="preserve">
    <path d="M61.1 23.2c2.7.6 2.7.6 5.4 1.4 10.1 3.3 18.2 10.1 23.2 18.6 5.7 9.8 7.4 22 3.7 33.7-1 3.2-2.4 6.1-4.1 8.9-9.7 16.1-29.6 24-48.2 18-7.5-2.4-13.9-6.8-18.7-12.4-9.1-10.6-12.7-25.6-8.1-39.9 3.1-9.5 9.2-17.1 17-22.1 5.3-3.5 9.2-4.7 15.5-6.1" style="fill:none;stroke:#fff;stroke-width:1.5;stroke-miterlimit:10"/>
    <path d="M26.1 61.1 38 73.6 22.4 91.3c-9.1-10.6-12.7-25.6-8.1-39.9 3.1-9.5 9.2-17.1 17-22.1C40.8 35 51.1 41 51.1 41l-25 20.1zM93.3 76.9c-1 3.2-2.4 6.1-4.1 8.9l-12.5-2.3-5.1-28.8 18-11.4c5.8 9.8 7.5 21.9 3.7 33.6zM63.5 86.2l-5.7 6.3 7.3 4 6.6-5.2z" style="fill:none;stroke:#fff;stroke-width:1.5;stroke-linecap:round;stroke-linejoin:round;stroke-miterlimit:10"/>
    <path d="M64.9 13.1c0 6.1-11.1 21.2-11.1 21.2s-11.1-15-11.1-21.2S47.7 2 53.8 2s11.1 5 11.1 11.1z" style="fill:none;stroke:#fff;stroke-width:1.5;stroke-miterlimit:10"/>
    <circle cx="53.8" cy="12.8" r="3" style="fill:none;stroke:#fff;stroke-width:1.5;stroke-linecap:round;stroke-linejoin:round;stroke-miterlimit:10"/>
</svg>
