<svg xmlns="http://www.w3.org/2000/svg" viewBox="0 0 107.7 107.7" style="enable-background:new 0 0 107.7 107.7" xml:space="preserve">
    <path style="fill:none;stroke:#fff;stroke-width:1.5;stroke-linecap:round;stroke-linejoin:round;stroke-miterlimit:10" d="M49.9 78.8H25.4M64.9 46.3c5.7 2.8 9.7 8.6 9.7 15.4 0 8.3-5.5 15.1-13.4 16.7"/>
    <path transform="rotate(-45.001 57.105 39.234)" style="fill:none;stroke:#fff;stroke-width:1.5;stroke-linecap:round;stroke-linejoin:round;stroke-miterlimit:9.9999" d="M36.4 29h41.5v20.5H36.4z"/>
    <path transform="rotate(-45.001 39.972 56.303)" style="fill:none;stroke:#fff;stroke-width:1.5;stroke-linecap:round;stroke-linejoin:round;stroke-miterlimit:9.9999" d="M36.5 49.3h6.9v14h-6.9z"/>
    <path transform="rotate(-45.001 74.599 21.718)" style="fill:none;stroke:#fff;stroke-width:1.5;stroke-linecap:round;stroke-linejoin:round;stroke-miterlimit:9.9999" d="M70.5 17.7h8.1v8.1h-8.1z"/>
    <path style="fill:none;stroke:#fff;stroke-width:1.5;stroke-linecap:round;stroke-linejoin:round;stroke-miterlimit:10" d="m72.6 13.9 9.8 9.9M52.7 73.9l-8.7 15c-1.3 2.2.3 5 2.9 5h17.3c2.6 0 4.2-2.8 2.9-5l-8.7-15c-1.2-2.3-4.4-2.3-5.7 0z"/>
</svg>
