<svg xmlns="http://www.w3.org/2000/svg" viewBox="0 0 107.7 107.7" style="enable-background:new 0 0 107.7 107.7" xml:space="preserve">
    <ellipse cx="53.9" cy="85.5" rx="6.4" ry="3.1" style="fill:none;stroke:#fff;stroke-width:1.5;stroke-linecap:round;stroke-linejoin:round;stroke-miterlimit:10"/>
    <path d="M76.8 41.9c0-12.6-10.2-22.8-22.8-22.8-12.6 0-22.8 10.2-22.8 22.8 0 7.8 4 14.8 10 18.9l2.2 12.9h21.3l2.2-12.9c5.9-4.2 9.9-11.1 9.9-18.9zM47.5 85.5c-2.9 0-4.3-2.4-4.3-5.3v-3.6M64.6 76.6v3.6c0 2.7-1.6 4.9-4.2 5.2" style="fill:none;stroke:#fff;stroke-width:1.5;stroke-linecap:round;stroke-linejoin:round;stroke-miterlimit:10"/>
    <path style="fill:none;stroke:#fff;stroke-width:1.5;stroke-linecap:round;stroke-linejoin:round;stroke-miterlimit:10" d="M51.1 39.7h5.6v34h-5.6zM47 39.7h13.8M23.8 41.9h-6.9M25.2 30.2l-6.6-1.8M25.2 53.5l-6.6 1.8M84.1 41.9h6.8M82.6 30.2l6.6-1.8M82.6 53.5l6.6 1.8"/>
</svg>
