<svg width="20" height="20" viewBox="0 0 20 20" xmlns="http://www.w3.org/2000/svg">
    <defs>
        <filter id="wp1hiki8ia">
            <feColorMatrix in="SourceGraphic" values="0 0 0 0 1.000000 0 0 0 0 1.000000 0 0 0 0 1.000000 0 0 0 1.000000 0"/>
        </filter>
    </defs>
    <g fill="none" fill-rule="evenodd">
        <circle fill="#666" cx="10" cy="10" r="10"/>
        <g filter="url(#wp1hiki8ia)">
            <g fill="#000">
                <path d="M10.961 7.078c.288 0 .532-.102.735-.304A1 1 0 0 0 12 6.039c0-.287-.1-.533-.3-.735A.998.998 0 0 0 10.96 5a.99.99 0 0 0-.731.304c-.2.202-.3.448-.3.735a1 1 0 0 0 .303.735.993.993 0 0 0 .728.304M8.272 14.742c.181.172.425.258.732.258.8 0 1.557-.62 2.268-1.859l-.24-.141c-.297.457-.551.773-.763.947a.366.366 0 0 1-.24.106c-.048 0-.092-.022-.135-.067a.207.207 0 0 1-.064-.145c0-.09.04-.278.12-.565L11.4 8.25h-.425L8.58 8.64l-.091.282c.099-.005.183-.007.254-.007a.53.53 0 0 1 .368.12c.089.08.134.172.134.276 0 .165-.047.41-.142.735l-.982 3.378c-.08.269-.12.49-.12.664 0 .264.09.482.272.654"/>
            </g>
        </g>
    </g>
</svg>
