<?xml version="1.0" encoding="utf-8"?>
<!-- Generator: Adobe Illustrator 26.5.0, SVG Export Plug-In . SVG Version: 6.00 Build 0)  -->
<svg version="1.1" id="conts" xmlns="http://www.w3.org/2000/svg" xmlns:xlink="http://www.w3.org/1999/xlink" x="0px" y="0px"
	 viewBox="0 0 70.9 70.9" style="enable-background:new 0 0 70.9 70.9;" xml:space="preserve">
<g>
	<path d="M57.8,31.5l-0.4-1.4C55,19.4,45.6,12,34.7,12c-7.9,0-15.3,4-19.6,10.6l-0.7,1.3l-2.5-1.6l0.8-1.3C17.6,13.5,25.8,9,34.8,9
		C47,9,57.6,17.4,60.4,29.3l0.4,1.4L57.8,31.5z"/>
	<polygon points="59.2,33.9 48,27.5 49.5,24.9 59.4,30.7 64.8,21.1 67.5,22.6 61.2,33.4 	"/>
	<path d="M34.8,61.9c-11.7,0-22.2-7.9-25.4-19.2l-0.4-1.4l2.8-0.8l0.4,1.4c2.8,10,12.1,17,22.5,17c7.9,0,15.3-4,19.6-10.6l0.7-1.3
		l2.5,1.6l-0.8,1.3C52,57.4,43.7,61.9,34.8,61.9z"/>
	<polygon points="6.1,51.2 3.4,49.8 8.8,38.6 10.8,37.9 22.4,43.4 21.2,46.1 10.9,41.2 	"/>
</g>
</svg>
