<svg xmlns="http://www.w3.org/2000/svg" viewBox="0 0 73.7 73.7" style="enable-background:new 0 0 73.7 73.7" xml:space="preserve">
    <path d="m66.5 41.8-14.7-9.6-6.8-1.7c-.1-1.4-.8-2.6-1.9-3.4l1.6-5.5-2.2-15.9c-.1-1.1-1.2-1.9-2.4-1.9s-2.3.8-2.4 1.9l-2.2 15.9L37 27c-1 .8-1.7 2-1.9 3.4l-6.7 1.7-14.7 9.6c-1 .6-1.3 1.8-.6 2.7.6.9 1.9 1.3 3 .9l17-6.3 3.6-3-4.9 33.8h16.6L43.5 36l3.6 3 17 6.3c1.1.4 2.4 0 3-.9.6-.8.3-2-.6-2.6z" style="fill:none;stroke:#fff;stroke-width:1.5;stroke-linecap:round;stroke-linejoin:round;stroke-miterlimit:10"/>
    <circle cx="40.1" cy="30.9" r="5" style="fill:none;stroke:#fff;stroke-width:1.5;stroke-linecap:round;stroke-linejoin:round;stroke-miterlimit:10"/>
    <path style="fill:none;stroke:#fff;stroke-width:1.5;stroke-linecap:round;stroke-linejoin:round;stroke-miterlimit:10" d="M5.2 23.6h10.2M10.2 28.6h10.3M58.3 22.7h10.2M53.2 55.4h10.3M58.3 60.4h10.2"/>
</svg>
