<?xml version="1.0" encoding="UTF-8"?>
<svg width="85px" height="85px" viewBox="0 0 85 85" version="1.1" xmlns="http://www.w3.org/2000/svg" xmlns:xlink="http://www.w3.org/1999/xlink">
    <title>ico_ESG_Social</title>
    <g id="ico_ESG_Social" stroke="none" stroke-width="1" fill="none" fill-rule="evenodd">
        <g id="Group-11" transform="translate(4.000000, 9.000000)" fill="#FFFFFF">
            <path d="M29.4,61.1 L20.3,61.1 C19.8,61.1 19.4,60.7 19.4,60.2 C19.4,59.7 19.8,59.3 20.3,59.3 L29.4,59.3 C29.9,59.3 30.3,59.7 30.3,60.2 C30.2,60.7 29.9,61.1 29.4,61.1" id="Fill-1"></path>
            <path d="M20.4,64.6 L35.1,64.6 L35.1,50.2 L14.5,33.6 C13.4,32.6 11.8,32.6 10.7,33.6 C10,34.1 9.6,34.9 9.6,35.8 C9.6,36.7 10,37.5 10.6,38.1 L21.5,48.1 C21.9,48.5 21.9,49 21.5,49.2 C21.1,49.6 20.6,49.6 20.4,49.2 L9.5,39.2 C8.5,38.2 7.9,37 8,35.7 C8,35.2 8.1,34.6 8.4,34.1 L8.4,15.6 C8.4,13.8 6.9,12.3 5.1,12.3 C3.3,12.3 1.8,13.8 1.8,15.6 L1.8,42.3 L20.4,59.6 C20.5,59.7 20.6,60 20.6,60.2 L20.4,64.6 Z M36,66.2 L19.7,66.2 C19.2,66.2 18.8,65.8 18.8,65.3 L18.8,60.6 L0.2,43.3 C0.1,43.2 0,42.9 0,42.7 L0,15.6 C0,12.9 2.2,10.6 5,10.6 C7.7,10.6 10,12.8 10,15.6 L10,32 C11.7,30.8 14,30.9 15.6,32.2 L36.6,49.1 C36.8,49.2 37,49.5 37,49.7 L37,65.3 C36.8,65.8 36.4,66.2 36,66.2 L36,66.2 Z" id="Fill-3"></path>
            <path d="M41.7,64.6 L56.4,64.6 L56.4,60.3 C56.4,60.1 56.5,59.8 56.6,59.7 L75.2,42.5 L75.2,15.7 C75.2,13.9 73.7,12.4 71.9,12.4 C70.1,12.4 68.6,13.9 68.6,15.7 L68.6,34.3 C68.8,34.8 68.8,35.3 69,35.9 C69,37.2 68.5,38.6 67.5,39.4 L56.6,49.4 C56.2,49.8 55.7,49.6 55.5,49.4 C55.1,49 55.3,48.5 55.5,48.3 L66.4,38.3 C67,37.7 67.4,36.8 67.4,36 C67.4,35.1 66.9,34.3 66.3,33.8 C65.2,32.9 63.6,32.9 62.5,33.8 L41.7,50.2 L41.7,64.6 Z M57.2,66.2 L40.8,66.2 C40.3,66.2 39.9,65.8 39.9,65.3 L39.9,49.8 C39.9,49.6 40,49.3 40.3,49.2 L61.3,32.3 C62.9,31 65.2,30.8 66.9,32.1 L66.9,15.6 C66.9,12.9 69.1,10.6 71.9,10.6 C74.6,10.6 76.9,12.8 76.9,15.6 L76.9,42.7 C76.9,42.9 76.8,43.2 76.7,43.3 L57.9,60.6 L57.9,65.3 C57.9,65.8 57.6,66.2 57.2,66.2 L57.2,66.2 Z" id="Fill-5"></path>
            <path d="M29,1.5 C24.4,1.5 20.5,5.3 20.5,10 C20.5,16.7 25.6,21.2 32.2,27 C34.1,28.8 36.2,30.6 38.4,32.7 C40.5,30.6 42.5,28.8 44.6,27 C51,21.2 56.3,16.7 56.3,10 C56.3,5.4 52.5,1.5 47.8,1.5 C43.8,1.5 41.7,3.2 39.3,8.1 C39.2,8.3 38.9,8.6 38.6,8.6 C38.2,8.6 38,8.5 37.9,8.1 C35.1,3.1 32.9,1.5 29,1.5 M38.3,34.7 C38.1,34.7 37.9,34.6 37.7,34.5 C35.4,32.2 33.2,30.2 31,28.3 C24.2,22.2 18.9,17.5 18.9,10.1 C18.9,4.5 23.4,0 29,0 C33.7,0 36.2,2.3 38.2,6.1 C40.3,2.3 42.8,0 47.4,0 C53,0 57.5,4.5 57.5,10.1 C57.5,17.5 52.2,22.2 45.4,28.3 C43.2,30.2 41,32.2 38.7,34.5 C38.8,34.6 38.5,34.7 38.3,34.7" id="Fill-7"></path>
            <path d="M57.2,61.1 L48.1,61.1 C47.6,61.1 47.2,60.7 47.2,60.2 C47.2,59.7 47.6,59.3 48.1,59.3 L57.2,59.3 C57.7,59.3 58.1,59.7 58.1,60.2 C57.9,60.7 57.6,61.1 57.2,61.1" id="Fill-9"></path>
        </g>
    </g>
</svg>