<svg width="38" height="38" viewBox="0 0 38 38" xmlns="http://www.w3.org/2000/svg" xmlns:xlink="http://www.w3.org/1999/xlink">
    <defs>
        <path id="bjklpsj2na" d="M0 0h38v38H0z"/>
    </defs>
    <g fill="none" fill-rule="evenodd">
        <mask id="zta04zjoqb" fill="#fff">
            <use xlink:href="#bjklpsj2na"/>
        </mask>
        <path d="M23.173 24.79c.1-.793.285-1.574.595-2.325a9.286 9.286 0 0 1 1.94-2.928 9.67 9.67 0 0 0 2.77-6.8 9.654 9.654 0 0 0-3.013-7.043 9.667 9.667 0 0 0-7.186-2.683c-4.942.227-9.012 4.274-9.266 9.214a9.768 9.768 0 0 0 2.792 7.35c1.419 1.435 2.285 3.315 2.51 5.318" stroke="#FFF" mask="url(#zta04zjoqb)"/>
        <rect stroke="#FFF" mask="url(#zta04zjoqb)" x="11.587" y="25.065" width="14.304" height="3.174" rx="1.587"/>
        <rect stroke="#FFF" mask="url(#zta04zjoqb)" x="12.978" y="28.543" width="11.522" height="3.174" rx="1.587"/>
        <path d="M21.522 32.217a2.783 2.783 0 0 1-5.565 0" stroke="#FFF" mask="url(#zta04zjoqb)"/>
        <circle stroke="#FFF" mask="url(#zta04zjoqb)" cx="18.739" cy="12.739" r="5.761"/>
        <text mask="url(#zta04zjoqb)" font-family="Montserrat-Medium, Montserrat" font-size="9" font-weight="400" letter-spacing="-.321" fill="#FFF">
                    <tspan x="16.652" y="15.196">s</tspan>
                </text>
    </g>
</svg>
