<svg width="40" height="41" viewBox="0 0 40 41" xmlns="http://www.w3.org/2000/svg">
    <g fill="none" fill-rule="evenodd">
        <path d="M36.798 18.711c.693 9.344-6.32 17.48-15.664 18.174-22.51.772-24.88-31.287-2.509-33.838 9.343-.693 17.48 6.32 18.173 15.664z" stroke="#020202" stroke-dasharray="1.488,1.983"/>
        <path fill="#FFF" d="M19.95 0v5.582"/>
        <path stroke="#000" d="M19.95 0v5.582"/>
        <path fill="#FFF" d="M5.582 20.649H0"/>
        <path stroke="#000" d="M5.582 20.649H0"/>
        <path fill="#FFF" d="M40 20.742h-5.582"/>
        <path stroke="#000" d="M40 20.742h-5.582"/>
        <g>
            <path fill="#FFF" d="M20.015 40.323v-5.582"/>
            <path stroke="#000" d="M20.015 40.323v-5.582"/>
        </g>
        <path d="M20.007 20.516a2.52 2.52 0 0 0 2.506-2.532c-.013-1.39-1.15-2.515-2.524-2.501a2.52 2.52 0 0 0-2.5 2.526c.009 1.388 1.143 2.517 2.518 2.507M19.731 13h.54c.142.018.284.033.425.054 1.466.22 2.63.943 3.452 2.168.865 1.288 1.058 2.7.64 4.197-.278.996-.728 1.919-1.241 2.811-.883 1.536-1.94 2.946-3.093 4.287-.096.112-.229.193-.345.288h-.215c-.11-.088-.237-.162-.327-.268-1.163-1.35-2.23-2.77-3.118-4.318-.51-.889-.954-1.808-1.235-2.8-.323-1.143-.296-2.275.187-3.359.757-1.7 2.07-2.712 3.919-3.007.136-.021.274-.036.411-.053" fill="#FB0000"/>
    </g>
</svg>
