<svg width="36" height="26" viewBox="0 0 36 26" xmlns="http://www.w3.org/2000/svg">
    <g fill="none" fill-rule="evenodd">
        <path stroke="#000" stroke-linecap="round" stroke-linejoin="round" d="M1 25.255h34.251V1H1z"/>
        <path d="M20.34 14.964a1.242 1.242 0 0 0-.122-.688 1.972 1.972 0 0 0-.442-.577 3.07 3.07 0 0 0-.67-.442 3.81 3.81 0 0 0-.78-.283v3.61c.23-.031.459-.091.689-.177a2.53 2.53 0 0 0 .626-.338c.18-.13.333-.288.46-.472.127-.185.207-.395.24-.633zm-4.495-4.434c0 .279.046.518.136.719.09.2.216.366.38.497.156.139.342.25.559.332.217.082.456.147.719.196V9.032c-.221.024-.44.075-.657.153a2.17 2.17 0 0 0-.572.3 1.576 1.576 0 0 0-.411.462c-.102.176-.154.37-.154.583zm2.482-2.063a4.13 4.13 0 0 1 1.332.35c.43.192.772.46 1.026.804l-.491.369a2.834 2.834 0 0 0-.817-.614 3.179 3.179 0 0 0-1.05-.332v3.34c.368.083.724.199 1.068.35.344.153.643.339.897.56.254.22.45.477.589.767.139.29.193.613.16.964a1.87 1.87 0 0 1-.307.805 2.595 2.595 0 0 1-.614.633c-.246.18-.524.329-.836.448-.311.119-.63.198-.957.239v1.413h-.688v-1.376a4.764 4.764 0 0 1-.86-.104 4.296 4.296 0 0 1-.823-.264 3.487 3.487 0 0 1-.75-.406 2.735 2.735 0 0 1-.59-.565l.505-.368c.123.172.276.325.46.46.185.136.392.252.62.35a3.885 3.885 0 0 0 1.438.332V12.85a5.864 5.864 0 0 1-1.001-.245 2.608 2.608 0 0 1-.793-.43 1.88 1.88 0 0 1-.521-.682c-.128-.274-.191-.612-.191-1.013 0-.295.07-.561.209-.798.139-.238.327-.447.565-.627.229-.172.493-.31.792-.411.299-.103.612-.166.94-.191v-.761h.688v.774z" fill="#FB0000"/>
        <path d="M8.86 3.29a5.569 5.569 0 0 1-5.57 5.57M8.86 22.964a5.569 5.569 0 0 0-5.57-5.569M27.391 3.29a5.569 5.569 0 0 0 5.57 5.57M27.391 22.964a5.569 5.569 0 0 1 5.57-5.569" stroke="#000" stroke-linecap="round" stroke-linejoin="round"/>
    </g>
</svg>
