<svg xmlns="http://www.w3.org/2000/svg" viewBox="0 0 42.5 42.5" style="enable-background:new 0 0 42.5 42.5" xml:space="preserve">
    <path d="M21.3 5.7c3.5 0 6.4 2.8 6.4 6.4 0 3.5-2.8 6.4-6.4 6.4-3.5 0-6.4-2.8-6.4-6.4.1-3.6 2.9-6.4 6.4-6.4m0-1c-4.1 0-7.4 3.3-7.4 7.4s3.3 7.4 7.4 7.4 7.4-3.3 7.4-7.4-3.3-7.4-7.4-7.4z"/>
    <path d="M21.3 19.7c6.5 0 11.8 5.3 11.8 11.8v5.3H9.6v-5.3c0-6.5 5.3-11.8 11.7-11.8m0-.9c-7 0-12.8 5.7-12.8 12.8v6.2H34v-6.2c.1-7.2-5.7-12.8-12.7-12.8z"/>
    <path d="m18.9 28.2 2.5 3.2 2.6-3.2-1.6-5.9 1.1-2.6c-.7-.1-1.4-.2-2-.2-.7 0-1.4.1-2 .2l1.1 2.6-1.7 5.9z" style="fill:#fb0000"/>
</svg>
