<svg width="35" height="33" viewBox="0 0 35 33" xmlns="http://www.w3.org/2000/svg">
    <g fill="none" fill-rule="evenodd">
        <path d="M17.485 11.02a2.323 2.323 0 0 0-2.312 2.306c-.008 1.265 1.042 2.318 2.312 2.318 1.27 0 2.32-1.053 2.312-2.318a2.324 2.324 0 0 0-2.312-2.306m-1.158-4.134h2.316c.203.063.298.207.334.411.048.264.108.525.173.785.013.05.062.108.109.13.193.088.394.162.589.248.064.03.11.03.17-.01.235-.156.472-.307.709-.458.235-.15.399-.134.595.061l1.44 1.441c.196.196.213.361.063.596-.153.24-.31.478-.46.721a.185.185 0 0 0-.01.144c.077.204.159.405.25.603a.224.224 0 0 0 .129.11c.264.064.53.124.797.174.2.037.338.135.4.332v2.316c-.062.197-.2.295-.4.332-.267.05-.533.11-.797.175a.222.222 0 0 0-.13.11 9.302 9.302 0 0 0-.25.602.185.185 0 0 0 .012.144c.149.243.306.481.459.721.15.235.133.4-.062.596-.48.481-.96.961-1.441 1.44-.197.196-.36.212-.595.062a47.46 47.46 0 0 1-.708-.457c-.06-.04-.107-.04-.171-.01-.195.085-.396.16-.59.248a.221.221 0 0 0-.108.13c-.065.26-.125.52-.173.784-.036.204-.131.348-.334.411h-2.316c-.203-.063-.297-.207-.334-.412a11.794 11.794 0 0 0-.173-.784.221.221 0 0 0-.11-.129 9.313 9.313 0 0 0-.601-.25.187.187 0 0 0-.145.01c-.243.15-.48.306-.721.46-.235.15-.398.133-.595-.063-.481-.479-.961-.96-1.441-1.44-.196-.197-.212-.36-.062-.596.153-.24.31-.478.459-.72a.185.185 0 0 0 .01-.145 9.329 9.329 0 0 0-.25-.603.224.224 0 0 0-.128-.109c-.264-.065-.53-.125-.797-.175-.2-.037-.338-.135-.4-.332v-2.316c.062-.197.2-.295.4-.332.267-.05.533-.11.797-.175a.224.224 0 0 0 .129-.109c.09-.198.173-.399.25-.603a.185.185 0 0 0-.011-.144c-.15-.243-.306-.48-.46-.72-.15-.236-.133-.4.063-.596l1.44-1.442c.196-.195.36-.21.596-.06.24.152.478.31.72.458a.187.187 0 0 0 .146.011c.207-.079.412-.164.614-.255a.188.188 0 0 0 .095-.112c.065-.269.127-.538.177-.81.037-.2.135-.337.332-.399" fill="#FB0000"/>
        <path stroke="#000" d="M6.97 26.04H1V1h32.97v24.594H12.227v6.086z"/>
    </g>
</svg>
