<svg width="34" height="34" viewBox="0 0 34 34" xmlns="http://www.w3.org/2000/svg" xmlns:xlink="http://www.w3.org/1999/xlink">
    <defs>
        <path id="oy4mrw0zxa" d="M0 33.477h33.477V0H0z"/>
    </defs>
    <g fill="none" fill-rule="evenodd">
        <path stroke="#FB0000" d="M8.057 3.526v9.064M3.526 8.057h9.063"/>
        <path fill="#FFF" d="m28.624 4.853-6.409 6.409"/>
        <path stroke="#000" stroke-linecap="round" stroke-linejoin="round" d="m28.624 4.853-6.409 6.409"/>
        <path fill="#FFF" d="m22.215 4.853 6.41 6.409"/>
        <path stroke="#000" stroke-linecap="round" stroke-linejoin="round" d="m22.215 4.853 6.41 6.409M3.526 25.42h9.063M20.888 25.42h9.064"/>
        <g>
            <path d="M26.189 22.188a.769.769 0 1 1-1.538 0 .769.769 0 0 1 1.538 0M26.189 28.651a.769.769 0 1 0-1.538 0 .769.769 0 0 0 1.538 0" fill="#000"/>
            <mask id="d223pf5vwb" fill="#fff">
                <use xlink:href="#oy4mrw0zxa"/>
            </mask>
            <path stroke="#000" mask="url(#d223pf5vwb)" d="M.5 15.615h15.115V.5H.5zM17.862 15.615h15.115V.5H17.862zM.5 32.977h15.115V17.862H.5zM17.862 32.767h15.115V17.652H17.862z"/>
        </g>
    </g>
</svg>
