<svg width="22" height="22" viewBox="0 0 22 22" xmlns="http://www.w3.org/2000/svg" xmlns:xlink="http://www.w3.org/1999/xlink">
    <defs>
        <path id="yfszltfbra" d="M0 0h22v22H0z"/>
    </defs>
    <g fill="none" fill-rule="evenodd">
        <mask id="atpoaw2yjb" fill="#fff">
            <use xlink:href="#yfszltfbra"/>
        </mask>
        <path d="m19.53 16.16-4.005-3.315a1.282 1.282 0 0 0-.878-.34c-.346 0-.67.132-.91.372l-.644.643a.674.674 0 0 1-.95 0l-1.833-1.832-1.83-1.832a.666.666 0 0 1-.197-.476c0-.18.07-.348.197-.475l.641-.641c.241-.243.373-.567.373-.913 0-.334-.127-.652-.357-.895L5.841 2.473A1.313 1.313 0 0 0 4.836 2c-.413 0-.793.19-1.044.523l-.056.076C2.943 3.669 2 5.264 2 6.789c0 1.988 1.69 4.825 4.635 7.783l.383.384c2.462 2.451 5.887 5.043 8.192 5.043 1.525 0 3.12-.943 4.189-1.734l.078-.059a1.3 1.3 0 0 0 .052-2.046z" stroke="#444" stroke-width="1.5" mask="url(#atpoaw2yjb)"/>
    </g>
</svg>
