<svg width="46" height="46" viewBox="0 0 46 46" xmlns="http://www.w3.org/2000/svg" xmlns:xlink="http://www.w3.org/1999/xlink">
    <defs>
        <path id="f89oud920a" d="M12 14h22v17.879H12z"/>
    </defs>
    <g fill="none" fill-rule="evenodd">
        <circle fill="#1CA1F2" cx="23" cy="23" r="23"/>
        <mask id="d0a3kgfgtb" fill="#fff">
            <use xlink:href="#f89oud920a"/>
        </mask>
        <path d="M34 16.116c-.81.36-1.68.602-2.592.711a4.528 4.528 0 0 0 1.984-2.497 9.038 9.038 0 0 1-2.866 1.095 4.514 4.514 0 0 0-7.691 4.117 12.814 12.814 0 0 1-9.303-4.716 4.492 4.492 0 0 0-.612 2.27c0 1.565.797 2.947 2.008 3.756a4.496 4.496 0 0 1-2.044-.565v.057a4.516 4.516 0 0 0 3.62 4.426 4.523 4.523 0 0 1-2.038.077 4.518 4.518 0 0 0 4.216 3.135 9.056 9.056 0 0 1-5.605 1.932c-.365 0-.724-.021-1.077-.063a12.775 12.775 0 0 0 6.919 2.028c8.302 0 12.842-6.878 12.842-12.842 0-.196-.005-.39-.013-.584A9.169 9.169 0 0 0 34 16.116" fill="#FFF" mask="url(#d0a3kgfgtb)"/>
    </g>
</svg>
