<svg width="46" height="46" viewBox="0 0 46 46" xmlns="http://www.w3.org/2000/svg" xmlns:xlink="http://www.w3.org/1999/xlink">
    <defs>
        <path d="M0 23c0 12.703 10.297 23 23 23 12.702 0 23-10.297 23-23C46 10.298 35.702 0 23 0 10.297 0 0 10.298 0 23z" id="dmh1jvgp9a"/>
    </defs>
    <g fill="none" fill-rule="evenodd">
        <mask id="c18jru48pb" fill="#fff">
            <use xlink:href="#dmh1jvgp9a"/>
        </mask>
        <path fill="#656666" mask="url(#c18jru48pb)" d="M-5 51h56V-5H-5z"/>
        <g fill="#FEFEFE">
            <path d="M11.247 27.006c-.779-.774-1.169-1.881-1.169-3.317V18.2h2.268v5.404c0 1.755.728 2.632 2.184 2.632.71 0 1.251-.212 1.624-.637.373-.424.56-1.089.56-1.995V18.2h2.24v5.489c0 1.436-.39 2.543-1.169 3.317-.78.775-1.869 1.162-3.269 1.162-1.4 0-2.49-.387-3.269-1.162M26.29 20.49c-.354-.295-.873-.442-1.554-.442h-1.847v3.416h1.847c.68 0 1.2-.15 1.554-.449.354-.297.532-.717.532-1.259 0-.55-.178-.973-.532-1.267zm.574 7.51-1.89-2.73H22.89V28H20.62v-9.8h4.24c.869 0 1.622.144 2.262.434.64.29 1.132.7 1.478 1.232.344.532.517 1.162.517 1.89s-.175 1.355-.525 1.882c-.35.528-.847.932-1.491 1.211L29.3 28h-2.436zM30.336 18.2h2.269v7.952h4.914V28h-7.183z"/>
        </g>
    </g>
</svg>
