<svg xmlns="http://www.w3.org/2000/svg" viewBox="0 0 73.7 73.7" style="enable-background:new 0 0 73.7 73.7" xml:space="preserve">
    <path d="M60.2 65.8h0c-3.4 0-6.2-2.8-6.2-6.2V13.3h12.4v46.3c0 3.4-2.8 6.2-6.2 6.2z" style="fill:none;stroke:#fff;stroke-width:1.7;stroke-linecap:round;stroke-linejoin:round;stroke-miterlimit:10"/>
    <path d="M60.2 62.2c-1.4 0-2.6-1.2-2.6-2.6v-23h5.2v23c0 1.4-1.2 2.6-2.6 2.6zM51.7 7.9h17v5.5h-17zM36.9 65.8h0c-3.4 0-6.2-2.8-6.2-6.2V13.3h12.4v46.3c0 3.4-2.8 6.2-6.2 6.2z" style="fill:none;stroke:#fff;stroke-width:1.7;stroke-linecap:round;stroke-linejoin:round;stroke-miterlimit:10"/>
    <path d="M36.9 62.2c-1.4 0-2.6-1.2-2.6-2.6V27.7h5.2v31.9c0 1.4-1.2 2.6-2.6 2.6zM28.4 7.9h17v5.5h-17zM13.5 65.8h0c-3.4 0-6.2-2.8-6.2-6.2V13.3h12.4v46.3c.1 3.4-2.7 6.2-6.2 6.2z" style="fill:none;stroke:#fff;stroke-width:1.7;stroke-linecap:round;stroke-linejoin:round;stroke-miterlimit:10"/>
    <path d="M13.5 62.2c-1.4 0-2.6-1.2-2.6-2.6V45h5.2v14.6c0 1.4-1.1 2.6-2.6 2.6zM5.1 7.9h17v5.5h-17z" style="fill:none;stroke:#fff;stroke-width:1.7;stroke-linecap:round;stroke-linejoin:round;stroke-miterlimit:10"/>
</svg>
